{
    "header": {
      "keySignatures": [
        {
          "key": "C",
          "scale": "major",
          "ticks": 0
        }
      ],
      "meta": [],
      "name": "untitled",
      "ppq": 480,
      "tempos": [
        {
          "bpm": 89.9999550000225,
          "ticks": 0
        },
        {
          "bpm": 50,
          "ticks": 153600
        }
      ],
      "timeSignatures": [
        {
          "ticks": 0,
          "timeSignature": [
            4,
            4
          ],
          "measures": 0
        }
      ]
    },
    "tracks": [
      {
        "channel": 0,
        "controlChanges": {
          "6": [
            {
              "number": 6,
              "ticks": 2,
              "time": 0.0027777791666666668,
              "value": 0.09448818897637795
            }
          ],
          "7": [
            {
              "number": 7,
              "ticks": 0,
              "time": 0,
              "value": 0.8661417322834646
            },
            {
              "number": 7,
              "ticks": 48,
              "time": 0.06666670000000001,
              "value": 0.8661417322834646
            }
          ],
          "10": [
            {
              "number": 10,
              "ticks": 0,
              "time": 0,
              "value": 0.5039370078740157
            },
            {
              "number": 10,
              "ticks": 48,
              "time": 0.06666670000000001,
              "value": 0.5039370078740157
            }
          ],
          "38": [
            {
              "number": 38,
              "ticks": 3,
              "time": 0.004166668750000001,
              "value": 0
            }
          ],
          "91": [
            {
              "number": 91,
              "ticks": 48,
              "time": 0.06666670000000001,
              "value": 0
            },
            {
              "number": 91,
              "ticks": 48,
              "time": 0.06666670000000001,
              "value": 0
            }
          ],
          "92": [
            {
              "number": 92,
              "ticks": 48,
              "time": 0.06666670000000001,
              "value": 0
            },
            {
              "number": 92,
              "ticks": 48,
              "time": 0.06666670000000001,
              "value": 0
            }
          ],
          "93": [
            {
              "number": 93,
              "ticks": 48,
              "time": 0.06666670000000001,
              "value": 0
            },
            {
              "number": 93,
              "ticks": 48,
              "time": 0.06666670000000001,
              "value": 0
            }
          ],
          "95": [
            {
              "number": 95,
              "ticks": 48,
              "time": 0.06666670000000001,
              "value": 0
            },
            {
              "number": 95,
              "ticks": 48,
              "time": 0.06666670000000001,
              "value": 0
            }
          ],
          "100": [
            {
              "number": 100,
              "ticks": 1,
              "time": 0.0013888895833333334,
              "value": 0
            }
          ],
          "101": [
            {
              "number": 101,
              "ticks": 0,
              "time": 0,
              "value": 0
            }
          ]
        },
        "pitchBends": [
          {
            "ticks": 5340,
            "time": 7.416670375,
            "value": -0.03125
          },
          {
            "ticks": 5400,
            "time": 7.50000375,
            "value": -0.078125
          },
          {
            "ticks": 5400,
            "time": 7.50000375,
            "value": 0
          },
          {
            "ticks": 13020,
            "time": 18.083342375,
            "value": -0.03125
          },
          {
            "ticks": 13080,
            "time": 18.16667575,
            "value": -0.078125
          },
          {
            "ticks": 13080,
            "time": 18.16667575,
            "value": 0
          },
          {
            "ticks": 20700,
            "time": 28.750014375,
            "value": -0.03125
          },
          {
            "ticks": 20760,
            "time": 28.83334775,
            "value": -0.078125
          },
          {
            "ticks": 20760,
            "time": 28.83334775,
            "value": 0
          },
          {
            "ticks": 28380,
            "time": 39.416686375,
            "value": -0.03125
          },
          {
            "ticks": 28440,
            "time": 39.50001975,
            "value": -0.078125
          },
          {
            "ticks": 28440,
            "time": 39.50001975,
            "value": 0
          },
          {
            "ticks": 51420,
            "time": 71.416702375,
            "value": -0.03125
          },
          {
            "ticks": 51480,
            "time": 71.50003575,
            "value": -0.078125
          },
          {
            "ticks": 51480,
            "time": 71.50003575,
            "value": 0
          },
          {
            "ticks": 59100,
            "time": 82.083374375,
            "value": -0.03125
          },
          {
            "ticks": 59160,
            "time": 82.16670775,
            "value": -0.078125
          },
          {
            "ticks": 59160,
            "time": 82.16670775,
            "value": 0
          },
          {
            "ticks": 99420,
            "time": 138.083402375,
            "value": -0.03125
          },
          {
            "ticks": 99480,
            "time": 138.16673575000002,
            "value": -0.078125
          },
          {
            "ticks": 99480,
            "time": 138.16673575000002,
            "value": 0
          },
          {
            "ticks": 107100,
            "time": 148.750074375,
            "value": -0.03125
          },
          {
            "ticks": 107160,
            "time": 148.83340775,
            "value": -0.078125
          },
          {
            "ticks": 107160,
            "time": 148.83340775,
            "value": 0
          }
        ],
        "instrument": {
          "family": "bass",
          "number": 34,
          "name": "electric bass (pick)"
        },
        "name": "untitled",
        "notes": [
          {
            "duration": 0.10000005,
            "durationTicks": 72,
            "midi": 58,
            "name": "A#3",
            "ticks": 48,
            "time": 0.06666670000000001,
            "velocity": 0.7480314960629921
          },
          {
            "duration": 0.16666675,
            "durationTicks": 120,
            "midi": 70,
            "name": "A#4",
            "ticks": 120,
            "time": 0.16666675,
            "velocity": 0.7480314960629921
          },
          {
            "duration": 0.16666675000000003,
            "durationTicks": 120,
            "midi": 86,
            "name": "D6",
            "ticks": 240,
            "time": 0.3333335,
            "velocity": 0.7480314960629921
          },
          {
            "duration": 0.16666674999999997,
            "durationTicks": 120,
            "midi": 58,
            "name": "A#3",
            "ticks": 360,
            "time": 0.50000025,
            "velocity": 0.7480314960629921
          },
          {
            "duration": 0.16666674999999997,
            "durationTicks": 120,
            "midi": 70,
            "name": "A#4",
            "ticks": 480,
            "time": 0.666667,
            "velocity": 0.7480314960629921
          },
          {
            "duration": 0.16666675000000009,
            "durationTicks": 120,
            "midi": 82,
            "name": "A#5",
            "ticks": 600,
            "time": 0.83333375,
            "velocity": 0.7480314960629921
          },
          {
            "duration": 0.16666675000000009,
            "durationTicks": 120,
            "midi": 75,
            "name": "D#5",
            "ticks": 840,
            "time": 1.16666725,
            "velocity": 0.7480314960629921
          },
          {
            "duration": 0.16666675000000009,
            "durationTicks": 120,
            "midi": 63,
            "name": "D#4",
            "ticks": 960,
            "time": 1.333334,
            "velocity": 0.7480314960629921
          },
          {
            "duration": 0.16666674999999986,
            "durationTicks": 120,
            "midi": 70,
            "name": "A#4",
            "ticks": 1080,
            "time": 1.50000075,
            "velocity": 0.7480314960629921
          },
          {
            "duration": 0.16666675000000009,
            "durationTicks": 120,
            "midi": 77,
            "name": "F5",
            "ticks": 1200,
            "time": 1.6666675,
            "velocity": 0.7480314960629921
          },
          {
            "duration": 0.16666675000000009,
            "durationTicks": 120,
            "midi": 75,
            "name": "D#5",
            "ticks": 1320,
            "time": 1.83333425,
            "velocity": 0.7480314960629921
          },
          {
            "duration": 0.16666675000000009,
            "durationTicks": 120,
            "midi": 77,
            "name": "F5",
            "ticks": 1440,
            "time": 2.000001,
            "velocity": 0.7480314960629921
          },
          {
            "duration": 0.16666674999999964,
            "durationTicks": 120,
            "midi": 82,
            "name": "A#5",
            "ticks": 1560,
            "time": 2.1666677500000002,
            "velocity": 0.7480314960629921
          },
          {
            "duration": 0.16666675000000009,
            "durationTicks": 120,
            "midi": 75,
            "name": "D#5",
            "ticks": 1800,
            "time": 2.50000125,
            "velocity": 0.7480314960629921
          },
          {
            "duration": 0.16666675000000009,
            "durationTicks": 120,
            "midi": 56,
            "name": "G#3",
            "ticks": 1920,
            "time": 2.666668,
            "velocity": 0.7480314960629921
          },
          {
            "duration": 0.16666675000000009,
            "durationTicks": 120,
            "midi": 63,
            "name": "D#4",
            "ticks": 2040,
            "time": 2.83333475,
            "velocity": 0.7480314960629921
          },
          {
            "duration": 0.16666674999999964,
            "durationTicks": 120,
            "midi": 72,
            "name": "C5",
            "ticks": 2160,
            "time": 3.0000015,
            "velocity": 0.7480314960629921
          },
          {
            "duration": 0.16666675000000009,
            "durationTicks": 120,
            "midi": 70,
            "name": "A#4",
            "ticks": 2280,
            "time": 3.16666825,
            "velocity": 0.7480314960629921
          },
          {
            "duration": 0.16666675000000009,
            "durationTicks": 120,
            "midi": 72,
            "name": "C5",
            "ticks": 2400,
            "time": 3.333335,
            "velocity": 0.7480314960629921
          },
          {
            "duration": 0.16666675000000009,
            "durationTicks": 120,
            "midi": 75,
            "name": "D#5",
            "ticks": 2520,
            "time": 3.50000175,
            "velocity": 0.7480314960629921
          },
          {
            "duration": 0.16666675000000009,
            "durationTicks": 120,
            "midi": 63,
            "name": "D#4",
            "ticks": 2640,
            "time": 3.6666685,
            "velocity": 0.7480314960629921
          },
          {
            "duration": 0.16666675000000009,
            "durationTicks": 120,
            "midi": 56,
            "name": "G#3",
            "ticks": 2760,
            "time": 3.83333525,
            "velocity": 0.7480314960629921
          },
          {
            "duration": 0.16666675000000009,
            "durationTicks": 120,
            "midi": 70,
            "name": "A#4",
            "ticks": 3000,
            "time": 4.16666875,
            "velocity": 0.7480314960629921
          },
          {
            "duration": 0.1666667499999992,
            "durationTicks": 120,
            "midi": 72,
            "name": "C5",
            "ticks": 3120,
            "time": 4.3333355000000005,
            "velocity": 0.7480314960629921
          },
          {
            "duration": 0.16666675000000009,
            "durationTicks": 120,
            "midi": 70,
            "name": "A#4",
            "ticks": 3240,
            "time": 4.50000225,
            "velocity": 0.7480314960629921
          },
          {
            "duration": 0.16666675000000009,
            "durationTicks": 120,
            "midi": 60,
            "name": "C4",
            "ticks": 3360,
            "time": 4.666669,
            "velocity": 0.7480314960629921
          },
          {
            "duration": 0.16666675000000009,
            "durationTicks": 120,
            "midi": 70,
            "name": "A#4",
            "ticks": 3480,
            "time": 4.83333575,
            "velocity": 0.7480314960629921
          },
          {
            "duration": 0.16666675000000009,
            "durationTicks": 120,
            "midi": 75,
            "name": "D#5",
            "ticks": 3600,
            "time": 5.0000025,
            "velocity": 0.7480314960629921
          },
          {
            "duration": 0.16666675000000009,
            "durationTicks": 120,
            "midi": 77,
            "name": "F5",
            "ticks": 3720,
            "time": 5.16666925,
            "velocity": 0.7480314960629921
          },
          {
            "duration": 0.16666675000000009,
            "durationTicks": 120,
            "midi": 58,
            "name": "A#3",
            "ticks": 3840,
            "time": 5.333336,
            "velocity": 0.7480314960629921
          },
          {
            "duration": 0.16666675000000009,
            "durationTicks": 120,
            "midi": 70,
            "name": "A#4",
            "ticks": 3960,
            "time": 5.50000275,
            "velocity": 0.7480314960629921
          },
          {
            "duration": 0.16666675000000009,
            "durationTicks": 120,
            "midi": 86,
            "name": "D6",
            "ticks": 4080,
            "time": 5.6666695,
            "velocity": 0.7480314960629921
          },
          {
            "duration": 0.16666675000000009,
            "durationTicks": 120,
            "midi": 74,
            "name": "D5",
            "ticks": 4200,
            "time": 5.83333625,
            "velocity": 0.7480314960629921
          },
          {
            "duration": 0.16666675000000009,
            "durationTicks": 120,
            "midi": 65,
            "name": "F4",
            "ticks": 4320,
            "time": 6.000003,
            "velocity": 0.7480314960629921
          },
          {
            "duration": 0.1666667499999992,
            "durationTicks": 120,
            "midi": 82,
            "name": "A#5",
            "ticks": 4440,
            "time": 6.1666697500000005,
            "velocity": 0.7480314960629921
          },
          {
            "duration": 0.16666675000000009,
            "durationTicks": 120,
            "midi": 75,
            "name": "D#5",
            "ticks": 4680,
            "time": 6.50000325,
            "velocity": 0.7480314960629921
          },
          {
            "duration": 0.16666675000000009,
            "durationTicks": 120,
            "midi": 63,
            "name": "D#4",
            "ticks": 4800,
            "time": 6.66667,
            "velocity": 0.7480314960629921
          },
          {
            "duration": 0.16666675000000009,
            "durationTicks": 120,
            "midi": 70,
            "name": "A#4",
            "ticks": 4920,
            "time": 6.83333675,
            "velocity": 0.7480314960629921
          },
          {
            "duration": 0.16666675000000009,
            "durationTicks": 120,
            "midi": 77,
            "name": "F5",
            "ticks": 5040,
            "time": 7.0000035,
            "velocity": 0.7480314960629921
          },
          {
            "duration": 0.16666675000000009,
            "durationTicks": 120,
            "midi": 75,
            "name": "D#5",
            "ticks": 5160,
            "time": 7.16667025,
            "velocity": 0.7480314960629921
          },
          {
            "duration": 0.16666675000000009,
            "durationTicks": 120,
            "midi": 80,
            "name": "G#5",
            "ticks": 5280,
            "time": 7.333337,
            "velocity": 0.7480314960629921
          },
          {
            "duration": 0.16666675000000009,
            "durationTicks": 120,
            "midi": 79,
            "name": "G5",
            "ticks": 5400,
            "time": 7.50000375,
            "velocity": 0.7480314960629921
          },
          {
            "duration": 0.16666675000000009,
            "durationTicks": 120,
            "midi": 75,
            "name": "D#5",
            "ticks": 5520,
            "time": 7.6666705,
            "velocity": 0.7480314960629921
          },
          {
            "duration": 0.16666675000000009,
            "durationTicks": 120,
            "midi": 70,
            "name": "A#4",
            "ticks": 5640,
            "time": 7.8333372500000005,
            "velocity": 0.7480314960629921
          },
          {
            "duration": 0.33333350000000017,
            "durationTicks": 240,
            "midi": 56,
            "name": "G#3",
            "ticks": 5760,
            "time": 8.000004,
            "velocity": 0.7480314960629921
          },
          {
            "duration": 0.1666667499999992,
            "durationTicks": 120,
            "midi": 72,
            "name": "C5",
            "ticks": 6000,
            "time": 8.3333375,
            "velocity": 0.7480314960629921
          },
          {
            "duration": 0.16666675000000097,
            "durationTicks": 120,
            "midi": 63,
            "name": "D#4",
            "ticks": 6120,
            "time": 8.50000425,
            "velocity": 0.7480314960629921
          },
          {
            "duration": 0.1666667499999992,
            "durationTicks": 120,
            "midi": 56,
            "name": "G#3",
            "ticks": 6240,
            "time": 8.666671000000001,
            "velocity": 0.7480314960629921
          },
          {
            "duration": 0.1666667499999992,
            "durationTicks": 120,
            "midi": 70,
            "name": "A#4",
            "ticks": 6360,
            "time": 8.83333775,
            "velocity": 0.7480314960629921
          },
          {
            "duration": 0.1666667499999992,
            "durationTicks": 120,
            "midi": 63,
            "name": "D#4",
            "ticks": 6600,
            "time": 9.16667125,
            "velocity": 0.7480314960629921
          },
          {
            "duration": 0.16666675000000097,
            "durationTicks": 120,
            "midi": 72,
            "name": "C5",
            "ticks": 6720,
            "time": 9.333338,
            "velocity": 0.7480314960629921
          },
          {
            "duration": 0.1666667499999992,
            "durationTicks": 120,
            "midi": 56,
            "name": "G#3",
            "ticks": 6840,
            "time": 9.50000475,
            "velocity": 0.7480314960629921
          },
          {
            "duration": 0.16666675000000097,
            "durationTicks": 120,
            "midi": 72,
            "name": "C5",
            "ticks": 6960,
            "time": 9.6666715,
            "velocity": 0.7480314960629921
          },
          {
            "duration": 0.1666667499999992,
            "durationTicks": 120,
            "midi": 70,
            "name": "A#4",
            "ticks": 7080,
            "time": 9.83333825,
            "velocity": 0.7480314960629921
          },
          {
            "duration": 0.16666675000000097,
            "durationTicks": 120,
            "midi": 60,
            "name": "C4",
            "ticks": 7200,
            "time": 10.000005,
            "velocity": 0.7480314960629921
          },
          {
            "duration": 0.1666667499999992,
            "durationTicks": 120,
            "midi": 75,
            "name": "D#5",
            "ticks": 7320,
            "time": 10.16667175,
            "velocity": 0.7480314960629921
          },
          {
            "duration": 0.16666675000000097,
            "durationTicks": 120,
            "midi": 77,
            "name": "F5",
            "ticks": 7440,
            "time": 10.3333385,
            "velocity": 0.7480314960629921
          },
          {
            "duration": 0.1666667499999992,
            "durationTicks": 120,
            "midi": 58,
            "name": "A#3",
            "ticks": 7680,
            "time": 10.666672,
            "velocity": 0.7480314960629921
          },
          {
            "duration": 0.16666675000000097,
            "durationTicks": 120,
            "midi": 70,
            "name": "A#4",
            "ticks": 7800,
            "time": 10.83333875,
            "velocity": 0.7480314960629921
          },
          {
            "duration": 0.1666667499999992,
            "durationTicks": 120,
            "midi": 86,
            "name": "D6",
            "ticks": 7920,
            "time": 11.0000055,
            "velocity": 0.7480314960629921
          },
          {
            "duration": 0.16666675000000097,
            "durationTicks": 120,
            "midi": 58,
            "name": "A#3",
            "ticks": 8040,
            "time": 11.16667225,
            "velocity": 0.7480314960629921
          },
          {
            "duration": 0.1666667499999992,
            "durationTicks": 120,
            "midi": 70,
            "name": "A#4",
            "ticks": 8160,
            "time": 11.333339,
            "velocity": 0.7480314960629921
          },
          {
            "duration": 0.16666675000000097,
            "durationTicks": 120,
            "midi": 82,
            "name": "A#5",
            "ticks": 8280,
            "time": 11.50000575,
            "velocity": 0.7480314960629921
          },
          {
            "duration": 0.16666675000000097,
            "durationTicks": 120,
            "midi": 75,
            "name": "D#5",
            "ticks": 8520,
            "time": 11.83333925,
            "velocity": 0.7480314960629921
          },
          {
            "duration": 0.1666667499999992,
            "durationTicks": 120,
            "midi": 63,
            "name": "D#4",
            "ticks": 8640,
            "time": 12.000006,
            "velocity": 0.7480314960629921
          },
          {
            "duration": 0.16666675000000097,
            "durationTicks": 120,
            "midi": 70,
            "name": "A#4",
            "ticks": 8760,
            "time": 12.16667275,
            "velocity": 0.7480314960629921
          },
          {
            "duration": 0.1666667499999992,
            "durationTicks": 120,
            "midi": 77,
            "name": "F5",
            "ticks": 8880,
            "time": 12.333339500000001,
            "velocity": 0.7480314960629921
          },
          {
            "duration": 0.1666667499999992,
            "durationTicks": 120,
            "midi": 75,
            "name": "D#5",
            "ticks": 9000,
            "time": 12.50000625,
            "velocity": 0.7480314960629921
          },
          {
            "duration": 0.16666675000000097,
            "durationTicks": 120,
            "midi": 77,
            "name": "F5",
            "ticks": 9120,
            "time": 12.666673,
            "velocity": 0.7480314960629921
          },
          {
            "duration": 0.1666667499999992,
            "durationTicks": 120,
            "midi": 82,
            "name": "A#5",
            "ticks": 9240,
            "time": 12.83333975,
            "velocity": 0.7480314960629921
          },
          {
            "duration": 0.1666667499999992,
            "durationTicks": 120,
            "midi": 75,
            "name": "D#5",
            "ticks": 9480,
            "time": 13.16667325,
            "velocity": 0.7480314960629921
          },
          {
            "duration": 0.16666675000000097,
            "durationTicks": 120,
            "midi": 56,
            "name": "G#3",
            "ticks": 9600,
            "time": 13.33334,
            "velocity": 0.7480314960629921
          },
          {
            "duration": 0.1666667499999992,
            "durationTicks": 120,
            "midi": 63,
            "name": "D#4",
            "ticks": 9720,
            "time": 13.50000675,
            "velocity": 0.7480314960629921
          },
          {
            "duration": 0.16666675000000097,
            "durationTicks": 120,
            "midi": 72,
            "name": "C5",
            "ticks": 9840,
            "time": 13.6666735,
            "velocity": 0.7480314960629921
          },
          {
            "duration": 0.1666667499999992,
            "durationTicks": 120,
            "midi": 70,
            "name": "A#4",
            "ticks": 9960,
            "time": 13.833340250000001,
            "velocity": 0.7480314960629921
          },
          {
            "duration": 0.16666675000000097,
            "durationTicks": 120,
            "midi": 72,
            "name": "C5",
            "ticks": 10080,
            "time": 14.000007,
            "velocity": 0.7480314960629921
          },
          {
            "duration": 0.1666667499999992,
            "durationTicks": 120,
            "midi": 75,
            "name": "D#5",
            "ticks": 10200,
            "time": 14.166673750000001,
            "velocity": 0.7480314960629921
          },
          {
            "duration": 0.1666667499999992,
            "durationTicks": 120,
            "midi": 63,
            "name": "D#4",
            "ticks": 10320,
            "time": 14.3333405,
            "velocity": 0.7480314960629921
          },
          {
            "duration": 0.16666675000000097,
            "durationTicks": 120,
            "midi": 56,
            "name": "G#3",
            "ticks": 10440,
            "time": 14.50000725,
            "velocity": 0.7480314960629921
          },
          {
            "duration": 0.16666675000000097,
            "durationTicks": 120,
            "midi": 70,
            "name": "A#4",
            "ticks": 10680,
            "time": 14.83334075,
            "velocity": 0.7480314960629921
          },
          {
            "duration": 0.1666667499999992,
            "durationTicks": 120,
            "midi": 72,
            "name": "C5",
            "ticks": 10800,
            "time": 15.0000075,
            "velocity": 0.7480314960629921
          },
          {
            "duration": 0.16666675000000097,
            "durationTicks": 120,
            "midi": 70,
            "name": "A#4",
            "ticks": 10920,
            "time": 15.16667425,
            "velocity": 0.7480314960629921
          },
          {
            "duration": 0.1666667499999992,
            "durationTicks": 120,
            "midi": 60,
            "name": "C4",
            "ticks": 11040,
            "time": 15.333341,
            "velocity": 0.7480314960629921
          },
          {
            "duration": 0.16666675000000097,
            "durationTicks": 120,
            "midi": 70,
            "name": "A#4",
            "ticks": 11160,
            "time": 15.50000775,
            "velocity": 0.7480314960629921
          },
          {
            "duration": 0.1666667499999992,
            "durationTicks": 120,
            "midi": 75,
            "name": "D#5",
            "ticks": 11280,
            "time": 15.666674500000001,
            "velocity": 0.7480314960629921
          },
          {
            "duration": 0.16666675000000097,
            "durationTicks": 120,
            "midi": 77,
            "name": "F5",
            "ticks": 11400,
            "time": 15.83334125,
            "velocity": 0.7480314960629921
          },
          {
            "duration": 0.16666674999999742,
            "durationTicks": 120,
            "midi": 58,
            "name": "A#3",
            "ticks": 11520,
            "time": 16.000008,
            "velocity": 0.7480314960629921
          },
          {
            "duration": 0.16666675000000097,
            "durationTicks": 120,
            "midi": 70,
            "name": "A#4",
            "ticks": 11640,
            "time": 16.16667475,
            "velocity": 0.7480314960629921
          },
          {
            "duration": 0.16666675000000097,
            "durationTicks": 120,
            "midi": 86,
            "name": "D6",
            "ticks": 11760,
            "time": 16.3333415,
            "velocity": 0.7480314960629921
          },
          {
            "duration": 0.16666675000000097,
            "durationTicks": 120,
            "midi": 74,
            "name": "D5",
            "ticks": 11880,
            "time": 16.50000825,
            "velocity": 0.7480314960629921
          },
          {
            "duration": 0.16666674999999742,
            "durationTicks": 120,
            "midi": 65,
            "name": "F4",
            "ticks": 12000,
            "time": 16.666675,
            "velocity": 0.7480314960629921
          },
          {
            "duration": 0.16666675000000097,
            "durationTicks": 120,
            "midi": 82,
            "name": "A#5",
            "ticks": 12120,
            "time": 16.83334175,
            "velocity": 0.7480314960629921
          },
          {
            "duration": 0.16666675000000097,
            "durationTicks": 120,
            "midi": 75,
            "name": "D#5",
            "ticks": 12360,
            "time": 17.16667525,
            "velocity": 0.7480314960629921
          },
          {
            "duration": 0.16666674999999742,
            "durationTicks": 120,
            "midi": 63,
            "name": "D#4",
            "ticks": 12480,
            "time": 17.333342000000002,
            "velocity": 0.7480314960629921
          },
          {
            "duration": 0.16666675000000097,
            "durationTicks": 120,
            "midi": 70,
            "name": "A#4",
            "ticks": 12600,
            "time": 17.50000875,
            "velocity": 0.7480314960629921
          },
          {
            "duration": 0.16666675000000097,
            "durationTicks": 120,
            "midi": 77,
            "name": "F5",
            "ticks": 12720,
            "time": 17.6666755,
            "velocity": 0.7480314960629921
          },
          {
            "duration": 0.16666674999999742,
            "durationTicks": 120,
            "midi": 75,
            "name": "D#5",
            "ticks": 12840,
            "time": 17.83334225,
            "velocity": 0.7480314960629921
          },
          {
            "duration": 0.16666675000000097,
            "durationTicks": 120,
            "midi": 80,
            "name": "G#5",
            "ticks": 12960,
            "time": 18.000009,
            "velocity": 0.7480314960629921
          },
          {
            "duration": 0.16666675000000097,
            "durationTicks": 120,
            "midi": 79,
            "name": "G5",
            "ticks": 13080,
            "time": 18.16667575,
            "velocity": 0.7480314960629921
          },
          {
            "duration": 0.16666675000000097,
            "durationTicks": 120,
            "midi": 75,
            "name": "D#5",
            "ticks": 13200,
            "time": 18.3333425,
            "velocity": 0.7480314960629921
          },
          {
            "duration": 0.16666674999999742,
            "durationTicks": 120,
            "midi": 70,
            "name": "A#4",
            "ticks": 13320,
            "time": 18.50000925,
            "velocity": 0.7480314960629921
          },
          {
            "duration": 0.33333350000000195,
            "durationTicks": 240,
            "midi": 56,
            "name": "G#3",
            "ticks": 13440,
            "time": 18.666676,
            "velocity": 0.7480314960629921
          },
          {
            "duration": 0.16666675000000097,
            "durationTicks": 120,
            "midi": 72,
            "name": "C5",
            "ticks": 13680,
            "time": 19.0000095,
            "velocity": 0.7480314960629921
          },
          {
            "duration": 0.16666674999999742,
            "durationTicks": 120,
            "midi": 63,
            "name": "D#4",
            "ticks": 13800,
            "time": 19.166676250000002,
            "velocity": 0.7480314960629921
          },
          {
            "duration": 0.16666675000000097,
            "durationTicks": 120,
            "midi": 56,
            "name": "G#3",
            "ticks": 13920,
            "time": 19.333343,
            "velocity": 0.7480314960629921
          },
          {
            "duration": 0.16666675000000097,
            "durationTicks": 120,
            "midi": 70,
            "name": "A#4",
            "ticks": 14040,
            "time": 19.50000975,
            "velocity": 0.7480314960629921
          },
          {
            "duration": 0.16666675000000097,
            "durationTicks": 120,
            "midi": 63,
            "name": "D#4",
            "ticks": 14280,
            "time": 19.83334325,
            "velocity": 0.7480314960629921
          },
          {
            "duration": 0.16666675000000097,
            "durationTicks": 120,
            "midi": 72,
            "name": "C5",
            "ticks": 14400,
            "time": 20.00001,
            "velocity": 0.7480314960629921
          },
          {
            "duration": 0.16666675000000097,
            "durationTicks": 120,
            "midi": 56,
            "name": "G#3",
            "ticks": 14520,
            "time": 20.16667675,
            "velocity": 0.7480314960629921
          },
          {
            "duration": 0.16666674999999742,
            "durationTicks": 120,
            "midi": 72,
            "name": "C5",
            "ticks": 14640,
            "time": 20.3333435,
            "velocity": 0.7480314960629921
          },
          {
            "duration": 0.16666675000000097,
            "durationTicks": 120,
            "midi": 70,
            "name": "A#4",
            "ticks": 14760,
            "time": 20.50001025,
            "velocity": 0.7480314960629921
          },
          {
            "duration": 0.16666675000000097,
            "durationTicks": 120,
            "midi": 60,
            "name": "C4",
            "ticks": 14880,
            "time": 20.666677,
            "velocity": 0.7480314960629921
          },
          {
            "duration": 0.16666675000000097,
            "durationTicks": 120,
            "midi": 75,
            "name": "D#5",
            "ticks": 15000,
            "time": 20.83334375,
            "velocity": 0.7480314960629921
          },
          {
            "duration": 0.16666674999999742,
            "durationTicks": 120,
            "midi": 77,
            "name": "F5",
            "ticks": 15120,
            "time": 21.000010500000002,
            "velocity": 0.7480314960629921
          },
          {
            "duration": 0.16666675000000097,
            "durationTicks": 120,
            "midi": 58,
            "name": "A#3",
            "ticks": 15360,
            "time": 21.333344,
            "velocity": 0.7480314960629921
          },
          {
            "duration": 0.16666674999999742,
            "durationTicks": 120,
            "midi": 70,
            "name": "A#4",
            "ticks": 15480,
            "time": 21.50001075,
            "velocity": 0.7480314960629921
          },
          {
            "duration": 0.16666675000000097,
            "durationTicks": 120,
            "midi": 86,
            "name": "D6",
            "ticks": 15600,
            "time": 21.6666775,
            "velocity": 0.7480314960629921
          },
          {
            "duration": 0.16666675000000097,
            "durationTicks": 120,
            "midi": 58,
            "name": "A#3",
            "ticks": 15720,
            "time": 21.83334425,
            "velocity": 0.7480314960629921
          },
          {
            "duration": 0.16666675000000097,
            "durationTicks": 120,
            "midi": 70,
            "name": "A#4",
            "ticks": 15840,
            "time": 22.000011,
            "velocity": 0.7480314960629921
          },
          {
            "duration": 0.16666674999999742,
            "durationTicks": 120,
            "midi": 82,
            "name": "A#5",
            "ticks": 15960,
            "time": 22.16667775,
            "velocity": 0.7480314960629921
          },
          {
            "duration": 0.16666675000000097,
            "durationTicks": 120,
            "midi": 75,
            "name": "D#5",
            "ticks": 16200,
            "time": 22.50001125,
            "velocity": 0.7480314960629921
          },
          {
            "duration": 0.16666675000000097,
            "durationTicks": 120,
            "midi": 63,
            "name": "D#4",
            "ticks": 16320,
            "time": 22.666678,
            "velocity": 0.7480314960629921
          },
          {
            "duration": 0.16666674999999742,
            "durationTicks": 120,
            "midi": 70,
            "name": "A#4",
            "ticks": 16440,
            "time": 22.833344750000002,
            "velocity": 0.7480314960629921
          },
          {
            "duration": 0.16666675000000097,
            "durationTicks": 120,
            "midi": 77,
            "name": "F5",
            "ticks": 16560,
            "time": 23.0000115,
            "velocity": 0.7480314960629921
          },
          {
            "duration": 0.16666675000000097,
            "durationTicks": 120,
            "midi": 75,
            "name": "D#5",
            "ticks": 16680,
            "time": 23.16667825,
            "velocity": 0.7480314960629921
          },
          {
            "duration": 0.16666674999999742,
            "durationTicks": 120,
            "midi": 77,
            "name": "F5",
            "ticks": 16800,
            "time": 23.333345,
            "velocity": 0.7480314960629921
          },
          {
            "duration": 0.16666675000000097,
            "durationTicks": 120,
            "midi": 82,
            "name": "A#5",
            "ticks": 16920,
            "time": 23.50001175,
            "velocity": 0.7480314960629921
          },
          {
            "duration": 0.16666675000000097,
            "durationTicks": 120,
            "midi": 75,
            "name": "D#5",
            "ticks": 17160,
            "time": 23.83334525,
            "velocity": 0.7480314960629921
          },
          {
            "duration": 0.16666674999999742,
            "durationTicks": 120,
            "midi": 56,
            "name": "G#3",
            "ticks": 17280,
            "time": 24.000012,
            "velocity": 0.7480314960629921
          },
          {
            "duration": 0.16666675000000097,
            "durationTicks": 120,
            "midi": 63,
            "name": "D#4",
            "ticks": 17400,
            "time": 24.16667875,
            "velocity": 0.7480314960629921
          },
          {
            "duration": 0.16666675000000097,
            "durationTicks": 120,
            "midi": 72,
            "name": "C5",
            "ticks": 17520,
            "time": 24.3333455,
            "velocity": 0.7480314960629921
          },
          {
            "duration": 0.16666675000000097,
            "durationTicks": 120,
            "midi": 70,
            "name": "A#4",
            "ticks": 17640,
            "time": 24.50001225,
            "velocity": 0.7480314960629921
          },
          {
            "duration": 0.16666674999999742,
            "durationTicks": 120,
            "midi": 72,
            "name": "C5",
            "ticks": 17760,
            "time": 24.666679000000002,
            "velocity": 0.7480314960629921
          },
          {
            "duration": 0.16666675000000097,
            "durationTicks": 120,
            "midi": 75,
            "name": "D#5",
            "ticks": 17880,
            "time": 24.83334575,
            "velocity": 0.7480314960629921
          },
          {
            "duration": 0.16666675000000097,
            "durationTicks": 120,
            "midi": 63,
            "name": "D#4",
            "ticks": 18000,
            "time": 25.0000125,
            "velocity": 0.7480314960629921
          },
          {
            "duration": 0.16666674999999742,
            "durationTicks": 120,
            "midi": 56,
            "name": "G#3",
            "ticks": 18120,
            "time": 25.16667925,
            "velocity": 0.7480314960629921
          },
          {
            "duration": 0.16666675000000097,
            "durationTicks": 120,
            "midi": 70,
            "name": "A#4",
            "ticks": 18360,
            "time": 25.50001275,
            "velocity": 0.7480314960629921
          },
          {
            "duration": 0.16666675000000097,
            "durationTicks": 120,
            "midi": 72,
            "name": "C5",
            "ticks": 18480,
            "time": 25.6666795,
            "velocity": 0.7480314960629921
          },
          {
            "duration": 0.16666674999999742,
            "durationTicks": 120,
            "midi": 70,
            "name": "A#4",
            "ticks": 18600,
            "time": 25.83334625,
            "velocity": 0.7480314960629921
          },
          {
            "duration": 0.16666675000000097,
            "durationTicks": 120,
            "midi": 60,
            "name": "C4",
            "ticks": 18720,
            "time": 26.000013,
            "velocity": 0.7480314960629921
          },
          {
            "duration": 0.16666675000000097,
            "durationTicks": 120,
            "midi": 70,
            "name": "A#4",
            "ticks": 18840,
            "time": 26.16667975,
            "velocity": 0.7480314960629921
          },
          {
            "duration": 0.16666675000000097,
            "durationTicks": 120,
            "midi": 75,
            "name": "D#5",
            "ticks": 18960,
            "time": 26.3333465,
            "velocity": 0.7480314960629921
          },
          {
            "duration": 0.16666674999999742,
            "durationTicks": 120,
            "midi": 77,
            "name": "F5",
            "ticks": 19080,
            "time": 26.500013250000002,
            "velocity": 0.7480314960629921
          },
          {
            "duration": 0.16666675000000097,
            "durationTicks": 120,
            "midi": 58,
            "name": "A#3",
            "ticks": 19200,
            "time": 26.66668,
            "velocity": 0.7480314960629921
          },
          {
            "duration": 0.16666675000000097,
            "durationTicks": 120,
            "midi": 70,
            "name": "A#4",
            "ticks": 19320,
            "time": 26.83334675,
            "velocity": 0.7480314960629921
          },
          {
            "duration": 0.16666674999999742,
            "durationTicks": 120,
            "midi": 86,
            "name": "D6",
            "ticks": 19440,
            "time": 27.0000135,
            "velocity": 0.7480314960629921
          },
          {
            "duration": 0.16666675000000097,
            "durationTicks": 120,
            "midi": 74,
            "name": "D5",
            "ticks": 19560,
            "time": 27.16668025,
            "velocity": 0.7480314960629921
          },
          {
            "duration": 0.16666675000000097,
            "durationTicks": 120,
            "midi": 65,
            "name": "F4",
            "ticks": 19680,
            "time": 27.333347,
            "velocity": 0.7480314960629921
          },
          {
            "duration": 0.16666675000000097,
            "durationTicks": 120,
            "midi": 82,
            "name": "A#5",
            "ticks": 19800,
            "time": 27.50001375,
            "velocity": 0.7480314960629921
          },
          {
            "duration": 0.16666675000000097,
            "durationTicks": 120,
            "midi": 75,
            "name": "D#5",
            "ticks": 20040,
            "time": 27.83334725,
            "velocity": 0.7480314960629921
          },
          {
            "duration": 0.16666675000000097,
            "durationTicks": 120,
            "midi": 63,
            "name": "D#4",
            "ticks": 20160,
            "time": 28.000014,
            "velocity": 0.7480314960629921
          },
          {
            "duration": 0.16666675000000097,
            "durationTicks": 120,
            "midi": 70,
            "name": "A#4",
            "ticks": 20280,
            "time": 28.16668075,
            "velocity": 0.7480314960629921
          },
          {
            "duration": 0.16666674999999742,
            "durationTicks": 120,
            "midi": 77,
            "name": "F5",
            "ticks": 20400,
            "time": 28.333347500000002,
            "velocity": 0.7480314960629921
          },
          {
            "duration": 0.16666675000000097,
            "durationTicks": 120,
            "midi": 75,
            "name": "D#5",
            "ticks": 20520,
            "time": 28.50001425,
            "velocity": 0.7480314960629921
          },
          {
            "duration": 0.16666675000000097,
            "durationTicks": 120,
            "midi": 80,
            "name": "G#5",
            "ticks": 20640,
            "time": 28.666681,
            "velocity": 0.7480314960629921
          },
          {
            "duration": 0.16666674999999742,
            "durationTicks": 120,
            "midi": 79,
            "name": "G5",
            "ticks": 20760,
            "time": 28.83334775,
            "velocity": 0.7480314960629921
          },
          {
            "duration": 0.16666675000000097,
            "durationTicks": 120,
            "midi": 75,
            "name": "D#5",
            "ticks": 20880,
            "time": 29.0000145,
            "velocity": 0.7480314960629921
          },
          {
            "duration": 0.16666675000000097,
            "durationTicks": 120,
            "midi": 70,
            "name": "A#4",
            "ticks": 21000,
            "time": 29.16668125,
            "velocity": 0.7480314960629921
          },
          {
            "duration": 0.3333334999999984,
            "durationTicks": 240,
            "midi": 56,
            "name": "G#3",
            "ticks": 21120,
            "time": 29.333348,
            "velocity": 0.7480314960629921
          },
          {
            "duration": 0.16666675000000097,
            "durationTicks": 120,
            "midi": 72,
            "name": "C5",
            "ticks": 21360,
            "time": 29.6666815,
            "velocity": 0.7480314960629921
          },
          {
            "duration": 0.16666675000000097,
            "durationTicks": 120,
            "midi": 63,
            "name": "D#4",
            "ticks": 21480,
            "time": 29.83334825,
            "velocity": 0.7480314960629921
          },
          {
            "duration": 0.16666675000000097,
            "durationTicks": 120,
            "midi": 56,
            "name": "G#3",
            "ticks": 21600,
            "time": 30.000015,
            "velocity": 0.7480314960629921
          },
          {
            "duration": 0.16666674999999742,
            "durationTicks": 120,
            "midi": 70,
            "name": "A#4",
            "ticks": 21720,
            "time": 30.166681750000002,
            "velocity": 0.7480314960629921
          },
          {
            "duration": 0.16666675000000097,
            "durationTicks": 120,
            "midi": 63,
            "name": "D#4",
            "ticks": 21960,
            "time": 30.50001525,
            "velocity": 0.7480314960629921
          },
          {
            "duration": 0.16666674999999742,
            "durationTicks": 120,
            "midi": 72,
            "name": "C5",
            "ticks": 22080,
            "time": 30.666682,
            "velocity": 0.7480314960629921
          },
          {
            "duration": 0.16666675000000097,
            "durationTicks": 120,
            "midi": 56,
            "name": "G#3",
            "ticks": 22200,
            "time": 30.83334875,
            "velocity": 0.7480314960629921
          },
          {
            "duration": 0.16666675000000097,
            "durationTicks": 120,
            "midi": 72,
            "name": "C5",
            "ticks": 22320,
            "time": 31.0000155,
            "velocity": 0.7480314960629921
          },
          {
            "duration": 0.16666675000000097,
            "durationTicks": 120,
            "midi": 70,
            "name": "A#4",
            "ticks": 22440,
            "time": 31.16668225,
            "velocity": 0.7480314960629921
          },
          {
            "duration": 0.16666674999999742,
            "durationTicks": 120,
            "midi": 60,
            "name": "C4",
            "ticks": 22560,
            "time": 31.333349000000002,
            "velocity": 0.7480314960629921
          },
          {
            "duration": 0.16666675000000097,
            "durationTicks": 120,
            "midi": 75,
            "name": "D#5",
            "ticks": 22680,
            "time": 31.50001575,
            "velocity": 0.7480314960629921
          },
          {
            "duration": 0.16666675000000097,
            "durationTicks": 120,
            "midi": 77,
            "name": "F5",
            "ticks": 22800,
            "time": 31.6666825,
            "velocity": 0.7480314960629921
          },
          {
            "duration": 0.16666674999999742,
            "durationTicks": 120,
            "midi": 58,
            "name": "A#3",
            "ticks": 23040,
            "time": 32.000016,
            "velocity": 0.7480314960629921
          },
          {
            "duration": 0.16666674999999742,
            "durationTicks": 120,
            "midi": 70,
            "name": "A#4",
            "ticks": 23160,
            "time": 32.16668275,
            "velocity": 0.7480314960629921
          },
          {
            "duration": 0.16666675000000453,
            "durationTicks": 120,
            "midi": 86,
            "name": "D6",
            "ticks": 23280,
            "time": 32.3333495,
            "velocity": 0.7480314960629921
          },
          {
            "duration": 0.16666674999999742,
            "durationTicks": 120,
            "midi": 58,
            "name": "A#3",
            "ticks": 23400,
            "time": 32.50001625,
            "velocity": 0.7480314960629921
          },
          {
            "duration": 0.16666675000000453,
            "durationTicks": 120,
            "midi": 70,
            "name": "A#4",
            "ticks": 23520,
            "time": 32.666683,
            "velocity": 0.7480314960629921
          },
          {
            "duration": 0.16666674999999742,
            "durationTicks": 120,
            "midi": 82,
            "name": "A#5",
            "ticks": 23640,
            "time": 32.833349750000004,
            "velocity": 0.7480314960629921
          },
          {
            "duration": 0.16666675000000453,
            "durationTicks": 120,
            "midi": 75,
            "name": "D#5",
            "ticks": 23880,
            "time": 33.16668325,
            "velocity": 0.7480314960629921
          },
          {
            "duration": 0.16666674999999742,
            "durationTicks": 120,
            "midi": 63,
            "name": "D#4",
            "ticks": 24000,
            "time": 33.33335,
            "velocity": 0.7480314960629921
          },
          {
            "duration": 0.16666674999999742,
            "durationTicks": 120,
            "midi": 70,
            "name": "A#4",
            "ticks": 24120,
            "time": 33.50001675,
            "velocity": 0.7480314960629921
          },
          {
            "duration": 0.16666675000000453,
            "durationTicks": 120,
            "midi": 77,
            "name": "F5",
            "ticks": 24240,
            "time": 33.6666835,
            "velocity": 0.7480314960629921
          },
          {
            "duration": 0.16666674999999742,
            "durationTicks": 120,
            "midi": 75,
            "name": "D#5",
            "ticks": 24360,
            "time": 33.83335025,
            "velocity": 0.7480314960629921
          },
          {
            "duration": 0.16666674999999742,
            "durationTicks": 120,
            "midi": 77,
            "name": "F5",
            "ticks": 24480,
            "time": 34.000017,
            "velocity": 0.7480314960629921
          },
          {
            "duration": 0.16666675000000453,
            "durationTicks": 120,
            "midi": 82,
            "name": "A#5",
            "ticks": 24600,
            "time": 34.16668375,
            "velocity": 0.7480314960629921
          },
          {
            "duration": 0.16666675000000453,
            "durationTicks": 120,
            "midi": 75,
            "name": "D#5",
            "ticks": 24840,
            "time": 34.50001725,
            "velocity": 0.7480314960629921
          },
          {
            "duration": 0.16666674999999742,
            "durationTicks": 120,
            "midi": 56,
            "name": "G#3",
            "ticks": 24960,
            "time": 34.666684000000004,
            "velocity": 0.7480314960629921
          },
          {
            "duration": 0.16666674999999742,
            "durationTicks": 120,
            "midi": 63,
            "name": "D#4",
            "ticks": 25080,
            "time": 34.83335075,
            "velocity": 0.7480314960629921
          },
          {
            "duration": 0.16666675000000453,
            "durationTicks": 120,
            "midi": 72,
            "name": "C5",
            "ticks": 25200,
            "time": 35.0000175,
            "velocity": 0.7480314960629921
          },
          {
            "duration": 0.16666674999999742,
            "durationTicks": 120,
            "midi": 70,
            "name": "A#4",
            "ticks": 25320,
            "time": 35.16668425,
            "velocity": 0.7480314960629921
          },
          {
            "duration": 0.16666674999999742,
            "durationTicks": 120,
            "midi": 72,
            "name": "C5",
            "ticks": 25440,
            "time": 35.333351,
            "velocity": 0.7480314960629921
          },
          {
            "duration": 0.16666675000000453,
            "durationTicks": 120,
            "midi": 75,
            "name": "D#5",
            "ticks": 25560,
            "time": 35.50001775,
            "velocity": 0.7480314960629921
          },
          {
            "duration": 0.16666674999999742,
            "durationTicks": 120,
            "midi": 63,
            "name": "D#4",
            "ticks": 25680,
            "time": 35.6666845,
            "velocity": 0.7480314960629921
          },
          {
            "duration": 0.16666674999999742,
            "durationTicks": 120,
            "midi": 56,
            "name": "G#3",
            "ticks": 25800,
            "time": 35.83335125,
            "velocity": 0.7480314960629921
          },
          {
            "duration": 0.16666674999999742,
            "durationTicks": 120,
            "midi": 70,
            "name": "A#4",
            "ticks": 26040,
            "time": 36.16668475,
            "velocity": 0.7480314960629921
          },
          {
            "duration": 0.16666675000000453,
            "durationTicks": 120,
            "midi": 72,
            "name": "C5",
            "ticks": 26160,
            "time": 36.3333515,
            "velocity": 0.7480314960629921
          },
          {
            "duration": 0.16666674999999742,
            "durationTicks": 120,
            "midi": 70,
            "name": "A#4",
            "ticks": 26280,
            "time": 36.500018250000004,
            "velocity": 0.7480314960629921
          },
          {
            "duration": 0.16666674999999742,
            "durationTicks": 120,
            "midi": 60,
            "name": "C4",
            "ticks": 26400,
            "time": 36.666685,
            "velocity": 0.7480314960629921
          },
          {
            "duration": 0.16666675000000453,
            "durationTicks": 120,
            "midi": 70,
            "name": "A#4",
            "ticks": 26520,
            "time": 36.83335175,
            "velocity": 0.7480314960629921
          },
          {
            "duration": 0.16666674999999742,
            "durationTicks": 120,
            "midi": 75,
            "name": "D#5",
            "ticks": 26640,
            "time": 37.0000185,
            "velocity": 0.7480314960629921
          },
          {
            "duration": 0.16666674999999742,
            "durationTicks": 120,
            "midi": 77,
            "name": "F5",
            "ticks": 26760,
            "time": 37.16668525,
            "velocity": 0.7480314960629921
          },
          {
            "duration": 0.16666675000000453,
            "durationTicks": 120,
            "midi": 58,
            "name": "A#3",
            "ticks": 26880,
            "time": 37.333352,
            "velocity": 0.7480314960629921
          },
          {
            "duration": 0.16666674999999742,
            "durationTicks": 120,
            "midi": 70,
            "name": "A#4",
            "ticks": 27000,
            "time": 37.50001875,
            "velocity": 0.7480314960629921
          },
          {
            "duration": 0.16666674999999742,
            "durationTicks": 120,
            "midi": 86,
            "name": "D6",
            "ticks": 27120,
            "time": 37.6666855,
            "velocity": 0.7480314960629921
          },
          {
            "duration": 0.16666675000000453,
            "durationTicks": 120,
            "midi": 74,
            "name": "D5",
            "ticks": 27240,
            "time": 37.83335225,
            "velocity": 0.7480314960629921
          },
          {
            "duration": 0.16666674999999742,
            "durationTicks": 120,
            "midi": 65,
            "name": "F4",
            "ticks": 27360,
            "time": 38.000019,
            "velocity": 0.7480314960629921
          },
          {
            "duration": 0.16666675000000453,
            "durationTicks": 120,
            "midi": 82,
            "name": "A#5",
            "ticks": 27480,
            "time": 38.16668575,
            "velocity": 0.7480314960629921
          },
          {
            "duration": 0.16666674999999742,
            "durationTicks": 120,
            "midi": 75,
            "name": "D#5",
            "ticks": 27720,
            "time": 38.50001925,
            "velocity": 0.7480314960629921
          },
          {
            "duration": 0.16666675000000453,
            "durationTicks": 120,
            "midi": 63,
            "name": "D#4",
            "ticks": 27840,
            "time": 38.666686,
            "velocity": 0.7480314960629921
          },
          {
            "duration": 0.16666674999999742,
            "durationTicks": 120,
            "midi": 70,
            "name": "A#4",
            "ticks": 27960,
            "time": 38.83335275,
            "velocity": 0.7480314960629921
          },
          {
            "duration": 0.16666674999999742,
            "durationTicks": 120,
            "midi": 77,
            "name": "F5",
            "ticks": 28080,
            "time": 39.0000195,
            "velocity": 0.7480314960629921
          },
          {
            "duration": 0.16666675000000453,
            "durationTicks": 120,
            "midi": 75,
            "name": "D#5",
            "ticks": 28200,
            "time": 39.16668625,
            "velocity": 0.7480314960629921
          },
          {
            "duration": 0.16666674999999742,
            "durationTicks": 120,
            "midi": 80,
            "name": "G#5",
            "ticks": 28320,
            "time": 39.333353,
            "velocity": 0.7480314960629921
          },
          {
            "duration": 0.16666674999999742,
            "durationTicks": 120,
            "midi": 79,
            "name": "G5",
            "ticks": 28440,
            "time": 39.50001975,
            "velocity": 0.7480314960629921
          },
          {
            "duration": 0.16666675000000453,
            "durationTicks": 120,
            "midi": 75,
            "name": "D#5",
            "ticks": 28560,
            "time": 39.6666865,
            "velocity": 0.7480314960629921
          },
          {
            "duration": 0.16666674999999742,
            "durationTicks": 120,
            "midi": 70,
            "name": "A#4",
            "ticks": 28680,
            "time": 39.83335325,
            "velocity": 0.7480314960629921
          },
          {
            "duration": 0.33333350000000195,
            "durationTicks": 240,
            "midi": 56,
            "name": "G#3",
            "ticks": 28800,
            "time": 40.00002,
            "velocity": 0.7480314960629921
          },
          {
            "duration": 0.16666674999999742,
            "durationTicks": 120,
            "midi": 72,
            "name": "C5",
            "ticks": 29040,
            "time": 40.3333535,
            "velocity": 0.7480314960629921
          },
          {
            "duration": 0.16666675000000453,
            "durationTicks": 120,
            "midi": 63,
            "name": "D#4",
            "ticks": 29160,
            "time": 40.50002025,
            "velocity": 0.7480314960629921
          },
          {
            "duration": 0.16666674999999742,
            "durationTicks": 120,
            "midi": 56,
            "name": "G#3",
            "ticks": 29280,
            "time": 40.666687,
            "velocity": 0.7480314960629921
          },
          {
            "duration": 0.16666674999999742,
            "durationTicks": 120,
            "midi": 70,
            "name": "A#4",
            "ticks": 29400,
            "time": 40.83335375,
            "velocity": 0.7480314960629921
          },
          {
            "duration": 0.16666674999999742,
            "durationTicks": 120,
            "midi": 63,
            "name": "D#4",
            "ticks": 29640,
            "time": 41.16668725,
            "velocity": 0.7480314960629921
          },
          {
            "duration": 0.16666674999999742,
            "durationTicks": 120,
            "midi": 72,
            "name": "C5",
            "ticks": 29760,
            "time": 41.333354,
            "velocity": 0.7480314960629921
          },
          {
            "duration": 0.16666675000000453,
            "durationTicks": 120,
            "midi": 56,
            "name": "G#3",
            "ticks": 29880,
            "time": 41.50002075,
            "velocity": 0.7480314960629921
          },
          {
            "duration": 0.16666674999999742,
            "durationTicks": 120,
            "midi": 72,
            "name": "C5",
            "ticks": 30000,
            "time": 41.6666875,
            "velocity": 0.7480314960629921
          },
          {
            "duration": 0.16666675000000453,
            "durationTicks": 120,
            "midi": 70,
            "name": "A#4",
            "ticks": 30120,
            "time": 41.83335425,
            "velocity": 0.7480314960629921
          },
          {
            "duration": 0.16666674999999742,
            "durationTicks": 120,
            "midi": 60,
            "name": "C4",
            "ticks": 30240,
            "time": 42.000021000000004,
            "velocity": 0.7480314960629921
          },
          {
            "duration": 0.16666674999999742,
            "durationTicks": 120,
            "midi": 75,
            "name": "D#5",
            "ticks": 30360,
            "time": 42.16668775,
            "velocity": 0.7480314960629921
          },
          {
            "duration": 0.16666675000000453,
            "durationTicks": 120,
            "midi": 77,
            "name": "F5",
            "ticks": 30480,
            "time": 42.3333545,
            "velocity": 0.7480314960629921
          },
          {
            "duration": 0.16666674999999032,
            "durationTicks": 120,
            "midi": 58,
            "name": "A#3",
            "ticks": 46080,
            "time": 64.000032,
            "velocity": 0.7480314960629921
          },
          {
            "duration": 0.16666675000000453,
            "durationTicks": 120,
            "midi": 70,
            "name": "A#4",
            "ticks": 46200,
            "time": 64.16669875,
            "velocity": 0.7480314960629921
          },
          {
            "duration": 0.16666675000000453,
            "durationTicks": 120,
            "midi": 86,
            "name": "D6",
            "ticks": 46320,
            "time": 64.3333655,
            "velocity": 0.7480314960629921
          },
          {
            "duration": 0.16666674999999032,
            "durationTicks": 120,
            "midi": 58,
            "name": "A#3",
            "ticks": 46440,
            "time": 64.50003225,
            "velocity": 0.7480314960629921
          },
          {
            "duration": 0.16666675000000453,
            "durationTicks": 120,
            "midi": 70,
            "name": "A#4",
            "ticks": 46560,
            "time": 64.666699,
            "velocity": 0.7480314960629921
          },
          {
            "duration": 0.16666675000000453,
            "durationTicks": 120,
            "midi": 82,
            "name": "A#5",
            "ticks": 46680,
            "time": 64.83336575,
            "velocity": 0.7480314960629921
          },
          {
            "duration": 0.16666674999999032,
            "durationTicks": 120,
            "midi": 75,
            "name": "D#5",
            "ticks": 46920,
            "time": 65.16669925000001,
            "velocity": 0.7480314960629921
          },
          {
            "duration": 0.16666675000000453,
            "durationTicks": 120,
            "midi": 63,
            "name": "D#4",
            "ticks": 47040,
            "time": 65.333366,
            "velocity": 0.7480314960629921
          },
          {
            "duration": 0.16666675000000453,
            "durationTicks": 120,
            "midi": 70,
            "name": "A#4",
            "ticks": 47160,
            "time": 65.50003275,
            "velocity": 0.7480314960629921
          },
          {
            "duration": 0.16666674999999032,
            "durationTicks": 120,
            "midi": 77,
            "name": "F5",
            "ticks": 47280,
            "time": 65.66669950000001,
            "velocity": 0.7480314960629921
          },
          {
            "duration": 0.16666675000000453,
            "durationTicks": 120,
            "midi": 75,
            "name": "D#5",
            "ticks": 47400,
            "time": 65.83336625,
            "velocity": 0.7480314960629921
          },
          {
            "duration": 0.16666675000000453,
            "durationTicks": 120,
            "midi": 77,
            "name": "F5",
            "ticks": 47520,
            "time": 66.000033,
            "velocity": 0.7480314960629921
          },
          {
            "duration": 0.16666674999999032,
            "durationTicks": 120,
            "midi": 82,
            "name": "A#5",
            "ticks": 47640,
            "time": 66.16669975,
            "velocity": 0.7480314960629921
          },
          {
            "duration": 0.16666675000000453,
            "durationTicks": 120,
            "midi": 75,
            "name": "D#5",
            "ticks": 47880,
            "time": 66.50003325,
            "velocity": 0.7480314960629921
          },
          {
            "duration": 0.16666674999999032,
            "durationTicks": 120,
            "midi": 56,
            "name": "G#3",
            "ticks": 48000,
            "time": 66.6667,
            "velocity": 0.7480314960629921
          },
          {
            "duration": 0.16666675000000453,
            "durationTicks": 120,
            "midi": 63,
            "name": "D#4",
            "ticks": 48120,
            "time": 66.83336675,
            "velocity": 0.7480314960629921
          },
          {
            "duration": 0.16666675000000453,
            "durationTicks": 120,
            "midi": 72,
            "name": "C5",
            "ticks": 48240,
            "time": 67.0000335,
            "velocity": 0.7480314960629921
          },
          {
            "duration": 0.16666674999999032,
            "durationTicks": 120,
            "midi": 70,
            "name": "A#4",
            "ticks": 48360,
            "time": 67.16670025,
            "velocity": 0.7480314960629921
          },
          {
            "duration": 0.16666675000000453,
            "durationTicks": 120,
            "midi": 72,
            "name": "C5",
            "ticks": 48480,
            "time": 67.333367,
            "velocity": 0.7480314960629921
          },
          {
            "duration": 0.16666675000000453,
            "durationTicks": 120,
            "midi": 75,
            "name": "D#5",
            "ticks": 48600,
            "time": 67.50003375,
            "velocity": 0.7480314960629921
          },
          {
            "duration": 0.16666674999999032,
            "durationTicks": 120,
            "midi": 63,
            "name": "D#4",
            "ticks": 48720,
            "time": 67.6667005,
            "velocity": 0.7480314960629921
          },
          {
            "duration": 0.16666675000000453,
            "durationTicks": 120,
            "midi": 56,
            "name": "G#3",
            "ticks": 48840,
            "time": 67.83336725,
            "velocity": 0.7480314960629921
          },
          {
            "duration": 0.16666674999999032,
            "durationTicks": 120,
            "midi": 70,
            "name": "A#4",
            "ticks": 49080,
            "time": 68.16670075,
            "velocity": 0.7480314960629921
          },
          {
            "duration": 0.16666675000000453,
            "durationTicks": 120,
            "midi": 72,
            "name": "C5",
            "ticks": 49200,
            "time": 68.3333675,
            "velocity": 0.7480314960629921
          },
          {
            "duration": 0.16666675000000453,
            "durationTicks": 120,
            "midi": 70,
            "name": "A#4",
            "ticks": 49320,
            "time": 68.50003425,
            "velocity": 0.7480314960629921
          },
          {
            "duration": 0.16666675000000453,
            "durationTicks": 120,
            "midi": 60,
            "name": "C4",
            "ticks": 49440,
            "time": 68.666701,
            "velocity": 0.7480314960629921
          },
          {
            "duration": 0.16666674999999032,
            "durationTicks": 120,
            "midi": 70,
            "name": "A#4",
            "ticks": 49560,
            "time": 68.83336775000001,
            "velocity": 0.7480314960629921
          },
          {
            "duration": 0.16666675000000453,
            "durationTicks": 120,
            "midi": 75,
            "name": "D#5",
            "ticks": 49680,
            "time": 69.0000345,
            "velocity": 0.7480314960629921
          },
          {
            "duration": 0.16666675000000453,
            "durationTicks": 120,
            "midi": 77,
            "name": "F5",
            "ticks": 49800,
            "time": 69.16670125,
            "velocity": 0.7480314960629921
          },
          {
            "duration": 0.16666674999999032,
            "durationTicks": 120,
            "midi": 58,
            "name": "A#3",
            "ticks": 49920,
            "time": 69.33336800000001,
            "velocity": 0.7480314960629921
          },
          {
            "duration": 0.16666675000000453,
            "durationTicks": 120,
            "midi": 70,
            "name": "A#4",
            "ticks": 50040,
            "time": 69.50003475,
            "velocity": 0.7480314960629921
          },
          {
            "duration": 0.16666675000000453,
            "durationTicks": 120,
            "midi": 86,
            "name": "D6",
            "ticks": 50160,
            "time": 69.6667015,
            "velocity": 0.7480314960629921
          },
          {
            "duration": 0.16666674999999032,
            "durationTicks": 120,
            "midi": 74,
            "name": "D5",
            "ticks": 50280,
            "time": 69.83336825,
            "velocity": 0.7480314960629921
          },
          {
            "duration": 0.16666675000000453,
            "durationTicks": 120,
            "midi": 65,
            "name": "F4",
            "ticks": 50400,
            "time": 70.000035,
            "velocity": 0.7480314960629921
          },
          {
            "duration": 0.16666675000000453,
            "durationTicks": 120,
            "midi": 82,
            "name": "A#5",
            "ticks": 50520,
            "time": 70.16670175,
            "velocity": 0.7480314960629921
          },
          {
            "duration": 0.16666675000000453,
            "durationTicks": 120,
            "midi": 75,
            "name": "D#5",
            "ticks": 50760,
            "time": 70.50003525,
            "velocity": 0.7480314960629921
          },
          {
            "duration": 0.16666675000000453,
            "durationTicks": 120,
            "midi": 63,
            "name": "D#4",
            "ticks": 50880,
            "time": 70.666702,
            "velocity": 0.7480314960629921
          },
          {
            "duration": 0.16666674999999032,
            "durationTicks": 120,
            "midi": 70,
            "name": "A#4",
            "ticks": 51000,
            "time": 70.83336875,
            "velocity": 0.7480314960629921
          },
          {
            "duration": 0.16666675000000453,
            "durationTicks": 120,
            "midi": 77,
            "name": "F5",
            "ticks": 51120,
            "time": 71.0000355,
            "velocity": 0.7480314960629921
          },
          {
            "duration": 0.16666675000000453,
            "durationTicks": 120,
            "midi": 75,
            "name": "D#5",
            "ticks": 51240,
            "time": 71.16670225,
            "velocity": 0.7480314960629921
          },
          {
            "duration": 0.16666674999999032,
            "durationTicks": 120,
            "midi": 80,
            "name": "G#5",
            "ticks": 51360,
            "time": 71.333369,
            "velocity": 0.7480314960629921
          },
          {
            "duration": 0.16666675000000453,
            "durationTicks": 120,
            "midi": 79,
            "name": "G5",
            "ticks": 51480,
            "time": 71.50003575,
            "velocity": 0.7480314960629921
          },
          {
            "duration": 0.16666675000000453,
            "durationTicks": 120,
            "midi": 75,
            "name": "D#5",
            "ticks": 51600,
            "time": 71.6667025,
            "velocity": 0.7480314960629921
          },
          {
            "duration": 0.16666674999999032,
            "durationTicks": 120,
            "midi": 70,
            "name": "A#4",
            "ticks": 51720,
            "time": 71.83336925,
            "velocity": 0.7480314960629921
          },
          {
            "duration": 0.33333350000000905,
            "durationTicks": 240,
            "midi": 56,
            "name": "G#3",
            "ticks": 51840,
            "time": 72.000036,
            "velocity": 0.7480314960629921
          },
          {
            "duration": 0.16666675000000453,
            "durationTicks": 120,
            "midi": 72,
            "name": "C5",
            "ticks": 52080,
            "time": 72.3333695,
            "velocity": 0.7480314960629921
          },
          {
            "duration": 0.16666674999999032,
            "durationTicks": 120,
            "midi": 63,
            "name": "D#4",
            "ticks": 52200,
            "time": 72.50003625000001,
            "velocity": 0.7480314960629921
          },
          {
            "duration": 0.16666675000000453,
            "durationTicks": 120,
            "midi": 56,
            "name": "G#3",
            "ticks": 52320,
            "time": 72.666703,
            "velocity": 0.7480314960629921
          },
          {
            "duration": 0.16666675000000453,
            "durationTicks": 120,
            "midi": 70,
            "name": "A#4",
            "ticks": 52440,
            "time": 72.83336975,
            "velocity": 0.7480314960629921
          },
          {
            "duration": 0.16666675000000453,
            "durationTicks": 120,
            "midi": 63,
            "name": "D#4",
            "ticks": 52680,
            "time": 73.16670325,
            "velocity": 0.7480314960629921
          },
          {
            "duration": 0.16666675000000453,
            "durationTicks": 120,
            "midi": 72,
            "name": "C5",
            "ticks": 52800,
            "time": 73.33337,
            "velocity": 0.7480314960629921
          },
          {
            "duration": 0.16666674999999032,
            "durationTicks": 120,
            "midi": 56,
            "name": "G#3",
            "ticks": 52920,
            "time": 73.50003675,
            "velocity": 0.7480314960629921
          },
          {
            "duration": 0.16666675000000453,
            "durationTicks": 120,
            "midi": 72,
            "name": "C5",
            "ticks": 53040,
            "time": 73.6667035,
            "velocity": 0.7480314960629921
          },
          {
            "duration": 0.16666675000000453,
            "durationTicks": 120,
            "midi": 70,
            "name": "A#4",
            "ticks": 53160,
            "time": 73.83337025,
            "velocity": 0.7480314960629921
          },
          {
            "duration": 0.16666674999999032,
            "durationTicks": 120,
            "midi": 60,
            "name": "C4",
            "ticks": 53280,
            "time": 74.000037,
            "velocity": 0.7480314960629921
          },
          {
            "duration": 0.16666675000000453,
            "durationTicks": 120,
            "midi": 75,
            "name": "D#5",
            "ticks": 53400,
            "time": 74.16670375,
            "velocity": 0.7480314960629921
          },
          {
            "duration": 0.16666675000000453,
            "durationTicks": 120,
            "midi": 77,
            "name": "F5",
            "ticks": 53520,
            "time": 74.3333705,
            "velocity": 0.7480314960629921
          },
          {
            "duration": 0.16666675000000453,
            "durationTicks": 120,
            "midi": 58,
            "name": "A#3",
            "ticks": 53760,
            "time": 74.666704,
            "velocity": 0.7480314960629921
          },
          {
            "duration": 0.16666675000000453,
            "durationTicks": 120,
            "midi": 70,
            "name": "A#4",
            "ticks": 53880,
            "time": 74.83337075,
            "velocity": 0.7480314960629921
          },
          {
            "duration": 0.16666674999999032,
            "durationTicks": 120,
            "midi": 86,
            "name": "D6",
            "ticks": 54000,
            "time": 75.0000375,
            "velocity": 0.7480314960629921
          },
          {
            "duration": 0.16666675000000453,
            "durationTicks": 120,
            "midi": 58,
            "name": "A#3",
            "ticks": 54120,
            "time": 75.16670425,
            "velocity": 0.7480314960629921
          },
          {
            "duration": 0.16666675000000453,
            "durationTicks": 120,
            "midi": 70,
            "name": "A#4",
            "ticks": 54240,
            "time": 75.333371,
            "velocity": 0.7480314960629921
          },
          {
            "duration": 0.16666674999999032,
            "durationTicks": 120,
            "midi": 82,
            "name": "A#5",
            "ticks": 54360,
            "time": 75.50003775,
            "velocity": 0.7480314960629921
          },
          {
            "duration": 0.16666675000000453,
            "durationTicks": 120,
            "midi": 75,
            "name": "D#5",
            "ticks": 54600,
            "time": 75.83337125,
            "velocity": 0.7480314960629921
          },
          {
            "duration": 0.16666675000000453,
            "durationTicks": 120,
            "midi": 63,
            "name": "D#4",
            "ticks": 54720,
            "time": 76.000038,
            "velocity": 0.7480314960629921
          },
          {
            "duration": 0.16666674999999032,
            "durationTicks": 120,
            "midi": 70,
            "name": "A#4",
            "ticks": 54840,
            "time": 76.16670475000001,
            "velocity": 0.7480314960629921
          },
          {
            "duration": 0.16666675000000453,
            "durationTicks": 120,
            "midi": 77,
            "name": "F5",
            "ticks": 54960,
            "time": 76.3333715,
            "velocity": 0.7480314960629921
          },
          {
            "duration": 0.16666675000000453,
            "durationTicks": 120,
            "midi": 75,
            "name": "D#5",
            "ticks": 55080,
            "time": 76.50003825,
            "velocity": 0.7480314960629921
          },
          {
            "duration": 0.16666674999999032,
            "durationTicks": 120,
            "midi": 77,
            "name": "F5",
            "ticks": 55200,
            "time": 76.66670500000001,
            "velocity": 0.7480314960629921
          },
          {
            "duration": 0.16666675000000453,
            "durationTicks": 120,
            "midi": 82,
            "name": "A#5",
            "ticks": 55320,
            "time": 76.83337175,
            "velocity": 0.7480314960629921
          },
          {
            "duration": 0.16666674999999032,
            "durationTicks": 120,
            "midi": 75,
            "name": "D#5",
            "ticks": 55560,
            "time": 77.16670525,
            "velocity": 0.7480314960629921
          },
          {
            "duration": 0.16666675000000453,
            "durationTicks": 120,
            "midi": 56,
            "name": "G#3",
            "ticks": 55680,
            "time": 77.333372,
            "velocity": 0.7480314960629921
          },
          {
            "duration": 0.16666675000000453,
            "durationTicks": 120,
            "midi": 63,
            "name": "D#4",
            "ticks": 55800,
            "time": 77.50003875,
            "velocity": 0.7480314960629921
          },
          {
            "duration": 0.16666674999999032,
            "durationTicks": 120,
            "midi": 72,
            "name": "C5",
            "ticks": 55920,
            "time": 77.6667055,
            "velocity": 0.7480314960629921
          },
          {
            "duration": 0.16666675000000453,
            "durationTicks": 120,
            "midi": 70,
            "name": "A#4",
            "ticks": 56040,
            "time": 77.83337225,
            "velocity": 0.7480314960629921
          },
          {
            "duration": 0.16666675000000453,
            "durationTicks": 120,
            "midi": 72,
            "name": "C5",
            "ticks": 56160,
            "time": 78.000039,
            "velocity": 0.7480314960629921
          },
          {
            "duration": 0.16666674999999032,
            "durationTicks": 120,
            "midi": 75,
            "name": "D#5",
            "ticks": 56280,
            "time": 78.16670575,
            "velocity": 0.7480314960629921
          },
          {
            "duration": 0.16666675000000453,
            "durationTicks": 120,
            "midi": 63,
            "name": "D#4",
            "ticks": 56400,
            "time": 78.3333725,
            "velocity": 0.7480314960629921
          },
          {
            "duration": 0.16666675000000453,
            "durationTicks": 120,
            "midi": 56,
            "name": "G#3",
            "ticks": 56520,
            "time": 78.50003925,
            "velocity": 0.7480314960629921
          },
          {
            "duration": 0.16666675000000453,
            "durationTicks": 120,
            "midi": 70,
            "name": "A#4",
            "ticks": 56760,
            "time": 78.83337275,
            "velocity": 0.7480314960629921
          },
          {
            "duration": 0.16666675000000453,
            "durationTicks": 120,
            "midi": 72,
            "name": "C5",
            "ticks": 56880,
            "time": 79.0000395,
            "velocity": 0.7480314960629921
          },
          {
            "duration": 0.16666674999999032,
            "durationTicks": 120,
            "midi": 70,
            "name": "A#4",
            "ticks": 57000,
            "time": 79.16670625,
            "velocity": 0.7480314960629921
          },
          {
            "duration": 0.16666675000000453,
            "durationTicks": 120,
            "midi": 60,
            "name": "C4",
            "ticks": 57120,
            "time": 79.333373,
            "velocity": 0.7480314960629921
          },
          {
            "duration": 0.16666675000000453,
            "durationTicks": 120,
            "midi": 70,
            "name": "A#4",
            "ticks": 57240,
            "time": 79.50003975,
            "velocity": 0.7480314960629921
          },
          {
            "duration": 0.16666675000000453,
            "durationTicks": 120,
            "midi": 75,
            "name": "D#5",
            "ticks": 57360,
            "time": 79.6667065,
            "velocity": 0.7480314960629921
          },
          {
            "duration": 0.16666674999999032,
            "durationTicks": 120,
            "midi": 77,
            "name": "F5",
            "ticks": 57480,
            "time": 79.83337325000001,
            "velocity": 0.7480314960629921
          },
          {
            "duration": 0.16666675000000453,
            "durationTicks": 120,
            "midi": 58,
            "name": "A#3",
            "ticks": 57600,
            "time": 80.00004,
            "velocity": 0.7480314960629921
          },
          {
            "duration": 0.16666675000000453,
            "durationTicks": 120,
            "midi": 70,
            "name": "A#4",
            "ticks": 57720,
            "time": 80.16670675,
            "velocity": 0.7480314960629921
          },
          {
            "duration": 0.16666674999999032,
            "durationTicks": 120,
            "midi": 86,
            "name": "D6",
            "ticks": 57840,
            "time": 80.33337350000001,
            "velocity": 0.7480314960629921
          },
          {
            "duration": 0.16666675000000453,
            "durationTicks": 120,
            "midi": 74,
            "name": "D5",
            "ticks": 57960,
            "time": 80.50004025,
            "velocity": 0.7480314960629921
          },
          {
            "duration": 0.16666675000000453,
            "durationTicks": 120,
            "midi": 65,
            "name": "F4",
            "ticks": 58080,
            "time": 80.666707,
            "velocity": 0.7480314960629921
          },
          {
            "duration": 0.16666674999999032,
            "durationTicks": 120,
            "midi": 82,
            "name": "A#5",
            "ticks": 58200,
            "time": 80.83337375,
            "velocity": 0.7480314960629921
          },
          {
            "duration": 0.16666675000000453,
            "durationTicks": 120,
            "midi": 75,
            "name": "D#5",
            "ticks": 58440,
            "time": 81.16670725,
            "velocity": 0.7480314960629921
          },
          {
            "duration": 0.16666674999999032,
            "durationTicks": 120,
            "midi": 63,
            "name": "D#4",
            "ticks": 58560,
            "time": 81.333374,
            "velocity": 0.7480314960629921
          },
          {
            "duration": 0.16666675000000453,
            "durationTicks": 120,
            "midi": 70,
            "name": "A#4",
            "ticks": 58680,
            "time": 81.50004075,
            "velocity": 0.7480314960629921
          },
          {
            "duration": 0.16666675000000453,
            "durationTicks": 120,
            "midi": 77,
            "name": "F5",
            "ticks": 58800,
            "time": 81.6667075,
            "velocity": 0.7480314960629921
          },
          {
            "duration": 0.16666674999999032,
            "durationTicks": 120,
            "midi": 75,
            "name": "D#5",
            "ticks": 58920,
            "time": 81.83337425,
            "velocity": 0.7480314960629921
          },
          {
            "duration": 0.16666675000000453,
            "durationTicks": 120,
            "midi": 80,
            "name": "G#5",
            "ticks": 59040,
            "time": 82.000041,
            "velocity": 0.7480314960629921
          },
          {
            "duration": 0.16666675000000453,
            "durationTicks": 120,
            "midi": 79,
            "name": "G5",
            "ticks": 59160,
            "time": 82.16670775,
            "velocity": 0.7480314960629921
          },
          {
            "duration": 0.16666674999999032,
            "durationTicks": 120,
            "midi": 75,
            "name": "D#5",
            "ticks": 59280,
            "time": 82.3333745,
            "velocity": 0.7480314960629921
          },
          {
            "duration": 0.16666675000000453,
            "durationTicks": 120,
            "midi": 70,
            "name": "A#4",
            "ticks": 59400,
            "time": 82.50004125,
            "velocity": 0.7480314960629921
          },
          {
            "duration": 0.33333349999999484,
            "durationTicks": 240,
            "midi": 56,
            "name": "G#3",
            "ticks": 59520,
            "time": 82.666708,
            "velocity": 0.7480314960629921
          },
          {
            "duration": 0.16666675000000453,
            "durationTicks": 120,
            "midi": 72,
            "name": "C5",
            "ticks": 59760,
            "time": 83.0000415,
            "velocity": 0.7480314960629921
          },
          {
            "duration": 0.16666675000000453,
            "durationTicks": 120,
            "midi": 63,
            "name": "D#4",
            "ticks": 59880,
            "time": 83.16670825,
            "velocity": 0.7480314960629921
          },
          {
            "duration": 0.16666675000000453,
            "durationTicks": 120,
            "midi": 56,
            "name": "G#3",
            "ticks": 60000,
            "time": 83.333375,
            "velocity": 0.7480314960629921
          },
          {
            "duration": 0.16666674999999032,
            "durationTicks": 120,
            "midi": 70,
            "name": "A#4",
            "ticks": 60120,
            "time": 83.50004175000001,
            "velocity": 0.7480314960629921
          },
          {
            "duration": 0.16666675000000453,
            "durationTicks": 120,
            "midi": 63,
            "name": "D#4",
            "ticks": 60360,
            "time": 83.83337525,
            "velocity": 0.7480314960629921
          },
          {
            "duration": 0.16666674999999032,
            "durationTicks": 120,
            "midi": 72,
            "name": "C5",
            "ticks": 60480,
            "time": 84.00004200000001,
            "velocity": 0.7480314960629921
          },
          {
            "duration": 0.16666675000000453,
            "durationTicks": 120,
            "midi": 56,
            "name": "G#3",
            "ticks": 60600,
            "time": 84.16670875,
            "velocity": 0.7480314960629921
          },
          {
            "duration": 0.16666675000000453,
            "durationTicks": 120,
            "midi": 72,
            "name": "C5",
            "ticks": 60720,
            "time": 84.3333755,
            "velocity": 0.7480314960629921
          },
          {
            "duration": 0.16666674999999032,
            "durationTicks": 120,
            "midi": 70,
            "name": "A#4",
            "ticks": 60840,
            "time": 84.50004225,
            "velocity": 0.7480314960629921
          },
          {
            "duration": 0.16666675000000453,
            "durationTicks": 120,
            "midi": 60,
            "name": "C4",
            "ticks": 60960,
            "time": 84.666709,
            "velocity": 0.7480314960629921
          },
          {
            "duration": 0.16666675000000453,
            "durationTicks": 120,
            "midi": 75,
            "name": "D#5",
            "ticks": 61080,
            "time": 84.83337575,
            "velocity": 0.7480314960629921
          },
          {
            "duration": 0.16666674999999032,
            "durationTicks": 120,
            "midi": 77,
            "name": "F5",
            "ticks": 61200,
            "time": 85.0000425,
            "velocity": 0.7480314960629921
          },
          {
            "duration": 0.33333350000000905,
            "durationTicks": 240,
            "midi": 56,
            "name": "G#3",
            "ticks": 76800,
            "time": 106.66672,
            "velocity": 0.7480314960629921
          },
          {
            "duration": 0.16666674999999032,
            "durationTicks": 120,
            "midi": 72,
            "name": "C5",
            "ticks": 77040,
            "time": 107.0000535,
            "velocity": 0.7480314960629921
          },
          {
            "duration": 0.16666675000000453,
            "durationTicks": 120,
            "midi": 63,
            "name": "D#4",
            "ticks": 77160,
            "time": 107.16672025,
            "velocity": 0.7480314960629921
          },
          {
            "duration": 0.16666675000000453,
            "durationTicks": 120,
            "midi": 56,
            "name": "G#3",
            "ticks": 77280,
            "time": 107.333387,
            "velocity": 0.7480314960629921
          },
          {
            "duration": 0.16666674999999032,
            "durationTicks": 120,
            "midi": 70,
            "name": "A#4",
            "ticks": 77400,
            "time": 107.50005375,
            "velocity": 0.7480314960629921
          },
          {
            "duration": 0.16666675000000453,
            "durationTicks": 120,
            "midi": 63,
            "name": "D#4",
            "ticks": 77640,
            "time": 107.83338725,
            "velocity": 0.7480314960629921
          },
          {
            "duration": 0.16666674999999032,
            "durationTicks": 120,
            "midi": 72,
            "name": "C5",
            "ticks": 77760,
            "time": 108.000054,
            "velocity": 0.7480314960629921
          },
          {
            "duration": 0.16666675000000453,
            "durationTicks": 120,
            "midi": 56,
            "name": "G#3",
            "ticks": 77880,
            "time": 108.16672075,
            "velocity": 0.7480314960629921
          },
          {
            "duration": 0.16666675000000453,
            "durationTicks": 120,
            "midi": 72,
            "name": "C5",
            "ticks": 78000,
            "time": 108.3333875,
            "velocity": 0.7480314960629921
          },
          {
            "duration": 0.16666674999999032,
            "durationTicks": 120,
            "midi": 70,
            "name": "A#4",
            "ticks": 78120,
            "time": 108.50005425,
            "velocity": 0.7480314960629921
          },
          {
            "duration": 0.16666675000000453,
            "durationTicks": 120,
            "midi": 60,
            "name": "C4",
            "ticks": 78240,
            "time": 108.666721,
            "velocity": 0.7480314960629921
          },
          {
            "duration": 0.16666675000000453,
            "durationTicks": 120,
            "midi": 75,
            "name": "D#5",
            "ticks": 78360,
            "time": 108.83338775,
            "velocity": 0.7480314960629921
          },
          {
            "duration": 0.16666674999999032,
            "durationTicks": 120,
            "midi": 77,
            "name": "F5",
            "ticks": 78480,
            "time": 109.0000545,
            "velocity": 0.7480314960629921
          },
          {
            "duration": 0.16666675000001874,
            "durationTicks": 120,
            "midi": 58,
            "name": "A#3",
            "ticks": 94080,
            "time": 130.666732,
            "velocity": 0.7480314960629921
          },
          {
            "duration": 0.16666674999999032,
            "durationTicks": 120,
            "midi": 70,
            "name": "A#4",
            "ticks": 94200,
            "time": 130.83339875000001,
            "velocity": 0.7480314960629921
          },
          {
            "duration": 0.16666674999999032,
            "durationTicks": 120,
            "midi": 86,
            "name": "D6",
            "ticks": 94320,
            "time": 131.0000655,
            "velocity": 0.7480314960629921
          },
          {
            "duration": 0.16666675000001874,
            "durationTicks": 120,
            "midi": 58,
            "name": "A#3",
            "ticks": 94440,
            "time": 131.16673225,
            "velocity": 0.7480314960629921
          },
          {
            "duration": 0.16666674999999032,
            "durationTicks": 120,
            "midi": 70,
            "name": "A#4",
            "ticks": 94560,
            "time": 131.33339900000001,
            "velocity": 0.7480314960629921
          },
          {
            "duration": 0.16666674999999032,
            "durationTicks": 120,
            "midi": 82,
            "name": "A#5",
            "ticks": 94680,
            "time": 131.50006575,
            "velocity": 0.7480314960629921
          },
          {
            "duration": 0.16666674999999032,
            "durationTicks": 120,
            "midi": 75,
            "name": "D#5",
            "ticks": 94920,
            "time": 131.83339925,
            "velocity": 0.7480314960629921
          },
          {
            "duration": 0.16666674999999032,
            "durationTicks": 120,
            "midi": 63,
            "name": "D#4",
            "ticks": 95040,
            "time": 132.000066,
            "velocity": 0.7480314960629921
          },
          {
            "duration": 0.16666675000001874,
            "durationTicks": 120,
            "midi": 70,
            "name": "A#4",
            "ticks": 95160,
            "time": 132.16673275,
            "velocity": 0.7480314960629921
          },
          {
            "duration": 0.16666674999999032,
            "durationTicks": 120,
            "midi": 77,
            "name": "F5",
            "ticks": 95280,
            "time": 132.3333995,
            "velocity": 0.7480314960629921
          },
          {
            "duration": 0.16666674999999032,
            "durationTicks": 120,
            "midi": 75,
            "name": "D#5",
            "ticks": 95400,
            "time": 132.50006625,
            "velocity": 0.7480314960629921
          },
          {
            "duration": 0.16666675000001874,
            "durationTicks": 120,
            "midi": 77,
            "name": "F5",
            "ticks": 95520,
            "time": 132.666733,
            "velocity": 0.7480314960629921
          },
          {
            "duration": 0.16666674999999032,
            "durationTicks": 120,
            "midi": 82,
            "name": "A#5",
            "ticks": 95640,
            "time": 132.83339975,
            "velocity": 0.7480314960629921
          },
          {
            "duration": 0.16666675000001874,
            "durationTicks": 120,
            "midi": 75,
            "name": "D#5",
            "ticks": 95880,
            "time": 133.16673325,
            "velocity": 0.7480314960629921
          },
          {
            "duration": 0.16666674999999032,
            "durationTicks": 120,
            "midi": 56,
            "name": "G#3",
            "ticks": 96000,
            "time": 133.3334,
            "velocity": 0.7480314960629921
          },
          {
            "duration": 0.16666674999999032,
            "durationTicks": 120,
            "midi": 63,
            "name": "D#4",
            "ticks": 96120,
            "time": 133.50006675,
            "velocity": 0.7480314960629921
          },
          {
            "duration": 0.16666675000001874,
            "durationTicks": 120,
            "midi": 72,
            "name": "C5",
            "ticks": 96240,
            "time": 133.6667335,
            "velocity": 0.7480314960629921
          },
          {
            "duration": 0.16666674999999032,
            "durationTicks": 120,
            "midi": 70,
            "name": "A#4",
            "ticks": 96360,
            "time": 133.83340025,
            "velocity": 0.7480314960629921
          },
          {
            "duration": 0.16666674999999032,
            "durationTicks": 120,
            "midi": 72,
            "name": "C5",
            "ticks": 96480,
            "time": 134.000067,
            "velocity": 0.7480314960629921
          },
          {
            "duration": 0.16666675000001874,
            "durationTicks": 120,
            "midi": 75,
            "name": "D#5",
            "ticks": 96600,
            "time": 134.16673375,
            "velocity": 0.7480314960629921
          },
          {
            "duration": 0.16666674999999032,
            "durationTicks": 120,
            "midi": 63,
            "name": "D#4",
            "ticks": 96720,
            "time": 134.3334005,
            "velocity": 0.7480314960629921
          },
          {
            "duration": 0.16666674999999032,
            "durationTicks": 120,
            "midi": 56,
            "name": "G#3",
            "ticks": 96840,
            "time": 134.50006725,
            "velocity": 0.7480314960629921
          },
          {
            "duration": 0.16666674999999032,
            "durationTicks": 120,
            "midi": 70,
            "name": "A#4",
            "ticks": 97080,
            "time": 134.83340075,
            "velocity": 0.7480314960629921
          },
          {
            "duration": 0.16666674999999032,
            "durationTicks": 120,
            "midi": 72,
            "name": "C5",
            "ticks": 97200,
            "time": 135.0000675,
            "velocity": 0.7480314960629921
          },
          {
            "duration": 0.16666675000001874,
            "durationTicks": 120,
            "midi": 70,
            "name": "A#4",
            "ticks": 97320,
            "time": 135.16673425,
            "velocity": 0.7480314960629921
          },
          {
            "duration": 0.16666674999999032,
            "durationTicks": 120,
            "midi": 60,
            "name": "C4",
            "ticks": 97440,
            "time": 135.333401,
            "velocity": 0.7480314960629921
          },
          {
            "duration": 0.16666674999999032,
            "durationTicks": 120,
            "midi": 70,
            "name": "A#4",
            "ticks": 97560,
            "time": 135.50006775,
            "velocity": 0.7480314960629921
          },
          {
            "duration": 0.16666675000001874,
            "durationTicks": 120,
            "midi": 75,
            "name": "D#5",
            "ticks": 97680,
            "time": 135.6667345,
            "velocity": 0.7480314960629921
          },
          {
            "duration": 0.16666674999999032,
            "durationTicks": 120,
            "midi": 77,
            "name": "F5",
            "ticks": 97800,
            "time": 135.83340125,
            "velocity": 0.7480314960629921
          },
          {
            "duration": 0.16666674999999032,
            "durationTicks": 120,
            "midi": 58,
            "name": "A#3",
            "ticks": 97920,
            "time": 136.000068,
            "velocity": 0.7480314960629921
          },
          {
            "duration": 0.16666675000001874,
            "durationTicks": 120,
            "midi": 70,
            "name": "A#4",
            "ticks": 98040,
            "time": 136.16673475,
            "velocity": 0.7480314960629921
          },
          {
            "duration": 0.16666674999999032,
            "durationTicks": 120,
            "midi": 86,
            "name": "D6",
            "ticks": 98160,
            "time": 136.3334015,
            "velocity": 0.7480314960629921
          },
          {
            "duration": 0.16666674999999032,
            "durationTicks": 120,
            "midi": 74,
            "name": "D5",
            "ticks": 98280,
            "time": 136.50006825,
            "velocity": 0.7480314960629921
          },
          {
            "duration": 0.16666675000001874,
            "durationTicks": 120,
            "midi": 65,
            "name": "F4",
            "ticks": 98400,
            "time": 136.666735,
            "velocity": 0.7480314960629921
          },
          {
            "duration": 0.16666674999999032,
            "durationTicks": 120,
            "midi": 82,
            "name": "A#5",
            "ticks": 98520,
            "time": 136.83340175,
            "velocity": 0.7480314960629921
          },
          {
            "duration": 0.16666675000001874,
            "durationTicks": 120,
            "midi": 75,
            "name": "D#5",
            "ticks": 98760,
            "time": 137.16673525,
            "velocity": 0.7480314960629921
          },
          {
            "duration": 0.16666674999999032,
            "durationTicks": 120,
            "midi": 63,
            "name": "D#4",
            "ticks": 98880,
            "time": 137.333402,
            "velocity": 0.7480314960629921
          },
          {
            "duration": 0.16666675000001874,
            "durationTicks": 120,
            "midi": 70,
            "name": "A#4",
            "ticks": 99000,
            "time": 137.50006875,
            "velocity": 0.7480314960629921
          },
          {
            "duration": 0.16666674999999032,
            "durationTicks": 120,
            "midi": 77,
            "name": "F5",
            "ticks": 99120,
            "time": 137.66673550000002,
            "velocity": 0.7480314960629921
          },
          {
            "duration": 0.16666674999999032,
            "durationTicks": 120,
            "midi": 75,
            "name": "D#5",
            "ticks": 99240,
            "time": 137.83340225,
            "velocity": 0.7480314960629921
          },
          {
            "duration": 0.16666675000001874,
            "durationTicks": 120,
            "midi": 80,
            "name": "G#5",
            "ticks": 99360,
            "time": 138.000069,
            "velocity": 0.7480314960629921
          },
          {
            "duration": 0.16666674999999032,
            "durationTicks": 120,
            "midi": 79,
            "name": "G5",
            "ticks": 99480,
            "time": 138.16673575000002,
            "velocity": 0.7480314960629921
          },
          {
            "duration": 0.16666674999999032,
            "durationTicks": 120,
            "midi": 75,
            "name": "D#5",
            "ticks": 99600,
            "time": 138.3334025,
            "velocity": 0.7480314960629921
          },
          {
            "duration": 0.16666675000001874,
            "durationTicks": 120,
            "midi": 70,
            "name": "A#4",
            "ticks": 99720,
            "time": 138.50006925,
            "velocity": 0.7480314960629921
          },
          {
            "duration": 0.33333349999998063,
            "durationTicks": 240,
            "midi": 56,
            "name": "G#3",
            "ticks": 99840,
            "time": 138.66673600000001,
            "velocity": 0.7480314960629921
          },
          {
            "duration": 0.16666675000001874,
            "durationTicks": 120,
            "midi": 72,
            "name": "C5",
            "ticks": 100080,
            "time": 139.0000695,
            "velocity": 0.7480314960629921
          },
          {
            "duration": 0.16666674999999032,
            "durationTicks": 120,
            "midi": 63,
            "name": "D#4",
            "ticks": 100200,
            "time": 139.16673625,
            "velocity": 0.7480314960629921
          },
          {
            "duration": 0.16666674999999032,
            "durationTicks": 120,
            "midi": 56,
            "name": "G#3",
            "ticks": 100320,
            "time": 139.333403,
            "velocity": 0.7480314960629921
          },
          {
            "duration": 0.16666675000001874,
            "durationTicks": 120,
            "midi": 70,
            "name": "A#4",
            "ticks": 100440,
            "time": 139.50006975,
            "velocity": 0.7480314960629921
          },
          {
            "duration": 0.16666674999999032,
            "durationTicks": 120,
            "midi": 63,
            "name": "D#4",
            "ticks": 100680,
            "time": 139.83340325,
            "velocity": 0.7480314960629921
          },
          {
            "duration": 0.16666675000001874,
            "durationTicks": 120,
            "midi": 72,
            "name": "C5",
            "ticks": 100800,
            "time": 140.00007,
            "velocity": 0.7480314960629921
          },
          {
            "duration": 0.16666674999999032,
            "durationTicks": 120,
            "midi": 56,
            "name": "G#3",
            "ticks": 100920,
            "time": 140.16673675,
            "velocity": 0.7480314960629921
          },
          {
            "duration": 0.16666674999999032,
            "durationTicks": 120,
            "midi": 72,
            "name": "C5",
            "ticks": 101040,
            "time": 140.3334035,
            "velocity": 0.7480314960629921
          },
          {
            "duration": 0.16666675000001874,
            "durationTicks": 120,
            "midi": 70,
            "name": "A#4",
            "ticks": 101160,
            "time": 140.50007025,
            "velocity": 0.7480314960629921
          },
          {
            "duration": 0.16666674999999032,
            "durationTicks": 120,
            "midi": 60,
            "name": "C4",
            "ticks": 101280,
            "time": 140.666737,
            "velocity": 0.7480314960629921
          },
          {
            "duration": 0.16666674999999032,
            "durationTicks": 120,
            "midi": 75,
            "name": "D#5",
            "ticks": 101400,
            "time": 140.83340375,
            "velocity": 0.7480314960629921
          },
          {
            "duration": 0.16666675000001874,
            "durationTicks": 120,
            "midi": 77,
            "name": "F5",
            "ticks": 101520,
            "time": 141.0000705,
            "velocity": 0.7480314960629921
          },
          {
            "duration": 0.16666674999999032,
            "durationTicks": 120,
            "midi": 58,
            "name": "A#3",
            "ticks": 101760,
            "time": 141.333404,
            "velocity": 0.7480314960629921
          },
          {
            "duration": 0.16666675000001874,
            "durationTicks": 120,
            "midi": 70,
            "name": "A#4",
            "ticks": 101880,
            "time": 141.50007075,
            "velocity": 0.7480314960629921
          },
          {
            "duration": 0.16666674999999032,
            "durationTicks": 120,
            "midi": 86,
            "name": "D6",
            "ticks": 102000,
            "time": 141.6667375,
            "velocity": 0.7480314960629921
          },
          {
            "duration": 0.16666674999999032,
            "durationTicks": 120,
            "midi": 58,
            "name": "A#3",
            "ticks": 102120,
            "time": 141.83340425,
            "velocity": 0.7480314960629921
          },
          {
            "duration": 0.16666675000001874,
            "durationTicks": 120,
            "midi": 70,
            "name": "A#4",
            "ticks": 102240,
            "time": 142.000071,
            "velocity": 0.7480314960629921
          },
          {
            "duration": 0.16666674999999032,
            "durationTicks": 120,
            "midi": 82,
            "name": "A#5",
            "ticks": 102360,
            "time": 142.16673775,
            "velocity": 0.7480314960629921
          },
          {
            "duration": 0.16666675000001874,
            "durationTicks": 120,
            "midi": 75,
            "name": "D#5",
            "ticks": 102600,
            "time": 142.50007125,
            "velocity": 0.7480314960629921
          },
          {
            "duration": 0.16666674999999032,
            "durationTicks": 120,
            "midi": 63,
            "name": "D#4",
            "ticks": 102720,
            "time": 142.666738,
            "velocity": 0.7480314960629921
          },
          {
            "duration": 0.16666674999999032,
            "durationTicks": 120,
            "midi": 70,
            "name": "A#4",
            "ticks": 102840,
            "time": 142.83340475,
            "velocity": 0.7480314960629921
          },
          {
            "duration": 0.16666675000001874,
            "durationTicks": 120,
            "midi": 77,
            "name": "F5",
            "ticks": 102960,
            "time": 143.0000715,
            "velocity": 0.7480314960629921
          },
          {
            "duration": 0.16666674999999032,
            "durationTicks": 120,
            "midi": 75,
            "name": "D#5",
            "ticks": 103080,
            "time": 143.16673825,
            "velocity": 0.7480314960629921
          },
          {
            "duration": 0.16666674999999032,
            "durationTicks": 120,
            "midi": 77,
            "name": "F5",
            "ticks": 103200,
            "time": 143.333405,
            "velocity": 0.7480314960629921
          },
          {
            "duration": 0.16666675000001874,
            "durationTicks": 120,
            "midi": 82,
            "name": "A#5",
            "ticks": 103320,
            "time": 143.50007175,
            "velocity": 0.7480314960629921
          },
          {
            "duration": 0.16666674999999032,
            "durationTicks": 120,
            "midi": 75,
            "name": "D#5",
            "ticks": 103560,
            "time": 143.83340525,
            "velocity": 0.7480314960629921
          },
          {
            "duration": 0.16666675000001874,
            "durationTicks": 120,
            "midi": 56,
            "name": "G#3",
            "ticks": 103680,
            "time": 144.000072,
            "velocity": 0.7480314960629921
          },
          {
            "duration": 0.16666674999999032,
            "durationTicks": 120,
            "midi": 63,
            "name": "D#4",
            "ticks": 103800,
            "time": 144.16673875,
            "velocity": 0.7480314960629921
          },
          {
            "duration": 0.16666674999999032,
            "durationTicks": 120,
            "midi": 72,
            "name": "C5",
            "ticks": 103920,
            "time": 144.3334055,
            "velocity": 0.7480314960629921
          },
          {
            "duration": 0.16666675000001874,
            "durationTicks": 120,
            "midi": 70,
            "name": "A#4",
            "ticks": 104040,
            "time": 144.50007225,
            "velocity": 0.7480314960629921
          },
          {
            "duration": 0.16666674999999032,
            "durationTicks": 120,
            "midi": 72,
            "name": "C5",
            "ticks": 104160,
            "time": 144.666739,
            "velocity": 0.7480314960629921
          },
          {
            "duration": 0.16666675000001874,
            "durationTicks": 120,
            "midi": 75,
            "name": "D#5",
            "ticks": 104280,
            "time": 144.83340575,
            "velocity": 0.7480314960629921
          },
          {
            "duration": 0.16666674999999032,
            "durationTicks": 120,
            "midi": 63,
            "name": "D#4",
            "ticks": 104400,
            "time": 145.00007250000002,
            "velocity": 0.7480314960629921
          },
          {
            "duration": 0.16666674999999032,
            "durationTicks": 120,
            "midi": 56,
            "name": "G#3",
            "ticks": 104520,
            "time": 145.16673925,
            "velocity": 0.7480314960629921
          },
          {
            "duration": 0.16666674999999032,
            "durationTicks": 120,
            "midi": 70,
            "name": "A#4",
            "ticks": 104760,
            "time": 145.50007275000002,
            "velocity": 0.7480314960629921
          },
          {
            "duration": 0.16666674999999032,
            "durationTicks": 120,
            "midi": 72,
            "name": "C5",
            "ticks": 104880,
            "time": 145.6667395,
            "velocity": 0.7480314960629921
          },
          {
            "duration": 0.16666675000001874,
            "durationTicks": 120,
            "midi": 70,
            "name": "A#4",
            "ticks": 105000,
            "time": 145.83340625,
            "velocity": 0.7480314960629921
          },
          {
            "duration": 0.16666674999999032,
            "durationTicks": 120,
            "midi": 60,
            "name": "C4",
            "ticks": 105120,
            "time": 146.00007300000001,
            "velocity": 0.7480314960629921
          },
          {
            "duration": 0.16666674999999032,
            "durationTicks": 120,
            "midi": 70,
            "name": "A#4",
            "ticks": 105240,
            "time": 146.16673975,
            "velocity": 0.7480314960629921
          },
          {
            "duration": 0.16666675000001874,
            "durationTicks": 120,
            "midi": 75,
            "name": "D#5",
            "ticks": 105360,
            "time": 146.3334065,
            "velocity": 0.7480314960629921
          },
          {
            "duration": 0.16666674999999032,
            "durationTicks": 120,
            "midi": 77,
            "name": "F5",
            "ticks": 105480,
            "time": 146.50007325,
            "velocity": 0.7480314960629921
          },
          {
            "duration": 0.16666674999999032,
            "durationTicks": 120,
            "midi": 58,
            "name": "A#3",
            "ticks": 105600,
            "time": 146.66674,
            "velocity": 0.7480314960629921
          },
          {
            "duration": 0.16666675000001874,
            "durationTicks": 120,
            "midi": 70,
            "name": "A#4",
            "ticks": 105720,
            "time": 146.83340675,
            "velocity": 0.7480314960629921
          },
          {
            "duration": 0.16666674999999032,
            "durationTicks": 120,
            "midi": 86,
            "name": "D6",
            "ticks": 105840,
            "time": 147.0000735,
            "velocity": 0.7480314960629921
          },
          {
            "duration": 0.16666674999999032,
            "durationTicks": 120,
            "midi": 74,
            "name": "D5",
            "ticks": 105960,
            "time": 147.16674025,
            "velocity": 0.7480314960629921
          },
          {
            "duration": 0.16666675000001874,
            "durationTicks": 120,
            "midi": 65,
            "name": "F4",
            "ticks": 106080,
            "time": 147.333407,
            "velocity": 0.7480314960629921
          },
          {
            "duration": 0.16666674999999032,
            "durationTicks": 120,
            "midi": 82,
            "name": "A#5",
            "ticks": 106200,
            "time": 147.50007375,
            "velocity": 0.7480314960629921
          },
          {
            "duration": 0.16666675000001874,
            "durationTicks": 120,
            "midi": 75,
            "name": "D#5",
            "ticks": 106440,
            "time": 147.83340725,
            "velocity": 0.7480314960629921
          },
          {
            "duration": 0.16666674999999032,
            "durationTicks": 120,
            "midi": 63,
            "name": "D#4",
            "ticks": 106560,
            "time": 148.000074,
            "velocity": 0.7480314960629921
          },
          {
            "duration": 0.16666674999999032,
            "durationTicks": 120,
            "midi": 70,
            "name": "A#4",
            "ticks": 106680,
            "time": 148.16674075,
            "velocity": 0.7480314960629921
          },
          {
            "duration": 0.16666675000001874,
            "durationTicks": 120,
            "midi": 77,
            "name": "F5",
            "ticks": 106800,
            "time": 148.3334075,
            "velocity": 0.7480314960629921
          },
          {
            "duration": 0.16666674999999032,
            "durationTicks": 120,
            "midi": 75,
            "name": "D#5",
            "ticks": 106920,
            "time": 148.50007425,
            "velocity": 0.7480314960629921
          },
          {
            "duration": 0.16666674999999032,
            "durationTicks": 120,
            "midi": 80,
            "name": "G#5",
            "ticks": 107040,
            "time": 148.666741,
            "velocity": 0.7480314960629921
          },
          {
            "duration": 0.16666675000001874,
            "durationTicks": 120,
            "midi": 79,
            "name": "G5",
            "ticks": 107160,
            "time": 148.83340775,
            "velocity": 0.7480314960629921
          },
          {
            "duration": 0.16666674999999032,
            "durationTicks": 120,
            "midi": 75,
            "name": "D#5",
            "ticks": 107280,
            "time": 149.0000745,
            "velocity": 0.7480314960629921
          },
          {
            "duration": 0.16666674999999032,
            "durationTicks": 120,
            "midi": 70,
            "name": "A#4",
            "ticks": 107400,
            "time": 149.16674125,
            "velocity": 0.7480314960629921
          },
          {
            "duration": 0.33333350000000905,
            "durationTicks": 240,
            "midi": 56,
            "name": "G#3",
            "ticks": 107520,
            "time": 149.333408,
            "velocity": 0.7480314960629921
          },
          {
            "duration": 0.16666674999999032,
            "durationTicks": 120,
            "midi": 72,
            "name": "C5",
            "ticks": 107760,
            "time": 149.6667415,
            "velocity": 0.7480314960629921
          },
          {
            "duration": 0.16666675000001874,
            "durationTicks": 120,
            "midi": 63,
            "name": "D#4",
            "ticks": 107880,
            "time": 149.83340825,
            "velocity": 0.7480314960629921
          },
          {
            "duration": 0.16666674999999032,
            "durationTicks": 120,
            "midi": 56,
            "name": "G#3",
            "ticks": 108000,
            "time": 150.000075,
            "velocity": 0.7480314960629921
          },
          {
            "duration": 0.16666674999999032,
            "durationTicks": 120,
            "midi": 70,
            "name": "A#4",
            "ticks": 108120,
            "time": 150.16674175,
            "velocity": 0.7480314960629921
          },
          {
            "duration": 0.16666674999999032,
            "durationTicks": 120,
            "midi": 63,
            "name": "D#4",
            "ticks": 108360,
            "time": 150.50007525,
            "velocity": 0.7480314960629921
          },
          {
            "duration": 0.16666674999999032,
            "durationTicks": 120,
            "midi": 72,
            "name": "C5",
            "ticks": 108480,
            "time": 150.666742,
            "velocity": 0.7480314960629921
          },
          {
            "duration": 0.16666675000001874,
            "durationTicks": 120,
            "midi": 56,
            "name": "G#3",
            "ticks": 108600,
            "time": 150.83340875,
            "velocity": 0.7480314960629921
          },
          {
            "duration": 0.16666674999999032,
            "durationTicks": 120,
            "midi": 72,
            "name": "C5",
            "ticks": 108720,
            "time": 151.0000755,
            "velocity": 0.7480314960629921
          },
          {
            "duration": 0.16666674999999032,
            "durationTicks": 120,
            "midi": 70,
            "name": "A#4",
            "ticks": 108840,
            "time": 151.16674225,
            "velocity": 0.7480314960629921
          },
          {
            "duration": 0.16666675000001874,
            "durationTicks": 120,
            "midi": 60,
            "name": "C4",
            "ticks": 108960,
            "time": 151.333409,
            "velocity": 0.7480314960629921
          },
          {
            "duration": 0.16666674999999032,
            "durationTicks": 120,
            "midi": 75,
            "name": "D#5",
            "ticks": 109080,
            "time": 151.50007575,
            "velocity": 0.7480314960629921
          },
          {
            "duration": 0.16666674999999032,
            "durationTicks": 120,
            "midi": 77,
            "name": "F5",
            "ticks": 109200,
            "time": 151.6667425,
            "velocity": 0.7480314960629921
          }
        ],
        "endOfTrackTicks": 159360
      },
      {
        "channel": 0,
        "controlChanges": {
          "6": [
            {
              "number": 6,
              "ticks": 5,
              "time": 0.0069444479166666665,
              "value": 0.09448818897637795
            }
          ],
          "38": [
            {
              "number": 38,
              "ticks": 6,
              "time": 0.008333337500000001,
              "value": 0
            }
          ],
          "100": [
            {
              "number": 100,
              "ticks": 4,
              "time": 0.0055555583333333335,
              "value": 0
            }
          ],
          "101": [
            {
              "number": 101,
              "ticks": 3,
              "time": 0.004166668750000001,
              "value": 0
            }
          ]
        },
        "pitchBends": [],
        "instrument": {
          "family": "piano",
          "number": 0,
          "name": "acoustic grand piano"
        },
        "name": "",
        "notes": []
      },
      {
        "channel": 0,
        "controlChanges": {
          "6": [
            {
              "number": 6,
              "ticks": 8,
              "time": 0.011111116666666667,
              "value": 0.09448818897637795
            }
          ],
          "38": [
            {
              "number": 38,
              "ticks": 9,
              "time": 0.01250000625,
              "value": 0
            }
          ],
          "100": [
            {
              "number": 100,
              "ticks": 7,
              "time": 0.009722227083333333,
              "value": 0
            }
          ],
          "101": [
            {
              "number": 101,
              "ticks": 6,
              "time": 0.008333337500000001,
              "value": 0
            }
          ]
        },
        "pitchBends": [],
        "instrument": {
          "family": "piano",
          "number": 0,
          "name": "acoustic grand piano"
        },
        "name": "",
        "notes": []
      },
      {
        "channel": 0,
        "controlChanges": {
          "6": [
            {
              "number": 6,
              "ticks": 11,
              "time": 0.015277785416666665,
              "value": 0.09448818897637795
            }
          ],
          "38": [
            {
              "number": 38,
              "ticks": 12,
              "time": 0.016666675000000002,
              "value": 0
            }
          ],
          "100": [
            {
              "number": 100,
              "ticks": 10,
              "time": 0.013888895833333333,
              "value": 0
            }
          ],
          "101": [
            {
              "number": 101,
              "ticks": 9,
              "time": 0.01250000625,
              "value": 0
            }
          ]
        },
        "pitchBends": [],
        "instrument": {
          "family": "piano",
          "number": 0,
          "name": "acoustic grand piano"
        },
        "name": "",
        "notes": []
      },
      {
        "channel": 0,
        "controlChanges": {
          "6": [
            {
              "number": 6,
              "ticks": 14,
              "time": 0.019444454166666666,
              "value": 0.09448818897637795
            }
          ],
          "38": [
            {
              "number": 38,
              "ticks": 15,
              "time": 0.02083334375,
              "value": 0
            }
          ],
          "100": [
            {
              "number": 100,
              "ticks": 13,
              "time": 0.018055564583333333,
              "value": 0
            }
          ],
          "101": [
            {
              "number": 101,
              "ticks": 12,
              "time": 0.016666675000000002,
              "value": 0
            }
          ]
        },
        "pitchBends": [],
        "instrument": {
          "family": "piano",
          "number": 0,
          "name": "acoustic grand piano"
        },
        "name": "",
        "notes": []
      },
      {
        "channel": 0,
        "controlChanges": {
          "6": [
            {
              "number": 6,
              "ticks": 17,
              "time": 0.023611122916666668,
              "value": 0.09448818897637795
            }
          ],
          "38": [
            {
              "number": 38,
              "ticks": 18,
              "time": 0.0250000125,
              "value": 0
            }
          ],
          "100": [
            {
              "number": 100,
              "ticks": 16,
              "time": 0.022222233333333334,
              "value": 0
            }
          ],
          "101": [
            {
              "number": 101,
              "ticks": 15,
              "time": 0.02083334375,
              "value": 0
            }
          ]
        },
        "pitchBends": [],
        "instrument": {
          "family": "piano",
          "number": 0,
          "name": "acoustic grand piano"
        },
        "name": "",
        "notes": []
      },
      {
        "channel": 0,
        "controlChanges": {
          "6": [
            {
              "number": 6,
              "ticks": 20,
              "time": 0.027777791666666666,
              "value": 0.09448818897637795
            },
            {
              "number": 6,
              "ticks": 47,
              "time": 0.06527781041666667,
              "value": 0.09448818897637795
            }
          ],
          "38": [
            {
              "number": 38,
              "ticks": 21,
              "time": 0.02916668125,
              "value": 0
            },
            {
              "number": 38,
              "ticks": 48,
              "time": 0.06666670000000001,
              "value": 0
            }
          ],
          "100": [
            {
              "number": 100,
              "ticks": 19,
              "time": 0.026388902083333332,
              "value": 0
            },
            {
              "number": 100,
              "ticks": 46,
              "time": 0.06388892083333333,
              "value": 0
            }
          ],
          "101": [
            {
              "number": 101,
              "ticks": 18,
              "time": 0.0250000125,
              "value": 0
            },
            {
              "number": 101,
              "ticks": 45,
              "time": 0.06250003125,
              "value": 0
            }
          ]
        },
        "pitchBends": [],
        "instrument": {
          "family": "piano",
          "number": 0,
          "name": "acoustic grand piano"
        },
        "name": "",
        "notes": []
      },
      {
        "channel": 7,
        "controlChanges": {
          "6": [
            {
              "number": 6,
              "ticks": 23,
              "time": 0.03194446041666667,
              "value": 0.09448818897637795
            }
          ],
          "7": [
            {
              "number": 7,
              "ticks": 48,
              "time": 0.06666670000000001,
              "value": 0.8661417322834646
            },
            {
              "number": 7,
              "ticks": 48,
              "time": 0.06666670000000001,
              "value": 0.8661417322834646
            }
          ],
          "10": [
            {
              "number": 10,
              "ticks": 48,
              "time": 0.06666670000000001,
              "value": 0.5039370078740157
            },
            {
              "number": 10,
              "ticks": 48,
              "time": 0.06666670000000001,
              "value": 0.5039370078740157
            }
          ],
          "38": [
            {
              "number": 38,
              "ticks": 24,
              "time": 0.033333350000000005,
              "value": 0
            }
          ],
          "91": [
            {
              "number": 91,
              "ticks": 48,
              "time": 0.06666670000000001,
              "value": 0
            },
            {
              "number": 91,
              "ticks": 48,
              "time": 0.06666670000000001,
              "value": 0
            }
          ],
          "92": [
            {
              "number": 92,
              "ticks": 48,
              "time": 0.06666670000000001,
              "value": 0
            },
            {
              "number": 92,
              "ticks": 48,
              "time": 0.06666670000000001,
              "value": 0
            }
          ],
          "93": [
            {
              "number": 93,
              "ticks": 48,
              "time": 0.06666670000000001,
              "value": 0
            },
            {
              "number": 93,
              "ticks": 48,
              "time": 0.06666670000000001,
              "value": 0
            }
          ],
          "95": [
            {
              "number": 95,
              "ticks": 48,
              "time": 0.06666670000000001,
              "value": 0
            },
            {
              "number": 95,
              "ticks": 48,
              "time": 0.06666670000000001,
              "value": 0
            }
          ],
          "100": [
            {
              "number": 100,
              "ticks": 22,
              "time": 0.03055557083333333,
              "value": 0
            }
          ],
          "101": [
            {
              "number": 101,
              "ticks": 21,
              "time": 0.02916668125,
              "value": 0
            }
          ]
        },
        "pitchBends": [],
        "instrument": {
          "family": "piano",
          "number": 0,
          "name": "acoustic grand piano"
        },
        "name": "",
        "notes": [
          {
            "duration": 1.3333340000000007,
            "durationTicks": 960,
            "midi": 63,
            "name": "D#4",
            "ticks": 30720,
            "time": 42.666688,
            "velocity": 0.7480314960629921
          },
          {
            "duration": 1.3333340000000007,
            "durationTicks": 960,
            "midi": 56,
            "name": "G#3",
            "ticks": 30720,
            "time": 42.666688,
            "velocity": 0.7480314960629921
          },
          {
            "duration": 1.3333340000000007,
            "durationTicks": 960,
            "midi": 44,
            "name": "G#2",
            "ticks": 30720,
            "time": 42.666688,
            "velocity": 0.7480314960629921
          },
          {
            "duration": 1.3333340000000007,
            "durationTicks": 960,
            "midi": 63,
            "name": "D#4",
            "ticks": 31680,
            "time": 44.000022,
            "velocity": 0.7480314960629921
          },
          {
            "duration": 1.3333340000000007,
            "durationTicks": 960,
            "midi": 55,
            "name": "G3",
            "ticks": 31680,
            "time": 44.000022,
            "velocity": 0.7480314960629921
          },
          {
            "duration": 1.3333340000000007,
            "durationTicks": 960,
            "midi": 43,
            "name": "G2",
            "ticks": 31680,
            "time": 44.000022,
            "velocity": 0.7480314960629921
          },
          {
            "duration": 2.6666680000000014,
            "durationTicks": 1920,
            "midi": 63,
            "name": "D#4",
            "ticks": 32640,
            "time": 45.333356,
            "velocity": 0.7480314960629921
          },
          {
            "duration": 2.6666680000000014,
            "durationTicks": 1920,
            "midi": 58,
            "name": "A#3",
            "ticks": 32640,
            "time": 45.333356,
            "velocity": 0.7480314960629921
          },
          {
            "duration": 2.6666680000000014,
            "durationTicks": 1920,
            "midi": 46,
            "name": "A#2",
            "ticks": 32640,
            "time": 45.333356,
            "velocity": 0.7480314960629921
          },
          {
            "duration": 1.3333340000000007,
            "durationTicks": 960,
            "midi": 63,
            "name": "D#4",
            "ticks": 34560,
            "time": 48.000024,
            "velocity": 0.7480314960629921
          },
          {
            "duration": 1.3333340000000007,
            "durationTicks": 960,
            "midi": 56,
            "name": "G#3",
            "ticks": 34560,
            "time": 48.000024,
            "velocity": 0.7480314960629921
          },
          {
            "duration": 1.3333340000000007,
            "durationTicks": 960,
            "midi": 44,
            "name": "G#2",
            "ticks": 34560,
            "time": 48.000024,
            "velocity": 0.7480314960629921
          },
          {
            "duration": 1.3333339999999936,
            "durationTicks": 960,
            "midi": 63,
            "name": "D#4",
            "ticks": 35520,
            "time": 49.333358000000004,
            "velocity": 0.7480314960629921
          },
          {
            "duration": 1.3333339999999936,
            "durationTicks": 960,
            "midi": 55,
            "name": "G3",
            "ticks": 35520,
            "time": 49.333358000000004,
            "velocity": 0.7480314960629921
          },
          {
            "duration": 1.3333339999999936,
            "durationTicks": 960,
            "midi": 43,
            "name": "G2",
            "ticks": 35520,
            "time": 49.333358000000004,
            "velocity": 0.7480314960629921
          },
          {
            "duration": 1.3333340000000007,
            "durationTicks": 960,
            "midi": 62,
            "name": "D4",
            "ticks": 36480,
            "time": 50.666692,
            "velocity": 0.7480314960629921
          },
          {
            "duration": 1.3333340000000007,
            "durationTicks": 960,
            "midi": 58,
            "name": "A#3",
            "ticks": 36480,
            "time": 50.666692,
            "velocity": 0.7480314960629921
          },
          {
            "duration": 1.3333340000000007,
            "durationTicks": 960,
            "midi": 46,
            "name": "A#2",
            "ticks": 36480,
            "time": 50.666692,
            "velocity": 0.7480314960629921
          },
          {
            "duration": 1.3333340000000007,
            "durationTicks": 960,
            "midi": 63,
            "name": "D#4",
            "ticks": 37440,
            "time": 52.000026,
            "velocity": 0.7480314960629921
          },
          {
            "duration": 1.3333340000000007,
            "durationTicks": 960,
            "midi": 56,
            "name": "G#3",
            "ticks": 37440,
            "time": 52.000026,
            "velocity": 0.7480314960629921
          },
          {
            "duration": 1.3333340000000007,
            "durationTicks": 960,
            "midi": 44,
            "name": "G#2",
            "ticks": 37440,
            "time": 52.000026,
            "velocity": 0.7480314960629921
          },
          {
            "duration": 1.3333340000000007,
            "durationTicks": 960,
            "midi": 63,
            "name": "D#4",
            "ticks": 38400,
            "time": 53.33336,
            "velocity": 0.7480314960629921
          },
          {
            "duration": 1.3333340000000007,
            "durationTicks": 960,
            "midi": 56,
            "name": "G#3",
            "ticks": 38400,
            "time": 53.33336,
            "velocity": 0.7480314960629921
          },
          {
            "duration": 1.3333340000000007,
            "durationTicks": 960,
            "midi": 44,
            "name": "G#2",
            "ticks": 38400,
            "time": 53.33336,
            "velocity": 0.7480314960629921
          },
          {
            "duration": 1.3333340000000007,
            "durationTicks": 960,
            "midi": 67,
            "name": "G4",
            "ticks": 39360,
            "time": 54.666694,
            "velocity": 0.7480314960629921
          },
          {
            "duration": 1.3333340000000007,
            "durationTicks": 960,
            "midi": 63,
            "name": "D#4",
            "ticks": 39360,
            "time": 54.666694,
            "velocity": 0.7480314960629921
          },
          {
            "duration": 1.3333340000000007,
            "durationTicks": 960,
            "midi": 55,
            "name": "G3",
            "ticks": 39360,
            "time": 54.666694,
            "velocity": 0.7480314960629921
          },
          {
            "duration": 0.6666670000000039,
            "durationTicks": 480,
            "midi": 63,
            "name": "D#4",
            "ticks": 40320,
            "time": 56.000028,
            "velocity": 0.7480314960629921
          },
          {
            "duration": 0.6666670000000039,
            "durationTicks": 480,
            "midi": 56,
            "name": "G#3",
            "ticks": 40320,
            "time": 56.000028,
            "velocity": 0.7480314960629921
          },
          {
            "duration": 0.6666670000000039,
            "durationTicks": 480,
            "midi": 44,
            "name": "G#2",
            "ticks": 40320,
            "time": 56.000028,
            "velocity": 0.7480314960629921
          },
          {
            "duration": 0.6666669999999968,
            "durationTicks": 480,
            "midi": 65,
            "name": "F4",
            "ticks": 40800,
            "time": 56.666695000000004,
            "velocity": 0.7480314960629921
          },
          {
            "duration": 0.6666669999999968,
            "durationTicks": 480,
            "midi": 58,
            "name": "A#3",
            "ticks": 40800,
            "time": 56.666695000000004,
            "velocity": 0.7480314960629921
          },
          {
            "duration": 0.6666669999999968,
            "durationTicks": 480,
            "midi": 46,
            "name": "A#2",
            "ticks": 40800,
            "time": 56.666695000000004,
            "velocity": 0.7480314960629921
          },
          {
            "duration": 1.3333340000000007,
            "durationTicks": 960,
            "midi": 67,
            "name": "G4",
            "ticks": 41280,
            "time": 57.333362,
            "velocity": 0.7480314960629921
          },
          {
            "duration": 1.3333340000000007,
            "durationTicks": 960,
            "midi": 60,
            "name": "C4",
            "ticks": 41280,
            "time": 57.333362,
            "velocity": 0.7480314960629921
          },
          {
            "duration": 1.3333340000000007,
            "durationTicks": 960,
            "midi": 48,
            "name": "C3",
            "ticks": 41280,
            "time": 57.333362,
            "velocity": 0.7480314960629921
          },
          {
            "duration": 1.3333340000000007,
            "durationTicks": 960,
            "midi": 63,
            "name": "D#4",
            "ticks": 42240,
            "time": 58.666696,
            "velocity": 0.7480314960629921
          },
          {
            "duration": 1.3333340000000007,
            "durationTicks": 960,
            "midi": 56,
            "name": "G#3",
            "ticks": 42240,
            "time": 58.666696,
            "velocity": 0.7480314960629921
          },
          {
            "duration": 1.3333340000000007,
            "durationTicks": 960,
            "midi": 44,
            "name": "G#2",
            "ticks": 42240,
            "time": 58.666696,
            "velocity": 0.7480314960629921
          },
          {
            "duration": 1.3333340000000007,
            "durationTicks": 960,
            "midi": 58,
            "name": "A#3",
            "ticks": 43200,
            "time": 60.00003,
            "velocity": 0.7480314960629921
          },
          {
            "duration": 1.3333340000000007,
            "durationTicks": 960,
            "midi": 55,
            "name": "G3",
            "ticks": 43200,
            "time": 60.00003,
            "velocity": 0.7480314960629921
          },
          {
            "duration": 1.3333340000000007,
            "durationTicks": 960,
            "midi": 43,
            "name": "G2",
            "ticks": 43200,
            "time": 60.00003,
            "velocity": 0.7480314960629921
          },
          {
            "duration": 2.0000009999999975,
            "durationTicks": 1440,
            "midi": 60,
            "name": "C4",
            "ticks": 44160,
            "time": 61.333364,
            "velocity": 0.7480314960629921
          },
          {
            "duration": 2.0000009999999975,
            "durationTicks": 1440,
            "midi": 57,
            "name": "A3",
            "ticks": 44160,
            "time": 61.333364,
            "velocity": 0.7480314960629921
          },
          {
            "duration": 2.0000009999999975,
            "durationTicks": 1440,
            "midi": 53,
            "name": "F3",
            "ticks": 44160,
            "time": 61.333364,
            "velocity": 0.7480314960629921
          },
          {
            "duration": 2.0000009999999975,
            "durationTicks": 1440,
            "midi": 45,
            "name": "A2",
            "ticks": 44160,
            "time": 61.333364,
            "velocity": 0.7480314960629921
          },
          {
            "duration": 0.6666670000000039,
            "durationTicks": 480,
            "midi": 63,
            "name": "D#4",
            "ticks": 45600,
            "time": 63.333365,
            "velocity": 0.7480314960629921
          },
          {
            "duration": 0.6666670000000039,
            "durationTicks": 480,
            "midi": 58,
            "name": "A#3",
            "ticks": 45600,
            "time": 63.333365,
            "velocity": 0.7480314960629921
          },
          {
            "duration": 0.6666670000000039,
            "durationTicks": 480,
            "midi": 53,
            "name": "F3",
            "ticks": 45600,
            "time": 63.333365,
            "velocity": 0.7480314960629921
          },
          {
            "duration": 0.6666670000000039,
            "durationTicks": 480,
            "midi": 46,
            "name": "A#2",
            "ticks": 45600,
            "time": 63.333365,
            "velocity": 0.7480314960629921
          },
          {
            "duration": 0.16666675000000453,
            "durationTicks": 120,
            "midi": 75,
            "name": "D#5",
            "ticks": 61440,
            "time": 85.333376,
            "velocity": 0.7480314960629921
          },
          {
            "duration": 0.16666674999999032,
            "durationTicks": 120,
            "midi": 70,
            "name": "A#4",
            "ticks": 61560,
            "time": 85.50004275,
            "velocity": 0.7480314960629921
          },
          {
            "duration": 0.16666675000000453,
            "durationTicks": 120,
            "midi": 63,
            "name": "D#4",
            "ticks": 61680,
            "time": 85.6667095,
            "velocity": 0.7480314960629921
          },
          {
            "duration": 0.16666675000000453,
            "durationTicks": 120,
            "midi": 75,
            "name": "D#5",
            "ticks": 61800,
            "time": 85.83337625,
            "velocity": 0.7480314960629921
          },
          {
            "duration": 0.16666674999999032,
            "durationTicks": 120,
            "midi": 70,
            "name": "A#4",
            "ticks": 61920,
            "time": 86.000043,
            "velocity": 0.7480314960629921
          },
          {
            "duration": 0.16666675000000453,
            "durationTicks": 120,
            "midi": 63,
            "name": "D#4",
            "ticks": 62040,
            "time": 86.16670975,
            "velocity": 0.7480314960629921
          },
          {
            "duration": 0.16666675000000453,
            "durationTicks": 120,
            "midi": 75,
            "name": "D#5",
            "ticks": 62160,
            "time": 86.3333765,
            "velocity": 0.7480314960629921
          },
          {
            "duration": 0.16666674999999032,
            "durationTicks": 120,
            "midi": 70,
            "name": "A#4",
            "ticks": 62280,
            "time": 86.50004325,
            "velocity": 0.7480314960629921
          },
          {
            "duration": 0.16666675000000453,
            "durationTicks": 120,
            "midi": 63,
            "name": "D#4",
            "ticks": 62400,
            "time": 86.66671,
            "velocity": 0.7480314960629921
          },
          {
            "duration": 0.16666675000000453,
            "durationTicks": 120,
            "midi": 75,
            "name": "D#5",
            "ticks": 62520,
            "time": 86.83337675,
            "velocity": 0.7480314960629921
          },
          {
            "duration": 0.16666674999999032,
            "durationTicks": 120,
            "midi": 70,
            "name": "A#4",
            "ticks": 62640,
            "time": 87.0000435,
            "velocity": 0.7480314960629921
          },
          {
            "duration": 0.16666675000000453,
            "durationTicks": 120,
            "midi": 63,
            "name": "D#4",
            "ticks": 62760,
            "time": 87.16671025,
            "velocity": 0.7480314960629921
          },
          {
            "duration": 0.16666675000000453,
            "durationTicks": 120,
            "midi": 75,
            "name": "D#5",
            "ticks": 62880,
            "time": 87.333377,
            "velocity": 0.7480314960629921
          },
          {
            "duration": 0.16666675000000453,
            "durationTicks": 120,
            "midi": 70,
            "name": "A#4",
            "ticks": 63000,
            "time": 87.50004375,
            "velocity": 0.7480314960629921
          },
          {
            "duration": 0.16666674999999032,
            "durationTicks": 120,
            "midi": 63,
            "name": "D#4",
            "ticks": 63120,
            "time": 87.66671050000001,
            "velocity": 0.7480314960629921
          },
          {
            "duration": 0.16666675000000453,
            "durationTicks": 120,
            "midi": 75,
            "name": "D#5",
            "ticks": 63240,
            "time": 87.83337725,
            "velocity": 0.7480314960629921
          },
          {
            "duration": 0.16666675000000453,
            "durationTicks": 120,
            "midi": 70,
            "name": "A#4",
            "ticks": 63360,
            "time": 88.000044,
            "velocity": 0.7480314960629921
          },
          {
            "duration": 0.16666674999999032,
            "durationTicks": 120,
            "midi": 63,
            "name": "D#4",
            "ticks": 63480,
            "time": 88.16671075000001,
            "velocity": 0.7480314960629921
          },
          {
            "duration": 0.16666675000000453,
            "durationTicks": 120,
            "midi": 75,
            "name": "D#5",
            "ticks": 63600,
            "time": 88.3333775,
            "velocity": 0.7480314960629921
          },
          {
            "duration": 0.16666675000000453,
            "durationTicks": 120,
            "midi": 70,
            "name": "A#4",
            "ticks": 63720,
            "time": 88.50004425,
            "velocity": 0.7480314960629921
          },
          {
            "duration": 0.16666674999999032,
            "durationTicks": 120,
            "midi": 63,
            "name": "D#4",
            "ticks": 63840,
            "time": 88.666711,
            "velocity": 0.7480314960629921
          },
          {
            "duration": 0.16666675000000453,
            "durationTicks": 120,
            "midi": 75,
            "name": "D#5",
            "ticks": 63960,
            "time": 88.83337775,
            "velocity": 0.7480314960629921
          },
          {
            "duration": 0.16666675000000453,
            "durationTicks": 120,
            "midi": 70,
            "name": "A#4",
            "ticks": 64080,
            "time": 89.0000445,
            "velocity": 0.7480314960629921
          },
          {
            "duration": 0.16666674999999032,
            "durationTicks": 120,
            "midi": 63,
            "name": "D#4",
            "ticks": 64200,
            "time": 89.16671125,
            "velocity": 0.7480314960629921
          },
          {
            "duration": 0.16666675000000453,
            "durationTicks": 120,
            "midi": 74,
            "name": "D5",
            "ticks": 64320,
            "time": 89.333378,
            "velocity": 0.7480314960629921
          },
          {
            "duration": 0.16666675000000453,
            "durationTicks": 120,
            "midi": 70,
            "name": "A#4",
            "ticks": 64440,
            "time": 89.50004475,
            "velocity": 0.7480314960629921
          },
          {
            "duration": 0.16666674999999032,
            "durationTicks": 120,
            "midi": 63,
            "name": "D#4",
            "ticks": 64560,
            "time": 89.6667115,
            "velocity": 0.7480314960629921
          },
          {
            "duration": 0.16666675000000453,
            "durationTicks": 120,
            "midi": 74,
            "name": "D5",
            "ticks": 64680,
            "time": 89.83337825,
            "velocity": 0.7480314960629921
          },
          {
            "duration": 0.16666675000000453,
            "durationTicks": 120,
            "midi": 70,
            "name": "A#4",
            "ticks": 64800,
            "time": 90.000045,
            "velocity": 0.7480314960629921
          },
          {
            "duration": 0.16666674999999032,
            "durationTicks": 120,
            "midi": 63,
            "name": "D#4",
            "ticks": 64920,
            "time": 90.16671175,
            "velocity": 0.7480314960629921
          },
          {
            "duration": 0.16666675000000453,
            "durationTicks": 120,
            "midi": 75,
            "name": "D#5",
            "ticks": 65040,
            "time": 90.3333785,
            "velocity": 0.7480314960629921
          },
          {
            "duration": 0.16666675000000453,
            "durationTicks": 120,
            "midi": 70,
            "name": "A#4",
            "ticks": 65160,
            "time": 90.50004525,
            "velocity": 0.7480314960629921
          },
          {
            "duration": 0.16666674999999032,
            "durationTicks": 120,
            "midi": 63,
            "name": "D#4",
            "ticks": 65280,
            "time": 90.666712,
            "velocity": 0.7480314960629921
          },
          {
            "duration": 0.16666675000000453,
            "durationTicks": 120,
            "midi": 75,
            "name": "D#5",
            "ticks": 65400,
            "time": 90.83337875,
            "velocity": 0.7480314960629921
          },
          {
            "duration": 0.16666675000000453,
            "durationTicks": 120,
            "midi": 70,
            "name": "A#4",
            "ticks": 65520,
            "time": 91.0000455,
            "velocity": 0.7480314960629921
          },
          {
            "duration": 0.16666675000000453,
            "durationTicks": 120,
            "midi": 63,
            "name": "D#4",
            "ticks": 65640,
            "time": 91.16671225,
            "velocity": 0.7480314960629921
          },
          {
            "duration": 0.16666674999999032,
            "durationTicks": 120,
            "midi": 75,
            "name": "D#5",
            "ticks": 65760,
            "time": 91.33337900000001,
            "velocity": 0.7480314960629921
          },
          {
            "duration": 0.16666675000000453,
            "durationTicks": 120,
            "midi": 70,
            "name": "A#4",
            "ticks": 65880,
            "time": 91.50004575,
            "velocity": 0.7480314960629921
          },
          {
            "duration": 0.16666675000000453,
            "durationTicks": 120,
            "midi": 63,
            "name": "D#4",
            "ticks": 66000,
            "time": 91.6667125,
            "velocity": 0.7480314960629921
          },
          {
            "duration": 0.16666674999999032,
            "durationTicks": 120,
            "midi": 75,
            "name": "D#5",
            "ticks": 66120,
            "time": 91.83337925000001,
            "velocity": 0.7480314960629921
          },
          {
            "duration": 0.16666675000000453,
            "durationTicks": 120,
            "midi": 70,
            "name": "A#4",
            "ticks": 66240,
            "time": 92.000046,
            "velocity": 0.7480314960629921
          },
          {
            "duration": 0.16666675000000453,
            "durationTicks": 120,
            "midi": 63,
            "name": "D#4",
            "ticks": 66360,
            "time": 92.16671275,
            "velocity": 0.7480314960629921
          },
          {
            "duration": 0.16666674999999032,
            "durationTicks": 120,
            "midi": 75,
            "name": "D#5",
            "ticks": 66480,
            "time": 92.3333795,
            "velocity": 0.7480314960629921
          },
          {
            "duration": 0.16666675000000453,
            "durationTicks": 120,
            "midi": 70,
            "name": "A#4",
            "ticks": 66600,
            "time": 92.50004625,
            "velocity": 0.7480314960629921
          },
          {
            "duration": 0.16666675000000453,
            "durationTicks": 120,
            "midi": 63,
            "name": "D#4",
            "ticks": 66720,
            "time": 92.666713,
            "velocity": 0.7480314960629921
          },
          {
            "duration": 0.16666674999999032,
            "durationTicks": 120,
            "midi": 75,
            "name": "D#5",
            "ticks": 66840,
            "time": 92.83337975,
            "velocity": 0.7480314960629921
          },
          {
            "duration": 0.16666675000000453,
            "durationTicks": 120,
            "midi": 70,
            "name": "A#4",
            "ticks": 66960,
            "time": 93.0000465,
            "velocity": 0.7480314960629921
          },
          {
            "duration": 0.16666675000000453,
            "durationTicks": 120,
            "midi": 63,
            "name": "D#4",
            "ticks": 67080,
            "time": 93.16671325,
            "velocity": 0.7480314960629921
          },
          {
            "duration": 0.16666674999999032,
            "durationTicks": 120,
            "midi": 75,
            "name": "D#5",
            "ticks": 67200,
            "time": 93.33338,
            "velocity": 0.7480314960629921
          },
          {
            "duration": 0.16666675000000453,
            "durationTicks": 120,
            "midi": 70,
            "name": "A#4",
            "ticks": 67320,
            "time": 93.50004675,
            "velocity": 0.7480314960629921
          },
          {
            "duration": 0.16666675000000453,
            "durationTicks": 120,
            "midi": 63,
            "name": "D#4",
            "ticks": 67440,
            "time": 93.6667135,
            "velocity": 0.7480314960629921
          },
          {
            "duration": 0.16666674999999032,
            "durationTicks": 120,
            "midi": 75,
            "name": "D#5",
            "ticks": 67560,
            "time": 93.83338025,
            "velocity": 0.7480314960629921
          },
          {
            "duration": 0.16666675000000453,
            "durationTicks": 120,
            "midi": 70,
            "name": "A#4",
            "ticks": 67680,
            "time": 94.000047,
            "velocity": 0.7480314960629921
          },
          {
            "duration": 0.16666675000000453,
            "durationTicks": 120,
            "midi": 63,
            "name": "D#4",
            "ticks": 67800,
            "time": 94.16671375,
            "velocity": 0.7480314960629921
          },
          {
            "duration": 0.16666674999999032,
            "durationTicks": 120,
            "midi": 75,
            "name": "D#5",
            "ticks": 67920,
            "time": 94.3333805,
            "velocity": 0.7480314960629921
          },
          {
            "duration": 0.16666675000000453,
            "durationTicks": 120,
            "midi": 70,
            "name": "A#4",
            "ticks": 68040,
            "time": 94.50004725,
            "velocity": 0.7480314960629921
          },
          {
            "duration": 0.16666675000000453,
            "durationTicks": 120,
            "midi": 63,
            "name": "D#4",
            "ticks": 68160,
            "time": 94.666714,
            "velocity": 0.7480314960629921
          },
          {
            "duration": 0.16666675000000453,
            "durationTicks": 120,
            "midi": 75,
            "name": "D#5",
            "ticks": 68280,
            "time": 94.83338075,
            "velocity": 0.7480314960629921
          },
          {
            "duration": 0.16666674999999032,
            "durationTicks": 120,
            "midi": 70,
            "name": "A#4",
            "ticks": 68400,
            "time": 95.00004750000001,
            "velocity": 0.7480314960629921
          },
          {
            "duration": 0.16666675000000453,
            "durationTicks": 120,
            "midi": 63,
            "name": "D#4",
            "ticks": 68520,
            "time": 95.16671425,
            "velocity": 0.7480314960629921
          },
          {
            "duration": 0.16666675000000453,
            "durationTicks": 120,
            "midi": 75,
            "name": "D#5",
            "ticks": 68640,
            "time": 95.333381,
            "velocity": 0.7480314960629921
          },
          {
            "duration": 0.16666674999999032,
            "durationTicks": 120,
            "midi": 70,
            "name": "A#4",
            "ticks": 68760,
            "time": 95.50004775000001,
            "velocity": 0.7480314960629921
          },
          {
            "duration": 0.16666675000000453,
            "durationTicks": 120,
            "midi": 63,
            "name": "D#4",
            "ticks": 68880,
            "time": 95.6667145,
            "velocity": 0.7480314960629921
          },
          {
            "duration": 0.16666675000000453,
            "durationTicks": 120,
            "midi": 75,
            "name": "D#5",
            "ticks": 69000,
            "time": 95.83338125,
            "velocity": 0.7480314960629921
          },
          {
            "duration": 0.16666674999999032,
            "durationTicks": 120,
            "midi": 70,
            "name": "A#4",
            "ticks": 69120,
            "time": 96.000048,
            "velocity": 0.7480314960629921
          },
          {
            "duration": 0.16666675000000453,
            "durationTicks": 120,
            "midi": 63,
            "name": "D#4",
            "ticks": 69240,
            "time": 96.16671475,
            "velocity": 0.7480314960629921
          },
          {
            "duration": 0.16666675000000453,
            "durationTicks": 120,
            "midi": 75,
            "name": "D#5",
            "ticks": 69360,
            "time": 96.3333815,
            "velocity": 0.7480314960629921
          },
          {
            "duration": 0.16666674999999032,
            "durationTicks": 120,
            "midi": 70,
            "name": "A#4",
            "ticks": 69480,
            "time": 96.50004825,
            "velocity": 0.7480314960629921
          },
          {
            "duration": 0.16666675000000453,
            "durationTicks": 120,
            "midi": 63,
            "name": "D#4",
            "ticks": 69600,
            "time": 96.666715,
            "velocity": 0.7480314960629921
          },
          {
            "duration": 0.16666675000000453,
            "durationTicks": 120,
            "midi": 75,
            "name": "D#5",
            "ticks": 69720,
            "time": 96.83338175,
            "velocity": 0.7480314960629921
          },
          {
            "duration": 0.16666674999999032,
            "durationTicks": 120,
            "midi": 70,
            "name": "A#4",
            "ticks": 69840,
            "time": 97.0000485,
            "velocity": 0.7480314960629921
          },
          {
            "duration": 0.16666675000000453,
            "durationTicks": 120,
            "midi": 63,
            "name": "D#4",
            "ticks": 69960,
            "time": 97.16671525,
            "velocity": 0.7480314960629921
          },
          {
            "duration": 0.16666675000000453,
            "durationTicks": 120,
            "midi": 75,
            "name": "D#5",
            "ticks": 70080,
            "time": 97.333382,
            "velocity": 0.7480314960629921
          },
          {
            "duration": 0.16666674999999032,
            "durationTicks": 120,
            "midi": 70,
            "name": "A#4",
            "ticks": 70200,
            "time": 97.50004875,
            "velocity": 0.7480314960629921
          },
          {
            "duration": 0.16666675000000453,
            "durationTicks": 120,
            "midi": 63,
            "name": "D#4",
            "ticks": 70320,
            "time": 97.6667155,
            "velocity": 0.7480314960629921
          },
          {
            "duration": 0.16666675000000453,
            "durationTicks": 120,
            "midi": 75,
            "name": "D#5",
            "ticks": 70440,
            "time": 97.83338225,
            "velocity": 0.7480314960629921
          },
          {
            "duration": 0.16666674999999032,
            "durationTicks": 120,
            "midi": 70,
            "name": "A#4",
            "ticks": 70560,
            "time": 98.000049,
            "velocity": 0.7480314960629921
          },
          {
            "duration": 0.16666675000000453,
            "durationTicks": 120,
            "midi": 63,
            "name": "D#4",
            "ticks": 70680,
            "time": 98.16671575,
            "velocity": 0.7480314960629921
          },
          {
            "duration": 0.16666675000000453,
            "durationTicks": 120,
            "midi": 75,
            "name": "D#5",
            "ticks": 70800,
            "time": 98.3333825,
            "velocity": 0.7480314960629921
          },
          {
            "duration": 0.16666675000000453,
            "durationTicks": 120,
            "midi": 70,
            "name": "A#4",
            "ticks": 70920,
            "time": 98.50004925,
            "velocity": 0.7480314960629921
          },
          {
            "duration": 0.16666674999999032,
            "durationTicks": 120,
            "midi": 70,
            "name": "A#4",
            "ticks": 71040,
            "time": 98.66671600000001,
            "velocity": 0.7480314960629921
          },
          {
            "duration": 0.16666675000000453,
            "durationTicks": 120,
            "midi": 63,
            "name": "D#4",
            "ticks": 71160,
            "time": 98.83338275,
            "velocity": 0.7480314960629921
          },
          {
            "duration": 0.16666675000000453,
            "durationTicks": 120,
            "midi": 75,
            "name": "D#5",
            "ticks": 71280,
            "time": 99.0000495,
            "velocity": 0.7480314960629921
          },
          {
            "duration": 0.16666674999999032,
            "durationTicks": 120,
            "midi": 70,
            "name": "A#4",
            "ticks": 71400,
            "time": 99.16671625000001,
            "velocity": 0.7480314960629921
          },
          {
            "duration": 0.16666675000000453,
            "durationTicks": 120,
            "midi": 63,
            "name": "D#4",
            "ticks": 71520,
            "time": 99.333383,
            "velocity": 0.7480314960629921
          },
          {
            "duration": 0.16666675000000453,
            "durationTicks": 120,
            "midi": 75,
            "name": "D#5",
            "ticks": 71640,
            "time": 99.50004975,
            "velocity": 0.7480314960629921
          },
          {
            "duration": 0.16666674999999032,
            "durationTicks": 120,
            "midi": 70,
            "name": "A#4",
            "ticks": 71760,
            "time": 99.6667165,
            "velocity": 0.7480314960629921
          },
          {
            "duration": 0.16666675000000453,
            "durationTicks": 120,
            "midi": 63,
            "name": "D#4",
            "ticks": 71880,
            "time": 99.83338325,
            "velocity": 0.7480314960629921
          },
          {
            "duration": 0.16666675000000453,
            "durationTicks": 120,
            "midi": 74,
            "name": "D5",
            "ticks": 72000,
            "time": 100.00005,
            "velocity": 0.7480314960629921
          },
          {
            "duration": 0.16666674999999032,
            "durationTicks": 120,
            "midi": 70,
            "name": "A#4",
            "ticks": 72120,
            "time": 100.16671675,
            "velocity": 0.7480314960629921
          },
          {
            "duration": 0.16666675000000453,
            "durationTicks": 120,
            "midi": 63,
            "name": "D#4",
            "ticks": 72240,
            "time": 100.3333835,
            "velocity": 0.7480314960629921
          },
          {
            "duration": 0.16666675000000453,
            "durationTicks": 120,
            "midi": 74,
            "name": "D5",
            "ticks": 72360,
            "time": 100.50005025,
            "velocity": 0.7480314960629921
          },
          {
            "duration": 0.16666674999999032,
            "durationTicks": 120,
            "midi": 70,
            "name": "A#4",
            "ticks": 72480,
            "time": 100.666717,
            "velocity": 0.7480314960629921
          },
          {
            "duration": 0.16666675000000453,
            "durationTicks": 120,
            "midi": 63,
            "name": "D#4",
            "ticks": 72600,
            "time": 100.83338375,
            "velocity": 0.7480314960629921
          },
          {
            "duration": 0.16666675000000453,
            "durationTicks": 120,
            "midi": 75,
            "name": "D#5",
            "ticks": 72720,
            "time": 101.0000505,
            "velocity": 0.7480314960629921
          },
          {
            "duration": 0.16666674999999032,
            "durationTicks": 120,
            "midi": 70,
            "name": "A#4",
            "ticks": 72840,
            "time": 101.16671725,
            "velocity": 0.7480314960629921
          },
          {
            "duration": 0.16666675000000453,
            "durationTicks": 120,
            "midi": 63,
            "name": "D#4",
            "ticks": 72960,
            "time": 101.333384,
            "velocity": 0.7480314960629921
          },
          {
            "duration": 0.16666675000000453,
            "durationTicks": 120,
            "midi": 75,
            "name": "D#5",
            "ticks": 73080,
            "time": 101.50005075,
            "velocity": 0.7480314960629921
          },
          {
            "duration": 0.16666674999999032,
            "durationTicks": 120,
            "midi": 70,
            "name": "A#4",
            "ticks": 73200,
            "time": 101.6667175,
            "velocity": 0.7480314960629921
          },
          {
            "duration": 0.16666675000000453,
            "durationTicks": 120,
            "midi": 63,
            "name": "D#4",
            "ticks": 73320,
            "time": 101.83338425,
            "velocity": 0.7480314960629921
          },
          {
            "duration": 0.16666675000000453,
            "durationTicks": 120,
            "midi": 75,
            "name": "D#5",
            "ticks": 73440,
            "time": 102.000051,
            "velocity": 0.7480314960629921
          },
          {
            "duration": 0.16666675000000453,
            "durationTicks": 120,
            "midi": 70,
            "name": "A#4",
            "ticks": 73560,
            "time": 102.16671775,
            "velocity": 0.7480314960629921
          },
          {
            "duration": 0.16666674999999032,
            "durationTicks": 120,
            "midi": 63,
            "name": "D#4",
            "ticks": 73680,
            "time": 102.33338450000001,
            "velocity": 0.7480314960629921
          },
          {
            "duration": 0.16666675000000453,
            "durationTicks": 120,
            "midi": 75,
            "name": "D#5",
            "ticks": 73800,
            "time": 102.50005125,
            "velocity": 0.7480314960629921
          },
          {
            "duration": 0.16666675000000453,
            "durationTicks": 120,
            "midi": 70,
            "name": "A#4",
            "ticks": 73920,
            "time": 102.666718,
            "velocity": 0.7480314960629921
          },
          {
            "duration": 0.16666674999999032,
            "durationTicks": 120,
            "midi": 63,
            "name": "D#4",
            "ticks": 74040,
            "time": 102.83338475000001,
            "velocity": 0.7480314960629921
          },
          {
            "duration": 0.16666675000000453,
            "durationTicks": 120,
            "midi": 75,
            "name": "D#5",
            "ticks": 74160,
            "time": 103.0000515,
            "velocity": 0.7480314960629921
          },
          {
            "duration": 0.16666675000000453,
            "durationTicks": 120,
            "midi": 70,
            "name": "A#4",
            "ticks": 74280,
            "time": 103.16671825,
            "velocity": 0.7480314960629921
          },
          {
            "duration": 0.16666674999999032,
            "durationTicks": 120,
            "midi": 63,
            "name": "D#4",
            "ticks": 74400,
            "time": 103.333385,
            "velocity": 0.7480314960629921
          },
          {
            "duration": 0.16666675000000453,
            "durationTicks": 120,
            "midi": 75,
            "name": "D#5",
            "ticks": 74520,
            "time": 103.50005175,
            "velocity": 0.7480314960629921
          },
          {
            "duration": 0.16666675000000453,
            "durationTicks": 120,
            "midi": 70,
            "name": "A#4",
            "ticks": 74640,
            "time": 103.6667185,
            "velocity": 0.7480314960629921
          },
          {
            "duration": 0.16666674999999032,
            "durationTicks": 120,
            "midi": 63,
            "name": "D#4",
            "ticks": 74760,
            "time": 103.83338525,
            "velocity": 0.7480314960629921
          },
          {
            "duration": 0.16666675000000453,
            "durationTicks": 120,
            "midi": 75,
            "name": "D#5",
            "ticks": 74880,
            "time": 104.000052,
            "velocity": 0.7480314960629921
          },
          {
            "duration": 0.16666675000000453,
            "durationTicks": 120,
            "midi": 70,
            "name": "A#4",
            "ticks": 75000,
            "time": 104.16671875,
            "velocity": 0.7480314960629921
          },
          {
            "duration": 0.16666674999999032,
            "durationTicks": 120,
            "midi": 63,
            "name": "D#4",
            "ticks": 75120,
            "time": 104.3333855,
            "velocity": 0.7480314960629921
          },
          {
            "duration": 0.16666675000000453,
            "durationTicks": 120,
            "midi": 75,
            "name": "D#5",
            "ticks": 75240,
            "time": 104.50005225,
            "velocity": 0.7480314960629921
          },
          {
            "duration": 0.16666675000000453,
            "durationTicks": 120,
            "midi": 70,
            "name": "A#4",
            "ticks": 75360,
            "time": 104.666719,
            "velocity": 0.7480314960629921
          },
          {
            "duration": 0.16666674999999032,
            "durationTicks": 120,
            "midi": 63,
            "name": "D#4",
            "ticks": 75480,
            "time": 104.83338575,
            "velocity": 0.7480314960629921
          },
          {
            "duration": 0.16666675000000453,
            "durationTicks": 120,
            "midi": 74,
            "name": "D5",
            "ticks": 75600,
            "time": 105.0000525,
            "velocity": 0.7480314960629921
          },
          {
            "duration": 0.16666675000000453,
            "durationTicks": 120,
            "midi": 70,
            "name": "A#4",
            "ticks": 75720,
            "time": 105.16671925,
            "velocity": 0.7480314960629921
          },
          {
            "duration": 0.16666674999999032,
            "durationTicks": 120,
            "midi": 63,
            "name": "D#4",
            "ticks": 75840,
            "time": 105.333386,
            "velocity": 0.7480314960629921
          },
          {
            "duration": 0.16666675000000453,
            "durationTicks": 120,
            "midi": 74,
            "name": "D5",
            "ticks": 75960,
            "time": 105.50005275,
            "velocity": 0.7480314960629921
          },
          {
            "duration": 0.16666675000000453,
            "durationTicks": 120,
            "midi": 70,
            "name": "A#4",
            "ticks": 76080,
            "time": 105.6667195,
            "velocity": 0.7480314960629921
          },
          {
            "duration": 0.16666675000000453,
            "durationTicks": 120,
            "midi": 63,
            "name": "D#4",
            "ticks": 76200,
            "time": 105.83338625,
            "velocity": 0.7480314960629921
          },
          {
            "duration": 0.5000002499999994,
            "durationTicks": 360,
            "midi": 70,
            "name": "A#4",
            "ticks": 81120,
            "time": 112.666723,
            "velocity": 0.7480314960629921
          },
          {
            "duration": 0.33333349999999484,
            "durationTicks": 240,
            "midi": 72,
            "name": "C5",
            "ticks": 81480,
            "time": 113.16672325,
            "velocity": 0.7480314960629921
          },
          {
            "duration": 0.33333350000000905,
            "durationTicks": 240,
            "midi": 75,
            "name": "D#5",
            "ticks": 81720,
            "time": 113.50005675,
            "velocity": 0.7480314960629921
          },
          {
            "duration": 0.16666674999999032,
            "durationTicks": 120,
            "midi": 70,
            "name": "A#4",
            "ticks": 81960,
            "time": 113.83339025000001,
            "velocity": 0.7480314960629921
          },
          {
            "duration": 0.33333350000000905,
            "durationTicks": 240,
            "midi": 72,
            "name": "C5",
            "ticks": 82080,
            "time": 114.000057,
            "velocity": 0.7480314960629921
          },
          {
            "duration": 0.33333349999999484,
            "durationTicks": 240,
            "midi": 70,
            "name": "A#4",
            "ticks": 82320,
            "time": 114.33339050000001,
            "velocity": 0.7480314960629921
          },
          {
            "duration": 0.6666670000000039,
            "durationTicks": 480,
            "midi": 70,
            "name": "A#4",
            "ticks": 82560,
            "time": 114.666724,
            "velocity": 0.7480314960629921
          },
          {
            "duration": 0.5000002499999994,
            "durationTicks": 360,
            "midi": 70,
            "name": "A#4",
            "ticks": 84960,
            "time": 118.00005900000001,
            "velocity": 0.7480314960629921
          },
          {
            "duration": 0.33333349999999484,
            "durationTicks": 240,
            "midi": 68,
            "name": "G#4",
            "ticks": 85320,
            "time": 118.50005925,
            "velocity": 0.7480314960629921
          },
          {
            "duration": 0.33333349999999484,
            "durationTicks": 240,
            "midi": 72,
            "name": "C5",
            "ticks": 85560,
            "time": 118.83339275,
            "velocity": 0.7480314960629921
          },
          {
            "duration": 0.16666675000000453,
            "durationTicks": 120,
            "midi": 70,
            "name": "A#4",
            "ticks": 85800,
            "time": 119.16672625,
            "velocity": 0.7480314960629921
          },
          {
            "duration": 0.33333349999999484,
            "durationTicks": 240,
            "midi": 75,
            "name": "D#5",
            "ticks": 85920,
            "time": 119.333393,
            "velocity": 0.7480314960629921
          },
          {
            "duration": 0.33333350000000905,
            "durationTicks": 240,
            "midi": 77,
            "name": "F5",
            "ticks": 86160,
            "time": 119.6667265,
            "velocity": 0.7480314960629921
          },
          {
            "duration": 0.6666670000000039,
            "durationTicks": 480,
            "midi": 70,
            "name": "A#4",
            "ticks": 86400,
            "time": 120.00006,
            "velocity": 0.7480314960629921
          },
          {
            "duration": 0.5000002499999994,
            "durationTicks": 360,
            "midi": 70,
            "name": "A#4",
            "ticks": 88800,
            "time": 123.333395,
            "velocity": 0.7480314960629921
          },
          {
            "duration": 0.33333350000000905,
            "durationTicks": 240,
            "midi": 72,
            "name": "C5",
            "ticks": 89160,
            "time": 123.83339525,
            "velocity": 0.7480314960629921
          },
          {
            "duration": 0.33333349999999484,
            "durationTicks": 240,
            "midi": 75,
            "name": "D#5",
            "ticks": 89400,
            "time": 124.16672875,
            "velocity": 0.7480314960629921
          },
          {
            "duration": 0.16666675000000453,
            "durationTicks": 120,
            "midi": 70,
            "name": "A#4",
            "ticks": 89640,
            "time": 124.50006225,
            "velocity": 0.7480314960629921
          },
          {
            "duration": 0.33333349999999484,
            "durationTicks": 240,
            "midi": 72,
            "name": "C5",
            "ticks": 89760,
            "time": 124.666729,
            "velocity": 0.7480314960629921
          },
          {
            "duration": 0.33333350000000905,
            "durationTicks": 240,
            "midi": 70,
            "name": "A#4",
            "ticks": 90000,
            "time": 125.0000625,
            "velocity": 0.7480314960629921
          },
          {
            "duration": 0.6666669999999897,
            "durationTicks": 480,
            "midi": 70,
            "name": "A#4",
            "ticks": 90240,
            "time": 125.33339600000001,
            "velocity": 0.7480314960629921
          },
          {
            "duration": 0.16666674999999032,
            "durationTicks": 120,
            "midi": 75,
            "name": "D#5",
            "ticks": 109440,
            "time": 152.000076,
            "velocity": 0.7480314960629921
          },
          {
            "duration": 0.16666675000001874,
            "durationTicks": 120,
            "midi": 70,
            "name": "A#4",
            "ticks": 109560,
            "time": 152.16674275,
            "velocity": 0.7480314960629921
          },
          {
            "duration": 0.16666674999999032,
            "durationTicks": 120,
            "midi": 63,
            "name": "D#4",
            "ticks": 109680,
            "time": 152.33340950000002,
            "velocity": 0.7480314960629921
          },
          {
            "duration": 0.16666674999999032,
            "durationTicks": 120,
            "midi": 75,
            "name": "D#5",
            "ticks": 109800,
            "time": 152.50007625,
            "velocity": 0.7480314960629921
          },
          {
            "duration": 0.16666675000001874,
            "durationTicks": 120,
            "midi": 70,
            "name": "A#4",
            "ticks": 109920,
            "time": 152.666743,
            "velocity": 0.7480314960629921
          },
          {
            "duration": 0.16666674999999032,
            "durationTicks": 120,
            "midi": 63,
            "name": "D#4",
            "ticks": 110040,
            "time": 152.83340975000002,
            "velocity": 0.7480314960629921
          },
          {
            "duration": 0.16666674999999032,
            "durationTicks": 120,
            "midi": 75,
            "name": "D#5",
            "ticks": 110160,
            "time": 153.0000765,
            "velocity": 0.7480314960629921
          },
          {
            "duration": 0.16666675000001874,
            "durationTicks": 120,
            "midi": 70,
            "name": "A#4",
            "ticks": 110280,
            "time": 153.16674325,
            "velocity": 0.7480314960629921
          },
          {
            "duration": 0.16666674999999032,
            "durationTicks": 120,
            "midi": 63,
            "name": "D#4",
            "ticks": 110400,
            "time": 153.33341000000001,
            "velocity": 0.7480314960629921
          },
          {
            "duration": 0.16666674999999032,
            "durationTicks": 120,
            "midi": 75,
            "name": "D#5",
            "ticks": 110520,
            "time": 153.50007675,
            "velocity": 0.7480314960629921
          },
          {
            "duration": 0.16666675000001874,
            "durationTicks": 120,
            "midi": 70,
            "name": "A#4",
            "ticks": 110640,
            "time": 153.6667435,
            "velocity": 0.7480314960629921
          },
          {
            "duration": 0.16666674999999032,
            "durationTicks": 120,
            "midi": 63,
            "name": "D#4",
            "ticks": 110760,
            "time": 153.83341025000001,
            "velocity": 0.7480314960629921
          },
          {
            "duration": 0.16666674999999032,
            "durationTicks": 120,
            "midi": 75,
            "name": "D#5",
            "ticks": 110880,
            "time": 154.000077,
            "velocity": 0.7480314960629921
          },
          {
            "duration": 0.16666675000001874,
            "durationTicks": 120,
            "midi": 70,
            "name": "A#4",
            "ticks": 111000,
            "time": 154.16674375,
            "velocity": 0.7480314960629921
          },
          {
            "duration": 0.16666674999999032,
            "durationTicks": 120,
            "midi": 63,
            "name": "D#4",
            "ticks": 111120,
            "time": 154.3334105,
            "velocity": 0.7480314960629921
          },
          {
            "duration": 0.16666674999999032,
            "durationTicks": 120,
            "midi": 75,
            "name": "D#5",
            "ticks": 111240,
            "time": 154.50007725,
            "velocity": 0.7480314960629921
          },
          {
            "duration": 0.16666675000001874,
            "durationTicks": 120,
            "midi": 70,
            "name": "A#4",
            "ticks": 111360,
            "time": 154.666744,
            "velocity": 0.7480314960629921
          },
          {
            "duration": 0.16666674999999032,
            "durationTicks": 120,
            "midi": 63,
            "name": "D#4",
            "ticks": 111480,
            "time": 154.83341075,
            "velocity": 0.7480314960629921
          },
          {
            "duration": 0.16666674999999032,
            "durationTicks": 120,
            "midi": 75,
            "name": "D#5",
            "ticks": 111600,
            "time": 155.0000775,
            "velocity": 0.7480314960629921
          },
          {
            "duration": 0.16666675000001874,
            "durationTicks": 120,
            "midi": 70,
            "name": "A#4",
            "ticks": 111720,
            "time": 155.16674425,
            "velocity": 0.7480314960629921
          },
          {
            "duration": 0.16666674999999032,
            "durationTicks": 120,
            "midi": 63,
            "name": "D#4",
            "ticks": 111840,
            "time": 155.333411,
            "velocity": 0.7480314960629921
          },
          {
            "duration": 0.16666674999999032,
            "durationTicks": 120,
            "midi": 75,
            "name": "D#5",
            "ticks": 111960,
            "time": 155.50007775,
            "velocity": 0.7480314960629921
          },
          {
            "duration": 0.16666675000001874,
            "durationTicks": 120,
            "midi": 70,
            "name": "A#4",
            "ticks": 112080,
            "time": 155.6667445,
            "velocity": 0.7480314960629921
          },
          {
            "duration": 0.16666674999999032,
            "durationTicks": 120,
            "midi": 63,
            "name": "D#4",
            "ticks": 112200,
            "time": 155.83341125,
            "velocity": 0.7480314960629921
          },
          {
            "duration": 0.16666674999999032,
            "durationTicks": 120,
            "midi": 74,
            "name": "D5",
            "ticks": 112320,
            "time": 156.000078,
            "velocity": 0.7480314960629921
          },
          {
            "duration": 0.16666675000001874,
            "durationTicks": 120,
            "midi": 70,
            "name": "A#4",
            "ticks": 112440,
            "time": 156.16674475,
            "velocity": 0.7480314960629921
          },
          {
            "duration": 0.16666674999999032,
            "durationTicks": 120,
            "midi": 63,
            "name": "D#4",
            "ticks": 112560,
            "time": 156.3334115,
            "velocity": 0.7480314960629921
          },
          {
            "duration": 0.16666674999999032,
            "durationTicks": 120,
            "midi": 74,
            "name": "D5",
            "ticks": 112680,
            "time": 156.50007825,
            "velocity": 0.7480314960629921
          },
          {
            "duration": 0.16666675000001874,
            "durationTicks": 120,
            "midi": 70,
            "name": "A#4",
            "ticks": 112800,
            "time": 156.666745,
            "velocity": 0.7480314960629921
          },
          {
            "duration": 0.16666674999999032,
            "durationTicks": 120,
            "midi": 63,
            "name": "D#4",
            "ticks": 112920,
            "time": 156.83341175,
            "velocity": 0.7480314960629921
          },
          {
            "duration": 0.16666674999999032,
            "durationTicks": 120,
            "midi": 75,
            "name": "D#5",
            "ticks": 113040,
            "time": 157.0000785,
            "velocity": 0.7480314960629921
          },
          {
            "duration": 0.16666675000001874,
            "durationTicks": 120,
            "midi": 70,
            "name": "A#4",
            "ticks": 113160,
            "time": 157.16674525,
            "velocity": 0.7480314960629921
          },
          {
            "duration": 0.16666674999999032,
            "durationTicks": 120,
            "midi": 63,
            "name": "D#4",
            "ticks": 113280,
            "time": 157.333412,
            "velocity": 0.7480314960629921
          },
          {
            "duration": 0.16666674999999032,
            "durationTicks": 120,
            "midi": 75,
            "name": "D#5",
            "ticks": 113400,
            "time": 157.50007875,
            "velocity": 0.7480314960629921
          },
          {
            "duration": 0.16666675000001874,
            "durationTicks": 120,
            "midi": 70,
            "name": "A#4",
            "ticks": 113520,
            "time": 157.6667455,
            "velocity": 0.7480314960629921
          },
          {
            "duration": 0.16666674999999032,
            "durationTicks": 120,
            "midi": 63,
            "name": "D#4",
            "ticks": 113640,
            "time": 157.83341225,
            "velocity": 0.7480314960629921
          },
          {
            "duration": 0.16666674999999032,
            "durationTicks": 120,
            "midi": 75,
            "name": "D#5",
            "ticks": 113760,
            "time": 158.000079,
            "velocity": 0.7480314960629921
          },
          {
            "duration": 0.16666675000001874,
            "durationTicks": 120,
            "midi": 70,
            "name": "A#4",
            "ticks": 113880,
            "time": 158.16674575,
            "velocity": 0.7480314960629921
          },
          {
            "duration": 0.16666674999999032,
            "durationTicks": 120,
            "midi": 63,
            "name": "D#4",
            "ticks": 114000,
            "time": 158.3334125,
            "velocity": 0.7480314960629921
          },
          {
            "duration": 0.16666674999999032,
            "durationTicks": 120,
            "midi": 75,
            "name": "D#5",
            "ticks": 114120,
            "time": 158.50007925,
            "velocity": 0.7480314960629921
          },
          {
            "duration": 0.16666675000001874,
            "durationTicks": 120,
            "midi": 70,
            "name": "A#4",
            "ticks": 114240,
            "time": 158.666746,
            "velocity": 0.7480314960629921
          },
          {
            "duration": 0.16666674999999032,
            "durationTicks": 120,
            "midi": 63,
            "name": "D#4",
            "ticks": 114360,
            "time": 158.83341275,
            "velocity": 0.7480314960629921
          },
          {
            "duration": 0.16666674999999032,
            "durationTicks": 120,
            "midi": 75,
            "name": "D#5",
            "ticks": 114480,
            "time": 159.0000795,
            "velocity": 0.7480314960629921
          },
          {
            "duration": 0.16666675000001874,
            "durationTicks": 120,
            "midi": 70,
            "name": "A#4",
            "ticks": 114600,
            "time": 159.16674625,
            "velocity": 0.7480314960629921
          },
          {
            "duration": 0.16666674999999032,
            "durationTicks": 120,
            "midi": 63,
            "name": "D#4",
            "ticks": 114720,
            "time": 159.333413,
            "velocity": 0.7480314960629921
          },
          {
            "duration": 0.16666675000001874,
            "durationTicks": 120,
            "midi": 75,
            "name": "D#5",
            "ticks": 114840,
            "time": 159.50007975,
            "velocity": 0.7480314960629921
          },
          {
            "duration": 0.16666674999999032,
            "durationTicks": 120,
            "midi": 70,
            "name": "A#4",
            "ticks": 114960,
            "time": 159.66674650000002,
            "velocity": 0.7480314960629921
          },
          {
            "duration": 0.16666674999999032,
            "durationTicks": 120,
            "midi": 63,
            "name": "D#4",
            "ticks": 115080,
            "time": 159.83341325,
            "velocity": 0.7480314960629921
          },
          {
            "duration": 0.16666675000001874,
            "durationTicks": 120,
            "midi": 75,
            "name": "D#5",
            "ticks": 115200,
            "time": 160.00008,
            "velocity": 0.7480314960629921
          },
          {
            "duration": 0.16666674999999032,
            "durationTicks": 120,
            "midi": 70,
            "name": "A#4",
            "ticks": 115320,
            "time": 160.16674675000002,
            "velocity": 0.7480314960629921
          },
          {
            "duration": 0.16666674999999032,
            "durationTicks": 120,
            "midi": 63,
            "name": "D#4",
            "ticks": 115440,
            "time": 160.3334135,
            "velocity": 0.7480314960629921
          },
          {
            "duration": 0.16666675000001874,
            "durationTicks": 120,
            "midi": 75,
            "name": "D#5",
            "ticks": 115560,
            "time": 160.50008025,
            "velocity": 0.7480314960629921
          },
          {
            "duration": 0.16666674999999032,
            "durationTicks": 120,
            "midi": 70,
            "name": "A#4",
            "ticks": 115680,
            "time": 160.66674700000002,
            "velocity": 0.7480314960629921
          },
          {
            "duration": 0.16666674999999032,
            "durationTicks": 120,
            "midi": 63,
            "name": "D#4",
            "ticks": 115800,
            "time": 160.83341375,
            "velocity": 0.7480314960629921
          },
          {
            "duration": 0.16666675000001874,
            "durationTicks": 120,
            "midi": 75,
            "name": "D#5",
            "ticks": 115920,
            "time": 161.0000805,
            "velocity": 0.7480314960629921
          },
          {
            "duration": 0.16666674999999032,
            "durationTicks": 120,
            "midi": 70,
            "name": "A#4",
            "ticks": 116040,
            "time": 161.16674725000001,
            "velocity": 0.7480314960629921
          },
          {
            "duration": 0.16666674999999032,
            "durationTicks": 120,
            "midi": 63,
            "name": "D#4",
            "ticks": 116160,
            "time": 161.333414,
            "velocity": 0.7480314960629921
          },
          {
            "duration": 0.16666675000001874,
            "durationTicks": 120,
            "midi": 75,
            "name": "D#5",
            "ticks": 116280,
            "time": 161.50008075,
            "velocity": 0.7480314960629921
          },
          {
            "duration": 0.16666674999999032,
            "durationTicks": 120,
            "midi": 70,
            "name": "A#4",
            "ticks": 116400,
            "time": 161.6667475,
            "velocity": 0.7480314960629921
          },
          {
            "duration": 0.16666674999999032,
            "durationTicks": 120,
            "midi": 63,
            "name": "D#4",
            "ticks": 116520,
            "time": 161.83341425,
            "velocity": 0.7480314960629921
          },
          {
            "duration": 0.16666675000001874,
            "durationTicks": 120,
            "midi": 75,
            "name": "D#5",
            "ticks": 116640,
            "time": 162.000081,
            "velocity": 0.7480314960629921
          },
          {
            "duration": 0.16666674999999032,
            "durationTicks": 120,
            "midi": 70,
            "name": "A#4",
            "ticks": 116760,
            "time": 162.16674775,
            "velocity": 0.7480314960629921
          },
          {
            "duration": 0.16666674999999032,
            "durationTicks": 120,
            "midi": 63,
            "name": "D#4",
            "ticks": 116880,
            "time": 162.3334145,
            "velocity": 0.7480314960629921
          },
          {
            "duration": 0.16666675000001874,
            "durationTicks": 120,
            "midi": 75,
            "name": "D#5",
            "ticks": 117000,
            "time": 162.50008125,
            "velocity": 0.7480314960629921
          },
          {
            "duration": 0.16666674999999032,
            "durationTicks": 120,
            "midi": 70,
            "name": "A#4",
            "ticks": 117120,
            "time": 162.666748,
            "velocity": 0.7480314960629921
          },
          {
            "duration": 0.16666674999999032,
            "durationTicks": 120,
            "midi": 63,
            "name": "D#4",
            "ticks": 117240,
            "time": 162.83341475,
            "velocity": 0.7480314960629921
          },
          {
            "duration": 0.16666675000001874,
            "durationTicks": 120,
            "midi": 75,
            "name": "D#5",
            "ticks": 117360,
            "time": 163.0000815,
            "velocity": 0.7480314960629921
          },
          {
            "duration": 0.16666674999999032,
            "durationTicks": 120,
            "midi": 70,
            "name": "A#4",
            "ticks": 117480,
            "time": 163.16674825,
            "velocity": 0.7480314960629921
          },
          {
            "duration": 0.16666674999999032,
            "durationTicks": 120,
            "midi": 63,
            "name": "D#4",
            "ticks": 117600,
            "time": 163.333415,
            "velocity": 0.7480314960629921
          },
          {
            "duration": 0.16666675000001874,
            "durationTicks": 120,
            "midi": 75,
            "name": "D#5",
            "ticks": 117720,
            "time": 163.50008175,
            "velocity": 0.7480314960629921
          },
          {
            "duration": 0.16666674999999032,
            "durationTicks": 120,
            "midi": 70,
            "name": "A#4",
            "ticks": 117840,
            "time": 163.6667485,
            "velocity": 0.7480314960629921
          },
          {
            "duration": 0.16666674999999032,
            "durationTicks": 120,
            "midi": 63,
            "name": "D#4",
            "ticks": 117960,
            "time": 163.83341525,
            "velocity": 0.7480314960629921
          },
          {
            "duration": 0.16666675000001874,
            "durationTicks": 120,
            "midi": 75,
            "name": "D#5",
            "ticks": 118080,
            "time": 164.000082,
            "velocity": 0.7480314960629921
          },
          {
            "duration": 0.16666674999999032,
            "durationTicks": 120,
            "midi": 70,
            "name": "A#4",
            "ticks": 118200,
            "time": 164.16674875,
            "velocity": 0.7480314960629921
          },
          {
            "duration": 0.16666674999999032,
            "durationTicks": 120,
            "midi": 63,
            "name": "D#4",
            "ticks": 118320,
            "time": 164.3334155,
            "velocity": 0.7480314960629921
          },
          {
            "duration": 0.16666675000001874,
            "durationTicks": 120,
            "midi": 75,
            "name": "D#5",
            "ticks": 118440,
            "time": 164.50008225,
            "velocity": 0.7480314960629921
          },
          {
            "duration": 0.16666674999999032,
            "durationTicks": 120,
            "midi": 70,
            "name": "A#4",
            "ticks": 118560,
            "time": 164.666749,
            "velocity": 0.7480314960629921
          },
          {
            "duration": 0.16666674999999032,
            "durationTicks": 120,
            "midi": 63,
            "name": "D#4",
            "ticks": 118680,
            "time": 164.83341575,
            "velocity": 0.7480314960629921
          },
          {
            "duration": 0.16666675000001874,
            "durationTicks": 120,
            "midi": 75,
            "name": "D#5",
            "ticks": 118800,
            "time": 165.0000825,
            "velocity": 0.7480314960629921
          },
          {
            "duration": 0.16666674999999032,
            "durationTicks": 120,
            "midi": 70,
            "name": "A#4",
            "ticks": 118920,
            "time": 165.16674925,
            "velocity": 0.7480314960629921
          },
          {
            "duration": 0.16666674999999032,
            "durationTicks": 120,
            "midi": 70,
            "name": "A#4",
            "ticks": 119040,
            "time": 165.333416,
            "velocity": 0.7480314960629921
          },
          {
            "duration": 0.16666675000001874,
            "durationTicks": 120,
            "midi": 63,
            "name": "D#4",
            "ticks": 119160,
            "time": 165.50008275,
            "velocity": 0.7480314960629921
          },
          {
            "duration": 0.16666674999999032,
            "durationTicks": 120,
            "midi": 75,
            "name": "D#5",
            "ticks": 119280,
            "time": 165.6667495,
            "velocity": 0.7480314960629921
          },
          {
            "duration": 0.16666674999999032,
            "durationTicks": 120,
            "midi": 70,
            "name": "A#4",
            "ticks": 119400,
            "time": 165.83341625,
            "velocity": 0.7480314960629921
          },
          {
            "duration": 0.16666675000001874,
            "durationTicks": 120,
            "midi": 63,
            "name": "D#4",
            "ticks": 119520,
            "time": 166.000083,
            "velocity": 0.7480314960629921
          },
          {
            "duration": 0.16666674999999032,
            "durationTicks": 120,
            "midi": 75,
            "name": "D#5",
            "ticks": 119640,
            "time": 166.16674975,
            "velocity": 0.7480314960629921
          },
          {
            "duration": 0.16666674999999032,
            "durationTicks": 120,
            "midi": 70,
            "name": "A#4",
            "ticks": 119760,
            "time": 166.3334165,
            "velocity": 0.7480314960629921
          },
          {
            "duration": 0.16666675000001874,
            "durationTicks": 120,
            "midi": 63,
            "name": "D#4",
            "ticks": 119880,
            "time": 166.50008325,
            "velocity": 0.7480314960629921
          },
          {
            "duration": 0.16666674999999032,
            "durationTicks": 120,
            "midi": 74,
            "name": "D5",
            "ticks": 120000,
            "time": 166.66675,
            "velocity": 0.7480314960629921
          },
          {
            "duration": 0.16666675000001874,
            "durationTicks": 120,
            "midi": 70,
            "name": "A#4",
            "ticks": 120120,
            "time": 166.83341675,
            "velocity": 0.7480314960629921
          },
          {
            "duration": 0.16666674999999032,
            "durationTicks": 120,
            "midi": 63,
            "name": "D#4",
            "ticks": 120240,
            "time": 167.00008350000002,
            "velocity": 0.7480314960629921
          },
          {
            "duration": 0.16666674999999032,
            "durationTicks": 120,
            "midi": 74,
            "name": "D5",
            "ticks": 120360,
            "time": 167.16675025,
            "velocity": 0.7480314960629921
          },
          {
            "duration": 0.16666675000001874,
            "durationTicks": 120,
            "midi": 70,
            "name": "A#4",
            "ticks": 120480,
            "time": 167.333417,
            "velocity": 0.7480314960629921
          },
          {
            "duration": 0.16666674999999032,
            "durationTicks": 120,
            "midi": 63,
            "name": "D#4",
            "ticks": 120600,
            "time": 167.50008375000002,
            "velocity": 0.7480314960629921
          },
          {
            "duration": 0.16666674999999032,
            "durationTicks": 120,
            "midi": 75,
            "name": "D#5",
            "ticks": 120720,
            "time": 167.6667505,
            "velocity": 0.7480314960629921
          },
          {
            "duration": 0.16666675000001874,
            "durationTicks": 120,
            "midi": 70,
            "name": "A#4",
            "ticks": 120840,
            "time": 167.83341725,
            "velocity": 0.7480314960629921
          },
          {
            "duration": 0.16666674999999032,
            "durationTicks": 120,
            "midi": 63,
            "name": "D#4",
            "ticks": 120960,
            "time": 168.00008400000002,
            "velocity": 0.7480314960629921
          },
          {
            "duration": 0.16666674999999032,
            "durationTicks": 120,
            "midi": 75,
            "name": "D#5",
            "ticks": 121080,
            "time": 168.16675075,
            "velocity": 0.7480314960629921
          },
          {
            "duration": 0.16666675000001874,
            "durationTicks": 120,
            "midi": 70,
            "name": "A#4",
            "ticks": 121200,
            "time": 168.3334175,
            "velocity": 0.7480314960629921
          },
          {
            "duration": 0.16666674999999032,
            "durationTicks": 120,
            "midi": 63,
            "name": "D#4",
            "ticks": 121320,
            "time": 168.50008425000001,
            "velocity": 0.7480314960629921
          },
          {
            "duration": 0.16666674999999032,
            "durationTicks": 120,
            "midi": 75,
            "name": "D#5",
            "ticks": 121440,
            "time": 168.666751,
            "velocity": 0.7480314960629921
          },
          {
            "duration": 0.16666675000001874,
            "durationTicks": 120,
            "midi": 70,
            "name": "A#4",
            "ticks": 121560,
            "time": 168.83341775,
            "velocity": 0.7480314960629921
          },
          {
            "duration": 0.16666674999999032,
            "durationTicks": 120,
            "midi": 63,
            "name": "D#4",
            "ticks": 121680,
            "time": 169.0000845,
            "velocity": 0.7480314960629921
          },
          {
            "duration": 0.16666674999999032,
            "durationTicks": 120,
            "midi": 75,
            "name": "D#5",
            "ticks": 121800,
            "time": 169.16675125,
            "velocity": 0.7480314960629921
          },
          {
            "duration": 0.16666675000001874,
            "durationTicks": 120,
            "midi": 70,
            "name": "A#4",
            "ticks": 121920,
            "time": 169.333418,
            "velocity": 0.7480314960629921
          },
          {
            "duration": 0.16666674999999032,
            "durationTicks": 120,
            "midi": 63,
            "name": "D#4",
            "ticks": 122040,
            "time": 169.50008475,
            "velocity": 0.7480314960629921
          },
          {
            "duration": 0.16666674999999032,
            "durationTicks": 120,
            "midi": 75,
            "name": "D#5",
            "ticks": 122160,
            "time": 169.6667515,
            "velocity": 0.7480314960629921
          },
          {
            "duration": 0.16666675000001874,
            "durationTicks": 120,
            "midi": 70,
            "name": "A#4",
            "ticks": 122280,
            "time": 169.83341825,
            "velocity": 0.7480314960629921
          },
          {
            "duration": 0.16666674999999032,
            "durationTicks": 120,
            "midi": 63,
            "name": "D#4",
            "ticks": 122400,
            "time": 170.000085,
            "velocity": 0.7480314960629921
          },
          {
            "duration": 0.16666674999999032,
            "durationTicks": 120,
            "midi": 75,
            "name": "D#5",
            "ticks": 122520,
            "time": 170.16675175,
            "velocity": 0.7480314960629921
          },
          {
            "duration": 0.16666675000001874,
            "durationTicks": 120,
            "midi": 70,
            "name": "A#4",
            "ticks": 122640,
            "time": 170.3334185,
            "velocity": 0.7480314960629921
          },
          {
            "duration": 0.16666674999999032,
            "durationTicks": 120,
            "midi": 63,
            "name": "D#4",
            "ticks": 122760,
            "time": 170.50008525,
            "velocity": 0.7480314960629921
          },
          {
            "duration": 0.16666675000001874,
            "durationTicks": 120,
            "midi": 75,
            "name": "D#5",
            "ticks": 124800,
            "time": 173.33342,
            "velocity": 0.7480314960629921
          },
          {
            "duration": 0.16666674999999032,
            "durationTicks": 120,
            "midi": 70,
            "name": "A#4",
            "ticks": 124920,
            "time": 173.50008675,
            "velocity": 0.7480314960629921
          },
          {
            "duration": 0.16666674999999032,
            "durationTicks": 120,
            "midi": 63,
            "name": "D#4",
            "ticks": 125040,
            "time": 173.6667535,
            "velocity": 0.7480314960629921
          },
          {
            "duration": 0.16666675000001874,
            "durationTicks": 120,
            "midi": 75,
            "name": "D#5",
            "ticks": 125160,
            "time": 173.83342025,
            "velocity": 0.7480314960629921
          },
          {
            "duration": 0.16666674999999032,
            "durationTicks": 120,
            "midi": 70,
            "name": "A#4",
            "ticks": 125280,
            "time": 174.000087,
            "velocity": 0.7480314960629921
          },
          {
            "duration": 0.16666674999999032,
            "durationTicks": 120,
            "midi": 63,
            "name": "D#4",
            "ticks": 125400,
            "time": 174.16675375,
            "velocity": 0.7480314960629921
          },
          {
            "duration": 0.16666675000001874,
            "durationTicks": 120,
            "midi": 75,
            "name": "D#5",
            "ticks": 125520,
            "time": 174.3334205,
            "velocity": 0.7480314960629921
          },
          {
            "duration": 0.16666674999999032,
            "durationTicks": 120,
            "midi": 70,
            "name": "A#4",
            "ticks": 125640,
            "time": 174.50008725,
            "velocity": 0.7480314960629921
          },
          {
            "duration": 0.16666675000001874,
            "durationTicks": 120,
            "midi": 63,
            "name": "D#4",
            "ticks": 125760,
            "time": 174.666754,
            "velocity": 0.7480314960629921
          },
          {
            "duration": 0.16666674999999032,
            "durationTicks": 120,
            "midi": 75,
            "name": "D#5",
            "ticks": 125880,
            "time": 174.83342075000002,
            "velocity": 0.7480314960629921
          },
          {
            "duration": 0.16666674999999032,
            "durationTicks": 120,
            "midi": 70,
            "name": "A#4",
            "ticks": 126000,
            "time": 175.0000875,
            "velocity": 0.7480314960629921
          },
          {
            "duration": 0.16666675000001874,
            "durationTicks": 120,
            "midi": 63,
            "name": "D#4",
            "ticks": 126120,
            "time": 175.16675425,
            "velocity": 0.7480314960629921
          },
          {
            "duration": 0.16666674999999032,
            "durationTicks": 120,
            "midi": 75,
            "name": "D#5",
            "ticks": 126240,
            "time": 175.33342100000002,
            "velocity": 0.7480314960629921
          },
          {
            "duration": 0.16666674999999032,
            "durationTicks": 120,
            "midi": 70,
            "name": "A#4",
            "ticks": 126360,
            "time": 175.50008775,
            "velocity": 0.7480314960629921
          },
          {
            "duration": 0.16666675000001874,
            "durationTicks": 120,
            "midi": 63,
            "name": "D#4",
            "ticks": 126480,
            "time": 175.6667545,
            "velocity": 0.7480314960629921
          },
          {
            "duration": 0.16666674999999032,
            "durationTicks": 120,
            "midi": 75,
            "name": "D#5",
            "ticks": 126600,
            "time": 175.83342125000001,
            "velocity": 0.7480314960629921
          },
          {
            "duration": 0.16666674999999032,
            "durationTicks": 120,
            "midi": 70,
            "name": "A#4",
            "ticks": 126720,
            "time": 176.000088,
            "velocity": 0.7480314960629921
          },
          {
            "duration": 0.16666675000001874,
            "durationTicks": 120,
            "midi": 63,
            "name": "D#4",
            "ticks": 126840,
            "time": 176.16675475,
            "velocity": 0.7480314960629921
          },
          {
            "duration": 0.16666674999999032,
            "durationTicks": 120,
            "midi": 75,
            "name": "D#5",
            "ticks": 126960,
            "time": 176.33342150000001,
            "velocity": 0.7480314960629921
          },
          {
            "duration": 0.16666674999999032,
            "durationTicks": 120,
            "midi": 70,
            "name": "A#4",
            "ticks": 127080,
            "time": 176.50008825,
            "velocity": 0.7480314960629921
          },
          {
            "duration": 0.16666675000001874,
            "durationTicks": 120,
            "midi": 63,
            "name": "D#4",
            "ticks": 127200,
            "time": 176.666755,
            "velocity": 0.7480314960629921
          },
          {
            "duration": 0.16666674999999032,
            "durationTicks": 120,
            "midi": 75,
            "name": "D#5",
            "ticks": 127320,
            "time": 176.83342175,
            "velocity": 0.7480314960629921
          },
          {
            "duration": 0.16666674999999032,
            "durationTicks": 120,
            "midi": 70,
            "name": "A#4",
            "ticks": 127440,
            "time": 177.0000885,
            "velocity": 0.7480314960629921
          },
          {
            "duration": 0.16666675000001874,
            "durationTicks": 120,
            "midi": 63,
            "name": "D#4",
            "ticks": 127560,
            "time": 177.16675525,
            "velocity": 0.7480314960629921
          },
          {
            "duration": 0.16666674999999032,
            "durationTicks": 120,
            "midi": 74,
            "name": "D5",
            "ticks": 127680,
            "time": 177.333422,
            "velocity": 0.7480314960629921
          },
          {
            "duration": 0.16666674999999032,
            "durationTicks": 120,
            "midi": 70,
            "name": "A#4",
            "ticks": 127800,
            "time": 177.50008875,
            "velocity": 0.7480314960629921
          },
          {
            "duration": 0.16666675000001874,
            "durationTicks": 120,
            "midi": 63,
            "name": "D#4",
            "ticks": 127920,
            "time": 177.6667555,
            "velocity": 0.7480314960629921
          },
          {
            "duration": 0.16666674999999032,
            "durationTicks": 120,
            "midi": 74,
            "name": "D5",
            "ticks": 128040,
            "time": 177.83342225,
            "velocity": 0.7480314960629921
          },
          {
            "duration": 0.16666674999999032,
            "durationTicks": 120,
            "midi": 70,
            "name": "A#4",
            "ticks": 128160,
            "time": 178.000089,
            "velocity": 0.7480314960629921
          },
          {
            "duration": 0.16666675000001874,
            "durationTicks": 120,
            "midi": 63,
            "name": "D#4",
            "ticks": 128280,
            "time": 178.16675575,
            "velocity": 0.7480314960629921
          },
          {
            "duration": 0.16666674999999032,
            "durationTicks": 120,
            "midi": 75,
            "name": "D#5",
            "ticks": 128400,
            "time": 178.3334225,
            "velocity": 0.7480314960629921
          },
          {
            "duration": 0.16666674999999032,
            "durationTicks": 120,
            "midi": 70,
            "name": "A#4",
            "ticks": 128520,
            "time": 178.50008925,
            "velocity": 0.7480314960629921
          },
          {
            "duration": 0.16666675000001874,
            "durationTicks": 120,
            "midi": 63,
            "name": "D#4",
            "ticks": 128640,
            "time": 178.666756,
            "velocity": 0.7480314960629921
          },
          {
            "duration": 0.16666674999999032,
            "durationTicks": 120,
            "midi": 75,
            "name": "D#5",
            "ticks": 128760,
            "time": 178.83342275,
            "velocity": 0.7480314960629921
          },
          {
            "duration": 0.16666674999999032,
            "durationTicks": 120,
            "midi": 70,
            "name": "A#4",
            "ticks": 128880,
            "time": 179.0000895,
            "velocity": 0.7480314960629921
          },
          {
            "duration": 0.16666675000001874,
            "durationTicks": 120,
            "midi": 63,
            "name": "D#4",
            "ticks": 129000,
            "time": 179.16675625,
            "velocity": 0.7480314960629921
          },
          {
            "duration": 0.16666674999999032,
            "durationTicks": 120,
            "midi": 75,
            "name": "D#5",
            "ticks": 129120,
            "time": 179.333423,
            "velocity": 0.7480314960629921
          },
          {
            "duration": 0.16666674999999032,
            "durationTicks": 120,
            "midi": 70,
            "name": "A#4",
            "ticks": 129240,
            "time": 179.50008975,
            "velocity": 0.7480314960629921
          },
          {
            "duration": 0.16666675000001874,
            "durationTicks": 120,
            "midi": 63,
            "name": "D#4",
            "ticks": 129360,
            "time": 179.6667565,
            "velocity": 0.7480314960629921
          },
          {
            "duration": 0.16666674999999032,
            "durationTicks": 120,
            "midi": 75,
            "name": "D#5",
            "ticks": 129480,
            "time": 179.83342325,
            "velocity": 0.7480314960629921
          },
          {
            "duration": 0.16666674999999032,
            "durationTicks": 120,
            "midi": 70,
            "name": "A#4",
            "ticks": 129600,
            "time": 180.00009,
            "velocity": 0.7480314960629921
          },
          {
            "duration": 0.16666675000001874,
            "durationTicks": 120,
            "midi": 63,
            "name": "D#4",
            "ticks": 129720,
            "time": 180.16675675,
            "velocity": 0.7480314960629921
          },
          {
            "duration": 0.16666674999999032,
            "durationTicks": 120,
            "midi": 75,
            "name": "D#5",
            "ticks": 129840,
            "time": 180.3334235,
            "velocity": 0.7480314960629921
          },
          {
            "duration": 0.16666674999999032,
            "durationTicks": 120,
            "midi": 70,
            "name": "A#4",
            "ticks": 129960,
            "time": 180.50009025,
            "velocity": 0.7480314960629921
          },
          {
            "duration": 0.16666675000001874,
            "durationTicks": 120,
            "midi": 63,
            "name": "D#4",
            "ticks": 130080,
            "time": 180.666757,
            "velocity": 0.7480314960629921
          },
          {
            "duration": 0.16666674999999032,
            "durationTicks": 120,
            "midi": 75,
            "name": "D#5",
            "ticks": 130200,
            "time": 180.83342375,
            "velocity": 0.7480314960629921
          },
          {
            "duration": 0.16666674999999032,
            "durationTicks": 120,
            "midi": 70,
            "name": "A#4",
            "ticks": 130320,
            "time": 181.0000905,
            "velocity": 0.7480314960629921
          },
          {
            "duration": 0.16666675000001874,
            "durationTicks": 120,
            "midi": 63,
            "name": "D#4",
            "ticks": 130440,
            "time": 181.16675725,
            "velocity": 0.7480314960629921
          },
          {
            "duration": 0.16666674999999032,
            "durationTicks": 120,
            "midi": 75,
            "name": "D#5",
            "ticks": 130560,
            "time": 181.333424,
            "velocity": 0.7480314960629921
          },
          {
            "duration": 0.16666674999999032,
            "durationTicks": 120,
            "midi": 70,
            "name": "A#4",
            "ticks": 130680,
            "time": 181.50009075,
            "velocity": 0.7480314960629921
          },
          {
            "duration": 0.16666675000001874,
            "durationTicks": 120,
            "midi": 63,
            "name": "D#4",
            "ticks": 130800,
            "time": 181.6667575,
            "velocity": 0.7480314960629921
          },
          {
            "duration": 0.16666674999999032,
            "durationTicks": 120,
            "midi": 75,
            "name": "D#5",
            "ticks": 130920,
            "time": 181.83342425,
            "velocity": 0.7480314960629921
          },
          {
            "duration": 0.16666675000001874,
            "durationTicks": 120,
            "midi": 70,
            "name": "A#4",
            "ticks": 131040,
            "time": 182.000091,
            "velocity": 0.7480314960629921
          },
          {
            "duration": 0.16666674999999032,
            "durationTicks": 120,
            "midi": 63,
            "name": "D#4",
            "ticks": 131160,
            "time": 182.16675775000002,
            "velocity": 0.7480314960629921
          },
          {
            "duration": 0.16666674999999032,
            "durationTicks": 120,
            "midi": 75,
            "name": "D#5",
            "ticks": 131280,
            "time": 182.3334245,
            "velocity": 0.7480314960629921
          },
          {
            "duration": 0.16666675000001874,
            "durationTicks": 120,
            "midi": 70,
            "name": "A#4",
            "ticks": 131400,
            "time": 182.50009125,
            "velocity": 0.7480314960629921
          },
          {
            "duration": 0.16666674999999032,
            "durationTicks": 120,
            "midi": 63,
            "name": "D#4",
            "ticks": 131520,
            "time": 182.66675800000002,
            "velocity": 0.7480314960629921
          },
          {
            "duration": 0.16666674999999032,
            "durationTicks": 120,
            "midi": 75,
            "name": "D#5",
            "ticks": 131640,
            "time": 182.83342475,
            "velocity": 0.7480314960629921
          },
          {
            "duration": 0.16666675000001874,
            "durationTicks": 120,
            "midi": 70,
            "name": "A#4",
            "ticks": 131760,
            "time": 183.0000915,
            "velocity": 0.7480314960629921
          },
          {
            "duration": 0.16666674999999032,
            "durationTicks": 120,
            "midi": 63,
            "name": "D#4",
            "ticks": 131880,
            "time": 183.16675825000002,
            "velocity": 0.7480314960629921
          },
          {
            "duration": 0.16666674999999032,
            "durationTicks": 120,
            "midi": 75,
            "name": "D#5",
            "ticks": 132000,
            "time": 183.333425,
            "velocity": 0.7480314960629921
          },
          {
            "duration": 0.16666675000001874,
            "durationTicks": 120,
            "midi": 70,
            "name": "A#4",
            "ticks": 132120,
            "time": 183.50009175,
            "velocity": 0.7480314960629921
          },
          {
            "duration": 0.16666674999999032,
            "durationTicks": 120,
            "midi": 63,
            "name": "D#4",
            "ticks": 132240,
            "time": 183.66675850000001,
            "velocity": 0.7480314960629921
          },
          {
            "duration": 0.16666674999999032,
            "durationTicks": 120,
            "midi": 75,
            "name": "D#5",
            "ticks": 132360,
            "time": 183.83342525,
            "velocity": 0.7480314960629921
          },
          {
            "duration": 0.16666675000001874,
            "durationTicks": 120,
            "midi": 70,
            "name": "A#4",
            "ticks": 132480,
            "time": 184.000092,
            "velocity": 0.7480314960629921
          },
          {
            "duration": 0.16666674999999032,
            "durationTicks": 120,
            "midi": 63,
            "name": "D#4",
            "ticks": 132600,
            "time": 184.16675875,
            "velocity": 0.7480314960629921
          },
          {
            "duration": 0.16666674999999032,
            "durationTicks": 120,
            "midi": 75,
            "name": "D#5",
            "ticks": 132720,
            "time": 184.3334255,
            "velocity": 0.7480314960629921
          },
          {
            "duration": 0.16666675000001874,
            "durationTicks": 120,
            "midi": 70,
            "name": "A#4",
            "ticks": 132840,
            "time": 184.50009225,
            "velocity": 0.7480314960629921
          },
          {
            "duration": 0.16666674999999032,
            "durationTicks": 120,
            "midi": 63,
            "name": "D#4",
            "ticks": 132960,
            "time": 184.666759,
            "velocity": 0.7480314960629921
          },
          {
            "duration": 0.16666674999999032,
            "durationTicks": 120,
            "midi": 75,
            "name": "D#5",
            "ticks": 133080,
            "time": 184.83342575,
            "velocity": 0.7480314960629921
          },
          {
            "duration": 0.16666675000001874,
            "durationTicks": 120,
            "midi": 70,
            "name": "A#4",
            "ticks": 133200,
            "time": 185.0000925,
            "velocity": 0.7480314960629921
          },
          {
            "duration": 0.16666674999999032,
            "durationTicks": 120,
            "midi": 63,
            "name": "D#4",
            "ticks": 133320,
            "time": 185.16675925,
            "velocity": 0.7480314960629921
          },
          {
            "duration": 0.16666674999999032,
            "durationTicks": 120,
            "midi": 75,
            "name": "D#5",
            "ticks": 133440,
            "time": 185.333426,
            "velocity": 0.7480314960629921
          },
          {
            "duration": 0.16666675000001874,
            "durationTicks": 120,
            "midi": 70,
            "name": "A#4",
            "ticks": 133560,
            "time": 185.50009275,
            "velocity": 0.7480314960629921
          },
          {
            "duration": 0.16666674999999032,
            "durationTicks": 120,
            "midi": 63,
            "name": "D#4",
            "ticks": 133680,
            "time": 185.6667595,
            "velocity": 0.7480314960629921
          },
          {
            "duration": 0.16666674999999032,
            "durationTicks": 120,
            "midi": 75,
            "name": "D#5",
            "ticks": 133800,
            "time": 185.83342625,
            "velocity": 0.7480314960629921
          },
          {
            "duration": 0.16666675000001874,
            "durationTicks": 120,
            "midi": 70,
            "name": "A#4",
            "ticks": 133920,
            "time": 186.000093,
            "velocity": 0.7480314960629921
          },
          {
            "duration": 0.16666674999999032,
            "durationTicks": 120,
            "midi": 63,
            "name": "D#4",
            "ticks": 134040,
            "time": 186.16675975,
            "velocity": 0.7480314960629921
          },
          {
            "duration": 0.16666674999999032,
            "durationTicks": 120,
            "midi": 75,
            "name": "D#5",
            "ticks": 134160,
            "time": 186.3334265,
            "velocity": 0.7480314960629921
          },
          {
            "duration": 0.16666675000001874,
            "durationTicks": 120,
            "midi": 70,
            "name": "A#4",
            "ticks": 134280,
            "time": 186.50009325,
            "velocity": 0.7480314960629921
          },
          {
            "duration": 0.16666674999999032,
            "durationTicks": 120,
            "midi": 70,
            "name": "A#4",
            "ticks": 134400,
            "time": 186.66676,
            "velocity": 0.7480314960629921
          },
          {
            "duration": 0.16666674999999032,
            "durationTicks": 120,
            "midi": 63,
            "name": "D#4",
            "ticks": 134520,
            "time": 186.83342675,
            "velocity": 0.7480314960629921
          },
          {
            "duration": 0.16666675000001874,
            "durationTicks": 120,
            "midi": 75,
            "name": "D#5",
            "ticks": 134640,
            "time": 187.0000935,
            "velocity": 0.7480314960629921
          },
          {
            "duration": 0.16666674999999032,
            "durationTicks": 120,
            "midi": 70,
            "name": "A#4",
            "ticks": 134760,
            "time": 187.16676025,
            "velocity": 0.7480314960629921
          },
          {
            "duration": 0.16666674999999032,
            "durationTicks": 120,
            "midi": 63,
            "name": "D#4",
            "ticks": 134880,
            "time": 187.333427,
            "velocity": 0.7480314960629921
          },
          {
            "duration": 0.16666675000001874,
            "durationTicks": 120,
            "midi": 75,
            "name": "D#5",
            "ticks": 135000,
            "time": 187.50009375,
            "velocity": 0.7480314960629921
          },
          {
            "duration": 0.16666674999999032,
            "durationTicks": 120,
            "midi": 70,
            "name": "A#4",
            "ticks": 135120,
            "time": 187.6667605,
            "velocity": 0.7480314960629921
          },
          {
            "duration": 0.16666674999999032,
            "durationTicks": 120,
            "midi": 63,
            "name": "D#4",
            "ticks": 135240,
            "time": 187.83342725,
            "velocity": 0.7480314960629921
          },
          {
            "duration": 0.16666675000001874,
            "durationTicks": 120,
            "midi": 74,
            "name": "D5",
            "ticks": 135360,
            "time": 188.000094,
            "velocity": 0.7480314960629921
          },
          {
            "duration": 0.16666674999999032,
            "durationTicks": 120,
            "midi": 70,
            "name": "A#4",
            "ticks": 135480,
            "time": 188.16676075,
            "velocity": 0.7480314960629921
          },
          {
            "duration": 0.16666674999999032,
            "durationTicks": 120,
            "midi": 63,
            "name": "D#4",
            "ticks": 135600,
            "time": 188.3334275,
            "velocity": 0.7480314960629921
          },
          {
            "duration": 0.16666675000001874,
            "durationTicks": 120,
            "midi": 74,
            "name": "D5",
            "ticks": 135720,
            "time": 188.50009425,
            "velocity": 0.7480314960629921
          },
          {
            "duration": 0.16666674999999032,
            "durationTicks": 120,
            "midi": 70,
            "name": "A#4",
            "ticks": 135840,
            "time": 188.666761,
            "velocity": 0.7480314960629921
          },
          {
            "duration": 0.16666674999999032,
            "durationTicks": 120,
            "midi": 63,
            "name": "D#4",
            "ticks": 135960,
            "time": 188.83342775,
            "velocity": 0.7480314960629921
          },
          {
            "duration": 0.16666675000001874,
            "durationTicks": 120,
            "midi": 75,
            "name": "D#5",
            "ticks": 136080,
            "time": 189.0000945,
            "velocity": 0.7480314960629921
          },
          {
            "duration": 0.16666674999999032,
            "durationTicks": 120,
            "midi": 70,
            "name": "A#4",
            "ticks": 136200,
            "time": 189.16676125,
            "velocity": 0.7480314960629921
          },
          {
            "duration": 0.16666675000001874,
            "durationTicks": 120,
            "midi": 63,
            "name": "D#4",
            "ticks": 136320,
            "time": 189.333428,
            "velocity": 0.7480314960629921
          },
          {
            "duration": 0.16666674999999032,
            "durationTicks": 120,
            "midi": 75,
            "name": "D#5",
            "ticks": 136440,
            "time": 189.50009475000002,
            "velocity": 0.7480314960629921
          },
          {
            "duration": 0.16666674999999032,
            "durationTicks": 120,
            "midi": 70,
            "name": "A#4",
            "ticks": 136560,
            "time": 189.6667615,
            "velocity": 0.7480314960629921
          },
          {
            "duration": 0.16666675000001874,
            "durationTicks": 120,
            "midi": 63,
            "name": "D#4",
            "ticks": 136680,
            "time": 189.83342825,
            "velocity": 0.7480314960629921
          },
          {
            "duration": 0.16666674999999032,
            "durationTicks": 120,
            "midi": 75,
            "name": "D#5",
            "ticks": 136800,
            "time": 190.00009500000002,
            "velocity": 0.7480314960629921
          },
          {
            "duration": 0.16666674999999032,
            "durationTicks": 120,
            "midi": 70,
            "name": "A#4",
            "ticks": 136920,
            "time": 190.16676175,
            "velocity": 0.7480314960629921
          },
          {
            "duration": 0.16666675000001874,
            "durationTicks": 120,
            "midi": 63,
            "name": "D#4",
            "ticks": 137040,
            "time": 190.3334285,
            "velocity": 0.7480314960629921
          },
          {
            "duration": 0.16666674999999032,
            "durationTicks": 120,
            "midi": 75,
            "name": "D#5",
            "ticks": 137160,
            "time": 190.50009525000002,
            "velocity": 0.7480314960629921
          },
          {
            "duration": 0.16666674999999032,
            "durationTicks": 120,
            "midi": 70,
            "name": "A#4",
            "ticks": 137280,
            "time": 190.666762,
            "velocity": 0.7480314960629921
          },
          {
            "duration": 0.16666675000001874,
            "durationTicks": 120,
            "midi": 63,
            "name": "D#4",
            "ticks": 137400,
            "time": 190.83342875,
            "velocity": 0.7480314960629921
          },
          {
            "duration": 0.16666674999999032,
            "durationTicks": 120,
            "midi": 75,
            "name": "D#5",
            "ticks": 137520,
            "time": 191.00009550000001,
            "velocity": 0.7480314960629921
          },
          {
            "duration": 0.16666674999999032,
            "durationTicks": 120,
            "midi": 70,
            "name": "A#4",
            "ticks": 137640,
            "time": 191.16676225,
            "velocity": 0.7480314960629921
          },
          {
            "duration": 0.16666675000001874,
            "durationTicks": 120,
            "midi": 63,
            "name": "D#4",
            "ticks": 137760,
            "time": 191.333429,
            "velocity": 0.7480314960629921
          },
          {
            "duration": 0.16666674999999032,
            "durationTicks": 120,
            "midi": 75,
            "name": "D#5",
            "ticks": 137880,
            "time": 191.50009575,
            "velocity": 0.7480314960629921
          },
          {
            "duration": 0.16666674999999032,
            "durationTicks": 120,
            "midi": 70,
            "name": "A#4",
            "ticks": 138000,
            "time": 191.6667625,
            "velocity": 0.7480314960629921
          },
          {
            "duration": 0.16666675000001874,
            "durationTicks": 120,
            "midi": 63,
            "name": "D#4",
            "ticks": 138120,
            "time": 191.83342925,
            "velocity": 0.7480314960629921
          },
          {
            "duration": 0.16666674999999032,
            "durationTicks": 120,
            "midi": 75,
            "name": "D#5",
            "ticks": 138240,
            "time": 192.000096,
            "velocity": 0.7480314960629921
          },
          {
            "duration": 0.16666674999999032,
            "durationTicks": 120,
            "midi": 70,
            "name": "A#4",
            "ticks": 138360,
            "time": 192.16676275,
            "velocity": 0.7480314960629921
          },
          {
            "duration": 0.16666675000001874,
            "durationTicks": 120,
            "midi": 63,
            "name": "D#4",
            "ticks": 138480,
            "time": 192.3334295,
            "velocity": 0.7480314960629921
          },
          {
            "duration": 0.16666674999999032,
            "durationTicks": 120,
            "midi": 75,
            "name": "D#5",
            "ticks": 138600,
            "time": 192.50009625,
            "velocity": 0.7480314960629921
          },
          {
            "duration": 0.16666674999999032,
            "durationTicks": 120,
            "midi": 70,
            "name": "A#4",
            "ticks": 138720,
            "time": 192.666763,
            "velocity": 0.7480314960629921
          },
          {
            "duration": 0.16666675000001874,
            "durationTicks": 120,
            "midi": 63,
            "name": "D#4",
            "ticks": 138840,
            "time": 192.83342975,
            "velocity": 0.7480314960629921
          },
          {
            "duration": 0.16666674999999032,
            "durationTicks": 120,
            "midi": 74,
            "name": "D5",
            "ticks": 138960,
            "time": 193.0000965,
            "velocity": 0.7480314960629921
          },
          {
            "duration": 0.16666674999999032,
            "durationTicks": 120,
            "midi": 70,
            "name": "A#4",
            "ticks": 139080,
            "time": 193.16676325,
            "velocity": 0.7480314960629921
          },
          {
            "duration": 0.16666675000001874,
            "durationTicks": 120,
            "midi": 63,
            "name": "D#4",
            "ticks": 139200,
            "time": 193.33343,
            "velocity": 0.7480314960629921
          },
          {
            "duration": 0.16666674999999032,
            "durationTicks": 120,
            "midi": 74,
            "name": "D5",
            "ticks": 139320,
            "time": 193.50009675,
            "velocity": 0.7480314960629921
          },
          {
            "duration": 0.16666674999999032,
            "durationTicks": 120,
            "midi": 70,
            "name": "A#4",
            "ticks": 139440,
            "time": 193.6667635,
            "velocity": 0.7480314960629921
          },
          {
            "duration": 0.16666675000001874,
            "durationTicks": 120,
            "midi": 63,
            "name": "D#4",
            "ticks": 139560,
            "time": 193.83343025,
            "velocity": 0.7480314960629921
          },
          {
            "duration": 1.3333340000000078,
            "durationTicks": 960,
            "midi": 63,
            "name": "D#4",
            "ticks": 140160,
            "time": 194.666764,
            "velocity": 0.7480314960629921
          },
          {
            "duration": 1.3333340000000078,
            "durationTicks": 960,
            "midi": 56,
            "name": "G#3",
            "ticks": 140160,
            "time": 194.666764,
            "velocity": 0.7480314960629921
          },
          {
            "duration": 1.3333340000000078,
            "durationTicks": 960,
            "midi": 44,
            "name": "G#2",
            "ticks": 140160,
            "time": 194.666764,
            "velocity": 0.7480314960629921
          },
          {
            "duration": 1.3333340000000078,
            "durationTicks": 960,
            "midi": 63,
            "name": "D#4",
            "ticks": 141120,
            "time": 196.000098,
            "velocity": 0.7480314960629921
          },
          {
            "duration": 1.3333340000000078,
            "durationTicks": 960,
            "midi": 55,
            "name": "G3",
            "ticks": 141120,
            "time": 196.000098,
            "velocity": 0.7480314960629921
          },
          {
            "duration": 1.3333340000000078,
            "durationTicks": 960,
            "midi": 43,
            "name": "G2",
            "ticks": 141120,
            "time": 196.000098,
            "velocity": 0.7480314960629921
          },
          {
            "duration": 2.666667999999987,
            "durationTicks": 1920,
            "midi": 63,
            "name": "D#4",
            "ticks": 142080,
            "time": 197.33343200000002,
            "velocity": 0.7480314960629921
          },
          {
            "duration": 2.666667999999987,
            "durationTicks": 1920,
            "midi": 58,
            "name": "A#3",
            "ticks": 142080,
            "time": 197.33343200000002,
            "velocity": 0.7480314960629921
          },
          {
            "duration": 2.666667999999987,
            "durationTicks": 1920,
            "midi": 46,
            "name": "A#2",
            "ticks": 142080,
            "time": 197.33343200000002,
            "velocity": 0.7480314960629921
          },
          {
            "duration": 1.3333340000000078,
            "durationTicks": 960,
            "midi": 63,
            "name": "D#4",
            "ticks": 144000,
            "time": 200.0001,
            "velocity": 0.7480314960629921
          },
          {
            "duration": 1.3333340000000078,
            "durationTicks": 960,
            "midi": 56,
            "name": "G#3",
            "ticks": 144000,
            "time": 200.0001,
            "velocity": 0.7480314960629921
          },
          {
            "duration": 1.3333340000000078,
            "durationTicks": 960,
            "midi": 44,
            "name": "G#2",
            "ticks": 144000,
            "time": 200.0001,
            "velocity": 0.7480314960629921
          },
          {
            "duration": 1.3333339999999794,
            "durationTicks": 960,
            "midi": 63,
            "name": "D#4",
            "ticks": 144960,
            "time": 201.333434,
            "velocity": 0.7480314960629921
          },
          {
            "duration": 1.3333339999999794,
            "durationTicks": 960,
            "midi": 55,
            "name": "G3",
            "ticks": 144960,
            "time": 201.333434,
            "velocity": 0.7480314960629921
          },
          {
            "duration": 1.3333339999999794,
            "durationTicks": 960,
            "midi": 43,
            "name": "G2",
            "ticks": 144960,
            "time": 201.333434,
            "velocity": 0.7480314960629921
          },
          {
            "duration": 1.3333340000000078,
            "durationTicks": 960,
            "midi": 62,
            "name": "D4",
            "ticks": 145920,
            "time": 202.666768,
            "velocity": 0.7480314960629921
          },
          {
            "duration": 1.3333340000000078,
            "durationTicks": 960,
            "midi": 58,
            "name": "A#3",
            "ticks": 145920,
            "time": 202.666768,
            "velocity": 0.7480314960629921
          },
          {
            "duration": 1.3333340000000078,
            "durationTicks": 960,
            "midi": 46,
            "name": "A#2",
            "ticks": 145920,
            "time": 202.666768,
            "velocity": 0.7480314960629921
          },
          {
            "duration": 1.3333340000000078,
            "durationTicks": 960,
            "midi": 63,
            "name": "D#4",
            "ticks": 146880,
            "time": 204.000102,
            "velocity": 0.7480314960629921
          },
          {
            "duration": 1.3333340000000078,
            "durationTicks": 960,
            "midi": 56,
            "name": "G#3",
            "ticks": 146880,
            "time": 204.000102,
            "velocity": 0.7480314960629921
          },
          {
            "duration": 1.3333340000000078,
            "durationTicks": 960,
            "midi": 44,
            "name": "G#2",
            "ticks": 146880,
            "time": 204.000102,
            "velocity": 0.7480314960629921
          },
          {
            "duration": 1.3333340000000078,
            "durationTicks": 960,
            "midi": 63,
            "name": "D#4",
            "ticks": 147840,
            "time": 205.333436,
            "velocity": 0.7480314960629921
          },
          {
            "duration": 1.3333340000000078,
            "durationTicks": 960,
            "midi": 56,
            "name": "G#3",
            "ticks": 147840,
            "time": 205.333436,
            "velocity": 0.7480314960629921
          },
          {
            "duration": 1.3333340000000078,
            "durationTicks": 960,
            "midi": 44,
            "name": "G#2",
            "ticks": 147840,
            "time": 205.333436,
            "velocity": 0.7480314960629921
          },
          {
            "duration": 1.3333339999999794,
            "durationTicks": 960,
            "midi": 67,
            "name": "G4",
            "ticks": 148800,
            "time": 206.66677,
            "velocity": 0.7480314960629921
          },
          {
            "duration": 1.3333339999999794,
            "durationTicks": 960,
            "midi": 63,
            "name": "D#4",
            "ticks": 148800,
            "time": 206.66677,
            "velocity": 0.7480314960629921
          },
          {
            "duration": 1.3333339999999794,
            "durationTicks": 960,
            "midi": 55,
            "name": "G3",
            "ticks": 148800,
            "time": 206.66677,
            "velocity": 0.7480314960629921
          },
          {
            "duration": 0.6666670000000181,
            "durationTicks": 480,
            "midi": 63,
            "name": "D#4",
            "ticks": 149760,
            "time": 208.000104,
            "velocity": 0.7480314960629921
          },
          {
            "duration": 0.6666670000000181,
            "durationTicks": 480,
            "midi": 56,
            "name": "G#3",
            "ticks": 149760,
            "time": 208.000104,
            "velocity": 0.7480314960629921
          },
          {
            "duration": 0.6666670000000181,
            "durationTicks": 480,
            "midi": 44,
            "name": "G#2",
            "ticks": 149760,
            "time": 208.000104,
            "velocity": 0.7480314960629921
          },
          {
            "duration": 0.6666669999999897,
            "durationTicks": 480,
            "midi": 65,
            "name": "F4",
            "ticks": 150240,
            "time": 208.666771,
            "velocity": 0.7480314960629921
          },
          {
            "duration": 0.6666669999999897,
            "durationTicks": 480,
            "midi": 58,
            "name": "A#3",
            "ticks": 150240,
            "time": 208.666771,
            "velocity": 0.7480314960629921
          },
          {
            "duration": 0.6666669999999897,
            "durationTicks": 480,
            "midi": 46,
            "name": "A#2",
            "ticks": 150240,
            "time": 208.666771,
            "velocity": 0.7480314960629921
          },
          {
            "duration": 1.3333340000000078,
            "durationTicks": 960,
            "midi": 67,
            "name": "G4",
            "ticks": 150720,
            "time": 209.333438,
            "velocity": 0.7480314960629921
          },
          {
            "duration": 1.3333340000000078,
            "durationTicks": 960,
            "midi": 60,
            "name": "C4",
            "ticks": 150720,
            "time": 209.333438,
            "velocity": 0.7480314960629921
          },
          {
            "duration": 1.3333340000000078,
            "durationTicks": 960,
            "midi": 48,
            "name": "C3",
            "ticks": 150720,
            "time": 209.333438,
            "velocity": 0.7480314960629921
          },
          {
            "duration": 1.3333340000000078,
            "durationTicks": 960,
            "midi": 63,
            "name": "D#4",
            "ticks": 151680,
            "time": 210.666772,
            "velocity": 0.7480314960629921
          },
          {
            "duration": 1.3333340000000078,
            "durationTicks": 960,
            "midi": 56,
            "name": "G#3",
            "ticks": 151680,
            "time": 210.666772,
            "velocity": 0.7480314960629921
          },
          {
            "duration": 1.3333340000000078,
            "durationTicks": 960,
            "midi": 44,
            "name": "G#2",
            "ticks": 151680,
            "time": 210.666772,
            "velocity": 0.7480314960629921
          },
          {
            "duration": 1.3333339999999794,
            "durationTicks": 960,
            "midi": 58,
            "name": "A#3",
            "ticks": 152640,
            "time": 212.00010600000002,
            "velocity": 0.7480314960629921
          },
          {
            "duration": 1.3333339999999794,
            "durationTicks": 960,
            "midi": 55,
            "name": "G3",
            "ticks": 152640,
            "time": 212.00010600000002,
            "velocity": 0.7480314960629921
          },
          {
            "duration": 1.3333339999999794,
            "durationTicks": 960,
            "midi": 43,
            "name": "G2",
            "ticks": 152640,
            "time": 212.00010600000002,
            "velocity": 0.7480314960629921
          },
          {
            "duration": 4.800000000000011,
            "durationTicks": 1920,
            "midi": 65,
            "name": "F4",
            "ticks": 153600,
            "time": 213.33344,
            "velocity": 0.7480314960629921
          },
          {
            "duration": 4.800000000000011,
            "durationTicks": 1920,
            "midi": 58,
            "name": "A#3",
            "ticks": 153600,
            "time": 213.33344,
            "velocity": 0.7480314960629921
          },
          {
            "duration": 4.800000000000011,
            "durationTicks": 1920,
            "midi": 53,
            "name": "F3",
            "ticks": 153600,
            "time": 213.33344,
            "velocity": 0.7480314960629921
          },
          {
            "duration": 4.800000000000011,
            "durationTicks": 1920,
            "midi": 46,
            "name": "A#2",
            "ticks": 153600,
            "time": 213.33344,
            "velocity": 0.7480314960629921
          }
        ]
      },
      {
        "channel": 0,
        "controlChanges": {
          "6": [
            {
              "number": 6,
              "ticks": 26,
              "time": 0.036111129166666665,
              "value": 0.09448818897637795
            }
          ],
          "38": [
            {
              "number": 38,
              "ticks": 27,
              "time": 0.03750001875,
              "value": 0
            }
          ],
          "100": [
            {
              "number": 100,
              "ticks": 25,
              "time": 0.034722239583333335,
              "value": 0
            }
          ],
          "101": [
            {
              "number": 101,
              "ticks": 24,
              "time": 0.033333350000000005,
              "value": 0
            }
          ]
        },
        "pitchBends": [],
        "instrument": {
          "family": "piano",
          "number": 0,
          "name": "acoustic grand piano"
        },
        "name": "",
        "notes": []
      },
      {
        "channel": 9,
        "controlChanges": {
          "0": [
            {
              "number": 0,
              "ticks": 48,
              "time": 0.06666670000000001,
              "value": 1
            },
            {
              "number": 0,
              "ticks": 48,
              "time": 0.06666670000000001,
              "value": 1
            },
            {
              "number": 0,
              "ticks": 48,
              "time": 0.06666670000000001,
              "value": 1
            },
            {
              "number": 0,
              "ticks": 48,
              "time": 0.06666670000000001,
              "value": 1
            },
            {
              "number": 0,
              "ticks": 48,
              "time": 0.06666670000000001,
              "value": 1
            },
            {
              "number": 0,
              "ticks": 48,
              "time": 0.06666670000000001,
              "value": 1
            }
          ],
          "6": [
            {
              "number": 6,
              "ticks": 29,
              "time": 0.04027779791666667,
              "value": 0.09448818897637795
            }
          ],
          "7": [
            {
              "number": 7,
              "ticks": 48,
              "time": 0.06666670000000001,
              "value": 1
            }
          ],
          "10": [
            {
              "number": 10,
              "ticks": 48,
              "time": 0.06666670000000001,
              "value": 0.5039370078740157
            }
          ],
          "32": [
            {
              "number": 32,
              "ticks": 48,
              "time": 0.06666670000000001,
              "value": 0
            },
            {
              "number": 32,
              "ticks": 48,
              "time": 0.06666670000000001,
              "value": 0
            },
            {
              "number": 32,
              "ticks": 48,
              "time": 0.06666670000000001,
              "value": 0
            },
            {
              "number": 32,
              "ticks": 48,
              "time": 0.06666670000000001,
              "value": 0
            },
            {
              "number": 32,
              "ticks": 48,
              "time": 0.06666670000000001,
              "value": 0
            },
            {
              "number": 32,
              "ticks": 48,
              "time": 0.06666670000000001,
              "value": 0
            }
          ],
          "38": [
            {
              "number": 38,
              "ticks": 30,
              "time": 0.0416666875,
              "value": 0
            }
          ],
          "91": [
            {
              "number": 91,
              "ticks": 48,
              "time": 0.06666670000000001,
              "value": 0
            }
          ],
          "92": [
            {
              "number": 92,
              "ticks": 48,
              "time": 0.06666670000000001,
              "value": 0
            }
          ],
          "93": [
            {
              "number": 93,
              "ticks": 48,
              "time": 0.06666670000000001,
              "value": 0
            }
          ],
          "95": [
            {
              "number": 95,
              "ticks": 48,
              "time": 0.06666670000000001,
              "value": 0
            }
          ],
          "100": [
            {
              "number": 100,
              "ticks": 28,
              "time": 0.03888890833333333,
              "value": 0
            }
          ],
          "101": [
            {
              "number": 101,
              "ticks": 27,
              "time": 0.03750001875,
              "value": 0
            }
          ]
        },
        "pitchBends": [],
        "instrument": {
          "family": "drums",
          "number": 0,
          "name": "standard kit"
        },
        "name": "",
        "notes": [
          {
            "duration": 0.5000002499999994,
            "durationTicks": 360,
            "midi": 35,
            "name": "B1",
            "ticks": 15360,
            "time": 21.333344,
            "velocity": 0.7480314960629921
          },
          {
            "duration": 0.16666675000000097,
            "durationTicks": 120,
            "midi": 35,
            "name": "B1",
            "ticks": 15720,
            "time": 21.83334425,
            "velocity": 0.7480314960629921
          },
          {
            "duration": 0.5000002499999994,
            "durationTicks": 360,
            "midi": 37,
            "name": "C#2",
            "ticks": 15840,
            "time": 22.000011,
            "velocity": 0.7480314960629921
          },
          {
            "duration": 0.33333350000000195,
            "durationTicks": 240,
            "midi": 35,
            "name": "B1",
            "ticks": 16560,
            "time": 23.0000115,
            "velocity": 0.7480314960629921
          },
          {
            "duration": 0.3333334999999984,
            "durationTicks": 240,
            "midi": 37,
            "name": "C#2",
            "ticks": 16800,
            "time": 23.333345,
            "velocity": 0.7480314960629921
          },
          {
            "duration": 0.5000002499999994,
            "durationTicks": 360,
            "midi": 35,
            "name": "B1",
            "ticks": 17280,
            "time": 24.000012,
            "velocity": 0.7480314960629921
          },
          {
            "duration": 0.16666675000000097,
            "durationTicks": 120,
            "midi": 35,
            "name": "B1",
            "ticks": 17640,
            "time": 24.50001225,
            "velocity": 0.7480314960629921
          },
          {
            "duration": 0.3333334999999984,
            "durationTicks": 240,
            "midi": 37,
            "name": "C#2",
            "ticks": 17760,
            "time": 24.666679000000002,
            "velocity": 0.7480314960629921
          },
          {
            "duration": 0.3333334999999984,
            "durationTicks": 240,
            "midi": 35,
            "name": "B1",
            "ticks": 18000,
            "time": 25.0000125,
            "velocity": 0.7480314960629921
          },
          {
            "duration": 0.3333334999999984,
            "durationTicks": 240,
            "midi": 35,
            "name": "B1",
            "ticks": 18480,
            "time": 25.6666795,
            "velocity": 0.7480314960629921
          },
          {
            "duration": 0.5000002500000029,
            "durationTicks": 360,
            "midi": 37,
            "name": "C#2",
            "ticks": 18720,
            "time": 26.000013,
            "velocity": 0.7480314960629921
          },
          {
            "duration": 0.16666674999999742,
            "durationTicks": 120,
            "midi": 35,
            "name": "B1",
            "ticks": 19080,
            "time": 26.500013250000002,
            "velocity": 0.7480314960629921
          },
          {
            "duration": 0.5000002499999994,
            "durationTicks": 360,
            "midi": 35,
            "name": "B1",
            "ticks": 19200,
            "time": 26.66668,
            "velocity": 0.7480314960629921
          },
          {
            "duration": 0.16666675000000097,
            "durationTicks": 120,
            "midi": 35,
            "name": "B1",
            "ticks": 19560,
            "time": 27.16668025,
            "velocity": 0.7480314960629921
          },
          {
            "duration": 0.5000002499999994,
            "durationTicks": 360,
            "midi": 37,
            "name": "C#2",
            "ticks": 19680,
            "time": 27.333347,
            "velocity": 0.7480314960629921
          },
          {
            "duration": 0.3333334999999984,
            "durationTicks": 240,
            "midi": 35,
            "name": "B1",
            "ticks": 20400,
            "time": 28.333347500000002,
            "velocity": 0.7480314960629921
          },
          {
            "duration": 0.16666675000000097,
            "durationTicks": 120,
            "midi": 37,
            "name": "C#2",
            "ticks": 20640,
            "time": 28.666681,
            "velocity": 0.7480314960629921
          },
          {
            "duration": 0.16666674999999742,
            "durationTicks": 120,
            "midi": 35,
            "name": "B1",
            "ticks": 20760,
            "time": 28.83334775,
            "velocity": 0.7480314960629921
          },
          {
            "duration": 0.5000002499999994,
            "durationTicks": 360,
            "midi": 35,
            "name": "B1",
            "ticks": 21120,
            "time": 29.333348,
            "velocity": 0.7480314960629921
          },
          {
            "duration": 0.16666675000000097,
            "durationTicks": 120,
            "midi": 35,
            "name": "B1",
            "ticks": 21480,
            "time": 29.83334825,
            "velocity": 0.7480314960629921
          },
          {
            "duration": 0.3333334999999984,
            "durationTicks": 240,
            "midi": 37,
            "name": "C#2",
            "ticks": 21600,
            "time": 30.000015,
            "velocity": 0.7480314960629921
          },
          {
            "duration": 0.16666675000000097,
            "durationTicks": 120,
            "midi": 35,
            "name": "B1",
            "ticks": 21960,
            "time": 30.50001525,
            "velocity": 0.7480314960629921
          },
          {
            "duration": 0.16666675000000097,
            "durationTicks": 120,
            "midi": 35,
            "name": "B1",
            "ticks": 22200,
            "time": 30.83334875,
            "velocity": 0.7480314960629921
          },
          {
            "duration": 0.33333350000000195,
            "durationTicks": 240,
            "midi": 35,
            "name": "B1",
            "ticks": 22320,
            "time": 31.0000155,
            "velocity": 0.7480314960629921
          },
          {
            "duration": 0.3333334999999984,
            "durationTicks": 240,
            "midi": 37,
            "name": "C#2",
            "ticks": 22560,
            "time": 31.333349000000002,
            "velocity": 0.7480314960629921
          },
          {
            "duration": 0.33333350000000195,
            "durationTicks": 240,
            "midi": 35,
            "name": "B1",
            "ticks": 22800,
            "time": 31.6666825,
            "velocity": 0.7480314960629921
          },
          {
            "duration": 0.5000002499999994,
            "durationTicks": 360,
            "midi": 35,
            "name": "B1",
            "ticks": 23040,
            "time": 32.000016,
            "velocity": 0.7480314960629921
          },
          {
            "duration": 0.16666674999999742,
            "durationTicks": 120,
            "midi": 35,
            "name": "B1",
            "ticks": 23400,
            "time": 32.50001625,
            "velocity": 0.7480314960629921
          },
          {
            "duration": 0.5000002499999994,
            "durationTicks": 360,
            "midi": 37,
            "name": "C#2",
            "ticks": 23520,
            "time": 32.666683,
            "velocity": 0.7480314960629921
          },
          {
            "duration": 0.33333350000000195,
            "durationTicks": 240,
            "midi": 35,
            "name": "B1",
            "ticks": 24240,
            "time": 33.6666835,
            "velocity": 0.7480314960629921
          },
          {
            "duration": 0.33333350000000195,
            "durationTicks": 240,
            "midi": 37,
            "name": "C#2",
            "ticks": 24480,
            "time": 34.000017,
            "velocity": 0.7480314960629921
          },
          {
            "duration": 0.5000002499999994,
            "durationTicks": 360,
            "midi": 35,
            "name": "B1",
            "ticks": 24960,
            "time": 34.666684000000004,
            "velocity": 0.7480314960629921
          },
          {
            "duration": 0.16666674999999742,
            "durationTicks": 120,
            "midi": 35,
            "name": "B1",
            "ticks": 25320,
            "time": 35.16668425,
            "velocity": 0.7480314960629921
          },
          {
            "duration": 0.33333350000000195,
            "durationTicks": 240,
            "midi": 37,
            "name": "C#2",
            "ticks": 25440,
            "time": 35.333351,
            "velocity": 0.7480314960629921
          },
          {
            "duration": 0.33333349999999484,
            "durationTicks": 240,
            "midi": 35,
            "name": "B1",
            "ticks": 25680,
            "time": 35.6666845,
            "velocity": 0.7480314960629921
          },
          {
            "duration": 0.33333350000000195,
            "durationTicks": 240,
            "midi": 35,
            "name": "B1",
            "ticks": 26160,
            "time": 36.3333515,
            "velocity": 0.7480314960629921
          },
          {
            "duration": 0.5000002499999994,
            "durationTicks": 360,
            "midi": 37,
            "name": "C#2",
            "ticks": 26400,
            "time": 36.666685,
            "velocity": 0.7480314960629921
          },
          {
            "duration": 0.16666674999999742,
            "durationTicks": 120,
            "midi": 35,
            "name": "B1",
            "ticks": 26760,
            "time": 37.16668525,
            "velocity": 0.7480314960629921
          },
          {
            "duration": 0.5000002499999994,
            "durationTicks": 360,
            "midi": 35,
            "name": "B1",
            "ticks": 26880,
            "time": 37.333352,
            "velocity": 0.7480314960629921
          },
          {
            "duration": 0.16666675000000453,
            "durationTicks": 120,
            "midi": 35,
            "name": "B1",
            "ticks": 27240,
            "time": 37.83335225,
            "velocity": 0.7480314960629921
          },
          {
            "duration": 0.5000002499999994,
            "durationTicks": 360,
            "midi": 37,
            "name": "C#2",
            "ticks": 27360,
            "time": 38.000019,
            "velocity": 0.7480314960629921
          },
          {
            "duration": 0.33333350000000195,
            "durationTicks": 240,
            "midi": 35,
            "name": "B1",
            "ticks": 28080,
            "time": 39.0000195,
            "velocity": 0.7480314960629921
          },
          {
            "duration": 0.16666674999999742,
            "durationTicks": 120,
            "midi": 37,
            "name": "C#2",
            "ticks": 28320,
            "time": 39.333353,
            "velocity": 0.7480314960629921
          },
          {
            "duration": 0.16666674999999742,
            "durationTicks": 120,
            "midi": 35,
            "name": "B1",
            "ticks": 28440,
            "time": 39.50001975,
            "velocity": 0.7480314960629921
          },
          {
            "duration": 0.6666670000000039,
            "durationTicks": 480,
            "midi": 35,
            "name": "B1",
            "ticks": 28800,
            "time": 40.00002,
            "velocity": 0.7480314960629921
          },
          {
            "duration": 0.16666675000000453,
            "durationTicks": 120,
            "midi": 42,
            "name": "F#2",
            "ticks": 30120,
            "time": 41.83335425,
            "velocity": 0.7480314960629921
          },
          {
            "duration": 0.16666675000000453,
            "durationTicks": 120,
            "midi": 35,
            "name": "B1",
            "ticks": 30120,
            "time": 41.83335425,
            "velocity": 0.7480314960629921
          },
          {
            "duration": 0.16666674999999742,
            "durationTicks": 120,
            "midi": 42,
            "name": "F#2",
            "ticks": 30240,
            "time": 42.000021000000004,
            "velocity": 0.7480314960629921
          },
          {
            "duration": 0.16666674999999742,
            "durationTicks": 120,
            "midi": 35,
            "name": "B1",
            "ticks": 30360,
            "time": 42.16668775,
            "velocity": 0.7480314960629921
          },
          {
            "duration": 0.16666675000000453,
            "durationTicks": 120,
            "midi": 35,
            "name": "B1",
            "ticks": 30480,
            "time": 42.3333545,
            "velocity": 0.7480314960629921
          },
          {
            "duration": 0.16666674999999742,
            "durationTicks": 120,
            "midi": 42,
            "name": "F#2",
            "ticks": 30600,
            "time": 42.50002125,
            "velocity": 0.7480314960629921
          },
          {
            "duration": 0.33333350000000195,
            "durationTicks": 240,
            "midi": 35,
            "name": "B1",
            "ticks": 30720,
            "time": 42.666688,
            "velocity": 0.7480314960629921
          },
          {
            "duration": 0.33333349999999484,
            "durationTicks": 240,
            "midi": 39,
            "name": "D#2",
            "ticks": 30960,
            "time": 43.0000215,
            "velocity": 0.7480314960629921
          },
          {
            "duration": 0.33333350000000195,
            "durationTicks": 240,
            "midi": 28,
            "name": "E1",
            "ticks": 31200,
            "time": 43.333355,
            "velocity": 0.7480314960629921
          },
          {
            "duration": 0.16666674999999742,
            "durationTicks": 120,
            "midi": 35,
            "name": "B1",
            "ticks": 31560,
            "time": 43.833355250000004,
            "velocity": 0.7480314960629921
          },
          {
            "duration": 0.33333350000000195,
            "durationTicks": 240,
            "midi": 35,
            "name": "B1",
            "ticks": 31680,
            "time": 44.000022,
            "velocity": 0.7480314960629921
          },
          {
            "duration": 0.33333349999999484,
            "durationTicks": 240,
            "midi": 39,
            "name": "D#2",
            "ticks": 31920,
            "time": 44.3333555,
            "velocity": 0.7480314960629921
          },
          {
            "duration": 0.33333350000000195,
            "durationTicks": 240,
            "midi": 28,
            "name": "E1",
            "ticks": 32160,
            "time": 44.666689,
            "velocity": 0.7480314960629921
          },
          {
            "duration": 0.33333350000000195,
            "durationTicks": 240,
            "midi": 35,
            "name": "B1",
            "ticks": 32640,
            "time": 45.333356,
            "velocity": 0.7480314960629921
          },
          {
            "duration": 0.33333349999999484,
            "durationTicks": 240,
            "midi": 39,
            "name": "D#2",
            "ticks": 32880,
            "time": 45.666689500000004,
            "velocity": 0.7480314960629921
          },
          {
            "duration": 0.33333350000000195,
            "durationTicks": 240,
            "midi": 28,
            "name": "E1",
            "ticks": 33120,
            "time": 46.000023,
            "velocity": 0.7480314960629921
          },
          {
            "duration": 0.16666675000000453,
            "durationTicks": 120,
            "midi": 35,
            "name": "B1",
            "ticks": 33480,
            "time": 46.50002325,
            "velocity": 0.7480314960629921
          },
          {
            "duration": 0.16666674999999742,
            "durationTicks": 120,
            "midi": 35,
            "name": "B1",
            "ticks": 33720,
            "time": 46.83335675,
            "velocity": 0.7480314960629921
          },
          {
            "duration": 0.33333350000000195,
            "durationTicks": 240,
            "midi": 35,
            "name": "B1",
            "ticks": 33840,
            "time": 47.0000235,
            "velocity": 0.7480314960629921
          },
          {
            "duration": 0.33333350000000195,
            "durationTicks": 240,
            "midi": 28,
            "name": "E1",
            "ticks": 34080,
            "time": 47.333357,
            "velocity": 0.7480314960629921
          },
          {
            "duration": 0.33333349999999484,
            "durationTicks": 240,
            "midi": 35,
            "name": "B1",
            "ticks": 34560,
            "time": 48.000024,
            "velocity": 0.7480314960629921
          },
          {
            "duration": 0.33333350000000195,
            "durationTicks": 240,
            "midi": 39,
            "name": "D#2",
            "ticks": 34800,
            "time": 48.3333575,
            "velocity": 0.7480314960629921
          },
          {
            "duration": 0.33333350000000195,
            "durationTicks": 240,
            "midi": 28,
            "name": "E1",
            "ticks": 35040,
            "time": 48.666691,
            "velocity": 0.7480314960629921
          },
          {
            "duration": 0.16666675000000453,
            "durationTicks": 120,
            "midi": 35,
            "name": "B1",
            "ticks": 35400,
            "time": 49.16669125,
            "velocity": 0.7480314960629921
          },
          {
            "duration": 0.33333349999999484,
            "durationTicks": 240,
            "midi": 35,
            "name": "B1",
            "ticks": 35520,
            "time": 49.333358000000004,
            "velocity": 0.7480314960629921
          },
          {
            "duration": 0.33333350000000195,
            "durationTicks": 240,
            "midi": 39,
            "name": "D#2",
            "ticks": 35760,
            "time": 49.6666915,
            "velocity": 0.7480314960629921
          },
          {
            "duration": 0.33333350000000195,
            "durationTicks": 240,
            "midi": 28,
            "name": "E1",
            "ticks": 36000,
            "time": 50.000025,
            "velocity": 0.7480314960629921
          },
          {
            "duration": 0.33333350000000195,
            "durationTicks": 240,
            "midi": 35,
            "name": "B1",
            "ticks": 36480,
            "time": 50.666692,
            "velocity": 0.7480314960629921
          },
          {
            "duration": 0.33333350000000195,
            "durationTicks": 240,
            "midi": 39,
            "name": "D#2",
            "ticks": 36720,
            "time": 51.0000255,
            "velocity": 0.7480314960629921
          },
          {
            "duration": 0.33333350000000195,
            "durationTicks": 240,
            "midi": 28,
            "name": "E1",
            "ticks": 36960,
            "time": 51.333359,
            "velocity": 0.7480314960629921
          },
          {
            "duration": 0.16666674999999742,
            "durationTicks": 120,
            "midi": 35,
            "name": "B1",
            "ticks": 37320,
            "time": 51.83335925,
            "velocity": 0.7480314960629921
          },
          {
            "duration": 0.16666674999999742,
            "durationTicks": 120,
            "midi": 35,
            "name": "B1",
            "ticks": 37560,
            "time": 52.16669275,
            "velocity": 0.7480314960629921
          },
          {
            "duration": 0.33333350000000195,
            "durationTicks": 240,
            "midi": 35,
            "name": "B1",
            "ticks": 37680,
            "time": 52.3333595,
            "velocity": 0.7480314960629921
          },
          {
            "duration": 0.33333350000000195,
            "durationTicks": 240,
            "midi": 28,
            "name": "E1",
            "ticks": 37920,
            "time": 52.666693,
            "velocity": 0.7480314960629921
          },
          {
            "duration": 0.33333350000000195,
            "durationTicks": 240,
            "midi": 35,
            "name": "B1",
            "ticks": 38400,
            "time": 53.33336,
            "velocity": 0.7480314960629921
          },
          {
            "duration": 0.33333350000000195,
            "durationTicks": 240,
            "midi": 39,
            "name": "D#2",
            "ticks": 38640,
            "time": 53.6666935,
            "velocity": 0.7480314960629921
          },
          {
            "duration": 0.33333349999999484,
            "durationTicks": 240,
            "midi": 28,
            "name": "E1",
            "ticks": 38880,
            "time": 54.000027,
            "velocity": 0.7480314960629921
          },
          {
            "duration": 0.16666674999999742,
            "durationTicks": 120,
            "midi": 35,
            "name": "B1",
            "ticks": 39240,
            "time": 54.50002725,
            "velocity": 0.7480314960629921
          },
          {
            "duration": 0.33333350000000195,
            "durationTicks": 240,
            "midi": 35,
            "name": "B1",
            "ticks": 39360,
            "time": 54.666694,
            "velocity": 0.7480314960629921
          },
          {
            "duration": 0.33333350000000195,
            "durationTicks": 240,
            "midi": 39,
            "name": "D#2",
            "ticks": 39600,
            "time": 55.0000275,
            "velocity": 0.7480314960629921
          },
          {
            "duration": 0.33333349999999484,
            "durationTicks": 240,
            "midi": 28,
            "name": "E1",
            "ticks": 39840,
            "time": 55.333361000000004,
            "velocity": 0.7480314960629921
          },
          {
            "duration": 0.33333350000000195,
            "durationTicks": 240,
            "midi": 35,
            "name": "B1",
            "ticks": 40320,
            "time": 56.000028,
            "velocity": 0.7480314960629921
          },
          {
            "duration": 0.33333350000000195,
            "durationTicks": 240,
            "midi": 39,
            "name": "D#2",
            "ticks": 40560,
            "time": 56.3333615,
            "velocity": 0.7480314960629921
          },
          {
            "duration": 0.33333349999999484,
            "durationTicks": 240,
            "midi": 28,
            "name": "E1",
            "ticks": 40800,
            "time": 56.666695000000004,
            "velocity": 0.7480314960629921
          },
          {
            "duration": 0.33333349999999484,
            "durationTicks": 240,
            "midi": 35,
            "name": "B1",
            "ticks": 41520,
            "time": 57.6666955,
            "velocity": 0.7480314960629921
          },
          {
            "duration": 0.16666675000000453,
            "durationTicks": 120,
            "midi": 28,
            "name": "E1",
            "ticks": 41760,
            "time": 58.000029,
            "velocity": 0.7480314960629921
          },
          {
            "duration": 0.16666675000000453,
            "durationTicks": 120,
            "midi": 35,
            "name": "B1",
            "ticks": 42000,
            "time": 58.3333625,
            "velocity": 0.7480314960629921
          },
          {
            "duration": 0.33333350000000195,
            "durationTicks": 240,
            "midi": 35,
            "name": "B1",
            "ticks": 42240,
            "time": 58.666696,
            "velocity": 0.7480314960629921
          },
          {
            "duration": 0.33333349999999484,
            "durationTicks": 240,
            "midi": 39,
            "name": "D#2",
            "ticks": 42480,
            "time": 59.000029500000004,
            "velocity": 0.7480314960629921
          },
          {
            "duration": 0.33333350000000195,
            "durationTicks": 240,
            "midi": 28,
            "name": "E1",
            "ticks": 42720,
            "time": 59.333363,
            "velocity": 0.7480314960629921
          },
          {
            "duration": 0.16666675000000453,
            "durationTicks": 120,
            "midi": 35,
            "name": "B1",
            "ticks": 43080,
            "time": 59.83336325,
            "velocity": 0.7480314960629921
          },
          {
            "duration": 0.33333350000000195,
            "durationTicks": 240,
            "midi": 35,
            "name": "B1",
            "ticks": 43200,
            "time": 60.00003,
            "velocity": 0.7480314960629921
          },
          {
            "duration": 0.33333349999999484,
            "durationTicks": 240,
            "midi": 39,
            "name": "D#2",
            "ticks": 43440,
            "time": 60.333363500000004,
            "velocity": 0.7480314960629921
          },
          {
            "duration": 0.33333350000000195,
            "durationTicks": 240,
            "midi": 28,
            "name": "E1",
            "ticks": 43680,
            "time": 60.666697,
            "velocity": 0.7480314960629921
          },
          {
            "duration": 0.33333349999999484,
            "durationTicks": 240,
            "midi": 35,
            "name": "B1",
            "ticks": 44160,
            "time": 61.333364,
            "velocity": 0.7480314960629921
          },
          {
            "duration": 0.33333350000000195,
            "durationTicks": 240,
            "midi": 39,
            "name": "D#2",
            "ticks": 44400,
            "time": 61.6666975,
            "velocity": 0.7480314960629921
          },
          {
            "duration": 0.33333350000000195,
            "durationTicks": 240,
            "midi": 28,
            "name": "E1",
            "ticks": 44640,
            "time": 62.000031,
            "velocity": 0.7480314960629921
          },
          {
            "duration": 0.16666675000000453,
            "durationTicks": 120,
            "midi": 35,
            "name": "B1",
            "ticks": 45000,
            "time": 62.50003125,
            "velocity": 0.7480314960629921
          },
          {
            "duration": 0.16666674999999742,
            "durationTicks": 120,
            "midi": 35,
            "name": "B1",
            "ticks": 45240,
            "time": 62.83336475,
            "velocity": 0.7480314960629921
          },
          {
            "duration": 0.33333350000000195,
            "durationTicks": 240,
            "midi": 35,
            "name": "B1",
            "ticks": 45360,
            "time": 63.0000315,
            "velocity": 0.7480314960629921
          },
          {
            "duration": 0.33333350000000195,
            "durationTicks": 240,
            "midi": 28,
            "name": "E1",
            "ticks": 45600,
            "time": 63.333365,
            "velocity": 0.7480314960629921
          },
          {
            "duration": 0.5000002499999994,
            "durationTicks": 360,
            "midi": 55,
            "name": "G3",
            "ticks": 46080,
            "time": 64.000032,
            "velocity": 0.7480314960629921
          },
          {
            "duration": 0.5000002499999994,
            "durationTicks": 360,
            "midi": 35,
            "name": "B1",
            "ticks": 46080,
            "time": 64.000032,
            "velocity": 0.7480314960629921
          },
          {
            "duration": 0.16666674999999032,
            "durationTicks": 120,
            "midi": 35,
            "name": "B1",
            "ticks": 46440,
            "time": 64.50003225,
            "velocity": 0.7480314960629921
          },
          {
            "duration": 0.5000002500000136,
            "durationTicks": 360,
            "midi": 37,
            "name": "C#2",
            "ticks": 46560,
            "time": 64.666699,
            "velocity": 0.7480314960629921
          },
          {
            "duration": 0.33333349999999484,
            "durationTicks": 240,
            "midi": 35,
            "name": "B1",
            "ticks": 47280,
            "time": 65.66669950000001,
            "velocity": 0.7480314960629921
          },
          {
            "duration": 0.33333349999999484,
            "durationTicks": 240,
            "midi": 37,
            "name": "C#2",
            "ticks": 47520,
            "time": 66.000033,
            "velocity": 0.7480314960629921
          },
          {
            "duration": 0.5000002499999994,
            "durationTicks": 360,
            "midi": 35,
            "name": "B1",
            "ticks": 48000,
            "time": 66.6667,
            "velocity": 0.7480314960629921
          },
          {
            "duration": 0.16666674999999032,
            "durationTicks": 120,
            "midi": 35,
            "name": "B1",
            "ticks": 48360,
            "time": 67.16670025,
            "velocity": 0.7480314960629921
          },
          {
            "duration": 0.33333350000000905,
            "durationTicks": 240,
            "midi": 37,
            "name": "C#2",
            "ticks": 48480,
            "time": 67.333367,
            "velocity": 0.7480314960629921
          },
          {
            "duration": 0.33333349999999484,
            "durationTicks": 240,
            "midi": 35,
            "name": "B1",
            "ticks": 48720,
            "time": 67.6667005,
            "velocity": 0.7480314960629921
          },
          {
            "duration": 0.33333350000000905,
            "durationTicks": 240,
            "midi": 35,
            "name": "B1",
            "ticks": 49200,
            "time": 68.3333675,
            "velocity": 0.7480314960629921
          },
          {
            "duration": 0.5000002499999994,
            "durationTicks": 360,
            "midi": 37,
            "name": "C#2",
            "ticks": 49440,
            "time": 68.666701,
            "velocity": 0.7480314960629921
          },
          {
            "duration": 0.16666675000000453,
            "durationTicks": 120,
            "midi": 35,
            "name": "B1",
            "ticks": 49800,
            "time": 69.16670125,
            "velocity": 0.7480314960629921
          },
          {
            "duration": 0.5000002499999994,
            "durationTicks": 360,
            "midi": 35,
            "name": "B1",
            "ticks": 49920,
            "time": 69.33336800000001,
            "velocity": 0.7480314960629921
          },
          {
            "duration": 0.16666674999999032,
            "durationTicks": 120,
            "midi": 35,
            "name": "B1",
            "ticks": 50280,
            "time": 69.83336825,
            "velocity": 0.7480314960629921
          },
          {
            "duration": 0.5000002499999994,
            "durationTicks": 360,
            "midi": 37,
            "name": "C#2",
            "ticks": 50400,
            "time": 70.000035,
            "velocity": 0.7480314960629921
          },
          {
            "duration": 0.33333350000000905,
            "durationTicks": 240,
            "midi": 35,
            "name": "B1",
            "ticks": 51120,
            "time": 71.0000355,
            "velocity": 0.7480314960629921
          },
          {
            "duration": 0.16666674999999032,
            "durationTicks": 120,
            "midi": 37,
            "name": "C#2",
            "ticks": 51360,
            "time": 71.333369,
            "velocity": 0.7480314960629921
          },
          {
            "duration": 0.16666675000000453,
            "durationTicks": 120,
            "midi": 35,
            "name": "B1",
            "ticks": 51480,
            "time": 71.50003575,
            "velocity": 0.7480314960629921
          },
          {
            "duration": 0.5000002500000136,
            "durationTicks": 360,
            "midi": 35,
            "name": "B1",
            "ticks": 51840,
            "time": 72.000036,
            "velocity": 0.7480314960629921
          },
          {
            "duration": 0.16666674999999032,
            "durationTicks": 120,
            "midi": 35,
            "name": "B1",
            "ticks": 52200,
            "time": 72.50003625000001,
            "velocity": 0.7480314960629921
          },
          {
            "duration": 0.33333350000000905,
            "durationTicks": 240,
            "midi": 37,
            "name": "C#2",
            "ticks": 52320,
            "time": 72.666703,
            "velocity": 0.7480314960629921
          },
          {
            "duration": 0.16666675000000453,
            "durationTicks": 120,
            "midi": 35,
            "name": "B1",
            "ticks": 52680,
            "time": 73.16670325,
            "velocity": 0.7480314960629921
          },
          {
            "duration": 0.16666674999999032,
            "durationTicks": 120,
            "midi": 35,
            "name": "B1",
            "ticks": 52920,
            "time": 73.50003675,
            "velocity": 0.7480314960629921
          },
          {
            "duration": 0.33333350000000905,
            "durationTicks": 240,
            "midi": 35,
            "name": "B1",
            "ticks": 53040,
            "time": 73.6667035,
            "velocity": 0.7480314960629921
          },
          {
            "duration": 0.33333349999999484,
            "durationTicks": 240,
            "midi": 37,
            "name": "C#2",
            "ticks": 53280,
            "time": 74.000037,
            "velocity": 0.7480314960629921
          },
          {
            "duration": 0.33333349999999484,
            "durationTicks": 240,
            "midi": 35,
            "name": "B1",
            "ticks": 53520,
            "time": 74.3333705,
            "velocity": 0.7480314960629921
          },
          {
            "duration": 0.5000002499999994,
            "durationTicks": 360,
            "midi": 35,
            "name": "B1",
            "ticks": 53760,
            "time": 74.666704,
            "velocity": 0.7480314960629921
          },
          {
            "duration": 0.16666675000000453,
            "durationTicks": 120,
            "midi": 35,
            "name": "B1",
            "ticks": 54120,
            "time": 75.16670425,
            "velocity": 0.7480314960629921
          },
          {
            "duration": 0.5000002499999994,
            "durationTicks": 360,
            "midi": 37,
            "name": "C#2",
            "ticks": 54240,
            "time": 75.333371,
            "velocity": 0.7480314960629921
          },
          {
            "duration": 0.33333350000000905,
            "durationTicks": 240,
            "midi": 35,
            "name": "B1",
            "ticks": 54960,
            "time": 76.3333715,
            "velocity": 0.7480314960629921
          },
          {
            "duration": 0.33333349999999484,
            "durationTicks": 240,
            "midi": 37,
            "name": "C#2",
            "ticks": 55200,
            "time": 76.66670500000001,
            "velocity": 0.7480314960629921
          },
          {
            "duration": 0.5000002499999994,
            "durationTicks": 360,
            "midi": 35,
            "name": "B1",
            "ticks": 55680,
            "time": 77.333372,
            "velocity": 0.7480314960629921
          },
          {
            "duration": 0.16666675000000453,
            "durationTicks": 120,
            "midi": 35,
            "name": "B1",
            "ticks": 56040,
            "time": 77.83337225,
            "velocity": 0.7480314960629921
          },
          {
            "duration": 0.33333349999999484,
            "durationTicks": 240,
            "midi": 37,
            "name": "C#2",
            "ticks": 56160,
            "time": 78.000039,
            "velocity": 0.7480314960629921
          },
          {
            "duration": 0.33333350000000905,
            "durationTicks": 240,
            "midi": 35,
            "name": "B1",
            "ticks": 56400,
            "time": 78.3333725,
            "velocity": 0.7480314960629921
          },
          {
            "duration": 0.33333349999999484,
            "durationTicks": 240,
            "midi": 35,
            "name": "B1",
            "ticks": 56880,
            "time": 79.0000395,
            "velocity": 0.7480314960629921
          },
          {
            "duration": 0.5000002500000136,
            "durationTicks": 360,
            "midi": 37,
            "name": "C#2",
            "ticks": 57120,
            "time": 79.333373,
            "velocity": 0.7480314960629921
          },
          {
            "duration": 0.16666674999999032,
            "durationTicks": 120,
            "midi": 35,
            "name": "B1",
            "ticks": 57480,
            "time": 79.83337325000001,
            "velocity": 0.7480314960629921
          },
          {
            "duration": 0.5000002499999994,
            "durationTicks": 360,
            "midi": 35,
            "name": "B1",
            "ticks": 57600,
            "time": 80.00004,
            "velocity": 0.7480314960629921
          },
          {
            "duration": 0.16666675000000453,
            "durationTicks": 120,
            "midi": 35,
            "name": "B1",
            "ticks": 57960,
            "time": 80.50004025,
            "velocity": 0.7480314960629921
          },
          {
            "duration": 0.5000002499999994,
            "durationTicks": 360,
            "midi": 37,
            "name": "C#2",
            "ticks": 58080,
            "time": 80.666707,
            "velocity": 0.7480314960629921
          },
          {
            "duration": 0.33333349999999484,
            "durationTicks": 240,
            "midi": 35,
            "name": "B1",
            "ticks": 58800,
            "time": 81.6667075,
            "velocity": 0.7480314960629921
          },
          {
            "duration": 0.16666675000000453,
            "durationTicks": 120,
            "midi": 37,
            "name": "C#2",
            "ticks": 59040,
            "time": 82.000041,
            "velocity": 0.7480314960629921
          },
          {
            "duration": 0.16666675000000453,
            "durationTicks": 120,
            "midi": 35,
            "name": "B1",
            "ticks": 59160,
            "time": 82.16670775,
            "velocity": 0.7480314960629921
          },
          {
            "duration": 0.6666670000000039,
            "durationTicks": 480,
            "midi": 35,
            "name": "B1",
            "ticks": 59520,
            "time": 82.666708,
            "velocity": 0.7480314960629921
          },
          {
            "duration": 0.33333349999999484,
            "durationTicks": 240,
            "midi": 37,
            "name": "C#2",
            "ticks": 60000,
            "time": 83.333375,
            "velocity": 0.7480314960629921
          },
          {
            "duration": 0.16666674999999032,
            "durationTicks": 120,
            "midi": 35,
            "name": "B1",
            "ticks": 60840,
            "time": 84.50004225,
            "velocity": 0.7480314960629921
          },
          {
            "duration": 0.16666675000000453,
            "durationTicks": 120,
            "midi": 37,
            "name": "C#2",
            "ticks": 60960,
            "time": 84.666709,
            "velocity": 0.7480314960629921
          },
          {
            "duration": 0.16666675000000453,
            "durationTicks": 120,
            "midi": 35,
            "name": "B1",
            "ticks": 61080,
            "time": 84.83337575,
            "velocity": 0.7480314960629921
          },
          {
            "duration": 0.16666674999999032,
            "durationTicks": 120,
            "midi": 35,
            "name": "B1",
            "ticks": 61200,
            "time": 85.0000425,
            "velocity": 0.7480314960629921
          },
          {
            "duration": 0.6666670000000039,
            "durationTicks": 480,
            "midi": 55,
            "name": "G3",
            "ticks": 61440,
            "time": 85.333376,
            "velocity": 0.7480314960629921
          },
          {
            "duration": 0.6666670000000039,
            "durationTicks": 480,
            "midi": 35,
            "name": "B1",
            "ticks": 61440,
            "time": 85.333376,
            "velocity": 0.7480314960629921
          },
          {
            "duration": 0.33333349999999484,
            "durationTicks": 240,
            "midi": 55,
            "name": "G3",
            "ticks": 61920,
            "time": 86.000043,
            "velocity": 0.7480314960629921
          },
          {
            "duration": 0.33333349999999484,
            "durationTicks": 240,
            "midi": 37,
            "name": "C#2",
            "ticks": 61920,
            "time": 86.000043,
            "velocity": 0.7480314960629921
          },
          {
            "duration": 0.16666674999999032,
            "durationTicks": 120,
            "midi": 35,
            "name": "B1",
            "ticks": 62280,
            "time": 86.50004325,
            "velocity": 0.7480314960629921
          },
          {
            "duration": 0.33333350000000905,
            "durationTicks": 240,
            "midi": 55,
            "name": "G3",
            "ticks": 62400,
            "time": 86.66671,
            "velocity": 0.7480314960629921
          },
          {
            "duration": 0.33333350000000905,
            "durationTicks": 240,
            "midi": 35,
            "name": "B1",
            "ticks": 62400,
            "time": 86.66671,
            "velocity": 0.7480314960629921
          },
          {
            "duration": 0.6666670000000039,
            "durationTicks": 480,
            "midi": 55,
            "name": "G3",
            "ticks": 62880,
            "time": 87.333377,
            "velocity": 0.7480314960629921
          },
          {
            "duration": 0.6666670000000039,
            "durationTicks": 480,
            "midi": 37,
            "name": "C#2",
            "ticks": 62880,
            "time": 87.333377,
            "velocity": 0.7480314960629921
          },
          {
            "duration": 0.6666670000000039,
            "durationTicks": 480,
            "midi": 55,
            "name": "G3",
            "ticks": 63360,
            "time": 88.000044,
            "velocity": 0.7480314960629921
          },
          {
            "duration": 0.6666670000000039,
            "durationTicks": 480,
            "midi": 35,
            "name": "B1",
            "ticks": 63360,
            "time": 88.000044,
            "velocity": 0.7480314960629921
          },
          {
            "duration": 0.33333349999999484,
            "durationTicks": 240,
            "midi": 55,
            "name": "G3",
            "ticks": 63840,
            "time": 88.666711,
            "velocity": 0.7480314960629921
          },
          {
            "duration": 0.33333349999999484,
            "durationTicks": 240,
            "midi": 37,
            "name": "C#2",
            "ticks": 63840,
            "time": 88.666711,
            "velocity": 0.7480314960629921
          },
          {
            "duration": 0.16666674999999032,
            "durationTicks": 120,
            "midi": 35,
            "name": "B1",
            "ticks": 64200,
            "time": 89.16671125,
            "velocity": 0.7480314960629921
          },
          {
            "duration": 0.33333350000000905,
            "durationTicks": 240,
            "midi": 55,
            "name": "G3",
            "ticks": 64320,
            "time": 89.333378,
            "velocity": 0.7480314960629921
          },
          {
            "duration": 0.33333350000000905,
            "durationTicks": 240,
            "midi": 35,
            "name": "B1",
            "ticks": 64320,
            "time": 89.333378,
            "velocity": 0.7480314960629921
          },
          {
            "duration": 0.33333349999999484,
            "durationTicks": 240,
            "midi": 35,
            "name": "B1",
            "ticks": 64560,
            "time": 89.6667115,
            "velocity": 0.7480314960629921
          },
          {
            "duration": 0.33333349999999484,
            "durationTicks": 240,
            "midi": 55,
            "name": "G3",
            "ticks": 64800,
            "time": 90.000045,
            "velocity": 0.7480314960629921
          },
          {
            "duration": 0.33333349999999484,
            "durationTicks": 240,
            "midi": 37,
            "name": "C#2",
            "ticks": 64800,
            "time": 90.000045,
            "velocity": 0.7480314960629921
          },
          {
            "duration": 0.33333350000000905,
            "durationTicks": 240,
            "midi": 35,
            "name": "B1",
            "ticks": 65040,
            "time": 90.3333785,
            "velocity": 0.7480314960629921
          },
          {
            "duration": 0.6666670000000039,
            "durationTicks": 480,
            "midi": 55,
            "name": "G3",
            "ticks": 65280,
            "time": 90.666712,
            "velocity": 0.7480314960629921
          },
          {
            "duration": 0.6666670000000039,
            "durationTicks": 480,
            "midi": 35,
            "name": "B1",
            "ticks": 65280,
            "time": 90.666712,
            "velocity": 0.7480314960629921
          },
          {
            "duration": 0.33333349999999484,
            "durationTicks": 240,
            "midi": 55,
            "name": "G3",
            "ticks": 65760,
            "time": 91.33337900000001,
            "velocity": 0.7480314960629921
          },
          {
            "duration": 0.33333349999999484,
            "durationTicks": 240,
            "midi": 37,
            "name": "C#2",
            "ticks": 65760,
            "time": 91.33337900000001,
            "velocity": 0.7480314960629921
          },
          {
            "duration": 0.16666674999999032,
            "durationTicks": 120,
            "midi": 35,
            "name": "B1",
            "ticks": 66120,
            "time": 91.83337925000001,
            "velocity": 0.7480314960629921
          },
          {
            "duration": 0.33333350000000905,
            "durationTicks": 240,
            "midi": 55,
            "name": "G3",
            "ticks": 66240,
            "time": 92.000046,
            "velocity": 0.7480314960629921
          },
          {
            "duration": 0.33333350000000905,
            "durationTicks": 240,
            "midi": 35,
            "name": "B1",
            "ticks": 66240,
            "time": 92.000046,
            "velocity": 0.7480314960629921
          },
          {
            "duration": 0.6666670000000039,
            "durationTicks": 480,
            "midi": 55,
            "name": "G3",
            "ticks": 66720,
            "time": 92.666713,
            "velocity": 0.7480314960629921
          },
          {
            "duration": 0.6666670000000039,
            "durationTicks": 480,
            "midi": 37,
            "name": "C#2",
            "ticks": 66720,
            "time": 92.666713,
            "velocity": 0.7480314960629921
          },
          {
            "duration": 0.6666669999999897,
            "durationTicks": 480,
            "midi": 55,
            "name": "G3",
            "ticks": 67200,
            "time": 93.33338,
            "velocity": 0.7480314960629921
          },
          {
            "duration": 0.6666669999999897,
            "durationTicks": 480,
            "midi": 35,
            "name": "B1",
            "ticks": 67200,
            "time": 93.33338,
            "velocity": 0.7480314960629921
          },
          {
            "duration": 0.33333350000000905,
            "durationTicks": 240,
            "midi": 55,
            "name": "G3",
            "ticks": 67680,
            "time": 94.000047,
            "velocity": 0.7480314960629921
          },
          {
            "duration": 0.33333350000000905,
            "durationTicks": 240,
            "midi": 37,
            "name": "C#2",
            "ticks": 67680,
            "time": 94.000047,
            "velocity": 0.7480314960629921
          },
          {
            "duration": 0.16666675000000453,
            "durationTicks": 120,
            "midi": 35,
            "name": "B1",
            "ticks": 68040,
            "time": 94.50004725,
            "velocity": 0.7480314960629921
          },
          {
            "duration": 0.33333350000000905,
            "durationTicks": 240,
            "midi": 55,
            "name": "G3",
            "ticks": 68160,
            "time": 94.666714,
            "velocity": 0.7480314960629921
          },
          {
            "duration": 0.33333350000000905,
            "durationTicks": 240,
            "midi": 35,
            "name": "B1",
            "ticks": 68160,
            "time": 94.666714,
            "velocity": 0.7480314960629921
          },
          {
            "duration": 0.33333349999999484,
            "durationTicks": 240,
            "midi": 35,
            "name": "B1",
            "ticks": 68400,
            "time": 95.00004750000001,
            "velocity": 0.7480314960629921
          },
          {
            "duration": 0.33333349999999484,
            "durationTicks": 240,
            "midi": 55,
            "name": "G3",
            "ticks": 68640,
            "time": 95.333381,
            "velocity": 0.7480314960629921
          },
          {
            "duration": 0.33333349999999484,
            "durationTicks": 240,
            "midi": 37,
            "name": "C#2",
            "ticks": 68640,
            "time": 95.333381,
            "velocity": 0.7480314960629921
          },
          {
            "duration": 0.33333350000000905,
            "durationTicks": 240,
            "midi": 35,
            "name": "B1",
            "ticks": 68880,
            "time": 95.6667145,
            "velocity": 0.7480314960629921
          },
          {
            "duration": 0.6666669999999897,
            "durationTicks": 480,
            "midi": 55,
            "name": "G3",
            "ticks": 69120,
            "time": 96.000048,
            "velocity": 0.7480314960629921
          },
          {
            "duration": 0.6666669999999897,
            "durationTicks": 480,
            "midi": 35,
            "name": "B1",
            "ticks": 69120,
            "time": 96.000048,
            "velocity": 0.7480314960629921
          },
          {
            "duration": 0.33333350000000905,
            "durationTicks": 240,
            "midi": 55,
            "name": "G3",
            "ticks": 69600,
            "time": 96.666715,
            "velocity": 0.7480314960629921
          },
          {
            "duration": 0.33333350000000905,
            "durationTicks": 240,
            "midi": 37,
            "name": "C#2",
            "ticks": 69600,
            "time": 96.666715,
            "velocity": 0.7480314960629921
          },
          {
            "duration": 0.16666675000000453,
            "durationTicks": 120,
            "midi": 35,
            "name": "B1",
            "ticks": 69960,
            "time": 97.16671525,
            "velocity": 0.7480314960629921
          },
          {
            "duration": 0.33333349999999484,
            "durationTicks": 240,
            "midi": 55,
            "name": "G3",
            "ticks": 70080,
            "time": 97.333382,
            "velocity": 0.7480314960629921
          },
          {
            "duration": 0.33333349999999484,
            "durationTicks": 240,
            "midi": 35,
            "name": "B1",
            "ticks": 70080,
            "time": 97.333382,
            "velocity": 0.7480314960629921
          },
          {
            "duration": 0.6666670000000039,
            "durationTicks": 480,
            "midi": 55,
            "name": "G3",
            "ticks": 70560,
            "time": 98.000049,
            "velocity": 0.7480314960629921
          },
          {
            "duration": 0.6666670000000039,
            "durationTicks": 480,
            "midi": 37,
            "name": "C#2",
            "ticks": 70560,
            "time": 98.000049,
            "velocity": 0.7480314960629921
          },
          {
            "duration": 0.6666669999999897,
            "durationTicks": 480,
            "midi": 55,
            "name": "G3",
            "ticks": 71040,
            "time": 98.66671600000001,
            "velocity": 0.7480314960629921
          },
          {
            "duration": 0.6666669999999897,
            "durationTicks": 480,
            "midi": 35,
            "name": "B1",
            "ticks": 71040,
            "time": 98.66671600000001,
            "velocity": 0.7480314960629921
          },
          {
            "duration": 0.33333350000000905,
            "durationTicks": 240,
            "midi": 55,
            "name": "G3",
            "ticks": 71520,
            "time": 99.333383,
            "velocity": 0.7480314960629921
          },
          {
            "duration": 0.33333350000000905,
            "durationTicks": 240,
            "midi": 37,
            "name": "C#2",
            "ticks": 71520,
            "time": 99.333383,
            "velocity": 0.7480314960629921
          },
          {
            "duration": 0.16666675000000453,
            "durationTicks": 120,
            "midi": 35,
            "name": "B1",
            "ticks": 71880,
            "time": 99.83338325,
            "velocity": 0.7480314960629921
          },
          {
            "duration": 0.16666675000000453,
            "durationTicks": 120,
            "midi": 55,
            "name": "G3",
            "ticks": 72000,
            "time": 100.00005,
            "velocity": 0.7480314960629921
          },
          {
            "duration": 0.33333350000000905,
            "durationTicks": 240,
            "midi": 35,
            "name": "B1",
            "ticks": 72240,
            "time": 100.3333835,
            "velocity": 0.7480314960629921
          },
          {
            "duration": 0.16666674999999032,
            "durationTicks": 120,
            "midi": 55,
            "name": "G3",
            "ticks": 72480,
            "time": 100.666717,
            "velocity": 0.7480314960629921
          },
          {
            "duration": 0.16666674999999032,
            "durationTicks": 120,
            "midi": 37,
            "name": "C#2",
            "ticks": 72480,
            "time": 100.666717,
            "velocity": 0.7480314960629921
          },
          {
            "duration": 0.16666675000000453,
            "durationTicks": 120,
            "midi": 35,
            "name": "B1",
            "ticks": 72720,
            "time": 101.0000505,
            "velocity": 0.7480314960629921
          },
          {
            "duration": 0.6666670000000039,
            "durationTicks": 480,
            "midi": 55,
            "name": "G3",
            "ticks": 72960,
            "time": 101.333384,
            "velocity": 0.7480314960629921
          },
          {
            "duration": 0.6666670000000039,
            "durationTicks": 480,
            "midi": 35,
            "name": "B1",
            "ticks": 72960,
            "time": 101.333384,
            "velocity": 0.7480314960629921
          },
          {
            "duration": 0.33333350000000905,
            "durationTicks": 240,
            "midi": 55,
            "name": "G3",
            "ticks": 73440,
            "time": 102.000051,
            "velocity": 0.7480314960629921
          },
          {
            "duration": 0.33333350000000905,
            "durationTicks": 240,
            "midi": 37,
            "name": "C#2",
            "ticks": 73440,
            "time": 102.000051,
            "velocity": 0.7480314960629921
          },
          {
            "duration": 0.16666675000000453,
            "durationTicks": 120,
            "midi": 35,
            "name": "B1",
            "ticks": 73800,
            "time": 102.50005125,
            "velocity": 0.7480314960629921
          },
          {
            "duration": 0.33333349999999484,
            "durationTicks": 240,
            "midi": 55,
            "name": "G3",
            "ticks": 73920,
            "time": 102.666718,
            "velocity": 0.7480314960629921
          },
          {
            "duration": 0.33333349999999484,
            "durationTicks": 240,
            "midi": 35,
            "name": "B1",
            "ticks": 73920,
            "time": 102.666718,
            "velocity": 0.7480314960629921
          },
          {
            "duration": 0.6666669999999897,
            "durationTicks": 480,
            "midi": 55,
            "name": "G3",
            "ticks": 74400,
            "time": 103.333385,
            "velocity": 0.7480314960629921
          },
          {
            "duration": 0.6666669999999897,
            "durationTicks": 480,
            "midi": 37,
            "name": "C#2",
            "ticks": 74400,
            "time": 103.333385,
            "velocity": 0.7480314960629921
          },
          {
            "duration": 0.16666675000000453,
            "durationTicks": 120,
            "midi": 55,
            "name": "G3",
            "ticks": 74880,
            "time": 104.000052,
            "velocity": 0.7480314960629921
          },
          {
            "duration": 0.16666675000000453,
            "durationTicks": 120,
            "midi": 35,
            "name": "B1",
            "ticks": 74880,
            "time": 104.000052,
            "velocity": 0.7480314960629921
          },
          {
            "duration": 0.16666675000000453,
            "durationTicks": 120,
            "midi": 35,
            "name": "B1",
            "ticks": 75000,
            "time": 104.16671875,
            "velocity": 0.7480314960629921
          },
          {
            "duration": 0.33333349999999484,
            "durationTicks": 240,
            "midi": 55,
            "name": "G3",
            "ticks": 75360,
            "time": 104.666719,
            "velocity": 0.7480314960629921
          },
          {
            "duration": 0.33333349999999484,
            "durationTicks": 240,
            "midi": 37,
            "name": "C#2",
            "ticks": 75360,
            "time": 104.666719,
            "velocity": 0.7480314960629921
          },
          {
            "duration": 0.16666675000000453,
            "durationTicks": 120,
            "midi": 35,
            "name": "B1",
            "ticks": 75720,
            "time": 105.16671925,
            "velocity": 0.7480314960629921
          },
          {
            "duration": 0.16666674999999032,
            "durationTicks": 120,
            "midi": 55,
            "name": "G3",
            "ticks": 75840,
            "time": 105.333386,
            "velocity": 0.7480314960629921
          },
          {
            "duration": 0.16666675000000453,
            "durationTicks": 120,
            "midi": 35,
            "name": "B1",
            "ticks": 75960,
            "time": 105.50005275,
            "velocity": 0.7480314960629921
          },
          {
            "duration": 0.33333350000000905,
            "durationTicks": 240,
            "midi": 35,
            "name": "B1",
            "ticks": 76080,
            "time": 105.6667195,
            "velocity": 0.7480314960629921
          },
          {
            "duration": 0.5000002499999994,
            "durationTicks": 360,
            "midi": 57,
            "name": "A3",
            "ticks": 78720,
            "time": 109.333388,
            "velocity": 0.7480314960629921
          },
          {
            "duration": 0.5000002499999994,
            "durationTicks": 360,
            "midi": 35,
            "name": "B1",
            "ticks": 78720,
            "time": 109.333388,
            "velocity": 0.7480314960629921
          },
          {
            "duration": 0.16666675000000453,
            "durationTicks": 120,
            "midi": 35,
            "name": "B1",
            "ticks": 79080,
            "time": 109.83338825,
            "velocity": 0.7480314960629921
          },
          {
            "duration": 0.5000002499999994,
            "durationTicks": 360,
            "midi": 37,
            "name": "C#2",
            "ticks": 79200,
            "time": 110.000055,
            "velocity": 0.7480314960629921
          },
          {
            "duration": 0.33333349999999484,
            "durationTicks": 240,
            "midi": 35,
            "name": "B1",
            "ticks": 79920,
            "time": 111.0000555,
            "velocity": 0.7480314960629921
          },
          {
            "duration": 0.33333350000000905,
            "durationTicks": 240,
            "midi": 37,
            "name": "C#2",
            "ticks": 80160,
            "time": 111.333389,
            "velocity": 0.7480314960629921
          },
          {
            "duration": 0.5000002499999994,
            "durationTicks": 360,
            "midi": 35,
            "name": "B1",
            "ticks": 80640,
            "time": 112.000056,
            "velocity": 0.7480314960629921
          },
          {
            "duration": 0.16666675000000453,
            "durationTicks": 120,
            "midi": 35,
            "name": "B1",
            "ticks": 81000,
            "time": 112.50005625,
            "velocity": 0.7480314960629921
          },
          {
            "duration": 0.33333349999999484,
            "durationTicks": 240,
            "midi": 37,
            "name": "C#2",
            "ticks": 81120,
            "time": 112.666723,
            "velocity": 0.7480314960629921
          },
          {
            "duration": 0.33333350000000905,
            "durationTicks": 240,
            "midi": 35,
            "name": "B1",
            "ticks": 81360,
            "time": 113.0000565,
            "velocity": 0.7480314960629921
          },
          {
            "duration": 0.33333349999999484,
            "durationTicks": 240,
            "midi": 35,
            "name": "B1",
            "ticks": 81840,
            "time": 113.6667235,
            "velocity": 0.7480314960629921
          },
          {
            "duration": 0.5000002499999994,
            "durationTicks": 360,
            "midi": 37,
            "name": "C#2",
            "ticks": 82080,
            "time": 114.000057,
            "velocity": 0.7480314960629921
          },
          {
            "duration": 0.16666675000000453,
            "durationTicks": 120,
            "midi": 35,
            "name": "B1",
            "ticks": 82440,
            "time": 114.50005725,
            "velocity": 0.7480314960629921
          },
          {
            "duration": 0.5000002499999994,
            "durationTicks": 360,
            "midi": 35,
            "name": "B1",
            "ticks": 82560,
            "time": 114.666724,
            "velocity": 0.7480314960629921
          },
          {
            "duration": 0.16666675000000453,
            "durationTicks": 120,
            "midi": 35,
            "name": "B1",
            "ticks": 82920,
            "time": 115.16672425,
            "velocity": 0.7480314960629921
          },
          {
            "duration": 0.5000002499999994,
            "durationTicks": 360,
            "midi": 37,
            "name": "C#2",
            "ticks": 83040,
            "time": 115.333391,
            "velocity": 0.7480314960629921
          },
          {
            "duration": 0.33333349999999484,
            "durationTicks": 240,
            "midi": 35,
            "name": "B1",
            "ticks": 83760,
            "time": 116.3333915,
            "velocity": 0.7480314960629921
          },
          {
            "duration": 0.16666675000000453,
            "durationTicks": 120,
            "midi": 37,
            "name": "C#2",
            "ticks": 84000,
            "time": 116.666725,
            "velocity": 0.7480314960629921
          },
          {
            "duration": 0.16666675000000453,
            "durationTicks": 120,
            "midi": 35,
            "name": "B1",
            "ticks": 84120,
            "time": 116.83339175,
            "velocity": 0.7480314960629921
          },
          {
            "duration": 0.5000002499999994,
            "durationTicks": 360,
            "midi": 35,
            "name": "B1",
            "ticks": 84480,
            "time": 117.333392,
            "velocity": 0.7480314960629921
          },
          {
            "duration": 0.16666675000000453,
            "durationTicks": 120,
            "midi": 35,
            "name": "B1",
            "ticks": 84840,
            "time": 117.83339225,
            "velocity": 0.7480314960629921
          },
          {
            "duration": 0.33333349999999484,
            "durationTicks": 240,
            "midi": 37,
            "name": "C#2",
            "ticks": 84960,
            "time": 118.00005900000001,
            "velocity": 0.7480314960629921
          },
          {
            "duration": 0.16666674999999032,
            "durationTicks": 120,
            "midi": 35,
            "name": "B1",
            "ticks": 85320,
            "time": 118.50005925,
            "velocity": 0.7480314960629921
          },
          {
            "duration": 0.16666675000000453,
            "durationTicks": 120,
            "midi": 35,
            "name": "B1",
            "ticks": 85560,
            "time": 118.83339275,
            "velocity": 0.7480314960629921
          },
          {
            "duration": 0.33333349999999484,
            "durationTicks": 240,
            "midi": 35,
            "name": "B1",
            "ticks": 85680,
            "time": 119.0000595,
            "velocity": 0.7480314960629921
          },
          {
            "duration": 0.33333349999999484,
            "durationTicks": 240,
            "midi": 37,
            "name": "C#2",
            "ticks": 85920,
            "time": 119.333393,
            "velocity": 0.7480314960629921
          },
          {
            "duration": 0.33333350000000905,
            "durationTicks": 240,
            "midi": 35,
            "name": "B1",
            "ticks": 86160,
            "time": 119.6667265,
            "velocity": 0.7480314960629921
          },
          {
            "duration": 0.5000002499999994,
            "durationTicks": 360,
            "midi": 35,
            "name": "B1",
            "ticks": 86400,
            "time": 120.00006,
            "velocity": 0.7480314960629921
          },
          {
            "duration": 0.16666675000000453,
            "durationTicks": 120,
            "midi": 35,
            "name": "B1",
            "ticks": 86760,
            "time": 120.50006025,
            "velocity": 0.7480314960629921
          },
          {
            "duration": 0.5000002499999994,
            "durationTicks": 360,
            "midi": 37,
            "name": "C#2",
            "ticks": 86880,
            "time": 120.66672700000001,
            "velocity": 0.7480314960629921
          },
          {
            "duration": 0.33333349999999484,
            "durationTicks": 240,
            "midi": 35,
            "name": "B1",
            "ticks": 87600,
            "time": 121.66672750000001,
            "velocity": 0.7480314960629921
          },
          {
            "duration": 0.33333349999999484,
            "durationTicks": 240,
            "midi": 37,
            "name": "C#2",
            "ticks": 87840,
            "time": 122.000061,
            "velocity": 0.7480314960629921
          },
          {
            "duration": 0.5000002499999994,
            "durationTicks": 360,
            "midi": 35,
            "name": "B1",
            "ticks": 88320,
            "time": 122.666728,
            "velocity": 0.7480314960629921
          },
          {
            "duration": 0.16666674999999032,
            "durationTicks": 120,
            "midi": 35,
            "name": "B1",
            "ticks": 88680,
            "time": 123.16672825,
            "velocity": 0.7480314960629921
          },
          {
            "duration": 0.33333350000000905,
            "durationTicks": 240,
            "midi": 37,
            "name": "C#2",
            "ticks": 88800,
            "time": 123.333395,
            "velocity": 0.7480314960629921
          },
          {
            "duration": 0.33333349999999484,
            "durationTicks": 240,
            "midi": 35,
            "name": "B1",
            "ticks": 89040,
            "time": 123.6667285,
            "velocity": 0.7480314960629921
          },
          {
            "duration": 0.33333349999999484,
            "durationTicks": 240,
            "midi": 35,
            "name": "B1",
            "ticks": 89520,
            "time": 124.33339550000001,
            "velocity": 0.7480314960629921
          },
          {
            "duration": 0.5000002499999994,
            "durationTicks": 360,
            "midi": 37,
            "name": "C#2",
            "ticks": 89760,
            "time": 124.666729,
            "velocity": 0.7480314960629921
          },
          {
            "duration": 0.16666675000000453,
            "durationTicks": 120,
            "midi": 35,
            "name": "B1",
            "ticks": 90120,
            "time": 125.16672925,
            "velocity": 0.7480314960629921
          },
          {
            "duration": 0.5000002499999994,
            "durationTicks": 360,
            "midi": 35,
            "name": "B1",
            "ticks": 90240,
            "time": 125.33339600000001,
            "velocity": 0.7480314960629921
          },
          {
            "duration": 0.16666674999999032,
            "durationTicks": 120,
            "midi": 35,
            "name": "B1",
            "ticks": 90600,
            "time": 125.83339625,
            "velocity": 0.7480314960629921
          },
          {
            "duration": 0.5000002499999994,
            "durationTicks": 360,
            "midi": 37,
            "name": "C#2",
            "ticks": 90720,
            "time": 126.000063,
            "velocity": 0.7480314960629921
          },
          {
            "duration": 0.33333350000000905,
            "durationTicks": 240,
            "midi": 35,
            "name": "B1",
            "ticks": 91440,
            "time": 127.0000635,
            "velocity": 0.7480314960629921
          },
          {
            "duration": 0.16666674999999032,
            "durationTicks": 120,
            "midi": 37,
            "name": "C#2",
            "ticks": 91680,
            "time": 127.333397,
            "velocity": 0.7480314960629921
          },
          {
            "duration": 0.16666675000000453,
            "durationTicks": 120,
            "midi": 35,
            "name": "B1",
            "ticks": 91800,
            "time": 127.50006375,
            "velocity": 0.7480314960629921
          },
          {
            "duration": 0.6666669999999897,
            "durationTicks": 480,
            "midi": 35,
            "name": "B1",
            "ticks": 92160,
            "time": 128.000064,
            "velocity": 0.7480314960629921
          },
          {
            "duration": 0.16666675000001874,
            "durationTicks": 120,
            "midi": 35,
            "name": "B1",
            "ticks": 93480,
            "time": 129.83339825,
            "velocity": 0.7480314960629921
          },
          {
            "duration": 0.16666674999999032,
            "durationTicks": 120,
            "midi": 37,
            "name": "C#2",
            "ticks": 93600,
            "time": 130.000065,
            "velocity": 0.7480314960629921
          },
          {
            "duration": 0.16666675000001874,
            "durationTicks": 120,
            "midi": 35,
            "name": "B1",
            "ticks": 93720,
            "time": 130.16673175,
            "velocity": 0.7480314960629921
          },
          {
            "duration": 0.16666674999999032,
            "durationTicks": 120,
            "midi": 35,
            "name": "B1",
            "ticks": 93840,
            "time": 130.33339850000002,
            "velocity": 0.7480314960629921
          },
          {
            "duration": 0.5000002499999994,
            "durationTicks": 360,
            "midi": 35,
            "name": "B1",
            "ticks": 94080,
            "time": 130.666732,
            "velocity": 0.7480314960629921
          },
          {
            "duration": 0.16666675000001874,
            "durationTicks": 120,
            "midi": 35,
            "name": "B1",
            "ticks": 94440,
            "time": 131.16673225,
            "velocity": 0.7480314960629921
          },
          {
            "duration": 0.5000002499999994,
            "durationTicks": 360,
            "midi": 37,
            "name": "C#2",
            "ticks": 94560,
            "time": 131.33339900000001,
            "velocity": 0.7480314960629921
          },
          {
            "duration": 0.33333349999998063,
            "durationTicks": 240,
            "midi": 35,
            "name": "B1",
            "ticks": 95280,
            "time": 132.3333995,
            "velocity": 0.7480314960629921
          },
          {
            "duration": 0.33333350000000905,
            "durationTicks": 240,
            "midi": 37,
            "name": "C#2",
            "ticks": 95520,
            "time": 132.666733,
            "velocity": 0.7480314960629921
          },
          {
            "duration": 0.5000002499999994,
            "durationTicks": 360,
            "midi": 35,
            "name": "B1",
            "ticks": 96000,
            "time": 133.3334,
            "velocity": 0.7480314960629921
          },
          {
            "duration": 0.16666674999999032,
            "durationTicks": 120,
            "midi": 35,
            "name": "B1",
            "ticks": 96360,
            "time": 133.83340025,
            "velocity": 0.7480314960629921
          },
          {
            "duration": 0.33333350000000905,
            "durationTicks": 240,
            "midi": 37,
            "name": "C#2",
            "ticks": 96480,
            "time": 134.000067,
            "velocity": 0.7480314960629921
          },
          {
            "duration": 0.33333349999998063,
            "durationTicks": 240,
            "midi": 35,
            "name": "B1",
            "ticks": 96720,
            "time": 134.3334005,
            "velocity": 0.7480314960629921
          },
          {
            "duration": 0.33333350000000905,
            "durationTicks": 240,
            "midi": 35,
            "name": "B1",
            "ticks": 97200,
            "time": 135.0000675,
            "velocity": 0.7480314960629921
          },
          {
            "duration": 0.5000002499999994,
            "durationTicks": 360,
            "midi": 37,
            "name": "C#2",
            "ticks": 97440,
            "time": 135.333401,
            "velocity": 0.7480314960629921
          },
          {
            "duration": 0.16666674999999032,
            "durationTicks": 120,
            "midi": 35,
            "name": "B1",
            "ticks": 97800,
            "time": 135.83340125,
            "velocity": 0.7480314960629921
          },
          {
            "duration": 0.5000002499999994,
            "durationTicks": 360,
            "midi": 35,
            "name": "B1",
            "ticks": 97920,
            "time": 136.000068,
            "velocity": 0.7480314960629921
          },
          {
            "duration": 0.16666674999999032,
            "durationTicks": 120,
            "midi": 35,
            "name": "B1",
            "ticks": 98280,
            "time": 136.50006825,
            "velocity": 0.7480314960629921
          },
          {
            "duration": 0.5000002499999994,
            "durationTicks": 360,
            "midi": 37,
            "name": "C#2",
            "ticks": 98400,
            "time": 136.666735,
            "velocity": 0.7480314960629921
          },
          {
            "duration": 0.33333349999998063,
            "durationTicks": 240,
            "midi": 35,
            "name": "B1",
            "ticks": 99120,
            "time": 137.66673550000002,
            "velocity": 0.7480314960629921
          },
          {
            "duration": 0.16666675000001874,
            "durationTicks": 120,
            "midi": 37,
            "name": "C#2",
            "ticks": 99360,
            "time": 138.000069,
            "velocity": 0.7480314960629921
          },
          {
            "duration": 0.16666674999999032,
            "durationTicks": 120,
            "midi": 35,
            "name": "B1",
            "ticks": 99480,
            "time": 138.16673575000002,
            "velocity": 0.7480314960629921
          },
          {
            "duration": 0.5000002499999994,
            "durationTicks": 360,
            "midi": 35,
            "name": "B1",
            "ticks": 99840,
            "time": 138.66673600000001,
            "velocity": 0.7480314960629921
          },
          {
            "duration": 0.16666674999999032,
            "durationTicks": 120,
            "midi": 35,
            "name": "B1",
            "ticks": 100200,
            "time": 139.16673625,
            "velocity": 0.7480314960629921
          },
          {
            "duration": 0.33333350000000905,
            "durationTicks": 240,
            "midi": 37,
            "name": "C#2",
            "ticks": 100320,
            "time": 139.333403,
            "velocity": 0.7480314960629921
          },
          {
            "duration": 0.16666674999999032,
            "durationTicks": 120,
            "midi": 35,
            "name": "B1",
            "ticks": 100680,
            "time": 139.83340325,
            "velocity": 0.7480314960629921
          },
          {
            "duration": 0.16666674999999032,
            "durationTicks": 120,
            "midi": 35,
            "name": "B1",
            "ticks": 100920,
            "time": 140.16673675,
            "velocity": 0.7480314960629921
          },
          {
            "duration": 0.33333350000000905,
            "durationTicks": 240,
            "midi": 35,
            "name": "B1",
            "ticks": 101040,
            "time": 140.3334035,
            "velocity": 0.7480314960629921
          },
          {
            "duration": 0.33333349999998063,
            "durationTicks": 240,
            "midi": 37,
            "name": "C#2",
            "ticks": 101280,
            "time": 140.666737,
            "velocity": 0.7480314960629921
          },
          {
            "duration": 0.33333350000000905,
            "durationTicks": 240,
            "midi": 35,
            "name": "B1",
            "ticks": 101520,
            "time": 141.0000705,
            "velocity": 0.7480314960629921
          },
          {
            "duration": 0.5000002499999994,
            "durationTicks": 360,
            "midi": 35,
            "name": "B1",
            "ticks": 101760,
            "time": 141.333404,
            "velocity": 0.7480314960629921
          },
          {
            "duration": 0.16666674999999032,
            "durationTicks": 120,
            "midi": 35,
            "name": "B1",
            "ticks": 102120,
            "time": 141.83340425,
            "velocity": 0.7480314960629921
          },
          {
            "duration": 0.5000002499999994,
            "durationTicks": 360,
            "midi": 37,
            "name": "C#2",
            "ticks": 102240,
            "time": 142.000071,
            "velocity": 0.7480314960629921
          },
          {
            "duration": 0.33333350000000905,
            "durationTicks": 240,
            "midi": 35,
            "name": "B1",
            "ticks": 102960,
            "time": 143.0000715,
            "velocity": 0.7480314960629921
          },
          {
            "duration": 0.33333350000000905,
            "durationTicks": 240,
            "midi": 37,
            "name": "C#2",
            "ticks": 103200,
            "time": 143.333405,
            "velocity": 0.7480314960629921
          },
          {
            "duration": 0.5000002499999994,
            "durationTicks": 360,
            "midi": 35,
            "name": "B1",
            "ticks": 103680,
            "time": 144.000072,
            "velocity": 0.7480314960629921
          },
          {
            "duration": 0.16666675000001874,
            "durationTicks": 120,
            "midi": 35,
            "name": "B1",
            "ticks": 104040,
            "time": 144.50007225,
            "velocity": 0.7480314960629921
          },
          {
            "duration": 0.33333350000000905,
            "durationTicks": 240,
            "midi": 37,
            "name": "C#2",
            "ticks": 104160,
            "time": 144.666739,
            "velocity": 0.7480314960629921
          },
          {
            "duration": 0.33333349999998063,
            "durationTicks": 240,
            "midi": 35,
            "name": "B1",
            "ticks": 104400,
            "time": 145.00007250000002,
            "velocity": 0.7480314960629921
          },
          {
            "duration": 0.33333350000000905,
            "durationTicks": 240,
            "midi": 35,
            "name": "B1",
            "ticks": 104880,
            "time": 145.6667395,
            "velocity": 0.7480314960629921
          },
          {
            "duration": 0.5000002499999994,
            "durationTicks": 360,
            "midi": 37,
            "name": "C#2",
            "ticks": 105120,
            "time": 146.00007300000001,
            "velocity": 0.7480314960629921
          },
          {
            "duration": 0.16666674999999032,
            "durationTicks": 120,
            "midi": 35,
            "name": "B1",
            "ticks": 105480,
            "time": 146.50007325,
            "velocity": 0.7480314960629921
          },
          {
            "duration": 0.5000002499999994,
            "durationTicks": 360,
            "midi": 35,
            "name": "B1",
            "ticks": 105600,
            "time": 146.66674,
            "velocity": 0.7480314960629921
          },
          {
            "duration": 0.16666674999999032,
            "durationTicks": 120,
            "midi": 35,
            "name": "B1",
            "ticks": 105960,
            "time": 147.16674025,
            "velocity": 0.7480314960629921
          },
          {
            "duration": 0.5000002499999994,
            "durationTicks": 360,
            "midi": 37,
            "name": "C#2",
            "ticks": 106080,
            "time": 147.333407,
            "velocity": 0.7480314960629921
          },
          {
            "duration": 0.33333350000000905,
            "durationTicks": 240,
            "midi": 35,
            "name": "B1",
            "ticks": 106800,
            "time": 148.3334075,
            "velocity": 0.7480314960629921
          },
          {
            "duration": 0.16666674999999032,
            "durationTicks": 120,
            "midi": 37,
            "name": "C#2",
            "ticks": 107040,
            "time": 148.666741,
            "velocity": 0.7480314960629921
          },
          {
            "duration": 0.16666675000001874,
            "durationTicks": 120,
            "midi": 35,
            "name": "B1",
            "ticks": 107160,
            "time": 148.83340775,
            "velocity": 0.7480314960629921
          },
          {
            "duration": 0.6666670000000181,
            "durationTicks": 480,
            "midi": 35,
            "name": "B1",
            "ticks": 107520,
            "time": 149.333408,
            "velocity": 0.7480314960629921
          },
          {
            "duration": 0.33333349999998063,
            "durationTicks": 240,
            "midi": 37,
            "name": "C#2",
            "ticks": 108000,
            "time": 150.000075,
            "velocity": 0.7480314960629921
          },
          {
            "duration": 0.16666674999999032,
            "durationTicks": 120,
            "midi": 35,
            "name": "B1",
            "ticks": 108840,
            "time": 151.16674225,
            "velocity": 0.7480314960629921
          },
          {
            "duration": 0.16666675000001874,
            "durationTicks": 120,
            "midi": 37,
            "name": "C#2",
            "ticks": 108960,
            "time": 151.333409,
            "velocity": 0.7480314960629921
          },
          {
            "duration": 0.16666674999999032,
            "durationTicks": 120,
            "midi": 35,
            "name": "B1",
            "ticks": 109080,
            "time": 151.50007575,
            "velocity": 0.7480314960629921
          },
          {
            "duration": 0.16666674999999032,
            "durationTicks": 120,
            "midi": 35,
            "name": "B1",
            "ticks": 109200,
            "time": 151.6667425,
            "velocity": 0.7480314960629921
          },
          {
            "duration": 0.6666669999999897,
            "durationTicks": 480,
            "midi": 55,
            "name": "G3",
            "ticks": 109440,
            "time": 152.000076,
            "velocity": 0.7480314960629921
          },
          {
            "duration": 0.6666669999999897,
            "durationTicks": 480,
            "midi": 35,
            "name": "B1",
            "ticks": 109440,
            "time": 152.000076,
            "velocity": 0.7480314960629921
          },
          {
            "duration": 0.33333350000000905,
            "durationTicks": 240,
            "midi": 55,
            "name": "G3",
            "ticks": 109920,
            "time": 152.666743,
            "velocity": 0.7480314960629921
          },
          {
            "duration": 0.33333350000000905,
            "durationTicks": 240,
            "midi": 37,
            "name": "C#2",
            "ticks": 109920,
            "time": 152.666743,
            "velocity": 0.7480314960629921
          },
          {
            "duration": 0.16666675000001874,
            "durationTicks": 120,
            "midi": 35,
            "name": "B1",
            "ticks": 110280,
            "time": 153.16674325,
            "velocity": 0.7480314960629921
          },
          {
            "duration": 0.33333349999998063,
            "durationTicks": 240,
            "midi": 55,
            "name": "G3",
            "ticks": 110400,
            "time": 153.33341000000001,
            "velocity": 0.7480314960629921
          },
          {
            "duration": 0.33333349999998063,
            "durationTicks": 240,
            "midi": 35,
            "name": "B1",
            "ticks": 110400,
            "time": 153.33341000000001,
            "velocity": 0.7480314960629921
          },
          {
            "duration": 0.6666669999999897,
            "durationTicks": 480,
            "midi": 55,
            "name": "G3",
            "ticks": 110880,
            "time": 154.000077,
            "velocity": 0.7480314960629921
          },
          {
            "duration": 0.6666669999999897,
            "durationTicks": 480,
            "midi": 37,
            "name": "C#2",
            "ticks": 110880,
            "time": 154.000077,
            "velocity": 0.7480314960629921
          },
          {
            "duration": 0.6666670000000181,
            "durationTicks": 480,
            "midi": 55,
            "name": "G3",
            "ticks": 111360,
            "time": 154.666744,
            "velocity": 0.7480314960629921
          },
          {
            "duration": 0.6666670000000181,
            "durationTicks": 480,
            "midi": 35,
            "name": "B1",
            "ticks": 111360,
            "time": 154.666744,
            "velocity": 0.7480314960629921
          },
          {
            "duration": 0.33333349999998063,
            "durationTicks": 240,
            "midi": 55,
            "name": "G3",
            "ticks": 111840,
            "time": 155.333411,
            "velocity": 0.7480314960629921
          },
          {
            "duration": 0.33333349999998063,
            "durationTicks": 240,
            "midi": 37,
            "name": "C#2",
            "ticks": 111840,
            "time": 155.333411,
            "velocity": 0.7480314960629921
          },
          {
            "duration": 0.16666674999999032,
            "durationTicks": 120,
            "midi": 35,
            "name": "B1",
            "ticks": 112200,
            "time": 155.83341125,
            "velocity": 0.7480314960629921
          },
          {
            "duration": 0.33333350000000905,
            "durationTicks": 240,
            "midi": 55,
            "name": "G3",
            "ticks": 112320,
            "time": 156.000078,
            "velocity": 0.7480314960629921
          },
          {
            "duration": 0.33333350000000905,
            "durationTicks": 240,
            "midi": 35,
            "name": "B1",
            "ticks": 112320,
            "time": 156.000078,
            "velocity": 0.7480314960629921
          },
          {
            "duration": 0.33333349999998063,
            "durationTicks": 240,
            "midi": 35,
            "name": "B1",
            "ticks": 112560,
            "time": 156.3334115,
            "velocity": 0.7480314960629921
          },
          {
            "duration": 0.33333350000000905,
            "durationTicks": 240,
            "midi": 55,
            "name": "G3",
            "ticks": 112800,
            "time": 156.666745,
            "velocity": 0.7480314960629921
          },
          {
            "duration": 0.33333350000000905,
            "durationTicks": 240,
            "midi": 37,
            "name": "C#2",
            "ticks": 112800,
            "time": 156.666745,
            "velocity": 0.7480314960629921
          },
          {
            "duration": 0.33333350000000905,
            "durationTicks": 240,
            "midi": 35,
            "name": "B1",
            "ticks": 113040,
            "time": 157.0000785,
            "velocity": 0.7480314960629921
          },
          {
            "duration": 0.6666669999999897,
            "durationTicks": 480,
            "midi": 55,
            "name": "G3",
            "ticks": 113280,
            "time": 157.333412,
            "velocity": 0.7480314960629921
          },
          {
            "duration": 0.6666669999999897,
            "durationTicks": 480,
            "midi": 35,
            "name": "B1",
            "ticks": 113280,
            "time": 157.333412,
            "velocity": 0.7480314960629921
          },
          {
            "duration": 0.33333350000000905,
            "durationTicks": 240,
            "midi": 55,
            "name": "G3",
            "ticks": 113760,
            "time": 158.000079,
            "velocity": 0.7480314960629921
          },
          {
            "duration": 0.33333350000000905,
            "durationTicks": 240,
            "midi": 37,
            "name": "C#2",
            "ticks": 113760,
            "time": 158.000079,
            "velocity": 0.7480314960629921
          },
          {
            "duration": 0.16666674999999032,
            "durationTicks": 120,
            "midi": 35,
            "name": "B1",
            "ticks": 114120,
            "time": 158.50007925,
            "velocity": 0.7480314960629921
          },
          {
            "duration": 0.33333350000000905,
            "durationTicks": 240,
            "midi": 55,
            "name": "G3",
            "ticks": 114240,
            "time": 158.666746,
            "velocity": 0.7480314960629921
          },
          {
            "duration": 0.33333350000000905,
            "durationTicks": 240,
            "midi": 35,
            "name": "B1",
            "ticks": 114240,
            "time": 158.666746,
            "velocity": 0.7480314960629921
          },
          {
            "duration": 0.6666669999999897,
            "durationTicks": 480,
            "midi": 55,
            "name": "G3",
            "ticks": 114720,
            "time": 159.333413,
            "velocity": 0.7480314960629921
          },
          {
            "duration": 0.6666669999999897,
            "durationTicks": 480,
            "midi": 37,
            "name": "C#2",
            "ticks": 114720,
            "time": 159.333413,
            "velocity": 0.7480314960629921
          },
          {
            "duration": 0.6666670000000181,
            "durationTicks": 480,
            "midi": 55,
            "name": "G3",
            "ticks": 115200,
            "time": 160.00008,
            "velocity": 0.7480314960629921
          },
          {
            "duration": 0.6666670000000181,
            "durationTicks": 480,
            "midi": 35,
            "name": "B1",
            "ticks": 115200,
            "time": 160.00008,
            "velocity": 0.7480314960629921
          },
          {
            "duration": 0.33333349999998063,
            "durationTicks": 240,
            "midi": 55,
            "name": "G3",
            "ticks": 115680,
            "time": 160.66674700000002,
            "velocity": 0.7480314960629921
          },
          {
            "duration": 0.33333349999998063,
            "durationTicks": 240,
            "midi": 37,
            "name": "C#2",
            "ticks": 115680,
            "time": 160.66674700000002,
            "velocity": 0.7480314960629921
          },
          {
            "duration": 0.16666674999999032,
            "durationTicks": 120,
            "midi": 35,
            "name": "B1",
            "ticks": 116040,
            "time": 161.16674725000001,
            "velocity": 0.7480314960629921
          },
          {
            "duration": 0.33333350000000905,
            "durationTicks": 240,
            "midi": 55,
            "name": "G3",
            "ticks": 116160,
            "time": 161.333414,
            "velocity": 0.7480314960629921
          },
          {
            "duration": 0.33333350000000905,
            "durationTicks": 240,
            "midi": 35,
            "name": "B1",
            "ticks": 116160,
            "time": 161.333414,
            "velocity": 0.7480314960629921
          },
          {
            "duration": 0.33333349999998063,
            "durationTicks": 240,
            "midi": 35,
            "name": "B1",
            "ticks": 116400,
            "time": 161.6667475,
            "velocity": 0.7480314960629921
          },
          {
            "duration": 0.33333350000000905,
            "durationTicks": 240,
            "midi": 55,
            "name": "G3",
            "ticks": 116640,
            "time": 162.000081,
            "velocity": 0.7480314960629921
          },
          {
            "duration": 0.33333350000000905,
            "durationTicks": 240,
            "midi": 37,
            "name": "C#2",
            "ticks": 116640,
            "time": 162.000081,
            "velocity": 0.7480314960629921
          },
          {
            "duration": 0.33333350000000905,
            "durationTicks": 240,
            "midi": 35,
            "name": "B1",
            "ticks": 116880,
            "time": 162.3334145,
            "velocity": 0.7480314960629921
          },
          {
            "duration": 0.6666669999999897,
            "durationTicks": 480,
            "midi": 55,
            "name": "G3",
            "ticks": 117120,
            "time": 162.666748,
            "velocity": 0.7480314960629921
          },
          {
            "duration": 0.6666669999999897,
            "durationTicks": 480,
            "midi": 35,
            "name": "B1",
            "ticks": 117120,
            "time": 162.666748,
            "velocity": 0.7480314960629921
          },
          {
            "duration": 0.33333350000000905,
            "durationTicks": 240,
            "midi": 55,
            "name": "G3",
            "ticks": 117600,
            "time": 163.333415,
            "velocity": 0.7480314960629921
          },
          {
            "duration": 0.33333350000000905,
            "durationTicks": 240,
            "midi": 37,
            "name": "C#2",
            "ticks": 117600,
            "time": 163.333415,
            "velocity": 0.7480314960629921
          },
          {
            "duration": 0.16666674999999032,
            "durationTicks": 120,
            "midi": 35,
            "name": "B1",
            "ticks": 117960,
            "time": 163.83341525,
            "velocity": 0.7480314960629921
          },
          {
            "duration": 0.33333350000000905,
            "durationTicks": 240,
            "midi": 55,
            "name": "G3",
            "ticks": 118080,
            "time": 164.000082,
            "velocity": 0.7480314960629921
          },
          {
            "duration": 0.33333350000000905,
            "durationTicks": 240,
            "midi": 35,
            "name": "B1",
            "ticks": 118080,
            "time": 164.000082,
            "velocity": 0.7480314960629921
          },
          {
            "duration": 0.6666669999999897,
            "durationTicks": 480,
            "midi": 55,
            "name": "G3",
            "ticks": 118560,
            "time": 164.666749,
            "velocity": 0.7480314960629921
          },
          {
            "duration": 0.6666669999999897,
            "durationTicks": 480,
            "midi": 37,
            "name": "C#2",
            "ticks": 118560,
            "time": 164.666749,
            "velocity": 0.7480314960629921
          },
          {
            "duration": 0.6666669999999897,
            "durationTicks": 480,
            "midi": 55,
            "name": "G3",
            "ticks": 119040,
            "time": 165.333416,
            "velocity": 0.7480314960629921
          },
          {
            "duration": 0.6666669999999897,
            "durationTicks": 480,
            "midi": 35,
            "name": "B1",
            "ticks": 119040,
            "time": 165.333416,
            "velocity": 0.7480314960629921
          },
          {
            "duration": 0.33333350000000905,
            "durationTicks": 240,
            "midi": 55,
            "name": "G3",
            "ticks": 119520,
            "time": 166.000083,
            "velocity": 0.7480314960629921
          },
          {
            "duration": 0.33333350000000905,
            "durationTicks": 240,
            "midi": 37,
            "name": "C#2",
            "ticks": 119520,
            "time": 166.000083,
            "velocity": 0.7480314960629921
          },
          {
            "duration": 0.16666675000001874,
            "durationTicks": 120,
            "midi": 35,
            "name": "B1",
            "ticks": 119880,
            "time": 166.50008325,
            "velocity": 0.7480314960629921
          },
          {
            "duration": 0.16666674999999032,
            "durationTicks": 120,
            "midi": 55,
            "name": "G3",
            "ticks": 120000,
            "time": 166.66675,
            "velocity": 0.7480314960629921
          },
          {
            "duration": 0.33333349999998063,
            "durationTicks": 240,
            "midi": 35,
            "name": "B1",
            "ticks": 120240,
            "time": 167.00008350000002,
            "velocity": 0.7480314960629921
          },
          {
            "duration": 0.16666675000001874,
            "durationTicks": 120,
            "midi": 55,
            "name": "G3",
            "ticks": 120480,
            "time": 167.333417,
            "velocity": 0.7480314960629921
          },
          {
            "duration": 0.16666675000001874,
            "durationTicks": 120,
            "midi": 37,
            "name": "C#2",
            "ticks": 120480,
            "time": 167.333417,
            "velocity": 0.7480314960629921
          },
          {
            "duration": 0.16666674999999032,
            "durationTicks": 120,
            "midi": 35,
            "name": "B1",
            "ticks": 120720,
            "time": 167.6667505,
            "velocity": 0.7480314960629921
          },
          {
            "duration": 0.6666669999999897,
            "durationTicks": 480,
            "midi": 55,
            "name": "G3",
            "ticks": 120960,
            "time": 168.00008400000002,
            "velocity": 0.7480314960629921
          },
          {
            "duration": 0.6666669999999897,
            "durationTicks": 480,
            "midi": 35,
            "name": "B1",
            "ticks": 120960,
            "time": 168.00008400000002,
            "velocity": 0.7480314960629921
          },
          {
            "duration": 0.33333350000000905,
            "durationTicks": 240,
            "midi": 55,
            "name": "G3",
            "ticks": 121440,
            "time": 168.666751,
            "velocity": 0.7480314960629921
          },
          {
            "duration": 0.33333350000000905,
            "durationTicks": 240,
            "midi": 37,
            "name": "C#2",
            "ticks": 121440,
            "time": 168.666751,
            "velocity": 0.7480314960629921
          },
          {
            "duration": 0.16666674999999032,
            "durationTicks": 120,
            "midi": 35,
            "name": "B1",
            "ticks": 121800,
            "time": 169.16675125,
            "velocity": 0.7480314960629921
          },
          {
            "duration": 0.33333350000000905,
            "durationTicks": 240,
            "midi": 55,
            "name": "G3",
            "ticks": 121920,
            "time": 169.333418,
            "velocity": 0.7480314960629921
          },
          {
            "duration": 0.33333350000000905,
            "durationTicks": 240,
            "midi": 35,
            "name": "B1",
            "ticks": 121920,
            "time": 169.333418,
            "velocity": 0.7480314960629921
          },
          {
            "duration": 0.6666669999999897,
            "durationTicks": 480,
            "midi": 55,
            "name": "G3",
            "ticks": 122400,
            "time": 170.000085,
            "velocity": 0.7480314960629921
          },
          {
            "duration": 0.6666669999999897,
            "durationTicks": 480,
            "midi": 37,
            "name": "C#2",
            "ticks": 122400,
            "time": 170.000085,
            "velocity": 0.7480314960629921
          },
          {
            "duration": 0.16666674999999032,
            "durationTicks": 120,
            "midi": 55,
            "name": "G3",
            "ticks": 122880,
            "time": 170.666752,
            "velocity": 0.7480314960629921
          },
          {
            "duration": 0.16666674999999032,
            "durationTicks": 120,
            "midi": 35,
            "name": "B1",
            "ticks": 122880,
            "time": 170.666752,
            "velocity": 0.7480314960629921
          },
          {
            "duration": 0.16666675000001874,
            "durationTicks": 120,
            "midi": 35,
            "name": "B1",
            "ticks": 123000,
            "time": 170.83341875,
            "velocity": 0.7480314960629921
          },
          {
            "duration": 0.33333350000000905,
            "durationTicks": 240,
            "midi": 55,
            "name": "G3",
            "ticks": 123360,
            "time": 171.333419,
            "velocity": 0.7480314960629921
          },
          {
            "duration": 0.33333350000000905,
            "durationTicks": 240,
            "midi": 37,
            "name": "C#2",
            "ticks": 123360,
            "time": 171.333419,
            "velocity": 0.7480314960629921
          },
          {
            "duration": 0.16666675000001874,
            "durationTicks": 120,
            "midi": 35,
            "name": "B1",
            "ticks": 123720,
            "time": 171.83341925,
            "velocity": 0.7480314960629921
          },
          {
            "duration": 0.16666674999999032,
            "durationTicks": 120,
            "midi": 55,
            "name": "G3",
            "ticks": 123840,
            "time": 172.000086,
            "velocity": 0.7480314960629921
          },
          {
            "duration": 0.16666674999999032,
            "durationTicks": 120,
            "midi": 35,
            "name": "B1",
            "ticks": 123960,
            "time": 172.16675275,
            "velocity": 0.7480314960629921
          },
          {
            "duration": 0.33333350000000905,
            "durationTicks": 240,
            "midi": 35,
            "name": "B1",
            "ticks": 124080,
            "time": 172.3334195,
            "velocity": 0.7480314960629921
          },
          {
            "duration": 0.33333350000000905,
            "durationTicks": 240,
            "midi": 55,
            "name": "G3",
            "ticks": 124320,
            "time": 172.666753,
            "velocity": 0.7480314960629921
          },
          {
            "duration": 0.33333350000000905,
            "durationTicks": 240,
            "midi": 37,
            "name": "C#2",
            "ticks": 124320,
            "time": 172.666753,
            "velocity": 0.7480314960629921
          },
          {
            "duration": 0.33333349999998063,
            "durationTicks": 240,
            "midi": 35,
            "name": "B1",
            "ticks": 124560,
            "time": 173.0000865,
            "velocity": 0.7480314960629921
          },
          {
            "duration": 0.6666670000000181,
            "durationTicks": 480,
            "midi": 55,
            "name": "G3",
            "ticks": 124800,
            "time": 173.33342,
            "velocity": 0.7480314960629921
          },
          {
            "duration": 0.6666670000000181,
            "durationTicks": 480,
            "midi": 35,
            "name": "B1",
            "ticks": 124800,
            "time": 173.33342,
            "velocity": 0.7480314960629921
          },
          {
            "duration": 0.33333349999998063,
            "durationTicks": 240,
            "midi": 55,
            "name": "G3",
            "ticks": 125280,
            "time": 174.000087,
            "velocity": 0.7480314960629921
          },
          {
            "duration": 0.33333349999998063,
            "durationTicks": 240,
            "midi": 37,
            "name": "C#2",
            "ticks": 125280,
            "time": 174.000087,
            "velocity": 0.7480314960629921
          },
          {
            "duration": 0.16666674999999032,
            "durationTicks": 120,
            "midi": 35,
            "name": "B1",
            "ticks": 125640,
            "time": 174.50008725,
            "velocity": 0.7480314960629921
          },
          {
            "duration": 0.33333350000000905,
            "durationTicks": 240,
            "midi": 55,
            "name": "G3",
            "ticks": 125760,
            "time": 174.666754,
            "velocity": 0.7480314960629921
          },
          {
            "duration": 0.33333350000000905,
            "durationTicks": 240,
            "midi": 35,
            "name": "B1",
            "ticks": 125760,
            "time": 174.666754,
            "velocity": 0.7480314960629921
          },
          {
            "duration": 0.6666669999999897,
            "durationTicks": 480,
            "midi": 55,
            "name": "G3",
            "ticks": 126240,
            "time": 175.33342100000002,
            "velocity": 0.7480314960629921
          },
          {
            "duration": 0.6666669999999897,
            "durationTicks": 480,
            "midi": 37,
            "name": "C#2",
            "ticks": 126240,
            "time": 175.33342100000002,
            "velocity": 0.7480314960629921
          },
          {
            "duration": 0.6666669999999897,
            "durationTicks": 480,
            "midi": 55,
            "name": "G3",
            "ticks": 126720,
            "time": 176.000088,
            "velocity": 0.7480314960629921
          },
          {
            "duration": 0.6666669999999897,
            "durationTicks": 480,
            "midi": 35,
            "name": "B1",
            "ticks": 126720,
            "time": 176.000088,
            "velocity": 0.7480314960629921
          },
          {
            "duration": 0.33333350000000905,
            "durationTicks": 240,
            "midi": 55,
            "name": "G3",
            "ticks": 127200,
            "time": 176.666755,
            "velocity": 0.7480314960629921
          },
          {
            "duration": 0.33333350000000905,
            "durationTicks": 240,
            "midi": 37,
            "name": "C#2",
            "ticks": 127200,
            "time": 176.666755,
            "velocity": 0.7480314960629921
          },
          {
            "duration": 0.16666675000001874,
            "durationTicks": 120,
            "midi": 35,
            "name": "B1",
            "ticks": 127560,
            "time": 177.16675525,
            "velocity": 0.7480314960629921
          },
          {
            "duration": 0.33333349999998063,
            "durationTicks": 240,
            "midi": 55,
            "name": "G3",
            "ticks": 127680,
            "time": 177.333422,
            "velocity": 0.7480314960629921
          },
          {
            "duration": 0.33333349999998063,
            "durationTicks": 240,
            "midi": 35,
            "name": "B1",
            "ticks": 127680,
            "time": 177.333422,
            "velocity": 0.7480314960629921
          },
          {
            "duration": 0.33333350000000905,
            "durationTicks": 240,
            "midi": 35,
            "name": "B1",
            "ticks": 127920,
            "time": 177.6667555,
            "velocity": 0.7480314960629921
          },
          {
            "duration": 0.33333350000000905,
            "durationTicks": 240,
            "midi": 55,
            "name": "G3",
            "ticks": 128160,
            "time": 178.000089,
            "velocity": 0.7480314960629921
          },
          {
            "duration": 0.33333350000000905,
            "durationTicks": 240,
            "midi": 37,
            "name": "C#2",
            "ticks": 128160,
            "time": 178.000089,
            "velocity": 0.7480314960629921
          },
          {
            "duration": 0.33333349999998063,
            "durationTicks": 240,
            "midi": 35,
            "name": "B1",
            "ticks": 128400,
            "time": 178.3334225,
            "velocity": 0.7480314960629921
          },
          {
            "duration": 0.6666670000000181,
            "durationTicks": 480,
            "midi": 55,
            "name": "G3",
            "ticks": 128640,
            "time": 178.666756,
            "velocity": 0.7480314960629921
          },
          {
            "duration": 0.6666670000000181,
            "durationTicks": 480,
            "midi": 35,
            "name": "B1",
            "ticks": 128640,
            "time": 178.666756,
            "velocity": 0.7480314960629921
          },
          {
            "duration": 0.33333349999998063,
            "durationTicks": 240,
            "midi": 55,
            "name": "G3",
            "ticks": 129120,
            "time": 179.333423,
            "velocity": 0.7480314960629921
          },
          {
            "duration": 0.33333349999998063,
            "durationTicks": 240,
            "midi": 37,
            "name": "C#2",
            "ticks": 129120,
            "time": 179.333423,
            "velocity": 0.7480314960629921
          },
          {
            "duration": 0.16666674999999032,
            "durationTicks": 120,
            "midi": 35,
            "name": "B1",
            "ticks": 129480,
            "time": 179.83342325,
            "velocity": 0.7480314960629921
          },
          {
            "duration": 0.33333350000000905,
            "durationTicks": 240,
            "midi": 55,
            "name": "G3",
            "ticks": 129600,
            "time": 180.00009,
            "velocity": 0.7480314960629921
          },
          {
            "duration": 0.33333350000000905,
            "durationTicks": 240,
            "midi": 35,
            "name": "B1",
            "ticks": 129600,
            "time": 180.00009,
            "velocity": 0.7480314960629921
          },
          {
            "duration": 0.6666670000000181,
            "durationTicks": 480,
            "midi": 55,
            "name": "G3",
            "ticks": 130080,
            "time": 180.666757,
            "velocity": 0.7480314960629921
          },
          {
            "duration": 0.6666670000000181,
            "durationTicks": 480,
            "midi": 37,
            "name": "C#2",
            "ticks": 130080,
            "time": 180.666757,
            "velocity": 0.7480314960629921
          },
          {
            "duration": 0.6666669999999897,
            "durationTicks": 480,
            "midi": 55,
            "name": "G3",
            "ticks": 130560,
            "time": 181.333424,
            "velocity": 0.7480314960629921
          },
          {
            "duration": 0.6666669999999897,
            "durationTicks": 480,
            "midi": 35,
            "name": "B1",
            "ticks": 130560,
            "time": 181.333424,
            "velocity": 0.7480314960629921
          },
          {
            "duration": 0.33333350000000905,
            "durationTicks": 240,
            "midi": 55,
            "name": "G3",
            "ticks": 131040,
            "time": 182.000091,
            "velocity": 0.7480314960629921
          },
          {
            "duration": 0.33333350000000905,
            "durationTicks": 240,
            "midi": 37,
            "name": "C#2",
            "ticks": 131040,
            "time": 182.000091,
            "velocity": 0.7480314960629921
          },
          {
            "duration": 0.16666675000001874,
            "durationTicks": 120,
            "midi": 35,
            "name": "B1",
            "ticks": 131400,
            "time": 182.50009125,
            "velocity": 0.7480314960629921
          },
          {
            "duration": 0.33333349999998063,
            "durationTicks": 240,
            "midi": 55,
            "name": "G3",
            "ticks": 131520,
            "time": 182.66675800000002,
            "velocity": 0.7480314960629921
          },
          {
            "duration": 0.33333349999998063,
            "durationTicks": 240,
            "midi": 35,
            "name": "B1",
            "ticks": 131520,
            "time": 182.66675800000002,
            "velocity": 0.7480314960629921
          },
          {
            "duration": 0.33333350000000905,
            "durationTicks": 240,
            "midi": 35,
            "name": "B1",
            "ticks": 131760,
            "time": 183.0000915,
            "velocity": 0.7480314960629921
          },
          {
            "duration": 0.33333350000000905,
            "durationTicks": 240,
            "midi": 55,
            "name": "G3",
            "ticks": 132000,
            "time": 183.333425,
            "velocity": 0.7480314960629921
          },
          {
            "duration": 0.33333350000000905,
            "durationTicks": 240,
            "midi": 37,
            "name": "C#2",
            "ticks": 132000,
            "time": 183.333425,
            "velocity": 0.7480314960629921
          },
          {
            "duration": 0.33333349999998063,
            "durationTicks": 240,
            "midi": 35,
            "name": "B1",
            "ticks": 132240,
            "time": 183.66675850000001,
            "velocity": 0.7480314960629921
          },
          {
            "duration": 0.6666670000000181,
            "durationTicks": 480,
            "midi": 55,
            "name": "G3",
            "ticks": 132480,
            "time": 184.000092,
            "velocity": 0.7480314960629921
          },
          {
            "duration": 0.6666670000000181,
            "durationTicks": 480,
            "midi": 35,
            "name": "B1",
            "ticks": 132480,
            "time": 184.000092,
            "velocity": 0.7480314960629921
          },
          {
            "duration": 0.33333349999998063,
            "durationTicks": 240,
            "midi": 55,
            "name": "G3",
            "ticks": 132960,
            "time": 184.666759,
            "velocity": 0.7480314960629921
          },
          {
            "duration": 0.33333349999998063,
            "durationTicks": 240,
            "midi": 37,
            "name": "C#2",
            "ticks": 132960,
            "time": 184.666759,
            "velocity": 0.7480314960629921
          },
          {
            "duration": 0.16666674999999032,
            "durationTicks": 120,
            "midi": 35,
            "name": "B1",
            "ticks": 133320,
            "time": 185.16675925,
            "velocity": 0.7480314960629921
          },
          {
            "duration": 0.33333350000000905,
            "durationTicks": 240,
            "midi": 55,
            "name": "G3",
            "ticks": 133440,
            "time": 185.333426,
            "velocity": 0.7480314960629921
          },
          {
            "duration": 0.33333350000000905,
            "durationTicks": 240,
            "midi": 35,
            "name": "B1",
            "ticks": 133440,
            "time": 185.333426,
            "velocity": 0.7480314960629921
          },
          {
            "duration": 0.6666670000000181,
            "durationTicks": 480,
            "midi": 55,
            "name": "G3",
            "ticks": 133920,
            "time": 186.000093,
            "velocity": 0.7480314960629921
          },
          {
            "duration": 0.6666670000000181,
            "durationTicks": 480,
            "midi": 37,
            "name": "C#2",
            "ticks": 133920,
            "time": 186.000093,
            "velocity": 0.7480314960629921
          },
          {
            "duration": 0.6666669999999897,
            "durationTicks": 480,
            "midi": 55,
            "name": "G3",
            "ticks": 134400,
            "time": 186.66676,
            "velocity": 0.7480314960629921
          },
          {
            "duration": 0.6666669999999897,
            "durationTicks": 480,
            "midi": 35,
            "name": "B1",
            "ticks": 134400,
            "time": 186.66676,
            "velocity": 0.7480314960629921
          },
          {
            "duration": 0.33333350000000905,
            "durationTicks": 240,
            "midi": 55,
            "name": "G3",
            "ticks": 134880,
            "time": 187.333427,
            "velocity": 0.7480314960629921
          },
          {
            "duration": 0.33333350000000905,
            "durationTicks": 240,
            "midi": 37,
            "name": "C#2",
            "ticks": 134880,
            "time": 187.333427,
            "velocity": 0.7480314960629921
          },
          {
            "duration": 0.16666674999999032,
            "durationTicks": 120,
            "midi": 35,
            "name": "B1",
            "ticks": 135240,
            "time": 187.83342725,
            "velocity": 0.7480314960629921
          },
          {
            "duration": 0.16666675000001874,
            "durationTicks": 120,
            "midi": 55,
            "name": "G3",
            "ticks": 135360,
            "time": 188.000094,
            "velocity": 0.7480314960629921
          },
          {
            "duration": 0.33333350000000905,
            "durationTicks": 240,
            "midi": 35,
            "name": "B1",
            "ticks": 135600,
            "time": 188.3334275,
            "velocity": 0.7480314960629921
          },
          {
            "duration": 0.16666674999999032,
            "durationTicks": 120,
            "midi": 55,
            "name": "G3",
            "ticks": 135840,
            "time": 188.666761,
            "velocity": 0.7480314960629921
          },
          {
            "duration": 0.16666674999999032,
            "durationTicks": 120,
            "midi": 37,
            "name": "C#2",
            "ticks": 135840,
            "time": 188.666761,
            "velocity": 0.7480314960629921
          },
          {
            "duration": 0.16666675000001874,
            "durationTicks": 120,
            "midi": 35,
            "name": "B1",
            "ticks": 136080,
            "time": 189.0000945,
            "velocity": 0.7480314960629921
          },
          {
            "duration": 0.6666670000000181,
            "durationTicks": 480,
            "midi": 55,
            "name": "G3",
            "ticks": 136320,
            "time": 189.333428,
            "velocity": 0.7480314960629921
          },
          {
            "duration": 0.6666670000000181,
            "durationTicks": 480,
            "midi": 35,
            "name": "B1",
            "ticks": 136320,
            "time": 189.333428,
            "velocity": 0.7480314960629921
          },
          {
            "duration": 0.33333349999998063,
            "durationTicks": 240,
            "midi": 55,
            "name": "G3",
            "ticks": 136800,
            "time": 190.00009500000002,
            "velocity": 0.7480314960629921
          },
          {
            "duration": 0.33333349999998063,
            "durationTicks": 240,
            "midi": 37,
            "name": "C#2",
            "ticks": 136800,
            "time": 190.00009500000002,
            "velocity": 0.7480314960629921
          },
          {
            "duration": 0.16666674999999032,
            "durationTicks": 120,
            "midi": 35,
            "name": "B1",
            "ticks": 137160,
            "time": 190.50009525000002,
            "velocity": 0.7480314960629921
          },
          {
            "duration": 0.33333350000000905,
            "durationTicks": 240,
            "midi": 55,
            "name": "G3",
            "ticks": 137280,
            "time": 190.666762,
            "velocity": 0.7480314960629921
          },
          {
            "duration": 0.33333350000000905,
            "durationTicks": 240,
            "midi": 35,
            "name": "B1",
            "ticks": 137280,
            "time": 190.666762,
            "velocity": 0.7480314960629921
          },
          {
            "duration": 0.6666670000000181,
            "durationTicks": 480,
            "midi": 55,
            "name": "G3",
            "ticks": 137760,
            "time": 191.333429,
            "velocity": 0.7480314960629921
          },
          {
            "duration": 0.6666670000000181,
            "durationTicks": 480,
            "midi": 37,
            "name": "C#2",
            "ticks": 137760,
            "time": 191.333429,
            "velocity": 0.7480314960629921
          },
          {
            "duration": 0.16666674999999032,
            "durationTicks": 120,
            "midi": 55,
            "name": "G3",
            "ticks": 138240,
            "time": 192.000096,
            "velocity": 0.7480314960629921
          },
          {
            "duration": 0.16666674999999032,
            "durationTicks": 120,
            "midi": 35,
            "name": "B1",
            "ticks": 138240,
            "time": 192.000096,
            "velocity": 0.7480314960629921
          },
          {
            "duration": 0.16666674999999032,
            "durationTicks": 120,
            "midi": 35,
            "name": "B1",
            "ticks": 138360,
            "time": 192.16676275,
            "velocity": 0.7480314960629921
          },
          {
            "duration": 0.33333350000000905,
            "durationTicks": 240,
            "midi": 55,
            "name": "G3",
            "ticks": 138720,
            "time": 192.666763,
            "velocity": 0.7480314960629921
          },
          {
            "duration": 0.33333350000000905,
            "durationTicks": 240,
            "midi": 37,
            "name": "C#2",
            "ticks": 138720,
            "time": 192.666763,
            "velocity": 0.7480314960629921
          },
          {
            "duration": 0.16666674999999032,
            "durationTicks": 120,
            "midi": 35,
            "name": "B1",
            "ticks": 139080,
            "time": 193.16676325,
            "velocity": 0.7480314960629921
          },
          {
            "duration": 0.16666675000001874,
            "durationTicks": 120,
            "midi": 55,
            "name": "G3",
            "ticks": 139200,
            "time": 193.33343,
            "velocity": 0.7480314960629921
          },
          {
            "duration": 0.16666674999999032,
            "durationTicks": 120,
            "midi": 35,
            "name": "B1",
            "ticks": 139320,
            "time": 193.50009675,
            "velocity": 0.7480314960629921
          },
          {
            "duration": 0.33333350000000905,
            "durationTicks": 240,
            "midi": 35,
            "name": "B1",
            "ticks": 139440,
            "time": 193.6667635,
            "velocity": 0.7480314960629921
          }
        ]
      },
      {
        "channel": 0,
        "controlChanges": {
          "6": [
            {
              "number": 6,
              "ticks": 32,
              "time": 0.04444446666666667,
              "value": 0.09448818897637795
            }
          ],
          "38": [
            {
              "number": 38,
              "ticks": 33,
              "time": 0.045833356250000006,
              "value": 0
            }
          ],
          "100": [
            {
              "number": 100,
              "ticks": 31,
              "time": 0.04305557708333334,
              "value": 0
            }
          ],
          "101": [
            {
              "number": 101,
              "ticks": 30,
              "time": 0.0416666875,
              "value": 0
            }
          ]
        },
        "pitchBends": [],
        "instrument": {
          "family": "piano",
          "number": 0,
          "name": "acoustic grand piano"
        },
        "name": "",
        "notes": []
      },
      {
        "channel": 0,
        "controlChanges": {
          "6": [
            {
              "number": 6,
              "ticks": 35,
              "time": 0.04861113541666667,
              "value": 0.09448818897637795
            }
          ],
          "38": [
            {
              "number": 38,
              "ticks": 36,
              "time": 0.050000025,
              "value": 0
            }
          ],
          "100": [
            {
              "number": 100,
              "ticks": 34,
              "time": 0.047222245833333336,
              "value": 0
            }
          ],
          "101": [
            {
              "number": 101,
              "ticks": 33,
              "time": 0.045833356250000006,
              "value": 0
            }
          ]
        },
        "pitchBends": [],
        "instrument": {
          "family": "piano",
          "number": 0,
          "name": "acoustic grand piano"
        },
        "name": "",
        "notes": []
      },
      {
        "channel": 0,
        "controlChanges": {
          "6": [
            {
              "number": 6,
              "ticks": 38,
              "time": 0.052777804166666664,
              "value": 0.09448818897637795
            }
          ],
          "38": [
            {
              "number": 38,
              "ticks": 39,
              "time": 0.05416669375,
              "value": 0
            }
          ],
          "100": [
            {
              "number": 100,
              "ticks": 37,
              "time": 0.051388914583333334,
              "value": 0
            }
          ],
          "101": [
            {
              "number": 101,
              "ticks": 36,
              "time": 0.050000025,
              "value": 0
            }
          ]
        },
        "pitchBends": [],
        "instrument": {
          "family": "piano",
          "number": 0,
          "name": "acoustic grand piano"
        },
        "name": "",
        "notes": []
      },
      {
        "channel": 0,
        "controlChanges": {
          "6": [
            {
              "number": 6,
              "ticks": 41,
              "time": 0.05694447291666667,
              "value": 0.09448818897637795
            }
          ],
          "38": [
            {
              "number": 38,
              "ticks": 42,
              "time": 0.0583333625,
              "value": 0
            }
          ],
          "100": [
            {
              "number": 100,
              "ticks": 40,
              "time": 0.05555558333333333,
              "value": 0
            }
          ],
          "101": [
            {
              "number": 101,
              "ticks": 39,
              "time": 0.05416669375,
              "value": 0
            }
          ]
        },
        "pitchBends": [],
        "instrument": {
          "family": "piano",
          "number": 0,
          "name": "acoustic grand piano"
        },
        "name": "",
        "notes": []
      },
      {
        "channel": 0,
        "controlChanges": {
          "6": [
            {
              "number": 6,
              "ticks": 44,
              "time": 0.06111114166666666,
              "value": 0.09448818897637795
            }
          ],
          "38": [
            {
              "number": 38,
              "ticks": 45,
              "time": 0.06250003125,
              "value": 0
            }
          ],
          "100": [
            {
              "number": 100,
              "ticks": 43,
              "time": 0.05972225208333334,
              "value": 0
            }
          ],
          "101": [
            {
              "number": 101,
              "ticks": 42,
              "time": 0.0583333625,
              "value": 0
            }
          ]
        },
        "pitchBends": [],
        "instrument": {
          "family": "piano",
          "number": 0,
          "name": "acoustic grand piano"
        },
        "name": "",
        "notes": []
      },
      {
        "channel": 1,
        "controlChanges": {
          "7": [
            {
              "number": 7,
              "ticks": 48,
              "time": 0.06666670000000001,
              "value": 1
            },
            {
              "number": 7,
              "ticks": 48,
              "time": 0.06666670000000001,
              "value": 1
            }
          ],
          "10": [
            {
              "number": 10,
              "ticks": 48,
              "time": 0.06666670000000001,
              "value": 0.5039370078740157
            },
            {
              "number": 10,
              "ticks": 48,
              "time": 0.06666670000000001,
              "value": 0.5039370078740157
            }
          ],
          "91": [
            {
              "number": 91,
              "ticks": 48,
              "time": 0.06666670000000001,
              "value": 0
            },
            {
              "number": 91,
              "ticks": 48,
              "time": 0.06666670000000001,
              "value": 0
            }
          ],
          "92": [
            {
              "number": 92,
              "ticks": 48,
              "time": 0.06666670000000001,
              "value": 0
            },
            {
              "number": 92,
              "ticks": 48,
              "time": 0.06666670000000001,
              "value": 0
            }
          ],
          "93": [
            {
              "number": 93,
              "ticks": 48,
              "time": 0.06666670000000001,
              "value": 0
            },
            {
              "number": 93,
              "ticks": 48,
              "time": 0.06666670000000001,
              "value": 0
            }
          ],
          "95": [
            {
              "number": 95,
              "ticks": 48,
              "time": 0.06666670000000001,
              "value": 0
            },
            {
              "number": 95,
              "ticks": 48,
              "time": 0.06666670000000001,
              "value": 0
            }
          ]
        },
        "pitchBends": [],
        "instrument": {
          "family": "bass",
          "number": 33,
          "name": "electric bass (finger)"
        },
        "name": "",
        "notes": [
          {
            "duration": 0.5000002499999994,
            "durationTicks": 360,
            "midi": 34,
            "name": "A#1",
            "ticks": 15360,
            "time": 21.333344,
            "velocity": 0.7480314960629921
          },
          {
            "duration": 0.33333350000000195,
            "durationTicks": 240,
            "midi": 34,
            "name": "A#1",
            "ticks": 15720,
            "time": 21.83334425,
            "velocity": 0.7480314960629921
          },
          {
            "duration": 0.33333350000000195,
            "durationTicks": 240,
            "midi": 39,
            "name": "D#2",
            "ticks": 16560,
            "time": 23.0000115,
            "velocity": 0.7480314960629921
          },
          {
            "duration": 0.5000002499999994,
            "durationTicks": 360,
            "midi": 32,
            "name": "G#1",
            "ticks": 17280,
            "time": 24.000012,
            "velocity": 0.7480314960629921
          },
          {
            "duration": 0.3333334999999984,
            "durationTicks": 240,
            "midi": 32,
            "name": "G#1",
            "ticks": 17640,
            "time": 24.50001225,
            "velocity": 0.7480314960629921
          },
          {
            "duration": 0.3333334999999984,
            "durationTicks": 240,
            "midi": 32,
            "name": "G#1",
            "ticks": 18000,
            "time": 25.0000125,
            "velocity": 0.7480314960629921
          },
          {
            "duration": 0.3333334999999984,
            "durationTicks": 240,
            "midi": 32,
            "name": "G#1",
            "ticks": 18480,
            "time": 25.6666795,
            "velocity": 0.7480314960629921
          },
          {
            "duration": 0.16666674999999742,
            "durationTicks": 120,
            "midi": 32,
            "name": "G#1",
            "ticks": 19080,
            "time": 26.500013250000002,
            "velocity": 0.7480314960629921
          },
          {
            "duration": 0.5000002499999994,
            "durationTicks": 360,
            "midi": 34,
            "name": "A#1",
            "ticks": 19200,
            "time": 26.66668,
            "velocity": 0.7480314960629921
          },
          {
            "duration": 0.33333350000000195,
            "durationTicks": 240,
            "midi": 46,
            "name": "A#2",
            "ticks": 19560,
            "time": 27.16668025,
            "velocity": 0.7480314960629921
          },
          {
            "duration": 0.3333334999999984,
            "durationTicks": 240,
            "midi": 39,
            "name": "D#2",
            "ticks": 20400,
            "time": 28.333347500000002,
            "velocity": 0.7480314960629921
          },
          {
            "duration": 0.3333334999999984,
            "durationTicks": 240,
            "midi": 51,
            "name": "D#3",
            "ticks": 20760,
            "time": 28.83334775,
            "velocity": 0.7480314960629921
          },
          {
            "duration": 0.5000002499999994,
            "durationTicks": 360,
            "midi": 32,
            "name": "G#1",
            "ticks": 21120,
            "time": 29.333348,
            "velocity": 0.7480314960629921
          },
          {
            "duration": 0.33333350000000195,
            "durationTicks": 240,
            "midi": 32,
            "name": "G#1",
            "ticks": 21480,
            "time": 29.83334825,
            "velocity": 0.7480314960629921
          },
          {
            "duration": 0.16666675000000097,
            "durationTicks": 120,
            "midi": 32,
            "name": "G#1",
            "ticks": 21960,
            "time": 30.50001525,
            "velocity": 0.7480314960629921
          },
          {
            "duration": 0.16666675000000097,
            "durationTicks": 120,
            "midi": 39,
            "name": "D#2",
            "ticks": 22200,
            "time": 30.83334875,
            "velocity": 0.7480314960629921
          },
          {
            "duration": 0.33333350000000195,
            "durationTicks": 240,
            "midi": 32,
            "name": "G#1",
            "ticks": 22320,
            "time": 31.0000155,
            "velocity": 0.7480314960629921
          },
          {
            "duration": 0.33333350000000195,
            "durationTicks": 240,
            "midi": 36,
            "name": "C2",
            "ticks": 22800,
            "time": 31.6666825,
            "velocity": 0.7480314960629921
          },
          {
            "duration": 0.5000002499999994,
            "durationTicks": 360,
            "midi": 34,
            "name": "A#1",
            "ticks": 23040,
            "time": 32.000016,
            "velocity": 0.7480314960629921
          },
          {
            "duration": 0.33333350000000195,
            "durationTicks": 240,
            "midi": 34,
            "name": "A#1",
            "ticks": 23400,
            "time": 32.50001625,
            "velocity": 0.7480314960629921
          },
          {
            "duration": 0.33333350000000195,
            "durationTicks": 240,
            "midi": 39,
            "name": "D#2",
            "ticks": 24240,
            "time": 33.6666835,
            "velocity": 0.7480314960629921
          },
          {
            "duration": 0.5000002499999994,
            "durationTicks": 360,
            "midi": 32,
            "name": "G#1",
            "ticks": 24960,
            "time": 34.666684000000004,
            "velocity": 0.7480314960629921
          },
          {
            "duration": 0.33333349999999484,
            "durationTicks": 240,
            "midi": 32,
            "name": "G#1",
            "ticks": 25320,
            "time": 35.16668425,
            "velocity": 0.7480314960629921
          },
          {
            "duration": 0.33333349999999484,
            "durationTicks": 240,
            "midi": 32,
            "name": "G#1",
            "ticks": 25680,
            "time": 35.6666845,
            "velocity": 0.7480314960629921
          },
          {
            "duration": 0.33333350000000195,
            "durationTicks": 240,
            "midi": 32,
            "name": "G#1",
            "ticks": 26160,
            "time": 36.3333515,
            "velocity": 0.7480314960629921
          },
          {
            "duration": 0.16666674999999742,
            "durationTicks": 120,
            "midi": 36,
            "name": "C2",
            "ticks": 26760,
            "time": 37.16668525,
            "velocity": 0.7480314960629921
          },
          {
            "duration": 0.5000002499999994,
            "durationTicks": 360,
            "midi": 34,
            "name": "A#1",
            "ticks": 26880,
            "time": 37.333352,
            "velocity": 0.7480314960629921
          },
          {
            "duration": 0.33333350000000195,
            "durationTicks": 240,
            "midi": 46,
            "name": "A#2",
            "ticks": 27240,
            "time": 37.83335225,
            "velocity": 0.7480314960629921
          },
          {
            "duration": 0.33333350000000195,
            "durationTicks": 240,
            "midi": 39,
            "name": "D#2",
            "ticks": 28080,
            "time": 39.0000195,
            "velocity": 0.7480314960629921
          },
          {
            "duration": 0.33333350000000195,
            "durationTicks": 240,
            "midi": 46,
            "name": "A#2",
            "ticks": 28440,
            "time": 39.50001975,
            "velocity": 0.7480314960629921
          },
          {
            "duration": 0.6666670000000039,
            "durationTicks": 480,
            "midi": 32,
            "name": "G#1",
            "ticks": 28800,
            "time": 40.00002,
            "velocity": 0.7480314960629921
          },
          {
            "duration": 0.16666675000000453,
            "durationTicks": 120,
            "midi": 32,
            "name": "G#1",
            "ticks": 30120,
            "time": 41.83335425,
            "velocity": 0.7480314960629921
          },
          {
            "duration": 0.16666674999999742,
            "durationTicks": 120,
            "midi": 32,
            "name": "G#1",
            "ticks": 30360,
            "time": 42.16668775,
            "velocity": 0.7480314960629921
          },
          {
            "duration": 0.16666675000000453,
            "durationTicks": 120,
            "midi": 44,
            "name": "G#2",
            "ticks": 30480,
            "time": 42.3333545,
            "velocity": 0.7480314960629921
          },
          {
            "duration": 0.16666674999999742,
            "durationTicks": 120,
            "midi": 46,
            "name": "A#2",
            "ticks": 30600,
            "time": 42.50002125,
            "velocity": 0.7480314960629921
          },
          {
            "duration": 0.5000002499999994,
            "durationTicks": 360,
            "midi": 34,
            "name": "A#1",
            "ticks": 46080,
            "time": 64.000032,
            "velocity": 0.7480314960629921
          },
          {
            "duration": 0.33333349999999484,
            "durationTicks": 240,
            "midi": 34,
            "name": "A#1",
            "ticks": 46440,
            "time": 64.50003225,
            "velocity": 0.7480314960629921
          },
          {
            "duration": 0.33333349999999484,
            "durationTicks": 240,
            "midi": 39,
            "name": "D#2",
            "ticks": 47280,
            "time": 65.66669950000001,
            "velocity": 0.7480314960629921
          },
          {
            "duration": 0.5000002499999994,
            "durationTicks": 360,
            "midi": 32,
            "name": "G#1",
            "ticks": 48000,
            "time": 66.6667,
            "velocity": 0.7480314960629921
          },
          {
            "duration": 0.33333349999999484,
            "durationTicks": 240,
            "midi": 32,
            "name": "G#1",
            "ticks": 48360,
            "time": 67.16670025,
            "velocity": 0.7480314960629921
          },
          {
            "duration": 0.33333349999999484,
            "durationTicks": 240,
            "midi": 32,
            "name": "G#1",
            "ticks": 48720,
            "time": 67.6667005,
            "velocity": 0.7480314960629921
          },
          {
            "duration": 0.33333350000000905,
            "durationTicks": 240,
            "midi": 32,
            "name": "G#1",
            "ticks": 49200,
            "time": 68.3333675,
            "velocity": 0.7480314960629921
          },
          {
            "duration": 0.16666675000000453,
            "durationTicks": 120,
            "midi": 32,
            "name": "G#1",
            "ticks": 49800,
            "time": 69.16670125,
            "velocity": 0.7480314960629921
          },
          {
            "duration": 0.5000002499999994,
            "durationTicks": 360,
            "midi": 34,
            "name": "A#1",
            "ticks": 49920,
            "time": 69.33336800000001,
            "velocity": 0.7480314960629921
          },
          {
            "duration": 0.33333349999999484,
            "durationTicks": 240,
            "midi": 46,
            "name": "A#2",
            "ticks": 50280,
            "time": 69.83336825,
            "velocity": 0.7480314960629921
          },
          {
            "duration": 0.33333350000000905,
            "durationTicks": 240,
            "midi": 39,
            "name": "D#2",
            "ticks": 51120,
            "time": 71.0000355,
            "velocity": 0.7480314960629921
          },
          {
            "duration": 0.33333350000000905,
            "durationTicks": 240,
            "midi": 51,
            "name": "D#3",
            "ticks": 51480,
            "time": 71.50003575,
            "velocity": 0.7480314960629921
          },
          {
            "duration": 0.5000002500000136,
            "durationTicks": 360,
            "midi": 32,
            "name": "G#1",
            "ticks": 51840,
            "time": 72.000036,
            "velocity": 0.7480314960629921
          },
          {
            "duration": 0.33333349999999484,
            "durationTicks": 240,
            "midi": 32,
            "name": "G#1",
            "ticks": 52200,
            "time": 72.50003625000001,
            "velocity": 0.7480314960629921
          },
          {
            "duration": 0.16666675000000453,
            "durationTicks": 120,
            "midi": 32,
            "name": "G#1",
            "ticks": 52680,
            "time": 73.16670325,
            "velocity": 0.7480314960629921
          },
          {
            "duration": 0.16666674999999032,
            "durationTicks": 120,
            "midi": 39,
            "name": "D#2",
            "ticks": 52920,
            "time": 73.50003675,
            "velocity": 0.7480314960629921
          },
          {
            "duration": 0.33333350000000905,
            "durationTicks": 240,
            "midi": 32,
            "name": "G#1",
            "ticks": 53040,
            "time": 73.6667035,
            "velocity": 0.7480314960629921
          },
          {
            "duration": 0.33333349999999484,
            "durationTicks": 240,
            "midi": 36,
            "name": "C2",
            "ticks": 53520,
            "time": 74.3333705,
            "velocity": 0.7480314960629921
          },
          {
            "duration": 0.5000002499999994,
            "durationTicks": 360,
            "midi": 34,
            "name": "A#1",
            "ticks": 53760,
            "time": 74.666704,
            "velocity": 0.7480314960629921
          },
          {
            "duration": 0.33333350000000905,
            "durationTicks": 240,
            "midi": 34,
            "name": "A#1",
            "ticks": 54120,
            "time": 75.16670425,
            "velocity": 0.7480314960629921
          },
          {
            "duration": 0.33333350000000905,
            "durationTicks": 240,
            "midi": 39,
            "name": "D#2",
            "ticks": 54960,
            "time": 76.3333715,
            "velocity": 0.7480314960629921
          },
          {
            "duration": 0.5000002499999994,
            "durationTicks": 360,
            "midi": 32,
            "name": "G#1",
            "ticks": 55680,
            "time": 77.333372,
            "velocity": 0.7480314960629921
          },
          {
            "duration": 0.33333350000000905,
            "durationTicks": 240,
            "midi": 32,
            "name": "G#1",
            "ticks": 56040,
            "time": 77.83337225,
            "velocity": 0.7480314960629921
          },
          {
            "duration": 0.33333350000000905,
            "durationTicks": 240,
            "midi": 32,
            "name": "G#1",
            "ticks": 56400,
            "time": 78.3333725,
            "velocity": 0.7480314960629921
          },
          {
            "duration": 0.33333349999999484,
            "durationTicks": 240,
            "midi": 32,
            "name": "G#1",
            "ticks": 56880,
            "time": 79.0000395,
            "velocity": 0.7480314960629921
          },
          {
            "duration": 0.16666674999999032,
            "durationTicks": 120,
            "midi": 36,
            "name": "C2",
            "ticks": 57480,
            "time": 79.83337325000001,
            "velocity": 0.7480314960629921
          },
          {
            "duration": 0.5000002499999994,
            "durationTicks": 360,
            "midi": 34,
            "name": "A#1",
            "ticks": 57600,
            "time": 80.00004,
            "velocity": 0.7480314960629921
          },
          {
            "duration": 0.33333350000000905,
            "durationTicks": 240,
            "midi": 46,
            "name": "A#2",
            "ticks": 57960,
            "time": 80.50004025,
            "velocity": 0.7480314960629921
          },
          {
            "duration": 0.33333349999999484,
            "durationTicks": 240,
            "midi": 39,
            "name": "D#2",
            "ticks": 58800,
            "time": 81.6667075,
            "velocity": 0.7480314960629921
          },
          {
            "duration": 0.33333349999999484,
            "durationTicks": 240,
            "midi": 46,
            "name": "A#2",
            "ticks": 59160,
            "time": 82.16670775,
            "velocity": 0.7480314960629921
          },
          {
            "duration": 0.6666670000000039,
            "durationTicks": 480,
            "midi": 32,
            "name": "G#1",
            "ticks": 59520,
            "time": 82.666708,
            "velocity": 0.7480314960629921
          },
          {
            "duration": 0.16666674999999032,
            "durationTicks": 120,
            "midi": 32,
            "name": "G#1",
            "ticks": 60840,
            "time": 84.50004225,
            "velocity": 0.7480314960629921
          },
          {
            "duration": 0.16666675000000453,
            "durationTicks": 120,
            "midi": 32,
            "name": "G#1",
            "ticks": 61080,
            "time": 84.83337575,
            "velocity": 0.7480314960629921
          },
          {
            "duration": 0.16666674999999032,
            "durationTicks": 120,
            "midi": 44,
            "name": "G#2",
            "ticks": 61200,
            "time": 85.0000425,
            "velocity": 0.7480314960629921
          },
          {
            "duration": 0.16666675000000453,
            "durationTicks": 120,
            "midi": 46,
            "name": "A#2",
            "ticks": 61320,
            "time": 85.16670925,
            "velocity": 0.7480314960629921
          },
          {
            "duration": 1.3333339999999936,
            "durationTicks": 960,
            "midi": 32,
            "name": "G#1",
            "ticks": 61440,
            "time": 85.333376,
            "velocity": 0.7480314960629921
          },
          {
            "duration": 1.3333340000000078,
            "durationTicks": 960,
            "midi": 36,
            "name": "C2",
            "ticks": 62400,
            "time": 86.66671,
            "velocity": 0.7480314960629921
          },
          {
            "duration": 2.6666680000000014,
            "durationTicks": 1920,
            "midi": 34,
            "name": "A#1",
            "ticks": 63360,
            "time": 88.000044,
            "velocity": 0.7480314960629921
          },
          {
            "duration": 1.3333339999999936,
            "durationTicks": 960,
            "midi": 32,
            "name": "G#1",
            "ticks": 65280,
            "time": 90.666712,
            "velocity": 0.7480314960629921
          },
          {
            "duration": 1.3333340000000078,
            "durationTicks": 960,
            "midi": 39,
            "name": "D#2",
            "ticks": 66240,
            "time": 92.000046,
            "velocity": 0.7480314960629921
          },
          {
            "duration": 1.3333339999999936,
            "durationTicks": 960,
            "midi": 31,
            "name": "G1",
            "ticks": 67200,
            "time": 93.33338,
            "velocity": 0.7480314960629921
          },
          {
            "duration": 1.3333340000000078,
            "durationTicks": 960,
            "midi": 32,
            "name": "G#1",
            "ticks": 68160,
            "time": 94.666714,
            "velocity": 0.7480314960629921
          },
          {
            "duration": 1.3333339999999936,
            "durationTicks": 960,
            "midi": 32,
            "name": "G#1",
            "ticks": 69120,
            "time": 96.000048,
            "velocity": 0.7480314960629921
          },
          {
            "duration": 1.3333340000000078,
            "durationTicks": 960,
            "midi": 39,
            "name": "D#2",
            "ticks": 70080,
            "time": 97.333382,
            "velocity": 0.7480314960629921
          },
          {
            "duration": 0.6666669999999897,
            "durationTicks": 480,
            "midi": 32,
            "name": "G#1",
            "ticks": 71040,
            "time": 98.66671600000001,
            "velocity": 0.7480314960629921
          },
          {
            "duration": 0.6666670000000039,
            "durationTicks": 480,
            "midi": 34,
            "name": "A#1",
            "ticks": 71520,
            "time": 99.333383,
            "velocity": 0.7480314960629921
          },
          {
            "duration": 1.3333339999999936,
            "durationTicks": 960,
            "midi": 36,
            "name": "C2",
            "ticks": 72000,
            "time": 100.00005,
            "velocity": 0.7480314960629921
          },
          {
            "duration": 1.3333340000000078,
            "durationTicks": 960,
            "midi": 32,
            "name": "G#1",
            "ticks": 72960,
            "time": 101.333384,
            "velocity": 0.7480314960629921
          },
          {
            "duration": 1.3333339999999936,
            "durationTicks": 960,
            "midi": 39,
            "name": "D#2",
            "ticks": 73920,
            "time": 102.666718,
            "velocity": 0.7480314960629921
          },
          {
            "duration": 2.0000010000000117,
            "durationTicks": 1440,
            "midi": 34,
            "name": "A#1",
            "ticks": 74880,
            "time": 104.000052,
            "velocity": 0.7480314960629921
          },
          {
            "duration": 0.6666669999999897,
            "durationTicks": 480,
            "midi": 36,
            "name": "C2",
            "ticks": 76320,
            "time": 106.00005300000001,
            "velocity": 0.7480314960629921
          },
          {
            "duration": 1.3333340000000078,
            "durationTicks": 960,
            "midi": 32,
            "name": "G#1",
            "ticks": 76800,
            "time": 106.66672,
            "velocity": 0.7480314960629921
          },
          {
            "duration": 0.5000002499999994,
            "durationTicks": 360,
            "midi": 34,
            "name": "A#1",
            "ticks": 78720,
            "time": 109.333388,
            "velocity": 0.7480314960629921
          },
          {
            "duration": 0.33333350000000905,
            "durationTicks": 240,
            "midi": 34,
            "name": "A#1",
            "ticks": 79080,
            "time": 109.83338825,
            "velocity": 0.7480314960629921
          },
          {
            "duration": 0.33333349999999484,
            "durationTicks": 240,
            "midi": 39,
            "name": "D#2",
            "ticks": 79920,
            "time": 111.0000555,
            "velocity": 0.7480314960629921
          },
          {
            "duration": 0.5000002499999994,
            "durationTicks": 360,
            "midi": 32,
            "name": "G#1",
            "ticks": 80640,
            "time": 112.000056,
            "velocity": 0.7480314960629921
          },
          {
            "duration": 0.33333349999999484,
            "durationTicks": 240,
            "midi": 32,
            "name": "G#1",
            "ticks": 81000,
            "time": 112.50005625,
            "velocity": 0.7480314960629921
          },
          {
            "duration": 0.33333350000000905,
            "durationTicks": 240,
            "midi": 32,
            "name": "G#1",
            "ticks": 81360,
            "time": 113.0000565,
            "velocity": 0.7480314960629921
          },
          {
            "duration": 0.33333349999999484,
            "durationTicks": 240,
            "midi": 32,
            "name": "G#1",
            "ticks": 81840,
            "time": 113.6667235,
            "velocity": 0.7480314960629921
          },
          {
            "duration": 0.16666675000000453,
            "durationTicks": 120,
            "midi": 32,
            "name": "G#1",
            "ticks": 82440,
            "time": 114.50005725,
            "velocity": 0.7480314960629921
          },
          {
            "duration": 0.5000002499999994,
            "durationTicks": 360,
            "midi": 34,
            "name": "A#1",
            "ticks": 82560,
            "time": 114.666724,
            "velocity": 0.7480314960629921
          },
          {
            "duration": 0.33333349999999484,
            "durationTicks": 240,
            "midi": 46,
            "name": "A#2",
            "ticks": 82920,
            "time": 115.16672425,
            "velocity": 0.7480314960629921
          },
          {
            "duration": 0.33333349999999484,
            "durationTicks": 240,
            "midi": 39,
            "name": "D#2",
            "ticks": 83760,
            "time": 116.3333915,
            "velocity": 0.7480314960629921
          },
          {
            "duration": 0.33333349999999484,
            "durationTicks": 240,
            "midi": 51,
            "name": "D#3",
            "ticks": 84120,
            "time": 116.83339175,
            "velocity": 0.7480314960629921
          },
          {
            "duration": 0.5000002499999994,
            "durationTicks": 360,
            "midi": 32,
            "name": "G#1",
            "ticks": 84480,
            "time": 117.333392,
            "velocity": 0.7480314960629921
          },
          {
            "duration": 0.33333349999999484,
            "durationTicks": 240,
            "midi": 32,
            "name": "G#1",
            "ticks": 84840,
            "time": 117.83339225,
            "velocity": 0.7480314960629921
          },
          {
            "duration": 0.16666674999999032,
            "durationTicks": 120,
            "midi": 32,
            "name": "G#1",
            "ticks": 85320,
            "time": 118.50005925,
            "velocity": 0.7480314960629921
          },
          {
            "duration": 0.16666675000000453,
            "durationTicks": 120,
            "midi": 39,
            "name": "D#2",
            "ticks": 85560,
            "time": 118.83339275,
            "velocity": 0.7480314960629921
          },
          {
            "duration": 0.33333349999999484,
            "durationTicks": 240,
            "midi": 32,
            "name": "G#1",
            "ticks": 85680,
            "time": 119.0000595,
            "velocity": 0.7480314960629921
          },
          {
            "duration": 0.33333350000000905,
            "durationTicks": 240,
            "midi": 36,
            "name": "C2",
            "ticks": 86160,
            "time": 119.6667265,
            "velocity": 0.7480314960629921
          },
          {
            "duration": 0.5000002499999994,
            "durationTicks": 360,
            "midi": 34,
            "name": "A#1",
            "ticks": 86400,
            "time": 120.00006,
            "velocity": 0.7480314960629921
          },
          {
            "duration": 0.33333349999999484,
            "durationTicks": 240,
            "midi": 34,
            "name": "A#1",
            "ticks": 86760,
            "time": 120.50006025,
            "velocity": 0.7480314960629921
          },
          {
            "duration": 0.33333349999999484,
            "durationTicks": 240,
            "midi": 39,
            "name": "D#2",
            "ticks": 87600,
            "time": 121.66672750000001,
            "velocity": 0.7480314960629921
          },
          {
            "duration": 0.5000002499999994,
            "durationTicks": 360,
            "midi": 32,
            "name": "G#1",
            "ticks": 88320,
            "time": 122.666728,
            "velocity": 0.7480314960629921
          },
          {
            "duration": 0.33333349999999484,
            "durationTicks": 240,
            "midi": 32,
            "name": "G#1",
            "ticks": 88680,
            "time": 123.16672825,
            "velocity": 0.7480314960629921
          },
          {
            "duration": 0.33333349999999484,
            "durationTicks": 240,
            "midi": 32,
            "name": "G#1",
            "ticks": 89040,
            "time": 123.6667285,
            "velocity": 0.7480314960629921
          },
          {
            "duration": 0.33333349999999484,
            "durationTicks": 240,
            "midi": 32,
            "name": "G#1",
            "ticks": 89520,
            "time": 124.33339550000001,
            "velocity": 0.7480314960629921
          },
          {
            "duration": 0.16666675000000453,
            "durationTicks": 120,
            "midi": 36,
            "name": "C2",
            "ticks": 90120,
            "time": 125.16672925,
            "velocity": 0.7480314960629921
          },
          {
            "duration": 0.5000002499999994,
            "durationTicks": 360,
            "midi": 34,
            "name": "A#1",
            "ticks": 90240,
            "time": 125.33339600000001,
            "velocity": 0.7480314960629921
          },
          {
            "duration": 0.33333349999999484,
            "durationTicks": 240,
            "midi": 46,
            "name": "A#2",
            "ticks": 90600,
            "time": 125.83339625,
            "velocity": 0.7480314960629921
          },
          {
            "duration": 0.33333350000000905,
            "durationTicks": 240,
            "midi": 39,
            "name": "D#2",
            "ticks": 91440,
            "time": 127.0000635,
            "velocity": 0.7480314960629921
          },
          {
            "duration": 0.33333350000000905,
            "durationTicks": 240,
            "midi": 46,
            "name": "A#2",
            "ticks": 91800,
            "time": 127.50006375,
            "velocity": 0.7480314960629921
          },
          {
            "duration": 0.6666669999999897,
            "durationTicks": 480,
            "midi": 32,
            "name": "G#1",
            "ticks": 92160,
            "time": 128.000064,
            "velocity": 0.7480314960629921
          },
          {
            "duration": 0.16666675000001874,
            "durationTicks": 120,
            "midi": 32,
            "name": "G#1",
            "ticks": 93480,
            "time": 129.83339825,
            "velocity": 0.7480314960629921
          },
          {
            "duration": 0.16666675000001874,
            "durationTicks": 120,
            "midi": 32,
            "name": "G#1",
            "ticks": 93720,
            "time": 130.16673175,
            "velocity": 0.7480314960629921
          },
          {
            "duration": 0.16666674999999032,
            "durationTicks": 120,
            "midi": 44,
            "name": "G#2",
            "ticks": 93840,
            "time": 130.33339850000002,
            "velocity": 0.7480314960629921
          },
          {
            "duration": 0.16666674999999032,
            "durationTicks": 120,
            "midi": 46,
            "name": "A#2",
            "ticks": 93960,
            "time": 130.50006525,
            "velocity": 0.7480314960629921
          },
          {
            "duration": 0.5000002499999994,
            "durationTicks": 360,
            "midi": 34,
            "name": "A#1",
            "ticks": 94080,
            "time": 130.666732,
            "velocity": 0.7480314960629921
          },
          {
            "duration": 0.33333350000000905,
            "durationTicks": 240,
            "midi": 34,
            "name": "A#1",
            "ticks": 94440,
            "time": 131.16673225,
            "velocity": 0.7480314960629921
          },
          {
            "duration": 0.33333349999998063,
            "durationTicks": 240,
            "midi": 39,
            "name": "D#2",
            "ticks": 95280,
            "time": 132.3333995,
            "velocity": 0.7480314960629921
          },
          {
            "duration": 0.5000002499999994,
            "durationTicks": 360,
            "midi": 32,
            "name": "G#1",
            "ticks": 96000,
            "time": 133.3334,
            "velocity": 0.7480314960629921
          },
          {
            "duration": 0.33333349999998063,
            "durationTicks": 240,
            "midi": 32,
            "name": "G#1",
            "ticks": 96360,
            "time": 133.83340025,
            "velocity": 0.7480314960629921
          },
          {
            "duration": 0.33333349999998063,
            "durationTicks": 240,
            "midi": 32,
            "name": "G#1",
            "ticks": 96720,
            "time": 134.3334005,
            "velocity": 0.7480314960629921
          },
          {
            "duration": 0.33333350000000905,
            "durationTicks": 240,
            "midi": 32,
            "name": "G#1",
            "ticks": 97200,
            "time": 135.0000675,
            "velocity": 0.7480314960629921
          },
          {
            "duration": 0.16666674999999032,
            "durationTicks": 120,
            "midi": 32,
            "name": "G#1",
            "ticks": 97800,
            "time": 135.83340125,
            "velocity": 0.7480314960629921
          },
          {
            "duration": 0.5000002499999994,
            "durationTicks": 360,
            "midi": 34,
            "name": "A#1",
            "ticks": 97920,
            "time": 136.000068,
            "velocity": 0.7480314960629921
          },
          {
            "duration": 0.33333350000000905,
            "durationTicks": 240,
            "midi": 46,
            "name": "A#2",
            "ticks": 98280,
            "time": 136.50006825,
            "velocity": 0.7480314960629921
          },
          {
            "duration": 0.33333349999998063,
            "durationTicks": 240,
            "midi": 39,
            "name": "D#2",
            "ticks": 99120,
            "time": 137.66673550000002,
            "velocity": 0.7480314960629921
          },
          {
            "duration": 0.33333349999998063,
            "durationTicks": 240,
            "midi": 51,
            "name": "D#3",
            "ticks": 99480,
            "time": 138.16673575000002,
            "velocity": 0.7480314960629921
          },
          {
            "duration": 0.5000002499999994,
            "durationTicks": 360,
            "midi": 32,
            "name": "G#1",
            "ticks": 99840,
            "time": 138.66673600000001,
            "velocity": 0.7480314960629921
          },
          {
            "duration": 0.33333349999998063,
            "durationTicks": 240,
            "midi": 32,
            "name": "G#1",
            "ticks": 100200,
            "time": 139.16673625,
            "velocity": 0.7480314960629921
          },
          {
            "duration": 0.16666674999999032,
            "durationTicks": 120,
            "midi": 32,
            "name": "G#1",
            "ticks": 100680,
            "time": 139.83340325,
            "velocity": 0.7480314960629921
          },
          {
            "duration": 0.16666674999999032,
            "durationTicks": 120,
            "midi": 39,
            "name": "D#2",
            "ticks": 100920,
            "time": 140.16673675,
            "velocity": 0.7480314960629921
          },
          {
            "duration": 0.33333350000000905,
            "durationTicks": 240,
            "midi": 32,
            "name": "G#1",
            "ticks": 101040,
            "time": 140.3334035,
            "velocity": 0.7480314960629921
          },
          {
            "duration": 0.33333350000000905,
            "durationTicks": 240,
            "midi": 36,
            "name": "C2",
            "ticks": 101520,
            "time": 141.0000705,
            "velocity": 0.7480314960629921
          },
          {
            "duration": 0.5000002499999994,
            "durationTicks": 360,
            "midi": 34,
            "name": "A#1",
            "ticks": 101760,
            "time": 141.333404,
            "velocity": 0.7480314960629921
          },
          {
            "duration": 0.33333350000000905,
            "durationTicks": 240,
            "midi": 34,
            "name": "A#1",
            "ticks": 102120,
            "time": 141.83340425,
            "velocity": 0.7480314960629921
          },
          {
            "duration": 0.33333350000000905,
            "durationTicks": 240,
            "midi": 39,
            "name": "D#2",
            "ticks": 102960,
            "time": 143.0000715,
            "velocity": 0.7480314960629921
          },
          {
            "duration": 0.5000002499999994,
            "durationTicks": 360,
            "midi": 32,
            "name": "G#1",
            "ticks": 103680,
            "time": 144.000072,
            "velocity": 0.7480314960629921
          },
          {
            "duration": 0.33333350000000905,
            "durationTicks": 240,
            "midi": 32,
            "name": "G#1",
            "ticks": 104040,
            "time": 144.50007225,
            "velocity": 0.7480314960629921
          },
          {
            "duration": 0.33333349999998063,
            "durationTicks": 240,
            "midi": 32,
            "name": "G#1",
            "ticks": 104400,
            "time": 145.00007250000002,
            "velocity": 0.7480314960629921
          },
          {
            "duration": 0.33333350000000905,
            "durationTicks": 240,
            "midi": 32,
            "name": "G#1",
            "ticks": 104880,
            "time": 145.6667395,
            "velocity": 0.7480314960629921
          },
          {
            "duration": 0.16666674999999032,
            "durationTicks": 120,
            "midi": 36,
            "name": "C2",
            "ticks": 105480,
            "time": 146.50007325,
            "velocity": 0.7480314960629921
          },
          {
            "duration": 0.5000002499999994,
            "durationTicks": 360,
            "midi": 34,
            "name": "A#1",
            "ticks": 105600,
            "time": 146.66674,
            "velocity": 0.7480314960629921
          },
          {
            "duration": 0.33333350000000905,
            "durationTicks": 240,
            "midi": 46,
            "name": "A#2",
            "ticks": 105960,
            "time": 147.16674025,
            "velocity": 0.7480314960629921
          },
          {
            "duration": 0.33333350000000905,
            "durationTicks": 240,
            "midi": 39,
            "name": "D#2",
            "ticks": 106800,
            "time": 148.3334075,
            "velocity": 0.7480314960629921
          },
          {
            "duration": 0.33333350000000905,
            "durationTicks": 240,
            "midi": 46,
            "name": "A#2",
            "ticks": 107160,
            "time": 148.83340775,
            "velocity": 0.7480314960629921
          },
          {
            "duration": 0.6666670000000181,
            "durationTicks": 480,
            "midi": 32,
            "name": "G#1",
            "ticks": 107520,
            "time": 149.333408,
            "velocity": 0.7480314960629921
          },
          {
            "duration": 0.16666674999999032,
            "durationTicks": 120,
            "midi": 32,
            "name": "G#1",
            "ticks": 108840,
            "time": 151.16674225,
            "velocity": 0.7480314960629921
          },
          {
            "duration": 0.16666674999999032,
            "durationTicks": 120,
            "midi": 32,
            "name": "G#1",
            "ticks": 109080,
            "time": 151.50007575,
            "velocity": 0.7480314960629921
          },
          {
            "duration": 0.16666674999999032,
            "durationTicks": 120,
            "midi": 44,
            "name": "G#2",
            "ticks": 109200,
            "time": 151.6667425,
            "velocity": 0.7480314960629921
          },
          {
            "duration": 0.16666675000001874,
            "durationTicks": 120,
            "midi": 46,
            "name": "A#2",
            "ticks": 109320,
            "time": 151.83340925,
            "velocity": 0.7480314960629921
          },
          {
            "duration": 1.3333340000000078,
            "durationTicks": 960,
            "midi": 32,
            "name": "G#1",
            "ticks": 109440,
            "time": 152.000076,
            "velocity": 0.7480314960629921
          },
          {
            "duration": 1.3333339999999794,
            "durationTicks": 960,
            "midi": 36,
            "name": "C2",
            "ticks": 110400,
            "time": 153.33341000000001,
            "velocity": 0.7480314960629921
          },
          {
            "duration": 2.6666680000000156,
            "durationTicks": 1920,
            "midi": 34,
            "name": "A#1",
            "ticks": 111360,
            "time": 154.666744,
            "velocity": 0.7480314960629921
          },
          {
            "duration": 1.3333339999999794,
            "durationTicks": 960,
            "midi": 32,
            "name": "G#1",
            "ticks": 113280,
            "time": 157.333412,
            "velocity": 0.7480314960629921
          },
          {
            "duration": 1.3333340000000078,
            "durationTicks": 960,
            "midi": 39,
            "name": "D#2",
            "ticks": 114240,
            "time": 158.666746,
            "velocity": 0.7480314960629921
          },
          {
            "duration": 1.3333340000000078,
            "durationTicks": 960,
            "midi": 31,
            "name": "G1",
            "ticks": 115200,
            "time": 160.00008,
            "velocity": 0.7480314960629921
          },
          {
            "duration": 1.3333340000000078,
            "durationTicks": 960,
            "midi": 32,
            "name": "G#1",
            "ticks": 116160,
            "time": 161.333414,
            "velocity": 0.7480314960629921
          },
          {
            "duration": 1.3333339999999794,
            "durationTicks": 960,
            "midi": 32,
            "name": "G#1",
            "ticks": 117120,
            "time": 162.666748,
            "velocity": 0.7480314960629921
          },
          {
            "duration": 1.3333340000000078,
            "durationTicks": 960,
            "midi": 39,
            "name": "D#2",
            "ticks": 118080,
            "time": 164.000082,
            "velocity": 0.7480314960629921
          },
          {
            "duration": 0.6666669999999897,
            "durationTicks": 480,
            "midi": 32,
            "name": "G#1",
            "ticks": 119040,
            "time": 165.333416,
            "velocity": 0.7480314960629921
          },
          {
            "duration": 0.6666670000000181,
            "durationTicks": 480,
            "midi": 34,
            "name": "A#1",
            "ticks": 119520,
            "time": 166.000083,
            "velocity": 0.7480314960629921
          },
          {
            "duration": 1.3333340000000078,
            "durationTicks": 960,
            "midi": 36,
            "name": "C2",
            "ticks": 120000,
            "time": 166.66675,
            "velocity": 0.7480314960629921
          },
          {
            "duration": 1.3333339999999794,
            "durationTicks": 960,
            "midi": 32,
            "name": "G#1",
            "ticks": 120960,
            "time": 168.00008400000002,
            "velocity": 0.7480314960629921
          },
          {
            "duration": 1.3333340000000078,
            "durationTicks": 960,
            "midi": 39,
            "name": "D#2",
            "ticks": 121920,
            "time": 169.333418,
            "velocity": 0.7480314960629921
          },
          {
            "duration": 2.0000009999999975,
            "durationTicks": 1440,
            "midi": 29,
            "name": "F1",
            "ticks": 122880,
            "time": 170.666752,
            "velocity": 0.7480314960629921
          },
          {
            "duration": 0.6666669999999897,
            "durationTicks": 480,
            "midi": 31,
            "name": "G1",
            "ticks": 124320,
            "time": 172.666753,
            "velocity": 0.7480314960629921
          },
          {
            "duration": 1.3333340000000078,
            "durationTicks": 960,
            "midi": 32,
            "name": "G#1",
            "ticks": 124800,
            "time": 173.33342,
            "velocity": 0.7480314960629921
          },
          {
            "duration": 1.3333340000000078,
            "durationTicks": 960,
            "midi": 36,
            "name": "C2",
            "ticks": 125760,
            "time": 174.666754,
            "velocity": 0.7480314960629921
          },
          {
            "duration": 2.666667999999987,
            "durationTicks": 1920,
            "midi": 34,
            "name": "A#1",
            "ticks": 126720,
            "time": 176.000088,
            "velocity": 0.7480314960629921
          },
          {
            "duration": 1.3333340000000078,
            "durationTicks": 960,
            "midi": 32,
            "name": "G#1",
            "ticks": 128640,
            "time": 178.666756,
            "velocity": 0.7480314960629921
          },
          {
            "duration": 1.3333340000000078,
            "durationTicks": 960,
            "midi": 39,
            "name": "D#2",
            "ticks": 129600,
            "time": 180.00009,
            "velocity": 0.7480314960629921
          },
          {
            "duration": 1.3333340000000078,
            "durationTicks": 960,
            "midi": 31,
            "name": "G1",
            "ticks": 130560,
            "time": 181.333424,
            "velocity": 0.7480314960629921
          },
          {
            "duration": 1.3333339999999794,
            "durationTicks": 960,
            "midi": 32,
            "name": "G#1",
            "ticks": 131520,
            "time": 182.66675800000002,
            "velocity": 0.7480314960629921
          },
          {
            "duration": 1.3333340000000078,
            "durationTicks": 960,
            "midi": 32,
            "name": "G#1",
            "ticks": 132480,
            "time": 184.000092,
            "velocity": 0.7480314960629921
          },
          {
            "duration": 1.3333340000000078,
            "durationTicks": 960,
            "midi": 39,
            "name": "D#2",
            "ticks": 133440,
            "time": 185.333426,
            "velocity": 0.7480314960629921
          },
          {
            "duration": 0.6666669999999897,
            "durationTicks": 480,
            "midi": 32,
            "name": "G#1",
            "ticks": 134400,
            "time": 186.66676,
            "velocity": 0.7480314960629921
          },
          {
            "duration": 0.6666669999999897,
            "durationTicks": 480,
            "midi": 34,
            "name": "A#1",
            "ticks": 134880,
            "time": 187.333427,
            "velocity": 0.7480314960629921
          },
          {
            "duration": 1.3333340000000078,
            "durationTicks": 960,
            "midi": 36,
            "name": "C2",
            "ticks": 135360,
            "time": 188.000094,
            "velocity": 0.7480314960629921
          },
          {
            "duration": 1.3333340000000078,
            "durationTicks": 960,
            "midi": 32,
            "name": "G#1",
            "ticks": 136320,
            "time": 189.333428,
            "velocity": 0.7480314960629921
          },
          {
            "duration": 1.3333340000000078,
            "durationTicks": 960,
            "midi": 39,
            "name": "D#2",
            "ticks": 137280,
            "time": 190.666762,
            "velocity": 0.7480314960629921
          },
          {
            "duration": 2.0000009999999975,
            "durationTicks": 1440,
            "midi": 34,
            "name": "A#1",
            "ticks": 138240,
            "time": 192.000096,
            "velocity": 0.7480314960629921
          },
          {
            "duration": 0.6666669999999897,
            "durationTicks": 480,
            "midi": 36,
            "name": "C2",
            "ticks": 139680,
            "time": 194.000097,
            "velocity": 0.7480314960629921
          }
        ]
      },
      {
        "channel": 2,
        "controlChanges": {
          "7": [
            {
              "number": 7,
              "ticks": 48,
              "time": 0.06666670000000001,
              "value": 0.6299212598425197
            },
            {
              "number": 7,
              "ticks": 48,
              "time": 0.06666670000000001,
              "value": 0.6299212598425197
            }
          ],
          "10": [
            {
              "number": 10,
              "ticks": 48,
              "time": 0.06666670000000001,
              "value": 0.5039370078740157
            },
            {
              "number": 10,
              "ticks": 48,
              "time": 0.06666670000000001,
              "value": 0.5039370078740157
            }
          ],
          "91": [
            {
              "number": 91,
              "ticks": 48,
              "time": 0.06666670000000001,
              "value": 0
            },
            {
              "number": 91,
              "ticks": 48,
              "time": 0.06666670000000001,
              "value": 0
            }
          ],
          "92": [
            {
              "number": 92,
              "ticks": 48,
              "time": 0.06666670000000001,
              "value": 0
            },
            {
              "number": 92,
              "ticks": 48,
              "time": 0.06666670000000001,
              "value": 0
            }
          ],
          "93": [
            {
              "number": 93,
              "ticks": 48,
              "time": 0.06666670000000001,
              "value": 0
            },
            {
              "number": 93,
              "ticks": 48,
              "time": 0.06666670000000001,
              "value": 0
            }
          ],
          "95": [
            {
              "number": 95,
              "ticks": 48,
              "time": 0.06666670000000001,
              "value": 0
            },
            {
              "number": 95,
              "ticks": 48,
              "time": 0.06666670000000001,
              "value": 0
            }
          ]
        },
        "pitchBends": [],
        "instrument": {
          "family": "chromatic percussion",
          "number": 10,
          "name": "music box"
        },
        "name": "",
        "notes": [
          {
            "duration": 0.33333350000000017,
            "durationTicks": 240,
            "midi": 75,
            "name": "D#5",
            "ticks": 7440,
            "time": 10.3333385,
            "velocity": 0.7480314960629921
          },
          {
            "duration": 0.33333350000000017,
            "durationTicks": 240,
            "midi": 63,
            "name": "D#4",
            "ticks": 7440,
            "time": 10.3333385,
            "velocity": 0.7480314960629921
          },
          {
            "duration": 0.5000002499999994,
            "durationTicks": 360,
            "midi": 74,
            "name": "D5",
            "ticks": 7680,
            "time": 10.666672,
            "velocity": 0.7480314960629921
          },
          {
            "duration": 0.5000002499999994,
            "durationTicks": 360,
            "midi": 62,
            "name": "D4",
            "ticks": 7680,
            "time": 10.666672,
            "velocity": 0.7480314960629921
          },
          {
            "duration": 0.5000002500000011,
            "durationTicks": 360,
            "midi": 70,
            "name": "A#4",
            "ticks": 8040,
            "time": 11.16667225,
            "velocity": 0.7480314960629921
          },
          {
            "duration": 0.5000002500000011,
            "durationTicks": 360,
            "midi": 58,
            "name": "A#3",
            "ticks": 8040,
            "time": 11.16667225,
            "velocity": 0.7480314960629921
          },
          {
            "duration": 0.33333350000000017,
            "durationTicks": 240,
            "midi": 75,
            "name": "D#5",
            "ticks": 8400,
            "time": 11.6666725,
            "velocity": 0.7480314960629921
          },
          {
            "duration": 0.33333350000000017,
            "durationTicks": 240,
            "midi": 63,
            "name": "D#4",
            "ticks": 8400,
            "time": 11.6666725,
            "velocity": 0.7480314960629921
          },
          {
            "duration": 0.5000002499999994,
            "durationTicks": 360,
            "midi": 74,
            "name": "D5",
            "ticks": 8640,
            "time": 12.000006,
            "velocity": 0.7480314960629921
          },
          {
            "duration": 0.5000002499999994,
            "durationTicks": 360,
            "midi": 62,
            "name": "D4",
            "ticks": 8640,
            "time": 12.000006,
            "velocity": 0.7480314960629921
          },
          {
            "duration": 0.5000002499999994,
            "durationTicks": 360,
            "midi": 70,
            "name": "A#4",
            "ticks": 9000,
            "time": 12.50000625,
            "velocity": 0.7480314960629921
          },
          {
            "duration": 0.5000002499999994,
            "durationTicks": 360,
            "midi": 58,
            "name": "A#3",
            "ticks": 9000,
            "time": 12.50000625,
            "velocity": 0.7480314960629921
          },
          {
            "duration": 1.3333340000000007,
            "durationTicks": 960,
            "midi": 72,
            "name": "C5",
            "ticks": 9360,
            "time": 13.0000065,
            "velocity": 0.7480314960629921
          },
          {
            "duration": 1.3333340000000007,
            "durationTicks": 960,
            "midi": 60,
            "name": "C4",
            "ticks": 9360,
            "time": 13.0000065,
            "velocity": 0.7480314960629921
          },
          {
            "duration": 0.33333350000000017,
            "durationTicks": 240,
            "midi": 70,
            "name": "A#4",
            "ticks": 10320,
            "time": 14.3333405,
            "velocity": 0.7480314960629921
          },
          {
            "duration": 0.33333350000000017,
            "durationTicks": 240,
            "midi": 58,
            "name": "A#3",
            "ticks": 10320,
            "time": 14.3333405,
            "velocity": 0.7480314960629921
          },
          {
            "duration": 0.5000002499999994,
            "durationTicks": 360,
            "midi": 72,
            "name": "C5",
            "ticks": 10560,
            "time": 14.666674,
            "velocity": 0.7480314960629921
          },
          {
            "duration": 0.5000002499999994,
            "durationTicks": 360,
            "midi": 60,
            "name": "C4",
            "ticks": 10560,
            "time": 14.666674,
            "velocity": 0.7480314960629921
          },
          {
            "duration": 0.5000002500000011,
            "durationTicks": 360,
            "midi": 75,
            "name": "D#5",
            "ticks": 10920,
            "time": 15.16667425,
            "velocity": 0.7480314960629921
          },
          {
            "duration": 0.5000002500000011,
            "durationTicks": 360,
            "midi": 63,
            "name": "D#4",
            "ticks": 10920,
            "time": 15.16667425,
            "velocity": 0.7480314960629921
          },
          {
            "duration": 1.166667249999998,
            "durationTicks": 840,
            "midi": 77,
            "name": "F5",
            "ticks": 11280,
            "time": 15.666674500000001,
            "velocity": 0.7480314960629921
          },
          {
            "duration": 1.166667249999998,
            "durationTicks": 840,
            "midi": 65,
            "name": "F4",
            "ticks": 11280,
            "time": 15.666674500000001,
            "velocity": 0.7480314960629921
          },
          {
            "duration": 0.16666675000000097,
            "durationTicks": 120,
            "midi": 70,
            "name": "A#4",
            "ticks": 12120,
            "time": 16.83334175,
            "velocity": 0.7480314960629921
          },
          {
            "duration": 0.16666675000000097,
            "durationTicks": 120,
            "midi": 58,
            "name": "A#3",
            "ticks": 12120,
            "time": 16.83334175,
            "velocity": 0.7480314960629921
          },
          {
            "duration": 0.33333350000000195,
            "durationTicks": 240,
            "midi": 70,
            "name": "A#4",
            "ticks": 12240,
            "time": 17.0000085,
            "velocity": 0.7480314960629921
          },
          {
            "duration": 0.33333350000000195,
            "durationTicks": 240,
            "midi": 58,
            "name": "A#3",
            "ticks": 12240,
            "time": 17.0000085,
            "velocity": 0.7480314960629921
          },
          {
            "duration": 0.5000002499999994,
            "durationTicks": 360,
            "midi": 79,
            "name": "G5",
            "ticks": 12480,
            "time": 17.333342000000002,
            "velocity": 0.7480314960629921
          },
          {
            "duration": 0.5000002499999994,
            "durationTicks": 360,
            "midi": 67,
            "name": "G4",
            "ticks": 12480,
            "time": 17.333342000000002,
            "velocity": 0.7480314960629921
          },
          {
            "duration": 0.5000002499999994,
            "durationTicks": 360,
            "midi": 77,
            "name": "F5",
            "ticks": 12840,
            "time": 17.83334225,
            "velocity": 0.7480314960629921
          },
          {
            "duration": 0.5000002499999994,
            "durationTicks": 360,
            "midi": 65,
            "name": "F4",
            "ticks": 12840,
            "time": 17.83334225,
            "velocity": 0.7480314960629921
          },
          {
            "duration": 3.0000014999999998,
            "durationTicks": 2160,
            "midi": 75,
            "name": "D#5",
            "ticks": 13200,
            "time": 18.3333425,
            "velocity": 0.7480314960629921
          },
          {
            "duration": 3.0000014999999998,
            "durationTicks": 2160,
            "midi": 63,
            "name": "D#4",
            "ticks": 13200,
            "time": 18.3333425,
            "velocity": 0.7480314960629921
          },
          {
            "duration": 2.0000009999999975,
            "durationTicks": 1440,
            "midi": 70,
            "name": "A#4",
            "ticks": 78720,
            "time": 109.333388,
            "velocity": 0.7480314960629921
          },
          {
            "duration": 0.6666670000000039,
            "durationTicks": 480,
            "midi": 67,
            "name": "G4",
            "ticks": 80160,
            "time": 111.333389,
            "velocity": 0.7480314960629921
          },
          {
            "duration": 2.0000009999999975,
            "durationTicks": 1440,
            "midi": 68,
            "name": "G#4",
            "ticks": 80640,
            "time": 112.000056,
            "velocity": 0.7480314960629921
          },
          {
            "duration": 0.6666670000000039,
            "durationTicks": 480,
            "midi": 70,
            "name": "A#4",
            "ticks": 82080,
            "time": 114.000057,
            "velocity": 0.7480314960629921
          },
          {
            "duration": 2.0000009999999975,
            "durationTicks": 1440,
            "midi": 65,
            "name": "F4",
            "ticks": 82560,
            "time": 114.666724,
            "velocity": 0.7480314960629921
          },
          {
            "duration": 0.6666670000000039,
            "durationTicks": 480,
            "midi": 67,
            "name": "G4",
            "ticks": 84000,
            "time": 116.666725,
            "velocity": 0.7480314960629921
          },
          {
            "duration": 2.0000009999999975,
            "durationTicks": 1440,
            "midi": 63,
            "name": "D#4",
            "ticks": 84480,
            "time": 117.333392,
            "velocity": 0.7480314960629921
          },
          {
            "duration": 0.6666670000000039,
            "durationTicks": 480,
            "midi": 75,
            "name": "D#5",
            "ticks": 85920,
            "time": 119.333393,
            "velocity": 0.7480314960629921
          },
          {
            "duration": 0.6666670000000039,
            "durationTicks": 480,
            "midi": 74,
            "name": "D5",
            "ticks": 86400,
            "time": 120.00006,
            "velocity": 0.7480314960629921
          },
          {
            "duration": 1.3333339999999936,
            "durationTicks": 960,
            "midi": 70,
            "name": "A#4",
            "ticks": 86880,
            "time": 120.66672700000001,
            "velocity": 0.7480314960629921
          },
          {
            "duration": 0.6666670000000039,
            "durationTicks": 480,
            "midi": 67,
            "name": "G4",
            "ticks": 87840,
            "time": 122.000061,
            "velocity": 0.7480314960629921
          },
          {
            "duration": 2.0000009999999975,
            "durationTicks": 1440,
            "midi": 68,
            "name": "G#4",
            "ticks": 88320,
            "time": 122.666728,
            "velocity": 0.7480314960629921
          },
          {
            "duration": 0.6666670000000039,
            "durationTicks": 480,
            "midi": 70,
            "name": "A#4",
            "ticks": 89760,
            "time": 124.666729,
            "velocity": 0.7480314960629921
          },
          {
            "duration": 2.0000009999999975,
            "durationTicks": 1440,
            "midi": 65,
            "name": "F4",
            "ticks": 90240,
            "time": 125.33339600000001,
            "velocity": 0.7480314960629921
          },
          {
            "duration": 0.6666670000000039,
            "durationTicks": 480,
            "midi": 67,
            "name": "G4",
            "ticks": 91680,
            "time": 127.333397,
            "velocity": 0.7480314960629921
          },
          {
            "duration": 1.3333339999999794,
            "durationTicks": 960,
            "midi": 63,
            "name": "D#4",
            "ticks": 92160,
            "time": 128.000064,
            "velocity": 0.7480314960629921
          }
        ]
      },
      {
        "channel": 3,
        "controlChanges": {
          "7": [
            {
              "number": 7,
              "ticks": 48,
              "time": 0.06666670000000001,
              "value": 0.6299212598425197
            },
            {
              "number": 7,
              "ticks": 48,
              "time": 0.06666670000000001,
              "value": 0.6299212598425197
            }
          ],
          "10": [
            {
              "number": 10,
              "ticks": 48,
              "time": 0.06666670000000001,
              "value": 0.5039370078740157
            },
            {
              "number": 10,
              "ticks": 48,
              "time": 0.06666670000000001,
              "value": 0.5039370078740157
            }
          ],
          "91": [
            {
              "number": 91,
              "ticks": 48,
              "time": 0.06666670000000001,
              "value": 0
            },
            {
              "number": 91,
              "ticks": 48,
              "time": 0.06666670000000001,
              "value": 0
            }
          ],
          "92": [
            {
              "number": 92,
              "ticks": 48,
              "time": 0.06666670000000001,
              "value": 0
            },
            {
              "number": 92,
              "ticks": 48,
              "time": 0.06666670000000001,
              "value": 0
            }
          ],
          "93": [
            {
              "number": 93,
              "ticks": 48,
              "time": 0.06666670000000001,
              "value": 0
            },
            {
              "number": 93,
              "ticks": 48,
              "time": 0.06666670000000001,
              "value": 0
            }
          ],
          "95": [
            {
              "number": 95,
              "ticks": 48,
              "time": 0.06666670000000001,
              "value": 0
            },
            {
              "number": 95,
              "ticks": 48,
              "time": 0.06666670000000001,
              "value": 0
            }
          ]
        },
        "pitchBends": [],
        "instrument": {
          "family": "ensemble",
          "number": 54,
          "name": "synth voice"
        },
        "name": "",
        "notes": [
          {
            "duration": 0.16666675000000097,
            "durationTicks": 120,
            "midi": 58,
            "name": "A#3",
            "ticks": 15600,
            "time": 21.6666775,
            "velocity": 0.7480314960629921
          },
          {
            "duration": 0.33333350000000195,
            "durationTicks": 240,
            "midi": 65,
            "name": "F4",
            "ticks": 15720,
            "time": 21.83334425,
            "velocity": 0.7480314960629921
          },
          {
            "duration": 0.3333334999999984,
            "durationTicks": 240,
            "midi": 65,
            "name": "F4",
            "ticks": 15960,
            "time": 22.16667775,
            "velocity": 0.7480314960629921
          },
          {
            "duration": 0.16666675000000097,
            "durationTicks": 120,
            "midi": 63,
            "name": "D#4",
            "ticks": 16200,
            "time": 22.50001125,
            "velocity": 0.7480314960629921
          },
          {
            "duration": 0.3333334999999984,
            "durationTicks": 240,
            "midi": 65,
            "name": "F4",
            "ticks": 16320,
            "time": 22.666678,
            "velocity": 0.7480314960629921
          },
          {
            "duration": 0.33333350000000195,
            "durationTicks": 240,
            "midi": 63,
            "name": "D#4",
            "ticks": 16560,
            "time": 23.0000115,
            "velocity": 0.7480314960629921
          },
          {
            "duration": 0.3333334999999984,
            "durationTicks": 240,
            "midi": 58,
            "name": "A#3",
            "ticks": 16800,
            "time": 23.333345,
            "velocity": 0.7480314960629921
          },
          {
            "duration": 0.16666675000000097,
            "durationTicks": 120,
            "midi": 58,
            "name": "A#3",
            "ticks": 17520,
            "time": 24.3333455,
            "velocity": 0.7480314960629921
          },
          {
            "duration": 0.3333334999999984,
            "durationTicks": 240,
            "midi": 60,
            "name": "C4",
            "ticks": 17640,
            "time": 24.50001225,
            "velocity": 0.7480314960629921
          },
          {
            "duration": 0.33333350000000195,
            "durationTicks": 240,
            "midi": 60,
            "name": "C4",
            "ticks": 17880,
            "time": 24.83334575,
            "velocity": 0.7480314960629921
          },
          {
            "duration": 0.16666674999999742,
            "durationTicks": 120,
            "midi": 58,
            "name": "A#3",
            "ticks": 18120,
            "time": 25.16667925,
            "velocity": 0.7480314960629921
          },
          {
            "duration": 0.33333350000000195,
            "durationTicks": 240,
            "midi": 60,
            "name": "C4",
            "ticks": 18240,
            "time": 25.333346,
            "velocity": 0.7480314960629921
          },
          {
            "duration": 0.3333334999999984,
            "durationTicks": 240,
            "midi": 63,
            "name": "D#4",
            "ticks": 18480,
            "time": 25.6666795,
            "velocity": 0.7480314960629921
          },
          {
            "duration": 0.6666670000000003,
            "durationTicks": 480,
            "midi": 65,
            "name": "F4",
            "ticks": 18720,
            "time": 26.000013,
            "velocity": 0.7480314960629921
          },
          {
            "duration": 0.3333334999999984,
            "durationTicks": 240,
            "midi": 67,
            "name": "G4",
            "ticks": 19440,
            "time": 27.0000135,
            "velocity": 0.7480314960629921
          },
          {
            "duration": 0.33333350000000195,
            "durationTicks": 240,
            "midi": 65,
            "name": "F4",
            "ticks": 19680,
            "time": 27.333347,
            "velocity": 0.7480314960629921
          },
          {
            "duration": 0.16666674999999742,
            "durationTicks": 120,
            "midi": 63,
            "name": "D#4",
            "ticks": 19920,
            "time": 27.666680500000002,
            "velocity": 0.7480314960629921
          },
          {
            "duration": 0.33333350000000195,
            "durationTicks": 240,
            "midi": 58,
            "name": "A#3",
            "ticks": 20040,
            "time": 27.83334725,
            "velocity": 0.7480314960629921
          },
          {
            "duration": 0.16666675000000097,
            "durationTicks": 120,
            "midi": 58,
            "name": "A#3",
            "ticks": 20280,
            "time": 28.16668075,
            "velocity": 0.7480314960629921
          },
          {
            "duration": 0.3333334999999984,
            "durationTicks": 240,
            "midi": 58,
            "name": "A#3",
            "ticks": 20400,
            "time": 28.333347500000002,
            "velocity": 0.7480314960629921
          },
          {
            "duration": 0.16666675000000097,
            "durationTicks": 120,
            "midi": 65,
            "name": "F4",
            "ticks": 20640,
            "time": 28.666681,
            "velocity": 0.7480314960629921
          },
          {
            "duration": 0.3333334999999984,
            "durationTicks": 240,
            "midi": 63,
            "name": "D#4",
            "ticks": 20760,
            "time": 28.83334775,
            "velocity": 0.7480314960629921
          },
          {
            "duration": 1.5000007500000017,
            "durationTicks": 1080,
            "midi": 60,
            "name": "C4",
            "ticks": 21000,
            "time": 29.16668125,
            "velocity": 0.7480314960629921
          },
          {
            "duration": 0.16666675000000453,
            "durationTicks": 120,
            "midi": 58,
            "name": "A#3",
            "ticks": 23280,
            "time": 32.3333495,
            "velocity": 0.7480314960629921
          },
          {
            "duration": 0.33333350000000195,
            "durationTicks": 240,
            "midi": 65,
            "name": "F4",
            "ticks": 23400,
            "time": 32.50001625,
            "velocity": 0.7480314960629921
          },
          {
            "duration": 0.33333349999999484,
            "durationTicks": 240,
            "midi": 65,
            "name": "F4",
            "ticks": 23640,
            "time": 32.833349750000004,
            "velocity": 0.7480314960629921
          },
          {
            "duration": 0.16666675000000453,
            "durationTicks": 120,
            "midi": 63,
            "name": "D#4",
            "ticks": 23880,
            "time": 33.16668325,
            "velocity": 0.7480314960629921
          },
          {
            "duration": 0.33333349999999484,
            "durationTicks": 240,
            "midi": 65,
            "name": "F4",
            "ticks": 24000,
            "time": 33.33335,
            "velocity": 0.7480314960629921
          },
          {
            "duration": 0.33333350000000195,
            "durationTicks": 240,
            "midi": 63,
            "name": "D#4",
            "ticks": 24240,
            "time": 33.6666835,
            "velocity": 0.7480314960629921
          },
          {
            "duration": 0.33333350000000195,
            "durationTicks": 240,
            "midi": 58,
            "name": "A#3",
            "ticks": 24480,
            "time": 34.000017,
            "velocity": 0.7480314960629921
          },
          {
            "duration": 0.33333350000000195,
            "durationTicks": 240,
            "midi": 60,
            "name": "C4",
            "ticks": 25200,
            "time": 35.0000175,
            "velocity": 0.7480314960629921
          },
          {
            "duration": 0.33333350000000195,
            "durationTicks": 240,
            "midi": 60,
            "name": "C4",
            "ticks": 25440,
            "time": 35.333351,
            "velocity": 0.7480314960629921
          },
          {
            "duration": 0.33333349999999484,
            "durationTicks": 240,
            "midi": 58,
            "name": "A#3",
            "ticks": 25680,
            "time": 35.6666845,
            "velocity": 0.7480314960629921
          },
          {
            "duration": 0.16666675000000453,
            "durationTicks": 120,
            "midi": 60,
            "name": "C4",
            "ticks": 25920,
            "time": 36.000018,
            "velocity": 0.7480314960629921
          },
          {
            "duration": 0.33333350000000195,
            "durationTicks": 240,
            "midi": 63,
            "name": "D#4",
            "ticks": 26040,
            "time": 36.16668475,
            "velocity": 0.7480314960629921
          },
          {
            "duration": 0.5000002499999994,
            "durationTicks": 360,
            "midi": 65,
            "name": "F4",
            "ticks": 26280,
            "time": 36.500018250000004,
            "velocity": 0.7480314960629921
          },
          {
            "duration": 0.16666674999999742,
            "durationTicks": 120,
            "midi": 58,
            "name": "A#3",
            "ticks": 26640,
            "time": 37.0000185,
            "velocity": 0.7480314960629921
          },
          {
            "duration": 0.33333350000000195,
            "durationTicks": 240,
            "midi": 58,
            "name": "A#3",
            "ticks": 26760,
            "time": 37.16668525,
            "velocity": 0.7480314960629921
          },
          {
            "duration": 0.5000002499999994,
            "durationTicks": 360,
            "midi": 67,
            "name": "G4",
            "ticks": 27000,
            "time": 37.50001875,
            "velocity": 0.7480314960629921
          },
          {
            "duration": 0.33333350000000195,
            "durationTicks": 240,
            "midi": 65,
            "name": "F4",
            "ticks": 27360,
            "time": 38.000019,
            "velocity": 0.7480314960629921
          },
          {
            "duration": 0.16666674999999742,
            "durationTicks": 120,
            "midi": 63,
            "name": "D#4",
            "ticks": 27600,
            "time": 38.333352500000004,
            "velocity": 0.7480314960629921
          },
          {
            "duration": 0.33333350000000195,
            "durationTicks": 240,
            "midi": 58,
            "name": "A#3",
            "ticks": 27720,
            "time": 38.50001925,
            "velocity": 0.7480314960629921
          },
          {
            "duration": 0.16666674999999742,
            "durationTicks": 120,
            "midi": 58,
            "name": "A#3",
            "ticks": 27960,
            "time": 38.83335275,
            "velocity": 0.7480314960629921
          },
          {
            "duration": 0.33333350000000195,
            "durationTicks": 240,
            "midi": 67,
            "name": "G4",
            "ticks": 28080,
            "time": 39.0000195,
            "velocity": 0.7480314960629921
          },
          {
            "duration": 0.33333349999999484,
            "durationTicks": 240,
            "midi": 65,
            "name": "F4",
            "ticks": 28320,
            "time": 39.333353,
            "velocity": 0.7480314960629921
          },
          {
            "duration": 0.33333350000000195,
            "durationTicks": 240,
            "midi": 60,
            "name": "C4",
            "ticks": 28560,
            "time": 39.6666865,
            "velocity": 0.7480314960629921
          },
          {
            "duration": 1.3333340000000007,
            "durationTicks": 960,
            "midi": 63,
            "name": "D#4",
            "ticks": 29280,
            "time": 40.666687,
            "velocity": 0.7480314960629921
          },
          {
            "duration": 0.33333349999999484,
            "durationTicks": 240,
            "midi": 67,
            "name": "G4",
            "ticks": 30960,
            "time": 43.0000215,
            "velocity": 0.7480314960629921
          },
          {
            "duration": 0.33333349999999484,
            "durationTicks": 240,
            "midi": 55,
            "name": "G3",
            "ticks": 30960,
            "time": 43.0000215,
            "velocity": 0.7480314960629921
          },
          {
            "duration": 0.33333350000000195,
            "durationTicks": 240,
            "midi": 65,
            "name": "F4",
            "ticks": 31200,
            "time": 43.333355,
            "velocity": 0.7480314960629921
          },
          {
            "duration": 0.33333350000000195,
            "durationTicks": 240,
            "midi": 53,
            "name": "F3",
            "ticks": 31200,
            "time": 43.333355,
            "velocity": 0.7480314960629921
          },
          {
            "duration": 0.16666675000000453,
            "durationTicks": 120,
            "midi": 63,
            "name": "D#4",
            "ticks": 31440,
            "time": 43.6666885,
            "velocity": 0.7480314960629921
          },
          {
            "duration": 0.16666675000000453,
            "durationTicks": 120,
            "midi": 51,
            "name": "D#3",
            "ticks": 31440,
            "time": 43.6666885,
            "velocity": 0.7480314960629921
          },
          {
            "duration": 0.33333349999999484,
            "durationTicks": 240,
            "midi": 70,
            "name": "A#4",
            "ticks": 31560,
            "time": 43.833355250000004,
            "velocity": 0.7480314960629921
          },
          {
            "duration": 0.33333349999999484,
            "durationTicks": 240,
            "midi": 58,
            "name": "A#3",
            "ticks": 31560,
            "time": 43.833355250000004,
            "velocity": 0.7480314960629921
          },
          {
            "duration": 0.5000002499999994,
            "durationTicks": 360,
            "midi": 67,
            "name": "G4",
            "ticks": 31800,
            "time": 44.16668875,
            "velocity": 0.7480314960629921
          },
          {
            "duration": 0.5000002499999994,
            "durationTicks": 360,
            "midi": 55,
            "name": "G3",
            "ticks": 31800,
            "time": 44.16668875,
            "velocity": 0.7480314960629921
          },
          {
            "duration": 0.33333350000000195,
            "durationTicks": 240,
            "midi": 65,
            "name": "F4",
            "ticks": 32160,
            "time": 44.666689,
            "velocity": 0.7480314960629921
          },
          {
            "duration": 0.33333350000000195,
            "durationTicks": 240,
            "midi": 53,
            "name": "F3",
            "ticks": 32160,
            "time": 44.666689,
            "velocity": 0.7480314960629921
          },
          {
            "duration": 0.16666674999999742,
            "durationTicks": 120,
            "midi": 63,
            "name": "D#4",
            "ticks": 32400,
            "time": 45.0000225,
            "velocity": 0.7480314960629921
          },
          {
            "duration": 0.16666674999999742,
            "durationTicks": 120,
            "midi": 51,
            "name": "D#3",
            "ticks": 32400,
            "time": 45.0000225,
            "velocity": 0.7480314960629921
          },
          {
            "duration": 1.5000007500000052,
            "durationTicks": 1080,
            "midi": 65,
            "name": "F4",
            "ticks": 32520,
            "time": 45.16668925,
            "velocity": 0.7480314960629921
          },
          {
            "duration": 1.5000007500000052,
            "durationTicks": 1080,
            "midi": 53,
            "name": "F3",
            "ticks": 32520,
            "time": 45.16668925,
            "velocity": 0.7480314960629921
          },
          {
            "duration": 0.33333350000000195,
            "durationTicks": 240,
            "midi": 58,
            "name": "A#3",
            "ticks": 33840,
            "time": 47.0000235,
            "velocity": 0.7480314960629921
          },
          {
            "duration": 0.33333350000000195,
            "durationTicks": 240,
            "midi": 46,
            "name": "A#2",
            "ticks": 33840,
            "time": 47.0000235,
            "velocity": 0.7480314960629921
          },
          {
            "duration": 0.33333350000000195,
            "durationTicks": 240,
            "midi": 63,
            "name": "D#4",
            "ticks": 34080,
            "time": 47.333357,
            "velocity": 0.7480314960629921
          },
          {
            "duration": 0.33333350000000195,
            "durationTicks": 240,
            "midi": 51,
            "name": "D#3",
            "ticks": 34080,
            "time": 47.333357,
            "velocity": 0.7480314960629921
          },
          {
            "duration": 0.16666674999999742,
            "durationTicks": 120,
            "midi": 62,
            "name": "D4",
            "ticks": 34320,
            "time": 47.6666905,
            "velocity": 0.7480314960629921
          },
          {
            "duration": 0.16666674999999742,
            "durationTicks": 120,
            "midi": 50,
            "name": "D3",
            "ticks": 34320,
            "time": 47.6666905,
            "velocity": 0.7480314960629921
          },
          {
            "duration": 1.5000007500000052,
            "durationTicks": 1080,
            "midi": 60,
            "name": "C4",
            "ticks": 34440,
            "time": 47.83335725,
            "velocity": 0.7480314960629921
          },
          {
            "duration": 1.5000007500000052,
            "durationTicks": 1080,
            "midi": 48,
            "name": "C3",
            "ticks": 34440,
            "time": 47.83335725,
            "velocity": 0.7480314960629921
          },
          {
            "duration": 1.3333339999999936,
            "durationTicks": 960,
            "midi": 58,
            "name": "A#3",
            "ticks": 35520,
            "time": 49.333358000000004,
            "velocity": 0.7480314960629921
          },
          {
            "duration": 1.3333339999999936,
            "durationTicks": 960,
            "midi": 46,
            "name": "A#2",
            "ticks": 35520,
            "time": 49.333358000000004,
            "velocity": 0.7480314960629921
          },
          {
            "duration": 1.3333340000000007,
            "durationTicks": 960,
            "midi": 62,
            "name": "D4",
            "ticks": 36480,
            "time": 50.666692,
            "velocity": 0.7480314960629921
          },
          {
            "duration": 1.3333340000000007,
            "durationTicks": 960,
            "midi": 50,
            "name": "D3",
            "ticks": 36480,
            "time": 50.666692,
            "velocity": 0.7480314960629921
          },
          {
            "duration": 1.3333340000000007,
            "durationTicks": 960,
            "midi": 60,
            "name": "C4",
            "ticks": 37440,
            "time": 52.000026,
            "velocity": 0.7480314960629921
          },
          {
            "duration": 1.3333340000000007,
            "durationTicks": 960,
            "midi": 48,
            "name": "C3",
            "ticks": 37440,
            "time": 52.000026,
            "velocity": 0.7480314960629921
          },
          {
            "duration": 0.33333350000000195,
            "durationTicks": 240,
            "midi": 60,
            "name": "C4",
            "ticks": 38400,
            "time": 53.33336,
            "velocity": 0.7480314960629921
          },
          {
            "duration": 0.33333350000000195,
            "durationTicks": 240,
            "midi": 48,
            "name": "C3",
            "ticks": 38400,
            "time": 53.33336,
            "velocity": 0.7480314960629921
          },
          {
            "duration": 0.16666674999999742,
            "durationTicks": 120,
            "midi": 60,
            "name": "C4",
            "ticks": 38640,
            "time": 53.6666935,
            "velocity": 0.7480314960629921
          },
          {
            "duration": 0.16666674999999742,
            "durationTicks": 120,
            "midi": 48,
            "name": "C3",
            "ticks": 38640,
            "time": 53.6666935,
            "velocity": 0.7480314960629921
          },
          {
            "duration": 0.5000002499999994,
            "durationTicks": 360,
            "midi": 63,
            "name": "D#4",
            "ticks": 38760,
            "time": 53.83336025,
            "velocity": 0.7480314960629921
          },
          {
            "duration": 0.5000002499999994,
            "durationTicks": 360,
            "midi": 51,
            "name": "D#3",
            "ticks": 38760,
            "time": 53.83336025,
            "velocity": 0.7480314960629921
          },
          {
            "duration": 0.33333350000000195,
            "durationTicks": 240,
            "midi": 67,
            "name": "G4",
            "ticks": 39120,
            "time": 54.3333605,
            "velocity": 0.7480314960629921
          },
          {
            "duration": 0.33333350000000195,
            "durationTicks": 240,
            "midi": 55,
            "name": "G3",
            "ticks": 39120,
            "time": 54.3333605,
            "velocity": 0.7480314960629921
          },
          {
            "duration": 0.16666675000000453,
            "durationTicks": 120,
            "midi": 65,
            "name": "F4",
            "ticks": 39360,
            "time": 54.666694,
            "velocity": 0.7480314960629921
          },
          {
            "duration": 0.16666675000000453,
            "durationTicks": 120,
            "midi": 53,
            "name": "F3",
            "ticks": 39360,
            "time": 54.666694,
            "velocity": 0.7480314960629921
          },
          {
            "duration": 0.5000002499999994,
            "durationTicks": 360,
            "midi": 63,
            "name": "D#4",
            "ticks": 39480,
            "time": 54.833360750000004,
            "velocity": 0.7480314960629921
          },
          {
            "duration": 0.5000002499999994,
            "durationTicks": 360,
            "midi": 51,
            "name": "D#3",
            "ticks": 39480,
            "time": 54.833360750000004,
            "velocity": 0.7480314960629921
          },
          {
            "duration": 0.33333349999999484,
            "durationTicks": 240,
            "midi": 58,
            "name": "A#3",
            "ticks": 39840,
            "time": 55.333361000000004,
            "velocity": 0.7480314960629921
          },
          {
            "duration": 0.33333349999999484,
            "durationTicks": 240,
            "midi": 46,
            "name": "A#2",
            "ticks": 39840,
            "time": 55.333361000000004,
            "velocity": 0.7480314960629921
          },
          {
            "duration": 0.16666675000000453,
            "durationTicks": 120,
            "midi": 58,
            "name": "A#3",
            "ticks": 40080,
            "time": 55.6666945,
            "velocity": 0.7480314960629921
          },
          {
            "duration": 0.16666675000000453,
            "durationTicks": 120,
            "midi": 46,
            "name": "A#2",
            "ticks": 40080,
            "time": 55.6666945,
            "velocity": 0.7480314960629921
          },
          {
            "duration": 0.5000002499999994,
            "durationTicks": 360,
            "midi": 60,
            "name": "C4",
            "ticks": 40200,
            "time": 55.83336125,
            "velocity": 0.7480314960629921
          },
          {
            "duration": 0.16666674999999742,
            "durationTicks": 120,
            "midi": 48,
            "name": "C3",
            "ticks": 40200,
            "time": 55.83336125,
            "velocity": 0.7480314960629921
          },
          {
            "duration": 0.33333350000000195,
            "durationTicks": 240,
            "midi": 60,
            "name": "C4",
            "ticks": 40560,
            "time": 56.3333615,
            "velocity": 0.7480314960629921
          },
          {
            "duration": 0.33333350000000195,
            "durationTicks": 240,
            "midi": 48,
            "name": "C3",
            "ticks": 40560,
            "time": 56.3333615,
            "velocity": 0.7480314960629921
          },
          {
            "duration": 0.33333349999999484,
            "durationTicks": 240,
            "midi": 63,
            "name": "D#4",
            "ticks": 40800,
            "time": 56.666695000000004,
            "velocity": 0.7480314960629921
          },
          {
            "duration": 0.33333349999999484,
            "durationTicks": 240,
            "midi": 51,
            "name": "D#3",
            "ticks": 40800,
            "time": 56.666695000000004,
            "velocity": 0.7480314960629921
          },
          {
            "duration": 0.16666675000000453,
            "durationTicks": 120,
            "midi": 65,
            "name": "F4",
            "ticks": 41040,
            "time": 57.0000285,
            "velocity": 0.7480314960629921
          },
          {
            "duration": 0.16666675000000453,
            "durationTicks": 120,
            "midi": 53,
            "name": "F3",
            "ticks": 41040,
            "time": 57.0000285,
            "velocity": 0.7480314960629921
          },
          {
            "duration": 1.3333340000000007,
            "durationTicks": 960,
            "midi": 60,
            "name": "C4",
            "ticks": 41160,
            "time": 57.166695250000004,
            "velocity": 0.7480314960629921
          },
          {
            "duration": 1.3333340000000007,
            "durationTicks": 960,
            "midi": 48,
            "name": "C3",
            "ticks": 41160,
            "time": 57.166695250000004,
            "velocity": 0.7480314960629921
          },
          {
            "duration": 0.16666674999999742,
            "durationTicks": 120,
            "midi": 58,
            "name": "A#3",
            "ticks": 42120,
            "time": 58.500029250000004,
            "velocity": 0.7480314960629921
          },
          {
            "duration": 0.16666674999999742,
            "durationTicks": 120,
            "midi": 46,
            "name": "A#2",
            "ticks": 42120,
            "time": 58.500029250000004,
            "velocity": 0.7480314960629921
          },
          {
            "duration": 0.33333350000000195,
            "durationTicks": 240,
            "midi": 60,
            "name": "C4",
            "ticks": 42240,
            "time": 58.666696,
            "velocity": 0.7480314960629921
          },
          {
            "duration": 0.33333350000000195,
            "durationTicks": 240,
            "midi": 48,
            "name": "C3",
            "ticks": 42240,
            "time": 58.666696,
            "velocity": 0.7480314960629921
          },
          {
            "duration": 0.16666674999999742,
            "durationTicks": 120,
            "midi": 63,
            "name": "D#4",
            "ticks": 42480,
            "time": 59.000029500000004,
            "velocity": 0.7480314960629921
          },
          {
            "duration": 0.16666674999999742,
            "durationTicks": 120,
            "midi": 51,
            "name": "D#3",
            "ticks": 42480,
            "time": 59.000029500000004,
            "velocity": 0.7480314960629921
          },
          {
            "duration": 0.5000002499999994,
            "durationTicks": 360,
            "midi": 63,
            "name": "D#4",
            "ticks": 42600,
            "time": 59.16669625,
            "velocity": 0.7480314960629921
          },
          {
            "duration": 0.5000002499999994,
            "durationTicks": 360,
            "midi": 51,
            "name": "D#3",
            "ticks": 42600,
            "time": 59.16669625,
            "velocity": 0.7480314960629921
          },
          {
            "duration": 0.33333350000000195,
            "durationTicks": 240,
            "midi": 67,
            "name": "G4",
            "ticks": 42960,
            "time": 59.6666965,
            "velocity": 0.7480314960629921
          },
          {
            "duration": 0.33333350000000195,
            "durationTicks": 240,
            "midi": 55,
            "name": "G3",
            "ticks": 42960,
            "time": 59.6666965,
            "velocity": 0.7480314960629921
          },
          {
            "duration": 0.16666674999999742,
            "durationTicks": 120,
            "midi": 65,
            "name": "F4",
            "ticks": 43200,
            "time": 60.00003,
            "velocity": 0.7480314960629921
          },
          {
            "duration": 0.16666674999999742,
            "durationTicks": 120,
            "midi": 53,
            "name": "F3",
            "ticks": 43200,
            "time": 60.00003,
            "velocity": 0.7480314960629921
          },
          {
            "duration": 0.5000002499999994,
            "durationTicks": 360,
            "midi": 63,
            "name": "D#4",
            "ticks": 43320,
            "time": 60.16669675,
            "velocity": 0.7480314960629921
          },
          {
            "duration": 0.5000002499999994,
            "durationTicks": 360,
            "midi": 51,
            "name": "D#3",
            "ticks": 43320,
            "time": 60.16669675,
            "velocity": 0.7480314960629921
          },
          {
            "duration": 0.33333350000000195,
            "durationTicks": 240,
            "midi": 58,
            "name": "A#3",
            "ticks": 43680,
            "time": 60.666697,
            "velocity": 0.7480314960629921
          },
          {
            "duration": 0.33333350000000195,
            "durationTicks": 240,
            "midi": 46,
            "name": "A#2",
            "ticks": 43680,
            "time": 60.666697,
            "velocity": 0.7480314960629921
          },
          {
            "duration": 0.16666674999999742,
            "durationTicks": 120,
            "midi": 63,
            "name": "D#4",
            "ticks": 43920,
            "time": 61.0000305,
            "velocity": 0.7480314960629921
          },
          {
            "duration": 0.16666674999999742,
            "durationTicks": 120,
            "midi": 51,
            "name": "D#3",
            "ticks": 43920,
            "time": 61.0000305,
            "velocity": 0.7480314960629921
          },
          {
            "duration": 1.1666672500000033,
            "durationTicks": 840,
            "midi": 65,
            "name": "F4",
            "ticks": 44040,
            "time": 61.16669725,
            "velocity": 0.7480314960629921
          },
          {
            "duration": 1.1666672500000033,
            "durationTicks": 840,
            "midi": 53,
            "name": "F3",
            "ticks": 44040,
            "time": 61.16669725,
            "velocity": 0.7480314960629921
          },
          {
            "duration": 1.3333340000000007,
            "durationTicks": 960,
            "midi": 60,
            "name": "C4",
            "ticks": 44880,
            "time": 62.3333645,
            "velocity": 0.7480314960629921
          },
          {
            "duration": 1.3333340000000007,
            "durationTicks": 960,
            "midi": 48,
            "name": "C3",
            "ticks": 44880,
            "time": 62.3333645,
            "velocity": 0.7480314960629921
          },
          {
            "duration": 0.16666675000000453,
            "durationTicks": 120,
            "midi": 58,
            "name": "A#3",
            "ticks": 46320,
            "time": 64.3333655,
            "velocity": 0.7480314960629921
          },
          {
            "duration": 0.33333349999999484,
            "durationTicks": 240,
            "midi": 65,
            "name": "F4",
            "ticks": 46440,
            "time": 64.50003225,
            "velocity": 0.7480314960629921
          },
          {
            "duration": 0.33333350000000905,
            "durationTicks": 240,
            "midi": 65,
            "name": "F4",
            "ticks": 46680,
            "time": 64.83336575,
            "velocity": 0.7480314960629921
          },
          {
            "duration": 0.16666674999999032,
            "durationTicks": 120,
            "midi": 63,
            "name": "D#4",
            "ticks": 46920,
            "time": 65.16669925000001,
            "velocity": 0.7480314960629921
          },
          {
            "duration": 0.33333350000000905,
            "durationTicks": 240,
            "midi": 65,
            "name": "F4",
            "ticks": 47040,
            "time": 65.333366,
            "velocity": 0.7480314960629921
          },
          {
            "duration": 0.33333349999999484,
            "durationTicks": 240,
            "midi": 63,
            "name": "D#4",
            "ticks": 47280,
            "time": 65.66669950000001,
            "velocity": 0.7480314960629921
          },
          {
            "duration": 0.33333349999999484,
            "durationTicks": 240,
            "midi": 58,
            "name": "A#3",
            "ticks": 47520,
            "time": 66.000033,
            "velocity": 0.7480314960629921
          },
          {
            "duration": 0.33333349999999484,
            "durationTicks": 240,
            "midi": 60,
            "name": "C4",
            "ticks": 48240,
            "time": 67.0000335,
            "velocity": 0.7480314960629921
          },
          {
            "duration": 0.33333350000000905,
            "durationTicks": 240,
            "midi": 60,
            "name": "C4",
            "ticks": 48480,
            "time": 67.333367,
            "velocity": 0.7480314960629921
          },
          {
            "duration": 0.33333349999999484,
            "durationTicks": 240,
            "midi": 58,
            "name": "A#3",
            "ticks": 48720,
            "time": 67.6667005,
            "velocity": 0.7480314960629921
          },
          {
            "duration": 0.16666675000000453,
            "durationTicks": 120,
            "midi": 60,
            "name": "C4",
            "ticks": 48960,
            "time": 68.000034,
            "velocity": 0.7480314960629921
          },
          {
            "duration": 0.33333349999999484,
            "durationTicks": 240,
            "midi": 63,
            "name": "D#4",
            "ticks": 49080,
            "time": 68.16670075,
            "velocity": 0.7480314960629921
          },
          {
            "duration": 0.5000002499999994,
            "durationTicks": 360,
            "midi": 65,
            "name": "F4",
            "ticks": 49320,
            "time": 68.50003425,
            "velocity": 0.7480314960629921
          },
          {
            "duration": 0.16666675000000453,
            "durationTicks": 120,
            "midi": 58,
            "name": "A#3",
            "ticks": 49680,
            "time": 69.0000345,
            "velocity": 0.7480314960629921
          },
          {
            "duration": 0.33333349999999484,
            "durationTicks": 240,
            "midi": 58,
            "name": "A#3",
            "ticks": 49800,
            "time": 69.16670125,
            "velocity": 0.7480314960629921
          },
          {
            "duration": 0.5000002499999994,
            "durationTicks": 360,
            "midi": 67,
            "name": "G4",
            "ticks": 50040,
            "time": 69.50003475,
            "velocity": 0.7480314960629921
          },
          {
            "duration": 0.33333350000000905,
            "durationTicks": 240,
            "midi": 65,
            "name": "F4",
            "ticks": 50400,
            "time": 70.000035,
            "velocity": 0.7480314960629921
          },
          {
            "duration": 0.16666674999999032,
            "durationTicks": 120,
            "midi": 63,
            "name": "D#4",
            "ticks": 50640,
            "time": 70.3333685,
            "velocity": 0.7480314960629921
          },
          {
            "duration": 0.33333350000000905,
            "durationTicks": 240,
            "midi": 58,
            "name": "A#3",
            "ticks": 50760,
            "time": 70.50003525,
            "velocity": 0.7480314960629921
          },
          {
            "duration": 0.5000002499999994,
            "durationTicks": 360,
            "midi": 67,
            "name": "G4",
            "ticks": 51000,
            "time": 70.83336875,
            "velocity": 0.7480314960629921
          },
          {
            "duration": 0.33333349999999484,
            "durationTicks": 240,
            "midi": 65,
            "name": "F4",
            "ticks": 51360,
            "time": 71.333369,
            "velocity": 0.7480314960629921
          },
          {
            "duration": 0.33333349999999484,
            "durationTicks": 240,
            "midi": 60,
            "name": "C4",
            "ticks": 51600,
            "time": 71.6667025,
            "velocity": 0.7480314960629921
          },
          {
            "duration": 1.3333340000000078,
            "durationTicks": 960,
            "midi": 63,
            "name": "D#4",
            "ticks": 51840,
            "time": 72.000036,
            "velocity": 0.7480314960629921
          },
          {
            "duration": 0.16666674999999032,
            "durationTicks": 120,
            "midi": 58,
            "name": "A#3",
            "ticks": 54000,
            "time": 75.0000375,
            "velocity": 0.7480314960629921
          },
          {
            "duration": 0.33333350000000905,
            "durationTicks": 240,
            "midi": 65,
            "name": "F4",
            "ticks": 54120,
            "time": 75.16670425,
            "velocity": 0.7480314960629921
          },
          {
            "duration": 0.33333349999999484,
            "durationTicks": 240,
            "midi": 65,
            "name": "F4",
            "ticks": 54360,
            "time": 75.50003775,
            "velocity": 0.7480314960629921
          },
          {
            "duration": 0.16666675000000453,
            "durationTicks": 120,
            "midi": 63,
            "name": "D#4",
            "ticks": 54600,
            "time": 75.83337125,
            "velocity": 0.7480314960629921
          },
          {
            "duration": 0.33333349999999484,
            "durationTicks": 240,
            "midi": 65,
            "name": "F4",
            "ticks": 54720,
            "time": 76.000038,
            "velocity": 0.7480314960629921
          },
          {
            "duration": 0.33333350000000905,
            "durationTicks": 240,
            "midi": 63,
            "name": "D#4",
            "ticks": 54960,
            "time": 76.3333715,
            "velocity": 0.7480314960629921
          },
          {
            "duration": 0.33333349999999484,
            "durationTicks": 240,
            "midi": 58,
            "name": "A#3",
            "ticks": 55200,
            "time": 76.66670500000001,
            "velocity": 0.7480314960629921
          },
          {
            "duration": 0.33333349999999484,
            "durationTicks": 240,
            "midi": 60,
            "name": "C4",
            "ticks": 55920,
            "time": 77.6667055,
            "velocity": 0.7480314960629921
          },
          {
            "duration": 0.33333349999999484,
            "durationTicks": 240,
            "midi": 60,
            "name": "C4",
            "ticks": 56160,
            "time": 78.000039,
            "velocity": 0.7480314960629921
          },
          {
            "duration": 0.33333350000000905,
            "durationTicks": 240,
            "midi": 58,
            "name": "A#3",
            "ticks": 56400,
            "time": 78.3333725,
            "velocity": 0.7480314960629921
          },
          {
            "duration": 0.16666674999999032,
            "durationTicks": 120,
            "midi": 60,
            "name": "C4",
            "ticks": 56640,
            "time": 78.666706,
            "velocity": 0.7480314960629921
          },
          {
            "duration": 0.33333350000000905,
            "durationTicks": 240,
            "midi": 63,
            "name": "D#4",
            "ticks": 56760,
            "time": 78.83337275,
            "velocity": 0.7480314960629921
          },
          {
            "duration": 0.5000002499999994,
            "durationTicks": 360,
            "midi": 65,
            "name": "F4",
            "ticks": 57000,
            "time": 79.16670625,
            "velocity": 0.7480314960629921
          },
          {
            "duration": 0.16666675000000453,
            "durationTicks": 120,
            "midi": 58,
            "name": "A#3",
            "ticks": 57360,
            "time": 79.6667065,
            "velocity": 0.7480314960629921
          },
          {
            "duration": 0.33333349999999484,
            "durationTicks": 240,
            "midi": 58,
            "name": "A#3",
            "ticks": 57480,
            "time": 79.83337325000001,
            "velocity": 0.7480314960629921
          },
          {
            "duration": 0.5000002499999994,
            "durationTicks": 360,
            "midi": 67,
            "name": "G4",
            "ticks": 57720,
            "time": 80.16670675,
            "velocity": 0.7480314960629921
          },
          {
            "duration": 0.33333349999999484,
            "durationTicks": 240,
            "midi": 65,
            "name": "F4",
            "ticks": 58080,
            "time": 80.666707,
            "velocity": 0.7480314960629921
          },
          {
            "duration": 0.16666675000000453,
            "durationTicks": 120,
            "midi": 63,
            "name": "D#4",
            "ticks": 58320,
            "time": 81.0000405,
            "velocity": 0.7480314960629921
          },
          {
            "duration": 0.33333349999999484,
            "durationTicks": 240,
            "midi": 58,
            "name": "A#3",
            "ticks": 58440,
            "time": 81.16670725,
            "velocity": 0.7480314960629921
          },
          {
            "duration": 0.16666675000000453,
            "durationTicks": 120,
            "midi": 58,
            "name": "A#3",
            "ticks": 58680,
            "time": 81.50004075,
            "velocity": 0.7480314960629921
          },
          {
            "duration": 0.33333349999999484,
            "durationTicks": 240,
            "midi": 67,
            "name": "G4",
            "ticks": 58800,
            "time": 81.6667075,
            "velocity": 0.7480314960629921
          },
          {
            "duration": 0.33333350000000905,
            "durationTicks": 240,
            "midi": 65,
            "name": "F4",
            "ticks": 59040,
            "time": 82.000041,
            "velocity": 0.7480314960629921
          },
          {
            "duration": 0.33333349999999484,
            "durationTicks": 240,
            "midi": 60,
            "name": "C4",
            "ticks": 59280,
            "time": 82.3333745,
            "velocity": 0.7480314960629921
          },
          {
            "duration": 2.0000009999999975,
            "durationTicks": 1440,
            "midi": 63,
            "name": "D#4",
            "ticks": 59520,
            "time": 82.666708,
            "velocity": 0.7480314960629921
          },
          {
            "duration": 0.33333350000000905,
            "durationTicks": 240,
            "midi": 67,
            "name": "G4",
            "ticks": 61680,
            "time": 85.6667095,
            "velocity": 0.7480314960629921
          },
          {
            "duration": 0.33333349999999484,
            "durationTicks": 240,
            "midi": 65,
            "name": "F4",
            "ticks": 61920,
            "time": 86.000043,
            "velocity": 0.7480314960629921
          },
          {
            "duration": 0.16666675000000453,
            "durationTicks": 120,
            "midi": 63,
            "name": "D#4",
            "ticks": 62160,
            "time": 86.3333765,
            "velocity": 0.7480314960629921
          },
          {
            "duration": 0.33333349999999484,
            "durationTicks": 240,
            "midi": 70,
            "name": "A#4",
            "ticks": 62280,
            "time": 86.50004325,
            "velocity": 0.7480314960629921
          },
          {
            "duration": 0.5000002499999994,
            "durationTicks": 360,
            "midi": 67,
            "name": "G4",
            "ticks": 62520,
            "time": 86.83337675,
            "velocity": 0.7480314960629921
          },
          {
            "duration": 0.33333350000000905,
            "durationTicks": 240,
            "midi": 65,
            "name": "F4",
            "ticks": 62880,
            "time": 87.333377,
            "velocity": 0.7480314960629921
          },
          {
            "duration": 0.16666674999999032,
            "durationTicks": 120,
            "midi": 63,
            "name": "D#4",
            "ticks": 63120,
            "time": 87.66671050000001,
            "velocity": 0.7480314960629921
          },
          {
            "duration": 1.500000749999998,
            "durationTicks": 1080,
            "midi": 65,
            "name": "F4",
            "ticks": 63240,
            "time": 87.83337725,
            "velocity": 0.7480314960629921
          },
          {
            "duration": 0.33333349999999484,
            "durationTicks": 240,
            "midi": 58,
            "name": "A#3",
            "ticks": 64560,
            "time": 89.6667115,
            "velocity": 0.7480314960629921
          },
          {
            "duration": 0.33333349999999484,
            "durationTicks": 240,
            "midi": 63,
            "name": "D#4",
            "ticks": 64800,
            "time": 90.000045,
            "velocity": 0.7480314960629921
          },
          {
            "duration": 0.16666675000000453,
            "durationTicks": 120,
            "midi": 62,
            "name": "D4",
            "ticks": 65040,
            "time": 90.3333785,
            "velocity": 0.7480314960629921
          },
          {
            "duration": 1.500000749999998,
            "durationTicks": 1080,
            "midi": 60,
            "name": "C4",
            "ticks": 65160,
            "time": 90.50004525,
            "velocity": 0.7480314960629921
          },
          {
            "duration": 1.3333340000000078,
            "durationTicks": 960,
            "midi": 58,
            "name": "A#3",
            "ticks": 66240,
            "time": 92.000046,
            "velocity": 0.7480314960629921
          },
          {
            "duration": 1.3333339999999936,
            "durationTicks": 960,
            "midi": 65,
            "name": "F4",
            "ticks": 67200,
            "time": 93.33338,
            "velocity": 0.7480314960629921
          },
          {
            "duration": 1.3333339999999936,
            "durationTicks": 960,
            "midi": 62,
            "name": "D4",
            "ticks": 67200,
            "time": 93.33338,
            "velocity": 0.7480314960629921
          },
          {
            "duration": 1.3333340000000078,
            "durationTicks": 960,
            "midi": 63,
            "name": "D#4",
            "ticks": 68160,
            "time": 94.666714,
            "velocity": 0.7480314960629921
          },
          {
            "duration": 1.3333340000000078,
            "durationTicks": 960,
            "midi": 60,
            "name": "C4",
            "ticks": 68160,
            "time": 94.666714,
            "velocity": 0.7480314960629921
          },
          {
            "duration": 0.33333349999999484,
            "durationTicks": 240,
            "midi": 60,
            "name": "C4",
            "ticks": 69120,
            "time": 96.000048,
            "velocity": 0.7480314960629921
          },
          {
            "duration": 0.16666675000000453,
            "durationTicks": 120,
            "midi": 60,
            "name": "C4",
            "ticks": 69360,
            "time": 96.3333815,
            "velocity": 0.7480314960629921
          },
          {
            "duration": 0.5000002499999994,
            "durationTicks": 360,
            "midi": 63,
            "name": "D#4",
            "ticks": 69480,
            "time": 96.50004825,
            "velocity": 0.7480314960629921
          },
          {
            "duration": 0.33333349999999484,
            "durationTicks": 240,
            "midi": 67,
            "name": "G4",
            "ticks": 69840,
            "time": 97.0000485,
            "velocity": 0.7480314960629921
          },
          {
            "duration": 0.16666675000000453,
            "durationTicks": 120,
            "midi": 65,
            "name": "F4",
            "ticks": 70080,
            "time": 97.333382,
            "velocity": 0.7480314960629921
          },
          {
            "duration": 0.5000002499999994,
            "durationTicks": 360,
            "midi": 63,
            "name": "D#4",
            "ticks": 70200,
            "time": 97.50004875,
            "velocity": 0.7480314960629921
          },
          {
            "duration": 0.33333349999999484,
            "durationTicks": 240,
            "midi": 58,
            "name": "A#3",
            "ticks": 70560,
            "time": 98.000049,
            "velocity": 0.7480314960629921
          },
          {
            "duration": 0.16666675000000453,
            "durationTicks": 120,
            "midi": 58,
            "name": "A#3",
            "ticks": 70800,
            "time": 98.3333825,
            "velocity": 0.7480314960629921
          },
          {
            "duration": 0.5000002499999994,
            "durationTicks": 360,
            "midi": 60,
            "name": "C4",
            "ticks": 70920,
            "time": 98.50004925,
            "velocity": 0.7480314960629921
          },
          {
            "duration": 0.33333349999999484,
            "durationTicks": 240,
            "midi": 60,
            "name": "C4",
            "ticks": 71280,
            "time": 99.0000495,
            "velocity": 0.7480314960629921
          },
          {
            "duration": 0.33333350000000905,
            "durationTicks": 240,
            "midi": 63,
            "name": "D#4",
            "ticks": 71520,
            "time": 99.333383,
            "velocity": 0.7480314960629921
          },
          {
            "duration": 0.16666674999999032,
            "durationTicks": 120,
            "midi": 65,
            "name": "F4",
            "ticks": 71760,
            "time": 99.6667165,
            "velocity": 0.7480314960629921
          },
          {
            "duration": 1.3333340000000078,
            "durationTicks": 960,
            "midi": 60,
            "name": "C4",
            "ticks": 71880,
            "time": 99.83338325,
            "velocity": 0.7480314960629921
          },
          {
            "duration": 0.16666674999999032,
            "durationTicks": 120,
            "midi": 58,
            "name": "A#3",
            "ticks": 72840,
            "time": 101.16671725,
            "velocity": 0.7480314960629921
          },
          {
            "duration": 0.33333350000000905,
            "durationTicks": 240,
            "midi": 60,
            "name": "C4",
            "ticks": 72960,
            "time": 101.333384,
            "velocity": 0.7480314960629921
          },
          {
            "duration": 0.16666674999999032,
            "durationTicks": 120,
            "midi": 63,
            "name": "D#4",
            "ticks": 73200,
            "time": 101.6667175,
            "velocity": 0.7480314960629921
          },
          {
            "duration": 0.5000002500000136,
            "durationTicks": 360,
            "midi": 63,
            "name": "D#4",
            "ticks": 73320,
            "time": 101.83338425,
            "velocity": 0.7480314960629921
          },
          {
            "duration": 0.33333349999999484,
            "durationTicks": 240,
            "midi": 67,
            "name": "G4",
            "ticks": 73680,
            "time": 102.33338450000001,
            "velocity": 0.7480314960629921
          },
          {
            "duration": 0.16666675000000453,
            "durationTicks": 120,
            "midi": 65,
            "name": "F4",
            "ticks": 73920,
            "time": 102.666718,
            "velocity": 0.7480314960629921
          },
          {
            "duration": 0.5000002499999994,
            "durationTicks": 360,
            "midi": 63,
            "name": "D#4",
            "ticks": 74040,
            "time": 102.83338475000001,
            "velocity": 0.7480314960629921
          },
          {
            "duration": 0.33333349999999484,
            "durationTicks": 240,
            "midi": 58,
            "name": "A#3",
            "ticks": 74400,
            "time": 103.333385,
            "velocity": 0.7480314960629921
          },
          {
            "duration": 0.16666675000000453,
            "durationTicks": 120,
            "midi": 63,
            "name": "D#4",
            "ticks": 74640,
            "time": 103.6667185,
            "velocity": 0.7480314960629921
          },
          {
            "duration": 1.833334249999993,
            "durationTicks": 1320,
            "midi": 65,
            "name": "F4",
            "ticks": 74760,
            "time": 103.83338525,
            "velocity": 0.7480314960629921
          },
          {
            "duration": 0.33333350000000905,
            "durationTicks": 240,
            "midi": 67,
            "name": "G4",
            "ticks": 76080,
            "time": 105.6667195,
            "velocity": 0.7480314960629921
          },
          {
            "duration": 0.33333349999999484,
            "durationTicks": 240,
            "midi": 65,
            "name": "F4",
            "ticks": 76320,
            "time": 106.00005300000001,
            "velocity": 0.7480314960629921
          },
          {
            "duration": 0.16666675000000453,
            "durationTicks": 120,
            "midi": 63,
            "name": "D#4",
            "ticks": 76560,
            "time": 106.3333865,
            "velocity": 0.7480314960629921
          },
          {
            "duration": 0.16666674999999032,
            "durationTicks": 120,
            "midi": 63,
            "name": "D#4",
            "ticks": 76680,
            "time": 106.50005325000001,
            "velocity": 0.7480314960629921
          },
          {
            "duration": 0.33333349999999484,
            "durationTicks": 240,
            "midi": 58,
            "name": "A#3",
            "ticks": 78960,
            "time": 109.66672150000001,
            "velocity": 0.7480314960629921
          },
          {
            "duration": 0.33333349999999484,
            "durationTicks": 240,
            "midi": 65,
            "name": "F4",
            "ticks": 79200,
            "time": 110.000055,
            "velocity": 0.7480314960629921
          },
          {
            "duration": 0.33333350000000905,
            "durationTicks": 240,
            "midi": 63,
            "name": "D#4",
            "ticks": 79440,
            "time": 110.3333885,
            "velocity": 0.7480314960629921
          },
          {
            "duration": 0.16666674999999032,
            "durationTicks": 120,
            "midi": 65,
            "name": "F4",
            "ticks": 79680,
            "time": 110.66672200000001,
            "velocity": 0.7480314960629921
          },
          {
            "duration": 0.5000002499999994,
            "durationTicks": 360,
            "midi": 63,
            "name": "D#4",
            "ticks": 79800,
            "time": 110.83338875,
            "velocity": 0.7480314960629921
          },
          {
            "duration": 0.33333350000000905,
            "durationTicks": 240,
            "midi": 65,
            "name": "F4",
            "ticks": 80160,
            "time": 111.333389,
            "velocity": 0.7480314960629921
          },
          {
            "duration": 0.16666674999999032,
            "durationTicks": 120,
            "midi": 63,
            "name": "D#4",
            "ticks": 80400,
            "time": 111.6667225,
            "velocity": 0.7480314960629921
          },
          {
            "duration": 0.8333337500000084,
            "durationTicks": 600,
            "midi": 60,
            "name": "C4",
            "ticks": 80520,
            "time": 111.83338925,
            "velocity": 0.7480314960629921
          },
          {
            "duration": 0.5000002499999994,
            "durationTicks": 360,
            "midi": 58,
            "name": "A#3",
            "ticks": 81120,
            "time": 112.666723,
            "velocity": 0.7480314960629921
          },
          {
            "duration": 0.33333349999999484,
            "durationTicks": 240,
            "midi": 60,
            "name": "C4",
            "ticks": 81480,
            "time": 113.16672325,
            "velocity": 0.7480314960629921
          },
          {
            "duration": 0.33333350000000905,
            "durationTicks": 240,
            "midi": 63,
            "name": "D#4",
            "ticks": 81720,
            "time": 113.50005675,
            "velocity": 0.7480314960629921
          },
          {
            "duration": 0.16666674999999032,
            "durationTicks": 120,
            "midi": 58,
            "name": "A#3",
            "ticks": 81960,
            "time": 113.83339025000001,
            "velocity": 0.7480314960629921
          },
          {
            "duration": 0.33333350000000905,
            "durationTicks": 240,
            "midi": 60,
            "name": "C4",
            "ticks": 82080,
            "time": 114.000057,
            "velocity": 0.7480314960629921
          },
          {
            "duration": 0.33333349999999484,
            "durationTicks": 240,
            "midi": 63,
            "name": "D#4",
            "ticks": 82320,
            "time": 114.33339050000001,
            "velocity": 0.7480314960629921
          },
          {
            "duration": 0.6666669999999897,
            "durationTicks": 480,
            "midi": 58,
            "name": "A#3",
            "ticks": 82320,
            "time": 114.33339050000001,
            "velocity": 0.7480314960629921
          },
          {
            "duration": 0.5000002499999994,
            "durationTicks": 360,
            "midi": 58,
            "name": "A#3",
            "ticks": 82680,
            "time": 114.83339075,
            "velocity": 0.7480314960629921
          },
          {
            "duration": 0.33333350000000905,
            "durationTicks": 240,
            "midi": 65,
            "name": "F4",
            "ticks": 82800,
            "time": 115.0000575,
            "velocity": 0.7480314960629921
          },
          {
            "duration": 0.33333349999999484,
            "durationTicks": 240,
            "midi": 65,
            "name": "F4",
            "ticks": 83040,
            "time": 115.333391,
            "velocity": 0.7480314960629921
          },
          {
            "duration": 0.33333349999999484,
            "durationTicks": 240,
            "midi": 63,
            "name": "D#4",
            "ticks": 83280,
            "time": 115.6667245,
            "velocity": 0.7480314960629921
          },
          {
            "duration": 0.16666675000000453,
            "durationTicks": 120,
            "midi": 65,
            "name": "F4",
            "ticks": 83520,
            "time": 116.000058,
            "velocity": 0.7480314960629921
          },
          {
            "duration": 0.33333349999999484,
            "durationTicks": 240,
            "midi": 63,
            "name": "D#4",
            "ticks": 83640,
            "time": 116.16672475,
            "velocity": 0.7480314960629921
          },
          {
            "duration": 0.16666675000000453,
            "durationTicks": 120,
            "midi": 58,
            "name": "A#3",
            "ticks": 83880,
            "time": 116.50005825,
            "velocity": 0.7480314960629921
          },
          {
            "duration": 0.33333350000000905,
            "durationTicks": 240,
            "midi": 65,
            "name": "F4",
            "ticks": 84000,
            "time": 116.666725,
            "velocity": 0.7480314960629921
          },
          {
            "duration": 0.16666674999999032,
            "durationTicks": 120,
            "midi": 67,
            "name": "G4",
            "ticks": 84240,
            "time": 117.00005850000001,
            "velocity": 0.7480314960629921
          },
          {
            "duration": 0.8333337500000084,
            "durationTicks": 600,
            "midi": 63,
            "name": "D#4",
            "ticks": 84360,
            "time": 117.16672525,
            "velocity": 0.7480314960629921
          },
          {
            "duration": 0.5000002499999994,
            "durationTicks": 360,
            "midi": 58,
            "name": "A#3",
            "ticks": 84960,
            "time": 118.00005900000001,
            "velocity": 0.7480314960629921
          },
          {
            "duration": 0.33333349999999484,
            "durationTicks": 240,
            "midi": 56,
            "name": "G#3",
            "ticks": 85320,
            "time": 118.50005925,
            "velocity": 0.7480314960629921
          },
          {
            "duration": 0.33333349999999484,
            "durationTicks": 240,
            "midi": 60,
            "name": "C4",
            "ticks": 85560,
            "time": 118.83339275,
            "velocity": 0.7480314960629921
          },
          {
            "duration": 0.16666675000000453,
            "durationTicks": 120,
            "midi": 58,
            "name": "A#3",
            "ticks": 85800,
            "time": 119.16672625,
            "velocity": 0.7480314960629921
          },
          {
            "duration": 0.33333349999999484,
            "durationTicks": 240,
            "midi": 63,
            "name": "D#4",
            "ticks": 85920,
            "time": 119.333393,
            "velocity": 0.7480314960629921
          },
          {
            "duration": 0.33333350000000905,
            "durationTicks": 240,
            "midi": 65,
            "name": "F4",
            "ticks": 86160,
            "time": 119.6667265,
            "velocity": 0.7480314960629921
          },
          {
            "duration": 0.33333349999999484,
            "durationTicks": 240,
            "midi": 58,
            "name": "A#3",
            "ticks": 86400,
            "time": 120.00006,
            "velocity": 0.7480314960629921
          },
          {
            "duration": 0.33333350000000905,
            "durationTicks": 240,
            "midi": 65,
            "name": "F4",
            "ticks": 86640,
            "time": 120.3333935,
            "velocity": 0.7480314960629921
          },
          {
            "duration": 0.33333349999999484,
            "durationTicks": 240,
            "midi": 65,
            "name": "F4",
            "ticks": 86880,
            "time": 120.66672700000001,
            "velocity": 0.7480314960629921
          },
          {
            "duration": 0.33333349999999484,
            "durationTicks": 240,
            "midi": 63,
            "name": "D#4",
            "ticks": 87120,
            "time": 121.0000605,
            "velocity": 0.7480314960629921
          },
          {
            "duration": 0.16666675000000453,
            "durationTicks": 120,
            "midi": 65,
            "name": "F4",
            "ticks": 87360,
            "time": 121.333394,
            "velocity": 0.7480314960629921
          },
          {
            "duration": 0.33333349999999484,
            "durationTicks": 240,
            "midi": 63,
            "name": "D#4",
            "ticks": 87480,
            "time": 121.50006075,
            "velocity": 0.7480314960629921
          },
          {
            "duration": 0.16666675000000453,
            "durationTicks": 120,
            "midi": 63,
            "name": "D#4",
            "ticks": 87720,
            "time": 121.83339425,
            "velocity": 0.7480314960629921
          },
          {
            "duration": 0.33333349999999484,
            "durationTicks": 240,
            "midi": 65,
            "name": "F4",
            "ticks": 87840,
            "time": 122.000061,
            "velocity": 0.7480314960629921
          },
          {
            "duration": 0.33333350000000905,
            "durationTicks": 240,
            "midi": 63,
            "name": "D#4",
            "ticks": 88080,
            "time": 122.3333945,
            "velocity": 0.7480314960629921
          },
          {
            "duration": 0.6666669999999897,
            "durationTicks": 480,
            "midi": 60,
            "name": "C4",
            "ticks": 88320,
            "time": 122.666728,
            "velocity": 0.7480314960629921
          },
          {
            "duration": 0.5000002499999994,
            "durationTicks": 360,
            "midi": 58,
            "name": "A#3",
            "ticks": 88800,
            "time": 123.333395,
            "velocity": 0.7480314960629921
          },
          {
            "duration": 0.33333350000000905,
            "durationTicks": 240,
            "midi": 60,
            "name": "C4",
            "ticks": 89160,
            "time": 123.83339525,
            "velocity": 0.7480314960629921
          },
          {
            "duration": 0.33333349999999484,
            "durationTicks": 240,
            "midi": 63,
            "name": "D#4",
            "ticks": 89400,
            "time": 124.16672875,
            "velocity": 0.7480314960629921
          },
          {
            "duration": 0.16666675000000453,
            "durationTicks": 120,
            "midi": 58,
            "name": "A#3",
            "ticks": 89640,
            "time": 124.50006225,
            "velocity": 0.7480314960629921
          },
          {
            "duration": 0.33333349999999484,
            "durationTicks": 240,
            "midi": 60,
            "name": "C4",
            "ticks": 89760,
            "time": 124.666729,
            "velocity": 0.7480314960629921
          },
          {
            "duration": 0.33333350000000905,
            "durationTicks": 240,
            "midi": 63,
            "name": "D#4",
            "ticks": 90000,
            "time": 125.0000625,
            "velocity": 0.7480314960629921
          },
          {
            "duration": 0.6666670000000039,
            "durationTicks": 480,
            "midi": 58,
            "name": "A#3",
            "ticks": 90000,
            "time": 125.0000625,
            "velocity": 0.7480314960629921
          },
          {
            "duration": 0.5000002499999994,
            "durationTicks": 360,
            "midi": 58,
            "name": "A#3",
            "ticks": 90360,
            "time": 125.50006275,
            "velocity": 0.7480314960629921
          },
          {
            "duration": 0.33333349999999484,
            "durationTicks": 240,
            "midi": 65,
            "name": "F4",
            "ticks": 90480,
            "time": 125.6667295,
            "velocity": 0.7480314960629921
          },
          {
            "duration": 0.33333350000000905,
            "durationTicks": 240,
            "midi": 65,
            "name": "F4",
            "ticks": 90720,
            "time": 126.000063,
            "velocity": 0.7480314960629921
          },
          {
            "duration": 0.33333349999999484,
            "durationTicks": 240,
            "midi": 63,
            "name": "D#4",
            "ticks": 90960,
            "time": 126.3333965,
            "velocity": 0.7480314960629921
          },
          {
            "duration": 0.16666675000000453,
            "durationTicks": 120,
            "midi": 65,
            "name": "F4",
            "ticks": 91200,
            "time": 126.66673,
            "velocity": 0.7480314960629921
          },
          {
            "duration": 0.33333349999999484,
            "durationTicks": 240,
            "midi": 63,
            "name": "D#4",
            "ticks": 91320,
            "time": 126.83339675,
            "velocity": 0.7480314960629921
          },
          {
            "duration": 0.16666675000000453,
            "durationTicks": 120,
            "midi": 58,
            "name": "A#3",
            "ticks": 91560,
            "time": 127.16673025,
            "velocity": 0.7480314960629921
          },
          {
            "duration": 0.33333349999999484,
            "durationTicks": 240,
            "midi": 65,
            "name": "F4",
            "ticks": 91680,
            "time": 127.333397,
            "velocity": 0.7480314960629921
          },
          {
            "duration": 0.16666675000000453,
            "durationTicks": 120,
            "midi": 67,
            "name": "G4",
            "ticks": 91920,
            "time": 127.6667305,
            "velocity": 0.7480314960629921
          },
          {
            "duration": 0.8333337499999942,
            "durationTicks": 600,
            "midi": 63,
            "name": "D#4",
            "ticks": 92040,
            "time": 127.83339725,
            "velocity": 0.7480314960629921
          },
          {
            "duration": 0.16666674999999032,
            "durationTicks": 120,
            "midi": 58,
            "name": "A#3",
            "ticks": 94320,
            "time": 131.0000655,
            "velocity": 0.7480314960629921
          },
          {
            "duration": 0.33333350000000905,
            "durationTicks": 240,
            "midi": 65,
            "name": "F4",
            "ticks": 94440,
            "time": 131.16673225,
            "velocity": 0.7480314960629921
          },
          {
            "duration": 0.33333350000000905,
            "durationTicks": 240,
            "midi": 65,
            "name": "F4",
            "ticks": 94680,
            "time": 131.50006575,
            "velocity": 0.7480314960629921
          },
          {
            "duration": 0.16666674999999032,
            "durationTicks": 120,
            "midi": 63,
            "name": "D#4",
            "ticks": 94920,
            "time": 131.83339925,
            "velocity": 0.7480314960629921
          },
          {
            "duration": 0.33333350000000905,
            "durationTicks": 240,
            "midi": 65,
            "name": "F4",
            "ticks": 95040,
            "time": 132.000066,
            "velocity": 0.7480314960629921
          },
          {
            "duration": 0.33333349999998063,
            "durationTicks": 240,
            "midi": 63,
            "name": "D#4",
            "ticks": 95280,
            "time": 132.3333995,
            "velocity": 0.7480314960629921
          },
          {
            "duration": 0.33333350000000905,
            "durationTicks": 240,
            "midi": 58,
            "name": "A#3",
            "ticks": 95520,
            "time": 132.666733,
            "velocity": 0.7480314960629921
          },
          {
            "duration": 0.16666675000001874,
            "durationTicks": 120,
            "midi": 58,
            "name": "A#3",
            "ticks": 96240,
            "time": 133.6667335,
            "velocity": 0.7480314960629921
          },
          {
            "duration": 0.33333349999998063,
            "durationTicks": 240,
            "midi": 60,
            "name": "C4",
            "ticks": 96360,
            "time": 133.83340025,
            "velocity": 0.7480314960629921
          },
          {
            "duration": 0.33333350000000905,
            "durationTicks": 240,
            "midi": 60,
            "name": "C4",
            "ticks": 96600,
            "time": 134.16673375,
            "velocity": 0.7480314960629921
          },
          {
            "duration": 0.16666674999999032,
            "durationTicks": 120,
            "midi": 58,
            "name": "A#3",
            "ticks": 96840,
            "time": 134.50006725,
            "velocity": 0.7480314960629921
          },
          {
            "duration": 0.33333350000000905,
            "durationTicks": 240,
            "midi": 60,
            "name": "C4",
            "ticks": 96960,
            "time": 134.666734,
            "velocity": 0.7480314960629921
          },
          {
            "duration": 0.33333350000000905,
            "durationTicks": 240,
            "midi": 63,
            "name": "D#4",
            "ticks": 97200,
            "time": 135.0000675,
            "velocity": 0.7480314960629921
          },
          {
            "duration": 0.6666669999999897,
            "durationTicks": 480,
            "midi": 65,
            "name": "F4",
            "ticks": 97440,
            "time": 135.333401,
            "velocity": 0.7480314960629921
          },
          {
            "duration": 0.16666675000001874,
            "durationTicks": 120,
            "midi": 58,
            "name": "A#3",
            "ticks": 98040,
            "time": 136.16673475,
            "velocity": 0.7480314960629921
          },
          {
            "duration": 0.33333349999998063,
            "durationTicks": 240,
            "midi": 67,
            "name": "G4",
            "ticks": 98160,
            "time": 136.3334015,
            "velocity": 0.7480314960629921
          },
          {
            "duration": 0.33333350000000905,
            "durationTicks": 240,
            "midi": 65,
            "name": "F4",
            "ticks": 98400,
            "time": 136.666735,
            "velocity": 0.7480314960629921
          },
          {
            "duration": 0.16666674999999032,
            "durationTicks": 120,
            "midi": 63,
            "name": "D#4",
            "ticks": 98640,
            "time": 137.0000685,
            "velocity": 0.7480314960629921
          },
          {
            "duration": 0.33333350000000905,
            "durationTicks": 240,
            "midi": 58,
            "name": "A#3",
            "ticks": 98760,
            "time": 137.16673525,
            "velocity": 0.7480314960629921
          },
          {
            "duration": 0.16666675000001874,
            "durationTicks": 120,
            "midi": 58,
            "name": "A#3",
            "ticks": 99000,
            "time": 137.50006875,
            "velocity": 0.7480314960629921
          },
          {
            "duration": 0.33333349999998063,
            "durationTicks": 240,
            "midi": 58,
            "name": "A#3",
            "ticks": 99120,
            "time": 137.66673550000002,
            "velocity": 0.7480314960629921
          },
          {
            "duration": 0.5000002499999994,
            "durationTicks": 360,
            "midi": 65,
            "name": "F4",
            "ticks": 99360,
            "time": 138.000069,
            "velocity": 0.7480314960629921
          },
          {
            "duration": 0.5000002499999994,
            "durationTicks": 360,
            "midi": 63,
            "name": "D#4",
            "ticks": 99720,
            "time": 138.50006925,
            "velocity": 0.7480314960629921
          },
          {
            "duration": 1.0000004999999987,
            "durationTicks": 720,
            "midi": 60,
            "name": "C4",
            "ticks": 100080,
            "time": 139.0000695,
            "velocity": 0.7480314960629921
          },
          {
            "duration": 0.16666674999999032,
            "durationTicks": 120,
            "midi": 58,
            "name": "A#3",
            "ticks": 102000,
            "time": 141.6667375,
            "velocity": 0.7480314960629921
          },
          {
            "duration": 0.33333350000000905,
            "durationTicks": 240,
            "midi": 65,
            "name": "F4",
            "ticks": 102120,
            "time": 141.83340425,
            "velocity": 0.7480314960629921
          },
          {
            "duration": 0.33333349999998063,
            "durationTicks": 240,
            "midi": 65,
            "name": "F4",
            "ticks": 102360,
            "time": 142.16673775,
            "velocity": 0.7480314960629921
          },
          {
            "duration": 0.33333350000000905,
            "durationTicks": 240,
            "midi": 63,
            "name": "D#4",
            "ticks": 102600,
            "time": 142.50007125,
            "velocity": 0.7480314960629921
          },
          {
            "duration": 0.16666674999999032,
            "durationTicks": 120,
            "midi": 65,
            "name": "F4",
            "ticks": 102840,
            "time": 142.83340475,
            "velocity": 0.7480314960629921
          },
          {
            "duration": 0.33333350000000905,
            "durationTicks": 240,
            "midi": 63,
            "name": "D#4",
            "ticks": 102960,
            "time": 143.0000715,
            "velocity": 0.7480314960629921
          },
          {
            "duration": 0.33333350000000905,
            "durationTicks": 240,
            "midi": 58,
            "name": "A#3",
            "ticks": 103200,
            "time": 143.333405,
            "velocity": 0.7480314960629921
          },
          {
            "duration": 0.16666674999999032,
            "durationTicks": 120,
            "midi": 58,
            "name": "A#3",
            "ticks": 103920,
            "time": 144.3334055,
            "velocity": 0.7480314960629921
          },
          {
            "duration": 0.33333350000000905,
            "durationTicks": 240,
            "midi": 60,
            "name": "C4",
            "ticks": 104040,
            "time": 144.50007225,
            "velocity": 0.7480314960629921
          },
          {
            "duration": 0.33333350000000905,
            "durationTicks": 240,
            "midi": 60,
            "name": "C4",
            "ticks": 104280,
            "time": 144.83340575,
            "velocity": 0.7480314960629921
          },
          {
            "duration": 0.16666674999999032,
            "durationTicks": 120,
            "midi": 58,
            "name": "A#3",
            "ticks": 104520,
            "time": 145.16673925,
            "velocity": 0.7480314960629921
          },
          {
            "duration": 0.33333350000000905,
            "durationTicks": 240,
            "midi": 60,
            "name": "C4",
            "ticks": 104640,
            "time": 145.333406,
            "velocity": 0.7480314960629921
          },
          {
            "duration": 0.33333350000000905,
            "durationTicks": 240,
            "midi": 63,
            "name": "D#4",
            "ticks": 104880,
            "time": 145.6667395,
            "velocity": 0.7480314960629921
          },
          {
            "duration": 0.33333349999998063,
            "durationTicks": 240,
            "midi": 65,
            "name": "F4",
            "ticks": 105120,
            "time": 146.00007300000001,
            "velocity": 0.7480314960629921
          },
          {
            "duration": 0.16666675000001874,
            "durationTicks": 120,
            "midi": 58,
            "name": "A#3",
            "ticks": 105360,
            "time": 146.3334065,
            "velocity": 0.7480314960629921
          },
          {
            "duration": 0.33333349999998063,
            "durationTicks": 240,
            "midi": 58,
            "name": "A#3",
            "ticks": 105480,
            "time": 146.50007325,
            "velocity": 0.7480314960629921
          },
          {
            "duration": 0.33333350000000905,
            "durationTicks": 240,
            "midi": 58,
            "name": "A#3",
            "ticks": 105720,
            "time": 146.83340675,
            "velocity": 0.7480314960629921
          },
          {
            "duration": 0.16666674999999032,
            "durationTicks": 120,
            "midi": 67,
            "name": "G4",
            "ticks": 105960,
            "time": 147.16674025,
            "velocity": 0.7480314960629921
          },
          {
            "duration": 0.16666675000001874,
            "durationTicks": 120,
            "midi": 65,
            "name": "F4",
            "ticks": 106080,
            "time": 147.333407,
            "velocity": 0.7480314960629921
          },
          {
            "duration": 0.33333349999998063,
            "durationTicks": 240,
            "midi": 63,
            "name": "D#4",
            "ticks": 106200,
            "time": 147.50007375,
            "velocity": 0.7480314960629921
          },
          {
            "duration": 0.33333350000000905,
            "durationTicks": 240,
            "midi": 58,
            "name": "A#3",
            "ticks": 106440,
            "time": 147.83340725,
            "velocity": 0.7480314960629921
          },
          {
            "duration": 0.33333350000000905,
            "durationTicks": 240,
            "midi": 58,
            "name": "A#3",
            "ticks": 106680,
            "time": 148.16674075,
            "velocity": 0.7480314960629921
          },
          {
            "duration": 0.16666674999999032,
            "durationTicks": 120,
            "midi": 67,
            "name": "G4",
            "ticks": 106920,
            "time": 148.50007425,
            "velocity": 0.7480314960629921
          },
          {
            "duration": 0.33333350000000905,
            "durationTicks": 240,
            "midi": 65,
            "name": "F4",
            "ticks": 107040,
            "time": 148.666741,
            "velocity": 0.7480314960629921
          },
          {
            "duration": 0.33333349999998063,
            "durationTicks": 240,
            "midi": 60,
            "name": "C4",
            "ticks": 107280,
            "time": 149.0000745,
            "velocity": 0.7480314960629921
          },
          {
            "duration": 1.3333340000000078,
            "durationTicks": 960,
            "midi": 63,
            "name": "D#4",
            "ticks": 107520,
            "time": 149.333408,
            "velocity": 0.7480314960629921
          },
          {
            "duration": 0.33333349999998063,
            "durationTicks": 240,
            "midi": 67,
            "name": "G4",
            "ticks": 109680,
            "time": 152.33340950000002,
            "velocity": 0.7480314960629921
          },
          {
            "duration": 0.33333350000000905,
            "durationTicks": 240,
            "midi": 65,
            "name": "F4",
            "ticks": 109920,
            "time": 152.666743,
            "velocity": 0.7480314960629921
          },
          {
            "duration": 0.16666674999999032,
            "durationTicks": 120,
            "midi": 63,
            "name": "D#4",
            "ticks": 110160,
            "time": 153.0000765,
            "velocity": 0.7480314960629921
          },
          {
            "duration": 0.33333350000000905,
            "durationTicks": 240,
            "midi": 70,
            "name": "A#4",
            "ticks": 110280,
            "time": 153.16674325,
            "velocity": 0.7480314960629921
          },
          {
            "duration": 0.5000002499999994,
            "durationTicks": 360,
            "midi": 67,
            "name": "G4",
            "ticks": 110520,
            "time": 153.50007675,
            "velocity": 0.7480314960629921
          },
          {
            "duration": 0.33333350000000905,
            "durationTicks": 240,
            "midi": 65,
            "name": "F4",
            "ticks": 110880,
            "time": 154.000077,
            "velocity": 0.7480314960629921
          },
          {
            "duration": 0.16666674999999032,
            "durationTicks": 120,
            "midi": 63,
            "name": "D#4",
            "ticks": 111120,
            "time": 154.3334105,
            "velocity": 0.7480314960629921
          },
          {
            "duration": 1.500000749999998,
            "durationTicks": 1080,
            "midi": 65,
            "name": "F4",
            "ticks": 111240,
            "time": 154.50007725,
            "velocity": 0.7480314960629921
          },
          {
            "duration": 0.33333349999998063,
            "durationTicks": 240,
            "midi": 58,
            "name": "A#3",
            "ticks": 112560,
            "time": 156.3334115,
            "velocity": 0.7480314960629921
          },
          {
            "duration": 0.33333350000000905,
            "durationTicks": 240,
            "midi": 70,
            "name": "A#4",
            "ticks": 112800,
            "time": 156.666745,
            "velocity": 0.7480314960629921
          },
          {
            "duration": 0.33333350000000905,
            "durationTicks": 240,
            "midi": 63,
            "name": "D#4",
            "ticks": 112800,
            "time": 156.666745,
            "velocity": 0.7480314960629921
          },
          {
            "duration": 0.16666674999999032,
            "durationTicks": 120,
            "midi": 70,
            "name": "A#4",
            "ticks": 113040,
            "time": 157.0000785,
            "velocity": 0.7480314960629921
          },
          {
            "duration": 0.16666674999999032,
            "durationTicks": 120,
            "midi": 62,
            "name": "D4",
            "ticks": 113040,
            "time": 157.0000785,
            "velocity": 0.7480314960629921
          },
          {
            "duration": 1.500000749999998,
            "durationTicks": 1080,
            "midi": 68,
            "name": "G#4",
            "ticks": 113160,
            "time": 157.16674525,
            "velocity": 0.7480314960629921
          },
          {
            "duration": 1.500000749999998,
            "durationTicks": 1080,
            "midi": 60,
            "name": "C4",
            "ticks": 113160,
            "time": 157.16674525,
            "velocity": 0.7480314960629921
          },
          {
            "duration": 1.3333340000000078,
            "durationTicks": 960,
            "midi": 67,
            "name": "G4",
            "ticks": 114240,
            "time": 158.666746,
            "velocity": 0.7480314960629921
          },
          {
            "duration": 1.3333340000000078,
            "durationTicks": 960,
            "midi": 58,
            "name": "A#3",
            "ticks": 114240,
            "time": 158.666746,
            "velocity": 0.7480314960629921
          },
          {
            "duration": 1.3333340000000078,
            "durationTicks": 960,
            "midi": 70,
            "name": "A#4",
            "ticks": 115200,
            "time": 160.00008,
            "velocity": 0.7480314960629921
          },
          {
            "duration": 1.3333340000000078,
            "durationTicks": 960,
            "midi": 62,
            "name": "D4",
            "ticks": 115200,
            "time": 160.00008,
            "velocity": 0.7480314960629921
          },
          {
            "duration": 1.3333340000000078,
            "durationTicks": 960,
            "midi": 68,
            "name": "G#4",
            "ticks": 116160,
            "time": 161.333414,
            "velocity": 0.7480314960629921
          },
          {
            "duration": 1.3333340000000078,
            "durationTicks": 960,
            "midi": 63,
            "name": "D#4",
            "ticks": 116160,
            "time": 161.333414,
            "velocity": 0.7480314960629921
          },
          {
            "duration": 0.33333349999998063,
            "durationTicks": 240,
            "midi": 60,
            "name": "C4",
            "ticks": 117120,
            "time": 162.666748,
            "velocity": 0.7480314960629921
          },
          {
            "duration": 0.16666675000001874,
            "durationTicks": 120,
            "midi": 60,
            "name": "C4",
            "ticks": 117360,
            "time": 163.0000815,
            "velocity": 0.7480314960629921
          },
          {
            "duration": 0.5000002499999994,
            "durationTicks": 360,
            "midi": 63,
            "name": "D#4",
            "ticks": 117480,
            "time": 163.16674825,
            "velocity": 0.7480314960629921
          },
          {
            "duration": 0.33333349999998063,
            "durationTicks": 240,
            "midi": 67,
            "name": "G4",
            "ticks": 117840,
            "time": 163.6667485,
            "velocity": 0.7480314960629921
          },
          {
            "duration": 0.16666675000001874,
            "durationTicks": 120,
            "midi": 65,
            "name": "F4",
            "ticks": 118080,
            "time": 164.000082,
            "velocity": 0.7480314960629921
          },
          {
            "duration": 0.5000002499999994,
            "durationTicks": 360,
            "midi": 63,
            "name": "D#4",
            "ticks": 118200,
            "time": 164.16674875,
            "velocity": 0.7480314960629921
          },
          {
            "duration": 0.33333349999998063,
            "durationTicks": 240,
            "midi": 58,
            "name": "A#3",
            "ticks": 118560,
            "time": 164.666749,
            "velocity": 0.7480314960629921
          },
          {
            "duration": 0.16666675000001874,
            "durationTicks": 120,
            "midi": 58,
            "name": "A#3",
            "ticks": 118800,
            "time": 165.0000825,
            "velocity": 0.7480314960629921
          },
          {
            "duration": 0.5000002499999994,
            "durationTicks": 360,
            "midi": 60,
            "name": "C4",
            "ticks": 118920,
            "time": 165.16674925,
            "velocity": 0.7480314960629921
          },
          {
            "duration": 0.33333349999998063,
            "durationTicks": 240,
            "midi": 60,
            "name": "C4",
            "ticks": 119280,
            "time": 165.6667495,
            "velocity": 0.7480314960629921
          },
          {
            "duration": 0.33333350000000905,
            "durationTicks": 240,
            "midi": 63,
            "name": "D#4",
            "ticks": 119520,
            "time": 166.000083,
            "velocity": 0.7480314960629921
          },
          {
            "duration": 0.16666674999999032,
            "durationTicks": 120,
            "midi": 65,
            "name": "F4",
            "ticks": 119760,
            "time": 166.3334165,
            "velocity": 0.7480314960629921
          },
          {
            "duration": 1.3333340000000078,
            "durationTicks": 960,
            "midi": 60,
            "name": "C4",
            "ticks": 119880,
            "time": 166.50008325,
            "velocity": 0.7480314960629921
          },
          {
            "duration": 0.16666675000001874,
            "durationTicks": 120,
            "midi": 58,
            "name": "A#3",
            "ticks": 120840,
            "time": 167.83341725,
            "velocity": 0.7480314960629921
          },
          {
            "duration": 0.33333349999998063,
            "durationTicks": 240,
            "midi": 60,
            "name": "C4",
            "ticks": 120960,
            "time": 168.00008400000002,
            "velocity": 0.7480314960629921
          },
          {
            "duration": 0.16666675000001874,
            "durationTicks": 120,
            "midi": 63,
            "name": "D#4",
            "ticks": 121200,
            "time": 168.3334175,
            "velocity": 0.7480314960629921
          },
          {
            "duration": 0.5000002499999994,
            "durationTicks": 360,
            "midi": 63,
            "name": "D#4",
            "ticks": 121320,
            "time": 168.50008425000001,
            "velocity": 0.7480314960629921
          },
          {
            "duration": 0.33333349999998063,
            "durationTicks": 240,
            "midi": 67,
            "name": "G4",
            "ticks": 121680,
            "time": 169.0000845,
            "velocity": 0.7480314960629921
          },
          {
            "duration": 0.16666675000001874,
            "durationTicks": 120,
            "midi": 65,
            "name": "F4",
            "ticks": 121920,
            "time": 169.333418,
            "velocity": 0.7480314960629921
          },
          {
            "duration": 0.5000002499999994,
            "durationTicks": 360,
            "midi": 63,
            "name": "D#4",
            "ticks": 122040,
            "time": 169.50008475,
            "velocity": 0.7480314960629921
          },
          {
            "duration": 0.33333349999998063,
            "durationTicks": 240,
            "midi": 58,
            "name": "A#3",
            "ticks": 122400,
            "time": 170.000085,
            "velocity": 0.7480314960629921
          },
          {
            "duration": 0.16666675000001874,
            "durationTicks": 120,
            "midi": 63,
            "name": "D#4",
            "ticks": 122640,
            "time": 170.3334185,
            "velocity": 0.7480314960629921
          },
          {
            "duration": 1.500000749999998,
            "durationTicks": 1080,
            "midi": 65,
            "name": "F4",
            "ticks": 122760,
            "time": 170.50008525,
            "velocity": 0.7480314960629921
          },
          {
            "duration": 0.33333350000000905,
            "durationTicks": 240,
            "midi": 67,
            "name": "G4",
            "ticks": 125040,
            "time": 173.6667535,
            "velocity": 0.7480314960629921
          },
          {
            "duration": 0.33333349999998063,
            "durationTicks": 240,
            "midi": 65,
            "name": "F4",
            "ticks": 125280,
            "time": 174.000087,
            "velocity": 0.7480314960629921
          },
          {
            "duration": 0.16666675000001874,
            "durationTicks": 120,
            "midi": 63,
            "name": "D#4",
            "ticks": 125520,
            "time": 174.3334205,
            "velocity": 0.7480314960629921
          },
          {
            "duration": 0.33333350000000905,
            "durationTicks": 240,
            "midi": 70,
            "name": "A#4",
            "ticks": 125640,
            "time": 174.50008725,
            "velocity": 0.7480314960629921
          },
          {
            "duration": 0.5000002499999994,
            "durationTicks": 360,
            "midi": 67,
            "name": "G4",
            "ticks": 125880,
            "time": 174.83342075000002,
            "velocity": 0.7480314960629921
          },
          {
            "duration": 0.5000002499999994,
            "durationTicks": 360,
            "midi": 63,
            "name": "D#4",
            "ticks": 125880,
            "time": 174.83342075000002,
            "velocity": 0.7480314960629921
          },
          {
            "duration": 0.33333349999998063,
            "durationTicks": 240,
            "midi": 65,
            "name": "F4",
            "ticks": 126240,
            "time": 175.33342100000002,
            "velocity": 0.7480314960629921
          },
          {
            "duration": 0.33333349999998063,
            "durationTicks": 240,
            "midi": 62,
            "name": "D4",
            "ticks": 126240,
            "time": 175.33342100000002,
            "velocity": 0.7480314960629921
          },
          {
            "duration": 0.16666675000001874,
            "durationTicks": 120,
            "midi": 63,
            "name": "D#4",
            "ticks": 126480,
            "time": 175.6667545,
            "velocity": 0.7480314960629921
          },
          {
            "duration": 0.16666675000001874,
            "durationTicks": 120,
            "midi": 60,
            "name": "C4",
            "ticks": 126480,
            "time": 175.6667545,
            "velocity": 0.7480314960629921
          },
          {
            "duration": 1.500000749999998,
            "durationTicks": 1080,
            "midi": 65,
            "name": "F4",
            "ticks": 126600,
            "time": 175.83342125000001,
            "velocity": 0.7480314960629921
          },
          {
            "duration": 1.500000749999998,
            "durationTicks": 1080,
            "midi": 62,
            "name": "D4",
            "ticks": 126600,
            "time": 175.83342125000001,
            "velocity": 0.7480314960629921
          },
          {
            "duration": 0.33333350000000905,
            "durationTicks": 240,
            "midi": 58,
            "name": "A#3",
            "ticks": 127920,
            "time": 177.6667555,
            "velocity": 0.7480314960629921
          },
          {
            "duration": 0.33333350000000905,
            "durationTicks": 240,
            "midi": 70,
            "name": "A#4",
            "ticks": 128160,
            "time": 178.000089,
            "velocity": 0.7480314960629921
          },
          {
            "duration": 0.33333350000000905,
            "durationTicks": 240,
            "midi": 63,
            "name": "D#4",
            "ticks": 128160,
            "time": 178.000089,
            "velocity": 0.7480314960629921
          },
          {
            "duration": 0.16666674999999032,
            "durationTicks": 120,
            "midi": 70,
            "name": "A#4",
            "ticks": 128400,
            "time": 178.3334225,
            "velocity": 0.7480314960629921
          },
          {
            "duration": 0.16666674999999032,
            "durationTicks": 120,
            "midi": 62,
            "name": "D4",
            "ticks": 128400,
            "time": 178.3334225,
            "velocity": 0.7480314960629921
          },
          {
            "duration": 1.500000749999998,
            "durationTicks": 1080,
            "midi": 68,
            "name": "G#4",
            "ticks": 128520,
            "time": 178.50008925,
            "velocity": 0.7480314960629921
          },
          {
            "duration": 1.500000749999998,
            "durationTicks": 1080,
            "midi": 60,
            "name": "C4",
            "ticks": 128520,
            "time": 178.50008925,
            "velocity": 0.7480314960629921
          },
          {
            "duration": 1.3333340000000078,
            "durationTicks": 960,
            "midi": 67,
            "name": "G4",
            "ticks": 129600,
            "time": 180.00009,
            "velocity": 0.7480314960629921
          },
          {
            "duration": 1.3333340000000078,
            "durationTicks": 960,
            "midi": 58,
            "name": "A#3",
            "ticks": 129600,
            "time": 180.00009,
            "velocity": 0.7480314960629921
          },
          {
            "duration": 1.3333340000000078,
            "durationTicks": 960,
            "midi": 70,
            "name": "A#4",
            "ticks": 130560,
            "time": 181.333424,
            "velocity": 0.7480314960629921
          },
          {
            "duration": 1.3333340000000078,
            "durationTicks": 960,
            "midi": 62,
            "name": "D4",
            "ticks": 130560,
            "time": 181.333424,
            "velocity": 0.7480314960629921
          },
          {
            "duration": 1.3333340000000078,
            "durationTicks": 960,
            "midi": 65,
            "name": "F4",
            "ticks": 130560,
            "time": 181.333424,
            "velocity": 0.7480314960629921
          },
          {
            "duration": 1.3333339999999794,
            "durationTicks": 960,
            "midi": 68,
            "name": "G#4",
            "ticks": 131520,
            "time": 182.66675800000002,
            "velocity": 0.7480314960629921
          },
          {
            "duration": 1.3333339999999794,
            "durationTicks": 960,
            "midi": 63,
            "name": "D#4",
            "ticks": 131520,
            "time": 182.66675800000002,
            "velocity": 0.7480314960629921
          },
          {
            "duration": 1.3333339999999794,
            "durationTicks": 960,
            "midi": 60,
            "name": "C4",
            "ticks": 131520,
            "time": 182.66675800000002,
            "velocity": 0.7480314960629921
          },
          {
            "duration": 0.33333350000000905,
            "durationTicks": 240,
            "midi": 60,
            "name": "C4",
            "ticks": 132480,
            "time": 184.000092,
            "velocity": 0.7480314960629921
          },
          {
            "duration": 0.16666674999999032,
            "durationTicks": 120,
            "midi": 60,
            "name": "C4",
            "ticks": 132720,
            "time": 184.3334255,
            "velocity": 0.7480314960629921
          },
          {
            "duration": 0.5000002499999994,
            "durationTicks": 360,
            "midi": 63,
            "name": "D#4",
            "ticks": 132840,
            "time": 184.50009225,
            "velocity": 0.7480314960629921
          },
          {
            "duration": 0.33333350000000905,
            "durationTicks": 240,
            "midi": 67,
            "name": "G4",
            "ticks": 133200,
            "time": 185.0000925,
            "velocity": 0.7480314960629921
          },
          {
            "duration": 0.16666674999999032,
            "durationTicks": 120,
            "midi": 65,
            "name": "F4",
            "ticks": 133440,
            "time": 185.333426,
            "velocity": 0.7480314960629921
          },
          {
            "duration": 0.5000002499999994,
            "durationTicks": 360,
            "midi": 63,
            "name": "D#4",
            "ticks": 133560,
            "time": 185.50009275,
            "velocity": 0.7480314960629921
          },
          {
            "duration": 0.33333350000000905,
            "durationTicks": 240,
            "midi": 58,
            "name": "A#3",
            "ticks": 133920,
            "time": 186.000093,
            "velocity": 0.7480314960629921
          },
          {
            "duration": 0.16666674999999032,
            "durationTicks": 120,
            "midi": 58,
            "name": "A#3",
            "ticks": 134160,
            "time": 186.3334265,
            "velocity": 0.7480314960629921
          },
          {
            "duration": 0.5000002499999994,
            "durationTicks": 360,
            "midi": 60,
            "name": "C4",
            "ticks": 134280,
            "time": 186.50009325,
            "velocity": 0.7480314960629921
          },
          {
            "duration": 0.33333350000000905,
            "durationTicks": 240,
            "midi": 60,
            "name": "C4",
            "ticks": 134640,
            "time": 187.0000935,
            "velocity": 0.7480314960629921
          },
          {
            "duration": 0.33333350000000905,
            "durationTicks": 240,
            "midi": 63,
            "name": "D#4",
            "ticks": 134880,
            "time": 187.333427,
            "velocity": 0.7480314960629921
          },
          {
            "duration": 0.16666674999999032,
            "durationTicks": 120,
            "midi": 65,
            "name": "F4",
            "ticks": 135120,
            "time": 187.6667605,
            "velocity": 0.7480314960629921
          },
          {
            "duration": 1.3333340000000078,
            "durationTicks": 960,
            "midi": 60,
            "name": "C4",
            "ticks": 135240,
            "time": 187.83342725,
            "velocity": 0.7480314960629921
          },
          {
            "duration": 0.16666674999999032,
            "durationTicks": 120,
            "midi": 58,
            "name": "A#3",
            "ticks": 136200,
            "time": 189.16676125,
            "velocity": 0.7480314960629921
          },
          {
            "duration": 0.33333350000000905,
            "durationTicks": 240,
            "midi": 60,
            "name": "C4",
            "ticks": 136320,
            "time": 189.333428,
            "velocity": 0.7480314960629921
          },
          {
            "duration": 0.16666674999999032,
            "durationTicks": 120,
            "midi": 63,
            "name": "D#4",
            "ticks": 136560,
            "time": 189.6667615,
            "velocity": 0.7480314960629921
          },
          {
            "duration": 0.5000002499999994,
            "durationTicks": 360,
            "midi": 63,
            "name": "D#4",
            "ticks": 136680,
            "time": 189.83342825,
            "velocity": 0.7480314960629921
          },
          {
            "duration": 0.33333350000000905,
            "durationTicks": 240,
            "midi": 67,
            "name": "G4",
            "ticks": 137040,
            "time": 190.3334285,
            "velocity": 0.7480314960629921
          },
          {
            "duration": 0.16666674999999032,
            "durationTicks": 120,
            "midi": 65,
            "name": "F4",
            "ticks": 137280,
            "time": 190.666762,
            "velocity": 0.7480314960629921
          },
          {
            "duration": 0.5000002499999994,
            "durationTicks": 360,
            "midi": 63,
            "name": "D#4",
            "ticks": 137400,
            "time": 190.83342875,
            "velocity": 0.7480314960629921
          },
          {
            "duration": 0.33333350000000905,
            "durationTicks": 240,
            "midi": 58,
            "name": "A#3",
            "ticks": 137760,
            "time": 191.333429,
            "velocity": 0.7480314960629921
          },
          {
            "duration": 0.16666674999999032,
            "durationTicks": 120,
            "midi": 63,
            "name": "D#4",
            "ticks": 138000,
            "time": 191.6667625,
            "velocity": 0.7480314960629921
          },
          {
            "duration": 2.166667750000016,
            "durationTicks": 1560,
            "midi": 65,
            "name": "F4",
            "ticks": 138120,
            "time": 191.83342925,
            "velocity": 0.7480314960629921
          },
          {
            "duration": 0.33333349999998063,
            "durationTicks": 240,
            "midi": 55,
            "name": "G3",
            "ticks": 140400,
            "time": 195.0000975,
            "velocity": 0.7480314960629921
          },
          {
            "duration": 0.33333350000000905,
            "durationTicks": 240,
            "midi": 53,
            "name": "F3",
            "ticks": 140640,
            "time": 195.333431,
            "velocity": 0.7480314960629921
          },
          {
            "duration": 0.16666674999999032,
            "durationTicks": 120,
            "midi": 51,
            "name": "D#3",
            "ticks": 140880,
            "time": 195.6667645,
            "velocity": 0.7480314960629921
          },
          {
            "duration": 0.33333350000000905,
            "durationTicks": 240,
            "midi": 58,
            "name": "A#3",
            "ticks": 141000,
            "time": 195.83343125,
            "velocity": 0.7480314960629921
          },
          {
            "duration": 0.5000002499999994,
            "durationTicks": 360,
            "midi": 55,
            "name": "G3",
            "ticks": 141240,
            "time": 196.16676475,
            "velocity": 0.7480314960629921
          },
          {
            "duration": 0.33333350000000905,
            "durationTicks": 240,
            "midi": 53,
            "name": "F3",
            "ticks": 141600,
            "time": 196.666765,
            "velocity": 0.7480314960629921
          },
          {
            "duration": 0.16666674999999032,
            "durationTicks": 120,
            "midi": 51,
            "name": "D#3",
            "ticks": 141840,
            "time": 197.0000985,
            "velocity": 0.7480314960629921
          },
          {
            "duration": 1.500000749999998,
            "durationTicks": 1080,
            "midi": 53,
            "name": "F3",
            "ticks": 141960,
            "time": 197.16676525,
            "velocity": 0.7480314960629921
          },
          {
            "duration": 0.33333350000000905,
            "durationTicks": 240,
            "midi": 46,
            "name": "A#2",
            "ticks": 143280,
            "time": 199.0000995,
            "velocity": 0.7480314960629921
          },
          {
            "duration": 0.33333349999998063,
            "durationTicks": 240,
            "midi": 51,
            "name": "D#3",
            "ticks": 143520,
            "time": 199.333433,
            "velocity": 0.7480314960629921
          },
          {
            "duration": 0.16666675000001874,
            "durationTicks": 120,
            "midi": 50,
            "name": "D3",
            "ticks": 143760,
            "time": 199.6667665,
            "velocity": 0.7480314960629921
          },
          {
            "duration": 1.500000749999998,
            "durationTicks": 1080,
            "midi": 48,
            "name": "C3",
            "ticks": 143880,
            "time": 199.83343325,
            "velocity": 0.7480314960629921
          },
          {
            "duration": 1.3333339999999794,
            "durationTicks": 960,
            "midi": 46,
            "name": "A#2",
            "ticks": 144960,
            "time": 201.333434,
            "velocity": 0.7480314960629921
          },
          {
            "duration": 1.3333340000000078,
            "durationTicks": 960,
            "midi": 50,
            "name": "D3",
            "ticks": 145920,
            "time": 202.666768,
            "velocity": 0.7480314960629921
          },
          {
            "duration": 1.3333340000000078,
            "durationTicks": 960,
            "midi": 48,
            "name": "C3",
            "ticks": 146880,
            "time": 204.000102,
            "velocity": 0.7480314960629921
          },
          {
            "duration": 0.33333350000000905,
            "durationTicks": 240,
            "midi": 48,
            "name": "C3",
            "ticks": 147840,
            "time": 205.333436,
            "velocity": 0.7480314960629921
          },
          {
            "duration": 0.16666674999999032,
            "durationTicks": 120,
            "midi": 48,
            "name": "C3",
            "ticks": 148080,
            "time": 205.66676950000002,
            "velocity": 0.7480314960629921
          },
          {
            "duration": 0.5000002499999994,
            "durationTicks": 360,
            "midi": 51,
            "name": "D#3",
            "ticks": 148200,
            "time": 205.83343625,
            "velocity": 0.7480314960629921
          },
          {
            "duration": 0.33333350000000905,
            "durationTicks": 240,
            "midi": 55,
            "name": "G3",
            "ticks": 148560,
            "time": 206.3334365,
            "velocity": 0.7480314960629921
          },
          {
            "duration": 0.16666674999999032,
            "durationTicks": 120,
            "midi": 53,
            "name": "F3",
            "ticks": 148800,
            "time": 206.66677,
            "velocity": 0.7480314960629921
          },
          {
            "duration": 0.5000002499999994,
            "durationTicks": 360,
            "midi": 51,
            "name": "D#3",
            "ticks": 148920,
            "time": 206.83343675,
            "velocity": 0.7480314960629921
          },
          {
            "duration": 0.33333350000000905,
            "durationTicks": 240,
            "midi": 46,
            "name": "A#2",
            "ticks": 149280,
            "time": 207.333437,
            "velocity": 0.7480314960629921
          },
          {
            "duration": 0.16666674999999032,
            "durationTicks": 120,
            "midi": 46,
            "name": "A#2",
            "ticks": 149520,
            "time": 207.6667705,
            "velocity": 0.7480314960629921
          },
          {
            "duration": 0.16666674999999032,
            "durationTicks": 120,
            "midi": 48,
            "name": "C3",
            "ticks": 149640,
            "time": 207.83343725,
            "velocity": 0.7480314960629921
          },
          {
            "duration": 0.33333350000000905,
            "durationTicks": 240,
            "midi": 48,
            "name": "C3",
            "ticks": 150000,
            "time": 208.3334375,
            "velocity": 0.7480314960629921
          },
          {
            "duration": 0.33333349999998063,
            "durationTicks": 240,
            "midi": 51,
            "name": "D#3",
            "ticks": 150240,
            "time": 208.666771,
            "velocity": 0.7480314960629921
          },
          {
            "duration": 0.16666675000001874,
            "durationTicks": 120,
            "midi": 53,
            "name": "F3",
            "ticks": 150480,
            "time": 209.0001045,
            "velocity": 0.7480314960629921
          },
          {
            "duration": 1.3333339999999794,
            "durationTicks": 960,
            "midi": 48,
            "name": "C3",
            "ticks": 150600,
            "time": 209.16677125,
            "velocity": 0.7480314960629921
          },
          {
            "duration": 0.16666675000001874,
            "durationTicks": 120,
            "midi": 46,
            "name": "A#2",
            "ticks": 151560,
            "time": 210.50010525,
            "velocity": 0.7480314960629921
          },
          {
            "duration": 0.33333349999998063,
            "durationTicks": 240,
            "midi": 48,
            "name": "C3",
            "ticks": 151680,
            "time": 210.666772,
            "velocity": 0.7480314960629921
          },
          {
            "duration": 0.16666675000001874,
            "durationTicks": 120,
            "midi": 51,
            "name": "D#3",
            "ticks": 151920,
            "time": 211.0001055,
            "velocity": 0.7480314960629921
          },
          {
            "duration": 0.5000002499999994,
            "durationTicks": 360,
            "midi": 51,
            "name": "D#3",
            "ticks": 152040,
            "time": 211.16677225,
            "velocity": 0.7480314960629921
          },
          {
            "duration": 0.33333350000000905,
            "durationTicks": 240,
            "midi": 55,
            "name": "G3",
            "ticks": 152400,
            "time": 211.6667725,
            "velocity": 0.7480314960629921
          },
          {
            "duration": 0.16666674999999032,
            "durationTicks": 120,
            "midi": 53,
            "name": "F3",
            "ticks": 152640,
            "time": 212.00010600000002,
            "velocity": 0.7480314960629921
          },
          {
            "duration": 0.5000002499999994,
            "durationTicks": 360,
            "midi": 51,
            "name": "D#3",
            "ticks": 152760,
            "time": 212.16677275,
            "velocity": 0.7480314960629921
          },
          {
            "duration": 0.33333350000000905,
            "durationTicks": 240,
            "midi": 46,
            "name": "A#2",
            "ticks": 153120,
            "time": 212.666773,
            "velocity": 0.7480314960629921
          },
          {
            "duration": 0.16666674999999032,
            "durationTicks": 120,
            "midi": 51,
            "name": "D#3",
            "ticks": 153360,
            "time": 213.00010650000002,
            "velocity": 0.7480314960629921
          },
          {
            "duration": 4.966666750000002,
            "durationTicks": 2040,
            "midi": 53,
            "name": "F3",
            "ticks": 153480,
            "time": 213.16677325,
            "velocity": 0.7480314960629921
          }
        ]
      },
      {
        "channel": 4,
        "controlChanges": {
          "7": [
            {
              "number": 7,
              "ticks": 48,
              "time": 0.06666670000000001,
              "value": 0.7086614173228346
            },
            {
              "number": 7,
              "ticks": 48,
              "time": 0.06666670000000001,
              "value": 0.7086614173228346
            }
          ],
          "10": [
            {
              "number": 10,
              "ticks": 48,
              "time": 0.06666670000000001,
              "value": 1
            },
            {
              "number": 10,
              "ticks": 48,
              "time": 0.06666670000000001,
              "value": 1
            }
          ],
          "91": [
            {
              "number": 91,
              "ticks": 48,
              "time": 0.06666670000000001,
              "value": 0
            },
            {
              "number": 91,
              "ticks": 48,
              "time": 0.06666670000000001,
              "value": 0
            }
          ],
          "92": [
            {
              "number": 92,
              "ticks": 48,
              "time": 0.06666670000000001,
              "value": 0
            },
            {
              "number": 92,
              "ticks": 48,
              "time": 0.06666670000000001,
              "value": 0
            }
          ],
          "93": [
            {
              "number": 93,
              "ticks": 48,
              "time": 0.06666670000000001,
              "value": 0
            },
            {
              "number": 93,
              "ticks": 48,
              "time": 0.06666670000000001,
              "value": 0
            }
          ],
          "95": [
            {
              "number": 95,
              "ticks": 48,
              "time": 0.06666670000000001,
              "value": 0
            },
            {
              "number": 95,
              "ticks": 48,
              "time": 0.06666670000000001,
              "value": 0
            }
          ]
        },
        "pitchBends": [],
        "instrument": {
          "family": "ensemble",
          "number": 48,
          "name": "string ensemble 1"
        },
        "name": "",
        "notes": [
          {
            "duration": 0.16666675000000453,
            "durationTicks": 120,
            "midi": 67,
            "name": "G4",
            "ticks": 30120,
            "time": 41.83335425,
            "velocity": 0.7480314960629921
          },
          {
            "duration": 0.16666675000000453,
            "durationTicks": 120,
            "midi": 65,
            "name": "F4",
            "ticks": 30480,
            "time": 42.3333545,
            "velocity": 0.7480314960629921
          },
          {
            "duration": 0.2500001249999997,
            "durationTicks": 180,
            "midi": 62,
            "name": "D4",
            "ticks": 46080,
            "time": 64.000032,
            "velocity": 0.7480314960629921
          },
          {
            "duration": 0.2500001249999997,
            "durationTicks": 180,
            "midi": 50,
            "name": "D3",
            "ticks": 46080,
            "time": 64.000032,
            "velocity": 0.7480314960629921
          },
          {
            "duration": 0.16666674999999032,
            "durationTicks": 120,
            "midi": 63,
            "name": "D#4",
            "ticks": 46440,
            "time": 64.50003225,
            "velocity": 0.7480314960629921
          },
          {
            "duration": 0.16666674999999032,
            "durationTicks": 120,
            "midi": 51,
            "name": "D#3",
            "ticks": 46440,
            "time": 64.50003225,
            "velocity": 0.7480314960629921
          },
          {
            "duration": 0.16666675000000453,
            "durationTicks": 120,
            "midi": 58,
            "name": "A#3",
            "ticks": 46800,
            "time": 65.0000325,
            "velocity": 0.7480314960629921
          },
          {
            "duration": 0.16666675000000453,
            "durationTicks": 120,
            "midi": 46,
            "name": "A#2",
            "ticks": 46800,
            "time": 65.0000325,
            "velocity": 0.7480314960629921
          },
          {
            "duration": 0.16666675000000453,
            "durationTicks": 120,
            "midi": 62,
            "name": "D4",
            "ticks": 47040,
            "time": 65.333366,
            "velocity": 0.7480314960629921
          },
          {
            "duration": 0.16666675000000453,
            "durationTicks": 120,
            "midi": 50,
            "name": "D3",
            "ticks": 47040,
            "time": 65.333366,
            "velocity": 0.7480314960629921
          },
          {
            "duration": 0.16666675000000453,
            "durationTicks": 120,
            "midi": 63,
            "name": "D#4",
            "ticks": 47400,
            "time": 65.83336625,
            "velocity": 0.7480314960629921
          },
          {
            "duration": 0.16666675000000453,
            "durationTicks": 120,
            "midi": 51,
            "name": "D#3",
            "ticks": 47400,
            "time": 65.83336625,
            "velocity": 0.7480314960629921
          },
          {
            "duration": 0.16666675000000453,
            "durationTicks": 120,
            "midi": 58,
            "name": "A#3",
            "ticks": 47760,
            "time": 66.3333665,
            "velocity": 0.7480314960629921
          },
          {
            "duration": 0.16666675000000453,
            "durationTicks": 120,
            "midi": 46,
            "name": "A#2",
            "ticks": 47760,
            "time": 66.3333665,
            "velocity": 0.7480314960629921
          },
          {
            "duration": 0.2500001249999997,
            "durationTicks": 180,
            "midi": 56,
            "name": "G#3",
            "ticks": 48000,
            "time": 66.6667,
            "velocity": 0.7480314960629921
          },
          {
            "duration": 0.2500001249999997,
            "durationTicks": 180,
            "midi": 44,
            "name": "G#2",
            "ticks": 48000,
            "time": 66.6667,
            "velocity": 0.7480314960629921
          },
          {
            "duration": 0.16666674999999032,
            "durationTicks": 120,
            "midi": 60,
            "name": "C4",
            "ticks": 48360,
            "time": 67.16670025,
            "velocity": 0.7480314960629921
          },
          {
            "duration": 0.16666674999999032,
            "durationTicks": 120,
            "midi": 48,
            "name": "C3",
            "ticks": 48360,
            "time": 67.16670025,
            "velocity": 0.7480314960629921
          },
          {
            "duration": 0.16666674999999032,
            "durationTicks": 120,
            "midi": 56,
            "name": "G#3",
            "ticks": 48720,
            "time": 67.6667005,
            "velocity": 0.7480314960629921
          },
          {
            "duration": 0.16666674999999032,
            "durationTicks": 120,
            "midi": 44,
            "name": "G#2",
            "ticks": 48720,
            "time": 67.6667005,
            "velocity": 0.7480314960629921
          },
          {
            "duration": 0.16666675000000453,
            "durationTicks": 120,
            "midi": 68,
            "name": "G#4",
            "ticks": 48960,
            "time": 68.000034,
            "velocity": 0.7480314960629921
          },
          {
            "duration": 0.16666675000000453,
            "durationTicks": 120,
            "midi": 56,
            "name": "G#3",
            "ticks": 48960,
            "time": 68.000034,
            "velocity": 0.7480314960629921
          },
          {
            "duration": 0.16666675000000453,
            "durationTicks": 120,
            "midi": 67,
            "name": "G4",
            "ticks": 49320,
            "time": 68.50003425,
            "velocity": 0.7480314960629921
          },
          {
            "duration": 0.16666675000000453,
            "durationTicks": 120,
            "midi": 55,
            "name": "G3",
            "ticks": 49320,
            "time": 68.50003425,
            "velocity": 0.7480314960629921
          },
          {
            "duration": 0.16666675000000453,
            "durationTicks": 120,
            "midi": 63,
            "name": "D#4",
            "ticks": 49680,
            "time": 69.0000345,
            "velocity": 0.7480314960629921
          },
          {
            "duration": 0.16666675000000453,
            "durationTicks": 120,
            "midi": 51,
            "name": "D#3",
            "ticks": 49680,
            "time": 69.0000345,
            "velocity": 0.7480314960629921
          },
          {
            "duration": 0.2500001249999997,
            "durationTicks": 180,
            "midi": 62,
            "name": "D4",
            "ticks": 49920,
            "time": 69.33336800000001,
            "velocity": 0.7480314960629921
          },
          {
            "duration": 0.2500001249999997,
            "durationTicks": 180,
            "midi": 50,
            "name": "D3",
            "ticks": 49920,
            "time": 69.33336800000001,
            "velocity": 0.7480314960629921
          },
          {
            "duration": 0.16666674999999032,
            "durationTicks": 120,
            "midi": 63,
            "name": "D#4",
            "ticks": 50280,
            "time": 69.83336825,
            "velocity": 0.7480314960629921
          },
          {
            "duration": 0.16666674999999032,
            "durationTicks": 120,
            "midi": 51,
            "name": "D#3",
            "ticks": 50280,
            "time": 69.83336825,
            "velocity": 0.7480314960629921
          },
          {
            "duration": 0.16666674999999032,
            "durationTicks": 120,
            "midi": 58,
            "name": "A#3",
            "ticks": 50640,
            "time": 70.3333685,
            "velocity": 0.7480314960629921
          },
          {
            "duration": 0.16666674999999032,
            "durationTicks": 120,
            "midi": 46,
            "name": "A#2",
            "ticks": 50640,
            "time": 70.3333685,
            "velocity": 0.7480314960629921
          },
          {
            "duration": 0.16666675000000453,
            "durationTicks": 120,
            "midi": 62,
            "name": "D4",
            "ticks": 50880,
            "time": 70.666702,
            "velocity": 0.7480314960629921
          },
          {
            "duration": 0.16666675000000453,
            "durationTicks": 120,
            "midi": 50,
            "name": "D3",
            "ticks": 50880,
            "time": 70.666702,
            "velocity": 0.7480314960629921
          },
          {
            "duration": 0.16666675000000453,
            "durationTicks": 120,
            "midi": 65,
            "name": "F4",
            "ticks": 51240,
            "time": 71.16670225,
            "velocity": 0.7480314960629921
          },
          {
            "duration": 0.16666675000000453,
            "durationTicks": 120,
            "midi": 53,
            "name": "F3",
            "ticks": 51240,
            "time": 71.16670225,
            "velocity": 0.7480314960629921
          },
          {
            "duration": 0.16666675000000453,
            "durationTicks": 120,
            "midi": 67,
            "name": "G4",
            "ticks": 51600,
            "time": 71.6667025,
            "velocity": 0.7480314960629921
          },
          {
            "duration": 0.16666675000000453,
            "durationTicks": 120,
            "midi": 55,
            "name": "G3",
            "ticks": 51600,
            "time": 71.6667025,
            "velocity": 0.7480314960629921
          },
          {
            "duration": 0.2500001249999997,
            "durationTicks": 180,
            "midi": 63,
            "name": "D#4",
            "ticks": 51840,
            "time": 72.000036,
            "velocity": 0.7480314960629921
          },
          {
            "duration": 0.2500001249999997,
            "durationTicks": 180,
            "midi": 51,
            "name": "D#3",
            "ticks": 51840,
            "time": 72.000036,
            "velocity": 0.7480314960629921
          },
          {
            "duration": 0.16666674999999032,
            "durationTicks": 120,
            "midi": 60,
            "name": "C4",
            "ticks": 52200,
            "time": 72.50003625000001,
            "velocity": 0.7480314960629921
          },
          {
            "duration": 0.16666674999999032,
            "durationTicks": 120,
            "midi": 48,
            "name": "C3",
            "ticks": 52200,
            "time": 72.50003625000001,
            "velocity": 0.7480314960629921
          },
          {
            "duration": 0.16666674999999032,
            "durationTicks": 120,
            "midi": 63,
            "name": "D#4",
            "ticks": 52560,
            "time": 73.00003650000001,
            "velocity": 0.7480314960629921
          },
          {
            "duration": 0.16666674999999032,
            "durationTicks": 120,
            "midi": 51,
            "name": "D#3",
            "ticks": 52560,
            "time": 73.00003650000001,
            "velocity": 0.7480314960629921
          },
          {
            "duration": 0.16666674999999032,
            "durationTicks": 120,
            "midi": 60,
            "name": "C4",
            "ticks": 52920,
            "time": 73.50003675,
            "velocity": 0.7480314960629921
          },
          {
            "duration": 0.16666674999999032,
            "durationTicks": 120,
            "midi": 48,
            "name": "C3",
            "ticks": 52920,
            "time": 73.50003675,
            "velocity": 0.7480314960629921
          },
          {
            "duration": 0.16666674999999032,
            "durationTicks": 120,
            "midi": 67,
            "name": "G4",
            "ticks": 53280,
            "time": 74.000037,
            "velocity": 0.7480314960629921
          },
          {
            "duration": 0.08333337499999516,
            "durationTicks": 60,
            "midi": 55,
            "name": "G3",
            "ticks": 53280,
            "time": 74.000037,
            "velocity": 0.7480314960629921
          },
          {
            "duration": 0.16666675000000453,
            "durationTicks": 120,
            "midi": 58,
            "name": "A#3",
            "ticks": 53520,
            "time": 74.3333705,
            "velocity": 0.7480314960629921
          },
          {
            "duration": 0.16666675000000453,
            "durationTicks": 120,
            "midi": 46,
            "name": "A#2",
            "ticks": 53520,
            "time": 74.3333705,
            "velocity": 0.7480314960629921
          },
          {
            "duration": 0.16666674999999032,
            "durationTicks": 120,
            "midi": 60,
            "name": "C4",
            "ticks": 53640,
            "time": 74.50003725,
            "velocity": 0.7480314960629921
          },
          {
            "duration": 0.16666674999999032,
            "durationTicks": 120,
            "midi": 48,
            "name": "C3",
            "ticks": 53640,
            "time": 74.50003725,
            "velocity": 0.7480314960629921
          },
          {
            "duration": 0.2500001249999997,
            "durationTicks": 180,
            "midi": 62,
            "name": "D4",
            "ticks": 53760,
            "time": 74.666704,
            "velocity": 0.7480314960629921
          },
          {
            "duration": 0.2500001249999997,
            "durationTicks": 180,
            "midi": 50,
            "name": "D3",
            "ticks": 53760,
            "time": 74.666704,
            "velocity": 0.7480314960629921
          },
          {
            "duration": 0.16666675000000453,
            "durationTicks": 120,
            "midi": 63,
            "name": "D#4",
            "ticks": 54120,
            "time": 75.16670425,
            "velocity": 0.7480314960629921
          },
          {
            "duration": 0.16666675000000453,
            "durationTicks": 120,
            "midi": 51,
            "name": "D#3",
            "ticks": 54120,
            "time": 75.16670425,
            "velocity": 0.7480314960629921
          },
          {
            "duration": 0.16666675000000453,
            "durationTicks": 120,
            "midi": 58,
            "name": "A#3",
            "ticks": 54480,
            "time": 75.6667045,
            "velocity": 0.7480314960629921
          },
          {
            "duration": 0.16666675000000453,
            "durationTicks": 120,
            "midi": 46,
            "name": "A#2",
            "ticks": 54480,
            "time": 75.6667045,
            "velocity": 0.7480314960629921
          },
          {
            "duration": 0.16666675000000453,
            "durationTicks": 120,
            "midi": 62,
            "name": "D4",
            "ticks": 54720,
            "time": 76.000038,
            "velocity": 0.7480314960629921
          },
          {
            "duration": 0.16666675000000453,
            "durationTicks": 120,
            "midi": 50,
            "name": "D3",
            "ticks": 54720,
            "time": 76.000038,
            "velocity": 0.7480314960629921
          },
          {
            "duration": 0.16666675000000453,
            "durationTicks": 120,
            "midi": 63,
            "name": "D#4",
            "ticks": 55080,
            "time": 76.50003825,
            "velocity": 0.7480314960629921
          },
          {
            "duration": 0.16666675000000453,
            "durationTicks": 120,
            "midi": 51,
            "name": "D#3",
            "ticks": 55080,
            "time": 76.50003825,
            "velocity": 0.7480314960629921
          },
          {
            "duration": 0.16666675000000453,
            "durationTicks": 120,
            "midi": 58,
            "name": "A#3",
            "ticks": 55440,
            "time": 77.0000385,
            "velocity": 0.7480314960629921
          },
          {
            "duration": 0.16666675000000453,
            "durationTicks": 120,
            "midi": 46,
            "name": "A#2",
            "ticks": 55440,
            "time": 77.0000385,
            "velocity": 0.7480314960629921
          },
          {
            "duration": 0.2500001249999997,
            "durationTicks": 180,
            "midi": 56,
            "name": "G#3",
            "ticks": 55680,
            "time": 77.333372,
            "velocity": 0.7480314960629921
          },
          {
            "duration": 0.2500001249999997,
            "durationTicks": 180,
            "midi": 44,
            "name": "G#2",
            "ticks": 55680,
            "time": 77.333372,
            "velocity": 0.7480314960629921
          },
          {
            "duration": 0.16666675000000453,
            "durationTicks": 120,
            "midi": 60,
            "name": "C4",
            "ticks": 56040,
            "time": 77.83337225,
            "velocity": 0.7480314960629921
          },
          {
            "duration": 0.16666675000000453,
            "durationTicks": 120,
            "midi": 48,
            "name": "C3",
            "ticks": 56040,
            "time": 77.83337225,
            "velocity": 0.7480314960629921
          },
          {
            "duration": 0.16666675000000453,
            "durationTicks": 120,
            "midi": 56,
            "name": "G#3",
            "ticks": 56400,
            "time": 78.3333725,
            "velocity": 0.7480314960629921
          },
          {
            "duration": 0.16666675000000453,
            "durationTicks": 120,
            "midi": 44,
            "name": "G#2",
            "ticks": 56400,
            "time": 78.3333725,
            "velocity": 0.7480314960629921
          },
          {
            "duration": 0.16666674999999032,
            "durationTicks": 120,
            "midi": 68,
            "name": "G#4",
            "ticks": 56640,
            "time": 78.666706,
            "velocity": 0.7480314960629921
          },
          {
            "duration": 0.16666674999999032,
            "durationTicks": 120,
            "midi": 56,
            "name": "G#3",
            "ticks": 56640,
            "time": 78.666706,
            "velocity": 0.7480314960629921
          },
          {
            "duration": 0.16666674999999032,
            "durationTicks": 120,
            "midi": 67,
            "name": "G4",
            "ticks": 57000,
            "time": 79.16670625,
            "velocity": 0.7480314960629921
          },
          {
            "duration": 0.16666674999999032,
            "durationTicks": 120,
            "midi": 55,
            "name": "G3",
            "ticks": 57000,
            "time": 79.16670625,
            "velocity": 0.7480314960629921
          },
          {
            "duration": 0.16666675000000453,
            "durationTicks": 120,
            "midi": 63,
            "name": "D#4",
            "ticks": 57360,
            "time": 79.6667065,
            "velocity": 0.7480314960629921
          },
          {
            "duration": 0.16666675000000453,
            "durationTicks": 120,
            "midi": 51,
            "name": "D#3",
            "ticks": 57360,
            "time": 79.6667065,
            "velocity": 0.7480314960629921
          },
          {
            "duration": 0.2500001249999997,
            "durationTicks": 180,
            "midi": 62,
            "name": "D4",
            "ticks": 57600,
            "time": 80.00004,
            "velocity": 0.7480314960629921
          },
          {
            "duration": 0.2500001249999997,
            "durationTicks": 180,
            "midi": 50,
            "name": "D3",
            "ticks": 57600,
            "time": 80.00004,
            "velocity": 0.7480314960629921
          },
          {
            "duration": 0.16666675000000453,
            "durationTicks": 120,
            "midi": 63,
            "name": "D#4",
            "ticks": 57960,
            "time": 80.50004025,
            "velocity": 0.7480314960629921
          },
          {
            "duration": 0.16666675000000453,
            "durationTicks": 120,
            "midi": 51,
            "name": "D#3",
            "ticks": 57960,
            "time": 80.50004025,
            "velocity": 0.7480314960629921
          },
          {
            "duration": 0.16666675000000453,
            "durationTicks": 120,
            "midi": 65,
            "name": "F4",
            "ticks": 58320,
            "time": 81.0000405,
            "velocity": 0.7480314960629921
          },
          {
            "duration": 0.16666675000000453,
            "durationTicks": 120,
            "midi": 53,
            "name": "F3",
            "ticks": 58320,
            "time": 81.0000405,
            "velocity": 0.7480314960629921
          },
          {
            "duration": 0.16666674999999032,
            "durationTicks": 120,
            "midi": 67,
            "name": "G4",
            "ticks": 58560,
            "time": 81.333374,
            "velocity": 0.7480314960629921
          },
          {
            "duration": 0.16666674999999032,
            "durationTicks": 120,
            "midi": 55,
            "name": "G3",
            "ticks": 58560,
            "time": 81.333374,
            "velocity": 0.7480314960629921
          },
          {
            "duration": 0.16666674999999032,
            "durationTicks": 120,
            "midi": 65,
            "name": "F4",
            "ticks": 58920,
            "time": 81.83337425,
            "velocity": 0.7480314960629921
          },
          {
            "duration": 0.16666674999999032,
            "durationTicks": 120,
            "midi": 53,
            "name": "F3",
            "ticks": 58920,
            "time": 81.83337425,
            "velocity": 0.7480314960629921
          },
          {
            "duration": 0.16666674999999032,
            "durationTicks": 120,
            "midi": 67,
            "name": "G4",
            "ticks": 59280,
            "time": 82.3333745,
            "velocity": 0.7480314960629921
          },
          {
            "duration": 0.16666674999999032,
            "durationTicks": 120,
            "midi": 55,
            "name": "G3",
            "ticks": 59280,
            "time": 82.3333745,
            "velocity": 0.7480314960629921
          },
          {
            "duration": 0.2500001249999997,
            "durationTicks": 180,
            "midi": 63,
            "name": "D#4",
            "ticks": 59520,
            "time": 82.666708,
            "velocity": 0.7480314960629921
          },
          {
            "duration": 0.2500001249999997,
            "durationTicks": 180,
            "midi": 51,
            "name": "D#3",
            "ticks": 59520,
            "time": 82.666708,
            "velocity": 0.7480314960629921
          },
          {
            "duration": 0.16666675000000453,
            "durationTicks": 120,
            "midi": 60,
            "name": "C4",
            "ticks": 59880,
            "time": 83.16670825,
            "velocity": 0.7480314960629921
          },
          {
            "duration": 0.16666675000000453,
            "durationTicks": 120,
            "midi": 48,
            "name": "C3",
            "ticks": 59880,
            "time": 83.16670825,
            "velocity": 0.7480314960629921
          },
          {
            "duration": 0.16666675000000453,
            "durationTicks": 120,
            "midi": 63,
            "name": "D#4",
            "ticks": 60240,
            "time": 83.6667085,
            "velocity": 0.7480314960629921
          },
          {
            "duration": 0.16666675000000453,
            "durationTicks": 120,
            "midi": 51,
            "name": "D#3",
            "ticks": 60240,
            "time": 83.6667085,
            "velocity": 0.7480314960629921
          },
          {
            "duration": 0.16666674999999032,
            "durationTicks": 120,
            "midi": 72,
            "name": "C5",
            "ticks": 60480,
            "time": 84.00004200000001,
            "velocity": 0.7480314960629921
          },
          {
            "duration": 0.16666674999999032,
            "durationTicks": 120,
            "midi": 60,
            "name": "C4",
            "ticks": 60480,
            "time": 84.00004200000001,
            "velocity": 0.7480314960629921
          },
          {
            "duration": 0.16666674999999032,
            "durationTicks": 120,
            "midi": 67,
            "name": "G4",
            "ticks": 60840,
            "time": 84.50004225,
            "velocity": 0.7480314960629921
          },
          {
            "duration": 0.16666674999999032,
            "durationTicks": 120,
            "midi": 55,
            "name": "G3",
            "ticks": 60840,
            "time": 84.50004225,
            "velocity": 0.7480314960629921
          },
          {
            "duration": 0.2500001249999997,
            "durationTicks": 180,
            "midi": 62,
            "name": "D4",
            "ticks": 78720,
            "time": 109.333388,
            "velocity": 0.7480314960629921
          },
          {
            "duration": 0.2500001249999997,
            "durationTicks": 180,
            "midi": 50,
            "name": "D3",
            "ticks": 78720,
            "time": 109.333388,
            "velocity": 0.7480314960629921
          },
          {
            "duration": 0.16666675000000453,
            "durationTicks": 120,
            "midi": 63,
            "name": "D#4",
            "ticks": 79080,
            "time": 109.83338825,
            "velocity": 0.7480314960629921
          },
          {
            "duration": 0.16666675000000453,
            "durationTicks": 120,
            "midi": 51,
            "name": "D#3",
            "ticks": 79080,
            "time": 109.83338825,
            "velocity": 0.7480314960629921
          },
          {
            "duration": 0.16666675000000453,
            "durationTicks": 120,
            "midi": 58,
            "name": "A#3",
            "ticks": 79440,
            "time": 110.3333885,
            "velocity": 0.7480314960629921
          },
          {
            "duration": 0.16666675000000453,
            "durationTicks": 120,
            "midi": 46,
            "name": "A#2",
            "ticks": 79440,
            "time": 110.3333885,
            "velocity": 0.7480314960629921
          },
          {
            "duration": 0.16666674999999032,
            "durationTicks": 120,
            "midi": 62,
            "name": "D4",
            "ticks": 79680,
            "time": 110.66672200000001,
            "velocity": 0.7480314960629921
          },
          {
            "duration": 0.16666674999999032,
            "durationTicks": 120,
            "midi": 50,
            "name": "D3",
            "ticks": 79680,
            "time": 110.66672200000001,
            "velocity": 0.7480314960629921
          },
          {
            "duration": 0.16666674999999032,
            "durationTicks": 120,
            "midi": 63,
            "name": "D#4",
            "ticks": 80040,
            "time": 111.16672225,
            "velocity": 0.7480314960629921
          },
          {
            "duration": 0.16666674999999032,
            "durationTicks": 120,
            "midi": 51,
            "name": "D#3",
            "ticks": 80040,
            "time": 111.16672225,
            "velocity": 0.7480314960629921
          },
          {
            "duration": 0.16666674999999032,
            "durationTicks": 120,
            "midi": 58,
            "name": "A#3",
            "ticks": 80400,
            "time": 111.6667225,
            "velocity": 0.7480314960629921
          },
          {
            "duration": 0.16666674999999032,
            "durationTicks": 120,
            "midi": 46,
            "name": "A#2",
            "ticks": 80400,
            "time": 111.6667225,
            "velocity": 0.7480314960629921
          },
          {
            "duration": 0.2500001249999997,
            "durationTicks": 180,
            "midi": 56,
            "name": "G#3",
            "ticks": 80640,
            "time": 112.000056,
            "velocity": 0.7480314960629921
          },
          {
            "duration": 0.2500001249999997,
            "durationTicks": 180,
            "midi": 44,
            "name": "G#2",
            "ticks": 80640,
            "time": 112.000056,
            "velocity": 0.7480314960629921
          },
          {
            "duration": 0.16666675000000453,
            "durationTicks": 120,
            "midi": 60,
            "name": "C4",
            "ticks": 81000,
            "time": 112.50005625,
            "velocity": 0.7480314960629921
          },
          {
            "duration": 0.16666675000000453,
            "durationTicks": 120,
            "midi": 48,
            "name": "C3",
            "ticks": 81000,
            "time": 112.50005625,
            "velocity": 0.7480314960629921
          },
          {
            "duration": 0.16666675000000453,
            "durationTicks": 120,
            "midi": 56,
            "name": "G#3",
            "ticks": 81360,
            "time": 113.0000565,
            "velocity": 0.7480314960629921
          },
          {
            "duration": 0.16666675000000453,
            "durationTicks": 120,
            "midi": 44,
            "name": "G#2",
            "ticks": 81360,
            "time": 113.0000565,
            "velocity": 0.7480314960629921
          },
          {
            "duration": 0.16666674999999032,
            "durationTicks": 120,
            "midi": 68,
            "name": "G#4",
            "ticks": 81600,
            "time": 113.33339000000001,
            "velocity": 0.7480314960629921
          },
          {
            "duration": 0.16666674999999032,
            "durationTicks": 120,
            "midi": 56,
            "name": "G#3",
            "ticks": 81600,
            "time": 113.33339000000001,
            "velocity": 0.7480314960629921
          },
          {
            "duration": 0.16666674999999032,
            "durationTicks": 120,
            "midi": 67,
            "name": "G4",
            "ticks": 81960,
            "time": 113.83339025000001,
            "velocity": 0.7480314960629921
          },
          {
            "duration": 0.16666674999999032,
            "durationTicks": 120,
            "midi": 55,
            "name": "G3",
            "ticks": 81960,
            "time": 113.83339025000001,
            "velocity": 0.7480314960629921
          },
          {
            "duration": 0.16666674999999032,
            "durationTicks": 120,
            "midi": 63,
            "name": "D#4",
            "ticks": 82320,
            "time": 114.33339050000001,
            "velocity": 0.7480314960629921
          },
          {
            "duration": 0.16666674999999032,
            "durationTicks": 120,
            "midi": 51,
            "name": "D#3",
            "ticks": 82320,
            "time": 114.33339050000001,
            "velocity": 0.7480314960629921
          },
          {
            "duration": 0.2500001249999997,
            "durationTicks": 180,
            "midi": 62,
            "name": "D4",
            "ticks": 82560,
            "time": 114.666724,
            "velocity": 0.7480314960629921
          },
          {
            "duration": 0.2500001249999997,
            "durationTicks": 180,
            "midi": 50,
            "name": "D3",
            "ticks": 82560,
            "time": 114.666724,
            "velocity": 0.7480314960629921
          },
          {
            "duration": 0.16666675000000453,
            "durationTicks": 120,
            "midi": 63,
            "name": "D#4",
            "ticks": 82920,
            "time": 115.16672425,
            "velocity": 0.7480314960629921
          },
          {
            "duration": 0.16666675000000453,
            "durationTicks": 120,
            "midi": 51,
            "name": "D#3",
            "ticks": 82920,
            "time": 115.16672425,
            "velocity": 0.7480314960629921
          },
          {
            "duration": 0.16666675000000453,
            "durationTicks": 120,
            "midi": 58,
            "name": "A#3",
            "ticks": 83280,
            "time": 115.6667245,
            "velocity": 0.7480314960629921
          },
          {
            "duration": 0.16666675000000453,
            "durationTicks": 120,
            "midi": 46,
            "name": "A#2",
            "ticks": 83280,
            "time": 115.6667245,
            "velocity": 0.7480314960629921
          },
          {
            "duration": 0.16666675000000453,
            "durationTicks": 120,
            "midi": 62,
            "name": "D4",
            "ticks": 83520,
            "time": 116.000058,
            "velocity": 0.7480314960629921
          },
          {
            "duration": 0.16666675000000453,
            "durationTicks": 120,
            "midi": 50,
            "name": "D3",
            "ticks": 83520,
            "time": 116.000058,
            "velocity": 0.7480314960629921
          },
          {
            "duration": 0.16666675000000453,
            "durationTicks": 120,
            "midi": 65,
            "name": "F4",
            "ticks": 83880,
            "time": 116.50005825,
            "velocity": 0.7480314960629921
          },
          {
            "duration": 0.16666675000000453,
            "durationTicks": 120,
            "midi": 53,
            "name": "F3",
            "ticks": 83880,
            "time": 116.50005825,
            "velocity": 0.7480314960629921
          },
          {
            "duration": 0.16666674999999032,
            "durationTicks": 120,
            "midi": 67,
            "name": "G4",
            "ticks": 84240,
            "time": 117.00005850000001,
            "velocity": 0.7480314960629921
          },
          {
            "duration": 0.16666674999999032,
            "durationTicks": 120,
            "midi": 55,
            "name": "G3",
            "ticks": 84240,
            "time": 117.00005850000001,
            "velocity": 0.7480314960629921
          },
          {
            "duration": 0.2500001249999997,
            "durationTicks": 180,
            "midi": 63,
            "name": "D#4",
            "ticks": 84480,
            "time": 117.333392,
            "velocity": 0.7480314960629921
          },
          {
            "duration": 0.2500001249999997,
            "durationTicks": 180,
            "midi": 51,
            "name": "D#3",
            "ticks": 84480,
            "time": 117.333392,
            "velocity": 0.7480314960629921
          },
          {
            "duration": 0.16666675000000453,
            "durationTicks": 120,
            "midi": 60,
            "name": "C4",
            "ticks": 84840,
            "time": 117.83339225,
            "velocity": 0.7480314960629921
          },
          {
            "duration": 0.16666675000000453,
            "durationTicks": 120,
            "midi": 48,
            "name": "C3",
            "ticks": 84840,
            "time": 117.83339225,
            "velocity": 0.7480314960629921
          },
          {
            "duration": 0.16666675000000453,
            "durationTicks": 120,
            "midi": 63,
            "name": "D#4",
            "ticks": 85200,
            "time": 118.3333925,
            "velocity": 0.7480314960629921
          },
          {
            "duration": 0.16666675000000453,
            "durationTicks": 120,
            "midi": 51,
            "name": "D#3",
            "ticks": 85200,
            "time": 118.3333925,
            "velocity": 0.7480314960629921
          },
          {
            "duration": 0.16666675000000453,
            "durationTicks": 120,
            "midi": 60,
            "name": "C4",
            "ticks": 85560,
            "time": 118.83339275,
            "velocity": 0.7480314960629921
          },
          {
            "duration": 0.16666675000000453,
            "durationTicks": 120,
            "midi": 48,
            "name": "C3",
            "ticks": 85560,
            "time": 118.83339275,
            "velocity": 0.7480314960629921
          },
          {
            "duration": 0.16666675000000453,
            "durationTicks": 120,
            "midi": 67,
            "name": "G4",
            "ticks": 85920,
            "time": 119.333393,
            "velocity": 0.7480314960629921
          },
          {
            "duration": 0.08333337499999516,
            "durationTicks": 60,
            "midi": 55,
            "name": "G3",
            "ticks": 85920,
            "time": 119.333393,
            "velocity": 0.7480314960629921
          },
          {
            "duration": 0.16666675000000453,
            "durationTicks": 120,
            "midi": 58,
            "name": "A#3",
            "ticks": 86160,
            "time": 119.6667265,
            "velocity": 0.7480314960629921
          },
          {
            "duration": 0.16666675000000453,
            "durationTicks": 120,
            "midi": 46,
            "name": "A#2",
            "ticks": 86160,
            "time": 119.6667265,
            "velocity": 0.7480314960629921
          },
          {
            "duration": 0.16666675000000453,
            "durationTicks": 120,
            "midi": 60,
            "name": "C4",
            "ticks": 86280,
            "time": 119.83339325,
            "velocity": 0.7480314960629921
          },
          {
            "duration": 0.16666675000000453,
            "durationTicks": 120,
            "midi": 48,
            "name": "C3",
            "ticks": 86280,
            "time": 119.83339325,
            "velocity": 0.7480314960629921
          },
          {
            "duration": 0.2500001249999997,
            "durationTicks": 180,
            "midi": 62,
            "name": "D4",
            "ticks": 86400,
            "time": 120.00006,
            "velocity": 0.7480314960629921
          },
          {
            "duration": 0.2500001249999997,
            "durationTicks": 180,
            "midi": 50,
            "name": "D3",
            "ticks": 86400,
            "time": 120.00006,
            "velocity": 0.7480314960629921
          },
          {
            "duration": 0.16666675000000453,
            "durationTicks": 120,
            "midi": 63,
            "name": "D#4",
            "ticks": 86760,
            "time": 120.50006025,
            "velocity": 0.7480314960629921
          },
          {
            "duration": 0.16666675000000453,
            "durationTicks": 120,
            "midi": 51,
            "name": "D#3",
            "ticks": 86760,
            "time": 120.50006025,
            "velocity": 0.7480314960629921
          },
          {
            "duration": 0.16666675000000453,
            "durationTicks": 120,
            "midi": 58,
            "name": "A#3",
            "ticks": 87120,
            "time": 121.0000605,
            "velocity": 0.7480314960629921
          },
          {
            "duration": 0.16666675000000453,
            "durationTicks": 120,
            "midi": 46,
            "name": "A#2",
            "ticks": 87120,
            "time": 121.0000605,
            "velocity": 0.7480314960629921
          },
          {
            "duration": 0.16666675000000453,
            "durationTicks": 120,
            "midi": 62,
            "name": "D4",
            "ticks": 87360,
            "time": 121.333394,
            "velocity": 0.7480314960629921
          },
          {
            "duration": 0.16666675000000453,
            "durationTicks": 120,
            "midi": 50,
            "name": "D3",
            "ticks": 87360,
            "time": 121.333394,
            "velocity": 0.7480314960629921
          },
          {
            "duration": 0.16666675000000453,
            "durationTicks": 120,
            "midi": 63,
            "name": "D#4",
            "ticks": 87720,
            "time": 121.83339425,
            "velocity": 0.7480314960629921
          },
          {
            "duration": 0.16666675000000453,
            "durationTicks": 120,
            "midi": 51,
            "name": "D#3",
            "ticks": 87720,
            "time": 121.83339425,
            "velocity": 0.7480314960629921
          },
          {
            "duration": 0.16666675000000453,
            "durationTicks": 120,
            "midi": 58,
            "name": "A#3",
            "ticks": 88080,
            "time": 122.3333945,
            "velocity": 0.7480314960629921
          },
          {
            "duration": 0.16666675000000453,
            "durationTicks": 120,
            "midi": 46,
            "name": "A#2",
            "ticks": 88080,
            "time": 122.3333945,
            "velocity": 0.7480314960629921
          },
          {
            "duration": 0.2500001249999997,
            "durationTicks": 180,
            "midi": 56,
            "name": "G#3",
            "ticks": 88320,
            "time": 122.666728,
            "velocity": 0.7480314960629921
          },
          {
            "duration": 0.2500001249999997,
            "durationTicks": 180,
            "midi": 44,
            "name": "G#2",
            "ticks": 88320,
            "time": 122.666728,
            "velocity": 0.7480314960629921
          },
          {
            "duration": 0.16666674999999032,
            "durationTicks": 120,
            "midi": 60,
            "name": "C4",
            "ticks": 88680,
            "time": 123.16672825,
            "velocity": 0.7480314960629921
          },
          {
            "duration": 0.16666674999999032,
            "durationTicks": 120,
            "midi": 48,
            "name": "C3",
            "ticks": 88680,
            "time": 123.16672825,
            "velocity": 0.7480314960629921
          },
          {
            "duration": 0.16666674999999032,
            "durationTicks": 120,
            "midi": 56,
            "name": "G#3",
            "ticks": 89040,
            "time": 123.6667285,
            "velocity": 0.7480314960629921
          },
          {
            "duration": 0.16666674999999032,
            "durationTicks": 120,
            "midi": 44,
            "name": "G#2",
            "ticks": 89040,
            "time": 123.6667285,
            "velocity": 0.7480314960629921
          },
          {
            "duration": 0.16666675000000453,
            "durationTicks": 120,
            "midi": 68,
            "name": "G#4",
            "ticks": 89280,
            "time": 124.000062,
            "velocity": 0.7480314960629921
          },
          {
            "duration": 0.16666675000000453,
            "durationTicks": 120,
            "midi": 56,
            "name": "G#3",
            "ticks": 89280,
            "time": 124.000062,
            "velocity": 0.7480314960629921
          },
          {
            "duration": 0.16666675000000453,
            "durationTicks": 120,
            "midi": 67,
            "name": "G4",
            "ticks": 89640,
            "time": 124.50006225,
            "velocity": 0.7480314960629921
          },
          {
            "duration": 0.16666675000000453,
            "durationTicks": 120,
            "midi": 55,
            "name": "G3",
            "ticks": 89640,
            "time": 124.50006225,
            "velocity": 0.7480314960629921
          },
          {
            "duration": 0.16666675000000453,
            "durationTicks": 120,
            "midi": 63,
            "name": "D#4",
            "ticks": 90000,
            "time": 125.0000625,
            "velocity": 0.7480314960629921
          },
          {
            "duration": 0.16666675000000453,
            "durationTicks": 120,
            "midi": 51,
            "name": "D#3",
            "ticks": 90000,
            "time": 125.0000625,
            "velocity": 0.7480314960629921
          },
          {
            "duration": 0.2500001249999997,
            "durationTicks": 180,
            "midi": 62,
            "name": "D4",
            "ticks": 90240,
            "time": 125.33339600000001,
            "velocity": 0.7480314960629921
          },
          {
            "duration": 0.2500001249999997,
            "durationTicks": 180,
            "midi": 50,
            "name": "D3",
            "ticks": 90240,
            "time": 125.33339600000001,
            "velocity": 0.7480314960629921
          },
          {
            "duration": 0.16666674999999032,
            "durationTicks": 120,
            "midi": 63,
            "name": "D#4",
            "ticks": 90600,
            "time": 125.83339625,
            "velocity": 0.7480314960629921
          },
          {
            "duration": 0.16666674999999032,
            "durationTicks": 120,
            "midi": 51,
            "name": "D#3",
            "ticks": 90600,
            "time": 125.83339625,
            "velocity": 0.7480314960629921
          },
          {
            "duration": 0.16666674999999032,
            "durationTicks": 120,
            "midi": 65,
            "name": "F4",
            "ticks": 90960,
            "time": 126.3333965,
            "velocity": 0.7480314960629921
          },
          {
            "duration": 0.16666674999999032,
            "durationTicks": 120,
            "midi": 53,
            "name": "F3",
            "ticks": 90960,
            "time": 126.3333965,
            "velocity": 0.7480314960629921
          },
          {
            "duration": 0.16666675000000453,
            "durationTicks": 120,
            "midi": 67,
            "name": "G4",
            "ticks": 91200,
            "time": 126.66673,
            "velocity": 0.7480314960629921
          },
          {
            "duration": 0.16666675000000453,
            "durationTicks": 120,
            "midi": 55,
            "name": "G3",
            "ticks": 91200,
            "time": 126.66673,
            "velocity": 0.7480314960629921
          },
          {
            "duration": 0.16666675000000453,
            "durationTicks": 120,
            "midi": 65,
            "name": "F4",
            "ticks": 91560,
            "time": 127.16673025,
            "velocity": 0.7480314960629921
          },
          {
            "duration": 0.16666675000000453,
            "durationTicks": 120,
            "midi": 53,
            "name": "F3",
            "ticks": 91560,
            "time": 127.16673025,
            "velocity": 0.7480314960629921
          },
          {
            "duration": 0.16666675000000453,
            "durationTicks": 120,
            "midi": 67,
            "name": "G4",
            "ticks": 91920,
            "time": 127.6667305,
            "velocity": 0.7480314960629921
          },
          {
            "duration": 0.16666675000000453,
            "durationTicks": 120,
            "midi": 55,
            "name": "G3",
            "ticks": 91920,
            "time": 127.6667305,
            "velocity": 0.7480314960629921
          },
          {
            "duration": 0.33333349999998063,
            "durationTicks": 240,
            "midi": 63,
            "name": "D#4",
            "ticks": 92160,
            "time": 128.000064,
            "velocity": 0.7480314960629921
          },
          {
            "duration": 0.33333349999998063,
            "durationTicks": 240,
            "midi": 51,
            "name": "D#3",
            "ticks": 92160,
            "time": 128.000064,
            "velocity": 0.7480314960629921
          },
          {
            "duration": 0.5000002499999994,
            "durationTicks": 360,
            "midi": 74,
            "name": "D5",
            "ticks": 94080,
            "time": 130.666732,
            "velocity": 0.7480314960629921
          },
          {
            "duration": 0.5000002499999994,
            "durationTicks": 360,
            "midi": 75,
            "name": "D#5",
            "ticks": 94440,
            "time": 131.16673225,
            "velocity": 0.7480314960629921
          },
          {
            "duration": 0.33333350000000905,
            "durationTicks": 240,
            "midi": 70,
            "name": "A#4",
            "ticks": 94800,
            "time": 131.6667325,
            "velocity": 0.7480314960629921
          },
          {
            "duration": 0.5000002499999994,
            "durationTicks": 360,
            "midi": 74,
            "name": "D5",
            "ticks": 95040,
            "time": 132.000066,
            "velocity": 0.7480314960629921
          },
          {
            "duration": 0.5000002499999994,
            "durationTicks": 360,
            "midi": 75,
            "name": "D#5",
            "ticks": 95400,
            "time": 132.50006625,
            "velocity": 0.7480314960629921
          },
          {
            "duration": 0.33333350000000905,
            "durationTicks": 240,
            "midi": 70,
            "name": "A#4",
            "ticks": 95760,
            "time": 133.0000665,
            "velocity": 0.7480314960629921
          },
          {
            "duration": 0.5000002499999994,
            "durationTicks": 360,
            "midi": 68,
            "name": "G#4",
            "ticks": 96000,
            "time": 133.3334,
            "velocity": 0.7480314960629921
          },
          {
            "duration": 0.5000002499999994,
            "durationTicks": 360,
            "midi": 72,
            "name": "C5",
            "ticks": 96360,
            "time": 133.83340025,
            "velocity": 0.7480314960629921
          },
          {
            "duration": 0.33333349999998063,
            "durationTicks": 240,
            "midi": 68,
            "name": "G#4",
            "ticks": 96720,
            "time": 134.3334005,
            "velocity": 0.7480314960629921
          },
          {
            "duration": 0.5000002499999994,
            "durationTicks": 360,
            "midi": 80,
            "name": "G#5",
            "ticks": 96960,
            "time": 134.666734,
            "velocity": 0.7480314960629921
          },
          {
            "duration": 0.5000002499999994,
            "durationTicks": 360,
            "midi": 79,
            "name": "G5",
            "ticks": 97320,
            "time": 135.16673425,
            "velocity": 0.7480314960629921
          },
          {
            "duration": 0.33333350000000905,
            "durationTicks": 240,
            "midi": 75,
            "name": "D#5",
            "ticks": 97680,
            "time": 135.6667345,
            "velocity": 0.7480314960629921
          },
          {
            "duration": 0.5000002499999994,
            "durationTicks": 360,
            "midi": 74,
            "name": "D5",
            "ticks": 97920,
            "time": 136.000068,
            "velocity": 0.7480314960629921
          },
          {
            "duration": 0.5000002499999994,
            "durationTicks": 360,
            "midi": 75,
            "name": "D#5",
            "ticks": 98280,
            "time": 136.50006825,
            "velocity": 0.7480314960629921
          },
          {
            "duration": 0.33333350000000905,
            "durationTicks": 240,
            "midi": 70,
            "name": "A#4",
            "ticks": 98640,
            "time": 137.0000685,
            "velocity": 0.7480314960629921
          },
          {
            "duration": 0.5000002499999994,
            "durationTicks": 360,
            "midi": 74,
            "name": "D5",
            "ticks": 98880,
            "time": 137.333402,
            "velocity": 0.7480314960629921
          },
          {
            "duration": 0.5000002499999994,
            "durationTicks": 360,
            "midi": 77,
            "name": "F5",
            "ticks": 99240,
            "time": 137.83340225,
            "velocity": 0.7480314960629921
          },
          {
            "duration": 0.33333350000000905,
            "durationTicks": 240,
            "midi": 79,
            "name": "G5",
            "ticks": 99600,
            "time": 138.3334025,
            "velocity": 0.7480314960629921
          },
          {
            "duration": 0.5000002499999994,
            "durationTicks": 360,
            "midi": 75,
            "name": "D#5",
            "ticks": 99840,
            "time": 138.66673600000001,
            "velocity": 0.7480314960629921
          },
          {
            "duration": 0.5000002499999994,
            "durationTicks": 360,
            "midi": 72,
            "name": "C5",
            "ticks": 100200,
            "time": 139.16673625,
            "velocity": 0.7480314960629921
          },
          {
            "duration": 0.5000002499999994,
            "durationTicks": 360,
            "midi": 75,
            "name": "D#5",
            "ticks": 100560,
            "time": 139.6667365,
            "velocity": 0.7480314960629921
          },
          {
            "duration": 0.5000002499999994,
            "durationTicks": 360,
            "midi": 72,
            "name": "C5",
            "ticks": 100920,
            "time": 140.16673675,
            "velocity": 0.7480314960629921
          },
          {
            "duration": 0.33333349999998063,
            "durationTicks": 240,
            "midi": 79,
            "name": "G5",
            "ticks": 101280,
            "time": 140.666737,
            "velocity": 0.7480314960629921
          },
          {
            "duration": 0.16666675000001874,
            "durationTicks": 120,
            "midi": 70,
            "name": "A#4",
            "ticks": 101520,
            "time": 141.0000705,
            "velocity": 0.7480314960629921
          },
          {
            "duration": 0.16666674999999032,
            "durationTicks": 120,
            "midi": 72,
            "name": "C5",
            "ticks": 101640,
            "time": 141.16673725,
            "velocity": 0.7480314960629921
          },
          {
            "duration": 0.5000002499999994,
            "durationTicks": 360,
            "midi": 74,
            "name": "D5",
            "ticks": 101760,
            "time": 141.333404,
            "velocity": 0.7480314960629921
          },
          {
            "duration": 0.5000002499999994,
            "durationTicks": 360,
            "midi": 75,
            "name": "D#5",
            "ticks": 102120,
            "time": 141.83340425,
            "velocity": 0.7480314960629921
          },
          {
            "duration": 0.33333350000000905,
            "durationTicks": 240,
            "midi": 70,
            "name": "A#4",
            "ticks": 102480,
            "time": 142.3334045,
            "velocity": 0.7480314960629921
          },
          {
            "duration": 0.5000002499999994,
            "durationTicks": 360,
            "midi": 74,
            "name": "D5",
            "ticks": 102720,
            "time": 142.666738,
            "velocity": 0.7480314960629921
          },
          {
            "duration": 0.5000002499999994,
            "durationTicks": 360,
            "midi": 75,
            "name": "D#5",
            "ticks": 103080,
            "time": 143.16673825,
            "velocity": 0.7480314960629921
          },
          {
            "duration": 0.33333349999998063,
            "durationTicks": 240,
            "midi": 70,
            "name": "A#4",
            "ticks": 103440,
            "time": 143.6667385,
            "velocity": 0.7480314960629921
          },
          {
            "duration": 0.5000002499999994,
            "durationTicks": 360,
            "midi": 68,
            "name": "G#4",
            "ticks": 103680,
            "time": 144.000072,
            "velocity": 0.7480314960629921
          },
          {
            "duration": 0.5000002500000278,
            "durationTicks": 360,
            "midi": 72,
            "name": "C5",
            "ticks": 104040,
            "time": 144.50007225,
            "velocity": 0.7480314960629921
          },
          {
            "duration": 0.33333349999998063,
            "durationTicks": 240,
            "midi": 68,
            "name": "G#4",
            "ticks": 104400,
            "time": 145.00007250000002,
            "velocity": 0.7480314960629921
          },
          {
            "duration": 0.5000002499999994,
            "durationTicks": 360,
            "midi": 80,
            "name": "G#5",
            "ticks": 104640,
            "time": 145.333406,
            "velocity": 0.7480314960629921
          },
          {
            "duration": 0.5000002499999994,
            "durationTicks": 360,
            "midi": 79,
            "name": "G5",
            "ticks": 105000,
            "time": 145.83340625,
            "velocity": 0.7480314960629921
          },
          {
            "duration": 0.33333350000000905,
            "durationTicks": 240,
            "midi": 75,
            "name": "D#5",
            "ticks": 105360,
            "time": 146.3334065,
            "velocity": 0.7480314960629921
          },
          {
            "duration": 0.5000002499999994,
            "durationTicks": 360,
            "midi": 74,
            "name": "D5",
            "ticks": 105600,
            "time": 146.66674,
            "velocity": 0.7480314960629921
          },
          {
            "duration": 0.5000002499999994,
            "durationTicks": 360,
            "midi": 75,
            "name": "D#5",
            "ticks": 105960,
            "time": 147.16674025,
            "velocity": 0.7480314960629921
          },
          {
            "duration": 0.33333350000000905,
            "durationTicks": 240,
            "midi": 77,
            "name": "F5",
            "ticks": 106320,
            "time": 147.6667405,
            "velocity": 0.7480314960629921
          },
          {
            "duration": 0.5000002499999994,
            "durationTicks": 360,
            "midi": 79,
            "name": "G5",
            "ticks": 106560,
            "time": 148.000074,
            "velocity": 0.7480314960629921
          },
          {
            "duration": 0.5000002499999994,
            "durationTicks": 360,
            "midi": 77,
            "name": "F5",
            "ticks": 106920,
            "time": 148.50007425,
            "velocity": 0.7480314960629921
          },
          {
            "duration": 0.33333349999998063,
            "durationTicks": 240,
            "midi": 79,
            "name": "G5",
            "ticks": 107280,
            "time": 149.0000745,
            "velocity": 0.7480314960629921
          },
          {
            "duration": 0.5000002499999994,
            "durationTicks": 360,
            "midi": 75,
            "name": "D#5",
            "ticks": 107520,
            "time": 149.333408,
            "velocity": 0.7480314960629921
          },
          {
            "duration": 0.5000002499999994,
            "durationTicks": 360,
            "midi": 72,
            "name": "C5",
            "ticks": 107880,
            "time": 149.83340825,
            "velocity": 0.7480314960629921
          },
          {
            "duration": 0.33333350000000905,
            "durationTicks": 240,
            "midi": 75,
            "name": "D#5",
            "ticks": 108240,
            "time": 150.3334085,
            "velocity": 0.7480314960629921
          },
          {
            "duration": 0.2500001250000139,
            "durationTicks": 180,
            "midi": 84,
            "name": "C6",
            "ticks": 108480,
            "time": 150.666742,
            "velocity": 0.7480314960629921
          },
          {
            "duration": 0.5000002499999994,
            "durationTicks": 360,
            "midi": 79,
            "name": "G5",
            "ticks": 108840,
            "time": 151.16674225,
            "velocity": 0.7480314960629921
          }
        ]
      },
      {
        "channel": 5,
        "controlChanges": {
          "7": [
            {
              "number": 7,
              "ticks": 48,
              "time": 0.06666670000000001,
              "value": 0.6299212598425197
            },
            {
              "number": 7,
              "ticks": 48,
              "time": 0.06666670000000001,
              "value": 0.6299212598425197
            }
          ],
          "10": [
            {
              "number": 10,
              "ticks": 48,
              "time": 0.06666670000000001,
              "value": 0.5039370078740157
            },
            {
              "number": 10,
              "ticks": 48,
              "time": 0.06666670000000001,
              "value": 0.5039370078740157
            }
          ],
          "91": [
            {
              "number": 91,
              "ticks": 48,
              "time": 0.06666670000000001,
              "value": 0
            },
            {
              "number": 91,
              "ticks": 48,
              "time": 0.06666670000000001,
              "value": 0
            }
          ],
          "92": [
            {
              "number": 92,
              "ticks": 48,
              "time": 0.06666670000000001,
              "value": 0
            },
            {
              "number": 92,
              "ticks": 48,
              "time": 0.06666670000000001,
              "value": 0
            }
          ],
          "93": [
            {
              "number": 93,
              "ticks": 48,
              "time": 0.06666670000000001,
              "value": 0
            },
            {
              "number": 93,
              "ticks": 48,
              "time": 0.06666670000000001,
              "value": 0
            }
          ],
          "95": [
            {
              "number": 95,
              "ticks": 48,
              "time": 0.06666670000000001,
              "value": 0
            },
            {
              "number": 95,
              "ticks": 48,
              "time": 0.06666670000000001,
              "value": 0
            }
          ]
        },
        "pitchBends": [],
        "instrument": {
          "family": "sound effects",
          "number": 122,
          "name": "seashore"
        },
        "name": "",
        "notes": [
          {
            "duration": 2.000001000000001,
            "durationTicks": 1440,
            "midi": 62,
            "name": "D4",
            "ticks": 13920,
            "time": 19.333343,
            "velocity": 0.7480314960629921
          },
          {
            "duration": 1.3333340000000007,
            "durationTicks": 960,
            "midi": 67,
            "name": "G4",
            "ticks": 45120,
            "time": 62.666698000000004,
            "velocity": 0.7480314960629921
          },
          {
            "duration": 0.16666674999999032,
            "durationTicks": 120,
            "midi": 87,
            "name": "D#6",
            "ticks": 140160,
            "time": 194.666764,
            "velocity": 0.7480314960629921
          },
          {
            "duration": 0.16666675000001874,
            "durationTicks": 120,
            "midi": 82,
            "name": "A#5",
            "ticks": 140280,
            "time": 194.83343075,
            "velocity": 0.7480314960629921
          },
          {
            "duration": 0.16666674999999032,
            "durationTicks": 120,
            "midi": 75,
            "name": "D#5",
            "ticks": 140400,
            "time": 195.0000975,
            "velocity": 0.7480314960629921
          },
          {
            "duration": 0.16666674999999032,
            "durationTicks": 120,
            "midi": 87,
            "name": "D#6",
            "ticks": 140520,
            "time": 195.16676425,
            "velocity": 0.7480314960629921
          },
          {
            "duration": 0.16666675000001874,
            "durationTicks": 120,
            "midi": 82,
            "name": "A#5",
            "ticks": 140640,
            "time": 195.333431,
            "velocity": 0.7480314960629921
          },
          {
            "duration": 0.16666674999999032,
            "durationTicks": 120,
            "midi": 75,
            "name": "D#5",
            "ticks": 140760,
            "time": 195.50009775,
            "velocity": 0.7480314960629921
          },
          {
            "duration": 0.16666674999999032,
            "durationTicks": 120,
            "midi": 87,
            "name": "D#6",
            "ticks": 140880,
            "time": 195.6667645,
            "velocity": 0.7480314960629921
          },
          {
            "duration": 0.16666675000001874,
            "durationTicks": 120,
            "midi": 82,
            "name": "A#5",
            "ticks": 141000,
            "time": 195.83343125,
            "velocity": 0.7480314960629921
          },
          {
            "duration": 0.16666674999999032,
            "durationTicks": 120,
            "midi": 75,
            "name": "D#5",
            "ticks": 141120,
            "time": 196.000098,
            "velocity": 0.7480314960629921
          },
          {
            "duration": 0.16666674999999032,
            "durationTicks": 120,
            "midi": 87,
            "name": "D#6",
            "ticks": 141240,
            "time": 196.16676475,
            "velocity": 0.7480314960629921
          },
          {
            "duration": 0.16666675000001874,
            "durationTicks": 120,
            "midi": 82,
            "name": "A#5",
            "ticks": 141360,
            "time": 196.3334315,
            "velocity": 0.7480314960629921
          },
          {
            "duration": 0.16666674999999032,
            "durationTicks": 120,
            "midi": 75,
            "name": "D#5",
            "ticks": 141480,
            "time": 196.50009825,
            "velocity": 0.7480314960629921
          },
          {
            "duration": 0.16666675000001874,
            "durationTicks": 120,
            "midi": 87,
            "name": "D#6",
            "ticks": 141600,
            "time": 196.666765,
            "velocity": 0.7480314960629921
          },
          {
            "duration": 0.16666674999999032,
            "durationTicks": 120,
            "midi": 82,
            "name": "A#5",
            "ticks": 141720,
            "time": 196.83343175000002,
            "velocity": 0.7480314960629921
          },
          {
            "duration": 0.16666674999999032,
            "durationTicks": 120,
            "midi": 75,
            "name": "D#5",
            "ticks": 141840,
            "time": 197.0000985,
            "velocity": 0.7480314960629921
          },
          {
            "duration": 0.16666675000001874,
            "durationTicks": 120,
            "midi": 87,
            "name": "D#6",
            "ticks": 141960,
            "time": 197.16676525,
            "velocity": 0.7480314960629921
          },
          {
            "duration": 0.16666674999999032,
            "durationTicks": 120,
            "midi": 82,
            "name": "A#5",
            "ticks": 142080,
            "time": 197.33343200000002,
            "velocity": 0.7480314960629921
          },
          {
            "duration": 0.16666674999999032,
            "durationTicks": 120,
            "midi": 75,
            "name": "D#5",
            "ticks": 142200,
            "time": 197.50009875,
            "velocity": 0.7480314960629921
          },
          {
            "duration": 0.16666675000001874,
            "durationTicks": 120,
            "midi": 87,
            "name": "D#6",
            "ticks": 142320,
            "time": 197.6667655,
            "velocity": 0.7480314960629921
          },
          {
            "duration": 0.16666674999999032,
            "durationTicks": 120,
            "midi": 82,
            "name": "A#5",
            "ticks": 142440,
            "time": 197.83343225000002,
            "velocity": 0.7480314960629921
          },
          {
            "duration": 0.16666674999999032,
            "durationTicks": 120,
            "midi": 75,
            "name": "D#5",
            "ticks": 142560,
            "time": 198.000099,
            "velocity": 0.7480314960629921
          },
          {
            "duration": 0.16666675000001874,
            "durationTicks": 120,
            "midi": 87,
            "name": "D#6",
            "ticks": 142680,
            "time": 198.16676575,
            "velocity": 0.7480314960629921
          },
          {
            "duration": 0.16666674999999032,
            "durationTicks": 120,
            "midi": 82,
            "name": "A#5",
            "ticks": 142800,
            "time": 198.33343250000001,
            "velocity": 0.7480314960629921
          },
          {
            "duration": 0.16666674999999032,
            "durationTicks": 120,
            "midi": 75,
            "name": "D#5",
            "ticks": 142920,
            "time": 198.50009925,
            "velocity": 0.7480314960629921
          },
          {
            "duration": 0.16666675000001874,
            "durationTicks": 120,
            "midi": 86,
            "name": "D6",
            "ticks": 143040,
            "time": 198.666766,
            "velocity": 0.7480314960629921
          },
          {
            "duration": 0.16666674999999032,
            "durationTicks": 120,
            "midi": 82,
            "name": "A#5",
            "ticks": 143160,
            "time": 198.83343275000001,
            "velocity": 0.7480314960629921
          },
          {
            "duration": 0.16666674999999032,
            "durationTicks": 120,
            "midi": 75,
            "name": "D#5",
            "ticks": 143280,
            "time": 199.0000995,
            "velocity": 0.7480314960629921
          },
          {
            "duration": 0.16666675000001874,
            "durationTicks": 120,
            "midi": 86,
            "name": "D6",
            "ticks": 143400,
            "time": 199.16676625,
            "velocity": 0.7480314960629921
          },
          {
            "duration": 0.16666674999999032,
            "durationTicks": 120,
            "midi": 82,
            "name": "A#5",
            "ticks": 143520,
            "time": 199.333433,
            "velocity": 0.7480314960629921
          },
          {
            "duration": 0.16666674999999032,
            "durationTicks": 120,
            "midi": 75,
            "name": "D#5",
            "ticks": 143640,
            "time": 199.50009975,
            "velocity": 0.7480314960629921
          },
          {
            "duration": 0.16666675000001874,
            "durationTicks": 120,
            "midi": 87,
            "name": "D#6",
            "ticks": 143760,
            "time": 199.6667665,
            "velocity": 0.7480314960629921
          },
          {
            "duration": 0.16666674999999032,
            "durationTicks": 120,
            "midi": 82,
            "name": "A#5",
            "ticks": 143880,
            "time": 199.83343325,
            "velocity": 0.7480314960629921
          },
          {
            "duration": 0.16666674999999032,
            "durationTicks": 120,
            "midi": 75,
            "name": "D#5",
            "ticks": 144000,
            "time": 200.0001,
            "velocity": 0.7480314960629921
          },
          {
            "duration": 0.16666675000001874,
            "durationTicks": 120,
            "midi": 87,
            "name": "D#6",
            "ticks": 144120,
            "time": 200.16676675,
            "velocity": 0.7480314960629921
          },
          {
            "duration": 0.16666674999999032,
            "durationTicks": 120,
            "midi": 82,
            "name": "A#5",
            "ticks": 144240,
            "time": 200.3334335,
            "velocity": 0.7480314960629921
          },
          {
            "duration": 0.16666674999999032,
            "durationTicks": 120,
            "midi": 75,
            "name": "D#5",
            "ticks": 144360,
            "time": 200.50010025,
            "velocity": 0.7480314960629921
          },
          {
            "duration": 0.16666675000001874,
            "durationTicks": 120,
            "midi": 87,
            "name": "D#6",
            "ticks": 144480,
            "time": 200.666767,
            "velocity": 0.7480314960629921
          },
          {
            "duration": 0.16666674999999032,
            "durationTicks": 120,
            "midi": 82,
            "name": "A#5",
            "ticks": 144600,
            "time": 200.83343375,
            "velocity": 0.7480314960629921
          },
          {
            "duration": 0.16666674999999032,
            "durationTicks": 120,
            "midi": 75,
            "name": "D#5",
            "ticks": 144720,
            "time": 201.0001005,
            "velocity": 0.7480314960629921
          },
          {
            "duration": 0.16666675000001874,
            "durationTicks": 120,
            "midi": 87,
            "name": "D#6",
            "ticks": 144840,
            "time": 201.16676725,
            "velocity": 0.7480314960629921
          },
          {
            "duration": 0.16666674999999032,
            "durationTicks": 120,
            "midi": 82,
            "name": "A#5",
            "ticks": 144960,
            "time": 201.333434,
            "velocity": 0.7480314960629921
          },
          {
            "duration": 0.16666674999999032,
            "durationTicks": 120,
            "midi": 75,
            "name": "D#5",
            "ticks": 145080,
            "time": 201.50010075,
            "velocity": 0.7480314960629921
          },
          {
            "duration": 0.16666675000001874,
            "durationTicks": 120,
            "midi": 87,
            "name": "D#6",
            "ticks": 145200,
            "time": 201.6667675,
            "velocity": 0.7480314960629921
          },
          {
            "duration": 0.16666674999999032,
            "durationTicks": 120,
            "midi": 82,
            "name": "A#5",
            "ticks": 145320,
            "time": 201.83343425,
            "velocity": 0.7480314960629921
          },
          {
            "duration": 0.16666674999999032,
            "durationTicks": 120,
            "midi": 75,
            "name": "D#5",
            "ticks": 145440,
            "time": 202.000101,
            "velocity": 0.7480314960629921
          },
          {
            "duration": 0.16666675000001874,
            "durationTicks": 120,
            "midi": 87,
            "name": "D#6",
            "ticks": 145560,
            "time": 202.16676775,
            "velocity": 0.7480314960629921
          },
          {
            "duration": 0.16666674999999032,
            "durationTicks": 120,
            "midi": 82,
            "name": "A#5",
            "ticks": 145680,
            "time": 202.3334345,
            "velocity": 0.7480314960629921
          },
          {
            "duration": 0.16666674999999032,
            "durationTicks": 120,
            "midi": 75,
            "name": "D#5",
            "ticks": 145800,
            "time": 202.50010125,
            "velocity": 0.7480314960629921
          },
          {
            "duration": 0.16666675000001874,
            "durationTicks": 120,
            "midi": 87,
            "name": "D#6",
            "ticks": 145920,
            "time": 202.666768,
            "velocity": 0.7480314960629921
          },
          {
            "duration": 0.16666674999999032,
            "durationTicks": 120,
            "midi": 82,
            "name": "A#5",
            "ticks": 146040,
            "time": 202.83343475,
            "velocity": 0.7480314960629921
          },
          {
            "duration": 0.16666674999999032,
            "durationTicks": 120,
            "midi": 75,
            "name": "D#5",
            "ticks": 146160,
            "time": 203.0001015,
            "velocity": 0.7480314960629921
          },
          {
            "duration": 0.16666675000001874,
            "durationTicks": 120,
            "midi": 87,
            "name": "D#6",
            "ticks": 146280,
            "time": 203.16676825,
            "velocity": 0.7480314960629921
          },
          {
            "duration": 0.16666674999999032,
            "durationTicks": 120,
            "midi": 82,
            "name": "A#5",
            "ticks": 146400,
            "time": 203.333435,
            "velocity": 0.7480314960629921
          },
          {
            "duration": 0.16666674999999032,
            "durationTicks": 120,
            "midi": 75,
            "name": "D#5",
            "ticks": 146520,
            "time": 203.50010175,
            "velocity": 0.7480314960629921
          },
          {
            "duration": 0.16666675000001874,
            "durationTicks": 120,
            "midi": 87,
            "name": "D#6",
            "ticks": 146640,
            "time": 203.6667685,
            "velocity": 0.7480314960629921
          },
          {
            "duration": 0.16666674999999032,
            "durationTicks": 120,
            "midi": 82,
            "name": "A#5",
            "ticks": 146760,
            "time": 203.83343525,
            "velocity": 0.7480314960629921
          },
          {
            "duration": 0.16666675000001874,
            "durationTicks": 120,
            "midi": 75,
            "name": "D#5",
            "ticks": 146880,
            "time": 204.000102,
            "velocity": 0.7480314960629921
          },
          {
            "duration": 0.16666674999999032,
            "durationTicks": 120,
            "midi": 87,
            "name": "D#6",
            "ticks": 147000,
            "time": 204.16676875000002,
            "velocity": 0.7480314960629921
          },
          {
            "duration": 0.16666674999999032,
            "durationTicks": 120,
            "midi": 82,
            "name": "A#5",
            "ticks": 147120,
            "time": 204.3334355,
            "velocity": 0.7480314960629921
          },
          {
            "duration": 0.16666675000001874,
            "durationTicks": 120,
            "midi": 75,
            "name": "D#5",
            "ticks": 147240,
            "time": 204.50010225,
            "velocity": 0.7480314960629921
          },
          {
            "duration": 0.16666674999999032,
            "durationTicks": 120,
            "midi": 87,
            "name": "D#6",
            "ticks": 147360,
            "time": 204.66676900000002,
            "velocity": 0.7480314960629921
          },
          {
            "duration": 0.16666674999999032,
            "durationTicks": 120,
            "midi": 82,
            "name": "A#5",
            "ticks": 147480,
            "time": 204.83343575,
            "velocity": 0.7480314960629921
          },
          {
            "duration": 0.16666675000001874,
            "durationTicks": 120,
            "midi": 75,
            "name": "D#5",
            "ticks": 147600,
            "time": 205.0001025,
            "velocity": 0.7480314960629921
          },
          {
            "duration": 0.16666674999999032,
            "durationTicks": 120,
            "midi": 87,
            "name": "D#6",
            "ticks": 147720,
            "time": 205.16676925000002,
            "velocity": 0.7480314960629921
          },
          {
            "duration": 0.16666674999999032,
            "durationTicks": 120,
            "midi": 82,
            "name": "A#5",
            "ticks": 147840,
            "time": 205.333436,
            "velocity": 0.7480314960629921
          },
          {
            "duration": 0.16666675000001874,
            "durationTicks": 120,
            "midi": 75,
            "name": "D#5",
            "ticks": 147960,
            "time": 205.50010275,
            "velocity": 0.7480314960629921
          },
          {
            "duration": 0.16666674999999032,
            "durationTicks": 120,
            "midi": 87,
            "name": "D#6",
            "ticks": 148080,
            "time": 205.66676950000002,
            "velocity": 0.7480314960629921
          },
          {
            "duration": 0.16666674999999032,
            "durationTicks": 120,
            "midi": 82,
            "name": "A#5",
            "ticks": 148200,
            "time": 205.83343625,
            "velocity": 0.7480314960629921
          },
          {
            "duration": 0.16666675000001874,
            "durationTicks": 120,
            "midi": 75,
            "name": "D#5",
            "ticks": 148320,
            "time": 206.000103,
            "velocity": 0.7480314960629921
          },
          {
            "duration": 0.16666674999999032,
            "durationTicks": 120,
            "midi": 87,
            "name": "D#6",
            "ticks": 148440,
            "time": 206.16676975000001,
            "velocity": 0.7480314960629921
          },
          {
            "duration": 0.16666674999999032,
            "durationTicks": 120,
            "midi": 82,
            "name": "A#5",
            "ticks": 148560,
            "time": 206.3334365,
            "velocity": 0.7480314960629921
          },
          {
            "duration": 0.16666675000001874,
            "durationTicks": 120,
            "midi": 75,
            "name": "D#5",
            "ticks": 148680,
            "time": 206.50010325,
            "velocity": 0.7480314960629921
          },
          {
            "duration": 0.16666674999999032,
            "durationTicks": 120,
            "midi": 87,
            "name": "D#6",
            "ticks": 148800,
            "time": 206.66677,
            "velocity": 0.7480314960629921
          },
          {
            "duration": 0.16666674999999032,
            "durationTicks": 120,
            "midi": 82,
            "name": "A#5",
            "ticks": 148920,
            "time": 206.83343675,
            "velocity": 0.7480314960629921
          },
          {
            "duration": 0.16666675000001874,
            "durationTicks": 120,
            "midi": 75,
            "name": "D#5",
            "ticks": 149040,
            "time": 207.0001035,
            "velocity": 0.7480314960629921
          },
          {
            "duration": 0.16666674999999032,
            "durationTicks": 120,
            "midi": 87,
            "name": "D#6",
            "ticks": 149160,
            "time": 207.16677025,
            "velocity": 0.7480314960629921
          },
          {
            "duration": 0.16666674999999032,
            "durationTicks": 120,
            "midi": 82,
            "name": "A#5",
            "ticks": 149280,
            "time": 207.333437,
            "velocity": 0.7480314960629921
          },
          {
            "duration": 0.16666675000001874,
            "durationTicks": 120,
            "midi": 75,
            "name": "D#5",
            "ticks": 149400,
            "time": 207.50010375,
            "velocity": 0.7480314960629921
          },
          {
            "duration": 0.16666674999999032,
            "durationTicks": 120,
            "midi": 87,
            "name": "D#6",
            "ticks": 149520,
            "time": 207.6667705,
            "velocity": 0.7480314960629921
          },
          {
            "duration": 0.16666674999999032,
            "durationTicks": 120,
            "midi": 82,
            "name": "A#5",
            "ticks": 149640,
            "time": 207.83343725,
            "velocity": 0.7480314960629921
          },
          {
            "duration": 0.16666675000001874,
            "durationTicks": 120,
            "midi": 82,
            "name": "A#5",
            "ticks": 149760,
            "time": 208.000104,
            "velocity": 0.7480314960629921
          },
          {
            "duration": 0.16666674999999032,
            "durationTicks": 120,
            "midi": 75,
            "name": "D#5",
            "ticks": 149880,
            "time": 208.16677075,
            "velocity": 0.7480314960629921
          },
          {
            "duration": 0.16666674999999032,
            "durationTicks": 120,
            "midi": 87,
            "name": "D#6",
            "ticks": 150000,
            "time": 208.3334375,
            "velocity": 0.7480314960629921
          },
          {
            "duration": 0.16666675000001874,
            "durationTicks": 120,
            "midi": 82,
            "name": "A#5",
            "ticks": 150120,
            "time": 208.50010425,
            "velocity": 0.7480314960629921
          },
          {
            "duration": 0.16666674999999032,
            "durationTicks": 120,
            "midi": 75,
            "name": "D#5",
            "ticks": 150240,
            "time": 208.666771,
            "velocity": 0.7480314960629921
          },
          {
            "duration": 0.16666674999999032,
            "durationTicks": 120,
            "midi": 87,
            "name": "D#6",
            "ticks": 150360,
            "time": 208.83343775,
            "velocity": 0.7480314960629921
          },
          {
            "duration": 0.16666675000001874,
            "durationTicks": 120,
            "midi": 82,
            "name": "A#5",
            "ticks": 150480,
            "time": 209.0001045,
            "velocity": 0.7480314960629921
          },
          {
            "duration": 0.16666674999999032,
            "durationTicks": 120,
            "midi": 75,
            "name": "D#5",
            "ticks": 150600,
            "time": 209.16677125,
            "velocity": 0.7480314960629921
          },
          {
            "duration": 0.16666674999999032,
            "durationTicks": 120,
            "midi": 86,
            "name": "D6",
            "ticks": 150720,
            "time": 209.333438,
            "velocity": 0.7480314960629921
          },
          {
            "duration": 0.16666675000001874,
            "durationTicks": 120,
            "midi": 82,
            "name": "A#5",
            "ticks": 150840,
            "time": 209.50010475,
            "velocity": 0.7480314960629921
          },
          {
            "duration": 0.16666674999999032,
            "durationTicks": 120,
            "midi": 75,
            "name": "D#5",
            "ticks": 150960,
            "time": 209.6667715,
            "velocity": 0.7480314960629921
          },
          {
            "duration": 0.16666674999999032,
            "durationTicks": 120,
            "midi": 86,
            "name": "D6",
            "ticks": 151080,
            "time": 209.83343825,
            "velocity": 0.7480314960629921
          },
          {
            "duration": 0.16666675000001874,
            "durationTicks": 120,
            "midi": 82,
            "name": "A#5",
            "ticks": 151200,
            "time": 210.000105,
            "velocity": 0.7480314960629921
          },
          {
            "duration": 0.16666674999999032,
            "durationTicks": 120,
            "midi": 75,
            "name": "D#5",
            "ticks": 151320,
            "time": 210.16677175,
            "velocity": 0.7480314960629921
          },
          {
            "duration": 0.16666674999999032,
            "durationTicks": 120,
            "midi": 87,
            "name": "D#6",
            "ticks": 151440,
            "time": 210.3334385,
            "velocity": 0.7480314960629921
          },
          {
            "duration": 0.16666675000001874,
            "durationTicks": 120,
            "midi": 82,
            "name": "A#5",
            "ticks": 151560,
            "time": 210.50010525,
            "velocity": 0.7480314960629921
          },
          {
            "duration": 0.16666674999999032,
            "durationTicks": 120,
            "midi": 75,
            "name": "D#5",
            "ticks": 151680,
            "time": 210.666772,
            "velocity": 0.7480314960629921
          },
          {
            "duration": 0.16666674999999032,
            "durationTicks": 120,
            "midi": 87,
            "name": "D#6",
            "ticks": 151800,
            "time": 210.83343875,
            "velocity": 0.7480314960629921
          },
          {
            "duration": 0.16666675000001874,
            "durationTicks": 120,
            "midi": 82,
            "name": "A#5",
            "ticks": 151920,
            "time": 211.0001055,
            "velocity": 0.7480314960629921
          },
          {
            "duration": 0.16666674999999032,
            "durationTicks": 120,
            "midi": 75,
            "name": "D#5",
            "ticks": 152040,
            "time": 211.16677225,
            "velocity": 0.7480314960629921
          },
          {
            "duration": 0.16666675000001874,
            "durationTicks": 120,
            "midi": 87,
            "name": "D#6",
            "ticks": 152160,
            "time": 211.333439,
            "velocity": 0.7480314960629921
          },
          {
            "duration": 0.16666674999999032,
            "durationTicks": 120,
            "midi": 82,
            "name": "A#5",
            "ticks": 152280,
            "time": 211.50010575000002,
            "velocity": 0.7480314960629921
          },
          {
            "duration": 0.16666674999999032,
            "durationTicks": 120,
            "midi": 75,
            "name": "D#5",
            "ticks": 152400,
            "time": 211.6667725,
            "velocity": 0.7480314960629921
          },
          {
            "duration": 0.16666675000001874,
            "durationTicks": 120,
            "midi": 87,
            "name": "D#6",
            "ticks": 152520,
            "time": 211.83343925,
            "velocity": 0.7480314960629921
          },
          {
            "duration": 0.16666674999999032,
            "durationTicks": 120,
            "midi": 82,
            "name": "A#5",
            "ticks": 152640,
            "time": 212.00010600000002,
            "velocity": 0.7480314960629921
          },
          {
            "duration": 0.16666674999999032,
            "durationTicks": 120,
            "midi": 75,
            "name": "D#5",
            "ticks": 152760,
            "time": 212.16677275,
            "velocity": 0.7480314960629921
          },
          {
            "duration": 0.16666675000001874,
            "durationTicks": 120,
            "midi": 87,
            "name": "D#6",
            "ticks": 152880,
            "time": 212.3334395,
            "velocity": 0.7480314960629921
          },
          {
            "duration": 0.16666674999999032,
            "durationTicks": 120,
            "midi": 82,
            "name": "A#5",
            "ticks": 153000,
            "time": 212.50010625000002,
            "velocity": 0.7480314960629921
          },
          {
            "duration": 0.16666674999999032,
            "durationTicks": 120,
            "midi": 75,
            "name": "D#5",
            "ticks": 153120,
            "time": 212.666773,
            "velocity": 0.7480314960629921
          },
          {
            "duration": 0.16666675000001874,
            "durationTicks": 120,
            "midi": 87,
            "name": "D#6",
            "ticks": 153240,
            "time": 212.83343975,
            "velocity": 0.7480314960629921
          },
          {
            "duration": 0.16666674999999032,
            "durationTicks": 120,
            "midi": 82,
            "name": "A#5",
            "ticks": 153360,
            "time": 213.00010650000002,
            "velocity": 0.7480314960629921
          },
          {
            "duration": 0.16666674999999032,
            "durationTicks": 120,
            "midi": 75,
            "name": "D#5",
            "ticks": 153480,
            "time": 213.16677325,
            "velocity": 0.7480314960629921
          },
          {
            "duration": 0.30000000000001137,
            "durationTicks": 120,
            "midi": 87,
            "name": "D#6",
            "ticks": 153600,
            "time": 213.33344,
            "velocity": 0.7480314960629921
          },
          {
            "duration": 0.29999999999998295,
            "durationTicks": 120,
            "midi": 82,
            "name": "A#5",
            "ticks": 153720,
            "time": 213.63344,
            "velocity": 0.7480314960629921
          },
          {
            "duration": 0.30000000000001137,
            "durationTicks": 120,
            "midi": 77,
            "name": "F5",
            "ticks": 153840,
            "time": 213.93344,
            "velocity": 0.7480314960629921
          },
          {
            "duration": 0.29999999999998295,
            "durationTicks": 120,
            "midi": 87,
            "name": "D#6",
            "ticks": 153960,
            "time": 214.23344,
            "velocity": 0.7480314960629921
          },
          {
            "duration": 0.30000000000001137,
            "durationTicks": 120,
            "midi": 82,
            "name": "A#5",
            "ticks": 154080,
            "time": 214.53343999999998,
            "velocity": 0.7480314960629921
          },
          {
            "duration": 0.30000000000001137,
            "durationTicks": 120,
            "midi": 77,
            "name": "F5",
            "ticks": 154200,
            "time": 214.83344,
            "velocity": 0.7480314960629921
          },
          {
            "duration": 0.29999999999998295,
            "durationTicks": 120,
            "midi": 87,
            "name": "D#6",
            "ticks": 154320,
            "time": 215.13344,
            "velocity": 0.7480314960629921
          },
          {
            "duration": 0.30000000000001137,
            "durationTicks": 120,
            "midi": 82,
            "name": "A#5",
            "ticks": 154440,
            "time": 215.43344,
            "velocity": 0.7480314960629921
          },
          {
            "duration": 0.29999999999998295,
            "durationTicks": 120,
            "midi": 77,
            "name": "F5",
            "ticks": 154560,
            "time": 215.73344,
            "velocity": 0.7480314960629921
          },
          {
            "duration": 0.30000000000001137,
            "durationTicks": 120,
            "midi": 87,
            "name": "D#6",
            "ticks": 154680,
            "time": 216.03343999999998,
            "velocity": 0.7480314960629921
          },
          {
            "duration": 0.30000000000001137,
            "durationTicks": 120,
            "midi": 82,
            "name": "A#5",
            "ticks": 154800,
            "time": 216.33344,
            "velocity": 0.7480314960629921
          },
          {
            "duration": 0.29999999999998295,
            "durationTicks": 120,
            "midi": 77,
            "name": "F5",
            "ticks": 154920,
            "time": 216.63344,
            "velocity": 0.7480314960629921
          },
          {
            "duration": 0.30000000000001137,
            "durationTicks": 120,
            "midi": 87,
            "name": "D#6",
            "ticks": 155040,
            "time": 216.93344,
            "velocity": 0.7480314960629921
          },
          {
            "duration": 0.29999999999998295,
            "durationTicks": 120,
            "midi": 82,
            "name": "A#5",
            "ticks": 155160,
            "time": 217.23344,
            "velocity": 0.7480314960629921
          },
          {
            "duration": 0.30000000000001137,
            "durationTicks": 120,
            "midi": 77,
            "name": "F5",
            "ticks": 155280,
            "time": 217.53343999999998,
            "velocity": 0.7480314960629921
          },
          {
            "duration": 0.30000000000001137,
            "durationTicks": 120,
            "midi": 87,
            "name": "D#6",
            "ticks": 155400,
            "time": 217.83344,
            "velocity": 0.7480314960629921
          },
          {
            "duration": 0.29999999999998295,
            "durationTicks": 120,
            "midi": 82,
            "name": "A#5",
            "ticks": 155520,
            "time": 218.13344,
            "velocity": 0.7480314960629921
          },
          {
            "duration": 0.30000000000001137,
            "durationTicks": 120,
            "midi": 77,
            "name": "F5",
            "ticks": 155640,
            "time": 218.43344,
            "velocity": 0.7480314960629921
          },
          {
            "duration": 0.29999999999998295,
            "durationTicks": 120,
            "midi": 87,
            "name": "D#6",
            "ticks": 155760,
            "time": 218.73344,
            "velocity": 0.7480314960629921
          },
          {
            "duration": 0.30000000000001137,
            "durationTicks": 120,
            "midi": 82,
            "name": "A#5",
            "ticks": 155880,
            "time": 219.03343999999998,
            "velocity": 0.7480314960629921
          },
          {
            "duration": 0.30000000000001137,
            "durationTicks": 120,
            "midi": 77,
            "name": "F5",
            "ticks": 156000,
            "time": 219.33344,
            "velocity": 0.7480314960629921
          },
          {
            "duration": 0.29999999999998295,
            "durationTicks": 120,
            "midi": 86,
            "name": "D6",
            "ticks": 156120,
            "time": 219.63344,
            "velocity": 0.7480314960629921
          },
          {
            "duration": 0.30000000000001137,
            "durationTicks": 120,
            "midi": 82,
            "name": "A#5",
            "ticks": 156240,
            "time": 219.93344,
            "velocity": 0.7480314960629921
          },
          {
            "duration": 0.29999999999998295,
            "durationTicks": 120,
            "midi": 77,
            "name": "F5",
            "ticks": 156360,
            "time": 220.23344,
            "velocity": 0.7480314960629921
          },
          {
            "duration": 0.30000000000001137,
            "durationTicks": 120,
            "midi": 86,
            "name": "D6",
            "ticks": 156480,
            "time": 220.53343999999998,
            "velocity": 0.7480314960629921
          },
          {
            "duration": 0.30000000000001137,
            "durationTicks": 120,
            "midi": 82,
            "name": "A#5",
            "ticks": 156600,
            "time": 220.83344,
            "velocity": 0.7480314960629921
          },
          {
            "duration": 0.29999999999998295,
            "durationTicks": 120,
            "midi": 77,
            "name": "F5",
            "ticks": 156720,
            "time": 221.13344,
            "velocity": 0.7480314960629921
          },
          {
            "duration": 6.300000000000011,
            "durationTicks": 2520,
            "midi": 70,
            "name": "A#4",
            "ticks": 156840,
            "time": 221.43344,
            "velocity": 0.7480314960629921
          }
        ]
      },
      {
        "channel": 6,
        "controlChanges": {
          "7": [
            {
              "number": 7,
              "ticks": 48,
              "time": 0.06666670000000001,
              "value": 0.5511811023622047
            }
          ],
          "10": [
            {
              "number": 10,
              "ticks": 48,
              "time": 0.06666670000000001,
              "value": 0
            }
          ],
          "91": [
            {
              "number": 91,
              "ticks": 48,
              "time": 0.06666670000000001,
              "value": 0
            }
          ],
          "92": [
            {
              "number": 92,
              "ticks": 48,
              "time": 0.06666670000000001,
              "value": 0
            }
          ],
          "93": [
            {
              "number": 93,
              "ticks": 48,
              "time": 0.06666670000000001,
              "value": 0
            }
          ],
          "95": [
            {
              "number": 95,
              "ticks": 48,
              "time": 0.06666670000000001,
              "value": 0
            }
          ]
        },
        "pitchBends": [],
        "instrument": {
          "family": "ensemble",
          "number": 50,
          "name": "synthstrings 1"
        },
        "name": "",
        "notes": [
          {
            "duration": 1.3333339999999936,
            "durationTicks": 960,
            "midi": 63,
            "name": "D#4",
            "ticks": 61440,
            "time": 85.333376,
            "velocity": 0.7480314960629921
          },
          {
            "duration": 1.3333339999999936,
            "durationTicks": 960,
            "midi": 56,
            "name": "G#3",
            "ticks": 61440,
            "time": 85.333376,
            "velocity": 0.7480314960629921
          },
          {
            "duration": 1.3333339999999936,
            "durationTicks": 960,
            "midi": 44,
            "name": "G#2",
            "ticks": 61440,
            "time": 85.333376,
            "velocity": 0.7480314960629921
          },
          {
            "duration": 1.3333340000000078,
            "durationTicks": 960,
            "midi": 63,
            "name": "D#4",
            "ticks": 62400,
            "time": 86.66671,
            "velocity": 0.7480314960629921
          },
          {
            "duration": 1.3333340000000078,
            "durationTicks": 960,
            "midi": 55,
            "name": "G3",
            "ticks": 62400,
            "time": 86.66671,
            "velocity": 0.7480314960629921
          },
          {
            "duration": 1.3333340000000078,
            "durationTicks": 960,
            "midi": 43,
            "name": "G2",
            "ticks": 62400,
            "time": 86.66671,
            "velocity": 0.7480314960629921
          },
          {
            "duration": 2.6666680000000014,
            "durationTicks": 1920,
            "midi": 63,
            "name": "D#4",
            "ticks": 63360,
            "time": 88.000044,
            "velocity": 0.7480314960629921
          },
          {
            "duration": 2.6666680000000014,
            "durationTicks": 1920,
            "midi": 58,
            "name": "A#3",
            "ticks": 63360,
            "time": 88.000044,
            "velocity": 0.7480314960629921
          },
          {
            "duration": 2.6666680000000014,
            "durationTicks": 1920,
            "midi": 46,
            "name": "A#2",
            "ticks": 63360,
            "time": 88.000044,
            "velocity": 0.7480314960629921
          },
          {
            "duration": 1.3333339999999936,
            "durationTicks": 960,
            "midi": 63,
            "name": "D#4",
            "ticks": 65280,
            "time": 90.666712,
            "velocity": 0.7480314960629921
          },
          {
            "duration": 1.3333339999999936,
            "durationTicks": 960,
            "midi": 56,
            "name": "G#3",
            "ticks": 65280,
            "time": 90.666712,
            "velocity": 0.7480314960629921
          },
          {
            "duration": 1.3333339999999936,
            "durationTicks": 960,
            "midi": 44,
            "name": "G#2",
            "ticks": 65280,
            "time": 90.666712,
            "velocity": 0.7480314960629921
          },
          {
            "duration": 1.3333340000000078,
            "durationTicks": 960,
            "midi": 63,
            "name": "D#4",
            "ticks": 66240,
            "time": 92.000046,
            "velocity": 0.7480314960629921
          },
          {
            "duration": 1.3333340000000078,
            "durationTicks": 960,
            "midi": 55,
            "name": "G3",
            "ticks": 66240,
            "time": 92.000046,
            "velocity": 0.7480314960629921
          },
          {
            "duration": 1.3333340000000078,
            "durationTicks": 960,
            "midi": 43,
            "name": "G2",
            "ticks": 66240,
            "time": 92.000046,
            "velocity": 0.7480314960629921
          },
          {
            "duration": 1.3333339999999936,
            "durationTicks": 960,
            "midi": 62,
            "name": "D4",
            "ticks": 67200,
            "time": 93.33338,
            "velocity": 0.7480314960629921
          },
          {
            "duration": 1.3333339999999936,
            "durationTicks": 960,
            "midi": 58,
            "name": "A#3",
            "ticks": 67200,
            "time": 93.33338,
            "velocity": 0.7480314960629921
          },
          {
            "duration": 1.3333339999999936,
            "durationTicks": 960,
            "midi": 46,
            "name": "A#2",
            "ticks": 67200,
            "time": 93.33338,
            "velocity": 0.7480314960629921
          },
          {
            "duration": 1.3333340000000078,
            "durationTicks": 960,
            "midi": 63,
            "name": "D#4",
            "ticks": 68160,
            "time": 94.666714,
            "velocity": 0.7480314960629921
          },
          {
            "duration": 1.3333340000000078,
            "durationTicks": 960,
            "midi": 56,
            "name": "G#3",
            "ticks": 68160,
            "time": 94.666714,
            "velocity": 0.7480314960629921
          },
          {
            "duration": 1.3333340000000078,
            "durationTicks": 960,
            "midi": 44,
            "name": "G#2",
            "ticks": 68160,
            "time": 94.666714,
            "velocity": 0.7480314960629921
          },
          {
            "duration": 1.3333339999999936,
            "durationTicks": 960,
            "midi": 63,
            "name": "D#4",
            "ticks": 69120,
            "time": 96.000048,
            "velocity": 0.7480314960629921
          },
          {
            "duration": 1.3333339999999936,
            "durationTicks": 960,
            "midi": 56,
            "name": "G#3",
            "ticks": 69120,
            "time": 96.000048,
            "velocity": 0.7480314960629921
          },
          {
            "duration": 1.3333339999999936,
            "durationTicks": 960,
            "midi": 44,
            "name": "G#2",
            "ticks": 69120,
            "time": 96.000048,
            "velocity": 0.7480314960629921
          },
          {
            "duration": 1.3333340000000078,
            "durationTicks": 960,
            "midi": 67,
            "name": "G4",
            "ticks": 70080,
            "time": 97.333382,
            "velocity": 0.7480314960629921
          },
          {
            "duration": 1.3333340000000078,
            "durationTicks": 960,
            "midi": 63,
            "name": "D#4",
            "ticks": 70080,
            "time": 97.333382,
            "velocity": 0.7480314960629921
          },
          {
            "duration": 1.3333340000000078,
            "durationTicks": 960,
            "midi": 55,
            "name": "G3",
            "ticks": 70080,
            "time": 97.333382,
            "velocity": 0.7480314960629921
          },
          {
            "duration": 0.6666669999999897,
            "durationTicks": 480,
            "midi": 63,
            "name": "D#4",
            "ticks": 71040,
            "time": 98.66671600000001,
            "velocity": 0.7480314960629921
          },
          {
            "duration": 0.6666669999999897,
            "durationTicks": 480,
            "midi": 56,
            "name": "G#3",
            "ticks": 71040,
            "time": 98.66671600000001,
            "velocity": 0.7480314960629921
          },
          {
            "duration": 0.6666669999999897,
            "durationTicks": 480,
            "midi": 44,
            "name": "G#2",
            "ticks": 71040,
            "time": 98.66671600000001,
            "velocity": 0.7480314960629921
          },
          {
            "duration": 0.6666670000000039,
            "durationTicks": 480,
            "midi": 65,
            "name": "F4",
            "ticks": 71520,
            "time": 99.333383,
            "velocity": 0.7480314960629921
          },
          {
            "duration": 0.6666670000000039,
            "durationTicks": 480,
            "midi": 58,
            "name": "A#3",
            "ticks": 71520,
            "time": 99.333383,
            "velocity": 0.7480314960629921
          },
          {
            "duration": 0.6666670000000039,
            "durationTicks": 480,
            "midi": 46,
            "name": "A#2",
            "ticks": 71520,
            "time": 99.333383,
            "velocity": 0.7480314960629921
          },
          {
            "duration": 1.3333339999999936,
            "durationTicks": 960,
            "midi": 67,
            "name": "G4",
            "ticks": 72000,
            "time": 100.00005,
            "velocity": 0.7480314960629921
          },
          {
            "duration": 1.3333339999999936,
            "durationTicks": 960,
            "midi": 60,
            "name": "C4",
            "ticks": 72000,
            "time": 100.00005,
            "velocity": 0.7480314960629921
          },
          {
            "duration": 1.3333339999999936,
            "durationTicks": 960,
            "midi": 48,
            "name": "C3",
            "ticks": 72000,
            "time": 100.00005,
            "velocity": 0.7480314960629921
          },
          {
            "duration": 1.3333340000000078,
            "durationTicks": 960,
            "midi": 63,
            "name": "D#4",
            "ticks": 72960,
            "time": 101.333384,
            "velocity": 0.7480314960629921
          },
          {
            "duration": 1.3333340000000078,
            "durationTicks": 960,
            "midi": 56,
            "name": "G#3",
            "ticks": 72960,
            "time": 101.333384,
            "velocity": 0.7480314960629921
          },
          {
            "duration": 1.3333340000000078,
            "durationTicks": 960,
            "midi": 44,
            "name": "G#2",
            "ticks": 72960,
            "time": 101.333384,
            "velocity": 0.7480314960629921
          },
          {
            "duration": 1.3333339999999936,
            "durationTicks": 960,
            "midi": 58,
            "name": "A#3",
            "ticks": 73920,
            "time": 102.666718,
            "velocity": 0.7480314960629921
          },
          {
            "duration": 1.3333339999999936,
            "durationTicks": 960,
            "midi": 55,
            "name": "G3",
            "ticks": 73920,
            "time": 102.666718,
            "velocity": 0.7480314960629921
          },
          {
            "duration": 1.3333339999999936,
            "durationTicks": 960,
            "midi": 43,
            "name": "G2",
            "ticks": 73920,
            "time": 102.666718,
            "velocity": 0.7480314960629921
          },
          {
            "duration": 2.0000010000000117,
            "durationTicks": 1440,
            "midi": 65,
            "name": "F4",
            "ticks": 74880,
            "time": 104.000052,
            "velocity": 0.7480314960629921
          },
          {
            "duration": 2.0000010000000117,
            "durationTicks": 1440,
            "midi": 58,
            "name": "A#3",
            "ticks": 74880,
            "time": 104.000052,
            "velocity": 0.7480314960629921
          },
          {
            "duration": 2.0000010000000117,
            "durationTicks": 1440,
            "midi": 53,
            "name": "F3",
            "ticks": 74880,
            "time": 104.000052,
            "velocity": 0.7480314960629921
          },
          {
            "duration": 2.0000010000000117,
            "durationTicks": 1440,
            "midi": 46,
            "name": "A#2",
            "ticks": 74880,
            "time": 104.000052,
            "velocity": 0.7480314960629921
          },
          {
            "duration": 0.6666669999999897,
            "durationTicks": 480,
            "midi": 67,
            "name": "G4",
            "ticks": 76320,
            "time": 106.00005300000001,
            "velocity": 0.7480314960629921
          },
          {
            "duration": 0.6666669999999897,
            "durationTicks": 480,
            "midi": 60,
            "name": "C4",
            "ticks": 76320,
            "time": 106.00005300000001,
            "velocity": 0.7480314960629921
          },
          {
            "duration": 0.6666669999999897,
            "durationTicks": 480,
            "midi": 55,
            "name": "G3",
            "ticks": 76320,
            "time": 106.00005300000001,
            "velocity": 0.7480314960629921
          },
          {
            "duration": 0.6666669999999897,
            "durationTicks": 480,
            "midi": 48,
            "name": "C3",
            "ticks": 76320,
            "time": 106.00005300000001,
            "velocity": 0.7480314960629921
          },
          {
            "duration": 1.3333340000000078,
            "durationTicks": 960,
            "midi": 63,
            "name": "D#4",
            "ticks": 109440,
            "time": 152.000076,
            "velocity": 0.7480314960629921
          },
          {
            "duration": 1.3333340000000078,
            "durationTicks": 960,
            "midi": 56,
            "name": "G#3",
            "ticks": 109440,
            "time": 152.000076,
            "velocity": 0.7480314960629921
          },
          {
            "duration": 1.3333340000000078,
            "durationTicks": 960,
            "midi": 44,
            "name": "G#2",
            "ticks": 109440,
            "time": 152.000076,
            "velocity": 0.7480314960629921
          },
          {
            "duration": 1.3333339999999794,
            "durationTicks": 960,
            "midi": 63,
            "name": "D#4",
            "ticks": 110400,
            "time": 153.33341000000001,
            "velocity": 0.7480314960629921
          },
          {
            "duration": 1.3333339999999794,
            "durationTicks": 960,
            "midi": 55,
            "name": "G3",
            "ticks": 110400,
            "time": 153.33341000000001,
            "velocity": 0.7480314960629921
          },
          {
            "duration": 1.3333339999999794,
            "durationTicks": 960,
            "midi": 43,
            "name": "G2",
            "ticks": 110400,
            "time": 153.33341000000001,
            "velocity": 0.7480314960629921
          },
          {
            "duration": 2.6666680000000156,
            "durationTicks": 1920,
            "midi": 63,
            "name": "D#4",
            "ticks": 111360,
            "time": 154.666744,
            "velocity": 0.7480314960629921
          },
          {
            "duration": 2.6666680000000156,
            "durationTicks": 1920,
            "midi": 58,
            "name": "A#3",
            "ticks": 111360,
            "time": 154.666744,
            "velocity": 0.7480314960629921
          },
          {
            "duration": 2.6666680000000156,
            "durationTicks": 1920,
            "midi": 46,
            "name": "A#2",
            "ticks": 111360,
            "time": 154.666744,
            "velocity": 0.7480314960629921
          },
          {
            "duration": 1.3333339999999794,
            "durationTicks": 960,
            "midi": 63,
            "name": "D#4",
            "ticks": 113280,
            "time": 157.333412,
            "velocity": 0.7480314960629921
          },
          {
            "duration": 1.3333339999999794,
            "durationTicks": 960,
            "midi": 56,
            "name": "G#3",
            "ticks": 113280,
            "time": 157.333412,
            "velocity": 0.7480314960629921
          },
          {
            "duration": 1.3333339999999794,
            "durationTicks": 960,
            "midi": 44,
            "name": "G#2",
            "ticks": 113280,
            "time": 157.333412,
            "velocity": 0.7480314960629921
          },
          {
            "duration": 1.3333340000000078,
            "durationTicks": 960,
            "midi": 63,
            "name": "D#4",
            "ticks": 114240,
            "time": 158.666746,
            "velocity": 0.7480314960629921
          },
          {
            "duration": 1.3333340000000078,
            "durationTicks": 960,
            "midi": 55,
            "name": "G3",
            "ticks": 114240,
            "time": 158.666746,
            "velocity": 0.7480314960629921
          },
          {
            "duration": 1.3333340000000078,
            "durationTicks": 960,
            "midi": 43,
            "name": "G2",
            "ticks": 114240,
            "time": 158.666746,
            "velocity": 0.7480314960629921
          },
          {
            "duration": 1.3333340000000078,
            "durationTicks": 960,
            "midi": 62,
            "name": "D4",
            "ticks": 115200,
            "time": 160.00008,
            "velocity": 0.7480314960629921
          },
          {
            "duration": 1.3333340000000078,
            "durationTicks": 960,
            "midi": 58,
            "name": "A#3",
            "ticks": 115200,
            "time": 160.00008,
            "velocity": 0.7480314960629921
          },
          {
            "duration": 1.3333340000000078,
            "durationTicks": 960,
            "midi": 46,
            "name": "A#2",
            "ticks": 115200,
            "time": 160.00008,
            "velocity": 0.7480314960629921
          },
          {
            "duration": 1.3333340000000078,
            "durationTicks": 960,
            "midi": 63,
            "name": "D#4",
            "ticks": 116160,
            "time": 161.333414,
            "velocity": 0.7480314960629921
          },
          {
            "duration": 1.3333340000000078,
            "durationTicks": 960,
            "midi": 56,
            "name": "G#3",
            "ticks": 116160,
            "time": 161.333414,
            "velocity": 0.7480314960629921
          },
          {
            "duration": 1.3333340000000078,
            "durationTicks": 960,
            "midi": 44,
            "name": "G#2",
            "ticks": 116160,
            "time": 161.333414,
            "velocity": 0.7480314960629921
          },
          {
            "duration": 1.3333339999999794,
            "durationTicks": 960,
            "midi": 63,
            "name": "D#4",
            "ticks": 117120,
            "time": 162.666748,
            "velocity": 0.7480314960629921
          },
          {
            "duration": 1.3333339999999794,
            "durationTicks": 960,
            "midi": 56,
            "name": "G#3",
            "ticks": 117120,
            "time": 162.666748,
            "velocity": 0.7480314960629921
          },
          {
            "duration": 1.3333339999999794,
            "durationTicks": 960,
            "midi": 44,
            "name": "G#2",
            "ticks": 117120,
            "time": 162.666748,
            "velocity": 0.7480314960629921
          },
          {
            "duration": 1.3333340000000078,
            "durationTicks": 960,
            "midi": 67,
            "name": "G4",
            "ticks": 118080,
            "time": 164.000082,
            "velocity": 0.7480314960629921
          },
          {
            "duration": 1.3333340000000078,
            "durationTicks": 960,
            "midi": 63,
            "name": "D#4",
            "ticks": 118080,
            "time": 164.000082,
            "velocity": 0.7480314960629921
          },
          {
            "duration": 1.3333340000000078,
            "durationTicks": 960,
            "midi": 55,
            "name": "G3",
            "ticks": 118080,
            "time": 164.000082,
            "velocity": 0.7480314960629921
          },
          {
            "duration": 0.6666669999999897,
            "durationTicks": 480,
            "midi": 63,
            "name": "D#4",
            "ticks": 119040,
            "time": 165.333416,
            "velocity": 0.7480314960629921
          },
          {
            "duration": 0.6666669999999897,
            "durationTicks": 480,
            "midi": 56,
            "name": "G#3",
            "ticks": 119040,
            "time": 165.333416,
            "velocity": 0.7480314960629921
          },
          {
            "duration": 0.6666669999999897,
            "durationTicks": 480,
            "midi": 44,
            "name": "G#2",
            "ticks": 119040,
            "time": 165.333416,
            "velocity": 0.7480314960629921
          },
          {
            "duration": 0.6666670000000181,
            "durationTicks": 480,
            "midi": 65,
            "name": "F4",
            "ticks": 119520,
            "time": 166.000083,
            "velocity": 0.7480314960629921
          },
          {
            "duration": 0.6666670000000181,
            "durationTicks": 480,
            "midi": 58,
            "name": "A#3",
            "ticks": 119520,
            "time": 166.000083,
            "velocity": 0.7480314960629921
          },
          {
            "duration": 0.6666670000000181,
            "durationTicks": 480,
            "midi": 46,
            "name": "A#2",
            "ticks": 119520,
            "time": 166.000083,
            "velocity": 0.7480314960629921
          },
          {
            "duration": 1.3333340000000078,
            "durationTicks": 960,
            "midi": 67,
            "name": "G4",
            "ticks": 120000,
            "time": 166.66675,
            "velocity": 0.7480314960629921
          },
          {
            "duration": 1.3333340000000078,
            "durationTicks": 960,
            "midi": 60,
            "name": "C4",
            "ticks": 120000,
            "time": 166.66675,
            "velocity": 0.7480314960629921
          },
          {
            "duration": 1.3333340000000078,
            "durationTicks": 960,
            "midi": 48,
            "name": "C3",
            "ticks": 120000,
            "time": 166.66675,
            "velocity": 0.7480314960629921
          },
          {
            "duration": 1.3333339999999794,
            "durationTicks": 960,
            "midi": 63,
            "name": "D#4",
            "ticks": 120960,
            "time": 168.00008400000002,
            "velocity": 0.7480314960629921
          },
          {
            "duration": 1.3333339999999794,
            "durationTicks": 960,
            "midi": 56,
            "name": "G#3",
            "ticks": 120960,
            "time": 168.00008400000002,
            "velocity": 0.7480314960629921
          },
          {
            "duration": 1.3333339999999794,
            "durationTicks": 960,
            "midi": 44,
            "name": "G#2",
            "ticks": 120960,
            "time": 168.00008400000002,
            "velocity": 0.7480314960629921
          },
          {
            "duration": 1.3333340000000078,
            "durationTicks": 960,
            "midi": 58,
            "name": "A#3",
            "ticks": 121920,
            "time": 169.333418,
            "velocity": 0.7480314960629921
          },
          {
            "duration": 1.3333340000000078,
            "durationTicks": 960,
            "midi": 55,
            "name": "G3",
            "ticks": 121920,
            "time": 169.333418,
            "velocity": 0.7480314960629921
          },
          {
            "duration": 1.3333340000000078,
            "durationTicks": 960,
            "midi": 43,
            "name": "G2",
            "ticks": 121920,
            "time": 169.333418,
            "velocity": 0.7480314960629921
          },
          {
            "duration": 2.0000009999999975,
            "durationTicks": 1440,
            "midi": 60,
            "name": "C4",
            "ticks": 122880,
            "time": 170.666752,
            "velocity": 0.7480314960629921
          },
          {
            "duration": 2.0000009999999975,
            "durationTicks": 1440,
            "midi": 57,
            "name": "A3",
            "ticks": 122880,
            "time": 170.666752,
            "velocity": 0.7480314960629921
          },
          {
            "duration": 2.0000009999999975,
            "durationTicks": 1440,
            "midi": 53,
            "name": "F3",
            "ticks": 122880,
            "time": 170.666752,
            "velocity": 0.7480314960629921
          },
          {
            "duration": 2.0000009999999975,
            "durationTicks": 1440,
            "midi": 45,
            "name": "A2",
            "ticks": 122880,
            "time": 170.666752,
            "velocity": 0.7480314960629921
          },
          {
            "duration": 0.6666669999999897,
            "durationTicks": 480,
            "midi": 63,
            "name": "D#4",
            "ticks": 124320,
            "time": 172.666753,
            "velocity": 0.7480314960629921
          },
          {
            "duration": 0.6666669999999897,
            "durationTicks": 480,
            "midi": 58,
            "name": "A#3",
            "ticks": 124320,
            "time": 172.666753,
            "velocity": 0.7480314960629921
          },
          {
            "duration": 0.6666669999999897,
            "durationTicks": 480,
            "midi": 53,
            "name": "F3",
            "ticks": 124320,
            "time": 172.666753,
            "velocity": 0.7480314960629921
          },
          {
            "duration": 0.6666669999999897,
            "durationTicks": 480,
            "midi": 46,
            "name": "A#2",
            "ticks": 124320,
            "time": 172.666753,
            "velocity": 0.7480314960629921
          },
          {
            "duration": 1.3333340000000078,
            "durationTicks": 960,
            "midi": 63,
            "name": "D#4",
            "ticks": 124800,
            "time": 173.33342,
            "velocity": 0.7480314960629921
          },
          {
            "duration": 1.3333340000000078,
            "durationTicks": 960,
            "midi": 56,
            "name": "G#3",
            "ticks": 124800,
            "time": 173.33342,
            "velocity": 0.7480314960629921
          },
          {
            "duration": 1.3333340000000078,
            "durationTicks": 960,
            "midi": 44,
            "name": "G#2",
            "ticks": 124800,
            "time": 173.33342,
            "velocity": 0.7480314960629921
          },
          {
            "duration": 1.3333340000000078,
            "durationTicks": 960,
            "midi": 63,
            "name": "D#4",
            "ticks": 125760,
            "time": 174.666754,
            "velocity": 0.7480314960629921
          },
          {
            "duration": 1.3333340000000078,
            "durationTicks": 960,
            "midi": 55,
            "name": "G3",
            "ticks": 125760,
            "time": 174.666754,
            "velocity": 0.7480314960629921
          },
          {
            "duration": 1.3333340000000078,
            "durationTicks": 960,
            "midi": 43,
            "name": "G2",
            "ticks": 125760,
            "time": 174.666754,
            "velocity": 0.7480314960629921
          },
          {
            "duration": 2.666667999999987,
            "durationTicks": 1920,
            "midi": 63,
            "name": "D#4",
            "ticks": 126720,
            "time": 176.000088,
            "velocity": 0.7480314960629921
          },
          {
            "duration": 2.666667999999987,
            "durationTicks": 1920,
            "midi": 58,
            "name": "A#3",
            "ticks": 126720,
            "time": 176.000088,
            "velocity": 0.7480314960629921
          },
          {
            "duration": 2.666667999999987,
            "durationTicks": 1920,
            "midi": 46,
            "name": "A#2",
            "ticks": 126720,
            "time": 176.000088,
            "velocity": 0.7480314960629921
          },
          {
            "duration": 1.3333340000000078,
            "durationTicks": 960,
            "midi": 63,
            "name": "D#4",
            "ticks": 128640,
            "time": 178.666756,
            "velocity": 0.7480314960629921
          },
          {
            "duration": 1.3333340000000078,
            "durationTicks": 960,
            "midi": 56,
            "name": "G#3",
            "ticks": 128640,
            "time": 178.666756,
            "velocity": 0.7480314960629921
          },
          {
            "duration": 1.3333340000000078,
            "durationTicks": 960,
            "midi": 44,
            "name": "G#2",
            "ticks": 128640,
            "time": 178.666756,
            "velocity": 0.7480314960629921
          },
          {
            "duration": 1.3333340000000078,
            "durationTicks": 960,
            "midi": 63,
            "name": "D#4",
            "ticks": 129600,
            "time": 180.00009,
            "velocity": 0.7480314960629921
          },
          {
            "duration": 1.3333340000000078,
            "durationTicks": 960,
            "midi": 55,
            "name": "G3",
            "ticks": 129600,
            "time": 180.00009,
            "velocity": 0.7480314960629921
          },
          {
            "duration": 1.3333340000000078,
            "durationTicks": 960,
            "midi": 43,
            "name": "G2",
            "ticks": 129600,
            "time": 180.00009,
            "velocity": 0.7480314960629921
          },
          {
            "duration": 1.3333340000000078,
            "durationTicks": 960,
            "midi": 62,
            "name": "D4",
            "ticks": 130560,
            "time": 181.333424,
            "velocity": 0.7480314960629921
          },
          {
            "duration": 1.3333340000000078,
            "durationTicks": 960,
            "midi": 58,
            "name": "A#3",
            "ticks": 130560,
            "time": 181.333424,
            "velocity": 0.7480314960629921
          },
          {
            "duration": 1.3333340000000078,
            "durationTicks": 960,
            "midi": 46,
            "name": "A#2",
            "ticks": 130560,
            "time": 181.333424,
            "velocity": 0.7480314960629921
          },
          {
            "duration": 1.3333339999999794,
            "durationTicks": 960,
            "midi": 63,
            "name": "D#4",
            "ticks": 131520,
            "time": 182.66675800000002,
            "velocity": 0.7480314960629921
          },
          {
            "duration": 1.3333339999999794,
            "durationTicks": 960,
            "midi": 56,
            "name": "G#3",
            "ticks": 131520,
            "time": 182.66675800000002,
            "velocity": 0.7480314960629921
          },
          {
            "duration": 1.3333339999999794,
            "durationTicks": 960,
            "midi": 44,
            "name": "G#2",
            "ticks": 131520,
            "time": 182.66675800000002,
            "velocity": 0.7480314960629921
          },
          {
            "duration": 1.3333340000000078,
            "durationTicks": 960,
            "midi": 63,
            "name": "D#4",
            "ticks": 132480,
            "time": 184.000092,
            "velocity": 0.7480314960629921
          },
          {
            "duration": 1.3333340000000078,
            "durationTicks": 960,
            "midi": 56,
            "name": "G#3",
            "ticks": 132480,
            "time": 184.000092,
            "velocity": 0.7480314960629921
          },
          {
            "duration": 1.3333340000000078,
            "durationTicks": 960,
            "midi": 44,
            "name": "G#2",
            "ticks": 132480,
            "time": 184.000092,
            "velocity": 0.7480314960629921
          },
          {
            "duration": 1.3333340000000078,
            "durationTicks": 960,
            "midi": 67,
            "name": "G4",
            "ticks": 133440,
            "time": 185.333426,
            "velocity": 0.7480314960629921
          },
          {
            "duration": 1.3333340000000078,
            "durationTicks": 960,
            "midi": 63,
            "name": "D#4",
            "ticks": 133440,
            "time": 185.333426,
            "velocity": 0.7480314960629921
          },
          {
            "duration": 1.3333340000000078,
            "durationTicks": 960,
            "midi": 55,
            "name": "G3",
            "ticks": 133440,
            "time": 185.333426,
            "velocity": 0.7480314960629921
          },
          {
            "duration": 0.6666669999999897,
            "durationTicks": 480,
            "midi": 63,
            "name": "D#4",
            "ticks": 134400,
            "time": 186.66676,
            "velocity": 0.7480314960629921
          },
          {
            "duration": 0.6666669999999897,
            "durationTicks": 480,
            "midi": 56,
            "name": "G#3",
            "ticks": 134400,
            "time": 186.66676,
            "velocity": 0.7480314960629921
          },
          {
            "duration": 0.6666669999999897,
            "durationTicks": 480,
            "midi": 44,
            "name": "G#2",
            "ticks": 134400,
            "time": 186.66676,
            "velocity": 0.7480314960629921
          },
          {
            "duration": 0.6666669999999897,
            "durationTicks": 480,
            "midi": 65,
            "name": "F4",
            "ticks": 134880,
            "time": 187.333427,
            "velocity": 0.7480314960629921
          },
          {
            "duration": 0.6666669999999897,
            "durationTicks": 480,
            "midi": 58,
            "name": "A#3",
            "ticks": 134880,
            "time": 187.333427,
            "velocity": 0.7480314960629921
          },
          {
            "duration": 0.6666669999999897,
            "durationTicks": 480,
            "midi": 46,
            "name": "A#2",
            "ticks": 134880,
            "time": 187.333427,
            "velocity": 0.7480314960629921
          },
          {
            "duration": 1.3333340000000078,
            "durationTicks": 960,
            "midi": 67,
            "name": "G4",
            "ticks": 135360,
            "time": 188.000094,
            "velocity": 0.7480314960629921
          },
          {
            "duration": 1.3333340000000078,
            "durationTicks": 960,
            "midi": 60,
            "name": "C4",
            "ticks": 135360,
            "time": 188.000094,
            "velocity": 0.7480314960629921
          },
          {
            "duration": 1.3333340000000078,
            "durationTicks": 960,
            "midi": 48,
            "name": "C3",
            "ticks": 135360,
            "time": 188.000094,
            "velocity": 0.7480314960629921
          },
          {
            "duration": 1.3333340000000078,
            "durationTicks": 960,
            "midi": 63,
            "name": "D#4",
            "ticks": 136320,
            "time": 189.333428,
            "velocity": 0.7480314960629921
          },
          {
            "duration": 1.3333340000000078,
            "durationTicks": 960,
            "midi": 56,
            "name": "G#3",
            "ticks": 136320,
            "time": 189.333428,
            "velocity": 0.7480314960629921
          },
          {
            "duration": 1.3333340000000078,
            "durationTicks": 960,
            "midi": 44,
            "name": "G#2",
            "ticks": 136320,
            "time": 189.333428,
            "velocity": 0.7480314960629921
          },
          {
            "duration": 1.3333340000000078,
            "durationTicks": 960,
            "midi": 58,
            "name": "A#3",
            "ticks": 137280,
            "time": 190.666762,
            "velocity": 0.7480314960629921
          },
          {
            "duration": 1.3333340000000078,
            "durationTicks": 960,
            "midi": 55,
            "name": "G3",
            "ticks": 137280,
            "time": 190.666762,
            "velocity": 0.7480314960629921
          },
          {
            "duration": 1.3333340000000078,
            "durationTicks": 960,
            "midi": 43,
            "name": "G2",
            "ticks": 137280,
            "time": 190.666762,
            "velocity": 0.7480314960629921
          },
          {
            "duration": 2.0000009999999975,
            "durationTicks": 1440,
            "midi": 65,
            "name": "F4",
            "ticks": 138240,
            "time": 192.000096,
            "velocity": 0.7480314960629921
          },
          {
            "duration": 2.0000009999999975,
            "durationTicks": 1440,
            "midi": 58,
            "name": "A#3",
            "ticks": 138240,
            "time": 192.000096,
            "velocity": 0.7480314960629921
          },
          {
            "duration": 2.0000009999999975,
            "durationTicks": 1440,
            "midi": 53,
            "name": "F3",
            "ticks": 138240,
            "time": 192.000096,
            "velocity": 0.7480314960629921
          },
          {
            "duration": 2.0000009999999975,
            "durationTicks": 1440,
            "midi": 46,
            "name": "A#2",
            "ticks": 138240,
            "time": 192.000096,
            "velocity": 0.7480314960629921
          },
          {
            "duration": 0.6666669999999897,
            "durationTicks": 480,
            "midi": 67,
            "name": "G4",
            "ticks": 139680,
            "time": 194.000097,
            "velocity": 0.7480314960629921
          },
          {
            "duration": 0.6666669999999897,
            "durationTicks": 480,
            "midi": 60,
            "name": "C4",
            "ticks": 139680,
            "time": 194.000097,
            "velocity": 0.7480314960629921
          },
          {
            "duration": 0.6666669999999897,
            "durationTicks": 480,
            "midi": 55,
            "name": "G3",
            "ticks": 139680,
            "time": 194.000097,
            "velocity": 0.7480314960629921
          },
          {
            "duration": 0.6666669999999897,
            "durationTicks": 480,
            "midi": 48,
            "name": "C3",
            "ticks": 139680,
            "time": 194.000097,
            "velocity": 0.7480314960629921
          }
        ]
      }
    ]
  }