{
    "header": {
      "keySignatures": [
        {
          "key": "C#",
          "scale": "major",
          "ticks": 0
        }
      ],
      "meta": [],
      "name": "untitled",
      "ppq": 120,
      "tempos": [
        {
          "bpm": 102.0000510000255,
          "ticks": 0
        },
        {
          "bpm": 102.0000510000255,
          "ticks": 960
        },
        {
          "bpm": 101.00006901671382,
          "ticks": 40284
        },
        {
          "bpm": 102.0000510000255,
          "ticks": 40296
        },
        {
          "bpm": 101.00006901671382,
          "ticks": 40308
        },
        {
          "bpm": 101.00006901671382,
          "ticks": 40320
        },
        {
          "bpm": 101.00006901671382,
          "ticks": 40332
        },
        {
          "bpm": 101.00006901671382,
          "ticks": 40344
        },
        {
          "bpm": 100,
          "ticks": 40356
        },
        {
          "bpm": 100,
          "ticks": 40368
        },
        {
          "bpm": 100,
          "ticks": 40380
        },
        {
          "bpm": 100,
          "ticks": 40392
        },
        {
          "bpm": 98.99993565004183,
          "ticks": 40404
        },
        {
          "bpm": 98.99993565004183,
          "ticks": 40416
        },
        {
          "bpm": 98.99993565004183,
          "ticks": 40428
        },
        {
          "bpm": 98.99993565004183,
          "ticks": 40440
        },
        {
          "bpm": 97.9999836666694,
          "ticks": 40452
        },
        {
          "bpm": 97.9999836666694,
          "ticks": 40464
        },
        {
          "bpm": 97.9999836666694,
          "ticks": 40476
        },
        {
          "bpm": 97.9999836666694,
          "ticks": 40488
        },
        {
          "bpm": 97.9999836666694,
          "ticks": 40500
        },
        {
          "bpm": 96.99995311668933,
          "ticks": 40512
        },
        {
          "bpm": 96.99995311668933,
          "ticks": 40524
        },
        {
          "bpm": 96.99995311668933,
          "ticks": 40536
        },
        {
          "bpm": 96.99995311668933,
          "ticks": 40548
        },
        {
          "bpm": 96,
          "ticks": 40560
        },
        {
          "bpm": 96,
          "ticks": 40572
        },
        {
          "bpm": 96,
          "ticks": 40584
        },
        {
          "bpm": 96,
          "ticks": 40596
        },
        {
          "bpm": 94.99999208333399,
          "ticks": 40608
        },
        {
          "bpm": 94.99999208333399,
          "ticks": 40620
        },
        {
          "bpm": 94.99999208333399,
          "ticks": 40632
        },
        {
          "bpm": 94.99999208333399,
          "ticks": 40644
        },
        {
          "bpm": 94.99999208333399,
          "ticks": 40656
        },
        {
          "bpm": 93.99998120000376,
          "ticks": 40668
        },
        {
          "bpm": 93.99998120000376,
          "ticks": 40680
        },
        {
          "bpm": 93.99998120000376,
          "ticks": 40692
        },
        {
          "bpm": 93.99998120000376,
          "ticks": 40704
        },
        {
          "bpm": 93.00004185001883,
          "ticks": 40716
        },
        {
          "bpm": 93.00004185001883,
          "ticks": 40728
        },
        {
          "bpm": 93.00004185001883,
          "ticks": 40740
        },
        {
          "bpm": 93.00004185001883,
          "ticks": 40752
        },
        {
          "bpm": 91.99998773333498,
          "ticks": 40764
        },
        {
          "bpm": 91.99998773333498,
          "ticks": 40776
        },
        {
          "bpm": 101.00006901671382,
          "ticks": 40788
        },
        {
          "bpm": 101.00006901671382,
          "ticks": 40800
        }
      ],
      "timeSignatures": [
        {
          "ticks": 0,
          "timeSignature": [
            4,
            4
          ],
          "measures": 0
        }
      ]
    },
    "tracks": [
      {
        "channel": 0,
        "controlChanges": {
          "0": [
            {
              "number": 0,
              "ticks": 120,
              "time": 0.5882350000000001,
              "value": 0
            }
          ],
          "32": [
            {
              "number": 32,
              "ticks": 121,
              "time": 0.5931369583333334,
              "value": 0
            }
          ]
        },
        "pitchBends": [],
        "instrument": {
          "family": "piano",
          "number": 0,
          "name": "acoustic grand piano"
        },
        "name": "untitled",
        "notes": [],
        "endOfTrackTicks": 40800
      },
      {
        "channel": 0,
        "controlChanges": {
          "7": [
            {
              "number": 7,
              "ticks": 123,
              "time": 0.602940875,
              "value": 0.7086614173228346
            }
          ]
        },
        "pitchBends": [],
        "instrument": {
          "family": "guitar",
          "number": 24,
          "name": "acoustic guitar (nylon)"
        },
        "name": "",
        "notes": [
          {
            "duration": 0.14705874999999935,
            "durationTicks": 30,
            "midi": 61,
            "name": "C#4",
            "ticks": 3330,
            "time": 16.323521250000002,
            "velocity": 0.7874015748031497
          },
          {
            "duration": 0.14705874999999935,
            "durationTicks": 30,
            "midi": 65,
            "name": "F4",
            "ticks": 3360,
            "time": 16.47058,
            "velocity": 0.7874015748031497
          },
          {
            "duration": 0.1470587500000029,
            "durationTicks": 30,
            "midi": 65,
            "name": "F4",
            "ticks": 3390,
            "time": 16.61763875,
            "velocity": 0.7874015748031497
          },
          {
            "duration": 0.14705874999999935,
            "durationTicks": 30,
            "midi": 65,
            "name": "F4",
            "ticks": 3420,
            "time": 16.764697500000004,
            "velocity": 0.7874015748031497
          },
          {
            "duration": 0.14705874999999935,
            "durationTicks": 30,
            "midi": 65,
            "name": "F4",
            "ticks": 3450,
            "time": 16.911756250000003,
            "velocity": 0.7874015748031497
          },
          {
            "duration": 0.14705874999999935,
            "durationTicks": 30,
            "midi": 65,
            "name": "F4",
            "ticks": 3480,
            "time": 17.058815000000003,
            "velocity": 0.7874015748031497
          },
          {
            "duration": 0.14705874999999935,
            "durationTicks": 30,
            "midi": 63,
            "name": "D#4",
            "ticks": 3510,
            "time": 17.205873750000002,
            "velocity": 0.7874015748031497
          },
          {
            "duration": 0.14705874999999935,
            "durationTicks": 30,
            "midi": 61,
            "name": "C#4",
            "ticks": 3540,
            "time": 17.3529325,
            "velocity": 0.7874015748031497
          },
          {
            "duration": 0.14705874999999935,
            "durationTicks": 30,
            "midi": 63,
            "name": "D#4",
            "ticks": 3570,
            "time": 17.49999125,
            "velocity": 0.7874015748031497
          },
          {
            "duration": 0.29411750000000225,
            "durationTicks": 60,
            "midi": 65,
            "name": "F4",
            "ticks": 3600,
            "time": 17.64705,
            "velocity": 0.7874015748031497
          },
          {
            "duration": 0.2941174999999987,
            "durationTicks": 60,
            "midi": 68,
            "name": "G#4",
            "ticks": 3660,
            "time": 17.941167500000002,
            "velocity": 0.7874015748031497
          },
          {
            "duration": 0.29411750000000225,
            "durationTicks": 60,
            "midi": 68,
            "name": "G#4",
            "ticks": 3720,
            "time": 18.235285,
            "velocity": 0.7874015748031497
          },
          {
            "duration": 0.14705874999999935,
            "durationTicks": 30,
            "midi": 63,
            "name": "D#4",
            "ticks": 3870,
            "time": 18.97057875,
            "velocity": 0.7874015748031497
          },
          {
            "duration": 0.14705874999999935,
            "durationTicks": 30,
            "midi": 63,
            "name": "D#4",
            "ticks": 3900,
            "time": 19.1176375,
            "velocity": 0.7874015748031497
          },
          {
            "duration": 0.1470587500000029,
            "durationTicks": 30,
            "midi": 63,
            "name": "D#4",
            "ticks": 3930,
            "time": 19.26469625,
            "velocity": 0.7874015748031497
          },
          {
            "duration": 0.14705874999999935,
            "durationTicks": 30,
            "midi": 63,
            "name": "D#4",
            "ticks": 3960,
            "time": 19.411755000000003,
            "velocity": 0.7874015748031497
          },
          {
            "duration": 0.14705874999999935,
            "durationTicks": 30,
            "midi": 61,
            "name": "C#4",
            "ticks": 3990,
            "time": 19.558813750000002,
            "velocity": 0.7874015748031497
          },
          {
            "duration": 0.1470587500000029,
            "durationTicks": 30,
            "midi": 61,
            "name": "C#4",
            "ticks": 4020,
            "time": 19.7058725,
            "velocity": 0.7874015748031497
          },
          {
            "duration": 0.14705874999999935,
            "durationTicks": 30,
            "midi": 63,
            "name": "D#4",
            "ticks": 4050,
            "time": 19.852931250000005,
            "velocity": 0.7874015748031497
          },
          {
            "duration": 0.2941174999999987,
            "durationTicks": 60,
            "midi": 65,
            "name": "F4",
            "ticks": 4080,
            "time": 19.999990000000004,
            "velocity": 0.7874015748031497
          },
          {
            "duration": 0.2941174999999987,
            "durationTicks": 60,
            "midi": 68,
            "name": "G#4",
            "ticks": 4140,
            "time": 20.294107500000003,
            "velocity": 0.7874015748031497
          },
          {
            "duration": 0.29411750000000225,
            "durationTicks": 60,
            "midi": 68,
            "name": "G#4",
            "ticks": 4200,
            "time": 20.588225,
            "velocity": 0.7874015748031497
          },
          {
            "duration": 0.14705874999999935,
            "durationTicks": 30,
            "midi": 63,
            "name": "D#4",
            "ticks": 4350,
            "time": 21.32351875,
            "velocity": 0.7874015748031497
          },
          {
            "duration": 0.1470587500000029,
            "durationTicks": 30,
            "midi": 63,
            "name": "D#4",
            "ticks": 4380,
            "time": 21.4705775,
            "velocity": 0.7874015748031497
          },
          {
            "duration": 0.14705874999999935,
            "durationTicks": 30,
            "midi": 65,
            "name": "F4",
            "ticks": 4410,
            "time": 21.617636250000004,
            "velocity": 0.7874015748031497
          },
          {
            "duration": 0.2941174999999987,
            "durationTicks": 60,
            "midi": 63,
            "name": "D#4",
            "ticks": 4440,
            "time": 21.764695000000003,
            "velocity": 0.7874015748031497
          },
          {
            "duration": 0.2941174999999987,
            "durationTicks": 60,
            "midi": 61,
            "name": "C#4",
            "ticks": 4500,
            "time": 22.058812500000002,
            "velocity": 0.7874015748031497
          },
          {
            "duration": 0.14705874999999935,
            "durationTicks": 30,
            "midi": 65,
            "name": "F4",
            "ticks": 4650,
            "time": 22.794106250000002,
            "velocity": 0.7874015748031497
          },
          {
            "duration": 0.29411750000000225,
            "durationTicks": 60,
            "midi": 63,
            "name": "D#4",
            "ticks": 4680,
            "time": 22.941165,
            "velocity": 0.7874015748031497
          },
          {
            "duration": 0.2941174999999987,
            "durationTicks": 60,
            "midi": 61,
            "name": "C#4",
            "ticks": 4740,
            "time": 23.235282500000004,
            "velocity": 0.7874015748031497
          },
          {
            "duration": 0.14705874999999935,
            "durationTicks": 30,
            "midi": 65,
            "name": "F4",
            "ticks": 4890,
            "time": 23.970576250000004,
            "velocity": 0.7874015748031497
          },
          {
            "duration": 0.2941174999999987,
            "durationTicks": 60,
            "midi": 63,
            "name": "D#4",
            "ticks": 4920,
            "time": 24.117635000000003,
            "velocity": 0.7874015748031497
          },
          {
            "duration": 0.29411750000000225,
            "durationTicks": 60,
            "midi": 61,
            "name": "C#4",
            "ticks": 4980,
            "time": 24.411752500000002,
            "velocity": 0.7874015748031497
          },
          {
            "duration": 0.1470587500000029,
            "durationTicks": 30,
            "midi": 46,
            "name": "A#2",
            "ticks": 5010,
            "time": 24.55881125,
            "velocity": 0.7874015748031497
          },
          {
            "duration": 0.14705874999999935,
            "durationTicks": 30,
            "midi": 48,
            "name": "C3",
            "ticks": 5040,
            "time": 24.705870000000004,
            "velocity": 0.7874015748031497
          },
          {
            "duration": 0.2941174999999987,
            "durationTicks": 60,
            "midi": 49,
            "name": "C#3",
            "ticks": 5070,
            "time": 24.852928750000004,
            "velocity": 0.7874015748031497
          },
          {
            "duration": 0.14705874999999935,
            "durationTicks": 30,
            "midi": 46,
            "name": "A#2",
            "ticks": 5130,
            "time": 25.147046250000002,
            "velocity": 0.7874015748031497
          },
          {
            "duration": 0.14705874999999935,
            "durationTicks": 30,
            "midi": 65,
            "name": "F4",
            "ticks": 5130,
            "time": 25.147046250000002,
            "velocity": 0.7874015748031497
          },
          {
            "duration": 0.29411750000000225,
            "durationTicks": 60,
            "midi": 49,
            "name": "C#3",
            "ticks": 5160,
            "time": 25.294105000000002,
            "velocity": 0.7874015748031497
          },
          {
            "duration": 0.29411750000000225,
            "durationTicks": 60,
            "midi": 63,
            "name": "D#4",
            "ticks": 5160,
            "time": 25.294105000000002,
            "velocity": 0.7874015748031497
          },
          {
            "duration": 0.2941174999999987,
            "durationTicks": 60,
            "midi": 46,
            "name": "A#2",
            "ticks": 5220,
            "time": 25.588222500000004,
            "velocity": 0.7874015748031497
          },
          {
            "duration": 0.2941174999999987,
            "durationTicks": 60,
            "midi": 61,
            "name": "C#4",
            "ticks": 5220,
            "time": 25.588222500000004,
            "velocity": 0.7874015748031497
          },
          {
            "duration": 0.29411750000000225,
            "durationTicks": 60,
            "midi": 65,
            "name": "F4",
            "ticks": 5340,
            "time": 26.1764575,
            "velocity": 0.7874015748031497
          },
          {
            "duration": 0.14705874999999935,
            "durationTicks": 30,
            "midi": 63,
            "name": "D#4",
            "ticks": 5400,
            "time": 26.470575000000004,
            "velocity": 0.7874015748031497
          },
          {
            "duration": 0.14705874999999935,
            "durationTicks": 30,
            "midi": 61,
            "name": "C#4",
            "ticks": 5430,
            "time": 26.617633750000003,
            "velocity": 0.7874015748031497
          },
          {
            "duration": 0.14705874999999935,
            "durationTicks": 30,
            "midi": 61,
            "name": "C#4",
            "ticks": 5460,
            "time": 26.764692500000002,
            "velocity": 0.7874015748031497
          },
          {
            "duration": 0.14705874999999935,
            "durationTicks": 30,
            "midi": 63,
            "name": "D#4",
            "ticks": 5490,
            "time": 26.911751250000002,
            "velocity": 0.7874015748031497
          },
          {
            "duration": 0.1470587500000029,
            "durationTicks": 30,
            "midi": 65,
            "name": "F4",
            "ticks": 5520,
            "time": 27.05881,
            "velocity": 0.7874015748031497
          },
          {
            "duration": 0.2941174999999987,
            "durationTicks": 60,
            "midi": 68,
            "name": "G#4",
            "ticks": 5580,
            "time": 27.352927500000003,
            "velocity": 0.7874015748031497
          },
          {
            "duration": 0.29411750000000225,
            "durationTicks": 60,
            "midi": 68,
            "name": "G#4",
            "ticks": 5640,
            "time": 27.647045000000002,
            "velocity": 0.7874015748031497
          },
          {
            "duration": 0.29411750000000225,
            "durationTicks": 60,
            "midi": 70,
            "name": "A#4",
            "ticks": 5820,
            "time": 28.5293975,
            "velocity": 0.7874015748031497
          },
          {
            "duration": 0.2941174999999987,
            "durationTicks": 60,
            "midi": 68,
            "name": "G#4",
            "ticks": 5880,
            "time": 28.823515000000004,
            "velocity": 0.7874015748031497
          },
          {
            "duration": 0.1470587500000029,
            "durationTicks": 30,
            "midi": 65,
            "name": "F4",
            "ticks": 5970,
            "time": 29.264691250000002,
            "velocity": 0.7874015748031497
          },
          {
            "duration": 0.14705874999999935,
            "durationTicks": 30,
            "midi": 68,
            "name": "G#4",
            "ticks": 6000,
            "time": 29.411750000000005,
            "velocity": 0.7874015748031497
          },
          {
            "duration": 0.14705874999999935,
            "durationTicks": 30,
            "midi": 65,
            "name": "F4",
            "ticks": 6030,
            "time": 29.558808750000004,
            "velocity": 0.7874015748031497
          },
          {
            "duration": 0.14705874999999935,
            "durationTicks": 30,
            "midi": 63,
            "name": "D#4",
            "ticks": 6060,
            "time": 29.705867500000004,
            "velocity": 0.7874015748031497
          },
          {
            "duration": 0.14705874999999935,
            "durationTicks": 30,
            "midi": 65,
            "name": "F4",
            "ticks": 6090,
            "time": 29.852926250000003,
            "velocity": 0.7874015748031497
          },
          {
            "duration": 0.29411750000000225,
            "durationTicks": 60,
            "midi": 61,
            "name": "C#4",
            "ticks": 6120,
            "time": 29.999985000000002,
            "velocity": 0.7874015748031497
          },
          {
            "duration": 0.14705874999999935,
            "durationTicks": 30,
            "midi": 65,
            "name": "F4",
            "ticks": 6330,
            "time": 31.029396250000005,
            "velocity": 0.7874015748031497
          },
          {
            "duration": 0.2941174999999987,
            "durationTicks": 60,
            "midi": 63,
            "name": "D#4",
            "ticks": 6360,
            "time": 31.176455000000004,
            "velocity": 0.7874015748031497
          },
          {
            "duration": 0.2941174999999987,
            "durationTicks": 60,
            "midi": 61,
            "name": "C#4",
            "ticks": 6420,
            "time": 31.470572500000003,
            "velocity": 0.7874015748031497
          },
          {
            "duration": 0.14705874999999935,
            "durationTicks": 30,
            "midi": 65,
            "name": "F4",
            "ticks": 6570,
            "time": 32.20586625,
            "velocity": 0.7874015748031497
          },
          {
            "duration": 0.14705874999999935,
            "durationTicks": 30,
            "midi": 66,
            "name": "F#4",
            "ticks": 6600,
            "time": 32.352925,
            "velocity": 0.7874015748031497
          },
          {
            "duration": 0.14705875000000646,
            "durationTicks": 30,
            "midi": 65,
            "name": "F4",
            "ticks": 6630,
            "time": 32.49998375,
            "velocity": 0.7874015748031497
          },
          {
            "duration": 0.2941174999999987,
            "durationTicks": 60,
            "midi": 63,
            "name": "D#4",
            "ticks": 6660,
            "time": 32.647042500000005,
            "velocity": 0.7874015748031497
          },
          {
            "duration": 0.2941174999999987,
            "durationTicks": 60,
            "midi": 63,
            "name": "D#4",
            "ticks": 6840,
            "time": 33.52939500000001,
            "velocity": 0.7874015748031497
          },
          {
            "duration": 0.14705874999999935,
            "durationTicks": 30,
            "midi": 63,
            "name": "D#4",
            "ticks": 6900,
            "time": 33.82351250000001,
            "velocity": 0.7874015748031497
          },
          {
            "duration": 0.14705874999999935,
            "durationTicks": 30,
            "midi": 63,
            "name": "D#4",
            "ticks": 6930,
            "time": 33.970571250000006,
            "velocity": 0.7874015748031497
          },
          {
            "duration": 0.2941174999999987,
            "durationTicks": 60,
            "midi": 63,
            "name": "D#4",
            "ticks": 6960,
            "time": 34.117630000000005,
            "velocity": 0.7874015748031497
          },
          {
            "duration": 0.14705874999999935,
            "durationTicks": 30,
            "midi": 63,
            "name": "D#4",
            "ticks": 7020,
            "time": 34.411747500000004,
            "velocity": 0.7874015748031497
          },
          {
            "duration": 0.14705874999999935,
            "durationTicks": 30,
            "midi": 63,
            "name": "D#4",
            "ticks": 7050,
            "time": 34.55880625,
            "velocity": 0.7874015748031497
          },
          {
            "duration": 0.2941174999999987,
            "durationTicks": 60,
            "midi": 63,
            "name": "D#4",
            "ticks": 7080,
            "time": 34.705865,
            "velocity": 0.7874015748031497
          },
          {
            "duration": 0.2941174999999987,
            "durationTicks": 60,
            "midi": 58,
            "name": "A#3",
            "ticks": 7140,
            "time": 34.9999825,
            "velocity": 0.7874015748031497
          },
          {
            "duration": 0.2941174999999987,
            "durationTicks": 60,
            "midi": 70,
            "name": "A#4",
            "ticks": 7320,
            "time": 35.882335000000005,
            "velocity": 0.7874015748031497
          },
          {
            "duration": 0.14705875000000646,
            "durationTicks": 30,
            "midi": 68,
            "name": "G#4",
            "ticks": 7440,
            "time": 36.47057,
            "velocity": 0.7874015748031497
          },
          {
            "duration": 0.14705875000000646,
            "durationTicks": 30,
            "midi": 70,
            "name": "A#4",
            "ticks": 7500,
            "time": 36.7646875,
            "velocity": 0.7874015748031497
          },
          {
            "duration": 0.14705874999999935,
            "durationTicks": 30,
            "midi": 68,
            "name": "G#4",
            "ticks": 7530,
            "time": 36.91174625000001,
            "velocity": 0.7874015748031497
          },
          {
            "duration": 0.14705874999999935,
            "durationTicks": 30,
            "midi": 68,
            "name": "G#4",
            "ticks": 7590,
            "time": 37.205863750000006,
            "velocity": 0.7874015748031497
          },
          {
            "duration": 0.14705874999999935,
            "durationTicks": 30,
            "midi": 68,
            "name": "G#4",
            "ticks": 7620,
            "time": 37.352922500000005,
            "velocity": 0.7874015748031497
          },
          {
            "duration": 0.14705874999999935,
            "durationTicks": 30,
            "midi": 68,
            "name": "G#4",
            "ticks": 7650,
            "time": 37.499981250000005,
            "velocity": 0.7874015748031497
          },
          {
            "duration": 0.19607833333333247,
            "durationTicks": 40,
            "midi": 65,
            "name": "F4",
            "ticks": 7680,
            "time": 37.647040000000004,
            "velocity": 0.7874015748031497
          },
          {
            "duration": 0.19607833333333957,
            "durationTicks": 40,
            "midi": 68,
            "name": "G#4",
            "ticks": 7740,
            "time": 37.9411575,
            "velocity": 0.7874015748031497
          },
          {
            "duration": 0.2941175000000058,
            "durationTicks": 60,
            "midi": 65,
            "name": "F4",
            "ticks": 7800,
            "time": 38.235275,
            "velocity": 0.7874015748031497
          },
          {
            "duration": 0.14705874999999935,
            "durationTicks": 30,
            "midi": 65,
            "name": "F4",
            "ticks": 7860,
            "time": 38.52939250000001,
            "velocity": 0.7874015748031497
          },
          {
            "duration": 0.14705874999999935,
            "durationTicks": 30,
            "midi": 65,
            "name": "F4",
            "ticks": 7890,
            "time": 38.67645125000001,
            "velocity": 0.7874015748031497
          },
          {
            "duration": 0.14705874999999935,
            "durationTicks": 30,
            "midi": 63,
            "name": "D#4",
            "ticks": 7920,
            "time": 38.823510000000006,
            "velocity": 0.7874015748031497
          },
          {
            "duration": 0.14705874999999935,
            "durationTicks": 30,
            "midi": 63,
            "name": "D#4",
            "ticks": 7950,
            "time": 38.970568750000005,
            "velocity": 0.7874015748031497
          },
          {
            "duration": 0.14705874999999935,
            "durationTicks": 30,
            "midi": 65,
            "name": "F4",
            "ticks": 7980,
            "time": 39.117627500000005,
            "velocity": 0.7874015748031497
          },
          {
            "duration": 0.14705874999999935,
            "durationTicks": 30,
            "midi": 63,
            "name": "D#4",
            "ticks": 8010,
            "time": 39.264686250000004,
            "velocity": 0.7874015748031497
          },
          {
            "duration": 0.14705874999999935,
            "durationTicks": 30,
            "midi": 61,
            "name": "C#4",
            "ticks": 8070,
            "time": 39.55880375,
            "velocity": 0.7874015748031497
          },
          {
            "duration": 0.14705874999999935,
            "durationTicks": 30,
            "midi": 58,
            "name": "A#3",
            "ticks": 8100,
            "time": 39.7058625,
            "velocity": 0.7874015748031497
          },
          {
            "duration": 0.14705874999999935,
            "durationTicks": 30,
            "midi": 58,
            "name": "A#3",
            "ticks": 8220,
            "time": 40.29409750000001,
            "velocity": 0.7874015748031497
          },
          {
            "duration": 0.14705874999999935,
            "durationTicks": 30,
            "midi": 58,
            "name": "A#3",
            "ticks": 8250,
            "time": 40.441156250000006,
            "velocity": 0.7874015748031497
          },
          {
            "duration": 0.14705874999999935,
            "durationTicks": 30,
            "midi": 58,
            "name": "A#3",
            "ticks": 8280,
            "time": 40.588215000000005,
            "velocity": 0.7874015748031497
          },
          {
            "duration": 0.14705874999999935,
            "durationTicks": 30,
            "midi": 56,
            "name": "G#3",
            "ticks": 8340,
            "time": 40.882332500000004,
            "velocity": 0.7874015748031497
          },
          {
            "duration": 0.14705875000000646,
            "durationTicks": 30,
            "midi": 56,
            "name": "G#3",
            "ticks": 8460,
            "time": 41.4705675,
            "velocity": 0.7874015748031497
          },
          {
            "duration": 0.14705874999999935,
            "durationTicks": 30,
            "midi": 60,
            "name": "C4",
            "ticks": 8494,
            "time": 41.63723408333334,
            "velocity": 0.7874015748031497
          },
          {
            "duration": 0.14705874999999935,
            "durationTicks": 30,
            "midi": 58,
            "name": "A#3",
            "ticks": 8580,
            "time": 42.058802500000006,
            "velocity": 0.7874015748031497
          },
          {
            "duration": 0.14705874999999935,
            "durationTicks": 30,
            "midi": 58,
            "name": "A#3",
            "ticks": 8700,
            "time": 42.6470375,
            "velocity": 0.7874015748031497
          },
          {
            "duration": 0.14705874999999935,
            "durationTicks": 30,
            "midi": 58,
            "name": "A#3",
            "ticks": 8730,
            "time": 42.79409625,
            "velocity": 0.7874015748031497
          },
          {
            "duration": 0.14705874999999935,
            "durationTicks": 30,
            "midi": 61,
            "name": "C#4",
            "ticks": 8760,
            "time": 42.941155,
            "velocity": 0.7874015748031497
          },
          {
            "duration": 0.14705874999999935,
            "durationTicks": 30,
            "midi": 58,
            "name": "A#3",
            "ticks": 8805,
            "time": 43.16174312500001,
            "velocity": 0.7874015748031497
          },
          {
            "duration": 0.14705874999999935,
            "durationTicks": 30,
            "midi": 58,
            "name": "A#3",
            "ticks": 8850,
            "time": 43.38233125000001,
            "velocity": 0.7874015748031497
          },
          {
            "duration": 0.14705874999999935,
            "durationTicks": 30,
            "midi": 61,
            "name": "C#4",
            "ticks": 8880,
            "time": 43.52939000000001,
            "velocity": 0.7874015748031497
          },
          {
            "duration": 0.14705874999999935,
            "durationTicks": 30,
            "midi": 58,
            "name": "A#3",
            "ticks": 8925,
            "time": 43.749978125000005,
            "velocity": 0.7874015748031497
          },
          {
            "duration": 0.14705874999999935,
            "durationTicks": 30,
            "midi": 58,
            "name": "A#3",
            "ticks": 8970,
            "time": 43.970566250000005,
            "velocity": 0.7874015748031497
          },
          {
            "duration": 0.14705874999999935,
            "durationTicks": 30,
            "midi": 61,
            "name": "C#4",
            "ticks": 9000,
            "time": 44.117625000000004,
            "velocity": 0.7874015748031497
          },
          {
            "duration": 0.14705874999999935,
            "durationTicks": 30,
            "midi": 58,
            "name": "A#3",
            "ticks": 9060,
            "time": 44.4117425,
            "velocity": 0.7874015748031497
          },
          {
            "duration": 0.2941174999999987,
            "durationTicks": 60,
            "midi": 53,
            "name": "F3",
            "ticks": 9180,
            "time": 44.99997750000001,
            "velocity": 0.7874015748031497
          },
          {
            "duration": 0.2941174999999987,
            "durationTicks": 60,
            "midi": 51,
            "name": "D#3",
            "ticks": 9240,
            "time": 45.294095000000006,
            "velocity": 0.7874015748031497
          },
          {
            "duration": 0.19607833333333957,
            "durationTicks": 40,
            "midi": 51,
            "name": "D#3",
            "ticks": 9368,
            "time": 45.92154566666667,
            "velocity": 0.7874015748031497
          },
          {
            "duration": 0.19607833333333247,
            "durationTicks": 40,
            "midi": 49,
            "name": "C#3",
            "ticks": 9407,
            "time": 46.11272204166667,
            "velocity": 0.7874015748031497
          },
          {
            "duration": 0.19607833333333247,
            "durationTicks": 40,
            "midi": 51,
            "name": "D#3",
            "ticks": 9440,
            "time": 46.274486666666675,
            "velocity": 0.7874015748031497
          },
          {
            "duration": 0.19607833333332536,
            "durationTicks": 40,
            "midi": 51,
            "name": "D#3",
            "ticks": 9480,
            "time": 46.47056500000001,
            "velocity": 0.7874015748031497
          },
          {
            "duration": 0.19607833333333957,
            "durationTicks": 40,
            "midi": 49,
            "name": "C#3",
            "ticks": 9520,
            "time": 46.66664333333333,
            "velocity": 0.7874015748031497
          },
          {
            "duration": 0.19607833333333247,
            "durationTicks": 40,
            "midi": 51,
            "name": "D#3",
            "ticks": 9560,
            "time": 46.86272166666667,
            "velocity": 0.7874015748031497
          },
          {
            "duration": 0.2941174999999987,
            "durationTicks": 60,
            "midi": 51,
            "name": "D#3",
            "ticks": 9600,
            "time": 47.058800000000005,
            "velocity": 0.7874015748031497
          },
          {
            "duration": 0.2941174999999987,
            "durationTicks": 60,
            "midi": 46,
            "name": "A#2",
            "ticks": 9660,
            "time": 47.352917500000004,
            "velocity": 0.7874015748031497
          },
          {
            "duration": 0.2941174999999987,
            "durationTicks": 60,
            "midi": 44,
            "name": "G#2",
            "ticks": 9765,
            "time": 47.86762312500001,
            "velocity": 0.7874015748031497
          },
          {
            "duration": 0.2941174999999987,
            "durationTicks": 60,
            "midi": 44,
            "name": "G#2",
            "ticks": 9800,
            "time": 48.039191666666675,
            "velocity": 0.7874015748031497
          },
          {
            "duration": 0.19607833333332536,
            "durationTicks": 40,
            "midi": 44,
            "name": "G#2",
            "ticks": 9840,
            "time": 48.23527000000001,
            "velocity": 0.7874015748031497
          },
          {
            "duration": 0.19607833333333957,
            "durationTicks": 40,
            "midi": 46,
            "name": "A#2",
            "ticks": 9880,
            "time": 48.43134833333333,
            "velocity": 0.7874015748031497
          },
          {
            "duration": 0.19607833333333247,
            "durationTicks": 40,
            "midi": 49,
            "name": "C#3",
            "ticks": 9920,
            "time": 48.62742666666667,
            "velocity": 0.7874015748031497
          },
          {
            "duration": 0.19607833333333247,
            "durationTicks": 40,
            "midi": 51,
            "name": "D#3",
            "ticks": 9960,
            "time": 48.823505000000004,
            "velocity": 0.7874015748031497
          },
          {
            "duration": 0.22058812499999902,
            "durationTicks": 45,
            "midi": 49,
            "name": "C#3",
            "ticks": 10020,
            "time": 49.1176225,
            "velocity": 0.7874015748031497
          },
          {
            "duration": 0.2941174999999987,
            "durationTicks": 60,
            "midi": 53,
            "name": "F3",
            "ticks": 10140,
            "time": 49.70585750000001,
            "velocity": 0.7874015748031497
          },
          {
            "duration": 0.2941174999999987,
            "durationTicks": 60,
            "midi": 51,
            "name": "D#3",
            "ticks": 10200,
            "time": 49.999975000000006,
            "velocity": 0.7874015748031497
          },
          {
            "duration": 0.19607833333333957,
            "durationTicks": 40,
            "midi": 51,
            "name": "D#3",
            "ticks": 10328,
            "time": 50.62742566666667,
            "velocity": 0.7874015748031497
          },
          {
            "duration": 0.19607833333333247,
            "durationTicks": 40,
            "midi": 49,
            "name": "C#3",
            "ticks": 10367,
            "time": 50.81860204166667,
            "velocity": 0.7874015748031497
          },
          {
            "duration": 0.19607833333333247,
            "durationTicks": 40,
            "midi": 51,
            "name": "D#3",
            "ticks": 10400,
            "time": 50.980366666666676,
            "velocity": 0.7874015748031497
          },
          {
            "duration": 0.19607833333332536,
            "durationTicks": 40,
            "midi": 51,
            "name": "D#3",
            "ticks": 10440,
            "time": 51.17644500000001,
            "velocity": 0.7874015748031497
          },
          {
            "duration": 0.19607833333333957,
            "durationTicks": 40,
            "midi": 49,
            "name": "C#3",
            "ticks": 10480,
            "time": 51.37252333333333,
            "velocity": 0.7874015748031497
          },
          {
            "duration": 0.19607833333333247,
            "durationTicks": 40,
            "midi": 51,
            "name": "D#3",
            "ticks": 10520,
            "time": 51.56860166666667,
            "velocity": 0.7874015748031497
          },
          {
            "duration": 0.2941174999999987,
            "durationTicks": 60,
            "midi": 51,
            "name": "D#3",
            "ticks": 10560,
            "time": 51.764680000000006,
            "velocity": 0.7874015748031497
          },
          {
            "duration": 0.2941174999999987,
            "durationTicks": 60,
            "midi": 46,
            "name": "A#2",
            "ticks": 10620,
            "time": 52.058797500000004,
            "velocity": 0.7874015748031497
          },
          {
            "duration": 0.2941174999999987,
            "durationTicks": 60,
            "midi": 44,
            "name": "G#2",
            "ticks": 10725,
            "time": 52.57350312500001,
            "velocity": 0.7874015748031497
          },
          {
            "duration": 0.2941174999999987,
            "durationTicks": 60,
            "midi": 44,
            "name": "G#2",
            "ticks": 10760,
            "time": 52.745071666666675,
            "velocity": 0.7874015748031497
          },
          {
            "duration": 0.19607833333332536,
            "durationTicks": 40,
            "midi": 44,
            "name": "G#2",
            "ticks": 10800,
            "time": 52.94115000000001,
            "velocity": 0.7874015748031497
          },
          {
            "duration": 0.19607833333333957,
            "durationTicks": 40,
            "midi": 46,
            "name": "A#2",
            "ticks": 10840,
            "time": 53.13722833333333,
            "velocity": 0.7874015748031497
          },
          {
            "duration": 0.19607833333333247,
            "durationTicks": 40,
            "midi": 49,
            "name": "C#3",
            "ticks": 10880,
            "time": 53.33330666666667,
            "velocity": 0.7874015748031497
          },
          {
            "duration": 0.19607833333333247,
            "durationTicks": 40,
            "midi": 51,
            "name": "D#3",
            "ticks": 10920,
            "time": 53.529385000000005,
            "velocity": 0.7874015748031497
          },
          {
            "duration": 0.22058812499999902,
            "durationTicks": 45,
            "midi": 49,
            "name": "C#3",
            "ticks": 10980,
            "time": 53.823502500000004,
            "velocity": 0.7874015748031497
          },
          {
            "duration": 0.14705874999999935,
            "durationTicks": 30,
            "midi": 53,
            "name": "F3",
            "ticks": 11070,
            "time": 54.26467875000001,
            "velocity": 0.7874015748031497
          },
          {
            "duration": 0.14705874999999935,
            "durationTicks": 30,
            "midi": 53,
            "name": "F3",
            "ticks": 11100,
            "time": 54.41173750000001,
            "velocity": 0.7874015748031497
          },
          {
            "duration": 0.14705874999999935,
            "durationTicks": 30,
            "midi": 53,
            "name": "F3",
            "ticks": 11130,
            "time": 54.55879625000001,
            "velocity": 0.7874015748031497
          },
          {
            "duration": 0.14705874999999935,
            "durationTicks": 30,
            "midi": 56,
            "name": "G#3",
            "ticks": 11160,
            "time": 54.70585500000001,
            "velocity": 0.7874015748031497
          },
          {
            "duration": 0.14705874999999935,
            "durationTicks": 30,
            "midi": 53,
            "name": "F3",
            "ticks": 11190,
            "time": 54.852913750000006,
            "velocity": 0.7874015748031497
          },
          {
            "duration": 0.14705874999999935,
            "durationTicks": 30,
            "midi": 51,
            "name": "D#3",
            "ticks": 11220,
            "time": 54.999972500000005,
            "velocity": 0.7874015748031497
          },
          {
            "duration": 0.14705874999999935,
            "durationTicks": 30,
            "midi": 49,
            "name": "C#3",
            "ticks": 11250,
            "time": 55.147031250000005,
            "velocity": 0.7874015748031497
          },
          {
            "duration": 0.14705874999999935,
            "durationTicks": 30,
            "midi": 51,
            "name": "D#3",
            "ticks": 11280,
            "time": 55.294090000000004,
            "velocity": 0.7874015748031497
          },
          {
            "duration": 0.14705874999999935,
            "durationTicks": 30,
            "midi": 51,
            "name": "D#3",
            "ticks": 11370,
            "time": 55.73526625000001,
            "velocity": 0.7874015748031497
          },
          {
            "duration": 0.14705874999999935,
            "durationTicks": 30,
            "midi": 53,
            "name": "F3",
            "ticks": 11400,
            "time": 55.88232500000001,
            "velocity": 0.7874015748031497
          },
          {
            "duration": 0.14705874999999935,
            "durationTicks": 30,
            "midi": 51,
            "name": "D#3",
            "ticks": 11430,
            "time": 56.02938375000001,
            "velocity": 0.7874015748031497
          },
          {
            "duration": 0.14705874999999935,
            "durationTicks": 30,
            "midi": 49,
            "name": "C#3",
            "ticks": 11460,
            "time": 56.17644250000001,
            "velocity": 0.7874015748031497
          },
          {
            "duration": 0.14705874999999935,
            "durationTicks": 30,
            "midi": 48,
            "name": "C3",
            "ticks": 11490,
            "time": 56.32350125000001,
            "velocity": 0.7874015748031497
          },
          {
            "duration": 0.14705874999999935,
            "durationTicks": 30,
            "midi": 46,
            "name": "A#2",
            "ticks": 11520,
            "time": 56.470560000000006,
            "velocity": 0.7874015748031497
          },
          {
            "duration": 0.14705874999999935,
            "durationTicks": 30,
            "midi": 53,
            "name": "F3",
            "ticks": 11565,
            "time": 56.691148125000005,
            "velocity": 0.7874015748031497
          },
          {
            "duration": 0.2941174999999987,
            "durationTicks": 60,
            "midi": 53,
            "name": "F3",
            "ticks": 11610,
            "time": 56.911736250000004,
            "velocity": 0.7874015748031497
          },
          {
            "duration": 0.14705874999999935,
            "durationTicks": 30,
            "midi": 49,
            "name": "C#3",
            "ticks": 11730,
            "time": 57.49997125000001,
            "velocity": 0.7874015748031497
          },
          {
            "duration": 0.14705874999999935,
            "durationTicks": 30,
            "midi": 49,
            "name": "C#3",
            "ticks": 11760,
            "time": 57.64703000000001,
            "velocity": 0.7874015748031497
          },
          {
            "duration": 0.14705874999999935,
            "durationTicks": 30,
            "midi": 48,
            "name": "C3",
            "ticks": 11790,
            "time": 57.79408875000001,
            "velocity": 0.7874015748031497
          },
          {
            "duration": 0.14705874999999935,
            "durationTicks": 30,
            "midi": 46,
            "name": "A#2",
            "ticks": 11820,
            "time": 57.94114750000001,
            "velocity": 0.7874015748031497
          },
          {
            "duration": 0.14705874999999935,
            "durationTicks": 30,
            "midi": 48,
            "name": "C3",
            "ticks": 11850,
            "time": 58.088206250000006,
            "velocity": 0.7874015748031497
          },
          {
            "duration": 0.14705874999999935,
            "durationTicks": 30,
            "midi": 49,
            "name": "C#3",
            "ticks": 11880,
            "time": 58.235265000000005,
            "velocity": 0.7874015748031497
          },
          {
            "duration": 0.14705874999999935,
            "durationTicks": 30,
            "midi": 48,
            "name": "C3",
            "ticks": 11910,
            "time": 58.382323750000005,
            "velocity": 0.7874015748031497
          },
          {
            "duration": 0.14705874999999935,
            "durationTicks": 30,
            "midi": 46,
            "name": "A#2",
            "ticks": 11940,
            "time": 58.529382500000004,
            "velocity": 0.7874015748031497
          },
          {
            "duration": 0.14705874999999935,
            "durationTicks": 30,
            "midi": 53,
            "name": "F3",
            "ticks": 12030,
            "time": 58.97055875000001,
            "velocity": 0.7874015748031497
          },
          {
            "duration": 0.14705874999999935,
            "durationTicks": 30,
            "midi": 53,
            "name": "F3",
            "ticks": 12060,
            "time": 59.11761750000001,
            "velocity": 0.7874015748031497
          },
          {
            "duration": 0.14705874999999935,
            "durationTicks": 30,
            "midi": 53,
            "name": "F3",
            "ticks": 12090,
            "time": 59.26467625000001,
            "velocity": 0.7874015748031497
          },
          {
            "duration": 0.14705874999999935,
            "durationTicks": 30,
            "midi": 56,
            "name": "G#3",
            "ticks": 12120,
            "time": 59.41173500000001,
            "velocity": 0.7874015748031497
          },
          {
            "duration": 0.14705874999999935,
            "durationTicks": 30,
            "midi": 53,
            "name": "F3",
            "ticks": 12150,
            "time": 59.55879375000001,
            "velocity": 0.7874015748031497
          },
          {
            "duration": 0.14705874999999935,
            "durationTicks": 30,
            "midi": 51,
            "name": "D#3",
            "ticks": 12180,
            "time": 59.705852500000006,
            "velocity": 0.7874015748031497
          },
          {
            "duration": 0.14705874999999935,
            "durationTicks": 30,
            "midi": 49,
            "name": "C#3",
            "ticks": 12210,
            "time": 59.852911250000005,
            "velocity": 0.7874015748031497
          },
          {
            "duration": 0.14705874999999935,
            "durationTicks": 30,
            "midi": 51,
            "name": "D#3",
            "ticks": 12240,
            "time": 59.999970000000005,
            "velocity": 0.7874015748031497
          },
          {
            "duration": 0.14705875000000646,
            "durationTicks": 30,
            "midi": 51,
            "name": "D#3",
            "ticks": 12300,
            "time": 60.2940875,
            "velocity": 0.7874015748031497
          },
          {
            "duration": 0.14705874999999935,
            "durationTicks": 30,
            "midi": 51,
            "name": "D#3",
            "ticks": 12330,
            "time": 60.44114625000001,
            "velocity": 0.7874015748031497
          },
          {
            "duration": 0.14705874999999935,
            "durationTicks": 30,
            "midi": 49,
            "name": "C#3",
            "ticks": 12360,
            "time": 60.58820500000001,
            "velocity": 0.7874015748031497
          },
          {
            "duration": 0.14705874999999935,
            "durationTicks": 30,
            "midi": 48,
            "name": "C3",
            "ticks": 12390,
            "time": 60.73526375000001,
            "velocity": 0.7874015748031497
          },
          {
            "duration": 0.14705874999999935,
            "durationTicks": 30,
            "midi": 46,
            "name": "A#2",
            "ticks": 12420,
            "time": 60.88232250000001,
            "velocity": 0.7874015748031497
          },
          {
            "duration": 0.14705874999999935,
            "durationTicks": 30,
            "midi": 48,
            "name": "C3",
            "ticks": 12450,
            "time": 61.02938125000001,
            "velocity": 0.7874015748031497
          },
          {
            "duration": 0.14705874999999935,
            "durationTicks": 30,
            "midi": 49,
            "name": "C#3",
            "ticks": 12480,
            "time": 61.17644000000001,
            "velocity": 0.7874015748031497
          },
          {
            "duration": 0.14705874999999935,
            "durationTicks": 30,
            "midi": 48,
            "name": "C3",
            "ticks": 12510,
            "time": 61.323498750000006,
            "velocity": 0.7874015748031497
          },
          {
            "duration": 0.14705874999999935,
            "durationTicks": 30,
            "midi": 46,
            "name": "A#2",
            "ticks": 12540,
            "time": 61.470557500000005,
            "velocity": 0.7874015748031497
          },
          {
            "duration": 0.14705874999999935,
            "durationTicks": 30,
            "midi": 46,
            "name": "A#2",
            "ticks": 12690,
            "time": 62.20585125000001,
            "velocity": 0.7874015748031497
          },
          {
            "duration": 0.14705874999999935,
            "durationTicks": 30,
            "midi": 49,
            "name": "C#3",
            "ticks": 12720,
            "time": 62.35291000000001,
            "velocity": 0.7874015748031497
          },
          {
            "duration": 0.14705874999999935,
            "durationTicks": 30,
            "midi": 48,
            "name": "C3",
            "ticks": 12750,
            "time": 62.49996875000001,
            "velocity": 0.7874015748031497
          },
          {
            "duration": 0.14705874999999935,
            "durationTicks": 30,
            "midi": 46,
            "name": "A#2",
            "ticks": 12780,
            "time": 62.64702750000001,
            "velocity": 0.7874015748031497
          },
          {
            "duration": 0.14705874999999935,
            "durationTicks": 30,
            "midi": 48,
            "name": "C3",
            "ticks": 12810,
            "time": 62.79408625000001,
            "velocity": 0.7874015748031497
          },
          {
            "duration": 0.14705874999999935,
            "durationTicks": 30,
            "midi": 49,
            "name": "C#3",
            "ticks": 12840,
            "time": 62.941145000000006,
            "velocity": 0.7874015748031497
          },
          {
            "duration": 0.14705874999999935,
            "durationTicks": 30,
            "midi": 48,
            "name": "C3",
            "ticks": 12870,
            "time": 63.088203750000005,
            "velocity": 0.7874015748031497
          },
          {
            "duration": 0.14705874999999935,
            "durationTicks": 30,
            "midi": 46,
            "name": "A#2",
            "ticks": 12900,
            "time": 63.235262500000005,
            "velocity": 0.7874015748031497
          },
          {
            "duration": 0.14705875000000646,
            "durationTicks": 30,
            "midi": 58,
            "name": "A#3",
            "ticks": 12930,
            "time": 63.382321250000004,
            "velocity": 0.7874015748031497
          },
          {
            "duration": 0.14705874999999935,
            "durationTicks": 30,
            "midi": 65,
            "name": "F4",
            "ticks": 12960,
            "time": 63.52938000000001,
            "velocity": 0.7874015748031497
          },
          {
            "duration": 0.14705874999999935,
            "durationTicks": 30,
            "midi": 65,
            "name": "F4",
            "ticks": 12990,
            "time": 63.67643875000001,
            "velocity": 0.7874015748031497
          },
          {
            "duration": 0.14705874999999935,
            "durationTicks": 30,
            "midi": 65,
            "name": "F4",
            "ticks": 13020,
            "time": 63.82349750000001,
            "velocity": 0.7874015748031497
          },
          {
            "duration": 0.14705874999999224,
            "durationTicks": 30,
            "midi": 65,
            "name": "F4",
            "ticks": 13050,
            "time": 63.97055625000001,
            "velocity": 0.7874015748031497
          },
          {
            "duration": 0.14705875000001356,
            "durationTicks": 30,
            "midi": 65,
            "name": "F4",
            "ticks": 13080,
            "time": 64.117615,
            "velocity": 0.7874015748031497
          },
          {
            "duration": 0.14705874999998514,
            "durationTicks": 30,
            "midi": 63,
            "name": "D#4",
            "ticks": 13110,
            "time": 64.26467375000001,
            "velocity": 0.7874015748031497
          },
          {
            "duration": 0.14705875000001356,
            "durationTicks": 30,
            "midi": 61,
            "name": "C#4",
            "ticks": 13140,
            "time": 64.4117325,
            "velocity": 0.7874015748031497
          },
          {
            "duration": 0.14705874999998514,
            "durationTicks": 30,
            "midi": 63,
            "name": "D#4",
            "ticks": 13170,
            "time": 64.55879125000001,
            "velocity": 0.7874015748031497
          },
          {
            "duration": 0.2941174999999987,
            "durationTicks": 60,
            "midi": 65,
            "name": "F4",
            "ticks": 13200,
            "time": 64.70585,
            "velocity": 0.7874015748031497
          },
          {
            "duration": 0.2941175000000129,
            "durationTicks": 60,
            "midi": 68,
            "name": "G#4",
            "ticks": 13260,
            "time": 64.9999675,
            "velocity": 0.7874015748031497
          },
          {
            "duration": 0.2941174999999987,
            "durationTicks": 60,
            "midi": 68,
            "name": "G#4",
            "ticks": 13320,
            "time": 65.29408500000001,
            "velocity": 0.7874015748031497
          },
          {
            "duration": 0.14705874999999935,
            "durationTicks": 30,
            "midi": 63,
            "name": "D#4",
            "ticks": 13470,
            "time": 66.02937875,
            "velocity": 0.7874015748031497
          },
          {
            "duration": 0.14705874999999935,
            "durationTicks": 30,
            "midi": 63,
            "name": "D#4",
            "ticks": 13500,
            "time": 66.1764375,
            "velocity": 0.7874015748031497
          },
          {
            "duration": 0.14705874999999935,
            "durationTicks": 30,
            "midi": 63,
            "name": "D#4",
            "ticks": 13530,
            "time": 66.32349625,
            "velocity": 0.7874015748031497
          },
          {
            "duration": 0.14705874999999935,
            "durationTicks": 30,
            "midi": 63,
            "name": "D#4",
            "ticks": 13560,
            "time": 66.470555,
            "velocity": 0.7874015748031497
          },
          {
            "duration": 0.14705875000001356,
            "durationTicks": 30,
            "midi": 61,
            "name": "C#4",
            "ticks": 13590,
            "time": 66.61761375,
            "velocity": 0.7874015748031497
          },
          {
            "duration": 0.14705874999998514,
            "durationTicks": 30,
            "midi": 61,
            "name": "C#4",
            "ticks": 13620,
            "time": 66.76467250000002,
            "velocity": 0.7874015748031497
          },
          {
            "duration": 0.14705875000001356,
            "durationTicks": 30,
            "midi": 63,
            "name": "D#4",
            "ticks": 13650,
            "time": 66.91173125,
            "velocity": 0.7874015748031497
          },
          {
            "duration": 0.2941174999999987,
            "durationTicks": 60,
            "midi": 65,
            "name": "F4",
            "ticks": 13680,
            "time": 67.05879000000002,
            "velocity": 0.7874015748031497
          },
          {
            "duration": 0.2941174999999987,
            "durationTicks": 60,
            "midi": 68,
            "name": "G#4",
            "ticks": 13740,
            "time": 67.35290750000001,
            "velocity": 0.7874015748031497
          },
          {
            "duration": 0.2941174999999987,
            "durationTicks": 60,
            "midi": 68,
            "name": "G#4",
            "ticks": 13800,
            "time": 67.64702500000001,
            "velocity": 0.7874015748031497
          },
          {
            "duration": 0.14705874999999935,
            "durationTicks": 30,
            "midi": 63,
            "name": "D#4",
            "ticks": 13950,
            "time": 68.38231875000001,
            "velocity": 0.7874015748031497
          },
          {
            "duration": 0.14705874999999935,
            "durationTicks": 30,
            "midi": 63,
            "name": "D#4",
            "ticks": 13980,
            "time": 68.52937750000001,
            "velocity": 0.7874015748031497
          },
          {
            "duration": 0.14705874999999935,
            "durationTicks": 30,
            "midi": 65,
            "name": "F4",
            "ticks": 14010,
            "time": 68.67643625000001,
            "velocity": 0.7874015748031497
          },
          {
            "duration": 0.2941174999999987,
            "durationTicks": 60,
            "midi": 63,
            "name": "D#4",
            "ticks": 14040,
            "time": 68.82349500000001,
            "velocity": 0.7874015748031497
          },
          {
            "duration": 0.2941174999999987,
            "durationTicks": 60,
            "midi": 61,
            "name": "C#4",
            "ticks": 14100,
            "time": 69.1176125,
            "velocity": 0.7874015748031497
          },
          {
            "duration": 0.14705874999998514,
            "durationTicks": 30,
            "midi": 65,
            "name": "F4",
            "ticks": 14250,
            "time": 69.85290625000002,
            "velocity": 0.7874015748031497
          },
          {
            "duration": 0.2941174999999987,
            "durationTicks": 60,
            "midi": 63,
            "name": "D#4",
            "ticks": 14280,
            "time": 69.999965,
            "velocity": 0.7874015748031497
          },
          {
            "duration": 0.2941174999999987,
            "durationTicks": 60,
            "midi": 61,
            "name": "C#4",
            "ticks": 14340,
            "time": 70.2940825,
            "velocity": 0.7874015748031497
          },
          {
            "duration": 0.14705874999998514,
            "durationTicks": 30,
            "midi": 65,
            "name": "F4",
            "ticks": 14490,
            "time": 71.02937625000001,
            "velocity": 0.7874015748031497
          },
          {
            "duration": 0.2941174999999987,
            "durationTicks": 60,
            "midi": 63,
            "name": "D#4",
            "ticks": 14520,
            "time": 71.176435,
            "velocity": 0.7874015748031497
          },
          {
            "duration": 0.2941174999999987,
            "durationTicks": 60,
            "midi": 61,
            "name": "C#4",
            "ticks": 14580,
            "time": 71.4705525,
            "velocity": 0.7874015748031497
          },
          {
            "duration": 0.14705874999998514,
            "durationTicks": 30,
            "midi": 46,
            "name": "A#2",
            "ticks": 14610,
            "time": 71.61761125000001,
            "velocity": 0.7874015748031497
          },
          {
            "duration": 0.14705875000001356,
            "durationTicks": 30,
            "midi": 48,
            "name": "C3",
            "ticks": 14640,
            "time": 71.76467,
            "velocity": 0.7874015748031497
          },
          {
            "duration": 0.2941174999999987,
            "durationTicks": 60,
            "midi": 49,
            "name": "C#3",
            "ticks": 14670,
            "time": 71.91172875000001,
            "velocity": 0.7874015748031497
          },
          {
            "duration": 0.14705875000001356,
            "durationTicks": 30,
            "midi": 46,
            "name": "A#2",
            "ticks": 14730,
            "time": 72.20584625000001,
            "velocity": 0.7874015748031497
          },
          {
            "duration": 0.14705875000001356,
            "durationTicks": 30,
            "midi": 65,
            "name": "F4",
            "ticks": 14730,
            "time": 72.20584625000001,
            "velocity": 0.7874015748031497
          },
          {
            "duration": 0.2941174999999987,
            "durationTicks": 60,
            "midi": 49,
            "name": "C#3",
            "ticks": 14760,
            "time": 72.35290500000002,
            "velocity": 0.7874015748031497
          },
          {
            "duration": 0.2941174999999987,
            "durationTicks": 60,
            "midi": 63,
            "name": "D#4",
            "ticks": 14760,
            "time": 72.35290500000002,
            "velocity": 0.7874015748031497
          },
          {
            "duration": 0.2941174999999987,
            "durationTicks": 60,
            "midi": 46,
            "name": "A#2",
            "ticks": 14820,
            "time": 72.64702250000002,
            "velocity": 0.7874015748031497
          },
          {
            "duration": 0.2941174999999987,
            "durationTicks": 60,
            "midi": 61,
            "name": "C#4",
            "ticks": 14820,
            "time": 72.64702250000002,
            "velocity": 0.7874015748031497
          },
          {
            "duration": 0.2941174999999987,
            "durationTicks": 60,
            "midi": 65,
            "name": "F4",
            "ticks": 14940,
            "time": 73.23525750000002,
            "velocity": 0.7874015748031497
          },
          {
            "duration": 0.14705874999998514,
            "durationTicks": 30,
            "midi": 63,
            "name": "D#4",
            "ticks": 15000,
            "time": 73.52937500000002,
            "velocity": 0.7874015748031497
          },
          {
            "duration": 0.14705875000001356,
            "durationTicks": 30,
            "midi": 61,
            "name": "C#4",
            "ticks": 15030,
            "time": 73.67643375,
            "velocity": 0.7874015748031497
          },
          {
            "duration": 0.14705874999998514,
            "durationTicks": 30,
            "midi": 61,
            "name": "C#4",
            "ticks": 15060,
            "time": 73.82349250000001,
            "velocity": 0.7874015748031497
          },
          {
            "duration": 0.14705875000001356,
            "durationTicks": 30,
            "midi": 63,
            "name": "D#4",
            "ticks": 15090,
            "time": 73.97055125,
            "velocity": 0.7874015748031497
          },
          {
            "duration": 0.14705874999998514,
            "durationTicks": 30,
            "midi": 65,
            "name": "F4",
            "ticks": 15120,
            "time": 74.11761000000001,
            "velocity": 0.7874015748031497
          },
          {
            "duration": 0.2941174999999987,
            "durationTicks": 60,
            "midi": 68,
            "name": "G#4",
            "ticks": 15180,
            "time": 74.41172750000001,
            "velocity": 0.7874015748031497
          },
          {
            "duration": 0.2941174999999987,
            "durationTicks": 60,
            "midi": 68,
            "name": "G#4",
            "ticks": 15240,
            "time": 74.70584500000001,
            "velocity": 0.7874015748031497
          },
          {
            "duration": 0.2941174999999987,
            "durationTicks": 60,
            "midi": 70,
            "name": "A#4",
            "ticks": 15420,
            "time": 75.5881975,
            "velocity": 0.7874015748031497
          },
          {
            "duration": 0.2941174999999987,
            "durationTicks": 60,
            "midi": 68,
            "name": "G#4",
            "ticks": 15480,
            "time": 75.882315,
            "velocity": 0.7874015748031497
          },
          {
            "duration": 0.14705874999998514,
            "durationTicks": 30,
            "midi": 65,
            "name": "F4",
            "ticks": 15570,
            "time": 76.32349125000002,
            "velocity": 0.7874015748031497
          },
          {
            "duration": 0.14705875000001356,
            "durationTicks": 30,
            "midi": 68,
            "name": "G#4",
            "ticks": 15600,
            "time": 76.47055,
            "velocity": 0.7874015748031497
          },
          {
            "duration": 0.14705874999998514,
            "durationTicks": 30,
            "midi": 65,
            "name": "F4",
            "ticks": 15630,
            "time": 76.61760875000002,
            "velocity": 0.7874015748031497
          },
          {
            "duration": 0.14705875000001356,
            "durationTicks": 30,
            "midi": 63,
            "name": "D#4",
            "ticks": 15660,
            "time": 76.7646675,
            "velocity": 0.7874015748031497
          },
          {
            "duration": 0.14705874999998514,
            "durationTicks": 30,
            "midi": 65,
            "name": "F4",
            "ticks": 15690,
            "time": 76.91172625000002,
            "velocity": 0.7874015748031497
          },
          {
            "duration": 0.2941174999999987,
            "durationTicks": 60,
            "midi": 61,
            "name": "C#4",
            "ticks": 15720,
            "time": 77.058785,
            "velocity": 0.7874015748031497
          },
          {
            "duration": 0.14705874999998514,
            "durationTicks": 30,
            "midi": 65,
            "name": "F4",
            "ticks": 15930,
            "time": 78.08819625000001,
            "velocity": 0.7874015748031497
          },
          {
            "duration": 0.2941175000000271,
            "durationTicks": 60,
            "midi": 63,
            "name": "D#4",
            "ticks": 15960,
            "time": 78.235255,
            "velocity": 0.7874015748031497
          },
          {
            "duration": 0.2941174999999987,
            "durationTicks": 60,
            "midi": 61,
            "name": "C#4",
            "ticks": 16020,
            "time": 78.52937250000002,
            "velocity": 0.7874015748031497
          },
          {
            "duration": 0.14705875000001356,
            "durationTicks": 30,
            "midi": 65,
            "name": "F4",
            "ticks": 16170,
            "time": 79.26466625,
            "velocity": 0.7874015748031497
          },
          {
            "duration": 0.14705874999998514,
            "durationTicks": 30,
            "midi": 66,
            "name": "F#4",
            "ticks": 16200,
            "time": 79.41172500000002,
            "velocity": 0.7874015748031497
          },
          {
            "duration": 0.14705875000001356,
            "durationTicks": 30,
            "midi": 65,
            "name": "F4",
            "ticks": 16230,
            "time": 79.55878375,
            "velocity": 0.7874015748031497
          },
          {
            "duration": 0.2941174999999987,
            "durationTicks": 60,
            "midi": 63,
            "name": "D#4",
            "ticks": 16260,
            "time": 79.70584250000002,
            "velocity": 0.7874015748031497
          },
          {
            "duration": 0.2941174999999987,
            "durationTicks": 60,
            "midi": 63,
            "name": "D#4",
            "ticks": 16440,
            "time": 80.58819500000001,
            "velocity": 0.7874015748031497
          },
          {
            "duration": 0.14705874999998514,
            "durationTicks": 30,
            "midi": 63,
            "name": "D#4",
            "ticks": 16500,
            "time": 80.88231250000001,
            "velocity": 0.7874015748031497
          },
          {
            "duration": 0.14705875000001356,
            "durationTicks": 30,
            "midi": 63,
            "name": "D#4",
            "ticks": 16530,
            "time": 81.02937125,
            "velocity": 0.7874015748031497
          },
          {
            "duration": 0.2941174999999987,
            "durationTicks": 60,
            "midi": 63,
            "name": "D#4",
            "ticks": 16560,
            "time": 81.17643000000001,
            "velocity": 0.7874015748031497
          },
          {
            "duration": 0.14705875000001356,
            "durationTicks": 30,
            "midi": 63,
            "name": "D#4",
            "ticks": 16620,
            "time": 81.47054750000001,
            "velocity": 0.7874015748031497
          },
          {
            "duration": 0.14705874999998514,
            "durationTicks": 30,
            "midi": 63,
            "name": "D#4",
            "ticks": 16650,
            "time": 81.61760625000002,
            "velocity": 0.7874015748031497
          },
          {
            "duration": 0.2941174999999987,
            "durationTicks": 60,
            "midi": 63,
            "name": "D#4",
            "ticks": 16680,
            "time": 81.76466500000001,
            "velocity": 0.7874015748031497
          },
          {
            "duration": 0.2941174999999987,
            "durationTicks": 60,
            "midi": 58,
            "name": "A#3",
            "ticks": 16740,
            "time": 82.0587825,
            "velocity": 0.7874015748031497
          },
          {
            "duration": 0.2941174999999987,
            "durationTicks": 60,
            "midi": 70,
            "name": "A#4",
            "ticks": 16920,
            "time": 82.941135,
            "velocity": 0.7874015748031497
          },
          {
            "duration": 0.14705875000001356,
            "durationTicks": 30,
            "midi": 68,
            "name": "G#4",
            "ticks": 17040,
            "time": 83.52937,
            "velocity": 0.7874015748031497
          },
          {
            "duration": 0.14705875000001356,
            "durationTicks": 30,
            "midi": 70,
            "name": "A#4",
            "ticks": 17100,
            "time": 83.8234875,
            "velocity": 0.7874015748031497
          },
          {
            "duration": 0.14705874999998514,
            "durationTicks": 30,
            "midi": 68,
            "name": "G#4",
            "ticks": 17130,
            "time": 83.97054625000001,
            "velocity": 0.7874015748031497
          },
          {
            "duration": 0.14705874999998514,
            "durationTicks": 30,
            "midi": 68,
            "name": "G#4",
            "ticks": 17190,
            "time": 84.26466375000001,
            "velocity": 0.7874015748031497
          },
          {
            "duration": 0.14705875000001356,
            "durationTicks": 30,
            "midi": 68,
            "name": "G#4",
            "ticks": 17220,
            "time": 84.4117225,
            "velocity": 0.7874015748031497
          },
          {
            "duration": 0.14705875000001356,
            "durationTicks": 30,
            "midi": 68,
            "name": "G#4",
            "ticks": 17250,
            "time": 84.55878125000001,
            "velocity": 0.7874015748031497
          },
          {
            "duration": 0.19607833333333247,
            "durationTicks": 40,
            "midi": 65,
            "name": "F4",
            "ticks": 17280,
            "time": 84.70584000000002,
            "velocity": 0.7874015748031497
          },
          {
            "duration": 0.19607833333333247,
            "durationTicks": 40,
            "midi": 68,
            "name": "G#4",
            "ticks": 17340,
            "time": 84.99995750000002,
            "velocity": 0.7874015748031497
          },
          {
            "duration": 0.2941174999999987,
            "durationTicks": 60,
            "midi": 65,
            "name": "F4",
            "ticks": 17400,
            "time": 85.29407500000002,
            "velocity": 0.7874015748031497
          },
          {
            "duration": 0.14705874999998514,
            "durationTicks": 30,
            "midi": 65,
            "name": "F4",
            "ticks": 17460,
            "time": 85.58819250000002,
            "velocity": 0.7874015748031497
          },
          {
            "duration": 0.14705875000001356,
            "durationTicks": 30,
            "midi": 65,
            "name": "F4",
            "ticks": 17490,
            "time": 85.73525125,
            "velocity": 0.7874015748031497
          },
          {
            "duration": 0.14705874999998514,
            "durationTicks": 30,
            "midi": 63,
            "name": "D#4",
            "ticks": 17520,
            "time": 85.88231000000002,
            "velocity": 0.7874015748031497
          },
          {
            "duration": 0.14705875000001356,
            "durationTicks": 30,
            "midi": 63,
            "name": "D#4",
            "ticks": 17550,
            "time": 86.02936875,
            "velocity": 0.7874015748031497
          },
          {
            "duration": 0.14705874999998514,
            "durationTicks": 30,
            "midi": 65,
            "name": "F4",
            "ticks": 17580,
            "time": 86.17642750000002,
            "velocity": 0.7874015748031497
          },
          {
            "duration": 0.14705875000001356,
            "durationTicks": 30,
            "midi": 63,
            "name": "D#4",
            "ticks": 17610,
            "time": 86.32348625,
            "velocity": 0.7874015748031497
          },
          {
            "duration": 0.14705875000001356,
            "durationTicks": 30,
            "midi": 61,
            "name": "C#4",
            "ticks": 17670,
            "time": 86.61760375,
            "velocity": 0.7874015748031497
          },
          {
            "duration": 0.14705874999998514,
            "durationTicks": 30,
            "midi": 58,
            "name": "A#3",
            "ticks": 17700,
            "time": 86.76466250000001,
            "velocity": 0.7874015748031497
          },
          {
            "duration": 0.14705874999998514,
            "durationTicks": 30,
            "midi": 58,
            "name": "A#3",
            "ticks": 17820,
            "time": 87.35289750000001,
            "velocity": 0.7874015748031497
          },
          {
            "duration": 0.14705875000001356,
            "durationTicks": 30,
            "midi": 58,
            "name": "A#3",
            "ticks": 17850,
            "time": 87.49995625,
            "velocity": 0.7874015748031497
          },
          {
            "duration": 0.14705874999998514,
            "durationTicks": 30,
            "midi": 58,
            "name": "A#3",
            "ticks": 17880,
            "time": 87.64701500000001,
            "velocity": 0.7874015748031497
          },
          {
            "duration": 0.14705875000001356,
            "durationTicks": 30,
            "midi": 56,
            "name": "G#3",
            "ticks": 17940,
            "time": 87.94113250000001,
            "velocity": 0.7874015748031497
          },
          {
            "duration": 0.14705875000001356,
            "durationTicks": 30,
            "midi": 56,
            "name": "G#3",
            "ticks": 18060,
            "time": 88.5293675,
            "velocity": 0.7874015748031497
          },
          {
            "duration": 0.14705875000001356,
            "durationTicks": 30,
            "midi": 60,
            "name": "C4",
            "ticks": 18094,
            "time": 88.69603408333333,
            "velocity": 0.7874015748031497
          },
          {
            "duration": 0.14705875000001356,
            "durationTicks": 30,
            "midi": 58,
            "name": "A#3",
            "ticks": 18180,
            "time": 89.1176025,
            "velocity": 0.7874015748031497
          },
          {
            "duration": 0.14705875000001356,
            "durationTicks": 30,
            "midi": 58,
            "name": "A#3",
            "ticks": 18300,
            "time": 89.7058375,
            "velocity": 0.7874015748031497
          },
          {
            "duration": 0.14705874999998514,
            "durationTicks": 30,
            "midi": 58,
            "name": "A#3",
            "ticks": 18330,
            "time": 89.85289625000001,
            "velocity": 0.7874015748031497
          },
          {
            "duration": 0.14705875000001356,
            "durationTicks": 30,
            "midi": 61,
            "name": "C#4",
            "ticks": 18360,
            "time": 89.999955,
            "velocity": 0.7874015748031497
          },
          {
            "duration": 0.14705875000001356,
            "durationTicks": 30,
            "midi": 58,
            "name": "A#3",
            "ticks": 18405,
            "time": 90.220543125,
            "velocity": 0.7874015748031497
          },
          {
            "duration": 0.14705874999998514,
            "durationTicks": 30,
            "midi": 58,
            "name": "A#3",
            "ticks": 18450,
            "time": 90.44113125000001,
            "velocity": 0.7874015748031497
          },
          {
            "duration": 0.14705875000001356,
            "durationTicks": 30,
            "midi": 61,
            "name": "C#4",
            "ticks": 18480,
            "time": 90.58819,
            "velocity": 0.7874015748031497
          },
          {
            "duration": 0.14705875000001356,
            "durationTicks": 30,
            "midi": 58,
            "name": "A#3",
            "ticks": 18525,
            "time": 90.808778125,
            "velocity": 0.7874015748031497
          },
          {
            "duration": 0.14705875000001356,
            "durationTicks": 30,
            "midi": 58,
            "name": "A#3",
            "ticks": 18570,
            "time": 91.02936625000001,
            "velocity": 0.7874015748031497
          },
          {
            "duration": 0.14705874999998514,
            "durationTicks": 30,
            "midi": 61,
            "name": "C#4",
            "ticks": 18600,
            "time": 91.17642500000002,
            "velocity": 0.7874015748031497
          },
          {
            "duration": 0.14705874999998514,
            "durationTicks": 30,
            "midi": 58,
            "name": "A#3",
            "ticks": 18660,
            "time": 91.47054250000002,
            "velocity": 0.7874015748031497
          },
          {
            "duration": 0.14705875000001356,
            "durationTicks": 30,
            "midi": 70,
            "name": "A#4",
            "ticks": 18870,
            "time": 92.49995375,
            "velocity": 0.7874015748031497
          },
          {
            "duration": 0.14705874999998514,
            "durationTicks": 30,
            "midi": 70,
            "name": "A#4",
            "ticks": 18900,
            "time": 92.64701250000002,
            "velocity": 0.7874015748031497
          },
          {
            "duration": 0.14705875000001356,
            "durationTicks": 30,
            "midi": 70,
            "name": "A#4",
            "ticks": 18930,
            "time": 92.79407125,
            "velocity": 0.7874015748031497
          },
          {
            "duration": 0.14705874999998514,
            "durationTicks": 30,
            "midi": 68,
            "name": "G#4",
            "ticks": 18960,
            "time": 92.94113000000002,
            "velocity": 0.7874015748031497
          },
          {
            "duration": 0.14705874999998514,
            "durationTicks": 30,
            "midi": 70,
            "name": "A#4",
            "ticks": 19020,
            "time": 93.23524750000001,
            "velocity": 0.7874015748031497
          },
          {
            "duration": 0.14705875000001356,
            "durationTicks": 30,
            "midi": 68,
            "name": "G#4",
            "ticks": 19050,
            "time": 93.38230625,
            "velocity": 0.7874015748031497
          },
          {
            "duration": 0.14705875000001356,
            "durationTicks": 30,
            "midi": 68,
            "name": "G#4",
            "ticks": 19170,
            "time": 93.97054125,
            "velocity": 0.7874015748031497
          },
          {
            "duration": 0.19607833333333247,
            "durationTicks": 40,
            "midi": 65,
            "name": "F4",
            "ticks": 19200,
            "time": 94.11760000000001,
            "velocity": 0.7874015748031497
          },
          {
            "duration": 0.19607833333333247,
            "durationTicks": 40,
            "midi": 68,
            "name": "G#4",
            "ticks": 19260,
            "time": 94.41171750000001,
            "velocity": 0.7874015748031497
          },
          {
            "duration": 0.2941174999999987,
            "durationTicks": 60,
            "midi": 65,
            "name": "F4",
            "ticks": 19320,
            "time": 94.70583500000001,
            "velocity": 0.7874015748031497
          },
          {
            "duration": 0.14705875000001356,
            "durationTicks": 30,
            "midi": 65,
            "name": "F4",
            "ticks": 19380,
            "time": 94.9999525,
            "velocity": 0.7874015748031497
          },
          {
            "duration": 0.14705874999998514,
            "durationTicks": 30,
            "midi": 65,
            "name": "F4",
            "ticks": 19410,
            "time": 95.14701125000002,
            "velocity": 0.7874015748031497
          },
          {
            "duration": 0.14705875000001356,
            "durationTicks": 30,
            "midi": 63,
            "name": "D#4",
            "ticks": 19440,
            "time": 95.29407,
            "velocity": 0.7874015748031497
          },
          {
            "duration": 0.14705874999998514,
            "durationTicks": 30,
            "midi": 63,
            "name": "D#4",
            "ticks": 19470,
            "time": 95.44112875000002,
            "velocity": 0.7874015748031497
          },
          {
            "duration": 0.14705875000001356,
            "durationTicks": 30,
            "midi": 65,
            "name": "F4",
            "ticks": 19500,
            "time": 95.5881875,
            "velocity": 0.7874015748031497
          },
          {
            "duration": 0.14705874999998514,
            "durationTicks": 30,
            "midi": 63,
            "name": "D#4",
            "ticks": 19530,
            "time": 95.73524625000002,
            "velocity": 0.7874015748031497
          },
          {
            "duration": 0.14705874999998514,
            "durationTicks": 30,
            "midi": 61,
            "name": "C#4",
            "ticks": 19590,
            "time": 96.02936375000002,
            "velocity": 0.7874015748031497
          },
          {
            "duration": 0.14705875000001356,
            "durationTicks": 30,
            "midi": 58,
            "name": "A#3",
            "ticks": 19620,
            "time": 96.1764225,
            "velocity": 0.7874015748031497
          },
          {
            "duration": 0.14705875000001356,
            "durationTicks": 30,
            "midi": 58,
            "name": "A#3",
            "ticks": 19740,
            "time": 96.7646575,
            "velocity": 0.7874015748031497
          },
          {
            "duration": 0.14705874999998514,
            "durationTicks": 30,
            "midi": 58,
            "name": "A#3",
            "ticks": 19770,
            "time": 96.91171625000001,
            "velocity": 0.7874015748031497
          },
          {
            "duration": 0.14705875000001356,
            "durationTicks": 30,
            "midi": 58,
            "name": "A#3",
            "ticks": 19800,
            "time": 97.058775,
            "velocity": 0.7874015748031497
          },
          {
            "duration": 0.14705874999998514,
            "durationTicks": 30,
            "midi": 56,
            "name": "G#3",
            "ticks": 19860,
            "time": 97.35289250000002,
            "velocity": 0.7874015748031497
          },
          {
            "duration": 0.14705874999998514,
            "durationTicks": 30,
            "midi": 56,
            "name": "G#3",
            "ticks": 19980,
            "time": 97.94112750000002,
            "velocity": 0.7874015748031497
          },
          {
            "duration": 0.14705874999998514,
            "durationTicks": 30,
            "midi": 60,
            "name": "C4",
            "ticks": 20014,
            "time": 98.10779408333335,
            "velocity": 0.7874015748031497
          },
          {
            "duration": 0.14705874999998514,
            "durationTicks": 30,
            "midi": 58,
            "name": "A#3",
            "ticks": 20100,
            "time": 98.52936250000002,
            "velocity": 0.7874015748031497
          },
          {
            "duration": 0.14705874999998514,
            "durationTicks": 30,
            "midi": 58,
            "name": "A#3",
            "ticks": 20220,
            "time": 99.11759750000002,
            "velocity": 0.7874015748031497
          },
          {
            "duration": 0.14705875000001356,
            "durationTicks": 30,
            "midi": 58,
            "name": "A#3",
            "ticks": 20250,
            "time": 99.26465625,
            "velocity": 0.7874015748031497
          },
          {
            "duration": 0.14705874999998514,
            "durationTicks": 30,
            "midi": 61,
            "name": "C#4",
            "ticks": 20280,
            "time": 99.41171500000002,
            "velocity": 0.7874015748031497
          },
          {
            "duration": 0.14705874999998514,
            "durationTicks": 30,
            "midi": 58,
            "name": "A#3",
            "ticks": 20325,
            "time": 99.63230312500002,
            "velocity": 0.7874015748031497
          },
          {
            "duration": 0.14705875000001356,
            "durationTicks": 30,
            "midi": 58,
            "name": "A#3",
            "ticks": 20370,
            "time": 99.85289125,
            "velocity": 0.7874015748031497
          },
          {
            "duration": 0.14705874999998514,
            "durationTicks": 30,
            "midi": 61,
            "name": "C#4",
            "ticks": 20400,
            "time": 99.99995000000001,
            "velocity": 0.7874015748031497
          },
          {
            "duration": 0.14705874999998514,
            "durationTicks": 30,
            "midi": 58,
            "name": "A#3",
            "ticks": 20445,
            "time": 100.22053812500002,
            "velocity": 0.7874015748031497
          },
          {
            "duration": 0.14705874999998514,
            "durationTicks": 30,
            "midi": 58,
            "name": "A#3",
            "ticks": 20490,
            "time": 100.44112625000002,
            "velocity": 0.7874015748031497
          },
          {
            "duration": 0.14705875000001356,
            "durationTicks": 30,
            "midi": 61,
            "name": "C#4",
            "ticks": 20520,
            "time": 100.58818500000001,
            "velocity": 0.7874015748031497
          },
          {
            "duration": 0.14705875000001356,
            "durationTicks": 30,
            "midi": 58,
            "name": "A#3",
            "ticks": 20580,
            "time": 100.88230250000001,
            "velocity": 0.7874015748031497
          },
          {
            "duration": 0.2941174999999987,
            "durationTicks": 60,
            "midi": 65,
            "name": "F4",
            "ticks": 20700,
            "time": 101.4705375,
            "velocity": 0.7874015748031497
          },
          {
            "duration": 0.2941174999999987,
            "durationTicks": 60,
            "midi": 63,
            "name": "D#4",
            "ticks": 20760,
            "time": 101.764655,
            "velocity": 0.7874015748031497
          },
          {
            "duration": 0.1960783333333609,
            "durationTicks": 40,
            "midi": 63,
            "name": "D#4",
            "ticks": 20880,
            "time": 102.35289,
            "velocity": 0.7874015748031497
          },
          {
            "duration": 0.19607833333330404,
            "durationTicks": 40,
            "midi": 61,
            "name": "C#4",
            "ticks": 20920,
            "time": 102.54896833333336,
            "velocity": 0.7874015748031497
          },
          {
            "duration": 0.19607833333333247,
            "durationTicks": 40,
            "midi": 63,
            "name": "D#4",
            "ticks": 20960,
            "time": 102.74504666666667,
            "velocity": 0.7874015748031497
          },
          {
            "duration": 0.1960783333333609,
            "durationTicks": 40,
            "midi": 63,
            "name": "D#4",
            "ticks": 21000,
            "time": 102.941125,
            "velocity": 0.7874015748031497
          },
          {
            "duration": 0.19607833333330404,
            "durationTicks": 40,
            "midi": 61,
            "name": "C#4",
            "ticks": 21040,
            "time": 103.13720333333336,
            "velocity": 0.7874015748031497
          },
          {
            "duration": 0.1960783333333609,
            "durationTicks": 40,
            "midi": 63,
            "name": "D#4",
            "ticks": 21080,
            "time": 103.33328166666666,
            "velocity": 0.7874015748031497
          },
          {
            "duration": 0.3921566666666365,
            "durationTicks": 80,
            "midi": 63,
            "name": "D#4",
            "ticks": 21120,
            "time": 103.52936000000003,
            "velocity": 0.7874015748031497
          },
          {
            "duration": 0.2941174999999987,
            "durationTicks": 60,
            "midi": 58,
            "name": "A#3",
            "ticks": 21210,
            "time": 103.97053625000001,
            "velocity": 0.7874015748031497
          },
          {
            "duration": 0.19607833333333247,
            "durationTicks": 40,
            "midi": 56,
            "name": "G#3",
            "ticks": 21300,
            "time": 104.41171250000002,
            "velocity": 0.7874015748031497
          },
          {
            "duration": 0.2941174999999987,
            "durationTicks": 60,
            "midi": 56,
            "name": "G#3",
            "ticks": 21360,
            "time": 104.70583000000002,
            "velocity": 0.7874015748031497
          },
          {
            "duration": 0.14705874999998514,
            "durationTicks": 30,
            "midi": 61,
            "name": "C#4",
            "ticks": 21420,
            "time": 104.99994750000002,
            "velocity": 0.7874015748031497
          },
          {
            "duration": 0.2941174999999987,
            "durationTicks": 60,
            "midi": 58,
            "name": "A#3",
            "ticks": 21450,
            "time": 105.14700625,
            "velocity": 0.7874015748031497
          },
          {
            "duration": 0.2941174999999987,
            "durationTicks": 60,
            "midi": 63,
            "name": "D#4",
            "ticks": 21540,
            "time": 105.58818250000002,
            "velocity": 0.7874015748031497
          },
          {
            "duration": 0.14705875000001356,
            "durationTicks": 30,
            "midi": 61,
            "name": "C#4",
            "ticks": 21570,
            "time": 105.73524125,
            "velocity": 0.7874015748031497
          },
          {
            "duration": 0.2941174999999987,
            "durationTicks": 60,
            "midi": 65,
            "name": "F4",
            "ticks": 21660,
            "time": 106.17641750000001,
            "velocity": 0.7874015748031497
          },
          {
            "duration": 0.2941174999999987,
            "durationTicks": 60,
            "midi": 63,
            "name": "D#4",
            "ticks": 21720,
            "time": 106.47053500000001,
            "velocity": 0.7874015748031497
          },
          {
            "duration": 0.19607833333333247,
            "durationTicks": 40,
            "midi": 63,
            "name": "D#4",
            "ticks": 21840,
            "time": 107.05877000000001,
            "velocity": 0.7874015748031497
          },
          {
            "duration": 0.19607833333333247,
            "durationTicks": 40,
            "midi": 61,
            "name": "C#4",
            "ticks": 21880,
            "time": 107.25484833333334,
            "velocity": 0.7874015748031497
          },
          {
            "duration": 0.19607833333333247,
            "durationTicks": 40,
            "midi": 63,
            "name": "D#4",
            "ticks": 21920,
            "time": 107.45092666666667,
            "velocity": 0.7874015748031497
          },
          {
            "duration": 0.19607833333333247,
            "durationTicks": 40,
            "midi": 63,
            "name": "D#4",
            "ticks": 21960,
            "time": 107.64700500000001,
            "velocity": 0.7874015748031497
          },
          {
            "duration": 0.19607833333333247,
            "durationTicks": 40,
            "midi": 61,
            "name": "C#4",
            "ticks": 22000,
            "time": 107.84308333333334,
            "velocity": 0.7874015748031497
          },
          {
            "duration": 0.19607833333333247,
            "durationTicks": 40,
            "midi": 63,
            "name": "D#4",
            "ticks": 22040,
            "time": 108.03916166666667,
            "velocity": 0.7874015748031497
          },
          {
            "duration": 0.4901958333333596,
            "durationTicks": 100,
            "midi": 63,
            "name": "D#4",
            "ticks": 22080,
            "time": 108.23524,
            "velocity": 0.7874015748031497
          },
          {
            "duration": 0.2941174999999987,
            "durationTicks": 60,
            "midi": 58,
            "name": "A#3",
            "ticks": 22170,
            "time": 108.67641625000002,
            "velocity": 0.7874015748031497
          },
          {
            "duration": 0.14705875000001356,
            "durationTicks": 30,
            "midi": 56,
            "name": "G#3",
            "ticks": 22260,
            "time": 109.1175925,
            "velocity": 0.7874015748031497
          },
          {
            "duration": 0.14705874999998514,
            "durationTicks": 30,
            "midi": 56,
            "name": "G#3",
            "ticks": 22290,
            "time": 109.26465125000001,
            "velocity": 0.7874015748031497
          },
          {
            "duration": 0.14705875000001356,
            "durationTicks": 30,
            "midi": 56,
            "name": "G#3",
            "ticks": 22320,
            "time": 109.41171,
            "velocity": 0.7874015748031497
          },
          {
            "duration": 0.14705874999998514,
            "durationTicks": 30,
            "midi": 58,
            "name": "A#3",
            "ticks": 22350,
            "time": 109.55876875000001,
            "velocity": 0.7874015748031497
          },
          {
            "duration": 0.14705875000001356,
            "durationTicks": 30,
            "midi": 61,
            "name": "C#4",
            "ticks": 22380,
            "time": 109.7058275,
            "velocity": 0.7874015748031497
          },
          {
            "duration": 0.2941174999999987,
            "durationTicks": 60,
            "midi": 58,
            "name": "A#3",
            "ticks": 22410,
            "time": 109.85288625000001,
            "velocity": 0.7874015748031497
          },
          {
            "duration": 0.14705874999998514,
            "durationTicks": 30,
            "midi": 63,
            "name": "D#4",
            "ticks": 22500,
            "time": 110.29406250000002,
            "velocity": 0.7874015748031497
          },
          {
            "duration": 0.14705875000001356,
            "durationTicks": 30,
            "midi": 61,
            "name": "C#4",
            "ticks": 22530,
            "time": 110.44112125000001,
            "velocity": 0.7874015748031497
          },
          {
            "duration": 0.36764687499999127,
            "durationTicks": 75,
            "midi": 68,
            "name": "G#4",
            "ticks": 22590,
            "time": 110.73523875000001,
            "velocity": 0.7874015748031497
          },
          {
            "duration": 0.14705875000001356,
            "durationTicks": 30,
            "midi": 70,
            "name": "A#4",
            "ticks": 22650,
            "time": 111.02935625,
            "velocity": 0.7874015748031497
          },
          {
            "duration": 0.36764687499999127,
            "durationTicks": 75,
            "midi": 65,
            "name": "F4",
            "ticks": 22680,
            "time": 111.17641500000002,
            "velocity": 0.7874015748031497
          },
          {
            "duration": 0.14705875000001356,
            "durationTicks": 30,
            "midi": 66,
            "name": "F#4",
            "ticks": 22770,
            "time": 111.61759125,
            "velocity": 0.7874015748031497
          },
          {
            "duration": 0.2941174999999987,
            "durationTicks": 60,
            "midi": 68,
            "name": "G#4",
            "ticks": 22800,
            "time": 111.76465000000002,
            "velocity": 0.7874015748031497
          },
          {
            "duration": 0.2941174999999987,
            "durationTicks": 60,
            "midi": 68,
            "name": "G#4",
            "ticks": 22860,
            "time": 112.05876750000002,
            "velocity": 0.7874015748031497
          },
          {
            "duration": 0.14705874999998514,
            "durationTicks": 30,
            "midi": 65,
            "name": "F4",
            "ticks": 22920,
            "time": 112.35288500000001,
            "velocity": 0.7874015748031497
          },
          {
            "duration": 0.14705875000001356,
            "durationTicks": 30,
            "midi": 63,
            "name": "D#4",
            "ticks": 22950,
            "time": 112.49994375,
            "velocity": 0.7874015748031497
          },
          {
            "duration": 0.14705874999998514,
            "durationTicks": 30,
            "midi": 61,
            "name": "C#4",
            "ticks": 22980,
            "time": 112.64700250000001,
            "velocity": 0.7874015748031497
          },
          {
            "duration": 0.2205881249999777,
            "durationTicks": 45,
            "midi": 65,
            "name": "F4",
            "ticks": 23070,
            "time": 113.08817875000003,
            "velocity": 0.7874015748031497
          },
          {
            "duration": 0.14705874999998514,
            "durationTicks": 30,
            "midi": 65,
            "name": "F4",
            "ticks": 23130,
            "time": 113.38229625000002,
            "velocity": 0.7874015748031497
          },
          {
            "duration": 0.2941174999999987,
            "durationTicks": 60,
            "midi": 60,
            "name": "C4",
            "ticks": 23160,
            "time": 113.52935500000001,
            "velocity": 0.7874015748031497
          },
          {
            "duration": 0.14705874999998514,
            "durationTicks": 30,
            "midi": 60,
            "name": "C4",
            "ticks": 23250,
            "time": 113.97053125000002,
            "velocity": 0.7874015748031497
          },
          {
            "duration": 0.14705875000001356,
            "durationTicks": 30,
            "midi": 61,
            "name": "C#4",
            "ticks": 23280,
            "time": 114.11759,
            "velocity": 0.7874015748031497
          },
          {
            "duration": 0.14705874999998514,
            "durationTicks": 30,
            "midi": 60,
            "name": "C4",
            "ticks": 23310,
            "time": 114.26464875000002,
            "velocity": 0.7874015748031497
          },
          {
            "duration": 0.14705875000001356,
            "durationTicks": 30,
            "midi": 58,
            "name": "A#3",
            "ticks": 23340,
            "time": 114.4117075,
            "velocity": 0.7874015748031497
          },
          {
            "duration": 0.14705875000001356,
            "durationTicks": 30,
            "midi": 61,
            "name": "C#4",
            "ticks": 23400,
            "time": 114.705825,
            "velocity": 0.7874015748031497
          },
          {
            "duration": 0.14705874999998514,
            "durationTicks": 30,
            "midi": 60,
            "name": "C4",
            "ticks": 23430,
            "time": 114.85288375000002,
            "velocity": 0.7874015748031497
          },
          {
            "duration": 0.14705875000001356,
            "durationTicks": 30,
            "midi": 58,
            "name": "A#3",
            "ticks": 23460,
            "time": 114.9999425,
            "velocity": 0.7874015748031497
          },
          {
            "duration": 0.22058812500000613,
            "durationTicks": 45,
            "midi": 58,
            "name": "A#3",
            "ticks": 23550,
            "time": 115.44111875000002,
            "velocity": 0.7874015748031497
          },
          {
            "duration": 0.22058812500000613,
            "durationTicks": 45,
            "midi": 65,
            "name": "F4",
            "ticks": 23550,
            "time": 115.44111875000002,
            "velocity": 0.7874015748031497
          },
          {
            "duration": 0.14705874999998514,
            "durationTicks": 30,
            "midi": 58,
            "name": "A#3",
            "ticks": 23610,
            "time": 115.73523625000001,
            "velocity": 0.7874015748031497
          },
          {
            "duration": 0.14705874999998514,
            "durationTicks": 30,
            "midi": 65,
            "name": "F4",
            "ticks": 23610,
            "time": 115.73523625000001,
            "velocity": 0.7874015748031497
          },
          {
            "duration": 0.14705875000001356,
            "durationTicks": 30,
            "midi": 58,
            "name": "A#3",
            "ticks": 23640,
            "time": 115.882295,
            "velocity": 0.7874015748031497
          },
          {
            "duration": 0.14705875000001356,
            "durationTicks": 30,
            "midi": 68,
            "name": "G#4",
            "ticks": 23640,
            "time": 115.882295,
            "velocity": 0.7874015748031497
          },
          {
            "duration": 0.14705875000001356,
            "durationTicks": 30,
            "midi": 58,
            "name": "A#3",
            "ticks": 23670,
            "time": 116.02935375000001,
            "velocity": 0.7874015748031497
          },
          {
            "duration": 0.14705875000001356,
            "durationTicks": 30,
            "midi": 65,
            "name": "F4",
            "ticks": 23670,
            "time": 116.02935375000001,
            "velocity": 0.7874015748031497
          },
          {
            "duration": 0.14705874999998514,
            "durationTicks": 30,
            "midi": 58,
            "name": "A#3",
            "ticks": 23700,
            "time": 116.17641250000003,
            "velocity": 0.7874015748031497
          },
          {
            "duration": 0.14705874999998514,
            "durationTicks": 30,
            "midi": 63,
            "name": "D#4",
            "ticks": 23700,
            "time": 116.17641250000003,
            "velocity": 0.7874015748031497
          },
          {
            "duration": 0.14705875000001356,
            "durationTicks": 30,
            "midi": 58,
            "name": "A#3",
            "ticks": 23730,
            "time": 116.32347125000001,
            "velocity": 0.7874015748031497
          },
          {
            "duration": 0.14705875000001356,
            "durationTicks": 30,
            "midi": 61,
            "name": "C#4",
            "ticks": 23730,
            "time": 116.32347125000001,
            "velocity": 0.7874015748031497
          },
          {
            "duration": 0.2941174999999987,
            "durationTicks": 60,
            "midi": 60,
            "name": "C4",
            "ticks": 23760,
            "time": 116.47053000000002,
            "velocity": 0.7874015748031497
          },
          {
            "duration": 0.2941174999999987,
            "durationTicks": 60,
            "midi": 63,
            "name": "D#4",
            "ticks": 23760,
            "time": 116.47053000000002,
            "velocity": 0.7874015748031497
          },
          {
            "duration": 0.14705874999998514,
            "durationTicks": 30,
            "midi": 60,
            "name": "C4",
            "ticks": 23820,
            "time": 116.76464750000002,
            "velocity": 0.7874015748031497
          },
          {
            "duration": 0.14705874999998514,
            "durationTicks": 30,
            "midi": 63,
            "name": "D#4",
            "ticks": 23820,
            "time": 116.76464750000002,
            "velocity": 0.7874015748031497
          },
          {
            "duration": 0.14705875000001356,
            "durationTicks": 30,
            "midi": 60,
            "name": "C4",
            "ticks": 23850,
            "time": 116.91170625000001,
            "velocity": 0.7874015748031497
          },
          {
            "duration": 0.14705875000001356,
            "durationTicks": 30,
            "midi": 63,
            "name": "D#4",
            "ticks": 23850,
            "time": 116.91170625000001,
            "velocity": 0.7874015748031497
          },
          {
            "duration": 0.2941174999999987,
            "durationTicks": 60,
            "midi": 60,
            "name": "C4",
            "ticks": 23880,
            "time": 117.05876500000002,
            "velocity": 0.7874015748031497
          },
          {
            "duration": 0.2941174999999987,
            "durationTicks": 60,
            "midi": 63,
            "name": "D#4",
            "ticks": 23880,
            "time": 117.05876500000002,
            "velocity": 0.7874015748031497
          },
          {
            "duration": 0.14705874999998514,
            "durationTicks": 30,
            "midi": 61,
            "name": "C#4",
            "ticks": 23940,
            "time": 117.35288250000002,
            "velocity": 0.7874015748031497
          },
          {
            "duration": 0.14705875000001356,
            "durationTicks": 30,
            "midi": 60,
            "name": "C4",
            "ticks": 23970,
            "time": 117.49994125,
            "velocity": 0.7874015748031497
          },
          {
            "duration": 0.14705874999998514,
            "durationTicks": 30,
            "midi": 58,
            "name": "A#3",
            "ticks": 24000,
            "time": 117.64700000000002,
            "velocity": 0.7874015748031497
          },
          {
            "duration": 0.22058812500000613,
            "durationTicks": 45,
            "midi": 65,
            "name": "F4",
            "ticks": 24030,
            "time": 117.79405875,
            "velocity": 0.7874015748031497
          },
          {
            "duration": 0.14705875000001356,
            "durationTicks": 30,
            "midi": 65,
            "name": "F4",
            "ticks": 24090,
            "time": 118.08817625,
            "velocity": 0.7874015748031497
          },
          {
            "duration": 0.14705874999998514,
            "durationTicks": 30,
            "midi": 61,
            "name": "C#4",
            "ticks": 24120,
            "time": 118.23523500000002,
            "velocity": 0.7874015748031497
          },
          {
            "duration": 0.22058812500000613,
            "durationTicks": 45,
            "midi": 61,
            "name": "C#4",
            "ticks": 24180,
            "time": 118.52935250000002,
            "velocity": 0.7874015748031497
          },
          {
            "duration": 0.14705874999998514,
            "durationTicks": 30,
            "midi": 61,
            "name": "C#4",
            "ticks": 24240,
            "time": 118.82347000000001,
            "velocity": 0.7874015748031497
          },
          {
            "duration": 0.14705875000001356,
            "durationTicks": 30,
            "midi": 63,
            "name": "D#4",
            "ticks": 24300,
            "time": 119.11758750000001,
            "velocity": 0.7874015748031497
          },
          {
            "duration": 0.2941174999999987,
            "durationTicks": 60,
            "midi": 63,
            "name": "D#4",
            "ticks": 24360,
            "time": 119.41170500000001,
            "velocity": 0.7874015748031497
          },
          {
            "duration": 0.14705874999998514,
            "durationTicks": 30,
            "midi": 65,
            "name": "F4",
            "ticks": 26400,
            "time": 129.41170000000002,
            "velocity": 0.7874015748031497
          },
          {
            "duration": 0.14705875000001356,
            "durationTicks": 30,
            "midi": 65,
            "name": "F4",
            "ticks": 26430,
            "time": 129.55875875,
            "velocity": 0.7874015748031497
          },
          {
            "duration": 0.14705874999998514,
            "durationTicks": 30,
            "midi": 65,
            "name": "F4",
            "ticks": 26460,
            "time": 129.70581750000002,
            "velocity": 0.7874015748031497
          },
          {
            "duration": 0.14705875000001356,
            "durationTicks": 30,
            "midi": 65,
            "name": "F4",
            "ticks": 26490,
            "time": 129.85287625,
            "velocity": 0.7874015748031497
          },
          {
            "duration": 0.14705874999998514,
            "durationTicks": 30,
            "midi": 65,
            "name": "F4",
            "ticks": 26520,
            "time": 129.99993500000002,
            "velocity": 0.7874015748031497
          },
          {
            "duration": 0.14705875000001356,
            "durationTicks": 30,
            "midi": 63,
            "name": "D#4",
            "ticks": 26550,
            "time": 130.14699375,
            "velocity": 0.7874015748031497
          },
          {
            "duration": 0.14705874999998514,
            "durationTicks": 30,
            "midi": 61,
            "name": "C#4",
            "ticks": 26580,
            "time": 130.29405250000002,
            "velocity": 0.7874015748031497
          },
          {
            "duration": 0.14705875000001356,
            "durationTicks": 30,
            "midi": 63,
            "name": "D#4",
            "ticks": 26610,
            "time": 130.44111125,
            "velocity": 0.7874015748031497
          },
          {
            "duration": 0.2941174999999987,
            "durationTicks": 60,
            "midi": 65,
            "name": "F4",
            "ticks": 26640,
            "time": 130.58817000000002,
            "velocity": 0.7874015748031497
          },
          {
            "duration": 0.2941174999999987,
            "durationTicks": 60,
            "midi": 68,
            "name": "G#4",
            "ticks": 26700,
            "time": 130.88228750000002,
            "velocity": 0.7874015748031497
          },
          {
            "duration": 0.2941174999999987,
            "durationTicks": 60,
            "midi": 68,
            "name": "G#4",
            "ticks": 26760,
            "time": 131.17640500000002,
            "velocity": 0.7874015748031497
          },
          {
            "duration": 0.14705874999998514,
            "durationTicks": 30,
            "midi": 63,
            "name": "D#4",
            "ticks": 26910,
            "time": 131.91169875000003,
            "velocity": 0.7874015748031497
          },
          {
            "duration": 0.14705875000001356,
            "durationTicks": 30,
            "midi": 63,
            "name": "D#4",
            "ticks": 26940,
            "time": 132.0587575,
            "velocity": 0.7874015748031497
          },
          {
            "duration": 0.14705874999998514,
            "durationTicks": 30,
            "midi": 63,
            "name": "D#4",
            "ticks": 26970,
            "time": 132.20581625000003,
            "velocity": 0.7874015748031497
          },
          {
            "duration": 0.14705875000001356,
            "durationTicks": 30,
            "midi": 63,
            "name": "D#4",
            "ticks": 27000,
            "time": 132.352875,
            "velocity": 0.7874015748031497
          },
          {
            "duration": 0.14705874999998514,
            "durationTicks": 30,
            "midi": 61,
            "name": "C#4",
            "ticks": 27030,
            "time": 132.49993375000003,
            "velocity": 0.7874015748031497
          },
          {
            "duration": 0.14705875000001356,
            "durationTicks": 30,
            "midi": 61,
            "name": "C#4",
            "ticks": 27060,
            "time": 132.6469925,
            "velocity": 0.7874015748031497
          },
          {
            "duration": 0.14705874999998514,
            "durationTicks": 30,
            "midi": 63,
            "name": "D#4",
            "ticks": 27090,
            "time": 132.79405125000002,
            "velocity": 0.7874015748031497
          },
          {
            "duration": 0.2941174999999987,
            "durationTicks": 60,
            "midi": 65,
            "name": "F4",
            "ticks": 27120,
            "time": 132.94111,
            "velocity": 0.7874015748031497
          },
          {
            "duration": 0.2941175000000271,
            "durationTicks": 60,
            "midi": 68,
            "name": "G#4",
            "ticks": 27180,
            "time": 133.2352275,
            "velocity": 0.7874015748031497
          },
          {
            "duration": 0.2941174999999987,
            "durationTicks": 60,
            "midi": 68,
            "name": "G#4",
            "ticks": 27240,
            "time": 133.52934500000003,
            "velocity": 0.7874015748031497
          },
          {
            "duration": 0.14705875000001356,
            "durationTicks": 30,
            "midi": 63,
            "name": "D#4",
            "ticks": 27390,
            "time": 134.26463875000002,
            "velocity": 0.7874015748031497
          },
          {
            "duration": 0.14705874999998514,
            "durationTicks": 30,
            "midi": 63,
            "name": "D#4",
            "ticks": 27420,
            "time": 134.41169750000003,
            "velocity": 0.7874015748031497
          },
          {
            "duration": 0.14705875000001356,
            "durationTicks": 30,
            "midi": 65,
            "name": "F4",
            "ticks": 27450,
            "time": 134.55875625000002,
            "velocity": 0.7874015748031497
          },
          {
            "duration": 0.2941174999999987,
            "durationTicks": 60,
            "midi": 63,
            "name": "D#4",
            "ticks": 27480,
            "time": 134.70581500000003,
            "velocity": 0.7874015748031497
          },
          {
            "duration": 0.2941174999999987,
            "durationTicks": 60,
            "midi": 61,
            "name": "C#4",
            "ticks": 27540,
            "time": 134.99993250000003,
            "velocity": 0.7874015748031497
          },
          {
            "duration": 0.14705875000001356,
            "durationTicks": 30,
            "midi": 65,
            "name": "F4",
            "ticks": 27690,
            "time": 135.73522625,
            "velocity": 0.7874015748031497
          },
          {
            "duration": 0.2941174999999987,
            "durationTicks": 60,
            "midi": 63,
            "name": "D#4",
            "ticks": 27720,
            "time": 135.88228500000002,
            "velocity": 0.7874015748031497
          },
          {
            "duration": 0.2941174999999987,
            "durationTicks": 60,
            "midi": 61,
            "name": "C#4",
            "ticks": 27780,
            "time": 136.17640250000002,
            "velocity": 0.7874015748031497
          },
          {
            "duration": 0.14705874999998514,
            "durationTicks": 30,
            "midi": 65,
            "name": "F4",
            "ticks": 27930,
            "time": 136.91169625000003,
            "velocity": 0.7874015748031497
          },
          {
            "duration": 0.2941174999999987,
            "durationTicks": 60,
            "midi": 63,
            "name": "D#4",
            "ticks": 27960,
            "time": 137.05875500000002,
            "velocity": 0.7874015748031497
          },
          {
            "duration": 0.2941174999999987,
            "durationTicks": 60,
            "midi": 61,
            "name": "C#4",
            "ticks": 28020,
            "time": 137.35287250000002,
            "velocity": 0.7874015748031497
          },
          {
            "duration": 0.14705874999998514,
            "durationTicks": 30,
            "midi": 46,
            "name": "A#2",
            "ticks": 28050,
            "time": 137.49993125000003,
            "velocity": 0.7874015748031497
          },
          {
            "duration": 0.14705875000001356,
            "durationTicks": 30,
            "midi": 48,
            "name": "C3",
            "ticks": 28080,
            "time": 137.64699000000002,
            "velocity": 0.7874015748031497
          },
          {
            "duration": 0.2941174999999987,
            "durationTicks": 60,
            "midi": 49,
            "name": "C#3",
            "ticks": 28110,
            "time": 137.79404875000003,
            "velocity": 0.7874015748031497
          },
          {
            "duration": 0.14705874999998514,
            "durationTicks": 30,
            "midi": 46,
            "name": "A#2",
            "ticks": 28170,
            "time": 138.08816625000003,
            "velocity": 0.7874015748031497
          },
          {
            "duration": 0.14705874999998514,
            "durationTicks": 30,
            "midi": 65,
            "name": "F4",
            "ticks": 28170,
            "time": 138.08816625000003,
            "velocity": 0.7874015748031497
          },
          {
            "duration": 0.2941174999999987,
            "durationTicks": 60,
            "midi": 49,
            "name": "C#3",
            "ticks": 28200,
            "time": 138.235225,
            "velocity": 0.7874015748031497
          },
          {
            "duration": 0.2941174999999987,
            "durationTicks": 60,
            "midi": 63,
            "name": "D#4",
            "ticks": 28200,
            "time": 138.235225,
            "velocity": 0.7874015748031497
          },
          {
            "duration": 0.2941174999999987,
            "durationTicks": 60,
            "midi": 46,
            "name": "A#2",
            "ticks": 28260,
            "time": 138.5293425,
            "velocity": 0.7874015748031497
          },
          {
            "duration": 0.2941174999999987,
            "durationTicks": 60,
            "midi": 61,
            "name": "C#4",
            "ticks": 28260,
            "time": 138.5293425,
            "velocity": 0.7874015748031497
          },
          {
            "duration": 0.2941174999999987,
            "durationTicks": 60,
            "midi": 65,
            "name": "F4",
            "ticks": 28380,
            "time": 139.1175775,
            "velocity": 0.7874015748031497
          },
          {
            "duration": 0.14705875000001356,
            "durationTicks": 30,
            "midi": 63,
            "name": "D#4",
            "ticks": 28440,
            "time": 139.411695,
            "velocity": 0.7874015748031497
          },
          {
            "duration": 0.14705875000001356,
            "durationTicks": 30,
            "midi": 61,
            "name": "C#4",
            "ticks": 28470,
            "time": 139.55875375000002,
            "velocity": 0.7874015748031497
          },
          {
            "duration": 0.14705874999998514,
            "durationTicks": 30,
            "midi": 61,
            "name": "C#4",
            "ticks": 28500,
            "time": 139.70581250000004,
            "velocity": 0.7874015748031497
          },
          {
            "duration": 0.14705875000001356,
            "durationTicks": 30,
            "midi": 63,
            "name": "D#4",
            "ticks": 28530,
            "time": 139.85287125000002,
            "velocity": 0.7874015748031497
          },
          {
            "duration": 0.14705874999998514,
            "durationTicks": 30,
            "midi": 65,
            "name": "F4",
            "ticks": 28560,
            "time": 139.99993000000003,
            "velocity": 0.7874015748031497
          },
          {
            "duration": 0.2941174999999987,
            "durationTicks": 60,
            "midi": 68,
            "name": "G#4",
            "ticks": 28620,
            "time": 140.29404750000003,
            "velocity": 0.7874015748031497
          },
          {
            "duration": 0.2941174999999987,
            "durationTicks": 60,
            "midi": 68,
            "name": "G#4",
            "ticks": 28680,
            "time": 140.58816500000003,
            "velocity": 0.7874015748031497
          },
          {
            "duration": 0.2941174999999987,
            "durationTicks": 60,
            "midi": 70,
            "name": "A#4",
            "ticks": 28860,
            "time": 141.47051750000003,
            "velocity": 0.7874015748031497
          },
          {
            "duration": 0.2941174999999987,
            "durationTicks": 60,
            "midi": 68,
            "name": "G#4",
            "ticks": 28920,
            "time": 141.76463500000003,
            "velocity": 0.7874015748031497
          },
          {
            "duration": 0.14705875000001356,
            "durationTicks": 30,
            "midi": 65,
            "name": "F4",
            "ticks": 29010,
            "time": 142.20581125,
            "velocity": 0.7874015748031497
          },
          {
            "duration": 0.14705874999998514,
            "durationTicks": 30,
            "midi": 68,
            "name": "G#4",
            "ticks": 29040,
            "time": 142.35287000000002,
            "velocity": 0.7874015748031497
          },
          {
            "duration": 0.14705875000001356,
            "durationTicks": 30,
            "midi": 65,
            "name": "F4",
            "ticks": 29070,
            "time": 142.49992875,
            "velocity": 0.7874015748031497
          },
          {
            "duration": 0.14705875000001356,
            "durationTicks": 30,
            "midi": 63,
            "name": "D#4",
            "ticks": 29100,
            "time": 142.64698750000002,
            "velocity": 0.7874015748031497
          },
          {
            "duration": 0.14705874999998514,
            "durationTicks": 30,
            "midi": 65,
            "name": "F4",
            "ticks": 29130,
            "time": 142.79404625000004,
            "velocity": 0.7874015748031497
          },
          {
            "duration": 0.2941174999999987,
            "durationTicks": 60,
            "midi": 61,
            "name": "C#4",
            "ticks": 29160,
            "time": 142.94110500000002,
            "velocity": 0.7874015748031497
          },
          {
            "duration": 0.14705874999998514,
            "durationTicks": 30,
            "midi": 65,
            "name": "F4",
            "ticks": 29370,
            "time": 143.97051625000003,
            "velocity": 0.7874015748031497
          },
          {
            "duration": 0.2941174999999987,
            "durationTicks": 60,
            "midi": 63,
            "name": "D#4",
            "ticks": 29400,
            "time": 144.11757500000002,
            "velocity": 0.7874015748031497
          },
          {
            "duration": 0.2941174999999987,
            "durationTicks": 60,
            "midi": 61,
            "name": "C#4",
            "ticks": 29460,
            "time": 144.41169250000002,
            "velocity": 0.7874015748031497
          },
          {
            "duration": 0.14705874999998514,
            "durationTicks": 30,
            "midi": 65,
            "name": "F4",
            "ticks": 29610,
            "time": 145.14698625000003,
            "velocity": 0.7874015748031497
          },
          {
            "duration": 0.14705875000001356,
            "durationTicks": 30,
            "midi": 66,
            "name": "F#4",
            "ticks": 29640,
            "time": 145.294045,
            "velocity": 0.7874015748031497
          },
          {
            "duration": 0.14705874999998514,
            "durationTicks": 30,
            "midi": 65,
            "name": "F4",
            "ticks": 29670,
            "time": 145.44110375000002,
            "velocity": 0.7874015748031497
          },
          {
            "duration": 0.2941174999999987,
            "durationTicks": 60,
            "midi": 63,
            "name": "D#4",
            "ticks": 29700,
            "time": 145.5881625,
            "velocity": 0.7874015748031497
          },
          {
            "duration": 0.2941174999999987,
            "durationTicks": 60,
            "midi": 63,
            "name": "D#4",
            "ticks": 29880,
            "time": 146.47051500000003,
            "velocity": 0.7874015748031497
          },
          {
            "duration": 0.14705874999998514,
            "durationTicks": 30,
            "midi": 63,
            "name": "D#4",
            "ticks": 29940,
            "time": 146.76463250000003,
            "velocity": 0.7874015748031497
          },
          {
            "duration": 0.14705875000001356,
            "durationTicks": 30,
            "midi": 63,
            "name": "D#4",
            "ticks": 29970,
            "time": 146.91169125000002,
            "velocity": 0.7874015748031497
          },
          {
            "duration": 0.2941174999999987,
            "durationTicks": 60,
            "midi": 63,
            "name": "D#4",
            "ticks": 30000,
            "time": 147.05875000000003,
            "velocity": 0.7874015748031497
          },
          {
            "duration": 0.14705874999998514,
            "durationTicks": 30,
            "midi": 63,
            "name": "D#4",
            "ticks": 30060,
            "time": 147.35286750000003,
            "velocity": 0.7874015748031497
          },
          {
            "duration": 0.14705875000001356,
            "durationTicks": 30,
            "midi": 63,
            "name": "D#4",
            "ticks": 30090,
            "time": 147.49992625000002,
            "velocity": 0.7874015748031497
          },
          {
            "duration": 0.2941174999999987,
            "durationTicks": 60,
            "midi": 63,
            "name": "D#4",
            "ticks": 30120,
            "time": 147.64698500000003,
            "velocity": 0.7874015748031497
          },
          {
            "duration": 0.2941174999999987,
            "durationTicks": 60,
            "midi": 58,
            "name": "A#3",
            "ticks": 30180,
            "time": 147.94110250000003,
            "velocity": 0.7874015748031497
          },
          {
            "duration": 0.14705875000001356,
            "durationTicks": 30,
            "midi": 49,
            "name": "C#3",
            "ticks": 30270,
            "time": 148.38227875,
            "velocity": 0.7874015748031497
          },
          {
            "duration": 0.14705875000001356,
            "durationTicks": 30,
            "midi": 61,
            "name": "C#4",
            "ticks": 30270,
            "time": 148.38227875,
            "velocity": 0.7874015748031497
          },
          {
            "duration": 0.14705875000001356,
            "durationTicks": 30,
            "midi": 53,
            "name": "F3",
            "ticks": 30330,
            "time": 148.67639625,
            "velocity": 0.7874015748031497
          },
          {
            "duration": 0.14705875000001356,
            "durationTicks": 30,
            "midi": 65,
            "name": "F4",
            "ticks": 30330,
            "time": 148.67639625,
            "velocity": 0.7874015748031497
          },
          {
            "duration": 0.22058812500000613,
            "durationTicks": 45,
            "midi": 51,
            "name": "D#3",
            "ticks": 30360,
            "time": 148.82345500000002,
            "velocity": 0.7874015748031497
          },
          {
            "duration": 0.24509791666665137,
            "durationTicks": 50,
            "midi": 63,
            "name": "D#4",
            "ticks": 30360,
            "time": 148.82345500000002,
            "velocity": 0.7874015748031497
          },
          {
            "duration": 0.14705875000001356,
            "durationTicks": 30,
            "midi": 49,
            "name": "C#3",
            "ticks": 30420,
            "time": 149.11757250000002,
            "velocity": 0.7874015748031497
          },
          {
            "duration": 0.14705875000001356,
            "durationTicks": 30,
            "midi": 61,
            "name": "C#4",
            "ticks": 30420,
            "time": 149.11757250000002,
            "velocity": 0.7874015748031497
          },
          {
            "duration": 0.14705874999998514,
            "durationTicks": 30,
            "midi": 49,
            "name": "C#3",
            "ticks": 30510,
            "time": 149.55874875000003,
            "velocity": 0.7874015748031497
          },
          {
            "duration": 0.14705874999998514,
            "durationTicks": 30,
            "midi": 61,
            "name": "C#4",
            "ticks": 30510,
            "time": 149.55874875000003,
            "velocity": 0.7874015748031497
          },
          {
            "duration": 0.14705874999998514,
            "durationTicks": 30,
            "midi": 53,
            "name": "F3",
            "ticks": 30570,
            "time": 149.85286625000003,
            "velocity": 0.7874015748031497
          },
          {
            "duration": 0.14705874999998514,
            "durationTicks": 30,
            "midi": 65,
            "name": "F4",
            "ticks": 30570,
            "time": 149.85286625000003,
            "velocity": 0.7874015748031497
          },
          {
            "duration": 0.22058812500000613,
            "durationTicks": 45,
            "midi": 51,
            "name": "D#3",
            "ticks": 30600,
            "time": 149.99992500000002,
            "velocity": 0.7874015748031497
          },
          {
            "duration": 0.24509791666665137,
            "durationTicks": 50,
            "midi": 63,
            "name": "D#4",
            "ticks": 30600,
            "time": 149.99992500000002,
            "velocity": 0.7874015748031497
          },
          {
            "duration": 0.14705875000001356,
            "durationTicks": 30,
            "midi": 49,
            "name": "C#3",
            "ticks": 30660,
            "time": 150.29404250000002,
            "velocity": 0.7874015748031497
          },
          {
            "duration": 0.14705875000001356,
            "durationTicks": 30,
            "midi": 61,
            "name": "C#4",
            "ticks": 30660,
            "time": 150.29404250000002,
            "velocity": 0.7874015748031497
          },
          {
            "duration": 0.14705875000001356,
            "durationTicks": 30,
            "midi": 49,
            "name": "C#3",
            "ticks": 30720,
            "time": 150.58816000000002,
            "velocity": 0.7874015748031497
          },
          {
            "duration": 0.14705875000001356,
            "durationTicks": 30,
            "midi": 61,
            "name": "C#4",
            "ticks": 30720,
            "time": 150.58816000000002,
            "velocity": 0.7874015748031497
          },
          {
            "duration": 0.14705874999998514,
            "durationTicks": 30,
            "midi": 49,
            "name": "C#3",
            "ticks": 30750,
            "time": 150.73521875000003,
            "velocity": 0.7874015748031497
          },
          {
            "duration": 0.14705874999998514,
            "durationTicks": 30,
            "midi": 61,
            "name": "C#4",
            "ticks": 30750,
            "time": 150.73521875000003,
            "velocity": 0.7874015748031497
          },
          {
            "duration": 0.14705875000001356,
            "durationTicks": 30,
            "midi": 49,
            "name": "C#3",
            "ticks": 30780,
            "time": 150.88227750000001,
            "velocity": 0.7874015748031497
          },
          {
            "duration": 0.14705875000001356,
            "durationTicks": 30,
            "midi": 61,
            "name": "C#4",
            "ticks": 30780,
            "time": 150.88227750000001,
            "velocity": 0.7874015748031497
          },
          {
            "duration": 0.14705874999998514,
            "durationTicks": 30,
            "midi": 53,
            "name": "F3",
            "ticks": 30810,
            "time": 151.02933625000003,
            "velocity": 0.7874015748031497
          },
          {
            "duration": 0.14705874999998514,
            "durationTicks": 30,
            "midi": 65,
            "name": "F4",
            "ticks": 30810,
            "time": 151.02933625000003,
            "velocity": 0.7874015748031497
          },
          {
            "duration": 0.22058812500000613,
            "durationTicks": 45,
            "midi": 51,
            "name": "D#3",
            "ticks": 30840,
            "time": 151.176395,
            "velocity": 0.7874015748031497
          },
          {
            "duration": 0.2450979166666798,
            "durationTicks": 50,
            "midi": 63,
            "name": "D#4",
            "ticks": 30840,
            "time": 151.176395,
            "velocity": 0.7874015748031497
          },
          {
            "duration": 0.14705875000001356,
            "durationTicks": 30,
            "midi": 49,
            "name": "C#3",
            "ticks": 30900,
            "time": 151.4705125,
            "velocity": 0.7874015748031497
          },
          {
            "duration": 0.14705875000001356,
            "durationTicks": 30,
            "midi": 61,
            "name": "C#4",
            "ticks": 30900,
            "time": 151.4705125,
            "velocity": 0.7874015748031497
          },
          {
            "duration": 0.14705874999998514,
            "durationTicks": 30,
            "midi": 49,
            "name": "C#3",
            "ticks": 30930,
            "time": 151.61757125000003,
            "velocity": 0.7874015748031497
          },
          {
            "duration": 0.14705874999998514,
            "durationTicks": 30,
            "midi": 61,
            "name": "C#4",
            "ticks": 30930,
            "time": 151.61757125000003,
            "velocity": 0.7874015748031497
          },
          {
            "duration": 0.14705875000001356,
            "durationTicks": 30,
            "midi": 49,
            "name": "C#3",
            "ticks": 30960,
            "time": 151.76463,
            "velocity": 0.7874015748031497
          },
          {
            "duration": 0.14705875000001356,
            "durationTicks": 30,
            "midi": 61,
            "name": "C#4",
            "ticks": 30960,
            "time": 151.76463,
            "velocity": 0.7874015748031497
          },
          {
            "duration": 0.14705875000001356,
            "durationTicks": 30,
            "midi": 49,
            "name": "C#3",
            "ticks": 31020,
            "time": 152.0587475,
            "velocity": 0.7874015748031497
          },
          {
            "duration": 0.14705875000001356,
            "durationTicks": 30,
            "midi": 61,
            "name": "C#4",
            "ticks": 31020,
            "time": 152.0587475,
            "velocity": 0.7874015748031497
          },
          {
            "duration": 0.14705875000001356,
            "durationTicks": 30,
            "midi": 53,
            "name": "F3",
            "ticks": 31050,
            "time": 152.20580625000002,
            "velocity": 0.7874015748031497
          },
          {
            "duration": 0.14705875000001356,
            "durationTicks": 30,
            "midi": 65,
            "name": "F4",
            "ticks": 31050,
            "time": 152.20580625000002,
            "velocity": 0.7874015748031497
          },
          {
            "duration": 0.2205881249999777,
            "durationTicks": 45,
            "midi": 51,
            "name": "D#3",
            "ticks": 31080,
            "time": 152.35286500000004,
            "velocity": 0.7874015748031497
          },
          {
            "duration": 0.24509791666665137,
            "durationTicks": 50,
            "midi": 63,
            "name": "D#4",
            "ticks": 31080,
            "time": 152.35286500000004,
            "velocity": 0.7874015748031497
          },
          {
            "duration": 0.14705874999998514,
            "durationTicks": 30,
            "midi": 49,
            "name": "C#3",
            "ticks": 31140,
            "time": 152.64698250000004,
            "velocity": 0.7874015748031497
          },
          {
            "duration": 0.14705874999998514,
            "durationTicks": 30,
            "midi": 61,
            "name": "C#4",
            "ticks": 31140,
            "time": 152.64698250000004,
            "velocity": 0.7874015748031497
          },
          {
            "duration": 0.2941174999999987,
            "durationTicks": 60,
            "midi": 70,
            "name": "A#4",
            "ticks": 33720,
            "time": 165.29403500000004,
            "velocity": 0.7874015748031497
          },
          {
            "duration": 0.14705874999998514,
            "durationTicks": 30,
            "midi": 68,
            "name": "G#4",
            "ticks": 33840,
            "time": 165.88227000000003,
            "velocity": 0.7874015748031497
          },
          {
            "duration": 0.14705874999998514,
            "durationTicks": 30,
            "midi": 70,
            "name": "A#4",
            "ticks": 33900,
            "time": 166.17638750000003,
            "velocity": 0.7874015748031497
          },
          {
            "duration": 0.14705875000001356,
            "durationTicks": 30,
            "midi": 68,
            "name": "G#4",
            "ticks": 33930,
            "time": 166.32344625000002,
            "velocity": 0.7874015748031497
          },
          {
            "duration": 0.14705875000001356,
            "durationTicks": 30,
            "midi": 68,
            "name": "G#4",
            "ticks": 33990,
            "time": 166.61756375000002,
            "velocity": 0.7874015748031497
          },
          {
            "duration": 0.14705874999998514,
            "durationTicks": 30,
            "midi": 68,
            "name": "G#4",
            "ticks": 34020,
            "time": 166.76462250000003,
            "velocity": 0.7874015748031497
          },
          {
            "duration": 0.14705875000001356,
            "durationTicks": 30,
            "midi": 68,
            "name": "G#4",
            "ticks": 34050,
            "time": 166.91168125000002,
            "velocity": 0.7874015748031497
          },
          {
            "duration": 0.19607833333333247,
            "durationTicks": 40,
            "midi": 65,
            "name": "F4",
            "ticks": 34080,
            "time": 167.05874000000003,
            "velocity": 0.7874015748031497
          },
          {
            "duration": 0.19607833333333247,
            "durationTicks": 40,
            "midi": 68,
            "name": "G#4",
            "ticks": 34140,
            "time": 167.35285750000003,
            "velocity": 0.7874015748031497
          },
          {
            "duration": 0.2941174999999987,
            "durationTicks": 60,
            "midi": 65,
            "name": "F4",
            "ticks": 34200,
            "time": 167.64697500000003,
            "velocity": 0.7874015748031497
          },
          {
            "duration": 0.14705875000001356,
            "durationTicks": 30,
            "midi": 65,
            "name": "F4",
            "ticks": 34260,
            "time": 167.94109250000002,
            "velocity": 0.7874015748031497
          },
          {
            "duration": 0.14705874999998514,
            "durationTicks": 30,
            "midi": 65,
            "name": "F4",
            "ticks": 34290,
            "time": 168.08815125000004,
            "velocity": 0.7874015748031497
          },
          {
            "duration": 0.14705875000001356,
            "durationTicks": 30,
            "midi": 63,
            "name": "D#4",
            "ticks": 34320,
            "time": 168.23521000000002,
            "velocity": 0.7874015748031497
          },
          {
            "duration": 0.14705874999998514,
            "durationTicks": 30,
            "midi": 63,
            "name": "D#4",
            "ticks": 34350,
            "time": 168.38226875000004,
            "velocity": 0.7874015748031497
          },
          {
            "duration": 0.14705875000001356,
            "durationTicks": 30,
            "midi": 65,
            "name": "F4",
            "ticks": 34380,
            "time": 168.52932750000002,
            "velocity": 0.7874015748031497
          },
          {
            "duration": 0.14705874999998514,
            "durationTicks": 30,
            "midi": 63,
            "name": "D#4",
            "ticks": 34410,
            "time": 168.67638625000004,
            "velocity": 0.7874015748031497
          },
          {
            "duration": 0.14705874999998514,
            "durationTicks": 30,
            "midi": 61,
            "name": "C#4",
            "ticks": 34470,
            "time": 168.97050375000003,
            "velocity": 0.7874015748031497
          },
          {
            "duration": 0.14705875000001356,
            "durationTicks": 30,
            "midi": 58,
            "name": "A#3",
            "ticks": 34500,
            "time": 169.11756250000002,
            "velocity": 0.7874015748031497
          },
          {
            "duration": 0.14705875000001356,
            "durationTicks": 30,
            "midi": 58,
            "name": "A#3",
            "ticks": 34620,
            "time": 169.70579750000002,
            "velocity": 0.7874015748031497
          },
          {
            "duration": 0.14705874999998514,
            "durationTicks": 30,
            "midi": 58,
            "name": "A#3",
            "ticks": 34650,
            "time": 169.85285625000003,
            "velocity": 0.7874015748031497
          },
          {
            "duration": 0.14705875000001356,
            "durationTicks": 30,
            "midi": 58,
            "name": "A#3",
            "ticks": 34680,
            "time": 169.99991500000002,
            "velocity": 0.7874015748031497
          },
          {
            "duration": 0.14705875000001356,
            "durationTicks": 30,
            "midi": 56,
            "name": "G#3",
            "ticks": 34740,
            "time": 170.29403250000001,
            "velocity": 0.7874015748031497
          },
          {
            "duration": 0.14705875000001356,
            "durationTicks": 30,
            "midi": 56,
            "name": "G#3",
            "ticks": 34860,
            "time": 170.8822675,
            "velocity": 0.7874015748031497
          },
          {
            "duration": 0.14705875000001356,
            "durationTicks": 30,
            "midi": 60,
            "name": "C4",
            "ticks": 34894,
            "time": 171.04893408333336,
            "velocity": 0.7874015748031497
          },
          {
            "duration": 0.14705874999998514,
            "durationTicks": 30,
            "midi": 58,
            "name": "A#3",
            "ticks": 34980,
            "time": 171.47050250000004,
            "velocity": 0.7874015748031497
          },
          {
            "duration": 0.14705874999998514,
            "durationTicks": 30,
            "midi": 58,
            "name": "A#3",
            "ticks": 35100,
            "time": 172.05873750000003,
            "velocity": 0.7874015748031497
          },
          {
            "duration": 0.14705875000001356,
            "durationTicks": 30,
            "midi": 58,
            "name": "A#3",
            "ticks": 35130,
            "time": 172.20579625000002,
            "velocity": 0.7874015748031497
          },
          {
            "duration": 0.14705874999998514,
            "durationTicks": 30,
            "midi": 61,
            "name": "C#4",
            "ticks": 35160,
            "time": 172.35285500000003,
            "velocity": 0.7874015748031497
          },
          {
            "duration": 0.14705874999998514,
            "durationTicks": 30,
            "midi": 58,
            "name": "A#3",
            "ticks": 35205,
            "time": 172.57344312500004,
            "velocity": 0.7874015748031497
          },
          {
            "duration": 0.14705875000001356,
            "durationTicks": 30,
            "midi": 58,
            "name": "A#3",
            "ticks": 35250,
            "time": 172.79403125000002,
            "velocity": 0.7874015748031497
          },
          {
            "duration": 0.14705874999998514,
            "durationTicks": 30,
            "midi": 61,
            "name": "C#4",
            "ticks": 35280,
            "time": 172.94109000000003,
            "velocity": 0.7874015748031497
          },
          {
            "duration": 0.14705874999998514,
            "durationTicks": 30,
            "midi": 58,
            "name": "A#3",
            "ticks": 35325,
            "time": 173.16167812500004,
            "velocity": 0.7874015748031497
          },
          {
            "duration": 0.14705875000001356,
            "durationTicks": 30,
            "midi": 58,
            "name": "A#3",
            "ticks": 35370,
            "time": 173.38226625000001,
            "velocity": 0.7874015748031497
          },
          {
            "duration": 0.14705874999998514,
            "durationTicks": 30,
            "midi": 61,
            "name": "C#4",
            "ticks": 35400,
            "time": 173.52932500000003,
            "velocity": 0.7874015748031497
          },
          {
            "duration": 0.14705874999998514,
            "durationTicks": 30,
            "midi": 58,
            "name": "A#3",
            "ticks": 35460,
            "time": 173.82344250000003,
            "velocity": 0.7874015748031497
          },
          {
            "duration": 0.14705874999998514,
            "durationTicks": 30,
            "midi": 70,
            "name": "A#4",
            "ticks": 35670,
            "time": 174.85285375000004,
            "velocity": 0.7874015748031497
          },
          {
            "duration": 0.14705875000001356,
            "durationTicks": 30,
            "midi": 70,
            "name": "A#4",
            "ticks": 35700,
            "time": 174.99991250000002,
            "velocity": 0.7874015748031497
          },
          {
            "duration": 0.14705874999998514,
            "durationTicks": 30,
            "midi": 70,
            "name": "A#4",
            "ticks": 35730,
            "time": 175.14697125000004,
            "velocity": 0.7874015748031497
          },
          {
            "duration": 0.14705875000001356,
            "durationTicks": 30,
            "midi": 68,
            "name": "G#4",
            "ticks": 35760,
            "time": 175.29403000000002,
            "velocity": 0.7874015748031497
          },
          {
            "duration": 0.14705875000001356,
            "durationTicks": 30,
            "midi": 70,
            "name": "A#4",
            "ticks": 35820,
            "time": 175.58814750000002,
            "velocity": 0.7874015748031497
          },
          {
            "duration": 0.14705874999998514,
            "durationTicks": 30,
            "midi": 68,
            "name": "G#4",
            "ticks": 35850,
            "time": 175.73520625000003,
            "velocity": 0.7874015748031497
          },
          {
            "duration": 0.14705874999998514,
            "durationTicks": 30,
            "midi": 68,
            "name": "G#4",
            "ticks": 35970,
            "time": 176.32344125000003,
            "velocity": 0.7874015748031497
          },
          {
            "duration": 0.19607833333333247,
            "durationTicks": 40,
            "midi": 65,
            "name": "F4",
            "ticks": 36000,
            "time": 176.47050000000002,
            "velocity": 0.7874015748031497
          },
          {
            "duration": 0.19607833333333247,
            "durationTicks": 40,
            "midi": 68,
            "name": "G#4",
            "ticks": 36060,
            "time": 176.7646175,
            "velocity": 0.7874015748031497
          },
          {
            "duration": 0.2941175000000271,
            "durationTicks": 60,
            "midi": 65,
            "name": "F4",
            "ticks": 36120,
            "time": 177.058735,
            "velocity": 0.7874015748031497
          },
          {
            "duration": 0.14705874999998514,
            "durationTicks": 30,
            "midi": 65,
            "name": "F4",
            "ticks": 36180,
            "time": 177.35285250000004,
            "velocity": 0.7874015748031497
          },
          {
            "duration": 0.14705875000001356,
            "durationTicks": 30,
            "midi": 65,
            "name": "F4",
            "ticks": 36210,
            "time": 177.49991125000003,
            "velocity": 0.7874015748031497
          },
          {
            "duration": 0.14705874999998514,
            "durationTicks": 30,
            "midi": 63,
            "name": "D#4",
            "ticks": 36240,
            "time": 177.64697000000004,
            "velocity": 0.7874015748031497
          },
          {
            "duration": 0.14705875000001356,
            "durationTicks": 30,
            "midi": 63,
            "name": "D#4",
            "ticks": 36270,
            "time": 177.79402875000002,
            "velocity": 0.7874015748031497
          },
          {
            "duration": 0.14705874999998514,
            "durationTicks": 30,
            "midi": 65,
            "name": "F4",
            "ticks": 36300,
            "time": 177.94108750000004,
            "velocity": 0.7874015748031497
          },
          {
            "duration": 0.14705875000001356,
            "durationTicks": 30,
            "midi": 63,
            "name": "D#4",
            "ticks": 36330,
            "time": 178.08814625000002,
            "velocity": 0.7874015748031497
          },
          {
            "duration": 0.14705875000001356,
            "durationTicks": 30,
            "midi": 61,
            "name": "C#4",
            "ticks": 36390,
            "time": 178.38226375000002,
            "velocity": 0.7874015748031497
          },
          {
            "duration": 0.14705874999998514,
            "durationTicks": 30,
            "midi": 58,
            "name": "A#3",
            "ticks": 36420,
            "time": 178.52932250000003,
            "velocity": 0.7874015748031497
          },
          {
            "duration": 0.14705874999998514,
            "durationTicks": 30,
            "midi": 58,
            "name": "A#3",
            "ticks": 36540,
            "time": 179.11755750000003,
            "velocity": 0.7874015748031497
          },
          {
            "duration": 0.14705875000001356,
            "durationTicks": 30,
            "midi": 58,
            "name": "A#3",
            "ticks": 36570,
            "time": 179.26461625000002,
            "velocity": 0.7874015748031497
          },
          {
            "duration": 0.14705874999998514,
            "durationTicks": 30,
            "midi": 58,
            "name": "A#3",
            "ticks": 36600,
            "time": 179.41167500000003,
            "velocity": 0.7874015748031497
          },
          {
            "duration": 0.14705874999998514,
            "durationTicks": 30,
            "midi": 56,
            "name": "G#3",
            "ticks": 36660,
            "time": 179.70579250000003,
            "velocity": 0.7874015748031497
          },
          {
            "duration": 0.14705875000001356,
            "durationTicks": 30,
            "midi": 56,
            "name": "G#3",
            "ticks": 36780,
            "time": 180.29402750000003,
            "velocity": 0.7874015748031497
          },
          {
            "duration": 0.14705874999998514,
            "durationTicks": 30,
            "midi": 60,
            "name": "C4",
            "ticks": 36814,
            "time": 180.46069408333338,
            "velocity": 0.7874015748031497
          },
          {
            "duration": 0.14705875000001356,
            "durationTicks": 30,
            "midi": 58,
            "name": "A#3",
            "ticks": 36900,
            "time": 180.88226250000002,
            "velocity": 0.7874015748031497
          },
          {
            "duration": 0.14705875000001356,
            "durationTicks": 30,
            "midi": 58,
            "name": "A#3",
            "ticks": 37020,
            "time": 181.47049750000002,
            "velocity": 0.7874015748031497
          },
          {
            "duration": 0.14705874999998514,
            "durationTicks": 30,
            "midi": 58,
            "name": "A#3",
            "ticks": 37050,
            "time": 181.61755625000004,
            "velocity": 0.7874015748031497
          },
          {
            "duration": 0.14705875000001356,
            "durationTicks": 30,
            "midi": 61,
            "name": "C#4",
            "ticks": 37080,
            "time": 181.76461500000002,
            "velocity": 0.7874015748031497
          },
          {
            "duration": 0.14705875000001356,
            "durationTicks": 30,
            "midi": 58,
            "name": "A#3",
            "ticks": 37125,
            "time": 181.98520312500003,
            "velocity": 0.7874015748031497
          },
          {
            "duration": 0.14705874999998514,
            "durationTicks": 30,
            "midi": 58,
            "name": "A#3",
            "ticks": 37170,
            "time": 182.20579125000003,
            "velocity": 0.7874015748031497
          },
          {
            "duration": 0.14705875000001356,
            "durationTicks": 30,
            "midi": 61,
            "name": "C#4",
            "ticks": 37200,
            "time": 182.35285000000002,
            "velocity": 0.7874015748031497
          },
          {
            "duration": 0.14705875000001356,
            "durationTicks": 30,
            "midi": 58,
            "name": "A#3",
            "ticks": 37245,
            "time": 182.57343812500002,
            "velocity": 0.7874015748031497
          },
          {
            "duration": 0.14705874999998514,
            "durationTicks": 30,
            "midi": 58,
            "name": "A#3",
            "ticks": 37290,
            "time": 182.79402625000003,
            "velocity": 0.7874015748031497
          },
          {
            "duration": 0.14705875000001356,
            "durationTicks": 30,
            "midi": 61,
            "name": "C#4",
            "ticks": 37320,
            "time": 182.94108500000002,
            "velocity": 0.7874015748031497
          },
          {
            "duration": 0.14705875000001356,
            "durationTicks": 30,
            "midi": 58,
            "name": "A#3",
            "ticks": 37380,
            "time": 183.2352025,
            "velocity": 0.7874015748031497
          }
        ]
      },
      {
        "channel": 0,
        "controlChanges": {
          "0": [
            {
              "number": 0,
              "ticks": 125,
              "time": 0.6127447916666667,
              "value": 0
            }
          ],
          "32": [
            {
              "number": 32,
              "ticks": 126,
              "time": 0.6176467500000001,
              "value": 0.8818897637795275
            }
          ]
        },
        "pitchBends": [],
        "instrument": {
          "family": "piano",
          "number": 0,
          "name": "acoustic grand piano"
        },
        "name": "",
        "notes": []
      },
      {
        "channel": 1,
        "controlChanges": {
          "7": [
            {
              "number": 7,
              "ticks": 128,
              "time": 0.6274506666666667,
              "value": 0.8267716535433071
            }
          ],
          "91": [
            {
              "number": 91,
              "ticks": 189,
              "time": 0.926470125,
              "value": 0.1732283464566929
            }
          ]
        },
        "pitchBends": [],
        "instrument": {
          "family": "bass",
          "number": 33,
          "name": "electric bass (finger)"
        },
        "name": "",
        "notes": [
          {
            "duration": 0.8578427083333366,
            "durationTicks": 175,
            "midi": 34,
            "name": "A#1",
            "ticks": 3357,
            "time": 16.455874125,
            "velocity": 0.6535433070866141
          },
          {
            "duration": 0.2745096666666669,
            "durationTicks": 56,
            "midi": 34,
            "name": "A#1",
            "ticks": 3533,
            "time": 17.31861879166667,
            "velocity": 0.6535433070866141
          },
          {
            "duration": 1.1764699999999984,
            "durationTicks": 240,
            "midi": 30,
            "name": "F#1",
            "ticks": 3593,
            "time": 17.612736291666668,
            "velocity": 0.6535433070866141
          },
          {
            "duration": 0.8627446666666714,
            "durationTicks": 176,
            "midi": 32,
            "name": "G#1",
            "ticks": 3833,
            "time": 18.789206291666666,
            "velocity": 0.6535433070866141
          },
          {
            "duration": 0.2745096666666669,
            "durationTicks": 56,
            "midi": 32,
            "name": "G#1",
            "ticks": 4013,
            "time": 19.67155879166667,
            "velocity": 0.6535433070866141
          },
          {
            "duration": 1.0294112500000026,
            "durationTicks": 210,
            "midi": 29,
            "name": "F1",
            "ticks": 4073,
            "time": 19.965676291666668,
            "velocity": 0.6535433070866141
          },
          {
            "duration": 0.2941174999999987,
            "durationTicks": 60,
            "midi": 30,
            "name": "F#1",
            "ticks": 4313,
            "time": 21.14214629166667,
            "velocity": 0.6535433070866141
          },
          {
            "duration": 0.14705874999999935,
            "durationTicks": 30,
            "midi": 30,
            "name": "F#1",
            "ticks": 4403,
            "time": 21.583322541666668,
            "velocity": 0.6535433070866141
          },
          {
            "duration": 0.14705874999999935,
            "durationTicks": 30,
            "midi": 30,
            "name": "F#1",
            "ticks": 4493,
            "time": 22.02449879166667,
            "velocity": 0.6535433070866141
          },
          {
            "duration": 0.29411750000000225,
            "durationTicks": 60,
            "midi": 32,
            "name": "G#1",
            "ticks": 4553,
            "time": 22.318616291666668,
            "velocity": 0.6535433070866141
          },
          {
            "duration": 0.14705874999999935,
            "durationTicks": 30,
            "midi": 32,
            "name": "G#1",
            "ticks": 4643,
            "time": 22.75979254166667,
            "velocity": 0.6535433070866141
          },
          {
            "duration": 0.1470587500000029,
            "durationTicks": 30,
            "midi": 32,
            "name": "G#1",
            "ticks": 4733,
            "time": 23.200968791666668,
            "velocity": 0.6535433070866141
          },
          {
            "duration": 0.29411750000000225,
            "durationTicks": 60,
            "midi": 34,
            "name": "A#1",
            "ticks": 4793,
            "time": 23.49508629166667,
            "velocity": 0.6535433070866141
          },
          {
            "duration": 0.14705874999999935,
            "durationTicks": 30,
            "midi": 34,
            "name": "A#1",
            "ticks": 4883,
            "time": 23.93626254166667,
            "velocity": 0.6535433070866141
          },
          {
            "duration": 0.1470587500000029,
            "durationTicks": 30,
            "midi": 34,
            "name": "A#1",
            "ticks": 4973,
            "time": 24.37743879166667,
            "velocity": 0.6535433070866141
          },
          {
            "duration": 0.2941174999999987,
            "durationTicks": 60,
            "midi": 34,
            "name": "A#1",
            "ticks": 5033,
            "time": 24.671556291666672,
            "velocity": 0.6535433070866141
          },
          {
            "duration": 0.1470587500000029,
            "durationTicks": 30,
            "midi": 34,
            "name": "A#1",
            "ticks": 5123,
            "time": 25.11273254166667,
            "velocity": 0.6535433070866141
          },
          {
            "duration": 0.14705874999999935,
            "durationTicks": 30,
            "midi": 34,
            "name": "A#1",
            "ticks": 5213,
            "time": 25.55390879166667,
            "velocity": 0.6535433070866141
          },
          {
            "duration": 0.8578427083333331,
            "durationTicks": 175,
            "midi": 34,
            "name": "A#1",
            "ticks": 5273,
            "time": 25.84802629166667,
            "velocity": 0.6535433070866141
          },
          {
            "duration": 0.2745096666666669,
            "durationTicks": 56,
            "midi": 34,
            "name": "A#1",
            "ticks": 5453,
            "time": 26.73037879166667,
            "velocity": 0.6535433070866141
          },
          {
            "duration": 1.1764699999999984,
            "durationTicks": 240,
            "midi": 30,
            "name": "F#1",
            "ticks": 5513,
            "time": 27.024496291666672,
            "velocity": 0.6535433070866141
          },
          {
            "duration": 0.8627446666666643,
            "durationTicks": 176,
            "midi": 32,
            "name": "G#1",
            "ticks": 5753,
            "time": 28.20096629166667,
            "velocity": 0.6535433070866141
          },
          {
            "duration": 0.2745096666666669,
            "durationTicks": 56,
            "midi": 32,
            "name": "G#1",
            "ticks": 5933,
            "time": 29.08331879166667,
            "velocity": 0.6535433070866141
          },
          {
            "duration": 1.029411249999999,
            "durationTicks": 210,
            "midi": 29,
            "name": "F1",
            "ticks": 5993,
            "time": 29.377436291666672,
            "velocity": 0.6535433070866141
          },
          {
            "duration": 0.29411750000000225,
            "durationTicks": 60,
            "midi": 30,
            "name": "F#1",
            "ticks": 6233,
            "time": 30.55390629166667,
            "velocity": 0.6535433070866141
          },
          {
            "duration": 0.14705874999999935,
            "durationTicks": 30,
            "midi": 30,
            "name": "F#1",
            "ticks": 6323,
            "time": 30.995082541666672,
            "velocity": 0.6535433070866141
          },
          {
            "duration": 0.1470587500000029,
            "durationTicks": 30,
            "midi": 30,
            "name": "F#1",
            "ticks": 6413,
            "time": 31.43625879166667,
            "velocity": 0.6535433070866141
          },
          {
            "duration": 0.2941174999999987,
            "durationTicks": 60,
            "midi": 32,
            "name": "G#1",
            "ticks": 6473,
            "time": 31.730376291666673,
            "velocity": 0.6535433070866141
          },
          {
            "duration": 0.14705874999999935,
            "durationTicks": 30,
            "midi": 32,
            "name": "G#1",
            "ticks": 6563,
            "time": 32.17155254166667,
            "velocity": 0.6535433070866141
          },
          {
            "duration": 0.14705874999999935,
            "durationTicks": 30,
            "midi": 32,
            "name": "G#1",
            "ticks": 6653,
            "time": 32.61272879166667,
            "velocity": 0.6535433070866141
          },
          {
            "duration": 0.2941175000000058,
            "durationTicks": 60,
            "midi": 34,
            "name": "A#1",
            "ticks": 6713,
            "time": 32.90684629166667,
            "velocity": 0.6535433070866141
          },
          {
            "duration": 0.14705874999999935,
            "durationTicks": 30,
            "midi": 34,
            "name": "A#1",
            "ticks": 6803,
            "time": 33.34802254166667,
            "velocity": 0.6535433070866141
          },
          {
            "duration": 0.14705875000000646,
            "durationTicks": 30,
            "midi": 34,
            "name": "A#1",
            "ticks": 6893,
            "time": 33.78919879166667,
            "velocity": 0.6535433070866141
          },
          {
            "duration": 0.8823524999999961,
            "durationTicks": 180,
            "midi": 34,
            "name": "A#1",
            "ticks": 7193,
            "time": 35.25978629166667,
            "velocity": 0.6535433070866141
          },
          {
            "duration": 0.8823524999999961,
            "durationTicks": 180,
            "midi": 30,
            "name": "F#1",
            "ticks": 7433,
            "time": 36.43625629166667,
            "velocity": 0.6535433070866141
          },
          {
            "duration": 0.8823524999999961,
            "durationTicks": 180,
            "midi": 32,
            "name": "G#1",
            "ticks": 7673,
            "time": 37.612726291666675,
            "velocity": 0.6535433070866141
          },
          {
            "duration": 0.8823525000000032,
            "durationTicks": 180,
            "midi": 29,
            "name": "F1",
            "ticks": 7913,
            "time": 38.78919629166667,
            "velocity": 0.6535433070866141
          },
          {
            "duration": 0.8823525000000032,
            "durationTicks": 180,
            "midi": 30,
            "name": "F#1",
            "ticks": 8153,
            "time": 39.96566629166667,
            "velocity": 0.6535433070866141
          },
          {
            "duration": 0.8823524999999961,
            "durationTicks": 180,
            "midi": 32,
            "name": "G#1",
            "ticks": 8393,
            "time": 41.142136291666674,
            "velocity": 0.6535433070866141
          },
          {
            "duration": 0.8823524999999961,
            "durationTicks": 180,
            "midi": 34,
            "name": "A#1",
            "ticks": 8633,
            "time": 42.318606291666676,
            "velocity": 0.6535433070866141
          },
          {
            "duration": 0.2941174999999987,
            "durationTicks": 60,
            "midi": 41,
            "name": "F2",
            "ticks": 8813,
            "time": 43.20095879166667,
            "velocity": 0.6535433070866141
          },
          {
            "duration": 0.22058812499999902,
            "durationTicks": 45,
            "midi": 46,
            "name": "A#2",
            "ticks": 8873,
            "time": 43.49507629166667,
            "velocity": 0.6535433070866141
          },
          {
            "duration": 0.22058812499999902,
            "durationTicks": 45,
            "midi": 46,
            "name": "A#2",
            "ticks": 8933,
            "time": 43.78919379166667,
            "velocity": 0.6535433070866141
          },
          {
            "duration": 0.5882350000000045,
            "durationTicks": 120,
            "midi": 41,
            "name": "F2",
            "ticks": 8993,
            "time": 44.08331129166667,
            "velocity": 0.6535433070866141
          },
          {
            "duration": 1.0294112499999954,
            "durationTicks": 210,
            "midi": 22,
            "name": "A#0",
            "ticks": 9113,
            "time": 44.67154629166667,
            "velocity": 0.6535433070866141
          },
          {
            "duration": 1.0294112499999954,
            "durationTicks": 210,
            "midi": 34,
            "name": "A#1",
            "ticks": 9113,
            "time": 44.67154629166667,
            "velocity": 0.6535433070866141
          },
          {
            "duration": 1.0294112500000026,
            "durationTicks": 210,
            "midi": 22,
            "name": "A#0",
            "ticks": 9593,
            "time": 47.02448629166667,
            "velocity": 0.6535433070866141
          },
          {
            "duration": 1.0294112500000026,
            "durationTicks": 210,
            "midi": 34,
            "name": "A#1",
            "ticks": 9593,
            "time": 47.02448629166667,
            "velocity": 0.6535433070866141
          },
          {
            "duration": 1.0294112499999954,
            "durationTicks": 210,
            "midi": 34,
            "name": "A#1",
            "ticks": 10073,
            "time": 49.37742629166667,
            "velocity": 0.6535433070866141
          },
          {
            "duration": 1.0294112499999954,
            "durationTicks": 210,
            "midi": 22,
            "name": "A#0",
            "ticks": 10073,
            "time": 49.37742629166667,
            "velocity": 0.6535433070866141
          },
          {
            "duration": 1.0294112500000026,
            "durationTicks": 210,
            "midi": 34,
            "name": "A#1",
            "ticks": 10553,
            "time": 51.73036629166667,
            "velocity": 0.6535433070866141
          },
          {
            "duration": 1.0294112500000026,
            "durationTicks": 210,
            "midi": 22,
            "name": "A#0",
            "ticks": 10553,
            "time": 51.73036629166667,
            "velocity": 0.6535433070866141
          },
          {
            "duration": 1.0294112499999954,
            "durationTicks": 210,
            "midi": 22,
            "name": "A#0",
            "ticks": 10793,
            "time": 52.90683629166667,
            "velocity": 0.6535433070866141
          },
          {
            "duration": 1.0294112499999954,
            "durationTicks": 210,
            "midi": 34,
            "name": "A#1",
            "ticks": 10793,
            "time": 52.90683629166667,
            "velocity": 0.6535433070866141
          },
          {
            "duration": 1.0294112499999954,
            "durationTicks": 210,
            "midi": 22,
            "name": "A#0",
            "ticks": 11033,
            "time": 54.08330629166667,
            "velocity": 0.6535433070866141
          },
          {
            "duration": 1.0294112499999954,
            "durationTicks": 210,
            "midi": 34,
            "name": "A#1",
            "ticks": 11033,
            "time": 54.08330629166667,
            "velocity": 0.6535433070866141
          },
          {
            "duration": 1.0294112500000026,
            "durationTicks": 210,
            "midi": 34,
            "name": "A#1",
            "ticks": 11513,
            "time": 56.43624629166667,
            "velocity": 0.6535433070866141
          },
          {
            "duration": 1.0294112500000026,
            "durationTicks": 210,
            "midi": 22,
            "name": "A#0",
            "ticks": 11513,
            "time": 56.43624629166667,
            "velocity": 0.6535433070866141
          },
          {
            "duration": 1.0294112499999954,
            "durationTicks": 210,
            "midi": 22,
            "name": "A#0",
            "ticks": 11993,
            "time": 58.789186291666674,
            "velocity": 0.6535433070866141
          },
          {
            "duration": 1.0294112499999954,
            "durationTicks": 210,
            "midi": 34,
            "name": "A#1",
            "ticks": 11993,
            "time": 58.789186291666674,
            "velocity": 0.6535433070866141
          },
          {
            "duration": 1.0294112500000026,
            "durationTicks": 210,
            "midi": 34,
            "name": "A#1",
            "ticks": 12473,
            "time": 61.14212629166667,
            "velocity": 0.6535433070866141
          },
          {
            "duration": 1.0294112500000026,
            "durationTicks": 210,
            "midi": 22,
            "name": "A#0",
            "ticks": 12473,
            "time": 61.14212629166667,
            "velocity": 0.6535433070866141
          },
          {
            "duration": 1.0294112499999954,
            "durationTicks": 210,
            "midi": 22,
            "name": "A#0",
            "ticks": 12713,
            "time": 62.31859629166667,
            "velocity": 0.6535433070866141
          },
          {
            "duration": 1.0294112499999954,
            "durationTicks": 210,
            "midi": 34,
            "name": "A#1",
            "ticks": 12713,
            "time": 62.31859629166667,
            "velocity": 0.6535433070866141
          },
          {
            "duration": 0.8578427083333366,
            "durationTicks": 175,
            "midi": 34,
            "name": "A#1",
            "ticks": 12953,
            "time": 63.495066291666674,
            "velocity": 0.6535433070866141
          },
          {
            "duration": 0.274509666666674,
            "durationTicks": 56,
            "midi": 34,
            "name": "A#1",
            "ticks": 13133,
            "time": 64.37741879166667,
            "velocity": 0.6535433070866141
          },
          {
            "duration": 1.176470000000009,
            "durationTicks": 240,
            "midi": 30,
            "name": "F#1",
            "ticks": 13193,
            "time": 64.67153629166667,
            "velocity": 0.6535433070866141
          },
          {
            "duration": 0.8627446666666572,
            "durationTicks": 176,
            "midi": 32,
            "name": "G#1",
            "ticks": 13433,
            "time": 65.84800629166668,
            "velocity": 0.6535433070866141
          },
          {
            "duration": 0.27450966666665977,
            "durationTicks": 56,
            "midi": 32,
            "name": "G#1",
            "ticks": 13613,
            "time": 66.73035879166667,
            "velocity": 0.6535433070866141
          },
          {
            "duration": 1.0294112499999954,
            "durationTicks": 210,
            "midi": 29,
            "name": "F1",
            "ticks": 13673,
            "time": 67.02447629166667,
            "velocity": 0.6535433070866141
          },
          {
            "duration": 0.2941174999999987,
            "durationTicks": 60,
            "midi": 30,
            "name": "F#1",
            "ticks": 13913,
            "time": 68.20094629166667,
            "velocity": 0.6535433070866141
          },
          {
            "duration": 0.14705874999998514,
            "durationTicks": 30,
            "midi": 30,
            "name": "F#1",
            "ticks": 14003,
            "time": 68.64212254166668,
            "velocity": 0.6535433070866141
          },
          {
            "duration": 0.14705875000001356,
            "durationTicks": 30,
            "midi": 30,
            "name": "F#1",
            "ticks": 14093,
            "time": 69.08329879166666,
            "velocity": 0.6535433070866141
          },
          {
            "duration": 0.2941174999999987,
            "durationTicks": 60,
            "midi": 32,
            "name": "G#1",
            "ticks": 14153,
            "time": 69.37741629166666,
            "velocity": 0.6535433070866141
          },
          {
            "duration": 0.14705874999998514,
            "durationTicks": 30,
            "midi": 32,
            "name": "G#1",
            "ticks": 14243,
            "time": 69.81859254166667,
            "velocity": 0.6535433070866141
          },
          {
            "duration": 0.14705875000001356,
            "durationTicks": 30,
            "midi": 32,
            "name": "G#1",
            "ticks": 14333,
            "time": 70.25976879166666,
            "velocity": 0.6535433070866141
          },
          {
            "duration": 0.2941174999999987,
            "durationTicks": 60,
            "midi": 34,
            "name": "A#1",
            "ticks": 14393,
            "time": 70.55388629166669,
            "velocity": 0.6535433070866141
          },
          {
            "duration": 0.14705875000001356,
            "durationTicks": 30,
            "midi": 34,
            "name": "A#1",
            "ticks": 14483,
            "time": 70.99506254166667,
            "velocity": 0.6535433070866141
          },
          {
            "duration": 0.14705874999998514,
            "durationTicks": 30,
            "midi": 34,
            "name": "A#1",
            "ticks": 14573,
            "time": 71.43623879166668,
            "velocity": 0.6535433070866141
          },
          {
            "duration": 0.2941174999999987,
            "durationTicks": 60,
            "midi": 34,
            "name": "A#1",
            "ticks": 14633,
            "time": 71.73035629166668,
            "velocity": 0.6535433070866141
          },
          {
            "duration": 0.14705875000001356,
            "durationTicks": 30,
            "midi": 34,
            "name": "A#1",
            "ticks": 14723,
            "time": 72.17153254166666,
            "velocity": 0.6535433070866141
          },
          {
            "duration": 0.14705874999998514,
            "durationTicks": 30,
            "midi": 34,
            "name": "A#1",
            "ticks": 14813,
            "time": 72.61270879166668,
            "velocity": 0.6535433070866141
          },
          {
            "duration": 0.8578427083333224,
            "durationTicks": 175,
            "midi": 34,
            "name": "A#1",
            "ticks": 14873,
            "time": 72.90682629166668,
            "velocity": 0.6535433070866141
          },
          {
            "duration": 0.27450966666665977,
            "durationTicks": 56,
            "midi": 34,
            "name": "A#1",
            "ticks": 15053,
            "time": 73.78917879166667,
            "velocity": 0.6535433070866141
          },
          {
            "duration": 1.1764699999999948,
            "durationTicks": 240,
            "midi": 30,
            "name": "F#1",
            "ticks": 15113,
            "time": 74.08329629166667,
            "velocity": 0.6535433070866141
          },
          {
            "duration": 0.8627446666666856,
            "durationTicks": 176,
            "midi": 32,
            "name": "G#1",
            "ticks": 15353,
            "time": 75.25976629166666,
            "velocity": 0.6535433070866141
          },
          {
            "duration": 0.2745096666666882,
            "durationTicks": 56,
            "midi": 32,
            "name": "G#1",
            "ticks": 15533,
            "time": 76.14211879166666,
            "velocity": 0.6535433070866141
          },
          {
            "duration": 1.0294112500000097,
            "durationTicks": 210,
            "midi": 29,
            "name": "F1",
            "ticks": 15593,
            "time": 76.43623629166666,
            "velocity": 0.6535433070866141
          },
          {
            "duration": 0.2941174999999987,
            "durationTicks": 60,
            "midi": 30,
            "name": "F#1",
            "ticks": 15833,
            "time": 77.61270629166668,
            "velocity": 0.6535433070866141
          },
          {
            "duration": 0.14705875000001356,
            "durationTicks": 30,
            "midi": 30,
            "name": "F#1",
            "ticks": 15923,
            "time": 78.05388254166667,
            "velocity": 0.6535433070866141
          },
          {
            "duration": 0.14705874999998514,
            "durationTicks": 30,
            "midi": 30,
            "name": "F#1",
            "ticks": 16013,
            "time": 78.49505879166668,
            "velocity": 0.6535433070866141
          },
          {
            "duration": 0.2941174999999987,
            "durationTicks": 60,
            "midi": 32,
            "name": "G#1",
            "ticks": 16073,
            "time": 78.78917629166668,
            "velocity": 0.6535433070866141
          },
          {
            "duration": 0.14705875000001356,
            "durationTicks": 30,
            "midi": 32,
            "name": "G#1",
            "ticks": 16163,
            "time": 79.23035254166666,
            "velocity": 0.6535433070866141
          },
          {
            "duration": 0.14705874999998514,
            "durationTicks": 30,
            "midi": 32,
            "name": "G#1",
            "ticks": 16253,
            "time": 79.67152879166667,
            "velocity": 0.6535433070866141
          },
          {
            "duration": 0.2941174999999987,
            "durationTicks": 60,
            "midi": 34,
            "name": "A#1",
            "ticks": 16313,
            "time": 79.96564629166667,
            "velocity": 0.6535433070866141
          },
          {
            "duration": 0.14705874999998514,
            "durationTicks": 30,
            "midi": 34,
            "name": "A#1",
            "ticks": 16403,
            "time": 80.40682254166668,
            "velocity": 0.6535433070866141
          },
          {
            "duration": 0.8823525000000245,
            "durationTicks": 180,
            "midi": 34,
            "name": "A#1",
            "ticks": 16793,
            "time": 82.31858629166666,
            "velocity": 0.6535433070866141
          },
          {
            "duration": 0.8823524999999961,
            "durationTicks": 180,
            "midi": 30,
            "name": "F#1",
            "ticks": 17033,
            "time": 83.49505629166669,
            "velocity": 0.6535433070866141
          },
          {
            "duration": 0.8823524999999961,
            "durationTicks": 180,
            "midi": 32,
            "name": "G#1",
            "ticks": 17273,
            "time": 84.67152629166668,
            "velocity": 0.6535433070866141
          },
          {
            "duration": 0.8823524999999961,
            "durationTicks": 180,
            "midi": 29,
            "name": "F1",
            "ticks": 17513,
            "time": 85.84799629166668,
            "velocity": 0.6535433070866141
          },
          {
            "duration": 0.8823524999999961,
            "durationTicks": 180,
            "midi": 30,
            "name": "F#1",
            "ticks": 17753,
            "time": 87.02446629166667,
            "velocity": 0.6535433070866141
          },
          {
            "duration": 0.8823524999999961,
            "durationTicks": 180,
            "midi": 32,
            "name": "G#1",
            "ticks": 17993,
            "time": 88.20093629166666,
            "velocity": 0.6535433070866141
          },
          {
            "duration": 0.8823524999999961,
            "durationTicks": 180,
            "midi": 34,
            "name": "A#1",
            "ticks": 18233,
            "time": 89.37740629166669,
            "velocity": 0.6535433070866141
          },
          {
            "duration": 0.8823524999999961,
            "durationTicks": 180,
            "midi": 34,
            "name": "A#1",
            "ticks": 18473,
            "time": 90.55387629166668,
            "velocity": 0.6535433070866141
          },
          {
            "duration": 0.8823524999999961,
            "durationTicks": 180,
            "midi": 34,
            "name": "A#1",
            "ticks": 18713,
            "time": 91.73034629166668,
            "velocity": 0.6535433070866141
          },
          {
            "duration": 0.8823524999999961,
            "durationTicks": 180,
            "midi": 30,
            "name": "F#1",
            "ticks": 18953,
            "time": 92.90681629166667,
            "velocity": 0.6535433070866141
          },
          {
            "duration": 0.8823524999999961,
            "durationTicks": 180,
            "midi": 32,
            "name": "G#1",
            "ticks": 19193,
            "time": 94.08328629166667,
            "velocity": 0.6535433070866141
          },
          {
            "duration": 0.8823525000000245,
            "durationTicks": 180,
            "midi": 29,
            "name": "F1",
            "ticks": 19433,
            "time": 95.25975629166666,
            "velocity": 0.6535433070866141
          },
          {
            "duration": 0.8823524999999961,
            "durationTicks": 180,
            "midi": 30,
            "name": "F#1",
            "ticks": 19673,
            "time": 96.43622629166669,
            "velocity": 0.6535433070866141
          },
          {
            "duration": 0.8823524999999961,
            "durationTicks": 180,
            "midi": 32,
            "name": "G#1",
            "ticks": 19913,
            "time": 97.61269629166668,
            "velocity": 0.6535433070866141
          },
          {
            "duration": 0.8823524999999961,
            "durationTicks": 180,
            "midi": 34,
            "name": "A#1",
            "ticks": 20153,
            "time": 98.78916629166667,
            "velocity": 0.6535433070866141
          },
          {
            "duration": 0.2941174999999987,
            "durationTicks": 60,
            "midi": 41,
            "name": "F2",
            "ticks": 20333,
            "time": 99.67151879166667,
            "velocity": 0.6535433070866141
          },
          {
            "duration": 0.22058812500000613,
            "durationTicks": 45,
            "midi": 46,
            "name": "A#2",
            "ticks": 20393,
            "time": 99.96563629166667,
            "velocity": 0.6535433070866141
          },
          {
            "duration": 0.22058812500000613,
            "durationTicks": 45,
            "midi": 46,
            "name": "A#2",
            "ticks": 20453,
            "time": 100.25975379166667,
            "velocity": 0.6535433070866141
          },
          {
            "duration": 0.5882349999999974,
            "durationTicks": 120,
            "midi": 41,
            "name": "F2",
            "ticks": 20513,
            "time": 100.55387129166667,
            "velocity": 0.6535433070866141
          },
          {
            "duration": 1.0294112500000097,
            "durationTicks": 210,
            "midi": 22,
            "name": "A#0",
            "ticks": 20633,
            "time": 101.14210629166666,
            "velocity": 0.6535433070866141
          },
          {
            "duration": 1.0294112500000097,
            "durationTicks": 210,
            "midi": 34,
            "name": "A#1",
            "ticks": 20633,
            "time": 101.14210629166666,
            "velocity": 0.6535433070866141
          },
          {
            "duration": 1.0294112499999812,
            "durationTicks": 210,
            "midi": 22,
            "name": "A#0",
            "ticks": 21113,
            "time": 103.49504629166668,
            "velocity": 0.6535433070866141
          },
          {
            "duration": 1.0294112499999812,
            "durationTicks": 210,
            "midi": 34,
            "name": "A#1",
            "ticks": 21113,
            "time": 103.49504629166668,
            "velocity": 0.6535433070866141
          },
          {
            "duration": 1.0294112500000097,
            "durationTicks": 210,
            "midi": 34,
            "name": "A#1",
            "ticks": 21593,
            "time": 105.84798629166667,
            "velocity": 0.6535433070866141
          },
          {
            "duration": 1.0294112500000097,
            "durationTicks": 210,
            "midi": 22,
            "name": "A#0",
            "ticks": 21593,
            "time": 105.84798629166667,
            "velocity": 0.6535433070866141
          },
          {
            "duration": 1.0294112499999812,
            "durationTicks": 210,
            "midi": 34,
            "name": "A#1",
            "ticks": 22073,
            "time": 108.20092629166669,
            "velocity": 0.6535433070866141
          },
          {
            "duration": 1.0294112499999812,
            "durationTicks": 210,
            "midi": 22,
            "name": "A#0",
            "ticks": 22073,
            "time": 108.20092629166669,
            "velocity": 0.6535433070866141
          },
          {
            "duration": 1.0294112499999812,
            "durationTicks": 210,
            "midi": 22,
            "name": "A#0",
            "ticks": 22313,
            "time": 109.37739629166668,
            "velocity": 0.6535433070866141
          },
          {
            "duration": 0.8823524999999961,
            "durationTicks": 180,
            "midi": 34,
            "name": "A#1",
            "ticks": 22313,
            "time": 109.37739629166668,
            "velocity": 0.6535433070866141
          },
          {
            "duration": 1.0294112500000097,
            "durationTicks": 210,
            "midi": 22,
            "name": "A#0",
            "ticks": 22553,
            "time": 110.55386629166668,
            "velocity": 0.6535433070866141
          },
          {
            "duration": 1.0294112500000097,
            "durationTicks": 210,
            "midi": 34,
            "name": "A#1",
            "ticks": 22553,
            "time": 110.55386629166668,
            "velocity": 0.6535433070866141
          },
          {
            "duration": 1.0294112500000097,
            "durationTicks": 210,
            "midi": 34,
            "name": "A#1",
            "ticks": 23033,
            "time": 112.90680629166667,
            "velocity": 0.6535433070866141
          },
          {
            "duration": 1.0294112500000097,
            "durationTicks": 210,
            "midi": 22,
            "name": "A#0",
            "ticks": 23033,
            "time": 112.90680629166667,
            "velocity": 0.6535433070866141
          },
          {
            "duration": 1.0294112499999812,
            "durationTicks": 210,
            "midi": 22,
            "name": "A#0",
            "ticks": 23513,
            "time": 115.25974629166669,
            "velocity": 0.6535433070866141
          },
          {
            "duration": 1.0294112499999812,
            "durationTicks": 210,
            "midi": 34,
            "name": "A#1",
            "ticks": 23513,
            "time": 115.25974629166669,
            "velocity": 0.6535433070866141
          },
          {
            "duration": 1.0294112500000097,
            "durationTicks": 210,
            "midi": 34,
            "name": "A#1",
            "ticks": 23993,
            "time": 117.61268629166668,
            "velocity": 0.6535433070866141
          },
          {
            "duration": 1.0294112500000097,
            "durationTicks": 210,
            "midi": 22,
            "name": "A#0",
            "ticks": 23993,
            "time": 117.61268629166668,
            "velocity": 0.6535433070866141
          },
          {
            "duration": 1.0294112500000097,
            "durationTicks": 210,
            "midi": 22,
            "name": "A#0",
            "ticks": 24233,
            "time": 118.78915629166667,
            "velocity": 0.6535433070866141
          },
          {
            "duration": 1.0294112500000097,
            "durationTicks": 210,
            "midi": 34,
            "name": "A#1",
            "ticks": 24233,
            "time": 118.78915629166667,
            "velocity": 0.6535433070866141
          },
          {
            "duration": 1.0294112500000097,
            "durationTicks": 210,
            "midi": 22,
            "name": "A#0",
            "ticks": 24473,
            "time": 119.96562629166667,
            "velocity": 0.6535433070866141
          },
          {
            "duration": 1.0294112500000097,
            "durationTicks": 210,
            "midi": 34,
            "name": "A#1",
            "ticks": 24473,
            "time": 119.96562629166667,
            "velocity": 0.6535433070866141
          },
          {
            "duration": 1.0294112499999812,
            "durationTicks": 210,
            "midi": 22,
            "name": "A#0",
            "ticks": 24953,
            "time": 122.31856629166668,
            "velocity": 0.6535433070866141
          },
          {
            "duration": 1.0294112499999812,
            "durationTicks": 210,
            "midi": 34,
            "name": "A#1",
            "ticks": 24953,
            "time": 122.31856629166668,
            "velocity": 0.6535433070866141
          },
          {
            "duration": 1.0294112500000097,
            "durationTicks": 210,
            "midi": 34,
            "name": "A#1",
            "ticks": 25433,
            "time": 124.67150629166667,
            "velocity": 0.6535433070866141
          },
          {
            "duration": 1.0294112500000097,
            "durationTicks": 210,
            "midi": 22,
            "name": "A#0",
            "ticks": 25433,
            "time": 124.67150629166667,
            "velocity": 0.6535433070866141
          },
          {
            "duration": 1.0294112499999812,
            "durationTicks": 210,
            "midi": 34,
            "name": "A#1",
            "ticks": 25913,
            "time": 127.02444629166669,
            "velocity": 0.6535433070866141
          },
          {
            "duration": 1.0294112499999812,
            "durationTicks": 210,
            "midi": 22,
            "name": "A#0",
            "ticks": 25913,
            "time": 127.02444629166669,
            "velocity": 0.6535433070866141
          },
          {
            "duration": 1.0294112499999812,
            "durationTicks": 210,
            "midi": 22,
            "name": "A#0",
            "ticks": 26153,
            "time": 128.2009162916667,
            "velocity": 0.6535433070866141
          },
          {
            "duration": 0.8823524999999961,
            "durationTicks": 180,
            "midi": 34,
            "name": "A#1",
            "ticks": 26153,
            "time": 128.2009162916667,
            "velocity": 0.6535433070866141
          },
          {
            "duration": 0.8578427083333224,
            "durationTicks": 175,
            "midi": 34,
            "name": "A#1",
            "ticks": 26393,
            "time": 129.37738629166668,
            "velocity": 0.6535433070866141
          },
          {
            "duration": 0.27450966666665977,
            "durationTicks": 56,
            "midi": 34,
            "name": "A#1",
            "ticks": 26573,
            "time": 130.25973879166668,
            "velocity": 0.6535433070866141
          },
          {
            "duration": 1.1764699999999948,
            "durationTicks": 240,
            "midi": 30,
            "name": "F#1",
            "ticks": 26633,
            "time": 130.55385629166668,
            "velocity": 0.6535433070866141
          },
          {
            "duration": 0.8627446666666856,
            "durationTicks": 176,
            "midi": 32,
            "name": "G#1",
            "ticks": 26873,
            "time": 131.73032629166667,
            "velocity": 0.6535433070866141
          },
          {
            "duration": 0.2745096666666882,
            "durationTicks": 56,
            "midi": 32,
            "name": "G#1",
            "ticks": 27053,
            "time": 132.61267879166667,
            "velocity": 0.6535433070866141
          },
          {
            "duration": 1.0294112499999812,
            "durationTicks": 210,
            "midi": 29,
            "name": "F1",
            "ticks": 27113,
            "time": 132.9067962916667,
            "velocity": 0.6535433070866141
          },
          {
            "duration": 0.2941174999999987,
            "durationTicks": 60,
            "midi": 30,
            "name": "F#1",
            "ticks": 27353,
            "time": 134.0832662916667,
            "velocity": 0.6535433070866141
          },
          {
            "duration": 0.14705875000001356,
            "durationTicks": 30,
            "midi": 30,
            "name": "F#1",
            "ticks": 27443,
            "time": 134.52444254166667,
            "velocity": 0.6535433070866141
          },
          {
            "duration": 0.14705875000001356,
            "durationTicks": 30,
            "midi": 30,
            "name": "F#1",
            "ticks": 27533,
            "time": 134.96561879166669,
            "velocity": 0.6535433070866141
          },
          {
            "duration": 0.2941174999999987,
            "durationTicks": 60,
            "midi": 32,
            "name": "G#1",
            "ticks": 27593,
            "time": 135.25973629166668,
            "velocity": 0.6535433070866141
          },
          {
            "duration": 0.14705874999998514,
            "durationTicks": 30,
            "midi": 32,
            "name": "G#1",
            "ticks": 27683,
            "time": 135.7009125416667,
            "velocity": 0.6535433070866141
          },
          {
            "duration": 0.14705875000001356,
            "durationTicks": 30,
            "midi": 32,
            "name": "G#1",
            "ticks": 27773,
            "time": 136.14208879166668,
            "velocity": 0.6535433070866141
          },
          {
            "duration": 0.2941174999999987,
            "durationTicks": 60,
            "midi": 34,
            "name": "A#1",
            "ticks": 27833,
            "time": 136.43620629166668,
            "velocity": 0.6535433070866141
          },
          {
            "duration": 0.14705874999998514,
            "durationTicks": 30,
            "midi": 34,
            "name": "A#1",
            "ticks": 27923,
            "time": 136.8773825416667,
            "velocity": 0.6535433070866141
          },
          {
            "duration": 0.14705875000001356,
            "durationTicks": 30,
            "midi": 34,
            "name": "A#1",
            "ticks": 28013,
            "time": 137.31855879166667,
            "velocity": 0.6535433070866141
          },
          {
            "duration": 0.2941175000000271,
            "durationTicks": 60,
            "midi": 34,
            "name": "A#1",
            "ticks": 28073,
            "time": 137.61267629166667,
            "velocity": 0.6535433070866141
          },
          {
            "duration": 0.14705875000001356,
            "durationTicks": 30,
            "midi": 34,
            "name": "A#1",
            "ticks": 28163,
            "time": 138.05385254166669,
            "velocity": 0.6535433070866141
          },
          {
            "duration": 0.14705874999998514,
            "durationTicks": 30,
            "midi": 34,
            "name": "A#1",
            "ticks": 28253,
            "time": 138.4950287916667,
            "velocity": 0.6535433070866141
          },
          {
            "duration": 0.8578427083333224,
            "durationTicks": 175,
            "midi": 34,
            "name": "A#1",
            "ticks": 28313,
            "time": 138.7891462916667,
            "velocity": 0.6535433070866141
          },
          {
            "duration": 0.27450966666665977,
            "durationTicks": 56,
            "midi": 34,
            "name": "A#1",
            "ticks": 28493,
            "time": 139.6714987916667,
            "velocity": 0.6535433070866141
          },
          {
            "duration": 1.1764699999999948,
            "durationTicks": 240,
            "midi": 30,
            "name": "F#1",
            "ticks": 28553,
            "time": 139.9656162916667,
            "velocity": 0.6535433070866141
          },
          {
            "duration": 0.8627446666666572,
            "durationTicks": 176,
            "midi": 32,
            "name": "G#1",
            "ticks": 28793,
            "time": 141.1420862916667,
            "velocity": 0.6535433070866141
          },
          {
            "duration": 0.27450966666665977,
            "durationTicks": 56,
            "midi": 32,
            "name": "G#1",
            "ticks": 28973,
            "time": 142.02443879166668,
            "velocity": 0.6535433070866141
          },
          {
            "duration": 1.0294112500000097,
            "durationTicks": 210,
            "midi": 29,
            "name": "F1",
            "ticks": 29033,
            "time": 142.31855629166668,
            "velocity": 0.6535433070866141
          },
          {
            "duration": 0.2941174999999987,
            "durationTicks": 60,
            "midi": 30,
            "name": "F#1",
            "ticks": 29273,
            "time": 143.49502629166668,
            "velocity": 0.6535433070866141
          },
          {
            "duration": 0.14705874999998514,
            "durationTicks": 30,
            "midi": 30,
            "name": "F#1",
            "ticks": 29363,
            "time": 143.9362025416667,
            "velocity": 0.6535433070866141
          },
          {
            "duration": 0.14705874999998514,
            "durationTicks": 30,
            "midi": 30,
            "name": "F#1",
            "ticks": 29453,
            "time": 144.3773787916667,
            "velocity": 0.6535433070866141
          },
          {
            "duration": 0.2941174999999987,
            "durationTicks": 60,
            "midi": 32,
            "name": "G#1",
            "ticks": 29513,
            "time": 144.6714962916667,
            "velocity": 0.6535433070866141
          },
          {
            "duration": 0.14705875000001356,
            "durationTicks": 30,
            "midi": 32,
            "name": "G#1",
            "ticks": 29603,
            "time": 145.11267254166668,
            "velocity": 0.6535433070866141
          },
          {
            "duration": 0.14705874999998514,
            "durationTicks": 30,
            "midi": 32,
            "name": "G#1",
            "ticks": 29693,
            "time": 145.5538487916667,
            "velocity": 0.6535433070866141
          },
          {
            "duration": 0.2941174999999987,
            "durationTicks": 60,
            "midi": 34,
            "name": "A#1",
            "ticks": 29753,
            "time": 145.8479662916667,
            "velocity": 0.6535433070866141
          },
          {
            "duration": 0.14705875000001356,
            "durationTicks": 30,
            "midi": 34,
            "name": "A#1",
            "ticks": 29843,
            "time": 146.28914254166668,
            "velocity": 0.6535433070866141
          },
          {
            "duration": 0.14705874999998514,
            "durationTicks": 30,
            "midi": 34,
            "name": "A#1",
            "ticks": 29933,
            "time": 146.7303187916667,
            "velocity": 0.6535433070866141
          },
          {
            "duration": 1.0294112500000097,
            "durationTicks": 210,
            "midi": 22,
            "name": "A#0",
            "ticks": 30233,
            "time": 148.20090629166668,
            "velocity": 0.6535433070866141
          },
          {
            "duration": 1.0294112500000097,
            "durationTicks": 210,
            "midi": 34,
            "name": "A#1",
            "ticks": 30233,
            "time": 148.20090629166668,
            "velocity": 0.6535433070866141
          },
          {
            "duration": 1.0294112499999812,
            "durationTicks": 210,
            "midi": 22,
            "name": "A#0",
            "ticks": 30713,
            "time": 150.5538462916667,
            "velocity": 0.6535433070866141
          },
          {
            "duration": 1.0294112499999812,
            "durationTicks": 210,
            "midi": 34,
            "name": "A#1",
            "ticks": 30713,
            "time": 150.5538462916667,
            "velocity": 0.6535433070866141
          },
          {
            "duration": 1.0294112500000097,
            "durationTicks": 210,
            "midi": 34,
            "name": "A#1",
            "ticks": 31193,
            "time": 152.9067862916667,
            "velocity": 0.6535433070866141
          },
          {
            "duration": 1.0294112500000097,
            "durationTicks": 210,
            "midi": 22,
            "name": "A#0",
            "ticks": 31193,
            "time": 152.9067862916667,
            "velocity": 0.6535433070866141
          },
          {
            "duration": 1.0294112500000097,
            "durationTicks": 210,
            "midi": 34,
            "name": "A#1",
            "ticks": 31673,
            "time": 155.25972629166668,
            "velocity": 0.6535433070866141
          },
          {
            "duration": 1.0294112500000097,
            "durationTicks": 210,
            "midi": 22,
            "name": "A#0",
            "ticks": 31673,
            "time": 155.25972629166668,
            "velocity": 0.6535433070866141
          },
          {
            "duration": 1.0294112500000097,
            "durationTicks": 210,
            "midi": 22,
            "name": "A#0",
            "ticks": 31913,
            "time": 156.43619629166668,
            "velocity": 0.6535433070866141
          },
          {
            "duration": 0.8823525000000245,
            "durationTicks": 180,
            "midi": 34,
            "name": "A#1",
            "ticks": 31913,
            "time": 156.43619629166668,
            "velocity": 0.6535433070866141
          },
          {
            "duration": 1.0294112499999812,
            "durationTicks": 210,
            "midi": 34,
            "name": "A#1",
            "ticks": 32153,
            "time": 157.6126662916667,
            "velocity": 0.6535433070866141
          },
          {
            "duration": 1.0294112499999812,
            "durationTicks": 210,
            "midi": 22,
            "name": "A#0",
            "ticks": 32153,
            "time": 157.6126662916667,
            "velocity": 0.6535433070866141
          },
          {
            "duration": 1.0294112500000097,
            "durationTicks": 210,
            "midi": 34,
            "name": "A#1",
            "ticks": 32633,
            "time": 159.9656062916667,
            "velocity": 0.6535433070866141
          },
          {
            "duration": 1.0294112500000097,
            "durationTicks": 210,
            "midi": 22,
            "name": "A#0",
            "ticks": 32633,
            "time": 159.9656062916667,
            "velocity": 0.6535433070866141
          },
          {
            "duration": 1.0294112500000097,
            "durationTicks": 210,
            "midi": 22,
            "name": "A#0",
            "ticks": 32873,
            "time": 161.14207629166668,
            "velocity": 0.6535433070866141
          },
          {
            "duration": 0.8823524999999961,
            "durationTicks": 180,
            "midi": 34,
            "name": "A#1",
            "ticks": 32873,
            "time": 161.14207629166668,
            "velocity": 0.6535433070866141
          },
          {
            "duration": 1.0294112500000097,
            "durationTicks": 210,
            "midi": 34,
            "name": "A#1",
            "ticks": 33113,
            "time": 162.31854629166668,
            "velocity": 0.6535433070866141
          },
          {
            "duration": 1.0294112500000097,
            "durationTicks": 210,
            "midi": 22,
            "name": "A#0",
            "ticks": 33113,
            "time": 162.31854629166668,
            "velocity": 0.6535433070866141
          },
          {
            "duration": 1.0294112499999812,
            "durationTicks": 210,
            "midi": 22,
            "name": "A#0",
            "ticks": 33353,
            "time": 163.4950162916667,
            "velocity": 0.6535433070866141
          },
          {
            "duration": 0.8823524999999961,
            "durationTicks": 180,
            "midi": 34,
            "name": "A#1",
            "ticks": 33353,
            "time": 163.4950162916667,
            "velocity": 0.6535433070866141
          },
          {
            "duration": 0.8823524999999961,
            "durationTicks": 180,
            "midi": 34,
            "name": "A#1",
            "ticks": 33593,
            "time": 164.6714862916667,
            "velocity": 0.6535433070866141
          },
          {
            "duration": 0.8823524999999961,
            "durationTicks": 180,
            "midi": 30,
            "name": "F#1",
            "ticks": 33833,
            "time": 165.8479562916667,
            "velocity": 0.6535433070866141
          },
          {
            "duration": 0.8823524999999961,
            "durationTicks": 180,
            "midi": 32,
            "name": "G#1",
            "ticks": 34073,
            "time": 167.02442629166669,
            "velocity": 0.6535433070866141
          },
          {
            "duration": 0.8823524999999961,
            "durationTicks": 180,
            "midi": 29,
            "name": "F1",
            "ticks": 34313,
            "time": 168.20089629166668,
            "velocity": 0.6535433070866141
          },
          {
            "duration": 0.8823524999999961,
            "durationTicks": 180,
            "midi": 30,
            "name": "F#1",
            "ticks": 34553,
            "time": 169.3773662916667,
            "velocity": 0.6535433070866141
          },
          {
            "duration": 0.8823524999999961,
            "durationTicks": 180,
            "midi": 32,
            "name": "G#1",
            "ticks": 34793,
            "time": 170.5538362916667,
            "velocity": 0.6535433070866141
          },
          {
            "duration": 0.8823524999999961,
            "durationTicks": 180,
            "midi": 34,
            "name": "A#1",
            "ticks": 35033,
            "time": 171.7303062916667,
            "velocity": 0.6535433070866141
          },
          {
            "duration": 0.8823524999999961,
            "durationTicks": 180,
            "midi": 34,
            "name": "A#1",
            "ticks": 35273,
            "time": 172.9067762916667,
            "velocity": 0.6535433070866141
          },
          {
            "duration": 0.8823524999999961,
            "durationTicks": 180,
            "midi": 34,
            "name": "A#1",
            "ticks": 35513,
            "time": 174.08324629166668,
            "velocity": 0.6535433070866141
          },
          {
            "duration": 0.8823525000000245,
            "durationTicks": 180,
            "midi": 30,
            "name": "F#1",
            "ticks": 35753,
            "time": 175.25971629166668,
            "velocity": 0.6535433070866141
          },
          {
            "duration": 0.8823524999999961,
            "durationTicks": 180,
            "midi": 32,
            "name": "G#1",
            "ticks": 35993,
            "time": 176.4361862916667,
            "velocity": 0.6535433070866141
          },
          {
            "duration": 0.8823524999999961,
            "durationTicks": 180,
            "midi": 29,
            "name": "F1",
            "ticks": 36233,
            "time": 177.6126562916667,
            "velocity": 0.6535433070866141
          },
          {
            "duration": 0.8823524999999961,
            "durationTicks": 180,
            "midi": 30,
            "name": "F#1",
            "ticks": 36473,
            "time": 178.7891262916667,
            "velocity": 0.6535433070866141
          },
          {
            "duration": 0.8823524999999961,
            "durationTicks": 180,
            "midi": 32,
            "name": "G#1",
            "ticks": 36713,
            "time": 179.96559629166669,
            "velocity": 0.6535433070866141
          },
          {
            "duration": 1.7647050000000206,
            "durationTicks": 360,
            "midi": 34,
            "name": "A#1",
            "ticks": 36953,
            "time": 181.14206629166668,
            "velocity": 0.6535433070866141
          }
        ]
      },
      {
        "channel": 0,
        "controlChanges": {
          "0": [
            {
              "number": 0,
              "ticks": 130,
              "time": 0.6372545833333334,
              "value": 0
            }
          ],
          "32": [
            {
              "number": 32,
              "ticks": 131,
              "time": 0.6421565416666667,
              "value": 0.8818897637795275
            }
          ]
        },
        "pitchBends": [],
        "instrument": {
          "family": "piano",
          "number": 0,
          "name": "acoustic grand piano"
        },
        "name": "",
        "notes": []
      },
      {
        "channel": 2,
        "controlChanges": {
          "7": [
            {
              "number": 7,
              "ticks": 133,
              "time": 0.6519604583333335,
              "value": 0.5905511811023622
            }
          ],
          "91": [
            {
              "number": 91,
              "ticks": 189,
              "time": 0.926470125,
              "value": 0.1732283464566929
            }
          ]
        },
        "pitchBends": [],
        "instrument": {
          "family": "bass",
          "number": 36,
          "name": "slap bass 1"
        },
        "name": "",
        "notes": [
          {
            "duration": 0.8578427083333366,
            "durationTicks": 175,
            "midi": 34,
            "name": "A#1",
            "ticks": 3357,
            "time": 16.455874125,
            "velocity": 0.6535433070866141
          },
          {
            "duration": 0.2745096666666669,
            "durationTicks": 56,
            "midi": 34,
            "name": "A#1",
            "ticks": 3534,
            "time": 17.32352075,
            "velocity": 0.6535433070866141
          },
          {
            "duration": 1.176470000000002,
            "durationTicks": 240,
            "midi": 30,
            "name": "F#1",
            "ticks": 3594,
            "time": 17.61763825,
            "velocity": 0.6535433070866141
          },
          {
            "duration": 0.8627446666666714,
            "durationTicks": 176,
            "midi": 32,
            "name": "G#1",
            "ticks": 3834,
            "time": 18.79410825,
            "velocity": 0.6535433070866141
          },
          {
            "duration": 0.2745096666666669,
            "durationTicks": 56,
            "midi": 32,
            "name": "G#1",
            "ticks": 4014,
            "time": 19.676460750000004,
            "velocity": 0.6535433070866141
          },
          {
            "duration": 1.029411249999999,
            "durationTicks": 210,
            "midi": 29,
            "name": "F1",
            "ticks": 4074,
            "time": 19.970578250000003,
            "velocity": 0.6535433070866141
          },
          {
            "duration": 0.29411750000000225,
            "durationTicks": 60,
            "midi": 30,
            "name": "F#1",
            "ticks": 4314,
            "time": 21.14704825,
            "velocity": 0.6535433070866141
          },
          {
            "duration": 0.14705874999999935,
            "durationTicks": 30,
            "midi": 30,
            "name": "F#1",
            "ticks": 4404,
            "time": 21.588224500000003,
            "velocity": 0.6535433070866141
          },
          {
            "duration": 0.1470587500000029,
            "durationTicks": 30,
            "midi": 30,
            "name": "F#1",
            "ticks": 4494,
            "time": 22.02940075,
            "velocity": 0.6535433070866141
          },
          {
            "duration": 0.2941174999999987,
            "durationTicks": 60,
            "midi": 32,
            "name": "G#1",
            "ticks": 4554,
            "time": 22.323518250000003,
            "velocity": 0.6535433070866141
          },
          {
            "duration": 0.14705874999999935,
            "durationTicks": 30,
            "midi": 32,
            "name": "G#1",
            "ticks": 4644,
            "time": 22.7646945,
            "velocity": 0.6535433070866141
          },
          {
            "duration": 0.14705874999999935,
            "durationTicks": 30,
            "midi": 32,
            "name": "G#1",
            "ticks": 4734,
            "time": 23.205870750000003,
            "velocity": 0.6535433070866141
          },
          {
            "duration": 0.29411750000000225,
            "durationTicks": 60,
            "midi": 34,
            "name": "A#1",
            "ticks": 4794,
            "time": 23.49998825,
            "velocity": 0.6535433070866141
          },
          {
            "duration": 0.1470587500000029,
            "durationTicks": 30,
            "midi": 34,
            "name": "A#1",
            "ticks": 4884,
            "time": 23.941164500000003,
            "velocity": 0.6535433070866141
          },
          {
            "duration": 0.14705874999999935,
            "durationTicks": 30,
            "midi": 34,
            "name": "A#1",
            "ticks": 4974,
            "time": 24.382340750000004,
            "velocity": 0.6535433070866141
          },
          {
            "duration": 0.29411750000000225,
            "durationTicks": 60,
            "midi": 34,
            "name": "A#1",
            "ticks": 5034,
            "time": 24.676458250000003,
            "velocity": 0.6535433070866141
          },
          {
            "duration": 0.14705874999999935,
            "durationTicks": 30,
            "midi": 34,
            "name": "A#1",
            "ticks": 5124,
            "time": 25.117634500000005,
            "velocity": 0.6535433070866141
          },
          {
            "duration": 0.1470587500000029,
            "durationTicks": 30,
            "midi": 34,
            "name": "A#1",
            "ticks": 5214,
            "time": 25.558810750000003,
            "velocity": 0.6535433070866141
          },
          {
            "duration": 0.8578427083333295,
            "durationTicks": 175,
            "midi": 34,
            "name": "A#1",
            "ticks": 5274,
            "time": 25.852928250000005,
            "velocity": 0.6535433070866141
          },
          {
            "duration": 0.2745096666666633,
            "durationTicks": 56,
            "midi": 34,
            "name": "A#1",
            "ticks": 5454,
            "time": 26.735280750000005,
            "velocity": 0.6535433070866141
          },
          {
            "duration": 1.176470000000002,
            "durationTicks": 240,
            "midi": 30,
            "name": "F#1",
            "ticks": 5514,
            "time": 27.029398250000003,
            "velocity": 0.6535433070866141
          },
          {
            "duration": 0.8627446666666643,
            "durationTicks": 176,
            "midi": 32,
            "name": "G#1",
            "ticks": 5754,
            "time": 28.205868250000005,
            "velocity": 0.6535433070866141
          },
          {
            "duration": 0.2745096666666633,
            "durationTicks": 56,
            "midi": 32,
            "name": "G#1",
            "ticks": 5934,
            "time": 29.088220750000005,
            "velocity": 0.6535433070866141
          },
          {
            "duration": 1.0294112500000026,
            "durationTicks": 210,
            "midi": 29,
            "name": "F1",
            "ticks": 5994,
            "time": 29.382338250000004,
            "velocity": 0.6535433070866141
          },
          {
            "duration": 0.2941174999999987,
            "durationTicks": 60,
            "midi": 30,
            "name": "F#1",
            "ticks": 6234,
            "time": 30.558808250000006,
            "velocity": 0.6535433070866141
          },
          {
            "duration": 0.1470587500000029,
            "durationTicks": 30,
            "midi": 30,
            "name": "F#1",
            "ticks": 6324,
            "time": 30.999984500000004,
            "velocity": 0.6535433070866141
          },
          {
            "duration": 0.14705874999999935,
            "durationTicks": 30,
            "midi": 30,
            "name": "F#1",
            "ticks": 6414,
            "time": 31.441160750000005,
            "velocity": 0.6535433070866141
          },
          {
            "duration": 0.29411750000000225,
            "durationTicks": 60,
            "midi": 32,
            "name": "G#1",
            "ticks": 6474,
            "time": 31.735278250000004,
            "velocity": 0.6535433070866141
          },
          {
            "duration": 0.14705874999999935,
            "durationTicks": 30,
            "midi": 32,
            "name": "G#1",
            "ticks": 6564,
            "time": 32.176454500000006,
            "velocity": 0.6535433070866141
          },
          {
            "duration": 0.14705874999999935,
            "durationTicks": 30,
            "midi": 32,
            "name": "G#1",
            "ticks": 6654,
            "time": 32.617630750000004,
            "velocity": 0.6535433070866141
          },
          {
            "duration": 0.2941174999999987,
            "durationTicks": 60,
            "midi": 34,
            "name": "A#1",
            "ticks": 6714,
            "time": 32.91174825,
            "velocity": 0.6535433070866141
          },
          {
            "duration": 0.14705875000000646,
            "durationTicks": 30,
            "midi": 34,
            "name": "A#1",
            "ticks": 6804,
            "time": 33.3529245,
            "velocity": 0.6535433070866141
          },
          {
            "duration": 0.14705874999999935,
            "durationTicks": 30,
            "midi": 34,
            "name": "A#1",
            "ticks": 6894,
            "time": 33.794100750000005,
            "velocity": 0.6535433070866141
          },
          {
            "duration": 0.8823524999999961,
            "durationTicks": 180,
            "midi": 34,
            "name": "A#1",
            "ticks": 7194,
            "time": 35.264688250000006,
            "velocity": 0.6535433070866141
          },
          {
            "duration": 0.8823525000000032,
            "durationTicks": 180,
            "midi": 30,
            "name": "F#1",
            "ticks": 7434,
            "time": 36.44115825,
            "velocity": 0.6535433070866141
          },
          {
            "duration": 0.8823525000000032,
            "durationTicks": 180,
            "midi": 32,
            "name": "G#1",
            "ticks": 7674,
            "time": 37.61762825,
            "velocity": 0.6535433070866141
          },
          {
            "duration": 0.8823525000000032,
            "durationTicks": 180,
            "midi": 29,
            "name": "F1",
            "ticks": 7914,
            "time": 38.794098250000005,
            "velocity": 0.6535433070866141
          },
          {
            "duration": 0.8823524999999961,
            "durationTicks": 180,
            "midi": 30,
            "name": "F#1",
            "ticks": 8154,
            "time": 39.97056825000001,
            "velocity": 0.6535433070866141
          },
          {
            "duration": 0.8823524999999961,
            "durationTicks": 180,
            "midi": 32,
            "name": "G#1",
            "ticks": 8394,
            "time": 41.14703825000001,
            "velocity": 0.6535433070866141
          },
          {
            "duration": 0.8823525000000032,
            "durationTicks": 180,
            "midi": 34,
            "name": "A#1",
            "ticks": 8634,
            "time": 42.32350825,
            "velocity": 0.6535433070866141
          },
          {
            "duration": 0.2941174999999987,
            "durationTicks": 60,
            "midi": 41,
            "name": "F2",
            "ticks": 8814,
            "time": 43.20586075000001,
            "velocity": 0.6535433070866141
          },
          {
            "duration": 0.22058812499999902,
            "durationTicks": 45,
            "midi": 46,
            "name": "A#2",
            "ticks": 8874,
            "time": 43.499978250000005,
            "velocity": 0.6535433070866141
          },
          {
            "duration": 0.22058812499999902,
            "durationTicks": 45,
            "midi": 46,
            "name": "A#2",
            "ticks": 8934,
            "time": 43.794095750000004,
            "velocity": 0.6535433070866141
          },
          {
            "duration": 0.5882349999999974,
            "durationTicks": 120,
            "midi": 41,
            "name": "F2",
            "ticks": 8994,
            "time": 44.08821325000001,
            "velocity": 0.6535433070866141
          },
          {
            "duration": 1.0294112500000026,
            "durationTicks": 210,
            "midi": 22,
            "name": "A#0",
            "ticks": 9114,
            "time": 44.67644825000001,
            "velocity": 0.6535433070866141
          },
          {
            "duration": 1.0294112500000026,
            "durationTicks": 210,
            "midi": 34,
            "name": "A#1",
            "ticks": 9114,
            "time": 44.67644825000001,
            "velocity": 0.6535433070866141
          },
          {
            "duration": 1.0294112500000026,
            "durationTicks": 210,
            "midi": 22,
            "name": "A#0",
            "ticks": 9594,
            "time": 47.029388250000004,
            "velocity": 0.6535433070866141
          },
          {
            "duration": 1.0294112500000026,
            "durationTicks": 210,
            "midi": 34,
            "name": "A#1",
            "ticks": 9594,
            "time": 47.029388250000004,
            "velocity": 0.6535433070866141
          },
          {
            "duration": 1.0294112500000026,
            "durationTicks": 210,
            "midi": 34,
            "name": "A#1",
            "ticks": 10074,
            "time": 49.38232825000001,
            "velocity": 0.6535433070866141
          },
          {
            "duration": 1.0294112500000026,
            "durationTicks": 210,
            "midi": 22,
            "name": "A#0",
            "ticks": 10074,
            "time": 49.38232825000001,
            "velocity": 0.6535433070866141
          },
          {
            "duration": 1.0294112500000026,
            "durationTicks": 210,
            "midi": 34,
            "name": "A#1",
            "ticks": 10554,
            "time": 51.735268250000004,
            "velocity": 0.6535433070866141
          },
          {
            "duration": 1.0294112500000026,
            "durationTicks": 210,
            "midi": 22,
            "name": "A#0",
            "ticks": 10554,
            "time": 51.735268250000004,
            "velocity": 0.6535433070866141
          },
          {
            "duration": 1.0294112500000026,
            "durationTicks": 210,
            "midi": 22,
            "name": "A#0",
            "ticks": 10794,
            "time": 52.911738250000006,
            "velocity": 0.6535433070866141
          },
          {
            "duration": 1.0294112500000026,
            "durationTicks": 210,
            "midi": 34,
            "name": "A#1",
            "ticks": 10794,
            "time": 52.911738250000006,
            "velocity": 0.6535433070866141
          },
          {
            "duration": 1.0294112500000026,
            "durationTicks": 210,
            "midi": 22,
            "name": "A#0",
            "ticks": 11034,
            "time": 54.08820825000001,
            "velocity": 0.6535433070866141
          },
          {
            "duration": 1.0294112500000026,
            "durationTicks": 210,
            "midi": 34,
            "name": "A#1",
            "ticks": 11034,
            "time": 54.08820825000001,
            "velocity": 0.6535433070866141
          },
          {
            "duration": 1.0294112500000026,
            "durationTicks": 210,
            "midi": 34,
            "name": "A#1",
            "ticks": 11514,
            "time": 56.441148250000005,
            "velocity": 0.6535433070866141
          },
          {
            "duration": 1.0294112500000026,
            "durationTicks": 210,
            "midi": 22,
            "name": "A#0",
            "ticks": 11514,
            "time": 56.441148250000005,
            "velocity": 0.6535433070866141
          },
          {
            "duration": 1.0294112500000026,
            "durationTicks": 210,
            "midi": 22,
            "name": "A#0",
            "ticks": 11994,
            "time": 58.79408825000001,
            "velocity": 0.6535433070866141
          },
          {
            "duration": 1.0294112500000026,
            "durationTicks": 210,
            "midi": 34,
            "name": "A#1",
            "ticks": 11994,
            "time": 58.79408825000001,
            "velocity": 0.6535433070866141
          },
          {
            "duration": 1.0294112500000026,
            "durationTicks": 210,
            "midi": 34,
            "name": "A#1",
            "ticks": 12474,
            "time": 61.147028250000005,
            "velocity": 0.6535433070866141
          },
          {
            "duration": 1.0294112500000026,
            "durationTicks": 210,
            "midi": 22,
            "name": "A#0",
            "ticks": 12474,
            "time": 61.147028250000005,
            "velocity": 0.6535433070866141
          },
          {
            "duration": 1.0294112500000026,
            "durationTicks": 210,
            "midi": 22,
            "name": "A#0",
            "ticks": 12714,
            "time": 62.32349825000001,
            "velocity": 0.6535433070866141
          },
          {
            "duration": 1.0294112500000026,
            "durationTicks": 210,
            "midi": 34,
            "name": "A#1",
            "ticks": 12714,
            "time": 62.32349825000001,
            "velocity": 0.6535433070866141
          },
          {
            "duration": 0.8578427083333366,
            "durationTicks": 175,
            "midi": 34,
            "name": "A#1",
            "ticks": 12954,
            "time": 63.49996825000001,
            "velocity": 0.6535433070866141
          },
          {
            "duration": 0.274509666666674,
            "durationTicks": 56,
            "midi": 34,
            "name": "A#1",
            "ticks": 13134,
            "time": 64.38232075,
            "velocity": 0.6535433070866141
          },
          {
            "duration": 1.1764699999999948,
            "durationTicks": 240,
            "midi": 30,
            "name": "F#1",
            "ticks": 13194,
            "time": 64.67643825000002,
            "velocity": 0.6535433070866141
          },
          {
            "duration": 0.8627446666666572,
            "durationTicks": 176,
            "midi": 32,
            "name": "G#1",
            "ticks": 13434,
            "time": 65.85290825000001,
            "velocity": 0.6535433070866141
          },
          {
            "duration": 0.27450966666665977,
            "durationTicks": 56,
            "midi": 32,
            "name": "G#1",
            "ticks": 13614,
            "time": 66.73526075000001,
            "velocity": 0.6535433070866141
          },
          {
            "duration": 1.0294112500000097,
            "durationTicks": 210,
            "midi": 29,
            "name": "F1",
            "ticks": 13674,
            "time": 67.02937825000001,
            "velocity": 0.6535433070866141
          },
          {
            "duration": 0.2941174999999987,
            "durationTicks": 60,
            "midi": 30,
            "name": "F#1",
            "ticks": 13914,
            "time": 68.20584825,
            "velocity": 0.6535433070866141
          },
          {
            "duration": 0.14705874999998514,
            "durationTicks": 30,
            "midi": 30,
            "name": "F#1",
            "ticks": 14004,
            "time": 68.64702450000001,
            "velocity": 0.6535433070866141
          },
          {
            "duration": 0.14705875000001356,
            "durationTicks": 30,
            "midi": 30,
            "name": "F#1",
            "ticks": 14094,
            "time": 69.08820075,
            "velocity": 0.6535433070866141
          },
          {
            "duration": 0.2941174999999987,
            "durationTicks": 60,
            "midi": 32,
            "name": "G#1",
            "ticks": 14154,
            "time": 69.38231825,
            "velocity": 0.6535433070866141
          },
          {
            "duration": 0.14705875000001356,
            "durationTicks": 30,
            "midi": 32,
            "name": "G#1",
            "ticks": 14244,
            "time": 69.82349450000001,
            "velocity": 0.6535433070866141
          },
          {
            "duration": 0.14705874999998514,
            "durationTicks": 30,
            "midi": 32,
            "name": "G#1",
            "ticks": 14334,
            "time": 70.26467075000002,
            "velocity": 0.6535433070866141
          },
          {
            "duration": 0.2941174999999987,
            "durationTicks": 60,
            "midi": 34,
            "name": "A#1",
            "ticks": 14394,
            "time": 70.55878825000002,
            "velocity": 0.6535433070866141
          },
          {
            "duration": 0.14705875000001356,
            "durationTicks": 30,
            "midi": 34,
            "name": "A#1",
            "ticks": 14484,
            "time": 70.9999645,
            "velocity": 0.6535433070866141
          },
          {
            "duration": 0.14705874999998514,
            "durationTicks": 30,
            "midi": 34,
            "name": "A#1",
            "ticks": 14574,
            "time": 71.44114075000002,
            "velocity": 0.6535433070866141
          },
          {
            "duration": 0.2941174999999987,
            "durationTicks": 60,
            "midi": 34,
            "name": "A#1",
            "ticks": 14634,
            "time": 71.73525825000002,
            "velocity": 0.6535433070866141
          },
          {
            "duration": 0.14705875000001356,
            "durationTicks": 30,
            "midi": 34,
            "name": "A#1",
            "ticks": 14724,
            "time": 72.1764345,
            "velocity": 0.6535433070866141
          },
          {
            "duration": 0.14705874999998514,
            "durationTicks": 30,
            "midi": 34,
            "name": "A#1",
            "ticks": 14814,
            "time": 72.61761075000001,
            "velocity": 0.6535433070866141
          },
          {
            "duration": 0.8578427083333224,
            "durationTicks": 175,
            "midi": 34,
            "name": "A#1",
            "ticks": 14874,
            "time": 72.91172825000001,
            "velocity": 0.6535433070866141
          },
          {
            "duration": 0.27450966666665977,
            "durationTicks": 56,
            "midi": 34,
            "name": "A#1",
            "ticks": 15054,
            "time": 73.79408075,
            "velocity": 0.6535433070866141
          },
          {
            "duration": 1.1764699999999948,
            "durationTicks": 240,
            "midi": 30,
            "name": "F#1",
            "ticks": 15114,
            "time": 74.08819825,
            "velocity": 0.6535433070866141
          },
          {
            "duration": 0.8627446666666856,
            "durationTicks": 176,
            "midi": 32,
            "name": "G#1",
            "ticks": 15354,
            "time": 75.26466825,
            "velocity": 0.6535433070866141
          },
          {
            "duration": 0.2745096666666882,
            "durationTicks": 56,
            "midi": 32,
            "name": "G#1",
            "ticks": 15534,
            "time": 76.14702075,
            "velocity": 0.6535433070866141
          },
          {
            "duration": 1.0294112499999812,
            "durationTicks": 210,
            "midi": 29,
            "name": "F1",
            "ticks": 15594,
            "time": 76.44113825000002,
            "velocity": 0.6535433070866141
          },
          {
            "duration": 0.2941174999999987,
            "durationTicks": 60,
            "midi": 30,
            "name": "F#1",
            "ticks": 15834,
            "time": 77.61760825000002,
            "velocity": 0.6535433070866141
          },
          {
            "duration": 0.14705875000001356,
            "durationTicks": 30,
            "midi": 30,
            "name": "F#1",
            "ticks": 15924,
            "time": 78.0587845,
            "velocity": 0.6535433070866141
          },
          {
            "duration": 0.14705874999998514,
            "durationTicks": 30,
            "midi": 30,
            "name": "F#1",
            "ticks": 16014,
            "time": 78.49996075000001,
            "velocity": 0.6535433070866141
          },
          {
            "duration": 0.2941174999999987,
            "durationTicks": 60,
            "midi": 32,
            "name": "G#1",
            "ticks": 16074,
            "time": 78.79407825000001,
            "velocity": 0.6535433070866141
          },
          {
            "duration": 0.14705875000001356,
            "durationTicks": 30,
            "midi": 32,
            "name": "G#1",
            "ticks": 16164,
            "time": 79.2352545,
            "velocity": 0.6535433070866141
          },
          {
            "duration": 0.14705875000001356,
            "durationTicks": 30,
            "midi": 32,
            "name": "G#1",
            "ticks": 16254,
            "time": 79.67643075000001,
            "velocity": 0.6535433070866141
          },
          {
            "duration": 0.2941174999999987,
            "durationTicks": 60,
            "midi": 34,
            "name": "A#1",
            "ticks": 16314,
            "time": 79.97054825000001,
            "velocity": 0.6535433070866141
          },
          {
            "duration": 0.14705875000001356,
            "durationTicks": 30,
            "midi": 34,
            "name": "A#1",
            "ticks": 16404,
            "time": 80.41172449999999,
            "velocity": 0.6535433070866141
          },
          {
            "duration": 0.8823524999999961,
            "durationTicks": 180,
            "midi": 34,
            "name": "A#1",
            "ticks": 16794,
            "time": 82.32348825,
            "velocity": 0.6535433070866141
          },
          {
            "duration": 0.8823525000000245,
            "durationTicks": 180,
            "midi": 30,
            "name": "F#1",
            "ticks": 17034,
            "time": 83.49995824999999,
            "velocity": 0.6535433070866141
          },
          {
            "duration": 0.8823524999999961,
            "durationTicks": 180,
            "midi": 32,
            "name": "G#1",
            "ticks": 17274,
            "time": 84.67642825000001,
            "velocity": 0.6535433070866141
          },
          {
            "duration": 0.8823524999999961,
            "durationTicks": 180,
            "midi": 29,
            "name": "F1",
            "ticks": 17514,
            "time": 85.85289825000001,
            "velocity": 0.6535433070866141
          },
          {
            "duration": 0.8823524999999961,
            "durationTicks": 180,
            "midi": 30,
            "name": "F#1",
            "ticks": 17754,
            "time": 87.02936825,
            "velocity": 0.6535433070866141
          },
          {
            "duration": 0.8823524999999961,
            "durationTicks": 180,
            "midi": 32,
            "name": "G#1",
            "ticks": 17994,
            "time": 88.20583825,
            "velocity": 0.6535433070866141
          },
          {
            "duration": 0.8823524999999961,
            "durationTicks": 180,
            "midi": 34,
            "name": "A#1",
            "ticks": 18234,
            "time": 89.38230825,
            "velocity": 0.6535433070866141
          },
          {
            "duration": 0.8823525000000245,
            "durationTicks": 180,
            "midi": 34,
            "name": "A#1",
            "ticks": 18474,
            "time": 90.55877824999999,
            "velocity": 0.6535433070866141
          },
          {
            "duration": 0.8823524999999961,
            "durationTicks": 180,
            "midi": 34,
            "name": "A#1",
            "ticks": 18714,
            "time": 91.73524825000001,
            "velocity": 0.6535433070866141
          },
          {
            "duration": 0.8823524999999961,
            "durationTicks": 180,
            "midi": 30,
            "name": "F#1",
            "ticks": 18954,
            "time": 92.91171825,
            "velocity": 0.6535433070866141
          },
          {
            "duration": 0.8823524999999961,
            "durationTicks": 180,
            "midi": 32,
            "name": "G#1",
            "ticks": 19194,
            "time": 94.08818825,
            "velocity": 0.6535433070866141
          },
          {
            "duration": 0.8823524999999961,
            "durationTicks": 180,
            "midi": 29,
            "name": "F1",
            "ticks": 19434,
            "time": 95.26465825,
            "velocity": 0.6535433070866141
          },
          {
            "duration": 0.8823525000000245,
            "durationTicks": 180,
            "midi": 30,
            "name": "F#1",
            "ticks": 19674,
            "time": 96.44112824999999,
            "velocity": 0.6535433070866141
          },
          {
            "duration": 0.8823524999999961,
            "durationTicks": 180,
            "midi": 32,
            "name": "G#1",
            "ticks": 19914,
            "time": 97.61759825000001,
            "velocity": 0.6535433070866141
          },
          {
            "duration": 0.8823524999999961,
            "durationTicks": 180,
            "midi": 34,
            "name": "A#1",
            "ticks": 20154,
            "time": 98.79406825000001,
            "velocity": 0.6535433070866141
          },
          {
            "duration": 0.2941174999999987,
            "durationTicks": 60,
            "midi": 41,
            "name": "F2",
            "ticks": 20334,
            "time": 99.67642075,
            "velocity": 0.6535433070866141
          },
          {
            "duration": 0.22058812500000613,
            "durationTicks": 45,
            "midi": 46,
            "name": "A#2",
            "ticks": 20394,
            "time": 99.97053825,
            "velocity": 0.6535433070866141
          },
          {
            "duration": 0.22058812500000613,
            "durationTicks": 45,
            "midi": 46,
            "name": "A#2",
            "ticks": 20454,
            "time": 100.26465575,
            "velocity": 0.6535433070866141
          },
          {
            "duration": 0.5882349999999974,
            "durationTicks": 120,
            "midi": 41,
            "name": "F2",
            "ticks": 20514,
            "time": 100.55877325,
            "velocity": 0.6535433070866141
          },
          {
            "duration": 1.0294112500000097,
            "durationTicks": 210,
            "midi": 22,
            "name": "A#0",
            "ticks": 20634,
            "time": 101.14700825,
            "velocity": 0.6535433070866141
          },
          {
            "duration": 1.0294112500000097,
            "durationTicks": 210,
            "midi": 34,
            "name": "A#1",
            "ticks": 20634,
            "time": 101.14700825,
            "velocity": 0.6535433070866141
          },
          {
            "duration": 1.0294112499999812,
            "durationTicks": 210,
            "midi": 22,
            "name": "A#0",
            "ticks": 21114,
            "time": 103.49994825000002,
            "velocity": 0.6535433070866141
          },
          {
            "duration": 1.0294112499999812,
            "durationTicks": 210,
            "midi": 34,
            "name": "A#1",
            "ticks": 21114,
            "time": 103.49994825000002,
            "velocity": 0.6535433070866141
          },
          {
            "duration": 1.0294112500000097,
            "durationTicks": 210,
            "midi": 34,
            "name": "A#1",
            "ticks": 21594,
            "time": 105.85288825,
            "velocity": 0.6535433070866141
          },
          {
            "duration": 1.0294112500000097,
            "durationTicks": 210,
            "midi": 22,
            "name": "A#0",
            "ticks": 21594,
            "time": 105.85288825,
            "velocity": 0.6535433070866141
          },
          {
            "duration": 1.0294112500000097,
            "durationTicks": 210,
            "midi": 34,
            "name": "A#1",
            "ticks": 22074,
            "time": 108.20582825,
            "velocity": 0.6535433070866141
          },
          {
            "duration": 1.0294112500000097,
            "durationTicks": 210,
            "midi": 22,
            "name": "A#0",
            "ticks": 22074,
            "time": 108.20582825,
            "velocity": 0.6535433070866141
          },
          {
            "duration": 1.0294112500000097,
            "durationTicks": 210,
            "midi": 22,
            "name": "A#0",
            "ticks": 22314,
            "time": 109.38229824999999,
            "velocity": 0.6535433070866141
          },
          {
            "duration": 0.8823525000000245,
            "durationTicks": 180,
            "midi": 34,
            "name": "A#1",
            "ticks": 22314,
            "time": 109.38229824999999,
            "velocity": 0.6535433070866141
          },
          {
            "duration": 1.0294112499999812,
            "durationTicks": 210,
            "midi": 22,
            "name": "A#0",
            "ticks": 22554,
            "time": 110.55876825000001,
            "velocity": 0.6535433070866141
          },
          {
            "duration": 1.0294112499999812,
            "durationTicks": 210,
            "midi": 34,
            "name": "A#1",
            "ticks": 22554,
            "time": 110.55876825000001,
            "velocity": 0.6535433070866141
          },
          {
            "duration": 1.0294112500000097,
            "durationTicks": 210,
            "midi": 34,
            "name": "A#1",
            "ticks": 23034,
            "time": 112.91170825,
            "velocity": 0.6535433070866141
          },
          {
            "duration": 1.0294112500000097,
            "durationTicks": 210,
            "midi": 22,
            "name": "A#0",
            "ticks": 23034,
            "time": 112.91170825,
            "velocity": 0.6535433070866141
          },
          {
            "duration": 1.0294112500000097,
            "durationTicks": 210,
            "midi": 22,
            "name": "A#0",
            "ticks": 23514,
            "time": 115.26464825,
            "velocity": 0.6535433070866141
          },
          {
            "duration": 1.0294112500000097,
            "durationTicks": 210,
            "midi": 34,
            "name": "A#1",
            "ticks": 23514,
            "time": 115.26464825,
            "velocity": 0.6535433070866141
          },
          {
            "duration": 1.0294112499999812,
            "durationTicks": 210,
            "midi": 34,
            "name": "A#1",
            "ticks": 23994,
            "time": 117.61758825000001,
            "velocity": 0.6535433070866141
          },
          {
            "duration": 1.0294112499999812,
            "durationTicks": 210,
            "midi": 22,
            "name": "A#0",
            "ticks": 23994,
            "time": 117.61758825000001,
            "velocity": 0.6535433070866141
          },
          {
            "duration": 1.0294112500000097,
            "durationTicks": 210,
            "midi": 22,
            "name": "A#0",
            "ticks": 24234,
            "time": 118.79405825,
            "velocity": 0.6535433070866141
          },
          {
            "duration": 1.0294112500000097,
            "durationTicks": 210,
            "midi": 34,
            "name": "A#1",
            "ticks": 24234,
            "time": 118.79405825,
            "velocity": 0.6535433070866141
          },
          {
            "duration": 1.0294112500000097,
            "durationTicks": 210,
            "midi": 22,
            "name": "A#0",
            "ticks": 24474,
            "time": 119.97052825,
            "velocity": 0.6535433070866141
          },
          {
            "duration": 1.0294112500000097,
            "durationTicks": 210,
            "midi": 34,
            "name": "A#1",
            "ticks": 24474,
            "time": 119.97052825,
            "velocity": 0.6535433070866141
          },
          {
            "duration": 1.0294112499999812,
            "durationTicks": 210,
            "midi": 22,
            "name": "A#0",
            "ticks": 24954,
            "time": 122.32346825000002,
            "velocity": 0.6535433070866141
          },
          {
            "duration": 1.0294112499999812,
            "durationTicks": 210,
            "midi": 34,
            "name": "A#1",
            "ticks": 24954,
            "time": 122.32346825000002,
            "velocity": 0.6535433070866141
          },
          {
            "duration": 1.0294112500000097,
            "durationTicks": 210,
            "midi": 34,
            "name": "A#1",
            "ticks": 25434,
            "time": 124.67640825000001,
            "velocity": 0.6535433070866141
          },
          {
            "duration": 1.0294112500000097,
            "durationTicks": 210,
            "midi": 22,
            "name": "A#0",
            "ticks": 25434,
            "time": 124.67640825000001,
            "velocity": 0.6535433070866141
          },
          {
            "duration": 1.0294112500000097,
            "durationTicks": 210,
            "midi": 34,
            "name": "A#1",
            "ticks": 25914,
            "time": 127.02934825,
            "velocity": 0.6535433070866141
          },
          {
            "duration": 1.0294112500000097,
            "durationTicks": 210,
            "midi": 22,
            "name": "A#0",
            "ticks": 25914,
            "time": 127.02934825,
            "velocity": 0.6535433070866141
          },
          {
            "duration": 1.0294112500000097,
            "durationTicks": 210,
            "midi": 22,
            "name": "A#0",
            "ticks": 26154,
            "time": 128.20581825,
            "velocity": 0.6535433070866141
          },
          {
            "duration": 0.8823525000000245,
            "durationTicks": 180,
            "midi": 34,
            "name": "A#1",
            "ticks": 26154,
            "time": 128.20581825,
            "velocity": 0.6535433070866141
          },
          {
            "duration": 0.8578427083333224,
            "durationTicks": 175,
            "midi": 34,
            "name": "A#1",
            "ticks": 26394,
            "time": 129.38228825000002,
            "velocity": 0.6535433070866141
          },
          {
            "duration": 0.27450966666665977,
            "durationTicks": 56,
            "midi": 34,
            "name": "A#1",
            "ticks": 26574,
            "time": 130.26464075,
            "velocity": 0.6535433070866141
          },
          {
            "duration": 1.1764699999999948,
            "durationTicks": 240,
            "midi": 30,
            "name": "F#1",
            "ticks": 26634,
            "time": 130.55875825,
            "velocity": 0.6535433070866141
          },
          {
            "duration": 0.8627446666666572,
            "durationTicks": 176,
            "midi": 32,
            "name": "G#1",
            "ticks": 26874,
            "time": 131.73522825,
            "velocity": 0.6535433070866141
          },
          {
            "duration": 0.2745096666666882,
            "durationTicks": 56,
            "midi": 32,
            "name": "G#1",
            "ticks": 27054,
            "time": 132.61758075,
            "velocity": 0.6535433070866141
          },
          {
            "duration": 1.0294112500000097,
            "durationTicks": 210,
            "midi": 29,
            "name": "F1",
            "ticks": 27114,
            "time": 132.91169825,
            "velocity": 0.6535433070866141
          },
          {
            "duration": 0.2941174999999987,
            "durationTicks": 60,
            "midi": 30,
            "name": "F#1",
            "ticks": 27354,
            "time": 134.08816825000002,
            "velocity": 0.6535433070866141
          },
          {
            "duration": 0.14705875000001356,
            "durationTicks": 30,
            "midi": 30,
            "name": "F#1",
            "ticks": 27444,
            "time": 134.5293445,
            "velocity": 0.6535433070866141
          },
          {
            "duration": 0.14705874999998514,
            "durationTicks": 30,
            "midi": 30,
            "name": "F#1",
            "ticks": 27534,
            "time": 134.97052075000002,
            "velocity": 0.6535433070866141
          },
          {
            "duration": 0.2941174999999987,
            "durationTicks": 60,
            "midi": 32,
            "name": "G#1",
            "ticks": 27594,
            "time": 135.26463825000002,
            "velocity": 0.6535433070866141
          },
          {
            "duration": 0.14705875000001356,
            "durationTicks": 30,
            "midi": 32,
            "name": "G#1",
            "ticks": 27684,
            "time": 135.7058145,
            "velocity": 0.6535433070866141
          },
          {
            "duration": 0.14705875000001356,
            "durationTicks": 30,
            "midi": 32,
            "name": "G#1",
            "ticks": 27774,
            "time": 136.14699075000001,
            "velocity": 0.6535433070866141
          },
          {
            "duration": 0.2941174999999987,
            "durationTicks": 60,
            "midi": 34,
            "name": "A#1",
            "ticks": 27834,
            "time": 136.44110825,
            "velocity": 0.6535433070866141
          },
          {
            "duration": 0.14705874999998514,
            "durationTicks": 30,
            "midi": 34,
            "name": "A#1",
            "ticks": 27924,
            "time": 136.88228450000003,
            "velocity": 0.6535433070866141
          },
          {
            "duration": 0.14705875000001356,
            "durationTicks": 30,
            "midi": 34,
            "name": "A#1",
            "ticks": 28014,
            "time": 137.32346075,
            "velocity": 0.6535433070866141
          },
          {
            "duration": 0.2941174999999987,
            "durationTicks": 60,
            "midi": 34,
            "name": "A#1",
            "ticks": 28074,
            "time": 137.61757825,
            "velocity": 0.6535433070866141
          },
          {
            "duration": 0.14705874999998514,
            "durationTicks": 30,
            "midi": 34,
            "name": "A#1",
            "ticks": 28164,
            "time": 138.05875450000002,
            "velocity": 0.6535433070866141
          },
          {
            "duration": 0.14705875000001356,
            "durationTicks": 30,
            "midi": 34,
            "name": "A#1",
            "ticks": 28254,
            "time": 138.49993075,
            "velocity": 0.6535433070866141
          },
          {
            "duration": 0.8578427083333509,
            "durationTicks": 175,
            "midi": 34,
            "name": "A#1",
            "ticks": 28314,
            "time": 138.79404825,
            "velocity": 0.6535433070866141
          },
          {
            "duration": 0.27450966666665977,
            "durationTicks": 56,
            "midi": 34,
            "name": "A#1",
            "ticks": 28494,
            "time": 139.67640075000003,
            "velocity": 0.6535433070866141
          },
          {
            "duration": 1.1764699999999948,
            "durationTicks": 240,
            "midi": 30,
            "name": "F#1",
            "ticks": 28554,
            "time": 139.97051825000003,
            "velocity": 0.6535433070866141
          },
          {
            "duration": 0.8627446666666572,
            "durationTicks": 176,
            "midi": 32,
            "name": "G#1",
            "ticks": 28794,
            "time": 141.14698825000002,
            "velocity": 0.6535433070866141
          },
          {
            "duration": 0.27450966666665977,
            "durationTicks": 56,
            "midi": 32,
            "name": "G#1",
            "ticks": 28974,
            "time": 142.02934075000002,
            "velocity": 0.6535433070866141
          },
          {
            "duration": 1.0294112500000097,
            "durationTicks": 210,
            "midi": 29,
            "name": "F1",
            "ticks": 29034,
            "time": 142.32345825000002,
            "velocity": 0.6535433070866141
          },
          {
            "duration": 0.2941174999999987,
            "durationTicks": 60,
            "midi": 30,
            "name": "F#1",
            "ticks": 29274,
            "time": 143.49992825,
            "velocity": 0.6535433070866141
          },
          {
            "duration": 0.14705874999998514,
            "durationTicks": 30,
            "midi": 30,
            "name": "F#1",
            "ticks": 29364,
            "time": 143.94110450000002,
            "velocity": 0.6535433070866141
          },
          {
            "duration": 0.14705875000001356,
            "durationTicks": 30,
            "midi": 30,
            "name": "F#1",
            "ticks": 29454,
            "time": 144.38228075,
            "velocity": 0.6535433070866141
          },
          {
            "duration": 0.2941174999999987,
            "durationTicks": 60,
            "midi": 32,
            "name": "G#1",
            "ticks": 29514,
            "time": 144.67639825,
            "velocity": 0.6535433070866141
          },
          {
            "duration": 0.14705874999998514,
            "durationTicks": 30,
            "midi": 32,
            "name": "G#1",
            "ticks": 29604,
            "time": 145.11757450000002,
            "velocity": 0.6535433070866141
          },
          {
            "duration": 0.14705874999998514,
            "durationTicks": 30,
            "midi": 32,
            "name": "G#1",
            "ticks": 29694,
            "time": 145.55875075000003,
            "velocity": 0.6535433070866141
          },
          {
            "duration": 0.2941174999999987,
            "durationTicks": 60,
            "midi": 34,
            "name": "A#1",
            "ticks": 29754,
            "time": 145.85286825000003,
            "velocity": 0.6535433070866141
          },
          {
            "duration": 0.14705875000001356,
            "durationTicks": 30,
            "midi": 34,
            "name": "A#1",
            "ticks": 29844,
            "time": 146.2940445,
            "velocity": 0.6535433070866141
          },
          {
            "duration": 0.14705874999998514,
            "durationTicks": 30,
            "midi": 34,
            "name": "A#1",
            "ticks": 29934,
            "time": 146.73522075000002,
            "velocity": 0.6535433070866141
          },
          {
            "duration": 1.0294112500000097,
            "durationTicks": 210,
            "midi": 22,
            "name": "A#0",
            "ticks": 30234,
            "time": 148.20580825000002,
            "velocity": 0.6535433070866141
          },
          {
            "duration": 1.0294112500000097,
            "durationTicks": 210,
            "midi": 34,
            "name": "A#1",
            "ticks": 30234,
            "time": 148.20580825000002,
            "velocity": 0.6535433070866141
          },
          {
            "duration": 1.0294112500000097,
            "durationTicks": 210,
            "midi": 22,
            "name": "A#0",
            "ticks": 30714,
            "time": 150.55874825,
            "velocity": 0.6535433070866141
          },
          {
            "duration": 1.0294112500000097,
            "durationTicks": 210,
            "midi": 34,
            "name": "A#1",
            "ticks": 30714,
            "time": 150.55874825,
            "velocity": 0.6535433070866141
          },
          {
            "duration": 1.0294112499999812,
            "durationTicks": 210,
            "midi": 34,
            "name": "A#1",
            "ticks": 31194,
            "time": 152.91168825000003,
            "velocity": 0.6535433070866141
          },
          {
            "duration": 1.0294112499999812,
            "durationTicks": 210,
            "midi": 22,
            "name": "A#0",
            "ticks": 31194,
            "time": 152.91168825000003,
            "velocity": 0.6535433070866141
          },
          {
            "duration": 1.0294112500000097,
            "durationTicks": 210,
            "midi": 34,
            "name": "A#1",
            "ticks": 31674,
            "time": 155.26462825000002,
            "velocity": 0.6535433070866141
          },
          {
            "duration": 1.0294112500000097,
            "durationTicks": 210,
            "midi": 22,
            "name": "A#0",
            "ticks": 31674,
            "time": 155.26462825000002,
            "velocity": 0.6535433070866141
          },
          {
            "duration": 1.0294112500000097,
            "durationTicks": 210,
            "midi": 22,
            "name": "A#0",
            "ticks": 31914,
            "time": 156.44109825,
            "velocity": 0.6535433070866141
          },
          {
            "duration": 0.8823524999999961,
            "durationTicks": 180,
            "midi": 34,
            "name": "A#1",
            "ticks": 31914,
            "time": 156.44109825,
            "velocity": 0.6535433070866141
          },
          {
            "duration": 1.0294112500000097,
            "durationTicks": 210,
            "midi": 34,
            "name": "A#1",
            "ticks": 32154,
            "time": 157.61756825,
            "velocity": 0.6535433070866141
          },
          {
            "duration": 1.0294112500000097,
            "durationTicks": 210,
            "midi": 22,
            "name": "A#0",
            "ticks": 32154,
            "time": 157.61756825,
            "velocity": 0.6535433070866141
          },
          {
            "duration": 1.0294112499999812,
            "durationTicks": 210,
            "midi": 34,
            "name": "A#1",
            "ticks": 32634,
            "time": 159.97050825000002,
            "velocity": 0.6535433070866141
          },
          {
            "duration": 1.0294112499999812,
            "durationTicks": 210,
            "midi": 22,
            "name": "A#0",
            "ticks": 32634,
            "time": 159.97050825000002,
            "velocity": 0.6535433070866141
          },
          {
            "duration": 1.0294112500000097,
            "durationTicks": 210,
            "midi": 22,
            "name": "A#0",
            "ticks": 32874,
            "time": 161.14697825000002,
            "velocity": 0.6535433070866141
          },
          {
            "duration": 0.8823524999999961,
            "durationTicks": 180,
            "midi": 34,
            "name": "A#1",
            "ticks": 32874,
            "time": 161.14697825000002,
            "velocity": 0.6535433070866141
          },
          {
            "duration": 1.0294112500000097,
            "durationTicks": 210,
            "midi": 34,
            "name": "A#1",
            "ticks": 33114,
            "time": 162.32344825,
            "velocity": 0.6535433070866141
          },
          {
            "duration": 1.0294112500000097,
            "durationTicks": 210,
            "midi": 22,
            "name": "A#0",
            "ticks": 33114,
            "time": 162.32344825,
            "velocity": 0.6535433070866141
          },
          {
            "duration": 1.0294112500000097,
            "durationTicks": 210,
            "midi": 22,
            "name": "A#0",
            "ticks": 33354,
            "time": 163.49991825,
            "velocity": 0.6535433070866141
          },
          {
            "duration": 0.8823525000000245,
            "durationTicks": 180,
            "midi": 34,
            "name": "A#1",
            "ticks": 33354,
            "time": 163.49991825,
            "velocity": 0.6535433070866141
          },
          {
            "duration": 0.8823524999999961,
            "durationTicks": 180,
            "midi": 34,
            "name": "A#1",
            "ticks": 33594,
            "time": 164.67638825000003,
            "velocity": 0.6535433070866141
          },
          {
            "duration": 0.8823524999999961,
            "durationTicks": 180,
            "midi": 30,
            "name": "F#1",
            "ticks": 33834,
            "time": 165.85285825000003,
            "velocity": 0.6535433070866141
          },
          {
            "duration": 0.8823524999999961,
            "durationTicks": 180,
            "midi": 32,
            "name": "G#1",
            "ticks": 34074,
            "time": 167.02932825000002,
            "velocity": 0.6535433070866141
          },
          {
            "duration": 0.8823524999999961,
            "durationTicks": 180,
            "midi": 29,
            "name": "F1",
            "ticks": 34314,
            "time": 168.20579825000002,
            "velocity": 0.6535433070866141
          },
          {
            "duration": 0.8823524999999961,
            "durationTicks": 180,
            "midi": 30,
            "name": "F#1",
            "ticks": 34554,
            "time": 169.38226825,
            "velocity": 0.6535433070866141
          },
          {
            "duration": 0.8823525000000245,
            "durationTicks": 180,
            "midi": 32,
            "name": "G#1",
            "ticks": 34794,
            "time": 170.55873825,
            "velocity": 0.6535433070866141
          },
          {
            "duration": 0.8823524999999961,
            "durationTicks": 180,
            "midi": 34,
            "name": "A#1",
            "ticks": 35034,
            "time": 171.73520825000003,
            "velocity": 0.6535433070866141
          },
          {
            "duration": 0.8823524999999961,
            "durationTicks": 180,
            "midi": 34,
            "name": "A#1",
            "ticks": 35274,
            "time": 172.91167825000002,
            "velocity": 0.6535433070866141
          },
          {
            "duration": 0.8823524999999961,
            "durationTicks": 180,
            "midi": 34,
            "name": "A#1",
            "ticks": 35514,
            "time": 174.08814825000002,
            "velocity": 0.6535433070866141
          },
          {
            "duration": 0.8823524999999961,
            "durationTicks": 180,
            "midi": 30,
            "name": "F#1",
            "ticks": 35754,
            "time": 175.26461825,
            "velocity": 0.6535433070866141
          },
          {
            "duration": 0.8823525000000245,
            "durationTicks": 180,
            "midi": 32,
            "name": "G#1",
            "ticks": 35994,
            "time": 176.44108825,
            "velocity": 0.6535433070866141
          },
          {
            "duration": 0.8823524999999961,
            "durationTicks": 180,
            "midi": 29,
            "name": "F1",
            "ticks": 36234,
            "time": 177.61755825000003,
            "velocity": 0.6535433070866141
          },
          {
            "duration": 0.8823524999999961,
            "durationTicks": 180,
            "midi": 30,
            "name": "F#1",
            "ticks": 36474,
            "time": 178.79402825000003,
            "velocity": 0.6535433070866141
          },
          {
            "duration": 0.8823524999999961,
            "durationTicks": 180,
            "midi": 32,
            "name": "G#1",
            "ticks": 36714,
            "time": 179.97049825000002,
            "velocity": 0.6535433070866141
          },
          {
            "duration": 1.7647049999999922,
            "durationTicks": 360,
            "midi": 34,
            "name": "A#1",
            "ticks": 36954,
            "time": 181.14696825000001,
            "velocity": 0.6535433070866141
          }
        ]
      },
      {
        "channel": 0,
        "controlChanges": {
          "0": [
            {
              "number": 0,
              "ticks": 135,
              "time": 0.6617643750000001,
              "value": 0
            }
          ],
          "32": [
            {
              "number": 32,
              "ticks": 136,
              "time": 0.6666663333333334,
              "value": 0.8818897637795275
            }
          ]
        },
        "pitchBends": [],
        "instrument": {
          "family": "piano",
          "number": 0,
          "name": "acoustic grand piano"
        },
        "name": "",
        "notes": []
      },
      {
        "channel": 3,
        "controlChanges": {
          "7": [
            {
              "number": 7,
              "ticks": 138,
              "time": 0.67647025,
              "value": 0.5905511811023622
            }
          ],
          "91": [
            {
              "number": 91,
              "ticks": 190,
              "time": 0.9313720833333334,
              "value": 0.1889763779527559
            }
          ]
        },
        "pitchBends": [],
        "instrument": {
          "family": "brass",
          "number": 56,
          "name": "trumpet"
        },
        "name": "",
        "notes": [
          {
            "duration": 0.47058799999999934,
            "durationTicks": 96,
            "midi": 85,
            "name": "C#6",
            "ticks": 1440,
            "time": 7.058820000000001,
            "velocity": 0.7874015748031497
          },
          {
            "duration": 0.6862741666666672,
            "durationTicks": 140,
            "midi": 46,
            "name": "A#2",
            "ticks": 1440,
            "time": 7.058820000000001,
            "velocity": 0.6535433070866141
          },
          {
            "duration": 0.485293875,
            "durationTicks": 99,
            "midi": 61,
            "name": "C#4",
            "ticks": 1440,
            "time": 7.058820000000001,
            "velocity": 0.7480314960629921
          },
          {
            "duration": 0.6911761250000001,
            "durationTicks": 141,
            "midi": 61,
            "name": "C#4",
            "ticks": 1440,
            "time": 7.058820000000001,
            "velocity": 0.6535433070866141
          },
          {
            "duration": 0.06372545833333287,
            "durationTicks": 13,
            "midi": 77,
            "name": "F5",
            "ticks": 1500,
            "time": 7.352937500000001,
            "velocity": 0.5511811023622047
          },
          {
            "duration": 0.07352937499999967,
            "durationTicks": 15,
            "midi": 75,
            "name": "D#5",
            "ticks": 1530,
            "time": 7.499996250000001,
            "velocity": 0.5511811023622047
          },
          {
            "duration": 0.07843133333333352,
            "durationTicks": 16,
            "midi": 84,
            "name": "C6",
            "ticks": 1560,
            "time": 7.647055000000001,
            "velocity": 0.7874015748031497
          },
          {
            "duration": 0.07843133333333352,
            "durationTicks": 16,
            "midi": 73,
            "name": "C#5",
            "ticks": 1560,
            "time": 7.647055000000001,
            "velocity": 0.6535433070866141
          },
          {
            "duration": 0.4215684166666671,
            "durationTicks": 86,
            "midi": 73,
            "name": "C#5",
            "ticks": 1560,
            "time": 7.647055000000001,
            "velocity": 0.7480314960629921
          },
          {
            "duration": 0.07352937499999967,
            "durationTicks": 15,
            "midi": 77,
            "name": "F5",
            "ticks": 1590,
            "time": 7.794113750000001,
            "velocity": 0.5511811023622047
          },
          {
            "duration": 0.09803916666666623,
            "durationTicks": 20,
            "midi": 82,
            "name": "A#5",
            "ticks": 1620,
            "time": 7.9411725,
            "velocity": 0.7874015748031497
          },
          {
            "duration": 0.11274504166666688,
            "durationTicks": 23,
            "midi": 46,
            "name": "A#2",
            "ticks": 1620,
            "time": 7.9411725,
            "velocity": 0.6535433070866141
          },
          {
            "duration": 0.12745091666666752,
            "durationTicks": 26,
            "midi": 61,
            "name": "C#4",
            "ticks": 1620,
            "time": 7.9411725,
            "velocity": 0.6535433070866141
          },
          {
            "duration": 0.07352937500000145,
            "durationTicks": 15,
            "midi": 70,
            "name": "A#4",
            "ticks": 1650,
            "time": 8.08823125,
            "velocity": 0.5511811023622047
          },
          {
            "duration": 0.4215684166666662,
            "durationTicks": 86,
            "midi": 78,
            "name": "F#5",
            "ticks": 1680,
            "time": 8.23529,
            "velocity": 0.7874015748031497
          },
          {
            "duration": 0.700980041666666,
            "durationTicks": 143,
            "midi": 51,
            "name": "D#3",
            "ticks": 1680,
            "time": 8.23529,
            "velocity": 0.6535433070866141
          },
          {
            "duration": 0.710783958333332,
            "durationTicks": 145,
            "midi": 66,
            "name": "F#4",
            "ticks": 1680,
            "time": 8.23529,
            "velocity": 0.6535433070866141
          },
          {
            "duration": 0.8823524999999997,
            "durationTicks": 180,
            "midi": 70,
            "name": "A#4",
            "ticks": 1680,
            "time": 8.23529,
            "velocity": 0.7480314960629921
          },
          {
            "duration": 0.07352937499999967,
            "durationTicks": 15,
            "midi": 78,
            "name": "F#5",
            "ticks": 1800,
            "time": 8.823525,
            "velocity": 0.7874015748031497
          },
          {
            "duration": 0.06372545833333199,
            "durationTicks": 13,
            "midi": 80,
            "name": "G#5",
            "ticks": 1830,
            "time": 8.970583750000001,
            "velocity": 0.7874015748031497
          },
          {
            "duration": 0.06862741666666672,
            "durationTicks": 14,
            "midi": 82,
            "name": "A#5",
            "ticks": 1860,
            "time": 9.1176425,
            "velocity": 0.7874015748031497
          },
          {
            "duration": 0.12254895833333457,
            "durationTicks": 25,
            "midi": 51,
            "name": "D#3",
            "ticks": 1860,
            "time": 9.1176425,
            "velocity": 0.6535433070866141
          },
          {
            "duration": 0.09313720833333328,
            "durationTicks": 19,
            "midi": 66,
            "name": "F#4",
            "ticks": 1860,
            "time": 9.1176425,
            "velocity": 0.6535433070866141
          },
          {
            "duration": 0.07843133333333263,
            "durationTicks": 16,
            "midi": 78,
            "name": "F#5",
            "ticks": 1890,
            "time": 9.264701250000002,
            "velocity": 0.7874015748031497
          },
          {
            "duration": 0.43627429166666687,
            "durationTicks": 89,
            "midi": 84,
            "name": "C6",
            "ticks": 1920,
            "time": 9.411760000000001,
            "velocity": 0.7874015748031497
          },
          {
            "duration": 0.6862741666666672,
            "durationTicks": 140,
            "midi": 44,
            "name": "G#2",
            "ticks": 1920,
            "time": 9.411760000000001,
            "velocity": 0.6535433070866141
          },
          {
            "duration": 0.4901958333333347,
            "durationTicks": 100,
            "midi": 60,
            "name": "C4",
            "ticks": 1920,
            "time": 9.411760000000001,
            "velocity": 0.7480314960629921
          },
          {
            "duration": 0.6519604583333329,
            "durationTicks": 133,
            "midi": 60,
            "name": "C4",
            "ticks": 1920,
            "time": 9.411760000000001,
            "velocity": 0.6535433070866141
          },
          {
            "duration": 0.06862741666666672,
            "durationTicks": 14,
            "midi": 75,
            "name": "D#5",
            "ticks": 1980,
            "time": 9.705877500000001,
            "velocity": 0.5511811023622047
          },
          {
            "duration": 0.07843133333333263,
            "durationTicks": 16,
            "midi": 73,
            "name": "C#5",
            "ticks": 2010,
            "time": 9.85293625,
            "velocity": 0.5511811023622047
          },
          {
            "duration": 0.08823525000000032,
            "durationTicks": 18,
            "midi": 82,
            "name": "A#5",
            "ticks": 2040,
            "time": 9.999995000000002,
            "velocity": 0.7874015748031497
          },
          {
            "duration": 0.07843133333333085,
            "durationTicks": 16,
            "midi": 72,
            "name": "C5",
            "ticks": 2040,
            "time": 9.999995000000002,
            "velocity": 0.6535433070866141
          },
          {
            "duration": 0.3676468749999984,
            "durationTicks": 75,
            "midi": 72,
            "name": "C5",
            "ticks": 2040,
            "time": 9.999995000000002,
            "velocity": 0.5511811023622047
          },
          {
            "duration": 0.07352937499999967,
            "durationTicks": 15,
            "midi": 75,
            "name": "D#5",
            "ticks": 2070,
            "time": 10.147053750000001,
            "velocity": 0.5511811023622047
          },
          {
            "duration": 0.07843133333333441,
            "durationTicks": 16,
            "midi": 80,
            "name": "G#5",
            "ticks": 2100,
            "time": 10.2941125,
            "velocity": 0.7874015748031497
          },
          {
            "duration": 0.11274504166666688,
            "durationTicks": 23,
            "midi": 44,
            "name": "G#2",
            "ticks": 2100,
            "time": 10.2941125,
            "velocity": 0.6535433070866141
          },
          {
            "duration": 0.11274504166666688,
            "durationTicks": 23,
            "midi": 60,
            "name": "C4",
            "ticks": 2100,
            "time": 10.2941125,
            "velocity": 0.6535433070866141
          },
          {
            "duration": 0.161764625,
            "durationTicks": 33,
            "midi": 72,
            "name": "C5",
            "ticks": 2100,
            "time": 10.2941125,
            "velocity": 0.5511811023622047
          },
          {
            "duration": 0.07352937500000145,
            "durationTicks": 15,
            "midi": 68,
            "name": "G#4",
            "ticks": 2130,
            "time": 10.44117125,
            "velocity": 0.5511811023622047
          },
          {
            "duration": 0.4411762499999998,
            "durationTicks": 90,
            "midi": 77,
            "name": "F5",
            "ticks": 2160,
            "time": 10.588230000000001,
            "velocity": 0.7874015748031497
          },
          {
            "duration": 0.7254898333333326,
            "durationTicks": 148,
            "midi": 53,
            "name": "F3",
            "ticks": 2160,
            "time": 10.588230000000001,
            "velocity": 0.6535433070866141
          },
          {
            "duration": 0.5882349999999992,
            "durationTicks": 120,
            "midi": 65,
            "name": "F4",
            "ticks": 2160,
            "time": 10.588230000000001,
            "velocity": 0.7480314960629921
          },
          {
            "duration": 0.8382348749999995,
            "durationTicks": 171,
            "midi": 68,
            "name": "G#4",
            "ticks": 2160,
            "time": 10.588230000000001,
            "velocity": 0.7480314960629921
          },
          {
            "duration": 0.07843133333333441,
            "durationTicks": 16,
            "midi": 77,
            "name": "F5",
            "ticks": 2280,
            "time": 11.176465,
            "velocity": 0.7874015748031497
          },
          {
            "duration": 0.06372545833333199,
            "durationTicks": 13,
            "midi": 78,
            "name": "F#5",
            "ticks": 2310,
            "time": 11.323523750000001,
            "velocity": 0.7874015748031497
          },
          {
            "duration": 0.07352937500000145,
            "durationTicks": 15,
            "midi": 80,
            "name": "G#5",
            "ticks": 2340,
            "time": 11.4705825,
            "velocity": 0.7874015748031497
          },
          {
            "duration": 0.12745091666666752,
            "durationTicks": 26,
            "midi": 53,
            "name": "F3",
            "ticks": 2340,
            "time": 11.4705825,
            "velocity": 0.6535433070866141
          },
          {
            "duration": 0.11274504166666688,
            "durationTicks": 23,
            "midi": 68,
            "name": "G#4",
            "ticks": 2340,
            "time": 11.4705825,
            "velocity": 0.6535433070866141
          },
          {
            "duration": 0.05392154166666607,
            "durationTicks": 11,
            "midi": 77,
            "name": "F5",
            "ticks": 2370,
            "time": 11.617641250000002,
            "velocity": 0.7874015748031497
          },
          {
            "duration": 0.4215684166666662,
            "durationTicks": 86,
            "midi": 82,
            "name": "A#5",
            "ticks": 2400,
            "time": 11.764700000000001,
            "velocity": 0.7874015748031497
          },
          {
            "duration": 0.6813722083333325,
            "durationTicks": 139,
            "midi": 42,
            "name": "F#2",
            "ticks": 2400,
            "time": 11.764700000000001,
            "velocity": 0.6535433070866141
          },
          {
            "duration": 0.5049017083333318,
            "durationTicks": 103,
            "midi": 58,
            "name": "A#3",
            "ticks": 2400,
            "time": 11.764700000000001,
            "velocity": 0.6535433070866141
          },
          {
            "duration": 0.6813722083333325,
            "durationTicks": 139,
            "midi": 58,
            "name": "A#3",
            "ticks": 2400,
            "time": 11.764700000000001,
            "velocity": 0.7480314960629921
          },
          {
            "duration": 0.07843133333333263,
            "durationTicks": 16,
            "midi": 73,
            "name": "C#5",
            "ticks": 2460,
            "time": 12.058817500000002,
            "velocity": 0.5511811023622047
          },
          {
            "duration": 0.06862741666666672,
            "durationTicks": 14,
            "midi": 72,
            "name": "C5",
            "ticks": 2490,
            "time": 12.205876250000001,
            "velocity": 0.5511811023622047
          },
          {
            "duration": 0.06862741666666494,
            "durationTicks": 14,
            "midi": 80,
            "name": "G#5",
            "ticks": 2520,
            "time": 12.352935000000002,
            "velocity": 0.7874015748031497
          },
          {
            "duration": 0.07352937499999967,
            "durationTicks": 15,
            "midi": 70,
            "name": "A#4",
            "ticks": 2520,
            "time": 12.352935000000002,
            "velocity": 0.6535433070866141
          },
          {
            "duration": 0.3676468749999984,
            "durationTicks": 75,
            "midi": 70,
            "name": "A#4",
            "ticks": 2520,
            "time": 12.352935000000002,
            "velocity": 0.5511811023622047
          },
          {
            "duration": 0.07352937499999967,
            "durationTicks": 15,
            "midi": 73,
            "name": "C#5",
            "ticks": 2550,
            "time": 12.499993750000002,
            "velocity": 0.5511811023622047
          },
          {
            "duration": 0.13725483333333344,
            "durationTicks": 28,
            "midi": 70,
            "name": "A#4",
            "ticks": 2580,
            "time": 12.647052500000001,
            "velocity": 0.5511811023622047
          },
          {
            "duration": 0.09313720833333328,
            "durationTicks": 19,
            "midi": 78,
            "name": "F#5",
            "ticks": 2580,
            "time": 12.647052500000001,
            "velocity": 0.7874015748031497
          },
          {
            "duration": 0.11274504166666688,
            "durationTicks": 23,
            "midi": 42,
            "name": "F#2",
            "ticks": 2580,
            "time": 12.647052500000001,
            "velocity": 0.6535433070866141
          },
          {
            "duration": 0.10294112500000097,
            "durationTicks": 21,
            "midi": 58,
            "name": "A#3",
            "ticks": 2580,
            "time": 12.647052500000001,
            "velocity": 0.6535433070866141
          },
          {
            "duration": 0.07352937499999967,
            "durationTicks": 15,
            "midi": 66,
            "name": "F#4",
            "ticks": 2610,
            "time": 12.794111250000002,
            "velocity": 0.5511811023622047
          },
          {
            "duration": 0.4215684166666662,
            "durationTicks": 86,
            "midi": 84,
            "name": "C6",
            "ticks": 2640,
            "time": 12.941170000000001,
            "velocity": 0.7874015748031497
          },
          {
            "duration": 0.6372545833333341,
            "durationTicks": 130,
            "midi": 44,
            "name": "G#2",
            "ticks": 2640,
            "time": 12.941170000000001,
            "velocity": 0.6535433070866141
          },
          {
            "duration": 0.4607840833333334,
            "durationTicks": 94,
            "midi": 60,
            "name": "C4",
            "ticks": 2640,
            "time": 12.941170000000001,
            "velocity": 0.6535433070866141
          },
          {
            "duration": 0.6519604583333329,
            "durationTicks": 133,
            "midi": 60,
            "name": "C4",
            "ticks": 2640,
            "time": 12.941170000000001,
            "velocity": 0.7480314960629921
          },
          {
            "duration": 0.07843133333333263,
            "durationTicks": 16,
            "midi": 75,
            "name": "D#5",
            "ticks": 2700,
            "time": 13.235287500000002,
            "velocity": 0.5511811023622047
          },
          {
            "duration": 0.06862741666666672,
            "durationTicks": 14,
            "midi": 73,
            "name": "C#5",
            "ticks": 2730,
            "time": 13.382346250000001,
            "velocity": 0.5511811023622047
          },
          {
            "duration": 0.06372545833333376,
            "durationTicks": 13,
            "midi": 82,
            "name": "A#5",
            "ticks": 2760,
            "time": 13.529405,
            "velocity": 0.7874015748031497
          },
          {
            "duration": 0.07843133333333441,
            "durationTicks": 16,
            "midi": 72,
            "name": "C5",
            "ticks": 2760,
            "time": 13.529405,
            "velocity": 0.5511811023622047
          },
          {
            "duration": 0.36764687500000015,
            "durationTicks": 75,
            "midi": 72,
            "name": "C5",
            "ticks": 2760,
            "time": 13.529405,
            "velocity": 0.6535433070866141
          },
          {
            "duration": 0.07352937499999967,
            "durationTicks": 15,
            "midi": 75,
            "name": "D#5",
            "ticks": 2790,
            "time": 13.676463750000002,
            "velocity": 0.5511811023622047
          },
          {
            "duration": 0.16666658333333295,
            "durationTicks": 34,
            "midi": 72,
            "name": "C5",
            "ticks": 2820,
            "time": 13.823522500000001,
            "velocity": 0.5511811023622047
          },
          {
            "duration": 0.07843133333333263,
            "durationTicks": 16,
            "midi": 80,
            "name": "G#5",
            "ticks": 2820,
            "time": 13.823522500000001,
            "velocity": 0.7874015748031497
          },
          {
            "duration": 0.12745091666666752,
            "durationTicks": 26,
            "midi": 44,
            "name": "G#2",
            "ticks": 2820,
            "time": 13.823522500000001,
            "velocity": 0.6535433070866141
          },
          {
            "duration": 0.11764699999999984,
            "durationTicks": 24,
            "midi": 60,
            "name": "C4",
            "ticks": 2820,
            "time": 13.823522500000001,
            "velocity": 0.7480314960629921
          },
          {
            "duration": 0.07352937499999967,
            "durationTicks": 15,
            "midi": 68,
            "name": "G#4",
            "ticks": 2850,
            "time": 13.970581250000002,
            "velocity": 0.5511811023622047
          },
          {
            "duration": 2.3529400000000003,
            "durationTicks": 480,
            "midi": 82,
            "name": "A#5",
            "ticks": 2880,
            "time": 14.117640000000002,
            "velocity": 0.7874015748031497
          },
          {
            "duration": 2.367645875000001,
            "durationTicks": 483,
            "midi": 46,
            "name": "A#2",
            "ticks": 2880,
            "time": 14.117640000000002,
            "velocity": 0.6535433070866141
          },
          {
            "duration": 2.3529400000000003,
            "durationTicks": 480,
            "midi": 61,
            "name": "C#4",
            "ticks": 2880,
            "time": 14.117640000000002,
            "velocity": 0.7480314960629921
          },
          {
            "duration": 2.3529400000000003,
            "durationTicks": 480,
            "midi": 73,
            "name": "C#5",
            "ticks": 2880,
            "time": 14.117640000000002,
            "velocity": 0.6535433070866141
          },
          {
            "duration": 2.3529400000000003,
            "durationTicks": 480,
            "midi": 61,
            "name": "C#4",
            "ticks": 2880,
            "time": 14.117640000000002,
            "velocity": 0.6535433070866141
          },
          {
            "duration": 0.14705874999999935,
            "durationTicks": 30,
            "midi": 65,
            "name": "F4",
            "ticks": 3120,
            "time": 15.294110000000002,
            "velocity": 0.7086614173228346
          },
          {
            "duration": 0.14705875000000113,
            "durationTicks": 30,
            "midi": 66,
            "name": "F#4",
            "ticks": 3150,
            "time": 15.441168750000001,
            "velocity": 0.7086614173228346
          },
          {
            "duration": 0.14705874999999935,
            "durationTicks": 30,
            "midi": 67,
            "name": "G4",
            "ticks": 3180,
            "time": 15.588227500000002,
            "velocity": 0.7086614173228346
          },
          {
            "duration": 0.14705874999999935,
            "durationTicks": 30,
            "midi": 68,
            "name": "G#4",
            "ticks": 3210,
            "time": 15.735286250000001,
            "velocity": 0.7086614173228346
          },
          {
            "duration": 0.14705874999999935,
            "durationTicks": 30,
            "midi": 69,
            "name": "A4",
            "ticks": 3240,
            "time": 15.882345,
            "velocity": 0.7086614173228346
          },
          {
            "duration": 0.14705874999999935,
            "durationTicks": 30,
            "midi": 68,
            "name": "G#4",
            "ticks": 3270,
            "time": 16.02940375,
            "velocity": 0.7086614173228346
          },
          {
            "duration": 0.1470587500000029,
            "durationTicks": 30,
            "midi": 67,
            "name": "G4",
            "ticks": 3300,
            "time": 16.1764625,
            "velocity": 0.7086614173228346
          },
          {
            "duration": 0.14705874999999935,
            "durationTicks": 30,
            "midi": 66,
            "name": "F#4",
            "ticks": 3330,
            "time": 16.323521250000002,
            "velocity": 0.7086614173228346
          },
          {
            "duration": 0.47058800000000645,
            "durationTicks": 96,
            "midi": 85,
            "name": "C#6",
            "ticks": 7200,
            "time": 35.2941,
            "velocity": 0.7874015748031497
          },
          {
            "duration": 0.6862741666666636,
            "durationTicks": 140,
            "midi": 46,
            "name": "A#2",
            "ticks": 7200,
            "time": 35.2941,
            "velocity": 0.6535433070866141
          },
          {
            "duration": 0.48529387500000354,
            "durationTicks": 99,
            "midi": 61,
            "name": "C#4",
            "ticks": 7200,
            "time": 35.2941,
            "velocity": 0.7480314960629921
          },
          {
            "duration": 0.6911761249999984,
            "durationTicks": 141,
            "midi": 61,
            "name": "C#4",
            "ticks": 7200,
            "time": 35.2941,
            "velocity": 0.6535433070866141
          },
          {
            "duration": 0.06372545833333731,
            "durationTicks": 13,
            "midi": 77,
            "name": "F5",
            "ticks": 7260,
            "time": 35.5882175,
            "velocity": 0.5511811023622047
          },
          {
            "duration": 0.07352937499999967,
            "durationTicks": 15,
            "midi": 75,
            "name": "D#5",
            "ticks": 7290,
            "time": 35.735276250000005,
            "velocity": 0.5511811023622047
          },
          {
            "duration": 0.07843133333333441,
            "durationTicks": 16,
            "midi": 84,
            "name": "C6",
            "ticks": 7320,
            "time": 35.882335000000005,
            "velocity": 0.7874015748031497
          },
          {
            "duration": 0.07843133333333441,
            "durationTicks": 16,
            "midi": 73,
            "name": "C#5",
            "ticks": 7320,
            "time": 35.882335000000005,
            "velocity": 0.6535433070866141
          },
          {
            "duration": 0.4215684166666662,
            "durationTicks": 86,
            "midi": 73,
            "name": "C#5",
            "ticks": 7320,
            "time": 35.882335000000005,
            "velocity": 0.7480314960629921
          },
          {
            "duration": 0.07352937499999967,
            "durationTicks": 15,
            "midi": 77,
            "name": "F5",
            "ticks": 7350,
            "time": 36.029393750000004,
            "velocity": 0.5511811023622047
          },
          {
            "duration": 0.09803916666666623,
            "durationTicks": 20,
            "midi": 82,
            "name": "A#5",
            "ticks": 7380,
            "time": 36.1764525,
            "velocity": 0.7874015748031497
          },
          {
            "duration": 0.11274504166667043,
            "durationTicks": 23,
            "midi": 46,
            "name": "A#2",
            "ticks": 7380,
            "time": 36.1764525,
            "velocity": 0.6535433070866141
          },
          {
            "duration": 0.12745091666666752,
            "durationTicks": 26,
            "midi": 61,
            "name": "C#4",
            "ticks": 7380,
            "time": 36.1764525,
            "velocity": 0.6535433070866141
          },
          {
            "duration": 0.07352937499999967,
            "durationTicks": 15,
            "midi": 70,
            "name": "A#4",
            "ticks": 7410,
            "time": 36.32351125,
            "velocity": 0.5511811023622047
          },
          {
            "duration": 0.4215684166666662,
            "durationTicks": 86,
            "midi": 78,
            "name": "F#5",
            "ticks": 7440,
            "time": 36.47057,
            "velocity": 0.7874015748031497
          },
          {
            "duration": 0.7009800416666678,
            "durationTicks": 143,
            "midi": 51,
            "name": "D#3",
            "ticks": 7440,
            "time": 36.47057,
            "velocity": 0.6535433070866141
          },
          {
            "duration": 0.7107839583333373,
            "durationTicks": 145,
            "midi": 66,
            "name": "F#4",
            "ticks": 7440,
            "time": 36.47057,
            "velocity": 0.6535433070866141
          },
          {
            "duration": 0.8823525000000032,
            "durationTicks": 180,
            "midi": 70,
            "name": "A#4",
            "ticks": 7440,
            "time": 36.47057,
            "velocity": 0.7480314960629921
          },
          {
            "duration": 0.07352937499999967,
            "durationTicks": 15,
            "midi": 78,
            "name": "F#5",
            "ticks": 7560,
            "time": 37.05880500000001,
            "velocity": 0.7874015748031497
          },
          {
            "duration": 0.06372545833333021,
            "durationTicks": 13,
            "midi": 80,
            "name": "G#5",
            "ticks": 7590,
            "time": 37.205863750000006,
            "velocity": 0.7874015748031497
          },
          {
            "duration": 0.06862741666666494,
            "durationTicks": 14,
            "midi": 82,
            "name": "A#5",
            "ticks": 7620,
            "time": 37.352922500000005,
            "velocity": 0.7874015748031497
          },
          {
            "duration": 0.12254895833333279,
            "durationTicks": 25,
            "midi": 51,
            "name": "D#3",
            "ticks": 7620,
            "time": 37.352922500000005,
            "velocity": 0.6535433070866141
          },
          {
            "duration": 0.0931372083333315,
            "durationTicks": 19,
            "midi": 66,
            "name": "F#4",
            "ticks": 7620,
            "time": 37.352922500000005,
            "velocity": 0.6535433070866141
          },
          {
            "duration": 0.07843133333333441,
            "durationTicks": 16,
            "midi": 78,
            "name": "F#5",
            "ticks": 7650,
            "time": 37.499981250000005,
            "velocity": 0.7874015748031497
          },
          {
            "duration": 0.4362742916666704,
            "durationTicks": 89,
            "midi": 84,
            "name": "C6",
            "ticks": 7680,
            "time": 37.647040000000004,
            "velocity": 0.7874015748031497
          },
          {
            "duration": 0.6862741666666636,
            "durationTicks": 140,
            "midi": 44,
            "name": "G#2",
            "ticks": 7680,
            "time": 37.647040000000004,
            "velocity": 0.6535433070866141
          },
          {
            "duration": 0.49019583333333827,
            "durationTicks": 100,
            "midi": 60,
            "name": "C4",
            "ticks": 7680,
            "time": 37.647040000000004,
            "velocity": 0.7480314960629921
          },
          {
            "duration": 0.6519604583333347,
            "durationTicks": 133,
            "midi": 60,
            "name": "C4",
            "ticks": 7680,
            "time": 37.647040000000004,
            "velocity": 0.6535433070866141
          },
          {
            "duration": 0.06862741666666494,
            "durationTicks": 14,
            "midi": 75,
            "name": "D#5",
            "ticks": 7740,
            "time": 37.9411575,
            "velocity": 0.5511811023622047
          },
          {
            "duration": 0.07843133333333441,
            "durationTicks": 16,
            "midi": 73,
            "name": "C#5",
            "ticks": 7770,
            "time": 38.08821625,
            "velocity": 0.5511811023622047
          },
          {
            "duration": 0.08823525000000387,
            "durationTicks": 18,
            "midi": 82,
            "name": "A#5",
            "ticks": 7800,
            "time": 38.235275,
            "velocity": 0.7874015748031497
          },
          {
            "duration": 0.07843133333333441,
            "durationTicks": 16,
            "midi": 72,
            "name": "C5",
            "ticks": 7800,
            "time": 38.235275,
            "velocity": 0.6535433070866141
          },
          {
            "duration": 0.3676468750000055,
            "durationTicks": 75,
            "midi": 72,
            "name": "C5",
            "ticks": 7800,
            "time": 38.235275,
            "velocity": 0.5511811023622047
          },
          {
            "duration": 0.07352937500000678,
            "durationTicks": 15,
            "midi": 75,
            "name": "D#5",
            "ticks": 7830,
            "time": 38.38233375,
            "velocity": 0.5511811023622047
          },
          {
            "duration": 0.0784313333333273,
            "durationTicks": 16,
            "midi": 80,
            "name": "G#5",
            "ticks": 7860,
            "time": 38.52939250000001,
            "velocity": 0.7874015748031497
          },
          {
            "duration": 0.11274504166666333,
            "durationTicks": 23,
            "midi": 44,
            "name": "G#2",
            "ticks": 7860,
            "time": 38.52939250000001,
            "velocity": 0.6535433070866141
          },
          {
            "duration": 0.11274504166666333,
            "durationTicks": 23,
            "midi": 60,
            "name": "C4",
            "ticks": 7860,
            "time": 38.52939250000001,
            "velocity": 0.6535433070866141
          },
          {
            "duration": 0.16176462499999644,
            "durationTicks": 33,
            "midi": 72,
            "name": "C5",
            "ticks": 7860,
            "time": 38.52939250000001,
            "velocity": 0.5511811023622047
          },
          {
            "duration": 0.07352937499999967,
            "durationTicks": 15,
            "midi": 68,
            "name": "G#4",
            "ticks": 7890,
            "time": 38.67645125000001,
            "velocity": 0.5511811023622047
          },
          {
            "duration": 0.44117624999999805,
            "durationTicks": 90,
            "midi": 77,
            "name": "F5",
            "ticks": 7920,
            "time": 38.823510000000006,
            "velocity": 0.7874015748031497
          },
          {
            "duration": 0.7254898333333344,
            "durationTicks": 148,
            "midi": 53,
            "name": "F3",
            "ticks": 7920,
            "time": 38.823510000000006,
            "velocity": 0.6535433070866141
          },
          {
            "duration": 0.5882349999999974,
            "durationTicks": 120,
            "midi": 65,
            "name": "F4",
            "ticks": 7920,
            "time": 38.823510000000006,
            "velocity": 0.7480314960629921
          },
          {
            "duration": 0.8382348749999977,
            "durationTicks": 171,
            "midi": 68,
            "name": "G#4",
            "ticks": 7920,
            "time": 38.823510000000006,
            "velocity": 0.7480314960629921
          },
          {
            "duration": 0.07843133333333441,
            "durationTicks": 16,
            "midi": 77,
            "name": "F5",
            "ticks": 8040,
            "time": 39.411745,
            "velocity": 0.7874015748031497
          },
          {
            "duration": 0.06372545833333731,
            "durationTicks": 13,
            "midi": 78,
            "name": "F#5",
            "ticks": 8070,
            "time": 39.55880375,
            "velocity": 0.7874015748031497
          },
          {
            "duration": 0.07352937499999967,
            "durationTicks": 15,
            "midi": 80,
            "name": "G#5",
            "ticks": 8100,
            "time": 39.7058625,
            "velocity": 0.7874015748031497
          },
          {
            "duration": 0.12745091666666752,
            "durationTicks": 26,
            "midi": 53,
            "name": "F3",
            "ticks": 8100,
            "time": 39.7058625,
            "velocity": 0.6535433070866141
          },
          {
            "duration": 0.11274504166667043,
            "durationTicks": 23,
            "midi": 68,
            "name": "G#4",
            "ticks": 8100,
            "time": 39.7058625,
            "velocity": 0.6535433070866141
          },
          {
            "duration": 0.05392154166666785,
            "durationTicks": 11,
            "midi": 77,
            "name": "F5",
            "ticks": 8130,
            "time": 39.85292125,
            "velocity": 0.7874015748031497
          },
          {
            "duration": 0.42156841666667333,
            "durationTicks": 86,
            "midi": 82,
            "name": "A#5",
            "ticks": 8160,
            "time": 39.99998,
            "velocity": 0.7874015748031497
          },
          {
            "duration": 0.681372208333336,
            "durationTicks": 139,
            "midi": 42,
            "name": "F#2",
            "ticks": 8160,
            "time": 39.99998,
            "velocity": 0.6535433070866141
          },
          {
            "duration": 0.5049017083333354,
            "durationTicks": 103,
            "midi": 58,
            "name": "A#3",
            "ticks": 8160,
            "time": 39.99998,
            "velocity": 0.6535433070866141
          },
          {
            "duration": 0.681372208333336,
            "durationTicks": 139,
            "midi": 58,
            "name": "A#3",
            "ticks": 8160,
            "time": 39.99998,
            "velocity": 0.7480314960629921
          },
          {
            "duration": 0.0784313333333273,
            "durationTicks": 16,
            "midi": 73,
            "name": "C#5",
            "ticks": 8220,
            "time": 40.29409750000001,
            "velocity": 0.5511811023622047
          },
          {
            "duration": 0.06862741666666494,
            "durationTicks": 14,
            "midi": 72,
            "name": "C5",
            "ticks": 8250,
            "time": 40.441156250000006,
            "velocity": 0.5511811023622047
          },
          {
            "duration": 0.06862741666666494,
            "durationTicks": 14,
            "midi": 80,
            "name": "G#5",
            "ticks": 8280,
            "time": 40.588215000000005,
            "velocity": 0.7874015748031497
          },
          {
            "duration": 0.07352937499999967,
            "durationTicks": 15,
            "midi": 70,
            "name": "A#4",
            "ticks": 8280,
            "time": 40.588215000000005,
            "velocity": 0.6535433070866141
          },
          {
            "duration": 0.3676468749999984,
            "durationTicks": 75,
            "midi": 70,
            "name": "A#4",
            "ticks": 8280,
            "time": 40.588215000000005,
            "velocity": 0.5511811023622047
          },
          {
            "duration": 0.07352937499999967,
            "durationTicks": 15,
            "midi": 73,
            "name": "C#5",
            "ticks": 8310,
            "time": 40.735273750000005,
            "velocity": 0.5511811023622047
          },
          {
            "duration": 0.137254833333337,
            "durationTicks": 28,
            "midi": 70,
            "name": "A#4",
            "ticks": 8340,
            "time": 40.882332500000004,
            "velocity": 0.5511811023622047
          },
          {
            "duration": 0.0931372083333315,
            "durationTicks": 19,
            "midi": 78,
            "name": "F#5",
            "ticks": 8340,
            "time": 40.882332500000004,
            "velocity": 0.7874015748031497
          },
          {
            "duration": 0.11274504166667043,
            "durationTicks": 23,
            "midi": 42,
            "name": "F#2",
            "ticks": 8340,
            "time": 40.882332500000004,
            "velocity": 0.6535433070866141
          },
          {
            "duration": 0.10294112500000097,
            "durationTicks": 21,
            "midi": 58,
            "name": "A#3",
            "ticks": 8340,
            "time": 40.882332500000004,
            "velocity": 0.6535433070866141
          },
          {
            "duration": 0.07352937499999967,
            "durationTicks": 15,
            "midi": 66,
            "name": "F#4",
            "ticks": 8370,
            "time": 41.02939125,
            "velocity": 0.5511811023622047
          },
          {
            "duration": 0.4215684166666662,
            "durationTicks": 86,
            "midi": 84,
            "name": "C6",
            "ticks": 8400,
            "time": 41.17645,
            "velocity": 0.7874015748031497
          },
          {
            "duration": 0.6372545833333376,
            "durationTicks": 130,
            "midi": 44,
            "name": "G#2",
            "ticks": 8400,
            "time": 41.17645,
            "velocity": 0.6535433070866141
          },
          {
            "duration": 0.460784083333337,
            "durationTicks": 94,
            "midi": 60,
            "name": "C4",
            "ticks": 8400,
            "time": 41.17645,
            "velocity": 0.6535433070866141
          },
          {
            "duration": 0.6519604583333347,
            "durationTicks": 133,
            "midi": 60,
            "name": "C4",
            "ticks": 8400,
            "time": 41.17645,
            "velocity": 0.7480314960629921
          },
          {
            "duration": 0.07843133333333441,
            "durationTicks": 16,
            "midi": 75,
            "name": "D#5",
            "ticks": 8460,
            "time": 41.4705675,
            "velocity": 0.5511811023622047
          },
          {
            "duration": 0.06862741666666494,
            "durationTicks": 14,
            "midi": 73,
            "name": "C#5",
            "ticks": 8490,
            "time": 41.61762625000001,
            "velocity": 0.5511811023622047
          },
          {
            "duration": 0.06372545833333021,
            "durationTicks": 13,
            "midi": 82,
            "name": "A#5",
            "ticks": 8520,
            "time": 41.76468500000001,
            "velocity": 0.7874015748031497
          },
          {
            "duration": 0.0784313333333273,
            "durationTicks": 16,
            "midi": 72,
            "name": "C5",
            "ticks": 8520,
            "time": 41.76468500000001,
            "velocity": 0.5511811023622047
          },
          {
            "duration": 0.3676468749999984,
            "durationTicks": 75,
            "midi": 72,
            "name": "C5",
            "ticks": 8520,
            "time": 41.76468500000001,
            "velocity": 0.6535433070866141
          },
          {
            "duration": 0.07352937499999967,
            "durationTicks": 15,
            "midi": 75,
            "name": "D#5",
            "ticks": 8550,
            "time": 41.91174375000001,
            "velocity": 0.5511811023622047
          },
          {
            "duration": 0.16666658333333118,
            "durationTicks": 34,
            "midi": 72,
            "name": "C5",
            "ticks": 8580,
            "time": 42.058802500000006,
            "velocity": 0.5511811023622047
          },
          {
            "duration": 0.07843133333333441,
            "durationTicks": 16,
            "midi": 80,
            "name": "G#5",
            "ticks": 8580,
            "time": 42.058802500000006,
            "velocity": 0.7874015748031497
          },
          {
            "duration": 0.12745091666666752,
            "durationTicks": 26,
            "midi": 44,
            "name": "G#2",
            "ticks": 8580,
            "time": 42.058802500000006,
            "velocity": 0.6535433070866141
          },
          {
            "duration": 0.11764699999999806,
            "durationTicks": 24,
            "midi": 60,
            "name": "C4",
            "ticks": 8580,
            "time": 42.058802500000006,
            "velocity": 0.7480314960629921
          },
          {
            "duration": 0.07352937499999967,
            "durationTicks": 15,
            "midi": 68,
            "name": "G#4",
            "ticks": 8610,
            "time": 42.205861250000005,
            "velocity": 0.5511811023622047
          },
          {
            "duration": 2.352940000000004,
            "durationTicks": 480,
            "midi": 82,
            "name": "A#5",
            "ticks": 8640,
            "time": 42.352920000000005,
            "velocity": 0.7874015748031497
          },
          {
            "duration": 2.367645875000001,
            "durationTicks": 483,
            "midi": 46,
            "name": "A#2",
            "ticks": 8640,
            "time": 42.352920000000005,
            "velocity": 0.6535433070866141
          },
          {
            "duration": 2.352940000000004,
            "durationTicks": 480,
            "midi": 61,
            "name": "C#4",
            "ticks": 8640,
            "time": 42.352920000000005,
            "velocity": 0.7480314960629921
          },
          {
            "duration": 2.352940000000004,
            "durationTicks": 480,
            "midi": 73,
            "name": "C#5",
            "ticks": 8640,
            "time": 42.352920000000005,
            "velocity": 0.6535433070866141
          },
          {
            "duration": 2.352940000000004,
            "durationTicks": 480,
            "midi": 61,
            "name": "C#4",
            "ticks": 8640,
            "time": 42.352920000000005,
            "velocity": 0.6535433070866141
          },
          {
            "duration": 0.14705874999999935,
            "durationTicks": 30,
            "midi": 65,
            "name": "F4",
            "ticks": 8880,
            "time": 43.52939000000001,
            "velocity": 0.7086614173228346
          },
          {
            "duration": 0.14705874999999935,
            "durationTicks": 30,
            "midi": 66,
            "name": "F#4",
            "ticks": 8910,
            "time": 43.676448750000006,
            "velocity": 0.7086614173228346
          },
          {
            "duration": 0.14705874999999935,
            "durationTicks": 30,
            "midi": 67,
            "name": "G4",
            "ticks": 8940,
            "time": 43.823507500000005,
            "velocity": 0.7086614173228346
          },
          {
            "duration": 0.14705874999999935,
            "durationTicks": 30,
            "midi": 68,
            "name": "G#4",
            "ticks": 8970,
            "time": 43.970566250000005,
            "velocity": 0.7086614173228346
          },
          {
            "duration": 0.14705874999999935,
            "durationTicks": 30,
            "midi": 69,
            "name": "A4",
            "ticks": 9000,
            "time": 44.117625000000004,
            "velocity": 0.7086614173228346
          },
          {
            "duration": 0.14705874999999935,
            "durationTicks": 30,
            "midi": 68,
            "name": "G#4",
            "ticks": 9030,
            "time": 44.26468375,
            "velocity": 0.7086614173228346
          },
          {
            "duration": 0.14705874999999935,
            "durationTicks": 30,
            "midi": 67,
            "name": "G4",
            "ticks": 9060,
            "time": 44.4117425,
            "velocity": 0.7086614173228346
          },
          {
            "duration": 0.14705875000000646,
            "durationTicks": 30,
            "midi": 66,
            "name": "F#4",
            "ticks": 9090,
            "time": 44.55880125,
            "velocity": 0.7086614173228346
          },
          {
            "duration": 0.47058800000002066,
            "durationTicks": 96,
            "midi": 85,
            "name": "C#6",
            "ticks": 16800,
            "time": 82.3529,
            "velocity": 0.7874015748031497
          },
          {
            "duration": 0.6862741666666636,
            "durationTicks": 140,
            "midi": 46,
            "name": "A#2",
            "ticks": 16800,
            "time": 82.3529,
            "velocity": 0.6535433070866141
          },
          {
            "duration": 0.48529387499999643,
            "durationTicks": 99,
            "midi": 61,
            "name": "C#4",
            "ticks": 16800,
            "time": 82.3529,
            "velocity": 0.7480314960629921
          },
          {
            "duration": 0.6911761249999984,
            "durationTicks": 141,
            "midi": 61,
            "name": "C#4",
            "ticks": 16800,
            "time": 82.3529,
            "velocity": 0.6535433070866141
          },
          {
            "duration": 0.0637254583333231,
            "durationTicks": 13,
            "midi": 77,
            "name": "F5",
            "ticks": 16860,
            "time": 82.6470175,
            "velocity": 0.5511811023622047
          },
          {
            "duration": 0.07352937499999257,
            "durationTicks": 15,
            "midi": 75,
            "name": "D#5",
            "ticks": 16890,
            "time": 82.79407625000002,
            "velocity": 0.5511811023622047
          },
          {
            "duration": 0.0784313333333273,
            "durationTicks": 16,
            "midi": 84,
            "name": "C6",
            "ticks": 16920,
            "time": 82.941135,
            "velocity": 0.7874015748031497
          },
          {
            "duration": 0.0784313333333273,
            "durationTicks": 16,
            "midi": 73,
            "name": "C#5",
            "ticks": 16920,
            "time": 82.941135,
            "velocity": 0.6535433070866141
          },
          {
            "duration": 0.42156841666667333,
            "durationTicks": 86,
            "midi": 73,
            "name": "C#5",
            "ticks": 16920,
            "time": 82.941135,
            "velocity": 0.7480314960629921
          },
          {
            "duration": 0.07352937499999257,
            "durationTicks": 15,
            "midi": 77,
            "name": "F5",
            "ticks": 16950,
            "time": 83.08819375000002,
            "velocity": 0.5511811023622047
          },
          {
            "duration": 0.09803916666666623,
            "durationTicks": 20,
            "midi": 82,
            "name": "A#5",
            "ticks": 16980,
            "time": 83.2352525,
            "velocity": 0.7874015748031497
          },
          {
            "duration": 0.11274504166667043,
            "durationTicks": 23,
            "midi": 46,
            "name": "A#2",
            "ticks": 16980,
            "time": 83.2352525,
            "velocity": 0.6535433070866141
          },
          {
            "duration": 0.12745091666667463,
            "durationTicks": 26,
            "midi": 61,
            "name": "C#4",
            "ticks": 16980,
            "time": 83.2352525,
            "velocity": 0.6535433070866141
          },
          {
            "duration": 0.07352937499999257,
            "durationTicks": 15,
            "midi": 70,
            "name": "A#4",
            "ticks": 17010,
            "time": 83.38231125000001,
            "velocity": 0.5511811023622047
          },
          {
            "duration": 0.42156841666667333,
            "durationTicks": 86,
            "midi": 78,
            "name": "F#5",
            "ticks": 17040,
            "time": 83.52937,
            "velocity": 0.7874015748031497
          },
          {
            "duration": 0.7009800416666678,
            "durationTicks": 143,
            "midi": 51,
            "name": "D#3",
            "ticks": 17040,
            "time": 83.52937,
            "velocity": 0.6535433070866141
          },
          {
            "duration": 0.7107839583333373,
            "durationTicks": 145,
            "midi": 66,
            "name": "F#4",
            "ticks": 17040,
            "time": 83.52937,
            "velocity": 0.6535433070866141
          },
          {
            "duration": 0.8823524999999961,
            "durationTicks": 180,
            "midi": 70,
            "name": "A#4",
            "ticks": 17040,
            "time": 83.52937,
            "velocity": 0.7480314960629921
          },
          {
            "duration": 0.07352937500002099,
            "durationTicks": 15,
            "midi": 78,
            "name": "F#5",
            "ticks": 17160,
            "time": 84.117605,
            "velocity": 0.7874015748031497
          },
          {
            "duration": 0.0637254583333231,
            "durationTicks": 13,
            "midi": 80,
            "name": "G#5",
            "ticks": 17190,
            "time": 84.26466375000001,
            "velocity": 0.7874015748031497
          },
          {
            "duration": 0.06862741666668626,
            "durationTicks": 14,
            "midi": 82,
            "name": "A#5",
            "ticks": 17220,
            "time": 84.4117225,
            "velocity": 0.7874015748031497
          },
          {
            "duration": 0.1225489583333399,
            "durationTicks": 25,
            "midi": 51,
            "name": "D#3",
            "ticks": 17220,
            "time": 84.4117225,
            "velocity": 0.6535433070866141
          },
          {
            "duration": 0.0931372083333315,
            "durationTicks": 19,
            "midi": 66,
            "name": "F#4",
            "ticks": 17220,
            "time": 84.4117225,
            "velocity": 0.6535433070866141
          },
          {
            "duration": 0.0784313333333273,
            "durationTicks": 16,
            "midi": 78,
            "name": "F#5",
            "ticks": 17250,
            "time": 84.55878125000001,
            "velocity": 0.7874015748031497
          },
          {
            "duration": 0.4362742916666491,
            "durationTicks": 89,
            "midi": 84,
            "name": "C6",
            "ticks": 17280,
            "time": 84.70584000000002,
            "velocity": 0.7874015748031497
          },
          {
            "duration": 0.6862741666666352,
            "durationTicks": 140,
            "midi": 44,
            "name": "G#2",
            "ticks": 17280,
            "time": 84.70584000000002,
            "velocity": 0.6535433070866141
          },
          {
            "duration": 0.49019583333333117,
            "durationTicks": 100,
            "midi": 60,
            "name": "C4",
            "ticks": 17280,
            "time": 84.70584000000002,
            "velocity": 0.7480314960629921
          },
          {
            "duration": 0.6519604583333205,
            "durationTicks": 133,
            "midi": 60,
            "name": "C4",
            "ticks": 17280,
            "time": 84.70584000000002,
            "velocity": 0.6535433070866141
          },
          {
            "duration": 0.06862741666665784,
            "durationTicks": 14,
            "midi": 75,
            "name": "D#5",
            "ticks": 17340,
            "time": 84.99995750000002,
            "velocity": 0.5511811023622047
          },
          {
            "duration": 0.0784313333333273,
            "durationTicks": 16,
            "midi": 73,
            "name": "C#5",
            "ticks": 17370,
            "time": 85.14701625000001,
            "velocity": 0.5511811023622047
          },
          {
            "duration": 0.08823524999999677,
            "durationTicks": 18,
            "midi": 82,
            "name": "A#5",
            "ticks": 17400,
            "time": 85.29407500000002,
            "velocity": 0.7874015748031497
          },
          {
            "duration": 0.0784313333333273,
            "durationTicks": 16,
            "midi": 72,
            "name": "C5",
            "ticks": 17400,
            "time": 85.29407500000002,
            "velocity": 0.6535433070866141
          },
          {
            "duration": 0.36764687499999127,
            "durationTicks": 75,
            "midi": 72,
            "name": "C5",
            "ticks": 17400,
            "time": 85.29407500000002,
            "velocity": 0.5511811023622047
          },
          {
            "duration": 0.07352937499999257,
            "durationTicks": 15,
            "midi": 75,
            "name": "D#5",
            "ticks": 17430,
            "time": 85.44113375,
            "velocity": 0.5511811023622047
          },
          {
            "duration": 0.0784313333333273,
            "durationTicks": 16,
            "midi": 80,
            "name": "G#5",
            "ticks": 17460,
            "time": 85.58819250000002,
            "velocity": 0.7874015748031497
          },
          {
            "duration": 0.11274504166664201,
            "durationTicks": 23,
            "midi": 44,
            "name": "G#2",
            "ticks": 17460,
            "time": 85.58819250000002,
            "velocity": 0.6535433070866141
          },
          {
            "duration": 0.11274504166664201,
            "durationTicks": 23,
            "midi": 60,
            "name": "C4",
            "ticks": 17460,
            "time": 85.58819250000002,
            "velocity": 0.6535433070866141
          },
          {
            "duration": 0.16176462499998934,
            "durationTicks": 33,
            "midi": 72,
            "name": "C5",
            "ticks": 17460,
            "time": 85.58819250000002,
            "velocity": 0.5511811023622047
          },
          {
            "duration": 0.07352937499999257,
            "durationTicks": 15,
            "midi": 68,
            "name": "G#4",
            "ticks": 17490,
            "time": 85.73525125,
            "velocity": 0.5511811023622047
          },
          {
            "duration": 0.44117624999998384,
            "durationTicks": 90,
            "midi": 77,
            "name": "F5",
            "ticks": 17520,
            "time": 85.88231000000002,
            "velocity": 0.7874015748031497
          },
          {
            "duration": 0.7254898333333131,
            "durationTicks": 148,
            "midi": 53,
            "name": "F3",
            "ticks": 17520,
            "time": 85.88231000000002,
            "velocity": 0.6535433070866141
          },
          {
            "duration": 0.5882349999999974,
            "durationTicks": 120,
            "midi": 65,
            "name": "F4",
            "ticks": 17520,
            "time": 85.88231000000002,
            "velocity": 0.7480314960629921
          },
          {
            "duration": 0.8382348750000119,
            "durationTicks": 171,
            "midi": 68,
            "name": "G#4",
            "ticks": 17520,
            "time": 85.88231000000002,
            "velocity": 0.7480314960629921
          },
          {
            "duration": 0.0784313333333273,
            "durationTicks": 16,
            "midi": 77,
            "name": "F5",
            "ticks": 17640,
            "time": 86.47054500000002,
            "velocity": 0.7874015748031497
          },
          {
            "duration": 0.0637254583333231,
            "durationTicks": 13,
            "midi": 78,
            "name": "F#5",
            "ticks": 17670,
            "time": 86.61760375,
            "velocity": 0.7874015748031497
          },
          {
            "duration": 0.07352937499999257,
            "durationTicks": 15,
            "midi": 80,
            "name": "G#5",
            "ticks": 17700,
            "time": 86.76466250000001,
            "velocity": 0.7874015748031497
          },
          {
            "duration": 0.12745091666667463,
            "durationTicks": 26,
            "midi": 53,
            "name": "F3",
            "ticks": 17700,
            "time": 86.76466250000001,
            "velocity": 0.6535433070866141
          },
          {
            "duration": 0.11274504166667043,
            "durationTicks": 23,
            "midi": 68,
            "name": "G#4",
            "ticks": 17700,
            "time": 86.76466250000001,
            "velocity": 0.6535433070866141
          },
          {
            "duration": 0.05392154166668206,
            "durationTicks": 11,
            "midi": 77,
            "name": "F5",
            "ticks": 17730,
            "time": 86.91172125,
            "velocity": 0.7874015748031497
          },
          {
            "duration": 0.42156841666667333,
            "durationTicks": 86,
            "midi": 82,
            "name": "A#5",
            "ticks": 17760,
            "time": 87.05878000000001,
            "velocity": 0.7874015748031497
          },
          {
            "duration": 0.6813722083333289,
            "durationTicks": 139,
            "midi": 42,
            "name": "F#2",
            "ticks": 17760,
            "time": 87.05878000000001,
            "velocity": 0.6535433070866141
          },
          {
            "duration": 0.5049017083333354,
            "durationTicks": 103,
            "midi": 58,
            "name": "A#3",
            "ticks": 17760,
            "time": 87.05878000000001,
            "velocity": 0.6535433070866141
          },
          {
            "duration": 0.6813722083333289,
            "durationTicks": 139,
            "midi": 58,
            "name": "A#3",
            "ticks": 17760,
            "time": 87.05878000000001,
            "velocity": 0.7480314960629921
          },
          {
            "duration": 0.0784313333333273,
            "durationTicks": 16,
            "midi": 73,
            "name": "C#5",
            "ticks": 17820,
            "time": 87.35289750000001,
            "velocity": 0.5511811023622047
          },
          {
            "duration": 0.06862741666668626,
            "durationTicks": 14,
            "midi": 72,
            "name": "C5",
            "ticks": 17850,
            "time": 87.49995625,
            "velocity": 0.5511811023622047
          },
          {
            "duration": 0.06862741666665784,
            "durationTicks": 14,
            "midi": 80,
            "name": "G#5",
            "ticks": 17880,
            "time": 87.64701500000001,
            "velocity": 0.7874015748031497
          },
          {
            "duration": 0.07352937499999257,
            "durationTicks": 15,
            "midi": 70,
            "name": "A#4",
            "ticks": 17880,
            "time": 87.64701500000001,
            "velocity": 0.6535433070866141
          },
          {
            "duration": 0.36764687499999127,
            "durationTicks": 75,
            "midi": 70,
            "name": "A#4",
            "ticks": 17880,
            "time": 87.64701500000001,
            "velocity": 0.5511811023622047
          },
          {
            "duration": 0.07352937500002099,
            "durationTicks": 15,
            "midi": 73,
            "name": "C#5",
            "ticks": 17910,
            "time": 87.79407375,
            "velocity": 0.5511811023622047
          },
          {
            "duration": 0.13725483333331567,
            "durationTicks": 28,
            "midi": 70,
            "name": "A#4",
            "ticks": 17940,
            "time": 87.94113250000001,
            "velocity": 0.5511811023622047
          },
          {
            "duration": 0.0931372083333315,
            "durationTicks": 19,
            "midi": 78,
            "name": "F#5",
            "ticks": 17940,
            "time": 87.94113250000001,
            "velocity": 0.7874015748031497
          },
          {
            "duration": 0.11274504166667043,
            "durationTicks": 23,
            "midi": 42,
            "name": "F#2",
            "ticks": 17940,
            "time": 87.94113250000001,
            "velocity": 0.6535433070866141
          },
          {
            "duration": 0.10294112500000097,
            "durationTicks": 21,
            "midi": 58,
            "name": "A#3",
            "ticks": 17940,
            "time": 87.94113250000001,
            "velocity": 0.6535433070866141
          },
          {
            "duration": 0.07352937499999257,
            "durationTicks": 15,
            "midi": 66,
            "name": "F#4",
            "ticks": 17970,
            "time": 88.08819125000002,
            "velocity": 0.5511811023622047
          },
          {
            "duration": 0.42156841666667333,
            "durationTicks": 86,
            "midi": 84,
            "name": "C6",
            "ticks": 18000,
            "time": 88.23525000000001,
            "velocity": 0.7874015748031497
          },
          {
            "duration": 0.6372545833333447,
            "durationTicks": 130,
            "midi": 44,
            "name": "G#2",
            "ticks": 18000,
            "time": 88.23525000000001,
            "velocity": 0.6535433070866141
          },
          {
            "duration": 0.46078408333332277,
            "durationTicks": 94,
            "midi": 60,
            "name": "C4",
            "ticks": 18000,
            "time": 88.23525000000001,
            "velocity": 0.6535433070866141
          },
          {
            "duration": 0.6519604583333205,
            "durationTicks": 133,
            "midi": 60,
            "name": "C4",
            "ticks": 18000,
            "time": 88.23525000000001,
            "velocity": 0.7480314960629921
          },
          {
            "duration": 0.0784313333333273,
            "durationTicks": 16,
            "midi": 75,
            "name": "D#5",
            "ticks": 18060,
            "time": 88.5293675,
            "velocity": 0.5511811023622047
          },
          {
            "duration": 0.06862741666665784,
            "durationTicks": 14,
            "midi": 73,
            "name": "C#5",
            "ticks": 18090,
            "time": 88.67642625000002,
            "velocity": 0.5511811023622047
          },
          {
            "duration": 0.0637254583333231,
            "durationTicks": 13,
            "midi": 82,
            "name": "A#5",
            "ticks": 18120,
            "time": 88.823485,
            "velocity": 0.7874015748031497
          },
          {
            "duration": 0.0784313333333273,
            "durationTicks": 16,
            "midi": 72,
            "name": "C5",
            "ticks": 18120,
            "time": 88.823485,
            "velocity": 0.5511811023622047
          },
          {
            "duration": 0.36764687499999127,
            "durationTicks": 75,
            "midi": 72,
            "name": "C5",
            "ticks": 18120,
            "time": 88.823485,
            "velocity": 0.6535433070866141
          },
          {
            "duration": 0.07352937499999257,
            "durationTicks": 15,
            "midi": 75,
            "name": "D#5",
            "ticks": 18150,
            "time": 88.97054375000002,
            "velocity": 0.5511811023622047
          },
          {
            "duration": 0.16666658333332407,
            "durationTicks": 34,
            "midi": 72,
            "name": "C5",
            "ticks": 18180,
            "time": 89.1176025,
            "velocity": 0.5511811023622047
          },
          {
            "duration": 0.0784313333333273,
            "durationTicks": 16,
            "midi": 80,
            "name": "G#5",
            "ticks": 18180,
            "time": 89.1176025,
            "velocity": 0.7874015748031497
          },
          {
            "duration": 0.12745091666667463,
            "durationTicks": 26,
            "midi": 44,
            "name": "G#2",
            "ticks": 18180,
            "time": 89.1176025,
            "velocity": 0.6535433070866141
          },
          {
            "duration": 0.11764700000000516,
            "durationTicks": 24,
            "midi": 60,
            "name": "C4",
            "ticks": 18180,
            "time": 89.1176025,
            "velocity": 0.7480314960629921
          },
          {
            "duration": 0.07352937499999257,
            "durationTicks": 15,
            "midi": 68,
            "name": "G#4",
            "ticks": 18210,
            "time": 89.26466125000002,
            "velocity": 0.5511811023622047
          },
          {
            "duration": 2.352940000000018,
            "durationTicks": 480,
            "midi": 82,
            "name": "A#5",
            "ticks": 18240,
            "time": 89.41172,
            "velocity": 0.7874015748031497
          },
          {
            "duration": 2.367645875000022,
            "durationTicks": 483,
            "midi": 46,
            "name": "A#2",
            "ticks": 18240,
            "time": 89.41172,
            "velocity": 0.6535433070866141
          },
          {
            "duration": 2.352940000000018,
            "durationTicks": 480,
            "midi": 61,
            "name": "C#4",
            "ticks": 18240,
            "time": 89.41172,
            "velocity": 0.7480314960629921
          },
          {
            "duration": 2.352940000000018,
            "durationTicks": 480,
            "midi": 73,
            "name": "C#5",
            "ticks": 18240,
            "time": 89.41172,
            "velocity": 0.6535433070866141
          },
          {
            "duration": 2.352940000000018,
            "durationTicks": 480,
            "midi": 61,
            "name": "C#4",
            "ticks": 18240,
            "time": 89.41172,
            "velocity": 0.6535433070866141
          },
          {
            "duration": 0.14705875000001356,
            "durationTicks": 30,
            "midi": 65,
            "name": "F4",
            "ticks": 18480,
            "time": 90.58819,
            "velocity": 0.7086614173228346
          },
          {
            "duration": 0.14705874999998514,
            "durationTicks": 30,
            "midi": 66,
            "name": "F#4",
            "ticks": 18510,
            "time": 90.73524875000001,
            "velocity": 0.7086614173228346
          },
          {
            "duration": 0.14705875000001356,
            "durationTicks": 30,
            "midi": 67,
            "name": "G4",
            "ticks": 18540,
            "time": 90.8823075,
            "velocity": 0.7086614173228346
          },
          {
            "duration": 0.14705875000001356,
            "durationTicks": 30,
            "midi": 68,
            "name": "G#4",
            "ticks": 18570,
            "time": 91.02936625000001,
            "velocity": 0.7086614173228346
          },
          {
            "duration": 0.14705874999998514,
            "durationTicks": 30,
            "midi": 69,
            "name": "A4",
            "ticks": 18600,
            "time": 91.17642500000002,
            "velocity": 0.7086614173228346
          },
          {
            "duration": 0.14705875000001356,
            "durationTicks": 30,
            "midi": 68,
            "name": "G#4",
            "ticks": 18630,
            "time": 91.32348375000001,
            "velocity": 0.7086614173228346
          },
          {
            "duration": 0.14705874999998514,
            "durationTicks": 30,
            "midi": 67,
            "name": "G4",
            "ticks": 18660,
            "time": 91.47054250000002,
            "velocity": 0.7086614173228346
          },
          {
            "duration": 0.14705875000001356,
            "durationTicks": 30,
            "midi": 66,
            "name": "F#4",
            "ticks": 18690,
            "time": 91.61760125,
            "velocity": 0.7086614173228346
          },
          {
            "duration": 0.47058799999999223,
            "durationTicks": 96,
            "midi": 85,
            "name": "C#6",
            "ticks": 18720,
            "time": 91.76466000000002,
            "velocity": 0.7874015748031497
          },
          {
            "duration": 0.6862741666666636,
            "durationTicks": 140,
            "midi": 46,
            "name": "A#2",
            "ticks": 18720,
            "time": 91.76466000000002,
            "velocity": 0.6535433070866141
          },
          {
            "duration": 0.48529387499999643,
            "durationTicks": 99,
            "midi": 61,
            "name": "C#4",
            "ticks": 18720,
            "time": 91.76466000000002,
            "velocity": 0.7480314960629921
          },
          {
            "duration": 0.6911761249999984,
            "durationTicks": 141,
            "midi": 61,
            "name": "C#4",
            "ticks": 18720,
            "time": 91.76466000000002,
            "velocity": 0.6535433070866141
          },
          {
            "duration": 0.0637254583333231,
            "durationTicks": 13,
            "midi": 77,
            "name": "F5",
            "ticks": 18780,
            "time": 92.05877750000002,
            "velocity": 0.5511811023622047
          },
          {
            "duration": 0.07352937499999257,
            "durationTicks": 15,
            "midi": 75,
            "name": "D#5",
            "ticks": 18810,
            "time": 92.20583625,
            "velocity": 0.5511811023622047
          },
          {
            "duration": 0.0784313333333273,
            "durationTicks": 16,
            "midi": 84,
            "name": "C6",
            "ticks": 18840,
            "time": 92.35289500000002,
            "velocity": 0.7874015748031497
          },
          {
            "duration": 0.0784313333333273,
            "durationTicks": 16,
            "midi": 73,
            "name": "C#5",
            "ticks": 18840,
            "time": 92.35289500000002,
            "velocity": 0.6535433070866141
          },
          {
            "duration": 0.42156841666667333,
            "durationTicks": 86,
            "midi": 73,
            "name": "C#5",
            "ticks": 18840,
            "time": 92.35289500000002,
            "velocity": 0.7480314960629921
          },
          {
            "duration": 0.07352937500002099,
            "durationTicks": 15,
            "midi": 77,
            "name": "F5",
            "ticks": 18870,
            "time": 92.49995375,
            "velocity": 0.5511811023622047
          },
          {
            "duration": 0.09803916666666623,
            "durationTicks": 20,
            "midi": 82,
            "name": "A#5",
            "ticks": 18900,
            "time": 92.64701250000002,
            "velocity": 0.7874015748031497
          },
          {
            "duration": 0.11274504166667043,
            "durationTicks": 23,
            "midi": 46,
            "name": "A#2",
            "ticks": 18900,
            "time": 92.64701250000002,
            "velocity": 0.6535433070866141
          },
          {
            "duration": 0.12745091666667463,
            "durationTicks": 26,
            "midi": 61,
            "name": "C#4",
            "ticks": 18900,
            "time": 92.64701250000002,
            "velocity": 0.6535433070866141
          },
          {
            "duration": 0.07352937500002099,
            "durationTicks": 15,
            "midi": 70,
            "name": "A#4",
            "ticks": 18930,
            "time": 92.79407125,
            "velocity": 0.5511811023622047
          },
          {
            "duration": 0.42156841666667333,
            "durationTicks": 86,
            "midi": 78,
            "name": "F#5",
            "ticks": 18960,
            "time": 92.94113000000002,
            "velocity": 0.7874015748031497
          },
          {
            "duration": 0.7009800416666678,
            "durationTicks": 143,
            "midi": 51,
            "name": "D#3",
            "ticks": 18960,
            "time": 92.94113000000002,
            "velocity": 0.6535433070866141
          },
          {
            "duration": 0.7107839583333373,
            "durationTicks": 145,
            "midi": 66,
            "name": "F#4",
            "ticks": 18960,
            "time": 92.94113000000002,
            "velocity": 0.6535433070866141
          },
          {
            "duration": 0.8823524999999961,
            "durationTicks": 180,
            "midi": 70,
            "name": "A#4",
            "ticks": 18960,
            "time": 92.94113000000002,
            "velocity": 0.7480314960629921
          },
          {
            "duration": 0.07352937499999257,
            "durationTicks": 15,
            "midi": 78,
            "name": "F#5",
            "ticks": 19080,
            "time": 93.52936500000001,
            "velocity": 0.7874015748031497
          },
          {
            "duration": 0.06372545833335153,
            "durationTicks": 13,
            "midi": 80,
            "name": "G#5",
            "ticks": 19110,
            "time": 93.67642375,
            "velocity": 0.7874015748031497
          },
          {
            "duration": 0.06862741666665784,
            "durationTicks": 14,
            "midi": 82,
            "name": "A#5",
            "ticks": 19140,
            "time": 93.82348250000001,
            "velocity": 0.7874015748031497
          },
          {
            "duration": 0.1225489583333399,
            "durationTicks": 25,
            "midi": 51,
            "name": "D#3",
            "ticks": 19140,
            "time": 93.82348250000001,
            "velocity": 0.6535433070866141
          },
          {
            "duration": 0.0931372083333315,
            "durationTicks": 19,
            "midi": 66,
            "name": "F#4",
            "ticks": 19140,
            "time": 93.82348250000001,
            "velocity": 0.6535433070866141
          },
          {
            "duration": 0.07843133333335572,
            "durationTicks": 16,
            "midi": 78,
            "name": "F#5",
            "ticks": 19170,
            "time": 93.97054125,
            "velocity": 0.7874015748031497
          },
          {
            "duration": 0.4362742916666775,
            "durationTicks": 89,
            "midi": 84,
            "name": "C6",
            "ticks": 19200,
            "time": 94.11760000000001,
            "velocity": 0.7874015748031497
          },
          {
            "duration": 0.6862741666666636,
            "durationTicks": 140,
            "midi": 44,
            "name": "G#2",
            "ticks": 19200,
            "time": 94.11760000000001,
            "velocity": 0.6535433070866141
          },
          {
            "duration": 0.49019583333333117,
            "durationTicks": 100,
            "midi": 60,
            "name": "C4",
            "ticks": 19200,
            "time": 94.11760000000001,
            "velocity": 0.7480314960629921
          },
          {
            "duration": 0.6519604583333205,
            "durationTicks": 133,
            "midi": 60,
            "name": "C4",
            "ticks": 19200,
            "time": 94.11760000000001,
            "velocity": 0.6535433070866141
          },
          {
            "duration": 0.06862741666668626,
            "durationTicks": 14,
            "midi": 75,
            "name": "D#5",
            "ticks": 19260,
            "time": 94.41171750000001,
            "velocity": 0.5511811023622047
          },
          {
            "duration": 0.0784313333333273,
            "durationTicks": 16,
            "midi": 73,
            "name": "C#5",
            "ticks": 19290,
            "time": 94.55877625000002,
            "velocity": 0.5511811023622047
          },
          {
            "duration": 0.08823524999999677,
            "durationTicks": 18,
            "midi": 82,
            "name": "A#5",
            "ticks": 19320,
            "time": 94.70583500000001,
            "velocity": 0.7874015748031497
          },
          {
            "duration": 0.0784313333333273,
            "durationTicks": 16,
            "midi": 72,
            "name": "C5",
            "ticks": 19320,
            "time": 94.70583500000001,
            "velocity": 0.6535433070866141
          },
          {
            "duration": 0.36764687499999127,
            "durationTicks": 75,
            "midi": 72,
            "name": "C5",
            "ticks": 19320,
            "time": 94.70583500000001,
            "velocity": 0.5511811023622047
          },
          {
            "duration": 0.07352937499999257,
            "durationTicks": 15,
            "midi": 75,
            "name": "D#5",
            "ticks": 19350,
            "time": 94.85289375000002,
            "velocity": 0.5511811023622047
          },
          {
            "duration": 0.0784313333333273,
            "durationTicks": 16,
            "midi": 80,
            "name": "G#5",
            "ticks": 19380,
            "time": 94.9999525,
            "velocity": 0.7874015748031497
          },
          {
            "duration": 0.11274504166667043,
            "durationTicks": 23,
            "midi": 44,
            "name": "G#2",
            "ticks": 19380,
            "time": 94.9999525,
            "velocity": 0.6535433070866141
          },
          {
            "duration": 0.11274504166667043,
            "durationTicks": 23,
            "midi": 60,
            "name": "C4",
            "ticks": 19380,
            "time": 94.9999525,
            "velocity": 0.6535433070866141
          },
          {
            "duration": 0.16176462500001776,
            "durationTicks": 33,
            "midi": 72,
            "name": "C5",
            "ticks": 19380,
            "time": 94.9999525,
            "velocity": 0.5511811023622047
          },
          {
            "duration": 0.07352937499999257,
            "durationTicks": 15,
            "midi": 68,
            "name": "G#4",
            "ticks": 19410,
            "time": 95.14701125000002,
            "velocity": 0.5511811023622047
          },
          {
            "duration": 0.44117625000001226,
            "durationTicks": 90,
            "midi": 77,
            "name": "F5",
            "ticks": 19440,
            "time": 95.29407,
            "velocity": 0.7874015748031497
          },
          {
            "duration": 0.7254898333333415,
            "durationTicks": 148,
            "midi": 53,
            "name": "F3",
            "ticks": 19440,
            "time": 95.29407,
            "velocity": 0.6535433070866141
          },
          {
            "duration": 0.5882349999999974,
            "durationTicks": 120,
            "midi": 65,
            "name": "F4",
            "ticks": 19440,
            "time": 95.29407,
            "velocity": 0.7480314960629921
          },
          {
            "duration": 0.8382348750000119,
            "durationTicks": 171,
            "midi": 68,
            "name": "G#4",
            "ticks": 19440,
            "time": 95.29407,
            "velocity": 0.7480314960629921
          },
          {
            "duration": 0.0784313333333273,
            "durationTicks": 16,
            "midi": 77,
            "name": "F5",
            "ticks": 19560,
            "time": 95.882305,
            "velocity": 0.7874015748031497
          },
          {
            "duration": 0.0637254583333231,
            "durationTicks": 13,
            "midi": 78,
            "name": "F#5",
            "ticks": 19590,
            "time": 96.02936375000002,
            "velocity": 0.7874015748031497
          },
          {
            "duration": 0.07352937500002099,
            "durationTicks": 15,
            "midi": 80,
            "name": "G#5",
            "ticks": 19620,
            "time": 96.1764225,
            "velocity": 0.7874015748031497
          },
          {
            "duration": 0.12745091666667463,
            "durationTicks": 26,
            "midi": 53,
            "name": "F3",
            "ticks": 19620,
            "time": 96.1764225,
            "velocity": 0.6535433070866141
          },
          {
            "duration": 0.11274504166667043,
            "durationTicks": 23,
            "midi": 68,
            "name": "G#4",
            "ticks": 19620,
            "time": 96.1764225,
            "velocity": 0.6535433070866141
          },
          {
            "duration": 0.05392154166665364,
            "durationTicks": 11,
            "midi": 77,
            "name": "F5",
            "ticks": 19650,
            "time": 96.32348125000001,
            "velocity": 0.7874015748031497
          },
          {
            "duration": 0.42156841666667333,
            "durationTicks": 86,
            "midi": 82,
            "name": "A#5",
            "ticks": 19680,
            "time": 96.47054,
            "velocity": 0.7874015748031497
          },
          {
            "duration": 0.6813722083333289,
            "durationTicks": 139,
            "midi": 42,
            "name": "F#2",
            "ticks": 19680,
            "time": 96.47054,
            "velocity": 0.6535433070866141
          },
          {
            "duration": 0.5049017083333354,
            "durationTicks": 103,
            "midi": 58,
            "name": "A#3",
            "ticks": 19680,
            "time": 96.47054,
            "velocity": 0.6535433070866141
          },
          {
            "duration": 0.6813722083333289,
            "durationTicks": 139,
            "midi": 58,
            "name": "A#3",
            "ticks": 19680,
            "time": 96.47054,
            "velocity": 0.7480314960629921
          },
          {
            "duration": 0.0784313333333273,
            "durationTicks": 16,
            "midi": 73,
            "name": "C#5",
            "ticks": 19740,
            "time": 96.7646575,
            "velocity": 0.5511811023622047
          },
          {
            "duration": 0.06862741666665784,
            "durationTicks": 14,
            "midi": 72,
            "name": "C5",
            "ticks": 19770,
            "time": 96.91171625000001,
            "velocity": 0.5511811023622047
          },
          {
            "duration": 0.06862741666668626,
            "durationTicks": 14,
            "midi": 80,
            "name": "G#5",
            "ticks": 19800,
            "time": 97.058775,
            "velocity": 0.7874015748031497
          },
          {
            "duration": 0.07352937500002099,
            "durationTicks": 15,
            "midi": 70,
            "name": "A#4",
            "ticks": 19800,
            "time": 97.058775,
            "velocity": 0.6535433070866141
          },
          {
            "duration": 0.3676468750000197,
            "durationTicks": 75,
            "midi": 70,
            "name": "A#4",
            "ticks": 19800,
            "time": 97.058775,
            "velocity": 0.5511811023622047
          },
          {
            "duration": 0.07352937499999257,
            "durationTicks": 15,
            "midi": 73,
            "name": "C#5",
            "ticks": 19830,
            "time": 97.20583375000001,
            "velocity": 0.5511811023622047
          },
          {
            "duration": 0.13725483333331567,
            "durationTicks": 28,
            "midi": 70,
            "name": "A#4",
            "ticks": 19860,
            "time": 97.35289250000002,
            "velocity": 0.5511811023622047
          },
          {
            "duration": 0.0931372083333315,
            "durationTicks": 19,
            "midi": 78,
            "name": "F#5",
            "ticks": 19860,
            "time": 97.35289250000002,
            "velocity": 0.7874015748031497
          },
          {
            "duration": 0.11274504166664201,
            "durationTicks": 23,
            "midi": 42,
            "name": "F#2",
            "ticks": 19860,
            "time": 97.35289250000002,
            "velocity": 0.6535433070866141
          },
          {
            "duration": 0.10294112500000097,
            "durationTicks": 21,
            "midi": 58,
            "name": "A#3",
            "ticks": 19860,
            "time": 97.35289250000002,
            "velocity": 0.6535433070866141
          },
          {
            "duration": 0.07352937499999257,
            "durationTicks": 15,
            "midi": 66,
            "name": "F#4",
            "ticks": 19890,
            "time": 97.49995125000001,
            "velocity": 0.5511811023622047
          },
          {
            "duration": 0.4215684166666449,
            "durationTicks": 86,
            "midi": 84,
            "name": "C6",
            "ticks": 19920,
            "time": 97.64701000000002,
            "velocity": 0.7874015748031497
          },
          {
            "duration": 0.6372545833333163,
            "durationTicks": 130,
            "midi": 44,
            "name": "G#2",
            "ticks": 19920,
            "time": 97.64701000000002,
            "velocity": 0.6535433070866141
          },
          {
            "duration": 0.46078408333332277,
            "durationTicks": 94,
            "midi": 60,
            "name": "C4",
            "ticks": 19920,
            "time": 97.64701000000002,
            "velocity": 0.6535433070866141
          },
          {
            "duration": 0.6519604583333205,
            "durationTicks": 133,
            "midi": 60,
            "name": "C4",
            "ticks": 19920,
            "time": 97.64701000000002,
            "velocity": 0.7480314960629921
          },
          {
            "duration": 0.0784313333333273,
            "durationTicks": 16,
            "midi": 75,
            "name": "D#5",
            "ticks": 19980,
            "time": 97.94112750000002,
            "velocity": 0.5511811023622047
          },
          {
            "duration": 0.06862741666668626,
            "durationTicks": 14,
            "midi": 73,
            "name": "C#5",
            "ticks": 20010,
            "time": 98.08818625,
            "velocity": 0.5511811023622047
          },
          {
            "duration": 0.0637254583333231,
            "durationTicks": 13,
            "midi": 82,
            "name": "A#5",
            "ticks": 20040,
            "time": 98.23524500000002,
            "velocity": 0.7874015748031497
          },
          {
            "duration": 0.0784313333333273,
            "durationTicks": 16,
            "midi": 72,
            "name": "C5",
            "ticks": 20040,
            "time": 98.23524500000002,
            "velocity": 0.5511811023622047
          },
          {
            "duration": 0.36764687499999127,
            "durationTicks": 75,
            "midi": 72,
            "name": "C5",
            "ticks": 20040,
            "time": 98.23524500000002,
            "velocity": 0.6535433070866141
          },
          {
            "duration": 0.07352937499999257,
            "durationTicks": 15,
            "midi": 75,
            "name": "D#5",
            "ticks": 20070,
            "time": 98.38230375,
            "velocity": 0.5511811023622047
          },
          {
            "duration": 0.16666658333332407,
            "durationTicks": 34,
            "midi": 72,
            "name": "C5",
            "ticks": 20100,
            "time": 98.52936250000002,
            "velocity": 0.5511811023622047
          },
          {
            "duration": 0.0784313333333273,
            "durationTicks": 16,
            "midi": 80,
            "name": "G#5",
            "ticks": 20100,
            "time": 98.52936250000002,
            "velocity": 0.7874015748031497
          },
          {
            "duration": 0.1274509166666462,
            "durationTicks": 26,
            "midi": 44,
            "name": "G#2",
            "ticks": 20100,
            "time": 98.52936250000002,
            "velocity": 0.6535433070866141
          },
          {
            "duration": 0.11764699999997674,
            "durationTicks": 24,
            "midi": 60,
            "name": "C4",
            "ticks": 20100,
            "time": 98.52936250000002,
            "velocity": 0.7480314960629921
          },
          {
            "duration": 0.07352937499999257,
            "durationTicks": 15,
            "midi": 68,
            "name": "G#4",
            "ticks": 20130,
            "time": 98.67642125,
            "velocity": 0.5511811023622047
          },
          {
            "duration": 2.3529399999999896,
            "durationTicks": 480,
            "midi": 82,
            "name": "A#5",
            "ticks": 20160,
            "time": 98.82348000000002,
            "velocity": 0.7874015748031497
          },
          {
            "duration": 2.367645874999994,
            "durationTicks": 483,
            "midi": 46,
            "name": "A#2",
            "ticks": 20160,
            "time": 98.82348000000002,
            "velocity": 0.6535433070866141
          },
          {
            "duration": 2.3529399999999896,
            "durationTicks": 480,
            "midi": 61,
            "name": "C#4",
            "ticks": 20160,
            "time": 98.82348000000002,
            "velocity": 0.7480314960629921
          },
          {
            "duration": 2.3529399999999896,
            "durationTicks": 480,
            "midi": 73,
            "name": "C#5",
            "ticks": 20160,
            "time": 98.82348000000002,
            "velocity": 0.6535433070866141
          },
          {
            "duration": 2.3529399999999896,
            "durationTicks": 480,
            "midi": 61,
            "name": "C#4",
            "ticks": 20160,
            "time": 98.82348000000002,
            "velocity": 0.6535433070866141
          },
          {
            "duration": 0.14705874999998514,
            "durationTicks": 30,
            "midi": 65,
            "name": "F4",
            "ticks": 20400,
            "time": 99.99995000000001,
            "velocity": 0.7086614173228346
          },
          {
            "duration": 0.14705875000001356,
            "durationTicks": 30,
            "midi": 66,
            "name": "F#4",
            "ticks": 20430,
            "time": 100.14700875,
            "velocity": 0.7086614173228346
          },
          {
            "duration": 0.14705875000001356,
            "durationTicks": 30,
            "midi": 67,
            "name": "G4",
            "ticks": 20460,
            "time": 100.29406750000001,
            "velocity": 0.7086614173228346
          },
          {
            "duration": 0.14705874999998514,
            "durationTicks": 30,
            "midi": 68,
            "name": "G#4",
            "ticks": 20490,
            "time": 100.44112625000002,
            "velocity": 0.7086614173228346
          },
          {
            "duration": 0.14705875000001356,
            "durationTicks": 30,
            "midi": 69,
            "name": "A4",
            "ticks": 20520,
            "time": 100.58818500000001,
            "velocity": 0.7086614173228346
          },
          {
            "duration": 0.14705874999998514,
            "durationTicks": 30,
            "midi": 68,
            "name": "G#4",
            "ticks": 20550,
            "time": 100.73524375000002,
            "velocity": 0.7086614173228346
          },
          {
            "duration": 0.14705875000001356,
            "durationTicks": 30,
            "midi": 67,
            "name": "G4",
            "ticks": 20580,
            "time": 100.88230250000001,
            "velocity": 0.7086614173228346
          },
          {
            "duration": 0.14705874999998514,
            "durationTicks": 30,
            "midi": 66,
            "name": "F#4",
            "ticks": 20610,
            "time": 101.02936125000002,
            "velocity": 0.7086614173228346
          },
          {
            "duration": 0.47058799999999223,
            "durationTicks": 96,
            "midi": 85,
            "name": "C#6",
            "ticks": 26400,
            "time": 129.41170000000002,
            "velocity": 0.7874015748031497
          },
          {
            "duration": 0.6862741666666636,
            "durationTicks": 140,
            "midi": 46,
            "name": "A#2",
            "ticks": 26400,
            "time": 129.41170000000002,
            "velocity": 0.6535433070866141
          },
          {
            "duration": 0.48529387499999643,
            "durationTicks": 99,
            "midi": 61,
            "name": "C#4",
            "ticks": 26400,
            "time": 129.41170000000002,
            "velocity": 0.7480314960629921
          },
          {
            "duration": 0.6911761249999984,
            "durationTicks": 141,
            "midi": 61,
            "name": "C#4",
            "ticks": 26400,
            "time": 129.41170000000002,
            "velocity": 0.6535433070866141
          },
          {
            "duration": 0.0637254583333231,
            "durationTicks": 13,
            "midi": 77,
            "name": "F5",
            "ticks": 26460,
            "time": 129.70581750000002,
            "velocity": 0.5511811023622047
          },
          {
            "duration": 0.07352937499999257,
            "durationTicks": 15,
            "midi": 75,
            "name": "D#5",
            "ticks": 26490,
            "time": 129.85287625,
            "velocity": 0.5511811023622047
          },
          {
            "duration": 0.0784313333333273,
            "durationTicks": 16,
            "midi": 84,
            "name": "C6",
            "ticks": 26520,
            "time": 129.99993500000002,
            "velocity": 0.7874015748031497
          },
          {
            "duration": 0.0784313333333273,
            "durationTicks": 16,
            "midi": 73,
            "name": "C#5",
            "ticks": 26520,
            "time": 129.99993500000002,
            "velocity": 0.6535433070866141
          },
          {
            "duration": 0.42156841666667333,
            "durationTicks": 86,
            "midi": 73,
            "name": "C#5",
            "ticks": 26520,
            "time": 129.99993500000002,
            "velocity": 0.7480314960629921
          },
          {
            "duration": 0.07352937500002099,
            "durationTicks": 15,
            "midi": 77,
            "name": "F5",
            "ticks": 26550,
            "time": 130.14699375,
            "velocity": 0.5511811023622047
          },
          {
            "duration": 0.09803916666666623,
            "durationTicks": 20,
            "midi": 82,
            "name": "A#5",
            "ticks": 26580,
            "time": 130.29405250000002,
            "velocity": 0.7874015748031497
          },
          {
            "duration": 0.11274504166667043,
            "durationTicks": 23,
            "midi": 46,
            "name": "A#2",
            "ticks": 26580,
            "time": 130.29405250000002,
            "velocity": 0.6535433070866141
          },
          {
            "duration": 0.12745091666667463,
            "durationTicks": 26,
            "midi": 61,
            "name": "C#4",
            "ticks": 26580,
            "time": 130.29405250000002,
            "velocity": 0.6535433070866141
          },
          {
            "duration": 0.07352937500002099,
            "durationTicks": 15,
            "midi": 70,
            "name": "A#4",
            "ticks": 26610,
            "time": 130.44111125,
            "velocity": 0.5511811023622047
          },
          {
            "duration": 0.42156841666667333,
            "durationTicks": 86,
            "midi": 78,
            "name": "F#5",
            "ticks": 26640,
            "time": 130.58817000000002,
            "velocity": 0.7874015748031497
          },
          {
            "duration": 0.7009800416666678,
            "durationTicks": 143,
            "midi": 51,
            "name": "D#3",
            "ticks": 26640,
            "time": 130.58817000000002,
            "velocity": 0.6535433070866141
          },
          {
            "duration": 0.7107839583333373,
            "durationTicks": 145,
            "midi": 66,
            "name": "F#4",
            "ticks": 26640,
            "time": 130.58817000000002,
            "velocity": 0.6535433070866141
          },
          {
            "duration": 0.8823524999999961,
            "durationTicks": 180,
            "midi": 70,
            "name": "A#4",
            "ticks": 26640,
            "time": 130.58817000000002,
            "velocity": 0.7480314960629921
          },
          {
            "duration": 0.07352937499999257,
            "durationTicks": 15,
            "midi": 78,
            "name": "F#5",
            "ticks": 26760,
            "time": 131.17640500000002,
            "velocity": 0.7874015748031497
          },
          {
            "duration": 0.06372545833335153,
            "durationTicks": 13,
            "midi": 80,
            "name": "G#5",
            "ticks": 26790,
            "time": 131.32346375,
            "velocity": 0.7874015748031497
          },
          {
            "duration": 0.06862741666665784,
            "durationTicks": 14,
            "midi": 82,
            "name": "A#5",
            "ticks": 26820,
            "time": 131.47052250000002,
            "velocity": 0.7874015748031497
          },
          {
            "duration": 0.1225489583333399,
            "durationTicks": 25,
            "midi": 51,
            "name": "D#3",
            "ticks": 26820,
            "time": 131.47052250000002,
            "velocity": 0.6535433070866141
          },
          {
            "duration": 0.0931372083333315,
            "durationTicks": 19,
            "midi": 66,
            "name": "F#4",
            "ticks": 26820,
            "time": 131.47052250000002,
            "velocity": 0.6535433070866141
          },
          {
            "duration": 0.07843133333335572,
            "durationTicks": 16,
            "midi": 78,
            "name": "F#5",
            "ticks": 26850,
            "time": 131.61758125,
            "velocity": 0.7874015748031497
          },
          {
            "duration": 0.4362742916666775,
            "durationTicks": 89,
            "midi": 84,
            "name": "C6",
            "ticks": 26880,
            "time": 131.76464,
            "velocity": 0.7874015748031497
          },
          {
            "duration": 0.6862741666666636,
            "durationTicks": 140,
            "midi": 44,
            "name": "G#2",
            "ticks": 26880,
            "time": 131.76464,
            "velocity": 0.6535433070866141
          },
          {
            "duration": 0.49019583333333117,
            "durationTicks": 100,
            "midi": 60,
            "name": "C4",
            "ticks": 26880,
            "time": 131.76464,
            "velocity": 0.7480314960629921
          },
          {
            "duration": 0.6519604583333205,
            "durationTicks": 133,
            "midi": 60,
            "name": "C4",
            "ticks": 26880,
            "time": 131.76464,
            "velocity": 0.6535433070866141
          },
          {
            "duration": 0.06862741666668626,
            "durationTicks": 14,
            "midi": 75,
            "name": "D#5",
            "ticks": 26940,
            "time": 132.0587575,
            "velocity": 0.5511811023622047
          },
          {
            "duration": 0.0784313333333273,
            "durationTicks": 16,
            "midi": 73,
            "name": "C#5",
            "ticks": 26970,
            "time": 132.20581625000003,
            "velocity": 0.5511811023622047
          },
          {
            "duration": 0.08823524999999677,
            "durationTicks": 18,
            "midi": 82,
            "name": "A#5",
            "ticks": 27000,
            "time": 132.352875,
            "velocity": 0.7874015748031497
          },
          {
            "duration": 0.0784313333333273,
            "durationTicks": 16,
            "midi": 72,
            "name": "C5",
            "ticks": 27000,
            "time": 132.352875,
            "velocity": 0.6535433070866141
          },
          {
            "duration": 0.3676468750000197,
            "durationTicks": 75,
            "midi": 72,
            "name": "C5",
            "ticks": 27000,
            "time": 132.352875,
            "velocity": 0.5511811023622047
          },
          {
            "duration": 0.07352937499999257,
            "durationTicks": 15,
            "midi": 75,
            "name": "D#5",
            "ticks": 27030,
            "time": 132.49993375000003,
            "velocity": 0.5511811023622047
          },
          {
            "duration": 0.0784313333333273,
            "durationTicks": 16,
            "midi": 80,
            "name": "G#5",
            "ticks": 27060,
            "time": 132.6469925,
            "velocity": 0.7874015748031497
          },
          {
            "duration": 0.11274504166667043,
            "durationTicks": 23,
            "midi": 44,
            "name": "G#2",
            "ticks": 27060,
            "time": 132.6469925,
            "velocity": 0.6535433070866141
          },
          {
            "duration": 0.11274504166667043,
            "durationTicks": 23,
            "midi": 60,
            "name": "C4",
            "ticks": 27060,
            "time": 132.6469925,
            "velocity": 0.6535433070866141
          },
          {
            "duration": 0.16176462500001776,
            "durationTicks": 33,
            "midi": 72,
            "name": "C5",
            "ticks": 27060,
            "time": 132.6469925,
            "velocity": 0.5511811023622047
          },
          {
            "duration": 0.07352937499999257,
            "durationTicks": 15,
            "midi": 68,
            "name": "G#4",
            "ticks": 27090,
            "time": 132.79405125000002,
            "velocity": 0.5511811023622047
          },
          {
            "duration": 0.44117625000001226,
            "durationTicks": 90,
            "midi": 77,
            "name": "F5",
            "ticks": 27120,
            "time": 132.94111,
            "velocity": 0.7874015748031497
          },
          {
            "duration": 0.7254898333333415,
            "durationTicks": 148,
            "midi": 53,
            "name": "F3",
            "ticks": 27120,
            "time": 132.94111,
            "velocity": 0.6535433070866141
          },
          {
            "duration": 0.5882350000000258,
            "durationTicks": 120,
            "midi": 65,
            "name": "F4",
            "ticks": 27120,
            "time": 132.94111,
            "velocity": 0.7480314960629921
          },
          {
            "duration": 0.8382348750000119,
            "durationTicks": 171,
            "midi": 68,
            "name": "G#4",
            "ticks": 27120,
            "time": 132.94111,
            "velocity": 0.7480314960629921
          },
          {
            "duration": 0.0784313333333273,
            "durationTicks": 16,
            "midi": 77,
            "name": "F5",
            "ticks": 27240,
            "time": 133.52934500000003,
            "velocity": 0.7874015748031497
          },
          {
            "duration": 0.0637254583333231,
            "durationTicks": 13,
            "midi": 78,
            "name": "F#5",
            "ticks": 27270,
            "time": 133.67640375000002,
            "velocity": 0.7874015748031497
          },
          {
            "duration": 0.07352937499999257,
            "durationTicks": 15,
            "midi": 80,
            "name": "G#5",
            "ticks": 27300,
            "time": 133.82346250000003,
            "velocity": 0.7874015748031497
          },
          {
            "duration": 0.1274509166666462,
            "durationTicks": 26,
            "midi": 53,
            "name": "F3",
            "ticks": 27300,
            "time": 133.82346250000003,
            "velocity": 0.6535433070866141
          },
          {
            "duration": 0.11274504166664201,
            "durationTicks": 23,
            "midi": 68,
            "name": "G#4",
            "ticks": 27300,
            "time": 133.82346250000003,
            "velocity": 0.6535433070866141
          },
          {
            "duration": 0.05392154166668206,
            "durationTicks": 11,
            "midi": 77,
            "name": "F5",
            "ticks": 27330,
            "time": 133.97052125000002,
            "velocity": 0.7874015748031497
          },
          {
            "duration": 0.4215684166666449,
            "durationTicks": 86,
            "midi": 82,
            "name": "A#5",
            "ticks": 27360,
            "time": 134.11758000000003,
            "velocity": 0.7874015748031497
          },
          {
            "duration": 0.6813722083333289,
            "durationTicks": 139,
            "midi": 42,
            "name": "F#2",
            "ticks": 27360,
            "time": 134.11758000000003,
            "velocity": 0.6535433070866141
          },
          {
            "duration": 0.5049017083333069,
            "durationTicks": 103,
            "midi": 58,
            "name": "A#3",
            "ticks": 27360,
            "time": 134.11758000000003,
            "velocity": 0.6535433070866141
          },
          {
            "duration": 0.6813722083333289,
            "durationTicks": 139,
            "midi": 58,
            "name": "A#3",
            "ticks": 27360,
            "time": 134.11758000000003,
            "velocity": 0.7480314960629921
          },
          {
            "duration": 0.0784313333333273,
            "durationTicks": 16,
            "midi": 73,
            "name": "C#5",
            "ticks": 27420,
            "time": 134.41169750000003,
            "velocity": 0.5511811023622047
          },
          {
            "duration": 0.06862741666668626,
            "durationTicks": 14,
            "midi": 72,
            "name": "C5",
            "ticks": 27450,
            "time": 134.55875625000002,
            "velocity": 0.5511811023622047
          },
          {
            "duration": 0.06862741666665784,
            "durationTicks": 14,
            "midi": 80,
            "name": "G#5",
            "ticks": 27480,
            "time": 134.70581500000003,
            "velocity": 0.7874015748031497
          },
          {
            "duration": 0.07352937499999257,
            "durationTicks": 15,
            "midi": 70,
            "name": "A#4",
            "ticks": 27480,
            "time": 134.70581500000003,
            "velocity": 0.6535433070866141
          },
          {
            "duration": 0.36764687499999127,
            "durationTicks": 75,
            "midi": 70,
            "name": "A#4",
            "ticks": 27480,
            "time": 134.70581500000003,
            "velocity": 0.5511811023622047
          },
          {
            "duration": 0.07352937500002099,
            "durationTicks": 15,
            "midi": 73,
            "name": "C#5",
            "ticks": 27510,
            "time": 134.85287375000001,
            "velocity": 0.5511811023622047
          },
          {
            "duration": 0.13725483333331567,
            "durationTicks": 28,
            "midi": 70,
            "name": "A#4",
            "ticks": 27540,
            "time": 134.99993250000003,
            "velocity": 0.5511811023622047
          },
          {
            "duration": 0.0931372083333315,
            "durationTicks": 19,
            "midi": 78,
            "name": "F#5",
            "ticks": 27540,
            "time": 134.99993250000003,
            "velocity": 0.7874015748031497
          },
          {
            "duration": 0.11274504166667043,
            "durationTicks": 23,
            "midi": 42,
            "name": "F#2",
            "ticks": 27540,
            "time": 134.99993250000003,
            "velocity": 0.6535433070866141
          },
          {
            "duration": 0.10294112500000097,
            "durationTicks": 21,
            "midi": 58,
            "name": "A#3",
            "ticks": 27540,
            "time": 134.99993250000003,
            "velocity": 0.6535433070866141
          },
          {
            "duration": 0.07352937500002099,
            "durationTicks": 15,
            "midi": 66,
            "name": "F#4",
            "ticks": 27570,
            "time": 135.14699125,
            "velocity": 0.5511811023622047
          },
          {
            "duration": 0.42156841666667333,
            "durationTicks": 86,
            "midi": 84,
            "name": "C6",
            "ticks": 27600,
            "time": 135.29405000000003,
            "velocity": 0.7874015748031497
          },
          {
            "duration": 0.6372545833333447,
            "durationTicks": 130,
            "midi": 44,
            "name": "G#2",
            "ticks": 27600,
            "time": 135.29405000000003,
            "velocity": 0.6535433070866141
          },
          {
            "duration": 0.46078408333332277,
            "durationTicks": 94,
            "midi": 60,
            "name": "C4",
            "ticks": 27600,
            "time": 135.29405000000003,
            "velocity": 0.6535433070866141
          },
          {
            "duration": 0.6519604583333205,
            "durationTicks": 133,
            "midi": 60,
            "name": "C4",
            "ticks": 27600,
            "time": 135.29405000000003,
            "velocity": 0.7480314960629921
          },
          {
            "duration": 0.0784313333333273,
            "durationTicks": 16,
            "midi": 75,
            "name": "D#5",
            "ticks": 27660,
            "time": 135.58816750000003,
            "velocity": 0.5511811023622047
          },
          {
            "duration": 0.06862741666668626,
            "durationTicks": 14,
            "midi": 73,
            "name": "C#5",
            "ticks": 27690,
            "time": 135.73522625,
            "velocity": 0.5511811023622047
          },
          {
            "duration": 0.0637254583333231,
            "durationTicks": 13,
            "midi": 82,
            "name": "A#5",
            "ticks": 27720,
            "time": 135.88228500000002,
            "velocity": 0.7874015748031497
          },
          {
            "duration": 0.0784313333333273,
            "durationTicks": 16,
            "midi": 72,
            "name": "C5",
            "ticks": 27720,
            "time": 135.88228500000002,
            "velocity": 0.5511811023622047
          },
          {
            "duration": 0.36764687499999127,
            "durationTicks": 75,
            "midi": 72,
            "name": "C5",
            "ticks": 27720,
            "time": 135.88228500000002,
            "velocity": 0.6535433070866141
          },
          {
            "duration": 0.07352937500002099,
            "durationTicks": 15,
            "midi": 75,
            "name": "D#5",
            "ticks": 27750,
            "time": 136.02934375,
            "velocity": 0.5511811023622047
          },
          {
            "duration": 0.16666658333332407,
            "durationTicks": 34,
            "midi": 72,
            "name": "C5",
            "ticks": 27780,
            "time": 136.17640250000002,
            "velocity": 0.5511811023622047
          },
          {
            "duration": 0.0784313333333273,
            "durationTicks": 16,
            "midi": 80,
            "name": "G#5",
            "ticks": 27780,
            "time": 136.17640250000002,
            "velocity": 0.7874015748031497
          },
          {
            "duration": 0.12745091666667463,
            "durationTicks": 26,
            "midi": 44,
            "name": "G#2",
            "ticks": 27780,
            "time": 136.17640250000002,
            "velocity": 0.6535433070866141
          },
          {
            "duration": 0.11764700000000516,
            "durationTicks": 24,
            "midi": 60,
            "name": "C4",
            "ticks": 27780,
            "time": 136.17640250000002,
            "velocity": 0.7480314960629921
          },
          {
            "duration": 0.07352937500002099,
            "durationTicks": 15,
            "midi": 68,
            "name": "G#4",
            "ticks": 27810,
            "time": 136.32346125,
            "velocity": 0.5511811023622047
          },
          {
            "duration": 2.3529399999999896,
            "durationTicks": 480,
            "midi": 82,
            "name": "A#5",
            "ticks": 27840,
            "time": 136.47052000000002,
            "velocity": 0.7874015748031497
          },
          {
            "duration": 2.367645874999994,
            "durationTicks": 483,
            "midi": 46,
            "name": "A#2",
            "ticks": 27840,
            "time": 136.47052000000002,
            "velocity": 0.6535433070866141
          },
          {
            "duration": 2.3529399999999896,
            "durationTicks": 480,
            "midi": 61,
            "name": "C#4",
            "ticks": 27840,
            "time": 136.47052000000002,
            "velocity": 0.7480314960629921
          },
          {
            "duration": 2.3529399999999896,
            "durationTicks": 480,
            "midi": 73,
            "name": "C#5",
            "ticks": 27840,
            "time": 136.47052000000002,
            "velocity": 0.6535433070866141
          },
          {
            "duration": 2.3529399999999896,
            "durationTicks": 480,
            "midi": 61,
            "name": "C#4",
            "ticks": 27840,
            "time": 136.47052000000002,
            "velocity": 0.6535433070866141
          },
          {
            "duration": 0.14705875000001356,
            "durationTicks": 30,
            "midi": 65,
            "name": "F4",
            "ticks": 28080,
            "time": 137.64699000000002,
            "velocity": 0.7086614173228346
          },
          {
            "duration": 0.14705874999998514,
            "durationTicks": 30,
            "midi": 66,
            "name": "F#4",
            "ticks": 28110,
            "time": 137.79404875000003,
            "velocity": 0.7086614173228346
          },
          {
            "duration": 0.14705875000001356,
            "durationTicks": 30,
            "midi": 67,
            "name": "G4",
            "ticks": 28140,
            "time": 137.94110750000002,
            "velocity": 0.7086614173228346
          },
          {
            "duration": 0.14705874999998514,
            "durationTicks": 30,
            "midi": 68,
            "name": "G#4",
            "ticks": 28170,
            "time": 138.08816625000003,
            "velocity": 0.7086614173228346
          },
          {
            "duration": 0.14705875000001356,
            "durationTicks": 30,
            "midi": 69,
            "name": "A4",
            "ticks": 28200,
            "time": 138.235225,
            "velocity": 0.7086614173228346
          },
          {
            "duration": 0.14705874999998514,
            "durationTicks": 30,
            "midi": 68,
            "name": "G#4",
            "ticks": 28230,
            "time": 138.38228375000003,
            "velocity": 0.7086614173228346
          },
          {
            "duration": 0.14705875000001356,
            "durationTicks": 30,
            "midi": 67,
            "name": "G4",
            "ticks": 28260,
            "time": 138.5293425,
            "velocity": 0.7086614173228346
          },
          {
            "duration": 0.14705874999998514,
            "durationTicks": 30,
            "midi": 66,
            "name": "F#4",
            "ticks": 28290,
            "time": 138.67640125000003,
            "velocity": 0.7086614173228346
          },
          {
            "duration": 0.47058800000002066,
            "durationTicks": 96,
            "midi": 85,
            "name": "C#6",
            "ticks": 28320,
            "time": 138.82346,
            "velocity": 0.7874015748031497
          },
          {
            "duration": 0.6862741666666636,
            "durationTicks": 140,
            "midi": 46,
            "name": "A#2",
            "ticks": 28320,
            "time": 138.82346,
            "velocity": 0.6535433070866141
          },
          {
            "duration": 0.48529387499999643,
            "durationTicks": 99,
            "midi": 61,
            "name": "C#4",
            "ticks": 28320,
            "time": 138.82346,
            "velocity": 0.7480314960629921
          },
          {
            "duration": 0.6911761250000268,
            "durationTicks": 141,
            "midi": 61,
            "name": "C#4",
            "ticks": 28320,
            "time": 138.82346,
            "velocity": 0.6535433070866141
          },
          {
            "duration": 0.06372545833335153,
            "durationTicks": 13,
            "midi": 77,
            "name": "F5",
            "ticks": 28380,
            "time": 139.1175775,
            "velocity": 0.5511811023622047
          },
          {
            "duration": 0.07352937499999257,
            "durationTicks": 15,
            "midi": 75,
            "name": "D#5",
            "ticks": 28410,
            "time": 139.26463625000002,
            "velocity": 0.5511811023622047
          },
          {
            "duration": 0.07843133333335572,
            "durationTicks": 16,
            "midi": 84,
            "name": "C6",
            "ticks": 28440,
            "time": 139.411695,
            "velocity": 0.7874015748031497
          },
          {
            "duration": 0.07843133333335572,
            "durationTicks": 16,
            "midi": 73,
            "name": "C#5",
            "ticks": 28440,
            "time": 139.411695,
            "velocity": 0.6535433070866141
          },
          {
            "duration": 0.42156841666667333,
            "durationTicks": 86,
            "midi": 73,
            "name": "C#5",
            "ticks": 28440,
            "time": 139.411695,
            "velocity": 0.7480314960629921
          },
          {
            "duration": 0.07352937499999257,
            "durationTicks": 15,
            "midi": 77,
            "name": "F5",
            "ticks": 28470,
            "time": 139.55875375000002,
            "velocity": 0.5511811023622047
          },
          {
            "duration": 0.09803916666663781,
            "durationTicks": 20,
            "midi": 82,
            "name": "A#5",
            "ticks": 28500,
            "time": 139.70581250000004,
            "velocity": 0.7874015748031497
          },
          {
            "duration": 0.11274504166664201,
            "durationTicks": 23,
            "midi": 46,
            "name": "A#2",
            "ticks": 28500,
            "time": 139.70581250000004,
            "velocity": 0.6535433070866141
          },
          {
            "duration": 0.1274509166666462,
            "durationTicks": 26,
            "midi": 61,
            "name": "C#4",
            "ticks": 28500,
            "time": 139.70581250000004,
            "velocity": 0.6535433070866141
          },
          {
            "duration": 0.07352937499999257,
            "durationTicks": 15,
            "midi": 70,
            "name": "A#4",
            "ticks": 28530,
            "time": 139.85287125000002,
            "velocity": 0.5511811023622047
          },
          {
            "duration": 0.4215684166666449,
            "durationTicks": 86,
            "midi": 78,
            "name": "F#5",
            "ticks": 28560,
            "time": 139.99993000000003,
            "velocity": 0.7874015748031497
          },
          {
            "duration": 0.7009800416666394,
            "durationTicks": 143,
            "midi": 51,
            "name": "D#3",
            "ticks": 28560,
            "time": 139.99993000000003,
            "velocity": 0.6535433070866141
          },
          {
            "duration": 0.7107839583333373,
            "durationTicks": 145,
            "midi": 66,
            "name": "F#4",
            "ticks": 28560,
            "time": 139.99993000000003,
            "velocity": 0.6535433070866141
          },
          {
            "duration": 0.8823524999999961,
            "durationTicks": 180,
            "midi": 70,
            "name": "A#4",
            "ticks": 28560,
            "time": 139.99993000000003,
            "velocity": 0.7480314960629921
          },
          {
            "duration": 0.07352937499999257,
            "durationTicks": 15,
            "midi": 78,
            "name": "F#5",
            "ticks": 28680,
            "time": 140.58816500000003,
            "velocity": 0.7874015748031497
          },
          {
            "duration": 0.0637254583333231,
            "durationTicks": 13,
            "midi": 80,
            "name": "G#5",
            "ticks": 28710,
            "time": 140.73522375000002,
            "velocity": 0.7874015748031497
          },
          {
            "duration": 0.06862741666665784,
            "durationTicks": 14,
            "midi": 82,
            "name": "A#5",
            "ticks": 28740,
            "time": 140.88228250000003,
            "velocity": 0.7874015748031497
          },
          {
            "duration": 0.1225489583333399,
            "durationTicks": 25,
            "midi": 51,
            "name": "D#3",
            "ticks": 28740,
            "time": 140.88228250000003,
            "velocity": 0.6535433070866141
          },
          {
            "duration": 0.0931372083333315,
            "durationTicks": 19,
            "midi": 66,
            "name": "F#4",
            "ticks": 28740,
            "time": 140.88228250000003,
            "velocity": 0.6535433070866141
          },
          {
            "duration": 0.0784313333333273,
            "durationTicks": 16,
            "midi": 78,
            "name": "F#5",
            "ticks": 28770,
            "time": 141.02934125000002,
            "velocity": 0.7874015748031497
          },
          {
            "duration": 0.4362742916666775,
            "durationTicks": 89,
            "midi": 84,
            "name": "C6",
            "ticks": 28800,
            "time": 141.17640000000003,
            "velocity": 0.7874015748031497
          },
          {
            "duration": 0.6862741666666636,
            "durationTicks": 140,
            "midi": 44,
            "name": "G#2",
            "ticks": 28800,
            "time": 141.17640000000003,
            "velocity": 0.6535433070866141
          },
          {
            "duration": 0.49019583333333117,
            "durationTicks": 100,
            "midi": 60,
            "name": "C4",
            "ticks": 28800,
            "time": 141.17640000000003,
            "velocity": 0.7480314960629921
          },
          {
            "duration": 0.6519604583333205,
            "durationTicks": 133,
            "midi": 60,
            "name": "C4",
            "ticks": 28800,
            "time": 141.17640000000003,
            "velocity": 0.6535433070866141
          },
          {
            "duration": 0.06862741666665784,
            "durationTicks": 14,
            "midi": 75,
            "name": "D#5",
            "ticks": 28860,
            "time": 141.47051750000003,
            "velocity": 0.5511811023622047
          },
          {
            "duration": 0.0784313333333273,
            "durationTicks": 16,
            "midi": 73,
            "name": "C#5",
            "ticks": 28890,
            "time": 141.61757625,
            "velocity": 0.5511811023622047
          },
          {
            "duration": 0.08823524999999677,
            "durationTicks": 18,
            "midi": 82,
            "name": "A#5",
            "ticks": 28920,
            "time": 141.76463500000003,
            "velocity": 0.7874015748031497
          },
          {
            "duration": 0.0784313333333273,
            "durationTicks": 16,
            "midi": 72,
            "name": "C5",
            "ticks": 28920,
            "time": 141.76463500000003,
            "velocity": 0.6535433070866141
          },
          {
            "duration": 0.36764687499999127,
            "durationTicks": 75,
            "midi": 72,
            "name": "C5",
            "ticks": 28920,
            "time": 141.76463500000003,
            "velocity": 0.5511811023622047
          },
          {
            "duration": 0.07352937500002099,
            "durationTicks": 15,
            "midi": 75,
            "name": "D#5",
            "ticks": 28950,
            "time": 141.91169375,
            "velocity": 0.5511811023622047
          },
          {
            "duration": 0.0784313333333273,
            "durationTicks": 16,
            "midi": 80,
            "name": "G#5",
            "ticks": 28980,
            "time": 142.05875250000003,
            "velocity": 0.7874015748031497
          },
          {
            "duration": 0.11274504166667043,
            "durationTicks": 23,
            "midi": 44,
            "name": "G#2",
            "ticks": 28980,
            "time": 142.05875250000003,
            "velocity": 0.6535433070866141
          },
          {
            "duration": 0.11274504166667043,
            "durationTicks": 23,
            "midi": 60,
            "name": "C4",
            "ticks": 28980,
            "time": 142.05875250000003,
            "velocity": 0.6535433070866141
          },
          {
            "duration": 0.16176462499998934,
            "durationTicks": 33,
            "midi": 72,
            "name": "C5",
            "ticks": 28980,
            "time": 142.05875250000003,
            "velocity": 0.5511811023622047
          },
          {
            "duration": 0.07352937500002099,
            "durationTicks": 15,
            "midi": 68,
            "name": "G#4",
            "ticks": 29010,
            "time": 142.20581125,
            "velocity": 0.5511811023622047
          },
          {
            "duration": 0.44117625000001226,
            "durationTicks": 90,
            "midi": 77,
            "name": "F5",
            "ticks": 29040,
            "time": 142.35287000000002,
            "velocity": 0.7874015748031497
          },
          {
            "duration": 0.7254898333333131,
            "durationTicks": 148,
            "midi": 53,
            "name": "F3",
            "ticks": 29040,
            "time": 142.35287000000002,
            "velocity": 0.6535433070866141
          },
          {
            "duration": 0.5882349999999974,
            "durationTicks": 120,
            "midi": 65,
            "name": "F4",
            "ticks": 29040,
            "time": 142.35287000000002,
            "velocity": 0.7480314960629921
          },
          {
            "duration": 0.8382348750000119,
            "durationTicks": 171,
            "midi": 68,
            "name": "G#4",
            "ticks": 29040,
            "time": 142.35287000000002,
            "velocity": 0.7480314960629921
          },
          {
            "duration": 0.0784313333333273,
            "durationTicks": 16,
            "midi": 77,
            "name": "F5",
            "ticks": 29160,
            "time": 142.94110500000002,
            "velocity": 0.7874015748031497
          },
          {
            "duration": 0.0637254583333231,
            "durationTicks": 13,
            "midi": 78,
            "name": "F#5",
            "ticks": 29190,
            "time": 143.08816375000004,
            "velocity": 0.7874015748031497
          },
          {
            "duration": 0.07352937499999257,
            "durationTicks": 15,
            "midi": 80,
            "name": "G#5",
            "ticks": 29220,
            "time": 143.23522250000002,
            "velocity": 0.7874015748031497
          },
          {
            "duration": 0.12745091666667463,
            "durationTicks": 26,
            "midi": 53,
            "name": "F3",
            "ticks": 29220,
            "time": 143.23522250000002,
            "velocity": 0.6535433070866141
          },
          {
            "duration": 0.11274504166667043,
            "durationTicks": 23,
            "midi": 68,
            "name": "G#4",
            "ticks": 29220,
            "time": 143.23522250000002,
            "velocity": 0.6535433070866141
          },
          {
            "duration": 0.05392154166665364,
            "durationTicks": 11,
            "midi": 77,
            "name": "F5",
            "ticks": 29250,
            "time": 143.38228125000003,
            "velocity": 0.7874015748031497
          },
          {
            "duration": 0.42156841666667333,
            "durationTicks": 86,
            "midi": 82,
            "name": "A#5",
            "ticks": 29280,
            "time": 143.52934000000002,
            "velocity": 0.7874015748031497
          },
          {
            "duration": 0.6813722083333289,
            "durationTicks": 139,
            "midi": 42,
            "name": "F#2",
            "ticks": 29280,
            "time": 143.52934000000002,
            "velocity": 0.6535433070866141
          },
          {
            "duration": 0.5049017083333354,
            "durationTicks": 103,
            "midi": 58,
            "name": "A#3",
            "ticks": 29280,
            "time": 143.52934000000002,
            "velocity": 0.6535433070866141
          },
          {
            "duration": 0.6813722083333289,
            "durationTicks": 139,
            "midi": 58,
            "name": "A#3",
            "ticks": 29280,
            "time": 143.52934000000002,
            "velocity": 0.7480314960629921
          },
          {
            "duration": 0.0784313333333273,
            "durationTicks": 16,
            "midi": 73,
            "name": "C#5",
            "ticks": 29340,
            "time": 143.82345750000002,
            "velocity": 0.5511811023622047
          },
          {
            "duration": 0.06862741666665784,
            "durationTicks": 14,
            "midi": 72,
            "name": "C5",
            "ticks": 29370,
            "time": 143.97051625000003,
            "velocity": 0.5511811023622047
          },
          {
            "duration": 0.06862741666668626,
            "durationTicks": 14,
            "midi": 80,
            "name": "G#5",
            "ticks": 29400,
            "time": 144.11757500000002,
            "velocity": 0.7874015748031497
          },
          {
            "duration": 0.07352937499999257,
            "durationTicks": 15,
            "midi": 70,
            "name": "A#4",
            "ticks": 29400,
            "time": 144.11757500000002,
            "velocity": 0.6535433070866141
          },
          {
            "duration": 0.3676468750000197,
            "durationTicks": 75,
            "midi": 70,
            "name": "A#4",
            "ticks": 29400,
            "time": 144.11757500000002,
            "velocity": 0.5511811023622047
          },
          {
            "duration": 0.07352937499999257,
            "durationTicks": 15,
            "midi": 73,
            "name": "C#5",
            "ticks": 29430,
            "time": 144.26463375000003,
            "velocity": 0.5511811023622047
          },
          {
            "duration": 0.1372548333333441,
            "durationTicks": 28,
            "midi": 70,
            "name": "A#4",
            "ticks": 29460,
            "time": 144.41169250000002,
            "velocity": 0.5511811023622047
          },
          {
            "duration": 0.0931372083333315,
            "durationTicks": 19,
            "midi": 78,
            "name": "F#5",
            "ticks": 29460,
            "time": 144.41169250000002,
            "velocity": 0.7874015748031497
          },
          {
            "duration": 0.11274504166667043,
            "durationTicks": 23,
            "midi": 42,
            "name": "F#2",
            "ticks": 29460,
            "time": 144.41169250000002,
            "velocity": 0.6535433070866141
          },
          {
            "duration": 0.10294112500000097,
            "durationTicks": 21,
            "midi": 58,
            "name": "A#3",
            "ticks": 29460,
            "time": 144.41169250000002,
            "velocity": 0.6535433070866141
          },
          {
            "duration": 0.07352937499999257,
            "durationTicks": 15,
            "midi": 66,
            "name": "F#4",
            "ticks": 29490,
            "time": 144.55875125000003,
            "velocity": 0.5511811023622047
          },
          {
            "duration": 0.42156841666667333,
            "durationTicks": 86,
            "midi": 84,
            "name": "C6",
            "ticks": 29520,
            "time": 144.70581,
            "velocity": 0.7874015748031497
          },
          {
            "duration": 0.6372545833333447,
            "durationTicks": 130,
            "midi": 44,
            "name": "G#2",
            "ticks": 29520,
            "time": 144.70581,
            "velocity": 0.6535433070866141
          },
          {
            "duration": 0.4607840833333512,
            "durationTicks": 94,
            "midi": 60,
            "name": "C4",
            "ticks": 29520,
            "time": 144.70581,
            "velocity": 0.6535433070866141
          },
          {
            "duration": 0.6519604583333205,
            "durationTicks": 133,
            "midi": 60,
            "name": "C4",
            "ticks": 29520,
            "time": 144.70581,
            "velocity": 0.7480314960629921
          },
          {
            "duration": 0.0784313333333273,
            "durationTicks": 16,
            "midi": 75,
            "name": "D#5",
            "ticks": 29580,
            "time": 144.9999275,
            "velocity": 0.5511811023622047
          },
          {
            "duration": 0.06862741666665784,
            "durationTicks": 14,
            "midi": 73,
            "name": "C#5",
            "ticks": 29610,
            "time": 145.14698625000003,
            "velocity": 0.5511811023622047
          },
          {
            "duration": 0.0637254583333231,
            "durationTicks": 13,
            "midi": 82,
            "name": "A#5",
            "ticks": 29640,
            "time": 145.294045,
            "velocity": 0.7874015748031497
          },
          {
            "duration": 0.0784313333333273,
            "durationTicks": 16,
            "midi": 72,
            "name": "C5",
            "ticks": 29640,
            "time": 145.294045,
            "velocity": 0.5511811023622047
          },
          {
            "duration": 0.3676468750000197,
            "durationTicks": 75,
            "midi": 72,
            "name": "C5",
            "ticks": 29640,
            "time": 145.294045,
            "velocity": 0.6535433070866141
          },
          {
            "duration": 0.07352937499999257,
            "durationTicks": 15,
            "midi": 75,
            "name": "D#5",
            "ticks": 29670,
            "time": 145.44110375000002,
            "velocity": 0.5511811023622047
          },
          {
            "duration": 0.1666665833333525,
            "durationTicks": 34,
            "midi": 72,
            "name": "C5",
            "ticks": 29700,
            "time": 145.5881625,
            "velocity": 0.5511811023622047
          },
          {
            "duration": 0.07843133333335572,
            "durationTicks": 16,
            "midi": 80,
            "name": "G#5",
            "ticks": 29700,
            "time": 145.5881625,
            "velocity": 0.7874015748031497
          },
          {
            "duration": 0.12745091666667463,
            "durationTicks": 26,
            "midi": 44,
            "name": "G#2",
            "ticks": 29700,
            "time": 145.5881625,
            "velocity": 0.6535433070866141
          },
          {
            "duration": 0.11764700000000516,
            "durationTicks": 24,
            "midi": 60,
            "name": "C4",
            "ticks": 29700,
            "time": 145.5881625,
            "velocity": 0.7480314960629921
          },
          {
            "duration": 0.07352937499999257,
            "durationTicks": 15,
            "midi": 68,
            "name": "G#4",
            "ticks": 29730,
            "time": 145.73522125000002,
            "velocity": 0.5511811023622047
          },
          {
            "duration": 2.352940000000018,
            "durationTicks": 480,
            "midi": 82,
            "name": "A#5",
            "ticks": 29760,
            "time": 145.88228,
            "velocity": 0.7874015748031497
          },
          {
            "duration": 2.367645875000022,
            "durationTicks": 483,
            "midi": 46,
            "name": "A#2",
            "ticks": 29760,
            "time": 145.88228,
            "velocity": 0.6535433070866141
          },
          {
            "duration": 2.352940000000018,
            "durationTicks": 480,
            "midi": 61,
            "name": "C#4",
            "ticks": 29760,
            "time": 145.88228,
            "velocity": 0.7480314960629921
          },
          {
            "duration": 2.352940000000018,
            "durationTicks": 480,
            "midi": 73,
            "name": "C#5",
            "ticks": 29760,
            "time": 145.88228,
            "velocity": 0.6535433070866141
          },
          {
            "duration": 2.352940000000018,
            "durationTicks": 480,
            "midi": 61,
            "name": "C#4",
            "ticks": 29760,
            "time": 145.88228,
            "velocity": 0.6535433070866141
          },
          {
            "duration": 0.14705874999998514,
            "durationTicks": 30,
            "midi": 65,
            "name": "F4",
            "ticks": 30000,
            "time": 147.05875000000003,
            "velocity": 0.7086614173228346
          },
          {
            "duration": 0.14705875000001356,
            "durationTicks": 30,
            "midi": 66,
            "name": "F#4",
            "ticks": 30030,
            "time": 147.20580875000002,
            "velocity": 0.7086614173228346
          },
          {
            "duration": 0.14705874999998514,
            "durationTicks": 30,
            "midi": 67,
            "name": "G4",
            "ticks": 30060,
            "time": 147.35286750000003,
            "velocity": 0.7086614173228346
          },
          {
            "duration": 0.14705875000001356,
            "durationTicks": 30,
            "midi": 68,
            "name": "G#4",
            "ticks": 30090,
            "time": 147.49992625000002,
            "velocity": 0.7086614173228346
          },
          {
            "duration": 0.14705874999998514,
            "durationTicks": 30,
            "midi": 69,
            "name": "A4",
            "ticks": 30120,
            "time": 147.64698500000003,
            "velocity": 0.7086614173228346
          },
          {
            "duration": 0.14705875000001356,
            "durationTicks": 30,
            "midi": 68,
            "name": "G#4",
            "ticks": 30150,
            "time": 147.79404375000001,
            "velocity": 0.7086614173228346
          },
          {
            "duration": 0.14705874999998514,
            "durationTicks": 30,
            "midi": 67,
            "name": "G4",
            "ticks": 30180,
            "time": 147.94110250000003,
            "velocity": 0.7086614173228346
          },
          {
            "duration": 0.14705875000001356,
            "durationTicks": 30,
            "midi": 66,
            "name": "F#4",
            "ticks": 30210,
            "time": 148.08816125,
            "velocity": 0.7086614173228346
          },
          {
            "duration": 0.47058799999999223,
            "durationTicks": 96,
            "midi": 85,
            "name": "C#6",
            "ticks": 33600,
            "time": 164.70580000000004,
            "velocity": 0.7874015748031497
          },
          {
            "duration": 0.6862741666666636,
            "durationTicks": 140,
            "midi": 46,
            "name": "A#2",
            "ticks": 33600,
            "time": 164.70580000000004,
            "velocity": 0.6535433070866141
          },
          {
            "duration": 0.485293874999968,
            "durationTicks": 99,
            "midi": 61,
            "name": "C#4",
            "ticks": 33600,
            "time": 164.70580000000004,
            "velocity": 0.7480314960629921
          },
          {
            "duration": 0.6911761249999984,
            "durationTicks": 141,
            "midi": 61,
            "name": "C#4",
            "ticks": 33600,
            "time": 164.70580000000004,
            "velocity": 0.6535433070866141
          },
          {
            "duration": 0.0637254583333231,
            "durationTicks": 13,
            "midi": 77,
            "name": "F5",
            "ticks": 33660,
            "time": 164.99991750000004,
            "velocity": 0.5511811023622047
          },
          {
            "duration": 0.07352937499999257,
            "durationTicks": 15,
            "midi": 75,
            "name": "D#5",
            "ticks": 33690,
            "time": 165.14697625000002,
            "velocity": 0.5511811023622047
          },
          {
            "duration": 0.0784313333333273,
            "durationTicks": 16,
            "midi": 84,
            "name": "C6",
            "ticks": 33720,
            "time": 165.29403500000004,
            "velocity": 0.7874015748031497
          },
          {
            "duration": 0.0784313333333273,
            "durationTicks": 16,
            "midi": 73,
            "name": "C#5",
            "ticks": 33720,
            "time": 165.29403500000004,
            "velocity": 0.6535433070866141
          },
          {
            "duration": 0.4215684166666449,
            "durationTicks": 86,
            "midi": 73,
            "name": "C#5",
            "ticks": 33720,
            "time": 165.29403500000004,
            "velocity": 0.7480314960629921
          },
          {
            "duration": 0.07352937499999257,
            "durationTicks": 15,
            "midi": 77,
            "name": "F5",
            "ticks": 33750,
            "time": 165.44109375000002,
            "velocity": 0.5511811023622047
          },
          {
            "duration": 0.09803916666666623,
            "durationTicks": 20,
            "midi": 82,
            "name": "A#5",
            "ticks": 33780,
            "time": 165.58815250000004,
            "velocity": 0.7874015748031497
          },
          {
            "duration": 0.11274504166664201,
            "durationTicks": 23,
            "midi": 46,
            "name": "A#2",
            "ticks": 33780,
            "time": 165.58815250000004,
            "velocity": 0.6535433070866141
          },
          {
            "duration": 0.1274509166666462,
            "durationTicks": 26,
            "midi": 61,
            "name": "C#4",
            "ticks": 33780,
            "time": 165.58815250000004,
            "velocity": 0.6535433070866141
          },
          {
            "duration": 0.07352937499999257,
            "durationTicks": 15,
            "midi": 70,
            "name": "A#4",
            "ticks": 33810,
            "time": 165.73521125000002,
            "velocity": 0.5511811023622047
          },
          {
            "duration": 0.4215684166666449,
            "durationTicks": 86,
            "midi": 78,
            "name": "F#5",
            "ticks": 33840,
            "time": 165.88227000000003,
            "velocity": 0.7874015748031497
          },
          {
            "duration": 0.7009800416666678,
            "durationTicks": 143,
            "midi": 51,
            "name": "D#3",
            "ticks": 33840,
            "time": 165.88227000000003,
            "velocity": 0.6535433070866141
          },
          {
            "duration": 0.7107839583333089,
            "durationTicks": 145,
            "midi": 66,
            "name": "F#4",
            "ticks": 33840,
            "time": 165.88227000000003,
            "velocity": 0.6535433070866141
          },
          {
            "duration": 0.8823524999999961,
            "durationTicks": 180,
            "midi": 70,
            "name": "A#4",
            "ticks": 33840,
            "time": 165.88227000000003,
            "velocity": 0.7480314960629921
          },
          {
            "duration": 0.07352937499999257,
            "durationTicks": 15,
            "midi": 78,
            "name": "F#5",
            "ticks": 33960,
            "time": 166.47050500000003,
            "velocity": 0.7874015748031497
          },
          {
            "duration": 0.06372545833335153,
            "durationTicks": 13,
            "midi": 80,
            "name": "G#5",
            "ticks": 33990,
            "time": 166.61756375000002,
            "velocity": 0.7874015748031497
          },
          {
            "duration": 0.06862741666665784,
            "durationTicks": 14,
            "midi": 82,
            "name": "A#5",
            "ticks": 34020,
            "time": 166.76462250000003,
            "velocity": 0.7874015748031497
          },
          {
            "duration": 0.12254895833331148,
            "durationTicks": 25,
            "midi": 51,
            "name": "D#3",
            "ticks": 34020,
            "time": 166.76462250000003,
            "velocity": 0.6535433070866141
          },
          {
            "duration": 0.0931372083333315,
            "durationTicks": 19,
            "midi": 66,
            "name": "F#4",
            "ticks": 34020,
            "time": 166.76462250000003,
            "velocity": 0.6535433070866141
          },
          {
            "duration": 0.0784313333333273,
            "durationTicks": 16,
            "midi": 78,
            "name": "F#5",
            "ticks": 34050,
            "time": 166.91168125000002,
            "velocity": 0.7874015748031497
          },
          {
            "duration": 0.4362742916666775,
            "durationTicks": 89,
            "midi": 84,
            "name": "C6",
            "ticks": 34080,
            "time": 167.05874000000003,
            "velocity": 0.7874015748031497
          },
          {
            "duration": 0.6862741666666636,
            "durationTicks": 140,
            "midi": 44,
            "name": "G#2",
            "ticks": 34080,
            "time": 167.05874000000003,
            "velocity": 0.6535433070866141
          },
          {
            "duration": 0.49019583333333117,
            "durationTicks": 100,
            "midi": 60,
            "name": "C4",
            "ticks": 34080,
            "time": 167.05874000000003,
            "velocity": 0.7480314960629921
          },
          {
            "duration": 0.6519604583333489,
            "durationTicks": 133,
            "midi": 60,
            "name": "C4",
            "ticks": 34080,
            "time": 167.05874000000003,
            "velocity": 0.6535433070866141
          },
          {
            "duration": 0.06862741666665784,
            "durationTicks": 14,
            "midi": 75,
            "name": "D#5",
            "ticks": 34140,
            "time": 167.35285750000003,
            "velocity": 0.5511811023622047
          },
          {
            "duration": 0.07843133333335572,
            "durationTicks": 16,
            "midi": 73,
            "name": "C#5",
            "ticks": 34170,
            "time": 167.49991625,
            "velocity": 0.5511811023622047
          },
          {
            "duration": 0.08823524999999677,
            "durationTicks": 18,
            "midi": 82,
            "name": "A#5",
            "ticks": 34200,
            "time": 167.64697500000003,
            "velocity": 0.7874015748031497
          },
          {
            "duration": 0.0784313333333273,
            "durationTicks": 16,
            "midi": 72,
            "name": "C5",
            "ticks": 34200,
            "time": 167.64697500000003,
            "velocity": 0.6535433070866141
          },
          {
            "duration": 0.36764687499999127,
            "durationTicks": 75,
            "midi": 72,
            "name": "C5",
            "ticks": 34200,
            "time": 167.64697500000003,
            "velocity": 0.5511811023622047
          },
          {
            "duration": 0.07352937500002099,
            "durationTicks": 15,
            "midi": 75,
            "name": "D#5",
            "ticks": 34230,
            "time": 167.79403375,
            "velocity": 0.5511811023622047
          },
          {
            "duration": 0.0784313333333273,
            "durationTicks": 16,
            "midi": 80,
            "name": "G#5",
            "ticks": 34260,
            "time": 167.94109250000002,
            "velocity": 0.7874015748031497
          },
          {
            "duration": 0.11274504166667043,
            "durationTicks": 23,
            "midi": 44,
            "name": "G#2",
            "ticks": 34260,
            "time": 167.94109250000002,
            "velocity": 0.6535433070866141
          },
          {
            "duration": 0.11274504166667043,
            "durationTicks": 23,
            "midi": 60,
            "name": "C4",
            "ticks": 34260,
            "time": 167.94109250000002,
            "velocity": 0.6535433070866141
          },
          {
            "duration": 0.16176462499998934,
            "durationTicks": 33,
            "midi": 72,
            "name": "C5",
            "ticks": 34260,
            "time": 167.94109250000002,
            "velocity": 0.5511811023622047
          },
          {
            "duration": 0.07352937499999257,
            "durationTicks": 15,
            "midi": 68,
            "name": "G#4",
            "ticks": 34290,
            "time": 168.08815125000004,
            "velocity": 0.5511811023622047
          },
          {
            "duration": 0.44117625000001226,
            "durationTicks": 90,
            "midi": 77,
            "name": "F5",
            "ticks": 34320,
            "time": 168.23521000000002,
            "velocity": 0.7874015748031497
          },
          {
            "duration": 0.7254898333333415,
            "durationTicks": 148,
            "midi": 53,
            "name": "F3",
            "ticks": 34320,
            "time": 168.23521000000002,
            "velocity": 0.6535433070866141
          },
          {
            "duration": 0.5882349999999974,
            "durationTicks": 120,
            "midi": 65,
            "name": "F4",
            "ticks": 34320,
            "time": 168.23521000000002,
            "velocity": 0.7480314960629921
          },
          {
            "duration": 0.8382348750000119,
            "durationTicks": 171,
            "midi": 68,
            "name": "G#4",
            "ticks": 34320,
            "time": 168.23521000000002,
            "velocity": 0.7480314960629921
          },
          {
            "duration": 0.0784313333333273,
            "durationTicks": 16,
            "midi": 77,
            "name": "F5",
            "ticks": 34440,
            "time": 168.82344500000002,
            "velocity": 0.7874015748031497
          },
          {
            "duration": 0.0637254583333231,
            "durationTicks": 13,
            "midi": 78,
            "name": "F#5",
            "ticks": 34470,
            "time": 168.97050375000003,
            "velocity": 0.7874015748031497
          },
          {
            "duration": 0.07352937499999257,
            "durationTicks": 15,
            "midi": 80,
            "name": "G#5",
            "ticks": 34500,
            "time": 169.11756250000002,
            "velocity": 0.7874015748031497
          },
          {
            "duration": 0.1274509166666462,
            "durationTicks": 26,
            "midi": 53,
            "name": "F3",
            "ticks": 34500,
            "time": 169.11756250000002,
            "velocity": 0.6535433070866141
          },
          {
            "duration": 0.11274504166667043,
            "durationTicks": 23,
            "midi": 68,
            "name": "G#4",
            "ticks": 34500,
            "time": 169.11756250000002,
            "velocity": 0.6535433070866141
          },
          {
            "duration": 0.05392154166665364,
            "durationTicks": 11,
            "midi": 77,
            "name": "F5",
            "ticks": 34530,
            "time": 169.26462125000003,
            "velocity": 0.7874015748031497
          },
          {
            "duration": 0.4215684166666449,
            "durationTicks": 86,
            "midi": 82,
            "name": "A#5",
            "ticks": 34560,
            "time": 169.41168000000002,
            "velocity": 0.7874015748031497
          },
          {
            "duration": 0.6813722083333573,
            "durationTicks": 139,
            "midi": 42,
            "name": "F#2",
            "ticks": 34560,
            "time": 169.41168000000002,
            "velocity": 0.6535433070866141
          },
          {
            "duration": 0.5049017083333354,
            "durationTicks": 103,
            "midi": 58,
            "name": "A#3",
            "ticks": 34560,
            "time": 169.41168000000002,
            "velocity": 0.6535433070866141
          },
          {
            "duration": 0.6813722083333573,
            "durationTicks": 139,
            "midi": 58,
            "name": "A#3",
            "ticks": 34560,
            "time": 169.41168000000002,
            "velocity": 0.7480314960629921
          },
          {
            "duration": 0.0784313333333273,
            "durationTicks": 16,
            "midi": 73,
            "name": "C#5",
            "ticks": 34620,
            "time": 169.70579750000002,
            "velocity": 0.5511811023622047
          },
          {
            "duration": 0.06862741666665784,
            "durationTicks": 14,
            "midi": 72,
            "name": "C5",
            "ticks": 34650,
            "time": 169.85285625000003,
            "velocity": 0.5511811023622047
          },
          {
            "duration": 0.06862741666668626,
            "durationTicks": 14,
            "midi": 80,
            "name": "G#5",
            "ticks": 34680,
            "time": 169.99991500000002,
            "velocity": 0.7874015748031497
          },
          {
            "duration": 0.07352937500002099,
            "durationTicks": 15,
            "midi": 70,
            "name": "A#4",
            "ticks": 34680,
            "time": 169.99991500000002,
            "velocity": 0.6535433070866141
          },
          {
            "duration": 0.3676468750000197,
            "durationTicks": 75,
            "midi": 70,
            "name": "A#4",
            "ticks": 34680,
            "time": 169.99991500000002,
            "velocity": 0.5511811023622047
          },
          {
            "duration": 0.07352937499999257,
            "durationTicks": 15,
            "midi": 73,
            "name": "C#5",
            "ticks": 34710,
            "time": 170.14697375000003,
            "velocity": 0.5511811023622047
          },
          {
            "duration": 0.1372548333333441,
            "durationTicks": 28,
            "midi": 70,
            "name": "A#4",
            "ticks": 34740,
            "time": 170.29403250000001,
            "velocity": 0.5511811023622047
          },
          {
            "duration": 0.09313720833335992,
            "durationTicks": 19,
            "midi": 78,
            "name": "F#5",
            "ticks": 34740,
            "time": 170.29403250000001,
            "velocity": 0.7874015748031497
          },
          {
            "duration": 0.11274504166667043,
            "durationTicks": 23,
            "midi": 42,
            "name": "F#2",
            "ticks": 34740,
            "time": 170.29403250000001,
            "velocity": 0.6535433070866141
          },
          {
            "duration": 0.10294112500002939,
            "durationTicks": 21,
            "midi": 58,
            "name": "A#3",
            "ticks": 34740,
            "time": 170.29403250000001,
            "velocity": 0.6535433070866141
          },
          {
            "duration": 0.07352937499999257,
            "durationTicks": 15,
            "midi": 66,
            "name": "F#4",
            "ticks": 34770,
            "time": 170.44109125000003,
            "velocity": 0.5511811023622047
          },
          {
            "duration": 0.42156841666667333,
            "durationTicks": 86,
            "midi": 84,
            "name": "C6",
            "ticks": 34800,
            "time": 170.58815,
            "velocity": 0.7874015748031497
          },
          {
            "duration": 0.6372545833333447,
            "durationTicks": 130,
            "midi": 44,
            "name": "G#2",
            "ticks": 34800,
            "time": 170.58815,
            "velocity": 0.6535433070866141
          },
          {
            "duration": 0.4607840833333512,
            "durationTicks": 94,
            "midi": 60,
            "name": "C4",
            "ticks": 34800,
            "time": 170.58815,
            "velocity": 0.6535433070866141
          },
          {
            "duration": 0.6519604583333489,
            "durationTicks": 133,
            "midi": 60,
            "name": "C4",
            "ticks": 34800,
            "time": 170.58815,
            "velocity": 0.7480314960629921
          },
          {
            "duration": 0.07843133333335572,
            "durationTicks": 16,
            "midi": 75,
            "name": "D#5",
            "ticks": 34860,
            "time": 170.8822675,
            "velocity": 0.5511811023622047
          },
          {
            "duration": 0.06862741666665784,
            "durationTicks": 14,
            "midi": 73,
            "name": "C#5",
            "ticks": 34890,
            "time": 171.02932625000003,
            "velocity": 0.5511811023622047
          },
          {
            "duration": 0.0637254583333231,
            "durationTicks": 13,
            "midi": 82,
            "name": "A#5",
            "ticks": 34920,
            "time": 171.17638500000004,
            "velocity": 0.7874015748031497
          },
          {
            "duration": 0.0784313333333273,
            "durationTicks": 16,
            "midi": 72,
            "name": "C5",
            "ticks": 34920,
            "time": 171.17638500000004,
            "velocity": 0.5511811023622047
          },
          {
            "duration": 0.36764687499999127,
            "durationTicks": 75,
            "midi": 72,
            "name": "C5",
            "ticks": 34920,
            "time": 171.17638500000004,
            "velocity": 0.6535433070866141
          },
          {
            "duration": 0.07352937499999257,
            "durationTicks": 15,
            "midi": 75,
            "name": "D#5",
            "ticks": 34950,
            "time": 171.32344375000002,
            "velocity": 0.5511811023622047
          },
          {
            "duration": 0.16666658333332407,
            "durationTicks": 34,
            "midi": 72,
            "name": "C5",
            "ticks": 34980,
            "time": 171.47050250000004,
            "velocity": 0.5511811023622047
          },
          {
            "duration": 0.0784313333333273,
            "durationTicks": 16,
            "midi": 80,
            "name": "G#5",
            "ticks": 34980,
            "time": 171.47050250000004,
            "velocity": 0.7874015748031497
          },
          {
            "duration": 0.1274509166666462,
            "durationTicks": 26,
            "midi": 44,
            "name": "G#2",
            "ticks": 34980,
            "time": 171.47050250000004,
            "velocity": 0.6535433070866141
          },
          {
            "duration": 0.11764699999997674,
            "durationTicks": 24,
            "midi": 60,
            "name": "C4",
            "ticks": 34980,
            "time": 171.47050250000004,
            "velocity": 0.7480314960629921
          },
          {
            "duration": 0.07352937499999257,
            "durationTicks": 15,
            "midi": 68,
            "name": "G#4",
            "ticks": 35010,
            "time": 171.61756125000002,
            "velocity": 0.5511811023622047
          },
          {
            "duration": 2.3529399999999896,
            "durationTicks": 480,
            "midi": 82,
            "name": "A#5",
            "ticks": 35040,
            "time": 171.76462000000004,
            "velocity": 0.7874015748031497
          },
          {
            "duration": 2.3676458749999654,
            "durationTicks": 483,
            "midi": 46,
            "name": "A#2",
            "ticks": 35040,
            "time": 171.76462000000004,
            "velocity": 0.6535433070866141
          },
          {
            "duration": 2.3529399999999896,
            "durationTicks": 480,
            "midi": 61,
            "name": "C#4",
            "ticks": 35040,
            "time": 171.76462000000004,
            "velocity": 0.7480314960629921
          },
          {
            "duration": 2.3529399999999896,
            "durationTicks": 480,
            "midi": 73,
            "name": "C#5",
            "ticks": 35040,
            "time": 171.76462000000004,
            "velocity": 0.6535433070866141
          },
          {
            "duration": 2.3529399999999896,
            "durationTicks": 480,
            "midi": 61,
            "name": "C#4",
            "ticks": 35040,
            "time": 171.76462000000004,
            "velocity": 0.6535433070866141
          },
          {
            "duration": 0.14705874999998514,
            "durationTicks": 30,
            "midi": 65,
            "name": "F4",
            "ticks": 35280,
            "time": 172.94109000000003,
            "velocity": 0.7086614173228346
          },
          {
            "duration": 0.14705875000001356,
            "durationTicks": 30,
            "midi": 66,
            "name": "F#4",
            "ticks": 35310,
            "time": 173.08814875000002,
            "velocity": 0.7086614173228346
          },
          {
            "duration": 0.14705874999998514,
            "durationTicks": 30,
            "midi": 67,
            "name": "G4",
            "ticks": 35340,
            "time": 173.23520750000003,
            "velocity": 0.7086614173228346
          },
          {
            "duration": 0.14705875000001356,
            "durationTicks": 30,
            "midi": 68,
            "name": "G#4",
            "ticks": 35370,
            "time": 173.38226625000001,
            "velocity": 0.7086614173228346
          },
          {
            "duration": 0.14705874999998514,
            "durationTicks": 30,
            "midi": 69,
            "name": "A4",
            "ticks": 35400,
            "time": 173.52932500000003,
            "velocity": 0.7086614173228346
          },
          {
            "duration": 0.14705875000001356,
            "durationTicks": 30,
            "midi": 68,
            "name": "G#4",
            "ticks": 35430,
            "time": 173.67638375,
            "velocity": 0.7086614173228346
          },
          {
            "duration": 0.14705874999998514,
            "durationTicks": 30,
            "midi": 67,
            "name": "G4",
            "ticks": 35460,
            "time": 173.82344250000003,
            "velocity": 0.7086614173228346
          },
          {
            "duration": 0.14705875000001356,
            "durationTicks": 30,
            "midi": 66,
            "name": "F#4",
            "ticks": 35490,
            "time": 173.97050125,
            "velocity": 0.7086614173228346
          },
          {
            "duration": 0.47058800000002066,
            "durationTicks": 96,
            "midi": 85,
            "name": "C#6",
            "ticks": 35520,
            "time": 174.11756000000003,
            "velocity": 0.7874015748031497
          },
          {
            "duration": 0.686274166666692,
            "durationTicks": 140,
            "midi": 46,
            "name": "A#2",
            "ticks": 35520,
            "time": 174.11756000000003,
            "velocity": 0.6535433070866141
          },
          {
            "duration": 0.48529387499999643,
            "durationTicks": 99,
            "midi": 61,
            "name": "C#4",
            "ticks": 35520,
            "time": 174.11756000000003,
            "velocity": 0.7480314960629921
          },
          {
            "duration": 0.6911761249999984,
            "durationTicks": 141,
            "midi": 61,
            "name": "C#4",
            "ticks": 35520,
            "time": 174.11756000000003,
            "velocity": 0.6535433070866141
          },
          {
            "duration": 0.06372545833335153,
            "durationTicks": 13,
            "midi": 77,
            "name": "F5",
            "ticks": 35580,
            "time": 174.41167750000002,
            "velocity": 0.5511811023622047
          },
          {
            "duration": 0.07352937499999257,
            "durationTicks": 15,
            "midi": 75,
            "name": "D#5",
            "ticks": 35610,
            "time": 174.55873625000004,
            "velocity": 0.5511811023622047
          },
          {
            "duration": 0.0784313333333273,
            "durationTicks": 16,
            "midi": 84,
            "name": "C6",
            "ticks": 35640,
            "time": 174.70579500000002,
            "velocity": 0.7874015748031497
          },
          {
            "duration": 0.0784313333333273,
            "durationTicks": 16,
            "midi": 73,
            "name": "C#5",
            "ticks": 35640,
            "time": 174.70579500000002,
            "velocity": 0.6535433070866141
          },
          {
            "duration": 0.4215684166666449,
            "durationTicks": 86,
            "midi": 73,
            "name": "C#5",
            "ticks": 35640,
            "time": 174.70579500000002,
            "velocity": 0.7480314960629921
          },
          {
            "duration": 0.07352937499999257,
            "durationTicks": 15,
            "midi": 77,
            "name": "F5",
            "ticks": 35670,
            "time": 174.85285375000004,
            "velocity": 0.5511811023622047
          },
          {
            "duration": 0.09803916666669465,
            "durationTicks": 20,
            "midi": 82,
            "name": "A#5",
            "ticks": 35700,
            "time": 174.99991250000002,
            "velocity": 0.7874015748031497
          },
          {
            "duration": 0.11274504166667043,
            "durationTicks": 23,
            "midi": 46,
            "name": "A#2",
            "ticks": 35700,
            "time": 174.99991250000002,
            "velocity": 0.6535433070866141
          },
          {
            "duration": 0.1274509166666462,
            "durationTicks": 26,
            "midi": 61,
            "name": "C#4",
            "ticks": 35700,
            "time": 174.99991250000002,
            "velocity": 0.6535433070866141
          },
          {
            "duration": 0.07352937499999257,
            "durationTicks": 15,
            "midi": 70,
            "name": "A#4",
            "ticks": 35730,
            "time": 175.14697125000004,
            "velocity": 0.5511811023622047
          },
          {
            "duration": 0.4215684166666449,
            "durationTicks": 86,
            "midi": 78,
            "name": "F#5",
            "ticks": 35760,
            "time": 175.29403000000002,
            "velocity": 0.7874015748031497
          },
          {
            "duration": 0.7009800416666678,
            "durationTicks": 143,
            "midi": 51,
            "name": "D#3",
            "ticks": 35760,
            "time": 175.29403000000002,
            "velocity": 0.6535433070866141
          },
          {
            "duration": 0.7107839583333373,
            "durationTicks": 145,
            "midi": 66,
            "name": "F#4",
            "ticks": 35760,
            "time": 175.29403000000002,
            "velocity": 0.6535433070866141
          },
          {
            "duration": 0.8823524999999961,
            "durationTicks": 180,
            "midi": 70,
            "name": "A#4",
            "ticks": 35760,
            "time": 175.29403000000002,
            "velocity": 0.7480314960629921
          },
          {
            "duration": 0.07352937500002099,
            "durationTicks": 15,
            "midi": 78,
            "name": "F#5",
            "ticks": 35880,
            "time": 175.88226500000002,
            "velocity": 0.7874015748031497
          },
          {
            "duration": 0.0637254583333231,
            "durationTicks": 13,
            "midi": 80,
            "name": "G#5",
            "ticks": 35910,
            "time": 176.02932375000003,
            "velocity": 0.7874015748031497
          },
          {
            "duration": 0.06862741666668626,
            "durationTicks": 14,
            "midi": 82,
            "name": "A#5",
            "ticks": 35940,
            "time": 176.17638250000002,
            "velocity": 0.7874015748031497
          },
          {
            "duration": 0.1225489583333399,
            "durationTicks": 25,
            "midi": 51,
            "name": "D#3",
            "ticks": 35940,
            "time": 176.17638250000002,
            "velocity": 0.6535433070866141
          },
          {
            "duration": 0.09313720833335992,
            "durationTicks": 19,
            "midi": 66,
            "name": "F#4",
            "ticks": 35940,
            "time": 176.17638250000002,
            "velocity": 0.6535433070866141
          },
          {
            "duration": 0.0784313333333273,
            "durationTicks": 16,
            "midi": 78,
            "name": "F#5",
            "ticks": 35970,
            "time": 176.32344125000003,
            "velocity": 0.7874015748031497
          },
          {
            "duration": 0.4362742916666775,
            "durationTicks": 89,
            "midi": 84,
            "name": "C6",
            "ticks": 36000,
            "time": 176.47050000000002,
            "velocity": 0.7874015748031497
          },
          {
            "duration": 0.686274166666692,
            "durationTicks": 140,
            "midi": 44,
            "name": "G#2",
            "ticks": 36000,
            "time": 176.47050000000002,
            "velocity": 0.6535433070866141
          },
          {
            "duration": 0.49019583333333117,
            "durationTicks": 100,
            "midi": 60,
            "name": "C4",
            "ticks": 36000,
            "time": 176.47050000000002,
            "velocity": 0.7480314960629921
          },
          {
            "duration": 0.6519604583333489,
            "durationTicks": 133,
            "midi": 60,
            "name": "C4",
            "ticks": 36000,
            "time": 176.47050000000002,
            "velocity": 0.6535433070866141
          },
          {
            "duration": 0.06862741666668626,
            "durationTicks": 14,
            "midi": 75,
            "name": "D#5",
            "ticks": 36060,
            "time": 176.7646175,
            "velocity": 0.5511811023622047
          },
          {
            "duration": 0.0784313333333273,
            "durationTicks": 16,
            "midi": 73,
            "name": "C#5",
            "ticks": 36090,
            "time": 176.91167625000003,
            "velocity": 0.5511811023622047
          },
          {
            "duration": 0.08823524999999677,
            "durationTicks": 18,
            "midi": 82,
            "name": "A#5",
            "ticks": 36120,
            "time": 177.058735,
            "velocity": 0.7874015748031497
          },
          {
            "duration": 0.07843133333335572,
            "durationTicks": 16,
            "midi": 72,
            "name": "C5",
            "ticks": 36120,
            "time": 177.058735,
            "velocity": 0.6535433070866141
          },
          {
            "duration": 0.3676468750000197,
            "durationTicks": 75,
            "midi": 72,
            "name": "C5",
            "ticks": 36120,
            "time": 177.058735,
            "velocity": 0.5511811023622047
          },
          {
            "duration": 0.07352937499999257,
            "durationTicks": 15,
            "midi": 75,
            "name": "D#5",
            "ticks": 36150,
            "time": 177.20579375000003,
            "velocity": 0.5511811023622047
          },
          {
            "duration": 0.0784313333333273,
            "durationTicks": 16,
            "midi": 80,
            "name": "G#5",
            "ticks": 36180,
            "time": 177.35285250000004,
            "velocity": 0.7874015748031497
          },
          {
            "duration": 0.11274504166664201,
            "durationTicks": 23,
            "midi": 44,
            "name": "G#2",
            "ticks": 36180,
            "time": 177.35285250000004,
            "velocity": 0.6535433070866141
          },
          {
            "duration": 0.11274504166664201,
            "durationTicks": 23,
            "midi": 60,
            "name": "C4",
            "ticks": 36180,
            "time": 177.35285250000004,
            "velocity": 0.6535433070866141
          },
          {
            "duration": 0.16176462499996092,
            "durationTicks": 33,
            "midi": 72,
            "name": "C5",
            "ticks": 36180,
            "time": 177.35285250000004,
            "velocity": 0.5511811023622047
          },
          {
            "duration": 0.07352937499999257,
            "durationTicks": 15,
            "midi": 68,
            "name": "G#4",
            "ticks": 36210,
            "time": 177.49991125000003,
            "velocity": 0.5511811023622047
          },
          {
            "duration": 0.44117624999998384,
            "durationTicks": 90,
            "midi": 77,
            "name": "F5",
            "ticks": 36240,
            "time": 177.64697000000004,
            "velocity": 0.7874015748031497
          },
          {
            "duration": 0.7254898333333415,
            "durationTicks": 148,
            "midi": 53,
            "name": "F3",
            "ticks": 36240,
            "time": 177.64697000000004,
            "velocity": 0.6535433070866141
          },
          {
            "duration": 0.5882349999999974,
            "durationTicks": 120,
            "midi": 65,
            "name": "F4",
            "ticks": 36240,
            "time": 177.64697000000004,
            "velocity": 0.7480314960629921
          },
          {
            "duration": 0.8382348749999835,
            "durationTicks": 171,
            "midi": 68,
            "name": "G#4",
            "ticks": 36240,
            "time": 177.64697000000004,
            "velocity": 0.7480314960629921
          },
          {
            "duration": 0.0784313333333273,
            "durationTicks": 16,
            "midi": 77,
            "name": "F5",
            "ticks": 36360,
            "time": 178.23520500000004,
            "velocity": 0.7874015748031497
          },
          {
            "duration": 0.06372545833335153,
            "durationTicks": 13,
            "midi": 78,
            "name": "F#5",
            "ticks": 36390,
            "time": 178.38226375000002,
            "velocity": 0.7874015748031497
          },
          {
            "duration": 0.07352937499999257,
            "durationTicks": 15,
            "midi": 80,
            "name": "G#5",
            "ticks": 36420,
            "time": 178.52932250000003,
            "velocity": 0.7874015748031497
          },
          {
            "duration": 0.1274509166666462,
            "durationTicks": 26,
            "midi": 53,
            "name": "F3",
            "ticks": 36420,
            "time": 178.52932250000003,
            "velocity": 0.6535433070866141
          },
          {
            "duration": 0.11274504166664201,
            "durationTicks": 23,
            "midi": 68,
            "name": "G#4",
            "ticks": 36420,
            "time": 178.52932250000003,
            "velocity": 0.6535433070866141
          },
          {
            "duration": 0.05392154166665364,
            "durationTicks": 11,
            "midi": 77,
            "name": "F5",
            "ticks": 36450,
            "time": 178.67638125000002,
            "velocity": 0.7874015748031497
          },
          {
            "duration": 0.4215684166666449,
            "durationTicks": 86,
            "midi": 82,
            "name": "A#5",
            "ticks": 36480,
            "time": 178.82344000000003,
            "velocity": 0.7874015748031497
          },
          {
            "duration": 0.6813722083333289,
            "durationTicks": 139,
            "midi": 42,
            "name": "F#2",
            "ticks": 36480,
            "time": 178.82344000000003,
            "velocity": 0.6535433070866141
          },
          {
            "duration": 0.5049017083333354,
            "durationTicks": 103,
            "midi": 58,
            "name": "A#3",
            "ticks": 36480,
            "time": 178.82344000000003,
            "velocity": 0.6535433070866141
          },
          {
            "duration": 0.6813722083333289,
            "durationTicks": 139,
            "midi": 58,
            "name": "A#3",
            "ticks": 36480,
            "time": 178.82344000000003,
            "velocity": 0.7480314960629921
          },
          {
            "duration": 0.0784313333333273,
            "durationTicks": 16,
            "midi": 73,
            "name": "C#5",
            "ticks": 36540,
            "time": 179.11755750000003,
            "velocity": 0.5511811023622047
          },
          {
            "duration": 0.06862741666668626,
            "durationTicks": 14,
            "midi": 72,
            "name": "C5",
            "ticks": 36570,
            "time": 179.26461625000002,
            "velocity": 0.5511811023622047
          },
          {
            "duration": 0.06862741666665784,
            "durationTicks": 14,
            "midi": 80,
            "name": "G#5",
            "ticks": 36600,
            "time": 179.41167500000003,
            "velocity": 0.7874015748031497
          },
          {
            "duration": 0.07352937499999257,
            "durationTicks": 15,
            "midi": 70,
            "name": "A#4",
            "ticks": 36600,
            "time": 179.41167500000003,
            "velocity": 0.6535433070866141
          },
          {
            "duration": 0.36764687499999127,
            "durationTicks": 75,
            "midi": 70,
            "name": "A#4",
            "ticks": 36600,
            "time": 179.41167500000003,
            "velocity": 0.5511811023622047
          },
          {
            "duration": 0.07352937500002099,
            "durationTicks": 15,
            "midi": 73,
            "name": "C#5",
            "ticks": 36630,
            "time": 179.55873375000002,
            "velocity": 0.5511811023622047
          },
          {
            "duration": 0.1372548333333441,
            "durationTicks": 28,
            "midi": 70,
            "name": "A#4",
            "ticks": 36660,
            "time": 179.70579250000003,
            "velocity": 0.5511811023622047
          },
          {
            "duration": 0.09313720833335992,
            "durationTicks": 19,
            "midi": 78,
            "name": "F#5",
            "ticks": 36660,
            "time": 179.70579250000003,
            "velocity": 0.7874015748031497
          },
          {
            "duration": 0.11274504166667043,
            "durationTicks": 23,
            "midi": 42,
            "name": "F#2",
            "ticks": 36660,
            "time": 179.70579250000003,
            "velocity": 0.6535433070866141
          },
          {
            "duration": 0.10294112500000097,
            "durationTicks": 21,
            "midi": 58,
            "name": "A#3",
            "ticks": 36660,
            "time": 179.70579250000003,
            "velocity": 0.6535433070866141
          },
          {
            "duration": 0.07352937500002099,
            "durationTicks": 15,
            "midi": 66,
            "name": "F#4",
            "ticks": 36690,
            "time": 179.85285125000001,
            "velocity": 0.5511811023622047
          },
          {
            "duration": 0.4215684166666449,
            "durationTicks": 86,
            "midi": 84,
            "name": "C6",
            "ticks": 36720,
            "time": 179.99991000000003,
            "velocity": 0.7874015748031497
          },
          {
            "duration": 0.6372545833333163,
            "durationTicks": 130,
            "midi": 44,
            "name": "G#2",
            "ticks": 36720,
            "time": 179.99991000000003,
            "velocity": 0.6535433070866141
          },
          {
            "duration": 0.4607840833333512,
            "durationTicks": 94,
            "midi": 60,
            "name": "C4",
            "ticks": 36720,
            "time": 179.99991000000003,
            "velocity": 0.6535433070866141
          },
          {
            "duration": 0.6519604583333489,
            "durationTicks": 133,
            "midi": 60,
            "name": "C4",
            "ticks": 36720,
            "time": 179.99991000000003,
            "velocity": 0.7480314960629921
          },
          {
            "duration": 0.0784313333333273,
            "durationTicks": 16,
            "midi": 75,
            "name": "D#5",
            "ticks": 36780,
            "time": 180.29402750000003,
            "velocity": 0.5511811023622047
          },
          {
            "duration": 0.06862741666665784,
            "durationTicks": 14,
            "midi": 73,
            "name": "C#5",
            "ticks": 36810,
            "time": 180.44108625000004,
            "velocity": 0.5511811023622047
          },
          {
            "duration": 0.06372545833335153,
            "durationTicks": 13,
            "midi": 82,
            "name": "A#5",
            "ticks": 36840,
            "time": 180.58814500000003,
            "velocity": 0.7874015748031497
          },
          {
            "duration": 0.0784313333333273,
            "durationTicks": 16,
            "midi": 72,
            "name": "C5",
            "ticks": 36840,
            "time": 180.58814500000003,
            "velocity": 0.5511811023622047
          },
          {
            "duration": 0.36764687499999127,
            "durationTicks": 75,
            "midi": 72,
            "name": "C5",
            "ticks": 36840,
            "time": 180.58814500000003,
            "velocity": 0.6535433070866141
          },
          {
            "duration": 0.07352937499999257,
            "durationTicks": 15,
            "midi": 75,
            "name": "D#5",
            "ticks": 36870,
            "time": 180.73520375000004,
            "velocity": 0.5511811023622047
          },
          {
            "duration": 0.1666665833333525,
            "durationTicks": 34,
            "midi": 72,
            "name": "C5",
            "ticks": 36900,
            "time": 180.88226250000002,
            "velocity": 0.5511811023622047
          },
          {
            "duration": 0.0784313333333273,
            "durationTicks": 16,
            "midi": 80,
            "name": "G#5",
            "ticks": 36900,
            "time": 180.88226250000002,
            "velocity": 0.7874015748031497
          },
          {
            "duration": 0.1274509166666462,
            "durationTicks": 26,
            "midi": 44,
            "name": "G#2",
            "ticks": 36900,
            "time": 180.88226250000002,
            "velocity": 0.6535433070866141
          },
          {
            "duration": 0.11764700000000516,
            "durationTicks": 24,
            "midi": 60,
            "name": "C4",
            "ticks": 36900,
            "time": 180.88226250000002,
            "velocity": 0.7480314960629921
          },
          {
            "duration": 0.07352937499999257,
            "durationTicks": 15,
            "midi": 68,
            "name": "G#4",
            "ticks": 36930,
            "time": 181.02932125000004,
            "velocity": 0.5511811023622047
          },
          {
            "duration": 2.3529399999999896,
            "durationTicks": 480,
            "midi": 82,
            "name": "A#5",
            "ticks": 36960,
            "time": 181.17638000000002,
            "velocity": 0.7874015748031497
          },
          {
            "duration": 2.367645874999994,
            "durationTicks": 483,
            "midi": 46,
            "name": "A#2",
            "ticks": 36960,
            "time": 181.17638000000002,
            "velocity": 0.6535433070866141
          },
          {
            "duration": 2.3529399999999896,
            "durationTicks": 480,
            "midi": 61,
            "name": "C#4",
            "ticks": 36960,
            "time": 181.17638000000002,
            "velocity": 0.7480314960629921
          },
          {
            "duration": 2.3529399999999896,
            "durationTicks": 480,
            "midi": 73,
            "name": "C#5",
            "ticks": 36960,
            "time": 181.17638000000002,
            "velocity": 0.6535433070866141
          },
          {
            "duration": 2.3529399999999896,
            "durationTicks": 480,
            "midi": 61,
            "name": "C#4",
            "ticks": 36960,
            "time": 181.17638000000002,
            "velocity": 0.6535433070866141
          },
          {
            "duration": 0.14705875000001356,
            "durationTicks": 30,
            "midi": 65,
            "name": "F4",
            "ticks": 37200,
            "time": 182.35285000000002,
            "velocity": 0.7086614173228346
          },
          {
            "duration": 0.14705874999998514,
            "durationTicks": 30,
            "midi": 66,
            "name": "F#4",
            "ticks": 37230,
            "time": 182.49990875000003,
            "velocity": 0.7086614173228346
          },
          {
            "duration": 0.14705875000001356,
            "durationTicks": 30,
            "midi": 67,
            "name": "G4",
            "ticks": 37260,
            "time": 182.64696750000002,
            "velocity": 0.7086614173228346
          },
          {
            "duration": 0.14705874999998514,
            "durationTicks": 30,
            "midi": 68,
            "name": "G#4",
            "ticks": 37290,
            "time": 182.79402625000003,
            "velocity": 0.7086614173228346
          },
          {
            "duration": 0.14705875000001356,
            "durationTicks": 30,
            "midi": 69,
            "name": "A4",
            "ticks": 37320,
            "time": 182.94108500000002,
            "velocity": 0.7086614173228346
          },
          {
            "duration": 0.14705874999998514,
            "durationTicks": 30,
            "midi": 68,
            "name": "G#4",
            "ticks": 37350,
            "time": 183.08814375000003,
            "velocity": 0.7086614173228346
          },
          {
            "duration": 0.14705875000001356,
            "durationTicks": 30,
            "midi": 67,
            "name": "G4",
            "ticks": 37380,
            "time": 183.2352025,
            "velocity": 0.7086614173228346
          },
          {
            "duration": 0.14705874999998514,
            "durationTicks": 30,
            "midi": 66,
            "name": "F#4",
            "ticks": 37410,
            "time": 183.38226125000003,
            "velocity": 0.7086614173228346
          },
          {
            "duration": 0.47058800000002066,
            "durationTicks": 96,
            "midi": 85,
            "name": "C#6",
            "ticks": 37440,
            "time": 183.52932,
            "velocity": 0.7874015748031497
          },
          {
            "duration": 0.686274166666692,
            "durationTicks": 140,
            "midi": 46,
            "name": "A#2",
            "ticks": 37440,
            "time": 183.52932,
            "velocity": 0.6535433070866141
          },
          {
            "duration": 0.48529387499999643,
            "durationTicks": 99,
            "midi": 61,
            "name": "C#4",
            "ticks": 37440,
            "time": 183.52932,
            "velocity": 0.7480314960629921
          },
          {
            "duration": 0.6911761250000268,
            "durationTicks": 141,
            "midi": 61,
            "name": "C#4",
            "ticks": 37440,
            "time": 183.52932,
            "velocity": 0.6535433070866141
          },
          {
            "duration": 0.0637254583333231,
            "durationTicks": 13,
            "midi": 77,
            "name": "F5",
            "ticks": 37500,
            "time": 183.82343750000004,
            "velocity": 0.5511811023622047
          },
          {
            "duration": 0.07352937499999257,
            "durationTicks": 15,
            "midi": 75,
            "name": "D#5",
            "ticks": 37530,
            "time": 183.97049625000002,
            "velocity": 0.5511811023622047
          },
          {
            "duration": 0.0784313333333273,
            "durationTicks": 16,
            "midi": 84,
            "name": "C6",
            "ticks": 37560,
            "time": 184.11755500000004,
            "velocity": 0.7874015748031497
          },
          {
            "duration": 0.0784313333333273,
            "durationTicks": 16,
            "midi": 73,
            "name": "C#5",
            "ticks": 37560,
            "time": 184.11755500000004,
            "velocity": 0.6535433070866141
          },
          {
            "duration": 0.4215684166666449,
            "durationTicks": 86,
            "midi": 73,
            "name": "C#5",
            "ticks": 37560,
            "time": 184.11755500000004,
            "velocity": 0.7480314960629921
          },
          {
            "duration": 0.07352937499999257,
            "durationTicks": 15,
            "midi": 77,
            "name": "F5",
            "ticks": 37590,
            "time": 184.26461375000002,
            "velocity": 0.5511811023622047
          },
          {
            "duration": 0.09803916666666623,
            "durationTicks": 20,
            "midi": 82,
            "name": "A#5",
            "ticks": 37620,
            "time": 184.41167250000004,
            "velocity": 0.7874015748031497
          },
          {
            "duration": 0.11274504166664201,
            "durationTicks": 23,
            "midi": 46,
            "name": "A#2",
            "ticks": 37620,
            "time": 184.41167250000004,
            "velocity": 0.6535433070866141
          },
          {
            "duration": 0.1274509166666462,
            "durationTicks": 26,
            "midi": 61,
            "name": "C#4",
            "ticks": 37620,
            "time": 184.41167250000004,
            "velocity": 0.6535433070866141
          },
          {
            "duration": 0.07352937499999257,
            "durationTicks": 15,
            "midi": 70,
            "name": "A#4",
            "ticks": 37650,
            "time": 184.55873125000002,
            "velocity": 0.5511811023622047
          },
          {
            "duration": 0.4215684166666449,
            "durationTicks": 86,
            "midi": 78,
            "name": "F#5",
            "ticks": 37680,
            "time": 184.70579000000004,
            "velocity": 0.7874015748031497
          },
          {
            "duration": 0.7009800416666678,
            "durationTicks": 143,
            "midi": 51,
            "name": "D#3",
            "ticks": 37680,
            "time": 184.70579000000004,
            "velocity": 0.6535433070866141
          },
          {
            "duration": 0.7107839583333089,
            "durationTicks": 145,
            "midi": 66,
            "name": "F#4",
            "ticks": 37680,
            "time": 184.70579000000004,
            "velocity": 0.6535433070866141
          },
          {
            "duration": 0.8823524999999961,
            "durationTicks": 180,
            "midi": 70,
            "name": "A#4",
            "ticks": 37680,
            "time": 184.70579000000004,
            "velocity": 0.7480314960629921
          },
          {
            "duration": 0.07352937499999257,
            "durationTicks": 15,
            "midi": 78,
            "name": "F#5",
            "ticks": 37800,
            "time": 185.29402500000003,
            "velocity": 0.7874015748031497
          },
          {
            "duration": 0.06372545833335153,
            "durationTicks": 13,
            "midi": 80,
            "name": "G#5",
            "ticks": 37830,
            "time": 185.44108375000002,
            "velocity": 0.7874015748031497
          },
          {
            "duration": 0.06862741666665784,
            "durationTicks": 14,
            "midi": 82,
            "name": "A#5",
            "ticks": 37860,
            "time": 185.58814250000003,
            "velocity": 0.7874015748031497
          },
          {
            "duration": 0.12254895833331148,
            "durationTicks": 25,
            "midi": 51,
            "name": "D#3",
            "ticks": 37860,
            "time": 185.58814250000003,
            "velocity": 0.6535433070866141
          },
          {
            "duration": 0.0931372083333315,
            "durationTicks": 19,
            "midi": 66,
            "name": "F#4",
            "ticks": 37860,
            "time": 185.58814250000003,
            "velocity": 0.6535433070866141
          },
          {
            "duration": 0.0784313333333273,
            "durationTicks": 16,
            "midi": 78,
            "name": "F#5",
            "ticks": 37890,
            "time": 185.73520125000002,
            "velocity": 0.7874015748031497
          },
          {
            "duration": 0.4362742916666775,
            "durationTicks": 89,
            "midi": 84,
            "name": "C6",
            "ticks": 37920,
            "time": 185.88226000000003,
            "velocity": 0.7874015748031497
          },
          {
            "duration": 0.6862741666666636,
            "durationTicks": 140,
            "midi": 44,
            "name": "G#2",
            "ticks": 37920,
            "time": 185.88226000000003,
            "velocity": 0.6535433070866141
          },
          {
            "duration": 0.49019583333333117,
            "durationTicks": 100,
            "midi": 60,
            "name": "C4",
            "ticks": 37920,
            "time": 185.88226000000003,
            "velocity": 0.7480314960629921
          },
          {
            "duration": 0.6519604583333489,
            "durationTicks": 133,
            "midi": 60,
            "name": "C4",
            "ticks": 37920,
            "time": 185.88226000000003,
            "velocity": 0.6535433070866141
          },
          {
            "duration": 0.06862741666665784,
            "durationTicks": 14,
            "midi": 75,
            "name": "D#5",
            "ticks": 37980,
            "time": 186.17637750000003,
            "velocity": 0.5511811023622047
          },
          {
            "duration": 0.07843133333335572,
            "durationTicks": 16,
            "midi": 73,
            "name": "C#5",
            "ticks": 38010,
            "time": 186.32343625000001,
            "velocity": 0.5511811023622047
          },
          {
            "duration": 0.08823524999999677,
            "durationTicks": 18,
            "midi": 82,
            "name": "A#5",
            "ticks": 38040,
            "time": 186.47049500000003,
            "velocity": 0.7874015748031497
          },
          {
            "duration": 0.0784313333333273,
            "durationTicks": 16,
            "midi": 72,
            "name": "C5",
            "ticks": 38040,
            "time": 186.47049500000003,
            "velocity": 0.6535433070866141
          },
          {
            "duration": 0.36764687499999127,
            "durationTicks": 75,
            "midi": 72,
            "name": "C5",
            "ticks": 38040,
            "time": 186.47049500000003,
            "velocity": 0.5511811023622047
          },
          {
            "duration": 0.07352937500002099,
            "durationTicks": 15,
            "midi": 75,
            "name": "D#5",
            "ticks": 38070,
            "time": 186.61755375,
            "velocity": 0.5511811023622047
          },
          {
            "duration": 0.0784313333333273,
            "durationTicks": 16,
            "midi": 80,
            "name": "G#5",
            "ticks": 38100,
            "time": 186.76461250000003,
            "velocity": 0.7874015748031497
          },
          {
            "duration": 0.11274504166667043,
            "durationTicks": 23,
            "midi": 44,
            "name": "G#2",
            "ticks": 38100,
            "time": 186.76461250000003,
            "velocity": 0.6535433070866141
          },
          {
            "duration": 0.11274504166667043,
            "durationTicks": 23,
            "midi": 60,
            "name": "C4",
            "ticks": 38100,
            "time": 186.76461250000003,
            "velocity": 0.6535433070866141
          },
          {
            "duration": 0.16176462499998934,
            "durationTicks": 33,
            "midi": 72,
            "name": "C5",
            "ticks": 38100,
            "time": 186.76461250000003,
            "velocity": 0.5511811023622047
          },
          {
            "duration": 0.07352937499999257,
            "durationTicks": 15,
            "midi": 68,
            "name": "G#4",
            "ticks": 38130,
            "time": 186.91167125000004,
            "velocity": 0.5511811023622047
          },
          {
            "duration": 0.44117625000001226,
            "durationTicks": 90,
            "midi": 77,
            "name": "F5",
            "ticks": 38160,
            "time": 187.05873000000003,
            "velocity": 0.7874015748031497
          },
          {
            "duration": 0.7254898333333415,
            "durationTicks": 148,
            "midi": 53,
            "name": "F3",
            "ticks": 38160,
            "time": 187.05873000000003,
            "velocity": 0.6535433070866141
          },
          {
            "duration": 0.5882349999999974,
            "durationTicks": 120,
            "midi": 65,
            "name": "F4",
            "ticks": 38160,
            "time": 187.05873000000003,
            "velocity": 0.7480314960629921
          },
          {
            "duration": 0.8382348750000119,
            "durationTicks": 171,
            "midi": 68,
            "name": "G#4",
            "ticks": 38160,
            "time": 187.05873000000003,
            "velocity": 0.7480314960629921
          },
          {
            "duration": 0.0784313333333273,
            "durationTicks": 16,
            "midi": 77,
            "name": "F5",
            "ticks": 38280,
            "time": 187.64696500000002,
            "velocity": 0.7874015748031497
          },
          {
            "duration": 0.0637254583333231,
            "durationTicks": 13,
            "midi": 78,
            "name": "F#5",
            "ticks": 38310,
            "time": 187.79402375000004,
            "velocity": 0.7874015748031497
          },
          {
            "duration": 0.07352937499999257,
            "durationTicks": 15,
            "midi": 80,
            "name": "G#5",
            "ticks": 38340,
            "time": 187.94108250000002,
            "velocity": 0.7874015748031497
          },
          {
            "duration": 0.1274509166666462,
            "durationTicks": 26,
            "midi": 53,
            "name": "F3",
            "ticks": 38340,
            "time": 187.94108250000002,
            "velocity": 0.6535433070866141
          },
          {
            "duration": 0.11274504166667043,
            "durationTicks": 23,
            "midi": 68,
            "name": "G#4",
            "ticks": 38340,
            "time": 187.94108250000002,
            "velocity": 0.6535433070866141
          },
          {
            "duration": 0.05392154166665364,
            "durationTicks": 11,
            "midi": 77,
            "name": "F5",
            "ticks": 38370,
            "time": 188.08814125000004,
            "velocity": 0.7874015748031497
          },
          {
            "duration": 0.4215684166666449,
            "durationTicks": 86,
            "midi": 82,
            "name": "A#5",
            "ticks": 38400,
            "time": 188.23520000000002,
            "velocity": 0.7874015748031497
          },
          {
            "duration": 0.6813722083333573,
            "durationTicks": 139,
            "midi": 42,
            "name": "F#2",
            "ticks": 38400,
            "time": 188.23520000000002,
            "velocity": 0.6535433070866141
          },
          {
            "duration": 0.5049017083333354,
            "durationTicks": 103,
            "midi": 58,
            "name": "A#3",
            "ticks": 38400,
            "time": 188.23520000000002,
            "velocity": 0.6535433070866141
          },
          {
            "duration": 0.6813722083333573,
            "durationTicks": 139,
            "midi": 58,
            "name": "A#3",
            "ticks": 38400,
            "time": 188.23520000000002,
            "velocity": 0.7480314960629921
          },
          {
            "duration": 0.0784313333333273,
            "durationTicks": 16,
            "midi": 73,
            "name": "C#5",
            "ticks": 38460,
            "time": 188.52931750000002,
            "velocity": 0.5511811023622047
          },
          {
            "duration": 0.06862741666665784,
            "durationTicks": 14,
            "midi": 72,
            "name": "C5",
            "ticks": 38490,
            "time": 188.67637625000003,
            "velocity": 0.5511811023622047
          },
          {
            "duration": 0.06862741666668626,
            "durationTicks": 14,
            "midi": 80,
            "name": "G#5",
            "ticks": 38520,
            "time": 188.82343500000002,
            "velocity": 0.7874015748031497
          },
          {
            "duration": 0.07352937500002099,
            "durationTicks": 15,
            "midi": 70,
            "name": "A#4",
            "ticks": 38520,
            "time": 188.82343500000002,
            "velocity": 0.6535433070866141
          },
          {
            "duration": 0.3676468750000197,
            "durationTicks": 75,
            "midi": 70,
            "name": "A#4",
            "ticks": 38520,
            "time": 188.82343500000002,
            "velocity": 0.5511811023622047
          },
          {
            "duration": 0.07352937499999257,
            "durationTicks": 15,
            "midi": 73,
            "name": "C#5",
            "ticks": 38550,
            "time": 188.97049375000003,
            "velocity": 0.5511811023622047
          },
          {
            "duration": 0.1372548333333441,
            "durationTicks": 28,
            "midi": 70,
            "name": "A#4",
            "ticks": 38580,
            "time": 189.11755250000002,
            "velocity": 0.5511811023622047
          },
          {
            "duration": 0.09313720833335992,
            "durationTicks": 19,
            "midi": 78,
            "name": "F#5",
            "ticks": 38580,
            "time": 189.11755250000002,
            "velocity": 0.7874015748031497
          },
          {
            "duration": 0.11274504166667043,
            "durationTicks": 23,
            "midi": 42,
            "name": "F#2",
            "ticks": 38580,
            "time": 189.11755250000002,
            "velocity": 0.6535433070866141
          },
          {
            "duration": 0.10294112500002939,
            "durationTicks": 21,
            "midi": 58,
            "name": "A#3",
            "ticks": 38580,
            "time": 189.11755250000002,
            "velocity": 0.6535433070866141
          },
          {
            "duration": 0.07352937499999257,
            "durationTicks": 15,
            "midi": 66,
            "name": "F#4",
            "ticks": 38610,
            "time": 189.26461125000003,
            "velocity": 0.5511811023622047
          },
          {
            "duration": 0.42156841666667333,
            "durationTicks": 86,
            "midi": 84,
            "name": "C6",
            "ticks": 38640,
            "time": 189.41167000000002,
            "velocity": 0.7874015748031497
          },
          {
            "duration": 0.6372545833333447,
            "durationTicks": 130,
            "midi": 44,
            "name": "G#2",
            "ticks": 38640,
            "time": 189.41167000000002,
            "velocity": 0.6535433070866141
          },
          {
            "duration": 0.4607840833333512,
            "durationTicks": 94,
            "midi": 60,
            "name": "C4",
            "ticks": 38640,
            "time": 189.41167000000002,
            "velocity": 0.6535433070866141
          },
          {
            "duration": 0.6519604583333489,
            "durationTicks": 133,
            "midi": 60,
            "name": "C4",
            "ticks": 38640,
            "time": 189.41167000000002,
            "velocity": 0.7480314960629921
          },
          {
            "duration": 0.07843133333335572,
            "durationTicks": 16,
            "midi": 75,
            "name": "D#5",
            "ticks": 38700,
            "time": 189.7057875,
            "velocity": 0.5511811023622047
          },
          {
            "duration": 0.06862741666665784,
            "durationTicks": 14,
            "midi": 73,
            "name": "C#5",
            "ticks": 38730,
            "time": 189.85284625000003,
            "velocity": 0.5511811023622047
          },
          {
            "duration": 0.0637254583333231,
            "durationTicks": 13,
            "midi": 82,
            "name": "A#5",
            "ticks": 38760,
            "time": 189.99990500000004,
            "velocity": 0.7874015748031497
          },
          {
            "duration": 0.0784313333333273,
            "durationTicks": 16,
            "midi": 72,
            "name": "C5",
            "ticks": 38760,
            "time": 189.99990500000004,
            "velocity": 0.5511811023622047
          },
          {
            "duration": 0.36764687499999127,
            "durationTicks": 75,
            "midi": 72,
            "name": "C5",
            "ticks": 38760,
            "time": 189.99990500000004,
            "velocity": 0.6535433070866141
          },
          {
            "duration": 0.07352937499999257,
            "durationTicks": 15,
            "midi": 75,
            "name": "D#5",
            "ticks": 38790,
            "time": 190.14696375000003,
            "velocity": 0.5511811023622047
          },
          {
            "duration": 0.16666658333332407,
            "durationTicks": 34,
            "midi": 72,
            "name": "C5",
            "ticks": 38820,
            "time": 190.29402250000004,
            "velocity": 0.5511811023622047
          },
          {
            "duration": 0.0784313333333273,
            "durationTicks": 16,
            "midi": 80,
            "name": "G#5",
            "ticks": 38820,
            "time": 190.29402250000004,
            "velocity": 0.7874015748031497
          },
          {
            "duration": 0.1274509166666462,
            "durationTicks": 26,
            "midi": 44,
            "name": "G#2",
            "ticks": 38820,
            "time": 190.29402250000004,
            "velocity": 0.6535433070866141
          },
          {
            "duration": 0.11764699999997674,
            "durationTicks": 24,
            "midi": 60,
            "name": "C4",
            "ticks": 38820,
            "time": 190.29402250000004,
            "velocity": 0.7480314960629921
          },
          {
            "duration": 0.07352937499999257,
            "durationTicks": 15,
            "midi": 68,
            "name": "G#4",
            "ticks": 38850,
            "time": 190.44108125000002,
            "velocity": 0.5511811023622047
          },
          {
            "duration": 2.3529399999999896,
            "durationTicks": 480,
            "midi": 82,
            "name": "A#5",
            "ticks": 38880,
            "time": 190.58814000000004,
            "velocity": 0.7874015748031497
          },
          {
            "duration": 2.3676458749999654,
            "durationTicks": 483,
            "midi": 46,
            "name": "A#2",
            "ticks": 38880,
            "time": 190.58814000000004,
            "velocity": 0.6535433070866141
          },
          {
            "duration": 2.3529399999999896,
            "durationTicks": 480,
            "midi": 61,
            "name": "C#4",
            "ticks": 38880,
            "time": 190.58814000000004,
            "velocity": 0.7480314960629921
          },
          {
            "duration": 2.3529399999999896,
            "durationTicks": 480,
            "midi": 73,
            "name": "C#5",
            "ticks": 38880,
            "time": 190.58814000000004,
            "velocity": 0.6535433070866141
          },
          {
            "duration": 2.3529399999999896,
            "durationTicks": 480,
            "midi": 61,
            "name": "C#4",
            "ticks": 38880,
            "time": 190.58814000000004,
            "velocity": 0.6535433070866141
          },
          {
            "duration": 0.14705874999998514,
            "durationTicks": 30,
            "midi": 65,
            "name": "F4",
            "ticks": 39120,
            "time": 191.76461000000003,
            "velocity": 0.7086614173228346
          },
          {
            "duration": 0.14705875000001356,
            "durationTicks": 30,
            "midi": 66,
            "name": "F#4",
            "ticks": 39150,
            "time": 191.91166875000002,
            "velocity": 0.7086614173228346
          },
          {
            "duration": 0.14705874999998514,
            "durationTicks": 30,
            "midi": 67,
            "name": "G4",
            "ticks": 39180,
            "time": 192.05872750000003,
            "velocity": 0.7086614173228346
          },
          {
            "duration": 0.14705875000001356,
            "durationTicks": 30,
            "midi": 68,
            "name": "G#4",
            "ticks": 39210,
            "time": 192.20578625000002,
            "velocity": 0.7086614173228346
          },
          {
            "duration": 0.14705874999998514,
            "durationTicks": 30,
            "midi": 69,
            "name": "A4",
            "ticks": 39240,
            "time": 192.35284500000003,
            "velocity": 0.7086614173228346
          },
          {
            "duration": 0.14705875000001356,
            "durationTicks": 30,
            "midi": 68,
            "name": "G#4",
            "ticks": 39270,
            "time": 192.49990375000002,
            "velocity": 0.7086614173228346
          },
          {
            "duration": 0.14705875000001356,
            "durationTicks": 30,
            "midi": 65,
            "name": "F4",
            "ticks": 39276,
            "time": 192.52931550000002,
            "velocity": 0.5039370078740157
          },
          {
            "duration": 0.14705874999998514,
            "durationTicks": 30,
            "midi": 67,
            "name": "G4",
            "ticks": 39300,
            "time": 192.64696250000003,
            "velocity": 0.7086614173228346
          },
          {
            "duration": 0.14705874999998514,
            "durationTicks": 30,
            "midi": 66,
            "name": "F#4",
            "ticks": 39306,
            "time": 192.67637425000004,
            "velocity": 0.5039370078740157
          },
          {
            "duration": 0.14705875000001356,
            "durationTicks": 30,
            "midi": 66,
            "name": "F#4",
            "ticks": 39330,
            "time": 192.79402125000001,
            "velocity": 0.7086614173228346
          },
          {
            "duration": 0.14705875000001356,
            "durationTicks": 30,
            "midi": 67,
            "name": "G4",
            "ticks": 39336,
            "time": 192.82343300000002,
            "velocity": 0.5039370078740157
          },
          {
            "duration": 0.14705874999998514,
            "durationTicks": 30,
            "midi": 68,
            "name": "G#4",
            "ticks": 39366,
            "time": 192.97049175000004,
            "velocity": 0.5039370078740157
          },
          {
            "duration": 0.14705875000001356,
            "durationTicks": 30,
            "midi": 69,
            "name": "A4",
            "ticks": 39396,
            "time": 193.11755050000002,
            "velocity": 0.5039370078740157
          },
          {
            "duration": 0.14705875000001356,
            "durationTicks": 30,
            "midi": 68,
            "name": "G#4",
            "ticks": 39426,
            "time": 193.26460925000003,
            "velocity": 0.5039370078740157
          },
          {
            "duration": 0.14705875000001356,
            "durationTicks": 30,
            "midi": 65,
            "name": "F4",
            "ticks": 39436,
            "time": 193.31362883333335,
            "velocity": 0.25984251968503935
          },
          {
            "duration": 0.14705874999998514,
            "durationTicks": 30,
            "midi": 67,
            "name": "G4",
            "ticks": 39456,
            "time": 193.41166800000005,
            "velocity": 0.5039370078740157
          },
          {
            "duration": 0.14705874999998514,
            "durationTicks": 30,
            "midi": 66,
            "name": "F#4",
            "ticks": 39466,
            "time": 193.46068758333337,
            "velocity": 0.25984251968503935
          },
          {
            "duration": 0.14705875000001356,
            "durationTicks": 30,
            "midi": 66,
            "name": "F#4",
            "ticks": 39486,
            "time": 193.55872675000003,
            "velocity": 0.5039370078740157
          },
          {
            "duration": 0.14705875000001356,
            "durationTicks": 30,
            "midi": 67,
            "name": "G4",
            "ticks": 39496,
            "time": 193.60774633333335,
            "velocity": 0.25984251968503935
          },
          {
            "duration": 0.14705874999998514,
            "durationTicks": 30,
            "midi": 68,
            "name": "G#4",
            "ticks": 39526,
            "time": 193.75480508333337,
            "velocity": 0.25984251968503935
          },
          {
            "duration": 0.14705875000001356,
            "durationTicks": 30,
            "midi": 69,
            "name": "A4",
            "ticks": 39556,
            "time": 193.90186383333335,
            "velocity": 0.25984251968503935
          },
          {
            "duration": 0.14705874999998514,
            "durationTicks": 30,
            "midi": 68,
            "name": "G#4",
            "ticks": 39586,
            "time": 194.04892258333336,
            "velocity": 0.25984251968503935
          },
          {
            "duration": 0.14705874999998514,
            "durationTicks": 30,
            "midi": 65,
            "name": "F4",
            "ticks": 39592,
            "time": 194.07833433333337,
            "velocity": 0.09448818897637795
          },
          {
            "duration": 0.14705875000001356,
            "durationTicks": 30,
            "midi": 67,
            "name": "G4",
            "ticks": 39616,
            "time": 194.19598133333335,
            "velocity": 0.25984251968503935
          },
          {
            "duration": 0.14705875000001356,
            "durationTicks": 30,
            "midi": 66,
            "name": "F#4",
            "ticks": 39622,
            "time": 194.22539308333336,
            "velocity": 0.09448818897637795
          },
          {
            "duration": 0.14705874999998514,
            "durationTicks": 30,
            "midi": 66,
            "name": "F#4",
            "ticks": 39646,
            "time": 194.34304008333336,
            "velocity": 0.25984251968503935
          },
          {
            "duration": 0.14705874999998514,
            "durationTicks": 30,
            "midi": 67,
            "name": "G4",
            "ticks": 39652,
            "time": 194.37245183333337,
            "velocity": 0.09448818897637795
          },
          {
            "duration": 0.14705875000001356,
            "durationTicks": 30,
            "midi": 68,
            "name": "G#4",
            "ticks": 39682,
            "time": 194.51951058333336,
            "velocity": 0.09448818897637795
          },
          {
            "duration": 0.14705874999998514,
            "durationTicks": 30,
            "midi": 69,
            "name": "A4",
            "ticks": 39712,
            "time": 194.66656933333337,
            "velocity": 0.09448818897637795
          },
          {
            "duration": 0.14705875000001356,
            "durationTicks": 30,
            "midi": 68,
            "name": "G#4",
            "ticks": 39742,
            "time": 194.81362808333336,
            "velocity": 0.09448818897637795
          },
          {
            "duration": 0.14705875000001356,
            "durationTicks": 30,
            "midi": 65,
            "name": "F4",
            "ticks": 39752,
            "time": 194.86264766666667,
            "velocity": 0.023622047244094488
          },
          {
            "duration": 0.14705874999998514,
            "durationTicks": 30,
            "midi": 67,
            "name": "G4",
            "ticks": 39772,
            "time": 194.96068683333337,
            "velocity": 0.09448818897637795
          },
          {
            "duration": 0.14705874999998514,
            "durationTicks": 30,
            "midi": 66,
            "name": "F#4",
            "ticks": 39782,
            "time": 195.0097064166667,
            "velocity": 0.023622047244094488
          },
          {
            "duration": 0.14705875000001356,
            "durationTicks": 30,
            "midi": 66,
            "name": "F#4",
            "ticks": 39802,
            "time": 195.10774558333335,
            "velocity": 0.09448818897637795
          },
          {
            "duration": 0.14705875000001356,
            "durationTicks": 30,
            "midi": 67,
            "name": "G4",
            "ticks": 39812,
            "time": 195.15676516666667,
            "velocity": 0.023622047244094488
          },
          {
            "duration": 0.14705874999998514,
            "durationTicks": 30,
            "midi": 68,
            "name": "G#4",
            "ticks": 39842,
            "time": 195.3038239166667,
            "velocity": 0.023622047244094488
          },
          {
            "duration": 0.14705875000001356,
            "durationTicks": 30,
            "midi": 69,
            "name": "A4",
            "ticks": 39872,
            "time": 195.45088266666667,
            "velocity": 0.023622047244094488
          },
          {
            "duration": 0.14705875000001356,
            "durationTicks": 30,
            "midi": 68,
            "name": "G#4",
            "ticks": 39902,
            "time": 195.59794141666669,
            "velocity": 0.023622047244094488
          },
          {
            "duration": 0.14705874999998514,
            "durationTicks": 30,
            "midi": 67,
            "name": "G4",
            "ticks": 39932,
            "time": 195.7450001666667,
            "velocity": 0.023622047244094488
          },
          {
            "duration": 0.14705875000001356,
            "durationTicks": 30,
            "midi": 66,
            "name": "F#4",
            "ticks": 39962,
            "time": 195.89205891666668,
            "velocity": 0.023622047244094488
          }
        ]
      },
      {
        "channel": 0,
        "controlChanges": {
          "0": [
            {
              "number": 0,
              "ticks": 140,
              "time": 0.6862741666666667,
              "value": 0
            }
          ],
          "32": [
            {
              "number": 32,
              "ticks": 141,
              "time": 0.6911761250000001,
              "value": 0.8818897637795275
            }
          ]
        },
        "pitchBends": [],
        "instrument": {
          "family": "piano",
          "number": 0,
          "name": "acoustic grand piano"
        },
        "name": "",
        "notes": []
      },
      {
        "channel": 4,
        "controlChanges": {
          "7": [
            {
              "number": 7,
              "ticks": 143,
              "time": 0.7009800416666667,
              "value": 0.905511811023622
            }
          ],
          "91": [
            {
              "number": 91,
              "ticks": 198,
              "time": 0.9705877500000001,
              "value": 0.15748031496062992
            }
          ]
        },
        "pitchBends": [],
        "instrument": {
          "family": "reed",
          "number": 65,
          "name": "alto sax"
        },
        "name": "",
        "notes": [
          {
            "duration": 0.14705875000001356,
            "durationTicks": 30,
            "midi": 70,
            "name": "A#4",
            "ticks": 31227,
            "time": 153.07345287500002,
            "velocity": 0.6535433070866141
          },
          {
            "duration": 0.09803916666666623,
            "durationTicks": 20,
            "midi": 70,
            "name": "A#4",
            "ticks": 31290,
            "time": 153.38227625000002,
            "velocity": 0.6535433070866141
          },
          {
            "duration": 0.7254898333333699,
            "durationTicks": 148,
            "midi": 77,
            "name": "F5",
            "ticks": 31324,
            "time": 153.54894283333334,
            "velocity": 0.6535433070866141
          },
          {
            "duration": 0.07352937499999257,
            "durationTicks": 15,
            "midi": 75,
            "name": "D#5",
            "ticks": 31437,
            "time": 154.10286412500002,
            "velocity": 0.6535433070866141
          },
          {
            "duration": 0.2450979166666798,
            "durationTicks": 50,
            "midi": 77,
            "name": "F5",
            "ticks": 31452,
            "time": 154.17639350000002,
            "velocity": 0.6299212598425197
          },
          {
            "duration": 0.07352937500002099,
            "durationTicks": 15,
            "midi": 75,
            "name": "D#5",
            "ticks": 31467,
            "time": 154.249922875,
            "velocity": 0.6062992125984252
          },
          {
            "duration": 0.2450979166666798,
            "durationTicks": 50,
            "midi": 77,
            "name": "F5",
            "ticks": 31482,
            "time": 154.32345225000003,
            "velocity": 0.5905511811023622
          },
          {
            "duration": 0.07352937499999257,
            "durationTicks": 15,
            "midi": 75,
            "name": "D#5",
            "ticks": 31497,
            "time": 154.39698162500002,
            "velocity": 0.5669291338582677
          },
          {
            "duration": 0.2450979166666798,
            "durationTicks": 50,
            "midi": 77,
            "name": "F5",
            "ticks": 31512,
            "time": 154.47051100000002,
            "velocity": 0.5433070866141733
          },
          {
            "duration": 0.07352937500002099,
            "durationTicks": 15,
            "midi": 75,
            "name": "D#5",
            "ticks": 31527,
            "time": 154.544040375,
            "velocity": 0.5196850393700787
          },
          {
            "duration": 0.2205881249999777,
            "durationTicks": 45,
            "midi": 77,
            "name": "F5",
            "ticks": 31542,
            "time": 154.61756975000003,
            "velocity": 0.49606299212598426
          },
          {
            "duration": 0.07352937499999257,
            "durationTicks": 15,
            "midi": 75,
            "name": "D#5",
            "ticks": 31557,
            "time": 154.69109912500002,
            "velocity": 0.4566929133858268
          },
          {
            "duration": 0.22058812500000613,
            "durationTicks": 45,
            "midi": 77,
            "name": "F5",
            "ticks": 31572,
            "time": 154.76462850000001,
            "velocity": 0.41732283464566927
          },
          {
            "duration": 0.07352937500002099,
            "durationTicks": 15,
            "midi": 75,
            "name": "D#5",
            "ticks": 31587,
            "time": 154.838157875,
            "velocity": 0.33858267716535434
          },
          {
            "duration": 0.22058812500000613,
            "durationTicks": 45,
            "midi": 77,
            "name": "F5",
            "ticks": 31602,
            "time": 154.91168725000003,
            "velocity": 0.2755905511811024
          },
          {
            "duration": 0.07352937499999257,
            "durationTicks": 15,
            "midi": 75,
            "name": "D#5",
            "ticks": 31617,
            "time": 154.98521662500002,
            "velocity": 0.23622047244094488
          },
          {
            "duration": 0.22058812500000613,
            "durationTicks": 45,
            "midi": 77,
            "name": "F5",
            "ticks": 31632,
            "time": 155.058746,
            "velocity": 0.18110236220472442
          },
          {
            "duration": 0.07352937499999257,
            "durationTicks": 15,
            "midi": 75,
            "name": "D#5",
            "ticks": 31647,
            "time": 155.13227537500003,
            "velocity": 0.14173228346456693
          },
          {
            "duration": 0.1078430833333357,
            "durationTicks": 22,
            "midi": 77,
            "name": "F5",
            "ticks": 31662,
            "time": 155.20580475000003,
            "velocity": 0.06299212598425197
          },
          {
            "duration": 0.14705875000001356,
            "durationTicks": 30,
            "midi": 70,
            "name": "A#4",
            "ticks": 31707,
            "time": 155.42639287500003,
            "velocity": 0.6535433070866141
          },
          {
            "duration": 0.11274504166664201,
            "durationTicks": 23,
            "midi": 70,
            "name": "A#4",
            "ticks": 31770,
            "time": 155.73521625000004,
            "velocity": 0.6535433070866141
          },
          {
            "duration": 1.8529402500000174,
            "durationTicks": 378,
            "midi": 78,
            "name": "F#5",
            "ticks": 31801,
            "time": 155.88717695833336,
            "velocity": 0.6535433070866141
          },
          {
            "duration": 0.14705874999998514,
            "durationTicks": 30,
            "midi": 70,
            "name": "A#4",
            "ticks": 32187,
            "time": 157.77933287500005,
            "velocity": 0.6535433070866141
          },
          {
            "duration": 0.15196070833331987,
            "durationTicks": 31,
            "midi": 70,
            "name": "A#4",
            "ticks": 32250,
            "time": 158.08815625000003,
            "velocity": 0.6535433070866141
          },
          {
            "duration": 0.14705875000001356,
            "durationTicks": 30,
            "midi": 82,
            "name": "A#5",
            "ticks": 32281,
            "time": 158.24011695833335,
            "velocity": 0.6535433070866141
          },
          {
            "duration": 0.4656860416666575,
            "durationTicks": 95,
            "midi": 77,
            "name": "F5",
            "ticks": 32337,
            "time": 158.51462662500003,
            "velocity": 0.6535433070866141
          },
          {
            "duration": 0.07352937499999257,
            "durationTicks": 15,
            "midi": 75,
            "name": "D#5",
            "ticks": 32397,
            "time": 158.80874412500003,
            "velocity": 0.6535433070866141
          },
          {
            "duration": 0.24509791666665137,
            "durationTicks": 50,
            "midi": 77,
            "name": "F5",
            "ticks": 32412,
            "time": 158.88227350000003,
            "velocity": 0.6299212598425197
          },
          {
            "duration": 0.07352937499999257,
            "durationTicks": 15,
            "midi": 75,
            "name": "D#5",
            "ticks": 32427,
            "time": 158.95580287500005,
            "velocity": 0.6062992125984252
          },
          {
            "duration": 0.24509791666665137,
            "durationTicks": 50,
            "midi": 77,
            "name": "F5",
            "ticks": 32442,
            "time": 159.02933225000004,
            "velocity": 0.5905511811023622
          },
          {
            "duration": 0.07352937499999257,
            "durationTicks": 15,
            "midi": 75,
            "name": "D#5",
            "ticks": 32457,
            "time": 159.10286162500003,
            "velocity": 0.5669291338582677
          },
          {
            "duration": 0.24509791666665137,
            "durationTicks": 50,
            "midi": 77,
            "name": "F5",
            "ticks": 32472,
            "time": 159.17639100000002,
            "velocity": 0.5433070866141733
          },
          {
            "duration": 0.07352937499999257,
            "durationTicks": 15,
            "midi": 75,
            "name": "D#5",
            "ticks": 32487,
            "time": 159.24992037500004,
            "velocity": 0.5196850393700787
          },
          {
            "duration": 0.22058812500000613,
            "durationTicks": 45,
            "midi": 77,
            "name": "F5",
            "ticks": 32502,
            "time": 159.32344975000004,
            "velocity": 0.49606299212598426
          },
          {
            "duration": 0.07352937500002099,
            "durationTicks": 15,
            "midi": 75,
            "name": "D#5",
            "ticks": 32517,
            "time": 159.39697912500003,
            "velocity": 0.4566929133858268
          },
          {
            "duration": 0.2205881249999777,
            "durationTicks": 45,
            "midi": 77,
            "name": "F5",
            "ticks": 32532,
            "time": 159.47050850000005,
            "velocity": 0.41732283464566927
          },
          {
            "duration": 0.07352937499999257,
            "durationTicks": 15,
            "midi": 75,
            "name": "D#5",
            "ticks": 32547,
            "time": 159.54403787500004,
            "velocity": 0.33858267716535434
          },
          {
            "duration": 0.22058812500000613,
            "durationTicks": 45,
            "midi": 77,
            "name": "F5",
            "ticks": 32562,
            "time": 159.61756725000004,
            "velocity": 0.2755905511811024
          },
          {
            "duration": 0.07352937500002099,
            "durationTicks": 15,
            "midi": 75,
            "name": "D#5",
            "ticks": 32577,
            "time": 159.69109662500003,
            "velocity": 0.23622047244094488
          },
          {
            "duration": 0.2205881249999777,
            "durationTicks": 45,
            "midi": 77,
            "name": "F5",
            "ticks": 32592,
            "time": 159.76462600000005,
            "velocity": 0.18110236220472442
          },
          {
            "duration": 0.07352937499999257,
            "durationTicks": 15,
            "midi": 75,
            "name": "D#5",
            "ticks": 32607,
            "time": 159.83815537500004,
            "velocity": 0.14173228346456693
          },
          {
            "duration": 0.36764687499999127,
            "durationTicks": 75,
            "midi": 77,
            "name": "F5",
            "ticks": 32622,
            "time": 159.91168475000003,
            "velocity": 0.06299212598425197
          }
        ]
      },
      {
        "channel": 5,
        "controlChanges": {
          "0": [
            {
              "number": 0,
              "ticks": 145,
              "time": 0.7107839583333334,
              "value": 0
            }
          ],
          "7": [
            {
              "number": 7,
              "ticks": 148,
              "time": 0.7254898333333335,
              "value": 0.7086614173228346
            }
          ],
          "32": [
            {
              "number": 32,
              "ticks": 146,
              "time": 0.7156859166666667,
              "value": 0.8818897637795275
            }
          ]
        },
        "pitchBends": [],
        "instrument": {
          "family": "piano",
          "number": 0,
          "name": "acoustic grand piano"
        },
        "name": "",
        "notes": [
          {
            "duration": 0.14705874999998514,
            "durationTicks": 30,
            "midi": 61,
            "name": "C#4",
            "ticks": 24570,
            "time": 120.44111625000002,
            "velocity": 0.7874015748031497
          },
          {
            "duration": 0.14705874999998514,
            "durationTicks": 30,
            "midi": 53,
            "name": "F3",
            "ticks": 24570,
            "time": 120.44111625000002,
            "velocity": 0.7874015748031497
          },
          {
            "duration": 0.14705874999998514,
            "durationTicks": 30,
            "midi": 58,
            "name": "A#3",
            "ticks": 24570,
            "time": 120.44111625000002,
            "velocity": 0.7874015748031497
          },
          {
            "duration": 0.14705874999998514,
            "durationTicks": 30,
            "midi": 61,
            "name": "C#4",
            "ticks": 24630,
            "time": 120.73523375000002,
            "velocity": 0.7874015748031497
          },
          {
            "duration": 0.14705874999998514,
            "durationTicks": 30,
            "midi": 53,
            "name": "F3",
            "ticks": 24630,
            "time": 120.73523375000002,
            "velocity": 0.7874015748031497
          },
          {
            "duration": 0.14705874999998514,
            "durationTicks": 30,
            "midi": 58,
            "name": "A#3",
            "ticks": 24630,
            "time": 120.73523375000002,
            "velocity": 0.7874015748031497
          },
          {
            "duration": 0.14705875000001356,
            "durationTicks": 30,
            "midi": 61,
            "name": "C#4",
            "ticks": 24660,
            "time": 120.8822925,
            "velocity": 0.7874015748031497
          },
          {
            "duration": 0.14705875000001356,
            "durationTicks": 30,
            "midi": 53,
            "name": "F3",
            "ticks": 24660,
            "time": 120.8822925,
            "velocity": 0.7874015748031497
          },
          {
            "duration": 0.14705875000001356,
            "durationTicks": 30,
            "midi": 58,
            "name": "A#3",
            "ticks": 24660,
            "time": 120.8822925,
            "velocity": 0.7874015748031497
          },
          {
            "duration": 0.14705875000001356,
            "durationTicks": 30,
            "midi": 60,
            "name": "C4",
            "ticks": 24720,
            "time": 121.17641,
            "velocity": 0.7874015748031497
          },
          {
            "duration": 0.14705875000001356,
            "durationTicks": 30,
            "midi": 51,
            "name": "D#3",
            "ticks": 24720,
            "time": 121.17641,
            "velocity": 0.7874015748031497
          },
          {
            "duration": 0.14705875000001356,
            "durationTicks": 30,
            "midi": 56,
            "name": "G#3",
            "ticks": 24720,
            "time": 121.17641,
            "velocity": 0.7874015748031497
          },
          {
            "duration": 0.14705875000001356,
            "durationTicks": 30,
            "midi": 60,
            "name": "C4",
            "ticks": 24780,
            "time": 121.4705275,
            "velocity": 0.7874015748031497
          },
          {
            "duration": 0.14705875000001356,
            "durationTicks": 30,
            "midi": 51,
            "name": "D#3",
            "ticks": 24780,
            "time": 121.4705275,
            "velocity": 0.7874015748031497
          },
          {
            "duration": 0.14705875000001356,
            "durationTicks": 30,
            "midi": 56,
            "name": "G#3",
            "ticks": 24780,
            "time": 121.4705275,
            "velocity": 0.7874015748031497
          },
          {
            "duration": 0.14705874999998514,
            "durationTicks": 30,
            "midi": 56,
            "name": "G#3",
            "ticks": 24870,
            "time": 121.91170375000002,
            "velocity": 0.7874015748031497
          },
          {
            "duration": 0.14705874999998514,
            "durationTicks": 30,
            "midi": 53,
            "name": "F3",
            "ticks": 24870,
            "time": 121.91170375000002,
            "velocity": 0.7874015748031497
          },
          {
            "duration": 0.14705875000001356,
            "durationTicks": 30,
            "midi": 60,
            "name": "C4",
            "ticks": 24930,
            "time": 122.20582125000001,
            "velocity": 0.7874015748031497
          },
          {
            "duration": 0.14705875000001356,
            "durationTicks": 30,
            "midi": 51,
            "name": "D#3",
            "ticks": 24930,
            "time": 122.20582125000001,
            "velocity": 0.7874015748031497
          },
          {
            "duration": 0.14705875000001356,
            "durationTicks": 30,
            "midi": 56,
            "name": "G#3",
            "ticks": 24930,
            "time": 122.20582125000001,
            "velocity": 0.7874015748031497
          },
          {
            "duration": 0.14705875000001356,
            "durationTicks": 30,
            "midi": 60,
            "name": "C4",
            "ticks": 24990,
            "time": 122.49993875000001,
            "velocity": 0.7874015748031497
          },
          {
            "duration": 0.14705875000001356,
            "durationTicks": 30,
            "midi": 51,
            "name": "D#3",
            "ticks": 24990,
            "time": 122.49993875000001,
            "velocity": 0.7874015748031497
          },
          {
            "duration": 0.14705875000001356,
            "durationTicks": 30,
            "midi": 56,
            "name": "G#3",
            "ticks": 24990,
            "time": 122.49993875000001,
            "velocity": 0.7874015748031497
          },
          {
            "duration": 0.14705875000001356,
            "durationTicks": 30,
            "midi": 60,
            "name": "C4",
            "ticks": 25050,
            "time": 122.79405625000001,
            "velocity": 0.7874015748031497
          },
          {
            "duration": 0.14705875000001356,
            "durationTicks": 30,
            "midi": 51,
            "name": "D#3",
            "ticks": 25050,
            "time": 122.79405625000001,
            "velocity": 0.7874015748031497
          },
          {
            "duration": 0.14705875000001356,
            "durationTicks": 30,
            "midi": 56,
            "name": "G#3",
            "ticks": 25050,
            "time": 122.79405625000001,
            "velocity": 0.7874015748031497
          },
          {
            "duration": 0.14705875000001356,
            "durationTicks": 30,
            "midi": 60,
            "name": "C4",
            "ticks": 25110,
            "time": 123.08817375000001,
            "velocity": 0.7874015748031497
          },
          {
            "duration": 0.14705875000001356,
            "durationTicks": 30,
            "midi": 51,
            "name": "D#3",
            "ticks": 25110,
            "time": 123.08817375000001,
            "velocity": 0.7874015748031497
          },
          {
            "duration": 0.14705875000001356,
            "durationTicks": 30,
            "midi": 56,
            "name": "G#3",
            "ticks": 25110,
            "time": 123.08817375000001,
            "velocity": 0.7874015748031497
          },
          {
            "duration": 0.14705874999998514,
            "durationTicks": 30,
            "midi": 60,
            "name": "C4",
            "ticks": 25140,
            "time": 123.23523250000002,
            "velocity": 0.7874015748031497
          },
          {
            "duration": 0.14705874999998514,
            "durationTicks": 30,
            "midi": 51,
            "name": "D#3",
            "ticks": 25140,
            "time": 123.23523250000002,
            "velocity": 0.7874015748031497
          },
          {
            "duration": 0.14705874999998514,
            "durationTicks": 30,
            "midi": 56,
            "name": "G#3",
            "ticks": 25140,
            "time": 123.23523250000002,
            "velocity": 0.7874015748031497
          },
          {
            "duration": 0.14705874999998514,
            "durationTicks": 30,
            "midi": 58,
            "name": "A#3",
            "ticks": 25200,
            "time": 123.52935000000002,
            "velocity": 0.7874015748031497
          },
          {
            "duration": 0.14705874999998514,
            "durationTicks": 30,
            "midi": 49,
            "name": "C#3",
            "ticks": 25200,
            "time": 123.52935000000002,
            "velocity": 0.7874015748031497
          },
          {
            "duration": 0.14705874999998514,
            "durationTicks": 30,
            "midi": 53,
            "name": "F3",
            "ticks": 25200,
            "time": 123.52935000000002,
            "velocity": 0.7874015748031497
          },
          {
            "duration": 0.14705874999998514,
            "durationTicks": 30,
            "midi": 58,
            "name": "A#3",
            "ticks": 25260,
            "time": 123.82346750000002,
            "velocity": 0.7874015748031497
          },
          {
            "duration": 0.14705874999998514,
            "durationTicks": 30,
            "midi": 49,
            "name": "C#3",
            "ticks": 25260,
            "time": 123.82346750000002,
            "velocity": 0.7874015748031497
          },
          {
            "duration": 0.14705874999998514,
            "durationTicks": 30,
            "midi": 53,
            "name": "F3",
            "ticks": 25260,
            "time": 123.82346750000002,
            "velocity": 0.7874015748031497
          },
          {
            "duration": 0.14705875000001356,
            "durationTicks": 30,
            "midi": 58,
            "name": "A#3",
            "ticks": 25350,
            "time": 124.26464375,
            "velocity": 0.7874015748031497
          },
          {
            "duration": 0.14705875000001356,
            "durationTicks": 30,
            "midi": 49,
            "name": "C#3",
            "ticks": 25350,
            "time": 124.26464375,
            "velocity": 0.7874015748031497
          },
          {
            "duration": 0.14705875000001356,
            "durationTicks": 30,
            "midi": 53,
            "name": "F3",
            "ticks": 25350,
            "time": 124.26464375,
            "velocity": 0.7874015748031497
          },
          {
            "duration": 0.14705875000001356,
            "durationTicks": 30,
            "midi": 58,
            "name": "A#3",
            "ticks": 25410,
            "time": 124.55876125,
            "velocity": 0.7874015748031497
          },
          {
            "duration": 0.14705875000001356,
            "durationTicks": 30,
            "midi": 49,
            "name": "C#3",
            "ticks": 25410,
            "time": 124.55876125,
            "velocity": 0.7874015748031497
          },
          {
            "duration": 0.14705875000001356,
            "durationTicks": 30,
            "midi": 53,
            "name": "F3",
            "ticks": 25410,
            "time": 124.55876125,
            "velocity": 0.7874015748031497
          },
          {
            "duration": 0.14705875000001356,
            "durationTicks": 30,
            "midi": 53,
            "name": "F3",
            "ticks": 25470,
            "time": 124.85287875,
            "velocity": 0.7874015748031497
          },
          {
            "duration": 0.14705875000001356,
            "durationTicks": 30,
            "midi": 41,
            "name": "F2",
            "ticks": 25470,
            "time": 124.85287875,
            "velocity": 0.7874015748031497
          },
          {
            "duration": 0.14705875000001356,
            "durationTicks": 30,
            "midi": 49,
            "name": "C#3",
            "ticks": 25470,
            "time": 124.85287875,
            "velocity": 0.7874015748031497
          },
          {
            "duration": 0.14705875000001356,
            "durationTicks": 30,
            "midi": 61,
            "name": "C#4",
            "ticks": 25530,
            "time": 125.14699625,
            "velocity": 0.7874015748031497
          },
          {
            "duration": 0.14705875000001356,
            "durationTicks": 30,
            "midi": 53,
            "name": "F3",
            "ticks": 25530,
            "time": 125.14699625,
            "velocity": 0.7874015748031497
          },
          {
            "duration": 0.14705875000001356,
            "durationTicks": 30,
            "midi": 58,
            "name": "A#3",
            "ticks": 25530,
            "time": 125.14699625,
            "velocity": 0.7874015748031497
          },
          {
            "duration": 0.14705875000001356,
            "durationTicks": 30,
            "midi": 61,
            "name": "C#4",
            "ticks": 25590,
            "time": 125.44111375,
            "velocity": 0.7874015748031497
          },
          {
            "duration": 0.14705875000001356,
            "durationTicks": 30,
            "midi": 53,
            "name": "F3",
            "ticks": 25590,
            "time": 125.44111375,
            "velocity": 0.7874015748031497
          },
          {
            "duration": 0.14705875000001356,
            "durationTicks": 30,
            "midi": 58,
            "name": "A#3",
            "ticks": 25590,
            "time": 125.44111375,
            "velocity": 0.7874015748031497
          },
          {
            "duration": 0.14705875000001356,
            "durationTicks": 30,
            "midi": 61,
            "name": "C#4",
            "ticks": 25620,
            "time": 125.58817250000001,
            "velocity": 0.7874015748031497
          },
          {
            "duration": 0.14705875000001356,
            "durationTicks": 30,
            "midi": 53,
            "name": "F3",
            "ticks": 25620,
            "time": 125.58817250000001,
            "velocity": 0.7874015748031497
          },
          {
            "duration": 0.14705875000001356,
            "durationTicks": 30,
            "midi": 58,
            "name": "A#3",
            "ticks": 25620,
            "time": 125.58817250000001,
            "velocity": 0.7874015748031497
          },
          {
            "duration": 0.14705875000001356,
            "durationTicks": 30,
            "midi": 60,
            "name": "C4",
            "ticks": 25680,
            "time": 125.88229000000001,
            "velocity": 0.7874015748031497
          },
          {
            "duration": 0.14705875000001356,
            "durationTicks": 30,
            "midi": 51,
            "name": "D#3",
            "ticks": 25680,
            "time": 125.88229000000001,
            "velocity": 0.7874015748031497
          },
          {
            "duration": 0.14705875000001356,
            "durationTicks": 30,
            "midi": 56,
            "name": "G#3",
            "ticks": 25680,
            "time": 125.88229000000001,
            "velocity": 0.7874015748031497
          },
          {
            "duration": 0.14705875000001356,
            "durationTicks": 30,
            "midi": 60,
            "name": "C4",
            "ticks": 25740,
            "time": 126.17640750000001,
            "velocity": 0.7874015748031497
          },
          {
            "duration": 0.14705875000001356,
            "durationTicks": 30,
            "midi": 51,
            "name": "D#3",
            "ticks": 25740,
            "time": 126.17640750000001,
            "velocity": 0.7874015748031497
          },
          {
            "duration": 0.14705875000001356,
            "durationTicks": 30,
            "midi": 56,
            "name": "G#3",
            "ticks": 25740,
            "time": 126.17640750000001,
            "velocity": 0.7874015748031497
          },
          {
            "duration": 0.14705874999998514,
            "durationTicks": 30,
            "midi": 56,
            "name": "G#3",
            "ticks": 25830,
            "time": 126.61758375000002,
            "velocity": 0.7874015748031497
          },
          {
            "duration": 0.14705874999998514,
            "durationTicks": 30,
            "midi": 53,
            "name": "F3",
            "ticks": 25830,
            "time": 126.61758375000002,
            "velocity": 0.7874015748031497
          },
          {
            "duration": 0.14705874999998514,
            "durationTicks": 30,
            "midi": 60,
            "name": "C4",
            "ticks": 25890,
            "time": 126.91170125000002,
            "velocity": 0.7874015748031497
          },
          {
            "duration": 0.14705874999998514,
            "durationTicks": 30,
            "midi": 51,
            "name": "D#3",
            "ticks": 25890,
            "time": 126.91170125000002,
            "velocity": 0.7874015748031497
          },
          {
            "duration": 0.14705874999998514,
            "durationTicks": 30,
            "midi": 56,
            "name": "G#3",
            "ticks": 25890,
            "time": 126.91170125000002,
            "velocity": 0.7874015748031497
          },
          {
            "duration": 0.14705874999998514,
            "durationTicks": 30,
            "midi": 60,
            "name": "C4",
            "ticks": 25950,
            "time": 127.20581875000002,
            "velocity": 0.7874015748031497
          },
          {
            "duration": 0.14705874999998514,
            "durationTicks": 30,
            "midi": 51,
            "name": "D#3",
            "ticks": 25950,
            "time": 127.20581875000002,
            "velocity": 0.7874015748031497
          },
          {
            "duration": 0.14705874999998514,
            "durationTicks": 30,
            "midi": 56,
            "name": "G#3",
            "ticks": 25950,
            "time": 127.20581875000002,
            "velocity": 0.7874015748031497
          },
          {
            "duration": 0.14705874999998514,
            "durationTicks": 30,
            "midi": 60,
            "name": "C4",
            "ticks": 26010,
            "time": 127.49993625000002,
            "velocity": 0.7874015748031497
          },
          {
            "duration": 0.14705874999998514,
            "durationTicks": 30,
            "midi": 51,
            "name": "D#3",
            "ticks": 26010,
            "time": 127.49993625000002,
            "velocity": 0.7874015748031497
          },
          {
            "duration": 0.14705874999998514,
            "durationTicks": 30,
            "midi": 56,
            "name": "G#3",
            "ticks": 26010,
            "time": 127.49993625000002,
            "velocity": 0.7874015748031497
          },
          {
            "duration": 0.14705874999998514,
            "durationTicks": 30,
            "midi": 60,
            "name": "C4",
            "ticks": 26070,
            "time": 127.79405375000002,
            "velocity": 0.7874015748031497
          },
          {
            "duration": 0.14705874999998514,
            "durationTicks": 30,
            "midi": 51,
            "name": "D#3",
            "ticks": 26070,
            "time": 127.79405375000002,
            "velocity": 0.7874015748031497
          },
          {
            "duration": 0.14705874999998514,
            "durationTicks": 30,
            "midi": 56,
            "name": "G#3",
            "ticks": 26070,
            "time": 127.79405375000002,
            "velocity": 0.7874015748031497
          },
          {
            "duration": 0.14705875000001356,
            "durationTicks": 30,
            "midi": 60,
            "name": "C4",
            "ticks": 26100,
            "time": 127.9411125,
            "velocity": 0.7874015748031497
          },
          {
            "duration": 0.14705875000001356,
            "durationTicks": 30,
            "midi": 51,
            "name": "D#3",
            "ticks": 26100,
            "time": 127.9411125,
            "velocity": 0.7874015748031497
          },
          {
            "duration": 0.14705875000001356,
            "durationTicks": 30,
            "midi": 56,
            "name": "G#3",
            "ticks": 26100,
            "time": 127.9411125,
            "velocity": 0.7874015748031497
          },
          {
            "duration": 0.14705875000001356,
            "durationTicks": 30,
            "midi": 58,
            "name": "A#3",
            "ticks": 26160,
            "time": 128.23523,
            "velocity": 0.7874015748031497
          },
          {
            "duration": 0.14705875000001356,
            "durationTicks": 30,
            "midi": 49,
            "name": "C#3",
            "ticks": 26160,
            "time": 128.23523,
            "velocity": 0.7874015748031497
          },
          {
            "duration": 0.14705875000001356,
            "durationTicks": 30,
            "midi": 53,
            "name": "F3",
            "ticks": 26160,
            "time": 128.23523,
            "velocity": 0.7874015748031497
          },
          {
            "duration": 0.14705875000001356,
            "durationTicks": 30,
            "midi": 58,
            "name": "A#3",
            "ticks": 26220,
            "time": 128.5293475,
            "velocity": 0.7874015748031497
          },
          {
            "duration": 0.14705875000001356,
            "durationTicks": 30,
            "midi": 49,
            "name": "C#3",
            "ticks": 26220,
            "time": 128.5293475,
            "velocity": 0.7874015748031497
          },
          {
            "duration": 0.14705875000001356,
            "durationTicks": 30,
            "midi": 53,
            "name": "F3",
            "ticks": 26220,
            "time": 128.5293475,
            "velocity": 0.7874015748031497
          },
          {
            "duration": 0.14705875000001356,
            "durationTicks": 30,
            "midi": 58,
            "name": "A#3",
            "ticks": 26310,
            "time": 128.97052375,
            "velocity": 0.7874015748031497
          },
          {
            "duration": 0.14705875000001356,
            "durationTicks": 30,
            "midi": 49,
            "name": "C#3",
            "ticks": 26310,
            "time": 128.97052375,
            "velocity": 0.7874015748031497
          },
          {
            "duration": 0.14705875000001356,
            "durationTicks": 30,
            "midi": 53,
            "name": "F3",
            "ticks": 26310,
            "time": 128.97052375,
            "velocity": 0.7874015748031497
          },
          {
            "duration": 0.14705875000001356,
            "durationTicks": 30,
            "midi": 58,
            "name": "A#3",
            "ticks": 26370,
            "time": 129.26464125,
            "velocity": 0.7874015748031497
          },
          {
            "duration": 0.14705875000001356,
            "durationTicks": 30,
            "midi": 49,
            "name": "C#3",
            "ticks": 26370,
            "time": 129.26464125,
            "velocity": 0.7874015748031497
          },
          {
            "duration": 0.14705875000001356,
            "durationTicks": 30,
            "midi": 53,
            "name": "F3",
            "ticks": 26370,
            "time": 129.26464125,
            "velocity": 0.7874015748031497
          }
        ]
      },
      {
        "channel": 0,
        "controlChanges": {
          "0": [
            {
              "number": 0,
              "ticks": 150,
              "time": 0.7352937500000001,
              "value": 0
            }
          ],
          "32": [
            {
              "number": 32,
              "ticks": 151,
              "time": 0.7401957083333334,
              "value": 0.8818897637795275
            }
          ]
        },
        "pitchBends": [],
        "instrument": {
          "family": "piano",
          "number": 0,
          "name": "acoustic grand piano"
        },
        "name": "",
        "notes": []
      },
      {
        "channel": 6,
        "controlChanges": {
          "7": [
            {
              "number": 7,
              "ticks": 153,
              "time": 0.7499996250000001,
              "value": 0.7086614173228346
            }
          ],
          "91": [
            {
              "number": 91,
              "ticks": 199,
              "time": 0.9754897083333335,
              "value": 0.23622047244094488
            }
          ],
          "93": [
            {
              "number": 93,
              "ticks": 199,
              "time": 0.9754897083333335,
              "value": 0.31496062992125984
            }
          ]
        },
        "pitchBends": [],
        "instrument": {
          "family": "guitar",
          "number": 26,
          "name": "electric guitar (jazz)"
        },
        "name": "",
        "notes": [
          {
            "duration": 0.97058775,
            "durationTicks": 198,
            "midi": 61,
            "name": "C#4",
            "ticks": 3349,
            "time": 16.416658458333337,
            "velocity": 0.6535433070866141
          },
          {
            "duration": 0.9313720833333328,
            "durationTicks": 190,
            "midi": 65,
            "name": "F4",
            "ticks": 3358,
            "time": 16.460776083333336,
            "velocity": 0.6535433070866141
          },
          {
            "duration": 0.9117642500000009,
            "durationTicks": 186,
            "midi": 70,
            "name": "A#4",
            "ticks": 3370,
            "time": 16.519599583333335,
            "velocity": 0.6535433070866141
          },
          {
            "duration": 0.8872544583333308,
            "durationTicks": 181,
            "midi": 73,
            "name": "C#5",
            "ticks": 3384,
            "time": 16.588227000000003,
            "velocity": 0.6535433070866141
          },
          {
            "duration": 1.0196073333333295,
            "durationTicks": 208,
            "midi": 61,
            "name": "C#4",
            "ticks": 3574,
            "time": 17.519599083333336,
            "velocity": 0.6535433070866141
          },
          {
            "duration": 0.9558818750000029,
            "durationTicks": 195,
            "midi": 66,
            "name": "F#4",
            "ticks": 3585,
            "time": 17.573520625,
            "velocity": 0.6535433070866141
          },
          {
            "duration": 0.843136833333336,
            "durationTicks": 172,
            "midi": 70,
            "name": "A#4",
            "ticks": 3605,
            "time": 17.671559791666667,
            "velocity": 0.6535433070866141
          },
          {
            "duration": 0.7794113750000022,
            "durationTicks": 159,
            "midi": 73,
            "name": "C#5",
            "ticks": 3615,
            "time": 17.720579375,
            "velocity": 0.6535433070866141
          },
          {
            "duration": 1.0784308333333286,
            "durationTicks": 220,
            "midi": 60,
            "name": "C4",
            "ticks": 3811,
            "time": 18.681363208333337,
            "velocity": 0.6535433070866141
          },
          {
            "duration": 1.0098034166666672,
            "durationTicks": 206,
            "midi": 63,
            "name": "D#4",
            "ticks": 3829,
            "time": 18.769598458333334,
            "velocity": 0.6535433070866141
          },
          {
            "duration": 1.0490190833333308,
            "durationTicks": 214,
            "midi": 68,
            "name": "G#4",
            "ticks": 3837,
            "time": 18.808814125000005,
            "velocity": 0.6535433070866141
          },
          {
            "duration": 0.9558818749999958,
            "durationTicks": 195,
            "midi": 72,
            "name": "C5",
            "ticks": 3852,
            "time": 18.882343500000005,
            "velocity": 0.6535433070866141
          },
          {
            "duration": 1.019607333333333,
            "durationTicks": 208,
            "midi": 60,
            "name": "C4",
            "ticks": 4056,
            "time": 19.882343000000002,
            "velocity": 0.6535433070866141
          },
          {
            "duration": 0.9999995000000013,
            "durationTicks": 204,
            "midi": 65,
            "name": "F4",
            "ticks": 4067,
            "time": 19.936264541666667,
            "velocity": 0.6535433070866141
          },
          {
            "duration": 0.9460779583333334,
            "durationTicks": 193,
            "midi": 68,
            "name": "G#4",
            "ticks": 4081,
            "time": 20.004891958333335,
            "velocity": 0.6535433070866141
          },
          {
            "duration": 0.9607838333333341,
            "durationTicks": 196,
            "midi": 72,
            "name": "C5",
            "ticks": 4087,
            "time": 20.034303708333336,
            "velocity": 0.6535433070866141
          },
          {
            "duration": 0.9950975416666665,
            "durationTicks": 203,
            "midi": 61,
            "name": "C#4",
            "ticks": 4296,
            "time": 21.058813000000004,
            "velocity": 0.6535433070866141
          },
          {
            "duration": 0.8872544583333308,
            "durationTicks": 181,
            "midi": 66,
            "name": "F#4",
            "ticks": 4311,
            "time": 21.132342375000004,
            "velocity": 0.6535433070866141
          },
          {
            "duration": 0.9117642499999974,
            "durationTicks": 186,
            "midi": 70,
            "name": "A#4",
            "ticks": 4321,
            "time": 21.181361958333337,
            "velocity": 0.6535433070866141
          },
          {
            "duration": 1.0147053749999984,
            "durationTicks": 207,
            "midi": 60,
            "name": "C4",
            "ticks": 4527,
            "time": 22.191165375000004,
            "velocity": 0.6535433070866141
          },
          {
            "duration": 0.9803916666666659,
            "durationTicks": 200,
            "midi": 63,
            "name": "D#4",
            "ticks": 4539,
            "time": 22.249988875000003,
            "velocity": 0.6535433070866141
          },
          {
            "duration": 0.9607838333333305,
            "durationTicks": 196,
            "midi": 68,
            "name": "G#4",
            "ticks": 4554,
            "time": 22.323518250000003,
            "velocity": 0.6535433070866141
          },
          {
            "duration": 0.9117642500000009,
            "durationTicks": 186,
            "midi": 72,
            "name": "C5",
            "ticks": 4567,
            "time": 22.387243708333337,
            "velocity": 0.6535433070866141
          },
          {
            "duration": 2.215685166666667,
            "durationTicks": 452,
            "midi": 61,
            "name": "C#4",
            "ticks": 4767,
            "time": 23.367635375000003,
            "velocity": 0.6535433070866141
          },
          {
            "duration": 2.156861666666668,
            "durationTicks": 440,
            "midi": 65,
            "name": "F4",
            "ticks": 4776,
            "time": 23.411753000000004,
            "velocity": 0.6535433070866141
          },
          {
            "duration": 2.0784303333333334,
            "durationTicks": 424,
            "midi": 70,
            "name": "A#4",
            "ticks": 4795,
            "time": 23.504890208333336,
            "velocity": 0.6535433070866141
          },
          {
            "duration": 2.034312708333335,
            "durationTicks": 415,
            "midi": 73,
            "name": "C#5",
            "ticks": 4807,
            "time": 23.563713708333335,
            "velocity": 0.6535433070866141
          },
          {
            "duration": 1.0098034166666707,
            "durationTicks": 206,
            "midi": 61,
            "name": "C#4",
            "ticks": 5255,
            "time": 25.759791041666666,
            "velocity": 0.6535433070866141
          },
          {
            "duration": 0.9264701250000016,
            "durationTicks": 189,
            "midi": 65,
            "name": "F4",
            "ticks": 5267,
            "time": 25.81861454166667,
            "velocity": 0.6535433070866141
          },
          {
            "duration": 0.8578427083333366,
            "durationTicks": 175,
            "midi": 70,
            "name": "A#4",
            "ticks": 5279,
            "time": 25.877438041666668,
            "velocity": 0.6535433070866141
          },
          {
            "duration": 0.8039211666666688,
            "durationTicks": 164,
            "midi": 73,
            "name": "C#5",
            "ticks": 5290,
            "time": 25.931359583333336,
            "velocity": 0.6535433070866141
          },
          {
            "duration": 0.9313720833333363,
            "durationTicks": 190,
            "midi": 58,
            "name": "A#3",
            "ticks": 5494,
            "time": 26.931359083333334,
            "velocity": 0.6535433070866141
          },
          {
            "duration": 0.8725485833333337,
            "durationTicks": 178,
            "midi": 61,
            "name": "C#4",
            "ticks": 5509,
            "time": 27.004888458333337,
            "velocity": 0.6535433070866141
          },
          {
            "duration": 0.8333329166666665,
            "durationTicks": 170,
            "midi": 66,
            "name": "F#4",
            "ticks": 5524,
            "time": 27.078417833333337,
            "velocity": 0.6535433070866141
          },
          {
            "duration": 0.8039211666666688,
            "durationTicks": 164,
            "midi": 70,
            "name": "A#4",
            "ticks": 5531,
            "time": 27.11273154166667,
            "velocity": 0.6535433070866141
          },
          {
            "duration": 1.1176464999999993,
            "durationTicks": 228,
            "midi": 60,
            "name": "C4",
            "ticks": 5726,
            "time": 28.068613416666672,
            "velocity": 0.6535433070866141
          },
          {
            "duration": 1.0980386666666675,
            "durationTicks": 224,
            "midi": 63,
            "name": "D#4",
            "ticks": 5741,
            "time": 28.14214279166667,
            "velocity": 0.6535433070866141
          },
          {
            "duration": 1.1078425833333334,
            "durationTicks": 226,
            "midi": 68,
            "name": "G#4",
            "ticks": 5754,
            "time": 28.205868250000005,
            "velocity": 0.6535433070866141
          },
          {
            "duration": 1.0784308333333357,
            "durationTicks": 220,
            "midi": 72,
            "name": "C5",
            "ticks": 5766,
            "time": 28.26469175,
            "velocity": 0.6535433070866141
          },
          {
            "duration": 1.0539210416666656,
            "durationTicks": 215,
            "midi": 60,
            "name": "C4",
            "ticks": 5979,
            "time": 29.308808875000004,
            "velocity": 0.6535433070866141
          },
          {
            "duration": 0.9950975416666701,
            "durationTicks": 203,
            "midi": 65,
            "name": "F4",
            "ticks": 5990,
            "time": 29.36273041666667,
            "velocity": 0.6535433070866141
          },
          {
            "duration": 0.9264701250000016,
            "durationTicks": 189,
            "midi": 68,
            "name": "G#4",
            "ticks": 6004,
            "time": 29.431357833333337,
            "velocity": 0.6535433070866141
          },
          {
            "duration": 0.8725485833333302,
            "durationTicks": 178,
            "midi": 72,
            "name": "C5",
            "ticks": 6009,
            "time": 29.455867625000003,
            "velocity": 0.6535433070866141
          },
          {
            "duration": 0.9558818749999993,
            "durationTicks": 195,
            "midi": 58,
            "name": "A#3",
            "ticks": 6220,
            "time": 30.490180833333337,
            "velocity": 0.6535433070866141
          },
          {
            "duration": 0.9754897083333347,
            "durationTicks": 199,
            "midi": 61,
            "name": "C#4",
            "ticks": 6230,
            "time": 30.53920041666667,
            "velocity": 0.6535433070866141
          },
          {
            "duration": 0.9460779583333334,
            "durationTicks": 193,
            "midi": 66,
            "name": "F#4",
            "ticks": 6245,
            "time": 30.61272979166667,
            "velocity": 0.6535433070866141
          },
          {
            "duration": 0.9117642499999974,
            "durationTicks": 186,
            "midi": 70,
            "name": "A#4",
            "ticks": 6255,
            "time": 30.661749375000003,
            "velocity": 0.6535433070866141
          },
          {
            "duration": 1.0245092916666714,
            "durationTicks": 209,
            "midi": 60,
            "name": "C4",
            "ticks": 6449,
            "time": 31.61272929166667,
            "velocity": 0.6535433070866141
          },
          {
            "duration": 1.0049014583333324,
            "durationTicks": 205,
            "midi": 63,
            "name": "D#4",
            "ticks": 6460,
            "time": 31.66665083333334,
            "velocity": 0.6535433070866141
          },
          {
            "duration": 0.9852936250000006,
            "durationTicks": 201,
            "midi": 68,
            "name": "G#4",
            "ticks": 6474,
            "time": 31.735278250000004,
            "velocity": 0.6535433070866141
          },
          {
            "duration": 0.9852936250000042,
            "durationTicks": 201,
            "midi": 72,
            "name": "C5",
            "ticks": 6485,
            "time": 31.789199791666668,
            "velocity": 0.6535433070866141
          },
          {
            "duration": 2.2549008333333305,
            "durationTicks": 460,
            "midi": 61,
            "name": "C#4",
            "ticks": 6696,
            "time": 32.823513000000005,
            "velocity": 0.6535433070866141
          },
          {
            "duration": 2.1715675416666684,
            "durationTicks": 443,
            "midi": 65,
            "name": "F4",
            "ticks": 6710,
            "time": 32.89214041666667,
            "velocity": 0.6535433070866141
          },
          {
            "duration": 2.1225479583333353,
            "durationTicks": 433,
            "midi": 70,
            "name": "A#4",
            "ticks": 6719,
            "time": 32.93625804166667,
            "velocity": 0.6535433070866141
          },
          {
            "duration": 2.073528374999995,
            "durationTicks": 423,
            "midi": 73,
            "name": "C#5",
            "ticks": 6729,
            "time": 32.98527762500001,
            "velocity": 0.6535433070866141
          },
          {
            "duration": 0.3431370833333318,
            "durationTicks": 70,
            "midi": 65,
            "name": "F4",
            "ticks": 9121,
            "time": 44.71076195833334,
            "velocity": 0.6535433070866141
          },
          {
            "duration": 0.3431370833333318,
            "durationTicks": 70,
            "midi": 58,
            "name": "A#3",
            "ticks": 9121,
            "time": 44.71076195833334,
            "velocity": 0.6535433070866141
          },
          {
            "duration": 0.33333316666666235,
            "durationTicks": 68,
            "midi": 61,
            "name": "C#4",
            "ticks": 9121,
            "time": 44.71076195833334,
            "velocity": 0.6535433070866141
          },
          {
            "duration": 0.12745091666666752,
            "durationTicks": 26,
            "midi": 58,
            "name": "A#3",
            "ticks": 9207,
            "time": 45.132330375,
            "velocity": 0.6535433070866141
          },
          {
            "duration": 0.11764699999999806,
            "durationTicks": 24,
            "midi": 65,
            "name": "F4",
            "ticks": 9207,
            "time": 45.132330375,
            "velocity": 0.6535433070866141
          },
          {
            "duration": 0.11274504166667043,
            "durationTicks": 23,
            "midi": 61,
            "name": "C#4",
            "ticks": 9207,
            "time": 45.132330375,
            "velocity": 0.6535433070866141
          },
          {
            "duration": 0.36274491666667075,
            "durationTicks": 74,
            "midi": 65,
            "name": "F4",
            "ticks": 9595,
            "time": 47.03429020833334,
            "velocity": 0.6535433070866141
          },
          {
            "duration": 0.357842958333336,
            "durationTicks": 73,
            "midi": 58,
            "name": "A#3",
            "ticks": 9596,
            "time": 47.03919216666667,
            "velocity": 0.6535433070866141
          },
          {
            "duration": 0.357842958333336,
            "durationTicks": 73,
            "midi": 61,
            "name": "C#4",
            "ticks": 9596,
            "time": 47.03919216666667,
            "velocity": 0.6535433070866141
          },
          {
            "duration": 0.12254895833332569,
            "durationTicks": 25,
            "midi": 58,
            "name": "A#3",
            "ticks": 9684,
            "time": 47.47056450000001,
            "velocity": 0.6535433070866141
          },
          {
            "duration": 0.12745091666666752,
            "durationTicks": 26,
            "midi": 65,
            "name": "F4",
            "ticks": 9684,
            "time": 47.47056450000001,
            "velocity": 0.6535433070866141
          },
          {
            "duration": 0.12254895833332569,
            "durationTicks": 25,
            "midi": 61,
            "name": "C#4",
            "ticks": 9684,
            "time": 47.47056450000001,
            "velocity": 0.6535433070866141
          },
          {
            "duration": 0.3823527500000026,
            "durationTicks": 78,
            "midi": 65,
            "name": "F4",
            "ticks": 10075,
            "time": 49.387230208333335,
            "velocity": 0.6535433070866141
          },
          {
            "duration": 0.3872547083333302,
            "durationTicks": 79,
            "midi": 61,
            "name": "C#4",
            "ticks": 10075,
            "time": 49.387230208333335,
            "velocity": 0.6535433070866141
          },
          {
            "duration": 0.3872547083333302,
            "durationTicks": 79,
            "midi": 58,
            "name": "A#3",
            "ticks": 10075,
            "time": 49.387230208333335,
            "velocity": 0.6535433070866141
          },
          {
            "duration": 0.19117637499999773,
            "durationTicks": 39,
            "midi": 65,
            "name": "F4",
            "ticks": 10174,
            "time": 49.87252408333334,
            "velocity": 0.6535433070866141
          },
          {
            "duration": 0.186274416666663,
            "durationTicks": 38,
            "midi": 61,
            "name": "C#4",
            "ticks": 10174,
            "time": 49.87252408333334,
            "velocity": 0.6535433070866141
          },
          {
            "duration": 0.171568541666673,
            "durationTicks": 35,
            "midi": 58,
            "name": "A#3",
            "ticks": 10176,
            "time": 49.882328,
            "velocity": 0.6535433070866141
          },
          {
            "duration": 0.3872547083333373,
            "durationTicks": 79,
            "midi": 58,
            "name": "A#3",
            "ticks": 10554,
            "time": 51.735268250000004,
            "velocity": 0.6535433070866141
          },
          {
            "duration": 0.39215666666666493,
            "durationTicks": 80,
            "midi": 65,
            "name": "F4",
            "ticks": 10554,
            "time": 51.735268250000004,
            "velocity": 0.6535433070866141
          },
          {
            "duration": 0.3872547083333373,
            "durationTicks": 79,
            "midi": 61,
            "name": "C#4",
            "ticks": 10554,
            "time": 51.735268250000004,
            "velocity": 0.6535433070866141
          },
          {
            "duration": 0.11764699999999806,
            "durationTicks": 24,
            "midi": 61,
            "name": "C#4",
            "ticks": 10645,
            "time": 52.18134645833334,
            "velocity": 0.6535433070866141
          },
          {
            "duration": 0.11764700000000516,
            "durationTicks": 24,
            "midi": 58,
            "name": "A#3",
            "ticks": 10646,
            "time": 52.18624841666667,
            "velocity": 0.6535433070866141
          },
          {
            "duration": 0.12254895833333279,
            "durationTicks": 25,
            "midi": 65,
            "name": "F4",
            "ticks": 10646,
            "time": 52.18624841666667,
            "velocity": 0.6535433070866141
          },
          {
            "duration": 0.3921566666666578,
            "durationTicks": 80,
            "midi": 65,
            "name": "F4",
            "ticks": 11034,
            "time": 54.08820825000001,
            "velocity": 0.6535433070866141
          },
          {
            "duration": 0.3872547083333302,
            "durationTicks": 79,
            "midi": 61,
            "name": "C#4",
            "ticks": 11034,
            "time": 54.08820825000001,
            "velocity": 0.6535433070866141
          },
          {
            "duration": 0.3872547083333302,
            "durationTicks": 79,
            "midi": 58,
            "name": "A#3",
            "ticks": 11034,
            "time": 54.08820825000001,
            "velocity": 0.6535433070866141
          },
          {
            "duration": 0.11764699999999806,
            "durationTicks": 24,
            "midi": 65,
            "name": "F4",
            "ticks": 11130,
            "time": 54.55879625000001,
            "velocity": 0.6535433070866141
          },
          {
            "duration": 0.0931372083333315,
            "durationTicks": 19,
            "midi": 61,
            "name": "C#4",
            "ticks": 11132,
            "time": 54.56860016666667,
            "velocity": 0.6535433070866141
          },
          {
            "duration": 0.0931372083333315,
            "durationTicks": 19,
            "midi": 58,
            "name": "A#3",
            "ticks": 11132,
            "time": 54.56860016666667,
            "velocity": 0.6535433070866141
          },
          {
            "duration": 0.3872547083333302,
            "durationTicks": 79,
            "midi": 65,
            "name": "F4",
            "ticks": 11515,
            "time": 56.44605020833334,
            "velocity": 0.6535433070866141
          },
          {
            "duration": 0.3823527500000026,
            "durationTicks": 78,
            "midi": 61,
            "name": "C#4",
            "ticks": 11515,
            "time": 56.44605020833334,
            "velocity": 0.6535433070866141
          },
          {
            "duration": 0.3823527500000026,
            "durationTicks": 78,
            "midi": 58,
            "name": "A#3",
            "ticks": 11515,
            "time": 56.44605020833334,
            "velocity": 0.6535433070866141
          },
          {
            "duration": 0.11764699999999806,
            "durationTicks": 24,
            "midi": 65,
            "name": "F4",
            "ticks": 11609,
            "time": 56.90683429166667,
            "velocity": 0.6535433070866141
          },
          {
            "duration": 0.0931372083333386,
            "durationTicks": 19,
            "midi": 61,
            "name": "C#4",
            "ticks": 11609,
            "time": 56.90683429166667,
            "velocity": 0.6535433070866141
          },
          {
            "duration": 0.0931372083333386,
            "durationTicks": 19,
            "midi": 58,
            "name": "A#3",
            "ticks": 11609,
            "time": 56.90683429166667,
            "velocity": 0.6535433070866141
          },
          {
            "duration": 0.357842958333336,
            "durationTicks": 73,
            "midi": 65,
            "name": "F4",
            "ticks": 11994,
            "time": 58.79408825000001,
            "velocity": 0.6535433070866141
          },
          {
            "duration": 0.357842958333336,
            "durationTicks": 73,
            "midi": 61,
            "name": "C#4",
            "ticks": 11994,
            "time": 58.79408825000001,
            "velocity": 0.6535433070866141
          },
          {
            "duration": 0.34803904166666655,
            "durationTicks": 71,
            "midi": 58,
            "name": "A#3",
            "ticks": 11994,
            "time": 58.79408825000001,
            "velocity": 0.6535433070866141
          },
          {
            "duration": 0.1421567916666575,
            "durationTicks": 29,
            "midi": 65,
            "name": "F4",
            "ticks": 12086,
            "time": 59.245068416666676,
            "velocity": 0.6535433070866141
          },
          {
            "duration": 0.13725483333332988,
            "durationTicks": 28,
            "midi": 61,
            "name": "C#4",
            "ticks": 12086,
            "time": 59.245068416666676,
            "velocity": 0.6535433070866141
          },
          {
            "duration": 0.13725483333332988,
            "durationTicks": 28,
            "midi": 58,
            "name": "A#3",
            "ticks": 12086,
            "time": 59.245068416666676,
            "velocity": 0.6535433070866141
          },
          {
            "duration": 0.3382351249999971,
            "durationTicks": 69,
            "midi": 65,
            "name": "F4",
            "ticks": 12482,
            "time": 61.186243916666676,
            "velocity": 0.6535433070866141
          },
          {
            "duration": 0.3578429583333289,
            "durationTicks": 73,
            "midi": 58,
            "name": "A#3",
            "ticks": 12482,
            "time": 61.186243916666676,
            "velocity": 0.6535433070866141
          },
          {
            "duration": 0.34803904166666655,
            "durationTicks": 71,
            "midi": 61,
            "name": "C#4",
            "ticks": 12482,
            "time": 61.186243916666676,
            "velocity": 0.6535433070866141
          },
          {
            "duration": 0.24019595833334506,
            "durationTicks": 49,
            "midi": 58,
            "name": "A#3",
            "ticks": 12567,
            "time": 61.602910375,
            "velocity": 0.6535433070866141
          },
          {
            "duration": 0.24019595833334506,
            "durationTicks": 49,
            "midi": 65,
            "name": "F4",
            "ticks": 12567,
            "time": 61.602910375,
            "velocity": 0.6535433070866141
          },
          {
            "duration": 0.23529400000000322,
            "durationTicks": 48,
            "midi": 61,
            "name": "C#4",
            "ticks": 12567,
            "time": 61.602910375,
            "velocity": 0.6535433070866141
          },
          {
            "duration": 1.0294112500000026,
            "durationTicks": 210,
            "midi": 61,
            "name": "C#4",
            "ticks": 12925,
            "time": 63.35781145833334,
            "velocity": 0.6535433070866141
          },
          {
            "duration": 0.9950975416666665,
            "durationTicks": 203,
            "midi": 65,
            "name": "F4",
            "ticks": 12942,
            "time": 63.44114475000001,
            "velocity": 0.6535433070866141
          },
          {
            "duration": 0.9607838333333376,
            "durationTicks": 196,
            "midi": 70,
            "name": "A#4",
            "ticks": 12954,
            "time": 63.49996825000001,
            "velocity": 0.6535433070866141
          },
          {
            "duration": 0.887254458333345,
            "durationTicks": 181,
            "midi": 73,
            "name": "C#5",
            "ticks": 12970,
            "time": 63.578399583333336,
            "velocity": 0.6535433070866141
          },
          {
            "duration": 1.0294112499999954,
            "durationTicks": 210,
            "midi": 61,
            "name": "C#4",
            "ticks": 13171,
            "time": 64.56369320833335,
            "velocity": 0.6535433070866141
          },
          {
            "duration": 0.9607838333333234,
            "durationTicks": 196,
            "midi": 66,
            "name": "F#4",
            "ticks": 13186,
            "time": 64.63722258333334,
            "velocity": 0.6535433070866141
          },
          {
            "duration": 0.8921564166666656,
            "durationTicks": 182,
            "midi": 70,
            "name": "A#4",
            "ticks": 13195,
            "time": 64.68134020833334,
            "velocity": 0.6535433070866141
          },
          {
            "duration": 0.8578427083333366,
            "durationTicks": 175,
            "midi": 73,
            "name": "C#5",
            "ticks": 13206,
            "time": 64.73526175,
            "velocity": 0.6535433070866141
          },
          {
            "duration": 1.0147053750000055,
            "durationTicks": 207,
            "midi": 60,
            "name": "C4",
            "ticks": 13418,
            "time": 65.77447691666667,
            "velocity": 0.6535433070866141
          },
          {
            "duration": 0.9754897083333276,
            "durationTicks": 199,
            "midi": 63,
            "name": "D#4",
            "ticks": 13429,
            "time": 65.82839845833334,
            "velocity": 0.6535433070866141
          },
          {
            "duration": 0.9509799166666681,
            "durationTicks": 194,
            "midi": 68,
            "name": "G#4",
            "ticks": 13442,
            "time": 65.89212391666668,
            "velocity": 0.6535433070866141
          },
          {
            "duration": 0.8970583750000003,
            "durationTicks": 183,
            "midi": 72,
            "name": "C5",
            "ticks": 13450,
            "time": 65.93133958333334,
            "velocity": 0.6535433070866141
          },
          {
            "duration": 1.0196073333333402,
            "durationTicks": 208,
            "midi": 60,
            "name": "C4",
            "ticks": 13657,
            "time": 66.94604495833335,
            "velocity": 0.6535433070866141
          },
          {
            "duration": 0.9754897083333276,
            "durationTicks": 199,
            "midi": 65,
            "name": "F4",
            "ticks": 13669,
            "time": 67.00486845833333,
            "velocity": 0.6535433070866141
          },
          {
            "duration": 0.8774505416666614,
            "durationTicks": 179,
            "midi": 68,
            "name": "G#4",
            "ticks": 13685,
            "time": 67.08329979166668,
            "velocity": 0.6535433070866141
          },
          {
            "duration": 0.8333329166666772,
            "durationTicks": 170,
            "midi": 72,
            "name": "C5",
            "ticks": 13692,
            "time": 67.1176135,
            "velocity": 0.6535433070866141
          },
          {
            "duration": 0.9607838333333376,
            "durationTicks": 196,
            "midi": 58,
            "name": "A#3",
            "ticks": 13904,
            "time": 68.15682866666667,
            "velocity": 0.6535433070866141
          },
          {
            "duration": 0.9607838333333518,
            "durationTicks": 196,
            "midi": 61,
            "name": "C#4",
            "ticks": 13912,
            "time": 68.19604433333333,
            "velocity": 0.6535433070866141
          },
          {
            "duration": 0.9264701249999945,
            "durationTicks": 189,
            "midi": 66,
            "name": "F#4",
            "ticks": 13927,
            "time": 68.26957370833334,
            "velocity": 0.6535433070866141
          },
          {
            "duration": 0.9264701250000087,
            "durationTicks": 189,
            "midi": 70,
            "name": "A#4",
            "ticks": 13931,
            "time": 68.28918154166666,
            "velocity": 0.6535433070866141
          },
          {
            "duration": 0.9558818750000171,
            "durationTicks": 195,
            "midi": 60,
            "name": "C4",
            "ticks": 14132,
            "time": 69.27447516666666,
            "velocity": 0.6535433070866141
          },
          {
            "duration": 0.9117642500000045,
            "durationTicks": 186,
            "midi": 63,
            "name": "D#4",
            "ticks": 14146,
            "time": 69.34310258333335,
            "velocity": 0.6535433070866141
          },
          {
            "duration": 0.921568166666674,
            "durationTicks": 188,
            "midi": 68,
            "name": "G#4",
            "ticks": 14161,
            "time": 69.41663195833334,
            "velocity": 0.6535433070866141
          },
          {
            "duration": 0.8970583750000003,
            "durationTicks": 183,
            "midi": 72,
            "name": "C5",
            "ticks": 14174,
            "time": 69.48035741666666,
            "velocity": 0.6535433070866141
          },
          {
            "duration": 2.181371458333331,
            "durationTicks": 445,
            "midi": 61,
            "name": "C#4",
            "ticks": 14366,
            "time": 70.42153341666668,
            "velocity": 0.6535433070866141
          },
          {
            "duration": 2.1029401250000035,
            "durationTicks": 429,
            "midi": 65,
            "name": "F4",
            "ticks": 14382,
            "time": 70.49996475,
            "velocity": 0.6535433070866141
          },
          {
            "duration": 2.024508791666676,
            "durationTicks": 413,
            "midi": 70,
            "name": "A#4",
            "ticks": 14399,
            "time": 70.58329804166667,
            "velocity": 0.6535433070866141
          },
          {
            "duration": 1.9411754999999857,
            "durationTicks": 396,
            "midi": 73,
            "name": "C#5",
            "ticks": 14412,
            "time": 70.64702350000002,
            "velocity": 0.6535433070866141
          },
          {
            "duration": 0.9999995000000013,
            "durationTicks": 204,
            "midi": 61,
            "name": "C#4",
            "ticks": 14851,
            "time": 72.79898320833334,
            "velocity": 0.6535433070866141
          },
          {
            "duration": 0.9264701250000087,
            "durationTicks": 189,
            "midi": 65,
            "name": "F4",
            "ticks": 14865,
            "time": 72.867610625,
            "velocity": 0.6535433070866141
          },
          {
            "duration": 0.828430958333314,
            "durationTicks": 169,
            "midi": 70,
            "name": "A#4",
            "ticks": 14882,
            "time": 72.95094391666669,
            "velocity": 0.6535433070866141
          },
          {
            "duration": 0.7745094166666604,
            "durationTicks": 158,
            "midi": 73,
            "name": "C#5",
            "ticks": 14889,
            "time": 72.985257625,
            "velocity": 0.6535433070866141
          },
          {
            "duration": 0.9607838333333234,
            "durationTicks": 196,
            "midi": 58,
            "name": "A#3",
            "ticks": 15101,
            "time": 74.02447279166668,
            "velocity": 0.6535433070866141
          },
          {
            "duration": 0.9509799166666824,
            "durationTicks": 194,
            "midi": 61,
            "name": "C#4",
            "ticks": 15110,
            "time": 74.06859041666667,
            "velocity": 0.6535433070866141
          },
          {
            "duration": 0.8970583750000003,
            "durationTicks": 183,
            "midi": 66,
            "name": "F#4",
            "ticks": 15130,
            "time": 74.16662958333333,
            "velocity": 0.6535433070866141
          },
          {
            "duration": 0.9117642500000045,
            "durationTicks": 186,
            "midi": 70,
            "name": "A#4",
            "ticks": 15135,
            "time": 74.191139375,
            "velocity": 0.6535433070866141
          },
          {
            "duration": 0.9558818750000171,
            "durationTicks": 195,
            "midi": 60,
            "name": "C4",
            "ticks": 15332,
            "time": 75.15682516666666,
            "velocity": 0.6535433070866141
          },
          {
            "duration": 0.9068622916666698,
            "durationTicks": 185,
            "midi": 63,
            "name": "D#4",
            "ticks": 15347,
            "time": 75.23035454166669,
            "velocity": 0.6535433070866141
          },
          {
            "duration": 0.8235290000000077,
            "durationTicks": 168,
            "midi": 68,
            "name": "G#4",
            "ticks": 15362,
            "time": 75.30388391666668,
            "velocity": 0.6535433070866141
          },
          {
            "duration": 0.7107839583333373,
            "durationTicks": 145,
            "midi": 72,
            "name": "C5",
            "ticks": 15380,
            "time": 75.39211916666667,
            "velocity": 0.6535433070866141
          },
          {
            "duration": 0.9754897083333276,
            "durationTicks": 199,
            "midi": 56,
            "name": "G#3",
            "ticks": 15569,
            "time": 76.31858929166668,
            "velocity": 0.6535433070866141
          },
          {
            "duration": 0.9509799166666539,
            "durationTicks": 194,
            "midi": 60,
            "name": "C4",
            "ticks": 15581,
            "time": 76.37741279166667,
            "velocity": 0.6535433070866141
          },
          {
            "duration": 0.9509799166666824,
            "durationTicks": 194,
            "midi": 65,
            "name": "F4",
            "ticks": 15599,
            "time": 76.46564804166667,
            "velocity": 0.6535433070866141
          },
          {
            "duration": 0.9509799166666539,
            "durationTicks": 194,
            "midi": 68,
            "name": "G#4",
            "ticks": 15607,
            "time": 76.50486370833335,
            "velocity": 0.6535433070866141
          },
          {
            "duration": 1.0196073333333402,
            "durationTicks": 208,
            "midi": 58,
            "name": "A#3",
            "ticks": 15812,
            "time": 77.50976516666668,
            "velocity": 0.6535433070866141
          },
          {
            "duration": 0.9852936249999971,
            "durationTicks": 201,
            "midi": 61,
            "name": "C#4",
            "ticks": 15826,
            "time": 77.57839258333334,
            "velocity": 0.6535433070866141
          },
          {
            "duration": 0.9803916666666908,
            "durationTicks": 200,
            "midi": 66,
            "name": "F#4",
            "ticks": 15840,
            "time": 77.64702,
            "velocity": 0.6535433070866141
          },
          {
            "duration": 0.9754897083333276,
            "durationTicks": 199,
            "midi": 70,
            "name": "A#4",
            "ticks": 15849,
            "time": 77.69113762500001,
            "velocity": 0.6535433070866141
          },
          {
            "duration": 1.0490190833333202,
            "durationTicks": 214,
            "midi": 60,
            "name": "C4",
            "ticks": 16054,
            "time": 78.69603908333335,
            "velocity": 0.6535433070866141
          },
          {
            "duration": 1.0196073333333402,
            "durationTicks": 208,
            "midi": 63,
            "name": "D#4",
            "ticks": 16060,
            "time": 78.72545083333333,
            "velocity": 0.6535433070866141
          },
          {
            "duration": 0.9999995000000013,
            "durationTicks": 204,
            "midi": 68,
            "name": "G#4",
            "ticks": 16071,
            "time": 78.77937237500001,
            "velocity": 0.6535433070866141
          },
          {
            "duration": 0.9852936249999971,
            "durationTicks": 201,
            "midi": 72,
            "name": "C5",
            "ticks": 16082,
            "time": 78.83329391666666,
            "velocity": 0.6535433070866141
          },
          {
            "duration": 2.4068615416666717,
            "durationTicks": 491,
            "midi": 61,
            "name": "C#4",
            "ticks": 16296,
            "time": 79.88231300000001,
            "velocity": 0.6535433070866141
          },
          {
            "duration": 2.372547833333357,
            "durationTicks": 484,
            "midi": 65,
            "name": "F4",
            "ticks": 16305,
            "time": 79.926430625,
            "velocity": 0.6535433070866141
          },
          {
            "duration": 2.2990184583333075,
            "durationTicks": 469,
            "midi": 70,
            "name": "A#4",
            "ticks": 16321,
            "time": 80.00486195833335,
            "velocity": 0.6535433070866141
          },
          {
            "duration": 2.2499988749999886,
            "durationTicks": 459,
            "midi": 73,
            "name": "C#5",
            "ticks": 16331,
            "time": 80.05388154166667,
            "velocity": 0.6535433070866141
          },
          {
            "duration": 0.39705862499997124,
            "durationTicks": 81,
            "midi": 61,
            "name": "C#4",
            "ticks": 20631,
            "time": 101.13230237500002,
            "velocity": 0.6535433070866141
          },
          {
            "duration": 0.38235274999999547,
            "durationTicks": 78,
            "midi": 65,
            "name": "F4",
            "ticks": 20632,
            "time": 101.13720433333336,
            "velocity": 0.6535433070866141
          },
          {
            "duration": 0.36764687499999127,
            "durationTicks": 75,
            "midi": 58,
            "name": "A#3",
            "ticks": 20632,
            "time": 101.13720433333336,
            "velocity": 0.6535433070866141
          },
          {
            "duration": 0.08823524999999677,
            "durationTicks": 18,
            "midi": 61,
            "name": "C#4",
            "ticks": 20729,
            "time": 101.61269429166668,
            "velocity": 0.6535433070866141
          },
          {
            "duration": 0.11274504166667043,
            "durationTicks": 23,
            "midi": 65,
            "name": "F4",
            "ticks": 20729,
            "time": 101.61269429166668,
            "velocity": 0.6535433070866141
          },
          {
            "duration": 0.09803916666666623,
            "durationTicks": 20,
            "midi": 58,
            "name": "A#3",
            "ticks": 20729,
            "time": 101.61269429166668,
            "velocity": 0.6535433070866141
          },
          {
            "duration": 0.3382351249999829,
            "durationTicks": 69,
            "midi": 58,
            "name": "A#3",
            "ticks": 21115,
            "time": 103.50485020833335,
            "velocity": 0.6535433070866141
          },
          {
            "duration": 0.3431370833333176,
            "durationTicks": 70,
            "midi": 65,
            "name": "F4",
            "ticks": 21115,
            "time": 103.50485020833335,
            "velocity": 0.6535433070866141
          },
          {
            "duration": 0.3382351249999829,
            "durationTicks": 69,
            "midi": 61,
            "name": "C#4",
            "ticks": 21115,
            "time": 103.50485020833335,
            "velocity": 0.6535433070866141
          },
          {
            "duration": 0.08823524999999677,
            "durationTicks": 18,
            "midi": 61,
            "name": "C#4",
            "ticks": 21199,
            "time": 103.91661470833336,
            "velocity": 0.6535433070866141
          },
          {
            "duration": 0.08823524999999677,
            "durationTicks": 18,
            "midi": 65,
            "name": "F4",
            "ticks": 21199,
            "time": 103.91661470833336,
            "velocity": 0.6535433070866141
          },
          {
            "duration": 0.06862741666665784,
            "durationTicks": 14,
            "midi": 58,
            "name": "A#3",
            "ticks": 21202,
            "time": 103.93132058333336,
            "velocity": 0.6535433070866141
          },
          {
            "duration": 0.36274491666665654,
            "durationTicks": 74,
            "midi": 65,
            "name": "F4",
            "ticks": 21594,
            "time": 105.85288825,
            "velocity": 0.6535433070866141
          },
          {
            "duration": 0.3578429583333502,
            "durationTicks": 73,
            "midi": 61,
            "name": "C#4",
            "ticks": 21594,
            "time": 105.85288825,
            "velocity": 0.6535433070866141
          },
          {
            "duration": 0.343137083333346,
            "durationTicks": 70,
            "midi": 58,
            "name": "A#3",
            "ticks": 21594,
            "time": 105.85288825,
            "velocity": 0.6535433070866141
          },
          {
            "duration": 0.10294112500002939,
            "durationTicks": 21,
            "midi": 65,
            "name": "F4",
            "ticks": 21687,
            "time": 106.308770375,
            "velocity": 0.6535433070866141
          },
          {
            "duration": 0.10294112500002939,
            "durationTicks": 21,
            "midi": 61,
            "name": "C#4",
            "ticks": 21687,
            "time": 106.308770375,
            "velocity": 0.6535433070866141
          },
          {
            "duration": 0.1078430833333357,
            "durationTicks": 22,
            "midi": 58,
            "name": "A#3",
            "ticks": 21687,
            "time": 106.308770375,
            "velocity": 0.6535433070866141
          },
          {
            "duration": 0.38235274999996705,
            "durationTicks": 78,
            "midi": 61,
            "name": "C#4",
            "ticks": 22075,
            "time": 108.21073020833336,
            "velocity": 0.6535433070866141
          },
          {
            "duration": 0.38235274999996705,
            "durationTicks": 78,
            "midi": 58,
            "name": "A#3",
            "ticks": 22075,
            "time": 108.21073020833336,
            "velocity": 0.6535433070866141
          },
          {
            "duration": 0.38235274999996705,
            "durationTicks": 78,
            "midi": 65,
            "name": "F4",
            "ticks": 22075,
            "time": 108.21073020833336,
            "velocity": 0.6535433070866141
          },
          {
            "duration": 0.10294112500000097,
            "durationTicks": 21,
            "midi": 65,
            "name": "F4",
            "ticks": 22167,
            "time": 108.66171037500001,
            "velocity": 0.6535433070866141
          },
          {
            "duration": 0.0931372083333315,
            "durationTicks": 19,
            "midi": 61,
            "name": "C#4",
            "ticks": 22167,
            "time": 108.66171037500001,
            "velocity": 0.6535433070866141
          },
          {
            "duration": 0.10294112500000097,
            "durationTicks": 21,
            "midi": 58,
            "name": "A#3",
            "ticks": 22167,
            "time": 108.66171037500001,
            "velocity": 0.6535433070866141
          },
          {
            "duration": 0.3578429583333218,
            "durationTicks": 73,
            "midi": 58,
            "name": "A#3",
            "ticks": 22552,
            "time": 110.54896433333334,
            "velocity": 0.6535433070866141
          },
          {
            "duration": 0.3578429583333218,
            "durationTicks": 73,
            "midi": 61,
            "name": "C#4",
            "ticks": 22552,
            "time": 110.54896433333334,
            "velocity": 0.6535433070866141
          },
          {
            "duration": 0.3578429583333218,
            "durationTicks": 73,
            "midi": 65,
            "name": "F4",
            "ticks": 22552,
            "time": 110.54896433333334,
            "velocity": 0.6535433070866141
          },
          {
            "duration": 0.08823524999999677,
            "durationTicks": 18,
            "midi": 61,
            "name": "C#4",
            "ticks": 22644,
            "time": 110.9999445,
            "velocity": 0.6535433070866141
          },
          {
            "duration": 0.07843133333335572,
            "durationTicks": 16,
            "midi": 65,
            "name": "F4",
            "ticks": 22644,
            "time": 110.9999445,
            "velocity": 0.6535433070866141
          },
          {
            "duration": 0.0931372083333315,
            "durationTicks": 19,
            "midi": 58,
            "name": "A#3",
            "ticks": 22644,
            "time": 110.9999445,
            "velocity": 0.6535433070866141
          },
          {
            "duration": 0.3823527500000239,
            "durationTicks": 78,
            "midi": 65,
            "name": "F4",
            "ticks": 23036,
            "time": 112.92151216666667,
            "velocity": 0.6535433070866141
          },
          {
            "duration": 0.36274491666668496,
            "durationTicks": 74,
            "midi": 58,
            "name": "A#3",
            "ticks": 23036,
            "time": 112.92151216666667,
            "velocity": 0.6535433070866141
          },
          {
            "duration": 0.3578429583333218,
            "durationTicks": 73,
            "midi": 61,
            "name": "C#4",
            "ticks": 23036,
            "time": 112.92151216666667,
            "velocity": 0.6535433070866141
          },
          {
            "duration": 0.11274504166667043,
            "durationTicks": 23,
            "midi": 65,
            "name": "F4",
            "ticks": 23124,
            "time": 113.35288450000002,
            "velocity": 0.6535433070866141
          },
          {
            "duration": 0.09803916666666623,
            "durationTicks": 20,
            "midi": 61,
            "name": "C#4",
            "ticks": 23124,
            "time": 113.35288450000002,
            "velocity": 0.6535433070866141
          },
          {
            "duration": 0.09803916666666623,
            "durationTicks": 20,
            "midi": 58,
            "name": "A#3",
            "ticks": 23124,
            "time": 113.35288450000002,
            "velocity": 0.6535433070866141
          },
          {
            "duration": 0.39215666666669335,
            "durationTicks": 80,
            "midi": 65,
            "name": "F4",
            "ticks": 23514,
            "time": 115.26464825,
            "velocity": 0.6535433070866141
          },
          {
            "duration": 0.39215666666669335,
            "durationTicks": 80,
            "midi": 61,
            "name": "C#4",
            "ticks": 23514,
            "time": 115.26464825,
            "velocity": 0.6535433070866141
          },
          {
            "duration": 0.39215666666669335,
            "durationTicks": 80,
            "midi": 58,
            "name": "A#3",
            "ticks": 23514,
            "time": 115.26464825,
            "velocity": 0.6535433070866141
          },
          {
            "duration": 0.0931372083333315,
            "durationTicks": 19,
            "midi": 61,
            "name": "C#4",
            "ticks": 23607,
            "time": 115.72053037500001,
            "velocity": 0.6535433070866141
          },
          {
            "duration": 0.11274504166667043,
            "durationTicks": 23,
            "midi": 65,
            "name": "F4",
            "ticks": 23607,
            "time": 115.72053037500001,
            "velocity": 0.6535433070866141
          },
          {
            "duration": 0.10294112500000097,
            "durationTicks": 21,
            "midi": 58,
            "name": "A#3",
            "ticks": 23607,
            "time": 115.72053037500001,
            "velocity": 0.6535433070866141
          },
          {
            "duration": 0.3872547083333302,
            "durationTicks": 79,
            "midi": 65,
            "name": "F4",
            "ticks": 23989,
            "time": 117.59307845833334,
            "velocity": 0.6535433070866141
          },
          {
            "duration": 0.372548833333326,
            "durationTicks": 76,
            "midi": 61,
            "name": "C#4",
            "ticks": 23989,
            "time": 117.59307845833334,
            "velocity": 0.6535433070866141
          },
          {
            "duration": 0.3676468750000197,
            "durationTicks": 75,
            "midi": 58,
            "name": "A#3",
            "ticks": 23991,
            "time": 117.60288237500001,
            "velocity": 0.6535433070866141
          },
          {
            "duration": 0.09803916666666623,
            "durationTicks": 20,
            "midi": 65,
            "name": "F4",
            "ticks": 24079,
            "time": 118.03425470833335,
            "velocity": 0.6535433070866141
          },
          {
            "duration": 0.10294112500000097,
            "durationTicks": 21,
            "midi": 58,
            "name": "A#3",
            "ticks": 24079,
            "time": 118.03425470833335,
            "velocity": 0.6535433070866141
          },
          {
            "duration": 0.0931372083333315,
            "durationTicks": 19,
            "midi": 61,
            "name": "C#4",
            "ticks": 24079,
            "time": 118.03425470833335,
            "velocity": 0.6535433070866141
          },
          {
            "duration": 0.9852936249999971,
            "durationTicks": 201,
            "midi": 61,
            "name": "C#4",
            "ticks": 26370,
            "time": 129.26464125,
            "velocity": 0.6535433070866141
          },
          {
            "duration": 0.8970583750000003,
            "durationTicks": 183,
            "midi": 65,
            "name": "F4",
            "ticks": 26386,
            "time": 129.34307258333334,
            "velocity": 0.6535433070866141
          },
          {
            "duration": 0.8137250833333098,
            "durationTicks": 166,
            "midi": 70,
            "name": "A#4",
            "ticks": 26400,
            "time": 129.41170000000002,
            "velocity": 0.6535433070866141
          },
          {
            "duration": 0.7745094166666604,
            "durationTicks": 158,
            "midi": 73,
            "name": "C#5",
            "ticks": 26408,
            "time": 129.45091566666667,
            "velocity": 0.6535433070866141
          },
          {
            "duration": 0.9411759999999845,
            "durationTicks": 192,
            "midi": 58,
            "name": "A#3",
            "ticks": 26620,
            "time": 130.49013083333335,
            "velocity": 0.6535433070866141
          },
          {
            "duration": 0.9558818750000171,
            "durationTicks": 195,
            "midi": 61,
            "name": "C#4",
            "ticks": 26630,
            "time": 130.53915041666667,
            "velocity": 0.6535433070866141
          },
          {
            "duration": 0.8970583749999719,
            "durationTicks": 183,
            "midi": 66,
            "name": "F#4",
            "ticks": 26650,
            "time": 130.63718958333337,
            "velocity": 0.6535433070866141
          },
          {
            "duration": 0.9362740416666497,
            "durationTicks": 191,
            "midi": 70,
            "name": "A#4",
            "ticks": 26650,
            "time": 130.63718958333337,
            "velocity": 0.6535433070866141
          },
          {
            "duration": 0.9950975416666665,
            "durationTicks": 203,
            "midi": 60,
            "name": "C4",
            "ticks": 26852,
            "time": 131.6273851666667,
            "velocity": 0.6535433070866141
          },
          {
            "duration": 0.9754897083333276,
            "durationTicks": 199,
            "midi": 63,
            "name": "D#4",
            "ticks": 26860,
            "time": 131.66660083333335,
            "velocity": 0.6535433070866141
          },
          {
            "duration": 0.9362740416666782,
            "durationTicks": 191,
            "midi": 68,
            "name": "G#4",
            "ticks": 26874,
            "time": 131.73522825,
            "velocity": 0.6535433070866141
          },
          {
            "duration": 0.848038791666653,
            "durationTicks": 173,
            "midi": 72,
            "name": "C5",
            "ticks": 26886,
            "time": 131.79405175000002,
            "velocity": 0.6535433070866141
          },
          {
            "duration": 0.9803916666666623,
            "durationTicks": 200,
            "midi": 60,
            "name": "C4",
            "ticks": 27086,
            "time": 132.77444341666668,
            "velocity": 0.6535433070866141
          },
          {
            "duration": 0.8970583750000287,
            "durationTicks": 183,
            "midi": 65,
            "name": "F4",
            "ticks": 27101,
            "time": 132.84797279166668,
            "velocity": 0.6535433070866141
          },
          {
            "duration": 0.8970583750000287,
            "durationTicks": 183,
            "midi": 68,
            "name": "G#4",
            "ticks": 27114,
            "time": 132.91169825,
            "velocity": 0.6535433070866141
          },
          {
            "duration": 0.848038791666653,
            "durationTicks": 173,
            "midi": 72,
            "name": "C5",
            "ticks": 27122,
            "time": 132.9509139166667,
            "velocity": 0.6535433070866141
          },
          {
            "duration": 1.068626916666659,
            "durationTicks": 218,
            "midi": 58,
            "name": "A#3",
            "ticks": 27329,
            "time": 133.96561929166668,
            "velocity": 0.6535433070866141
          },
          {
            "duration": 1.053921041666655,
            "durationTicks": 215,
            "midi": 61,
            "name": "C#4",
            "ticks": 27337,
            "time": 134.00483495833336,
            "velocity": 0.6535433070866141
          },
          {
            "duration": 1.004901458333336,
            "durationTicks": 205,
            "midi": 66,
            "name": "F#4",
            "ticks": 27357,
            "time": 134.10287412500003,
            "velocity": 0.6535433070866141
          },
          {
            "duration": 0.9999995000000013,
            "durationTicks": 204,
            "midi": 70,
            "name": "A#4",
            "ticks": 27362,
            "time": 134.1273839166667,
            "velocity": 0.6535433070866141
          },
          {
            "duration": 0.9558818749999887,
            "durationTicks": 195,
            "midi": 60,
            "name": "C4",
            "ticks": 27580,
            "time": 135.19601083333336,
            "velocity": 0.6535433070866141
          },
          {
            "duration": 0.9607838333333518,
            "durationTicks": 196,
            "midi": 63,
            "name": "D#4",
            "ticks": 27589,
            "time": 135.24012845833334,
            "velocity": 0.6535433070866141
          },
          {
            "duration": 0.9460779583333192,
            "durationTicks": 193,
            "midi": 68,
            "name": "G#4",
            "ticks": 27601,
            "time": 135.29895195833336,
            "velocity": 0.6535433070866141
          },
          {
            "duration": 0.9264701250000087,
            "durationTicks": 189,
            "midi": 72,
            "name": "C5",
            "ticks": 27609,
            "time": 135.338167625,
            "velocity": 0.6535433070866141
          },
          {
            "duration": 2.1568616666666856,
            "durationTicks": 440,
            "midi": 61,
            "name": "C#4",
            "ticks": 27815,
            "time": 136.34797104166668,
            "velocity": 0.6535433070866141
          },
          {
            "duration": 2.0980381666666403,
            "durationTicks": 428,
            "midi": 65,
            "name": "F4",
            "ticks": 27826,
            "time": 136.40189258333336,
            "velocity": 0.6535433070866141
          },
          {
            "duration": 2.04901858333335,
            "durationTicks": 418,
            "midi": 70,
            "name": "A#4",
            "ticks": 27835,
            "time": 136.44601020833335,
            "velocity": 0.6535433070866141
          },
          {
            "duration": 1.9999990000000025,
            "durationTicks": 408,
            "midi": 73,
            "name": "C#5",
            "ticks": 27849,
            "time": 136.514637625,
            "velocity": 0.6535433070866141
          },
          {
            "duration": 1.004901458333336,
            "durationTicks": 205,
            "midi": 61,
            "name": "C#4",
            "ticks": 28294,
            "time": 138.69600908333337,
            "velocity": 0.6535433070866141
          },
          {
            "duration": 0.9117642500000045,
            "durationTicks": 186,
            "midi": 65,
            "name": "F4",
            "ticks": 28307,
            "time": 138.7597345416667,
            "velocity": 0.6535433070866141
          },
          {
            "duration": 0.8333329166666772,
            "durationTicks": 170,
            "midi": 70,
            "name": "A#4",
            "ticks": 28320,
            "time": 138.82346,
            "velocity": 0.6535433070866141
          },
          {
            "duration": 0.7401957083333173,
            "durationTicks": 151,
            "midi": 73,
            "name": "C#5",
            "ticks": 28335,
            "time": 138.89698937500003,
            "velocity": 0.6535433070866141
          },
          {
            "duration": 0.9754897083333276,
            "durationTicks": 199,
            "midi": 58,
            "name": "A#3",
            "ticks": 28534,
            "time": 139.87247908333336,
            "velocity": 0.6535433070866141
          },
          {
            "duration": 0.9509799166666824,
            "durationTicks": 194,
            "midi": 61,
            "name": "C#4",
            "ticks": 28552,
            "time": 139.96071433333336,
            "velocity": 0.6535433070866141
          },
          {
            "duration": 0.9068622916666413,
            "durationTicks": 185,
            "midi": 66,
            "name": "F#4",
            "ticks": 28566,
            "time": 140.02934175000004,
            "velocity": 0.6535433070866141
          },
          {
            "duration": 0.9068622916666698,
            "durationTicks": 185,
            "midi": 70,
            "name": "A#4",
            "ticks": 28572,
            "time": 140.05875350000002,
            "velocity": 0.6535433070866141
          },
          {
            "duration": 0.9705877499999929,
            "durationTicks": 198,
            "midi": 60,
            "name": "C4",
            "ticks": 28772,
            "time": 141.03914516666669,
            "velocity": 0.6535433070866141
          },
          {
            "duration": 0.9264701250000087,
            "durationTicks": 189,
            "midi": 63,
            "name": "D#4",
            "ticks": 28782,
            "time": 141.08816475000003,
            "velocity": 0.6535433070866141
          },
          {
            "duration": 0.8872544583333308,
            "durationTicks": 181,
            "midi": 68,
            "name": "G#4",
            "ticks": 28795,
            "time": 141.15189020833336,
            "velocity": 0.6535433070866141
          },
          {
            "duration": 0.8284309583333425,
            "durationTicks": 169,
            "midi": 72,
            "name": "C5",
            "ticks": 28810,
            "time": 141.22541958333335,
            "velocity": 0.6535433070866141
          },
          {
            "duration": 1.0343132083333444,
            "durationTicks": 211,
            "midi": 60,
            "name": "C4",
            "ticks": 29001,
            "time": 142.16169362500003,
            "velocity": 0.6535433070866141
          },
          {
            "duration": 0.9656857916666866,
            "durationTicks": 197,
            "midi": 65,
            "name": "F4",
            "ticks": 29015,
            "time": 142.23032104166668,
            "velocity": 0.6535433070866141
          },
          {
            "duration": 0.9068622916666982,
            "durationTicks": 185,
            "midi": 68,
            "name": "G#4",
            "ticks": 29030,
            "time": 142.30385041666668,
            "velocity": 0.6535433070866141
          },
          {
            "duration": 0.848038791666653,
            "durationTicks": 173,
            "midi": 72,
            "name": "C5",
            "ticks": 29041,
            "time": 142.35777195833336,
            "velocity": 0.6535433070866141
          },
          {
            "duration": 0.9901955833333318,
            "durationTicks": 202,
            "midi": 58,
            "name": "A#3",
            "ticks": 29253,
            "time": 143.39698712500004,
            "velocity": 0.6535433070866141
          },
          {
            "duration": 0.9705877499999929,
            "durationTicks": 198,
            "midi": 61,
            "name": "C#4",
            "ticks": 29267,
            "time": 143.4656145416667,
            "velocity": 0.6535433070866141
          },
          {
            "duration": 0.9362740416666497,
            "durationTicks": 191,
            "midi": 66,
            "name": "F#4",
            "ticks": 29282,
            "time": 143.5391439166667,
            "velocity": 0.6535433070866141
          },
          {
            "duration": 0.8823525000000245,
            "durationTicks": 180,
            "midi": 70,
            "name": "A#4",
            "ticks": 29292,
            "time": 143.5881635,
            "velocity": 0.6535433070866141
          },
          {
            "duration": 0.8578427083333509,
            "durationTicks": 175,
            "midi": 60,
            "name": "C4",
            "ticks": 29501,
            "time": 144.61267279166668,
            "velocity": 0.6535433070866141
          },
          {
            "duration": 0.8382348750000119,
            "durationTicks": 171,
            "midi": 63,
            "name": "D#4",
            "ticks": 29514,
            "time": 144.67639825,
            "velocity": 0.6535433070866141
          },
          {
            "duration": 0.8137250833333383,
            "durationTicks": 166,
            "midi": 68,
            "name": "G#4",
            "ticks": 29529,
            "time": 144.74992762500003,
            "velocity": 0.6535433070866141
          },
          {
            "duration": 0.8284309583333425,
            "durationTicks": 169,
            "midi": 72,
            "name": "C5",
            "ticks": 29539,
            "time": 144.79894720833335,
            "velocity": 0.6535433070866141
          },
          {
            "duration": 2.2941165000000012,
            "durationTicks": 468,
            "midi": 61,
            "name": "C#4",
            "ticks": 29726,
            "time": 145.71561341666668,
            "velocity": 0.6535433070866141
          },
          {
            "duration": 2.2058812500000045,
            "durationTicks": 450,
            "midi": 65,
            "name": "F4",
            "ticks": 29741,
            "time": 145.78914279166668,
            "velocity": 0.6535433070866141
          },
          {
            "duration": 2.1470577499999877,
            "durationTicks": 438,
            "midi": 70,
            "name": "A#4",
            "ticks": 29755,
            "time": 145.85777020833336,
            "velocity": 0.6535433070866141
          },
          {
            "duration": 2.122547958333314,
            "durationTicks": 433,
            "midi": 73,
            "name": "C#5",
            "ticks": 29762,
            "time": 145.8920839166667,
            "velocity": 0.6535433070866141
          },
          {
            "duration": 0.3235292499999787,
            "durationTicks": 66,
            "midi": 65,
            "name": "F4",
            "ticks": 31195,
            "time": 152.91659020833336,
            "velocity": 0.6535433070866141
          },
          {
            "duration": 0.3431370833333176,
            "durationTicks": 70,
            "midi": 58,
            "name": "A#3",
            "ticks": 31195,
            "time": 152.91659020833336,
            "velocity": 0.6535433070866141
          },
          {
            "duration": 0.34803904166668076,
            "durationTicks": 71,
            "midi": 61,
            "name": "C#4",
            "ticks": 31195,
            "time": 152.91659020833336,
            "velocity": 0.6535433070866141
          },
          {
            "duration": 0.0931372083333315,
            "durationTicks": 19,
            "midi": 61,
            "name": "C#4",
            "ticks": 31279,
            "time": 153.32835470833336,
            "velocity": 0.6535433070866141
          },
          {
            "duration": 0.09803916666666623,
            "durationTicks": 20,
            "midi": 58,
            "name": "A#3",
            "ticks": 31279,
            "time": 153.32835470833336,
            "velocity": 0.6535433070866141
          },
          {
            "duration": 0.08823524999999677,
            "durationTicks": 18,
            "midi": 65,
            "name": "F4",
            "ticks": 31279,
            "time": 153.32835470833336,
            "velocity": 0.6535433070866141
          },
          {
            "duration": 0.343137083333346,
            "durationTicks": 70,
            "midi": 58,
            "name": "A#3",
            "ticks": 31675,
            "time": 155.26953020833335,
            "velocity": 0.6535433070866141
          },
          {
            "duration": 0.3578429583333502,
            "durationTicks": 73,
            "midi": 65,
            "name": "F4",
            "ticks": 31675,
            "time": 155.26953020833335,
            "velocity": 0.6535433070866141
          },
          {
            "duration": 0.34803904166668076,
            "durationTicks": 71,
            "midi": 61,
            "name": "C#4",
            "ticks": 31675,
            "time": 155.26953020833335,
            "velocity": 0.6535433070866141
          },
          {
            "duration": 0.08823524999999677,
            "durationTicks": 18,
            "midi": 65,
            "name": "F4",
            "ticks": 31760,
            "time": 155.6861966666667,
            "velocity": 0.6535433070866141
          },
          {
            "duration": 0.0931372083333315,
            "durationTicks": 19,
            "midi": 58,
            "name": "A#3",
            "ticks": 31761,
            "time": 155.69109862500002,
            "velocity": 0.6535433070866141
          },
          {
            "duration": 0.0931372083333315,
            "durationTicks": 19,
            "midi": 61,
            "name": "C#4",
            "ticks": 31761,
            "time": 155.69109862500002,
            "velocity": 0.6535433070866141
          },
          {
            "duration": 0.3578429583333502,
            "durationTicks": 73,
            "midi": 65,
            "name": "F4",
            "ticks": 32154,
            "time": 157.61756825,
            "velocity": 0.6535433070866141
          },
          {
            "duration": 0.3578429583333502,
            "durationTicks": 73,
            "midi": 61,
            "name": "C#4",
            "ticks": 32154,
            "time": 157.61756825,
            "velocity": 0.6535433070866141
          },
          {
            "duration": 0.3578429583333502,
            "durationTicks": 73,
            "midi": 58,
            "name": "A#3",
            "ticks": 32154,
            "time": 157.61756825,
            "velocity": 0.6535433070866141
          },
          {
            "duration": 0.11274504166667043,
            "durationTicks": 23,
            "midi": 65,
            "name": "F4",
            "ticks": 32245,
            "time": 158.06364645833335,
            "velocity": 0.6535433070866141
          },
          {
            "duration": 0.09803916666666623,
            "durationTicks": 20,
            "midi": 61,
            "name": "C#4",
            "ticks": 32245,
            "time": 158.06364645833335,
            "velocity": 0.6535433070866141
          },
          {
            "duration": 0.09803916666666623,
            "durationTicks": 20,
            "midi": 58,
            "name": "A#3",
            "ticks": 32245,
            "time": 158.06364645833335,
            "velocity": 0.6535433070866141
          },
          {
            "duration": 0.36274491666668496,
            "durationTicks": 74,
            "midi": 65,
            "name": "F4",
            "ticks": 32631,
            "time": 159.95580237500002,
            "velocity": 0.6535433070866141
          },
          {
            "duration": 0.3676468750000197,
            "durationTicks": 75,
            "midi": 61,
            "name": "C#4",
            "ticks": 32631,
            "time": 159.95580237500002,
            "velocity": 0.6535433070866141
          },
          {
            "duration": 0.3676468750000197,
            "durationTicks": 75,
            "midi": 58,
            "name": "A#3",
            "ticks": 32631,
            "time": 159.95580237500002,
            "velocity": 0.6535433070866141
          },
          {
            "duration": 0.09803916666663781,
            "durationTicks": 20,
            "midi": 61,
            "name": "C#4",
            "ticks": 32720,
            "time": 160.3920766666667,
            "velocity": 0.6535433070866141
          },
          {
            "duration": 0.09313720833330308,
            "durationTicks": 19,
            "midi": 58,
            "name": "A#3",
            "ticks": 32721,
            "time": 160.39697862500003,
            "velocity": 0.6535433070866141
          },
          {
            "duration": 0.08823524999999677,
            "durationTicks": 18,
            "midi": 65,
            "name": "F4",
            "ticks": 32721,
            "time": 160.39697862500003,
            "velocity": 0.6535433070866141
          },
          {
            "duration": 0.3578429583333218,
            "durationTicks": 73,
            "midi": 65,
            "name": "F4",
            "ticks": 33112,
            "time": 162.31364433333337,
            "velocity": 0.6535433070866141
          },
          {
            "duration": 0.34803904166665234,
            "durationTicks": 71,
            "midi": 61,
            "name": "C#4",
            "ticks": 33112,
            "time": 162.31364433333337,
            "velocity": 0.6535433070866141
          },
          {
            "duration": 0.33333316666667656,
            "durationTicks": 68,
            "midi": 58,
            "name": "A#3",
            "ticks": 33113,
            "time": 162.31854629166668,
            "velocity": 0.6535433070866141
          },
          {
            "duration": 0.10294112500002939,
            "durationTicks": 21,
            "midi": 65,
            "name": "F4",
            "ticks": 33206,
            "time": 162.77442841666667,
            "velocity": 0.6535433070866141
          },
          {
            "duration": 0.09313720833335992,
            "durationTicks": 19,
            "midi": 61,
            "name": "C#4",
            "ticks": 33206,
            "time": 162.77442841666667,
            "velocity": 0.6535433070866141
          },
          {
            "duration": 0.09313720833335992,
            "durationTicks": 19,
            "midi": 58,
            "name": "A#3",
            "ticks": 33206,
            "time": 162.77442841666667,
            "velocity": 0.6535433070866141
          }
        ]
      },
      {
        "channel": 0,
        "controlChanges": {
          "0": [
            {
              "number": 0,
              "ticks": 155,
              "time": 0.7598035416666667,
              "value": 0
            }
          ],
          "32": [
            {
              "number": 32,
              "ticks": 156,
              "time": 0.7647055000000001,
              "value": 0.8818897637795275
            }
          ]
        },
        "pitchBends": [],
        "instrument": {
          "family": "piano",
          "number": 0,
          "name": "acoustic grand piano"
        },
        "name": "",
        "notes": []
      },
      {
        "channel": 7,
        "controlChanges": {
          "7": [
            {
              "number": 7,
              "ticks": 158,
              "time": 0.7745094166666667,
              "value": 0.6299212598425197
            }
          ],
          "91": [
            {
              "number": 91,
              "ticks": 200,
              "time": 0.9803916666666668,
              "value": 0.30708661417322836
            }
          ],
          "93": [
            {
              "number": 93,
              "ticks": 200,
              "time": 0.9803916666666668,
              "value": 0.1889763779527559
            }
          ]
        },
        "pitchBends": [],
        "instrument": {
          "family": "guitar",
          "number": 25,
          "name": "acoustic guitar (steel)"
        },
        "name": "",
        "notes": [
          {
            "duration": 1.1078425833333334,
            "durationTicks": 226,
            "midi": 58,
            "name": "A#3",
            "ticks": 3312,
            "time": 16.235286000000002,
            "velocity": 0.6535433070866141
          },
          {
            "duration": 0.9950975416666665,
            "durationTicks": 203,
            "midi": 61,
            "name": "C#4",
            "ticks": 3320,
            "time": 16.27450166666667,
            "velocity": 0.6535433070866141
          },
          {
            "duration": 0.8774505416666649,
            "durationTicks": 179,
            "midi": 65,
            "name": "F4",
            "ticks": 3333,
            "time": 16.338227125000003,
            "velocity": 0.6535433070866141
          },
          {
            "duration": 0.8137250833333312,
            "durationTicks": 166,
            "midi": 70,
            "name": "A#4",
            "ticks": 3348,
            "time": 16.411756500000003,
            "velocity": 0.6535433070866141
          },
          {
            "duration": 0.9558818749999958,
            "durationTicks": 195,
            "midi": 54,
            "name": "F#3",
            "ticks": 3572,
            "time": 17.50979516666667,
            "velocity": 0.6535433070866141
          },
          {
            "duration": 1.019607333333333,
            "durationTicks": 208,
            "midi": 58,
            "name": "A#3",
            "ticks": 3587,
            "time": 17.58332454166667,
            "velocity": 0.6535433070866141
          },
          {
            "duration": 0.9950975416666665,
            "durationTicks": 203,
            "midi": 61,
            "name": "C#4",
            "ticks": 3598,
            "time": 17.637246083333338,
            "velocity": 0.6535433070866141
          },
          {
            "duration": 0.9313720833333363,
            "durationTicks": 190,
            "midi": 66,
            "name": "F#4",
            "ticks": 3610,
            "time": 17.696069583333333,
            "velocity": 0.6535433070866141
          },
          {
            "duration": 1.0098034166666636,
            "durationTicks": 206,
            "midi": 56,
            "name": "G#3",
            "ticks": 3811,
            "time": 18.681363208333337,
            "velocity": 0.6535433070866141
          },
          {
            "duration": 0.9509799166666681,
            "durationTicks": 194,
            "midi": 60,
            "name": "C4",
            "ticks": 3818,
            "time": 18.715676916666666,
            "velocity": 0.6535433070866141
          },
          {
            "duration": 0.8284309583333282,
            "durationTicks": 169,
            "midi": 63,
            "name": "D#4",
            "ticks": 3837,
            "time": 18.808814125000005,
            "velocity": 0.6535433070866141
          },
          {
            "duration": 0.7549015833333286,
            "durationTicks": 154,
            "midi": 68,
            "name": "G#4",
            "ticks": 3847,
            "time": 18.857833708333338,
            "velocity": 0.6535433070866141
          },
          {
            "duration": 0.9264701250000051,
            "durationTicks": 189,
            "midi": 53,
            "name": "F3",
            "ticks": 4046,
            "time": 19.833323416666666,
            "velocity": 0.6535433070866141
          },
          {
            "duration": 0.9117642500000009,
            "durationTicks": 186,
            "midi": 56,
            "name": "G#3",
            "ticks": 4053,
            "time": 19.867637125,
            "velocity": 0.6535433070866141
          },
          {
            "duration": 0.8382348749999977,
            "durationTicks": 171,
            "midi": 60,
            "name": "C4",
            "ticks": 4075,
            "time": 19.975480208333337,
            "velocity": 0.6535433070866141
          },
          {
            "duration": 0.7843133333333334,
            "durationTicks": 160,
            "midi": 65,
            "name": "F4",
            "ticks": 4091,
            "time": 20.05391154166667,
            "velocity": 0.6535433070866141
          },
          {
            "duration": 0.9460779583333334,
            "durationTicks": 193,
            "midi": 54,
            "name": "F#3",
            "ticks": 4292,
            "time": 21.03920516666667,
            "velocity": 0.6535433070866141
          },
          {
            "duration": 0.8823524999999997,
            "durationTicks": 180,
            "midi": 58,
            "name": "A#3",
            "ticks": 4307,
            "time": 21.11273454166667,
            "velocity": 0.6535433070866141
          },
          {
            "duration": 0.8578427083333331,
            "durationTicks": 175,
            "midi": 61,
            "name": "C#4",
            "ticks": 4323,
            "time": 21.191165875000003,
            "velocity": 0.6535433070866141
          },
          {
            "duration": 0.8284309583333354,
            "durationTicks": 169,
            "midi": 66,
            "name": "F#4",
            "ticks": 4335,
            "time": 21.249989375000002,
            "velocity": 0.6535433070866141
          },
          {
            "duration": 0.9754897083333347,
            "durationTicks": 199,
            "midi": 56,
            "name": "G#3",
            "ticks": 4525,
            "time": 22.181361458333335,
            "velocity": 0.6535433070866141
          },
          {
            "duration": 0.9607838333333341,
            "durationTicks": 196,
            "midi": 60,
            "name": "C4",
            "ticks": 4538,
            "time": 22.24508691666667,
            "velocity": 0.6535433070866141
          },
          {
            "duration": 0.9950975416666665,
            "durationTicks": 203,
            "midi": 63,
            "name": "D#4",
            "ticks": 4553,
            "time": 22.318616291666668,
            "velocity": 0.6535433070866141
          },
          {
            "duration": 0.926470124999998,
            "durationTicks": 189,
            "midi": 68,
            "name": "G#4",
            "ticks": 4575,
            "time": 22.426459375000004,
            "velocity": 0.6535433070866141
          },
          {
            "duration": 2.2205871250000015,
            "durationTicks": 453,
            "midi": 58,
            "name": "A#3",
            "ticks": 4761,
            "time": 23.338223625,
            "velocity": 0.6535433070866141
          },
          {
            "duration": 2.12744991666667,
            "durationTicks": 434,
            "midi": 61,
            "name": "C#4",
            "ticks": 4782,
            "time": 23.441164750000002,
            "velocity": 0.6535433070866141
          },
          {
            "duration": 2.0490185833333356,
            "durationTicks": 418,
            "midi": 65,
            "name": "F4",
            "ticks": 4796,
            "time": 23.509792166666667,
            "velocity": 0.6535433070866141
          },
          {
            "duration": 1.931371583333334,
            "durationTicks": 394,
            "midi": 70,
            "name": "A#4",
            "ticks": 4815,
            "time": 23.602929375000002,
            "velocity": 0.6535433070866141
          },
          {
            "duration": 1.1029406249999987,
            "durationTicks": 225,
            "midi": 58,
            "name": "A#3",
            "ticks": 5250,
            "time": 25.735281250000003,
            "velocity": 0.6535433070866141
          },
          {
            "duration": 0.9754897083333312,
            "durationTicks": 199,
            "midi": 61,
            "name": "C#4",
            "ticks": 5267,
            "time": 25.81861454166667,
            "velocity": 0.6535433070866141
          },
          {
            "duration": 0.8578427083333331,
            "durationTicks": 175,
            "midi": 65,
            "name": "F4",
            "ticks": 5278,
            "time": 25.872536083333337,
            "velocity": 0.6535433070866141
          },
          {
            "duration": 0.7598035416666633,
            "durationTicks": 155,
            "midi": 70,
            "name": "A#4",
            "ticks": 5296,
            "time": 25.960771333333337,
            "velocity": 0.6535433070866141
          },
          {
            "duration": 0.9705877500000035,
            "durationTicks": 198,
            "midi": 54,
            "name": "F#3",
            "ticks": 5497,
            "time": 26.946064958333334,
            "velocity": 0.6535433070866141
          },
          {
            "duration": 1.004901458333336,
            "durationTicks": 205,
            "midi": 58,
            "name": "A#3",
            "ticks": 5503,
            "time": 26.975476708333336,
            "velocity": 0.6535433070866141
          },
          {
            "duration": 0.97058775,
            "durationTicks": 198,
            "midi": 61,
            "name": "C#4",
            "ticks": 5521,
            "time": 27.063711958333336,
            "velocity": 0.6535433070866141
          },
          {
            "duration": 0.9264701250000016,
            "durationTicks": 189,
            "midi": 66,
            "name": "F#4",
            "ticks": 5536,
            "time": 27.137241333333336,
            "velocity": 0.6535433070866141
          },
          {
            "duration": 1.0539210416666656,
            "durationTicks": 215,
            "midi": 56,
            "name": "G#3",
            "ticks": 5728,
            "time": 28.078417333333338,
            "velocity": 0.6535433070866141
          },
          {
            "duration": 0.995097541666663,
            "durationTicks": 203,
            "midi": 60,
            "name": "C4",
            "ticks": 5741,
            "time": 28.14214279166667,
            "velocity": 0.6535433070866141
          },
          {
            "duration": 0.926470124999998,
            "durationTicks": 189,
            "midi": 63,
            "name": "D#4",
            "ticks": 5757,
            "time": 28.220574125000002,
            "velocity": 0.6535433070866141
          },
          {
            "duration": 0.8235289999999971,
            "durationTicks": 168,
            "midi": 68,
            "name": "G#4",
            "ticks": 5776,
            "time": 28.313711333333337,
            "velocity": 0.6535433070866141
          },
          {
            "duration": 0.936274041666664,
            "durationTicks": 191,
            "midi": 53,
            "name": "F3",
            "ticks": 5978,
            "time": 29.303906916666673,
            "velocity": 0.6535433070866141
          },
          {
            "duration": 0.9509799166666681,
            "durationTicks": 194,
            "midi": 56,
            "name": "G#3",
            "ticks": 5985,
            "time": 29.338220625,
            "velocity": 0.6535433070866141
          },
          {
            "duration": 0.9264701250000016,
            "durationTicks": 189,
            "midi": 60,
            "name": "C4",
            "ticks": 6003,
            "time": 29.426455875000002,
            "velocity": 0.6535433070866141
          },
          {
            "duration": 0.8872544583333308,
            "durationTicks": 181,
            "midi": 65,
            "name": "F4",
            "ticks": 6017,
            "time": 29.49508329166667,
            "velocity": 0.6535433070866141
          },
          {
            "duration": 1.0784308333333357,
            "durationTicks": 220,
            "midi": 54,
            "name": "F#3",
            "ticks": 6202,
            "time": 30.401945583333333,
            "velocity": 0.6535433070866141
          },
          {
            "duration": 1.0588230000000003,
            "durationTicks": 216,
            "midi": 58,
            "name": "A#3",
            "ticks": 6218,
            "time": 30.48037691666667,
            "velocity": 0.6535433070866141
          },
          {
            "duration": 1.0294112500000026,
            "durationTicks": 210,
            "midi": 61,
            "name": "C#4",
            "ticks": 6233,
            "time": 30.55390629166667,
            "velocity": 0.6535433070866141
          },
          {
            "duration": 1.0049014583333324,
            "durationTicks": 205,
            "midi": 66,
            "name": "F#4",
            "ticks": 6243,
            "time": 30.602925875000004,
            "velocity": 0.6535433070866141
          },
          {
            "duration": 0.8627446666666714,
            "durationTicks": 176,
            "midi": 56,
            "name": "G#3",
            "ticks": 6451,
            "time": 31.622533208333337,
            "velocity": 0.6535433070866141
          },
          {
            "duration": 0.9558818750000029,
            "durationTicks": 195,
            "midi": 60,
            "name": "C4",
            "ticks": 6465,
            "time": 31.691160625000002,
            "velocity": 0.6535433070866141
          },
          {
            "duration": 0.9117642500000009,
            "durationTicks": 186,
            "midi": 63,
            "name": "D#4",
            "ticks": 6478,
            "time": 31.754886083333336,
            "velocity": 0.6535433070866141
          },
          {
            "duration": 0.9313720833333292,
            "durationTicks": 190,
            "midi": 68,
            "name": "G#4",
            "ticks": 6493,
            "time": 31.82841545833334,
            "velocity": 0.6535433070866141
          },
          {
            "duration": 2.4068615416666717,
            "durationTicks": 491,
            "midi": 58,
            "name": "A#3",
            "ticks": 6675,
            "time": 32.720571875000005,
            "velocity": 0.6535433070866141
          },
          {
            "duration": 2.318626291666668,
            "durationTicks": 473,
            "midi": 61,
            "name": "C#4",
            "ticks": 6695,
            "time": 32.81861104166667,
            "velocity": 0.6535433070866141
          },
          {
            "duration": 2.2205871250000087,
            "durationTicks": 453,
            "midi": 65,
            "name": "F4",
            "ticks": 6711,
            "time": 32.897042375,
            "velocity": 0.6535433070866141
          },
          {
            "duration": 2.181371458333331,
            "durationTicks": 445,
            "midi": 70,
            "name": "A#4",
            "ticks": 6718,
            "time": 32.93135608333334,
            "velocity": 0.6535433070866141
          },
          {
            "duration": 0.36274491666666364,
            "durationTicks": 74,
            "midi": 65,
            "name": "F4",
            "ticks": 9116,
            "time": 44.68625216666667,
            "velocity": 0.6535433070866141
          },
          {
            "duration": 0.36274491666666364,
            "durationTicks": 74,
            "midi": 61,
            "name": "C#4",
            "ticks": 9116,
            "time": 44.68625216666667,
            "velocity": 0.6535433070866141
          },
          {
            "duration": 0.36274491666666364,
            "durationTicks": 74,
            "midi": 58,
            "name": "A#3",
            "ticks": 9116,
            "time": 44.68625216666667,
            "velocity": 0.6535433070866141
          },
          {
            "duration": 0.08823525000000387,
            "durationTicks": 18,
            "midi": 61,
            "name": "C#4",
            "ticks": 9205,
            "time": 45.12252645833333,
            "velocity": 0.6535433070866141
          },
          {
            "duration": 0.08823525000000387,
            "durationTicks": 18,
            "midi": 58,
            "name": "A#3",
            "ticks": 9205,
            "time": 45.12252645833333,
            "velocity": 0.6535433070866141
          },
          {
            "duration": 0.08333329166666914,
            "durationTicks": 17,
            "midi": 65,
            "name": "F4",
            "ticks": 9205,
            "time": 45.12252645833333,
            "velocity": 0.6535433070866141
          },
          {
            "duration": 0.357842958333336,
            "durationTicks": 73,
            "midi": 58,
            "name": "A#3",
            "ticks": 9596,
            "time": 47.03919216666667,
            "velocity": 0.6535433070866141
          },
          {
            "duration": 0.3529409999999942,
            "durationTicks": 72,
            "midi": 61,
            "name": "C#4",
            "ticks": 9596,
            "time": 47.03919216666667,
            "velocity": 0.6535433070866141
          },
          {
            "duration": 0.3431370833333318,
            "durationTicks": 70,
            "midi": 65,
            "name": "F4",
            "ticks": 9596,
            "time": 47.03919216666667,
            "velocity": 0.6535433070866141
          },
          {
            "duration": 0.10294112500000807,
            "durationTicks": 21,
            "midi": 58,
            "name": "A#3",
            "ticks": 9685,
            "time": 47.47546645833334,
            "velocity": 0.6535433070866141
          },
          {
            "duration": 0.07843133333334151,
            "durationTicks": 16,
            "midi": 61,
            "name": "C#4",
            "ticks": 9687,
            "time": 47.485270375,
            "velocity": 0.6535433070866141
          },
          {
            "duration": 0.06862741666665784,
            "durationTicks": 14,
            "midi": 65,
            "name": "F4",
            "ticks": 9688,
            "time": 47.49017233333334,
            "velocity": 0.6535433070866141
          },
          {
            "duration": 0.19607833333333247,
            "durationTicks": 40,
            "midi": 80,
            "name": "G#5",
            "ticks": 9899,
            "time": 48.52448554166667,
            "velocity": 0.5905511811023622
          },
          {
            "duration": 0.14705874999999935,
            "durationTicks": 30,
            "midi": 77,
            "name": "F5",
            "ticks": 9899,
            "time": 48.52448554166667,
            "velocity": 0.7086614173228346
          },
          {
            "duration": 0.14705874999999935,
            "durationTicks": 30,
            "midi": 78,
            "name": "F#5",
            "ticks": 9929,
            "time": 48.67154429166667,
            "velocity": 0.6692913385826772
          },
          {
            "duration": 0.2941174999999987,
            "durationTicks": 60,
            "midi": 80,
            "name": "G#5",
            "ticks": 9959,
            "time": 48.81860304166667,
            "velocity": 0.5905511811023622
          },
          {
            "duration": 0.14705874999999935,
            "durationTicks": 30,
            "midi": 77,
            "name": "F5",
            "ticks": 9959,
            "time": 48.81860304166667,
            "velocity": 0.7086614173228346
          },
          {
            "duration": 0.14705874999999935,
            "durationTicks": 30,
            "midi": 75,
            "name": "D#5",
            "ticks": 9989,
            "time": 48.96566179166667,
            "velocity": 0.5905511811023622
          },
          {
            "duration": 0.14705874999999935,
            "durationTicks": 30,
            "midi": 73,
            "name": "C#5",
            "ticks": 10019,
            "time": 49.11272054166667,
            "velocity": 0.5118110236220472
          },
          {
            "duration": 0.14705874999999935,
            "durationTicks": 30,
            "midi": 72,
            "name": "C5",
            "ticks": 10049,
            "time": 49.25977929166667,
            "velocity": 0.3937007874015748
          },
          {
            "duration": 0.34803904166666655,
            "durationTicks": 71,
            "midi": 58,
            "name": "A#3",
            "ticks": 10075,
            "time": 49.387230208333335,
            "velocity": 0.6535433070866141
          },
          {
            "duration": 0.34803904166666655,
            "durationTicks": 71,
            "midi": 65,
            "name": "F4",
            "ticks": 10075,
            "time": 49.387230208333335,
            "velocity": 0.6535433070866141
          },
          {
            "duration": 0.34803904166666655,
            "durationTicks": 71,
            "midi": 61,
            "name": "C#4",
            "ticks": 10075,
            "time": 49.387230208333335,
            "velocity": 0.6535433070866141
          },
          {
            "duration": 0.11274504166667754,
            "durationTicks": 23,
            "midi": 65,
            "name": "F4",
            "ticks": 10165,
            "time": 49.82840645833333,
            "velocity": 0.6535433070866141
          },
          {
            "duration": 0.10294112500000807,
            "durationTicks": 21,
            "midi": 61,
            "name": "C#4",
            "ticks": 10165,
            "time": 49.82840645833333,
            "velocity": 0.6535433070866141
          },
          {
            "duration": 0.10294112499999386,
            "durationTicks": 21,
            "midi": 58,
            "name": "A#3",
            "ticks": 10166,
            "time": 49.833308416666675,
            "velocity": 0.6535433070866141
          },
          {
            "duration": 0.14705875000000646,
            "durationTicks": 30,
            "midi": 77,
            "name": "F5",
            "ticks": 10499,
            "time": 51.465660541666665,
            "velocity": 0.7086614173228346
          },
          {
            "duration": 0.32352925,
            "durationTicks": 66,
            "midi": 65,
            "name": "F4",
            "ticks": 10553,
            "time": 51.73036629166667,
            "velocity": 0.6535433070866141
          },
          {
            "duration": 0.3431370833333389,
            "durationTicks": 70,
            "midi": 58,
            "name": "A#3",
            "ticks": 10553,
            "time": 51.73036629166667,
            "velocity": 0.6535433070866141
          },
          {
            "duration": 0.3431370833333389,
            "durationTicks": 70,
            "midi": 61,
            "name": "C#4",
            "ticks": 10553,
            "time": 51.73036629166667,
            "velocity": 0.6535433070866141
          },
          {
            "duration": 0.09803916666666623,
            "durationTicks": 20,
            "midi": 61,
            "name": "C#4",
            "ticks": 10645,
            "time": 52.18134645833334,
            "velocity": 0.6535433070866141
          },
          {
            "duration": 0.10294112500000807,
            "durationTicks": 21,
            "midi": 65,
            "name": "F4",
            "ticks": 10645,
            "time": 52.18134645833334,
            "velocity": 0.6535433070866141
          },
          {
            "duration": 0.09803916666666623,
            "durationTicks": 20,
            "midi": 58,
            "name": "A#3",
            "ticks": 10645,
            "time": 52.18134645833334,
            "velocity": 0.6535433070866141
          },
          {
            "duration": 0.19607833333333247,
            "durationTicks": 40,
            "midi": 80,
            "name": "G#5",
            "ticks": 10859,
            "time": 53.23036554166667,
            "velocity": 0.5905511811023622
          },
          {
            "duration": 0.14705874999999935,
            "durationTicks": 30,
            "midi": 77,
            "name": "F5",
            "ticks": 10859,
            "time": 53.23036554166667,
            "velocity": 0.7086614173228346
          },
          {
            "duration": 0.14705874999999935,
            "durationTicks": 30,
            "midi": 78,
            "name": "F#5",
            "ticks": 10889,
            "time": 53.37742429166667,
            "velocity": 0.6692913385826772
          },
          {
            "duration": 0.2941174999999987,
            "durationTicks": 60,
            "midi": 80,
            "name": "G#5",
            "ticks": 10919,
            "time": 53.52448304166667,
            "velocity": 0.5905511811023622
          },
          {
            "duration": 0.14705874999999935,
            "durationTicks": 30,
            "midi": 77,
            "name": "F5",
            "ticks": 10919,
            "time": 53.52448304166667,
            "velocity": 0.7086614173228346
          },
          {
            "duration": 0.14705874999999935,
            "durationTicks": 30,
            "midi": 75,
            "name": "D#5",
            "ticks": 10949,
            "time": 53.67154179166667,
            "velocity": 0.5118110236220472
          },
          {
            "duration": 0.14705874999999935,
            "durationTicks": 30,
            "midi": 73,
            "name": "C#5",
            "ticks": 10979,
            "time": 53.81860054166667,
            "velocity": 0.6299212598425197
          },
          {
            "duration": 0.14705874999999935,
            "durationTicks": 30,
            "midi": 72,
            "name": "C5",
            "ticks": 11009,
            "time": 53.96565929166667,
            "velocity": 0.3937007874015748
          },
          {
            "duration": 0.3382351249999971,
            "durationTicks": 69,
            "midi": 65,
            "name": "F4",
            "ticks": 11033,
            "time": 54.08330629166667,
            "velocity": 0.6535433070866141
          },
          {
            "duration": 0.3431370833333389,
            "durationTicks": 70,
            "midi": 58,
            "name": "A#3",
            "ticks": 11033,
            "time": 54.08330629166667,
            "velocity": 0.6535433070866141
          },
          {
            "duration": 0.3382351249999971,
            "durationTicks": 69,
            "midi": 61,
            "name": "C#4",
            "ticks": 11033,
            "time": 54.08330629166667,
            "velocity": 0.6535433070866141
          },
          {
            "duration": 0.34803904166666655,
            "durationTicks": 71,
            "midi": 58,
            "name": "A#3",
            "ticks": 11035,
            "time": 54.093110208333336,
            "velocity": 0.6535433070866141
          },
          {
            "duration": 0.34803904166666655,
            "durationTicks": 71,
            "midi": 65,
            "name": "F4",
            "ticks": 11035,
            "time": 54.093110208333336,
            "velocity": 0.6535433070866141
          },
          {
            "duration": 0.34803904166666655,
            "durationTicks": 71,
            "midi": 61,
            "name": "C#4",
            "ticks": 11035,
            "time": 54.093110208333336,
            "velocity": 0.6535433070866141
          },
          {
            "duration": 0.08823525000000387,
            "durationTicks": 18,
            "midi": 61,
            "name": "C#4",
            "ticks": 11125,
            "time": 54.534286458333334,
            "velocity": 0.6535433070866141
          },
          {
            "duration": 0.10294112500000807,
            "durationTicks": 21,
            "midi": 65,
            "name": "F4",
            "ticks": 11125,
            "time": 54.534286458333334,
            "velocity": 0.6535433070866141
          },
          {
            "duration": 0.08823524999998966,
            "durationTicks": 18,
            "midi": 58,
            "name": "A#3",
            "ticks": 11126,
            "time": 54.539188416666676,
            "velocity": 0.6535433070866141
          },
          {
            "duration": 0.3431370833333389,
            "durationTicks": 70,
            "midi": 61,
            "name": "C#4",
            "ticks": 11515,
            "time": 56.44605020833334,
            "velocity": 0.6535433070866141
          },
          {
            "duration": 0.3382351250000042,
            "durationTicks": 69,
            "midi": 65,
            "name": "F4",
            "ticks": 11516,
            "time": 56.450952166666674,
            "velocity": 0.6535433070866141
          },
          {
            "duration": 0.3431370833333318,
            "durationTicks": 70,
            "midi": 58,
            "name": "A#3",
            "ticks": 11516,
            "time": 56.450952166666674,
            "velocity": 0.6535433070866141
          },
          {
            "duration": 0.12254895833333279,
            "durationTicks": 25,
            "midi": 65,
            "name": "F4",
            "ticks": 11602,
            "time": 56.87252058333334,
            "velocity": 0.6535433070866141
          },
          {
            "duration": 0.12254895833333279,
            "durationTicks": 25,
            "midi": 58,
            "name": "A#3",
            "ticks": 11602,
            "time": 56.87252058333334,
            "velocity": 0.6535433070866141
          },
          {
            "duration": 0.11764700000000516,
            "durationTicks": 24,
            "midi": 61,
            "name": "C#4",
            "ticks": 11602,
            "time": 56.87252058333334,
            "velocity": 0.6535433070866141
          },
          {
            "duration": 0.14705874999999935,
            "durationTicks": 30,
            "midi": 77,
            "name": "F5",
            "ticks": 11939,
            "time": 58.52448054166667,
            "velocity": 0.7086614173228346
          },
          {
            "duration": 0.36274491666667075,
            "durationTicks": 74,
            "midi": 58,
            "name": "A#3",
            "ticks": 11995,
            "time": 58.798990208333336,
            "velocity": 0.6535433070866141
          },
          {
            "duration": 0.34803904166666655,
            "durationTicks": 71,
            "midi": 65,
            "name": "F4",
            "ticks": 11995,
            "time": 58.798990208333336,
            "velocity": 0.6535433070866141
          },
          {
            "duration": 0.357842958333336,
            "durationTicks": 73,
            "midi": 61,
            "name": "C#4",
            "ticks": 11995,
            "time": 58.798990208333336,
            "velocity": 0.6535433070866141
          },
          {
            "duration": 0.11764699999999806,
            "durationTicks": 24,
            "midi": 65,
            "name": "F4",
            "ticks": 12087,
            "time": 59.249970375000004,
            "velocity": 0.6535433070866141
          },
          {
            "duration": 0.11274504166666333,
            "durationTicks": 23,
            "midi": 58,
            "name": "A#3",
            "ticks": 12088,
            "time": 59.25487233333334,
            "velocity": 0.6535433070866141
          },
          {
            "duration": 0.09803916666667334,
            "durationTicks": 20,
            "midi": 61,
            "name": "C#4",
            "ticks": 12088,
            "time": 59.25487233333334,
            "velocity": 0.6535433070866141
          },
          {
            "duration": 0.14705875000000646,
            "durationTicks": 30,
            "midi": 77,
            "name": "F5",
            "ticks": 12419,
            "time": 60.877420541666666,
            "velocity": 0.7086614173228346
          },
          {
            "duration": 0.33333316666666946,
            "durationTicks": 68,
            "midi": 61,
            "name": "C#4",
            "ticks": 12478,
            "time": 61.16663608333334,
            "velocity": 0.6535433070866141
          },
          {
            "duration": 0.33333316666666946,
            "durationTicks": 68,
            "midi": 65,
            "name": "F4",
            "ticks": 12478,
            "time": 61.16663608333334,
            "velocity": 0.6535433070866141
          },
          {
            "duration": 0.33333316666666946,
            "durationTicks": 68,
            "midi": 58,
            "name": "A#3",
            "ticks": 12478,
            "time": 61.16663608333334,
            "velocity": 0.6535433070866141
          },
          {
            "duration": 0.11274504166667754,
            "durationTicks": 23,
            "midi": 65,
            "name": "F4",
            "ticks": 12563,
            "time": 61.58330254166667,
            "velocity": 0.6535433070866141
          },
          {
            "duration": 0.09803916666666623,
            "durationTicks": 20,
            "midi": 58,
            "name": "A#3",
            "ticks": 12565,
            "time": 61.59310645833334,
            "velocity": 0.6535433070866141
          },
          {
            "duration": 0.09803916666666623,
            "durationTicks": 20,
            "midi": 61,
            "name": "C#4",
            "ticks": 12565,
            "time": 61.59310645833334,
            "velocity": 0.6535433070866141
          },
          {
            "duration": 0.19607833333333247,
            "durationTicks": 40,
            "midi": 80,
            "name": "G#5",
            "ticks": 12779,
            "time": 62.64212554166667,
            "velocity": 0.5905511811023622
          },
          {
            "duration": 0.14705874999999935,
            "durationTicks": 30,
            "midi": 77,
            "name": "F5",
            "ticks": 12779,
            "time": 62.64212554166667,
            "velocity": 0.7086614173228346
          },
          {
            "duration": 0.14705874999999935,
            "durationTicks": 30,
            "midi": 78,
            "name": "F#5",
            "ticks": 12809,
            "time": 62.78918429166667,
            "velocity": 0.6692913385826772
          },
          {
            "duration": 0.2941174999999987,
            "durationTicks": 60,
            "midi": 80,
            "name": "G#5",
            "ticks": 12839,
            "time": 62.93624304166667,
            "velocity": 0.5905511811023622
          },
          {
            "duration": 0.14705874999999935,
            "durationTicks": 30,
            "midi": 77,
            "name": "F5",
            "ticks": 12839,
            "time": 62.93624304166667,
            "velocity": 0.7086614173228346
          },
          {
            "duration": 0.14705874999999935,
            "durationTicks": 30,
            "midi": 75,
            "name": "D#5",
            "ticks": 12869,
            "time": 63.08330179166667,
            "velocity": 0.5905511811023622
          },
          {
            "duration": 0.14705874999999935,
            "durationTicks": 30,
            "midi": 73,
            "name": "C#5",
            "ticks": 12899,
            "time": 63.23036054166667,
            "velocity": 0.5118110236220472
          },
          {
            "duration": 0.14705874999999935,
            "durationTicks": 30,
            "midi": 72,
            "name": "C5",
            "ticks": 12929,
            "time": 63.37741929166667,
            "velocity": 0.3937007874015748
          },
          {
            "duration": 0.47058799999999934,
            "durationTicks": 96,
            "midi": 58,
            "name": "A#3",
            "ticks": 12930,
            "time": 63.382321250000004,
            "velocity": 0.6535433070866141
          },
          {
            "duration": 0.4215684166666662,
            "durationTicks": 86,
            "midi": 61,
            "name": "C#4",
            "ticks": 12940,
            "time": 63.43134083333334,
            "velocity": 0.6535433070866141
          },
          {
            "duration": 0.852940750000009,
            "durationTicks": 174,
            "midi": 58,
            "name": "A#3",
            "ticks": 12955,
            "time": 63.50487020833334,
            "velocity": 0.6535433070866141
          },
          {
            "duration": 0.34803904166666655,
            "durationTicks": 71,
            "midi": 65,
            "name": "F4",
            "ticks": 12955,
            "time": 63.50487020833334,
            "velocity": 0.6535433070866141
          },
          {
            "duration": 0.8333329166666701,
            "durationTicks": 170,
            "midi": 61,
            "name": "C#4",
            "ticks": 12955,
            "time": 63.50487020833334,
            "velocity": 0.6535433070866141
          },
          {
            "duration": 0.8039211666666617,
            "durationTicks": 164,
            "midi": 70,
            "name": "A#4",
            "ticks": 12956,
            "time": 63.50977216666667,
            "velocity": 0.6535433070866141
          },
          {
            "duration": 1.0098034166666565,
            "durationTicks": 206,
            "midi": 54,
            "name": "F#3",
            "ticks": 13160,
            "time": 64.50977166666668,
            "velocity": 0.6535433070866141
          },
          {
            "duration": 0.9803916666666623,
            "durationTicks": 200,
            "midi": 58,
            "name": "A#3",
            "ticks": 13168,
            "time": 64.54898733333334,
            "velocity": 0.6535433070866141
          },
          {
            "duration": 0.9215681666666597,
            "durationTicks": 188,
            "midi": 61,
            "name": "C#4",
            "ticks": 13187,
            "time": 64.64212454166667,
            "velocity": 0.6535433070866141
          },
          {
            "duration": 0.8774505416666756,
            "durationTicks": 179,
            "midi": 66,
            "name": "F#4",
            "ticks": 13195,
            "time": 64.68134020833334,
            "velocity": 0.6535433070866141
          },
          {
            "duration": 1.0980386666666817,
            "durationTicks": 224,
            "midi": 56,
            "name": "G#3",
            "ticks": 13401,
            "time": 65.691143625,
            "velocity": 0.6535433070866141
          },
          {
            "duration": 0.9362740416666497,
            "durationTicks": 191,
            "midi": 60,
            "name": "C4",
            "ticks": 13417,
            "time": 65.76957495833335,
            "velocity": 0.6535433070866141
          },
          {
            "duration": 0.9313720833333292,
            "durationTicks": 190,
            "midi": 63,
            "name": "D#4",
            "ticks": 13433,
            "time": 65.84800629166668,
            "velocity": 0.6535433070866141
          },
          {
            "duration": 0.8823524999999961,
            "durationTicks": 180,
            "midi": 53,
            "name": "F3",
            "ticks": 13657,
            "time": 66.94604495833335,
            "velocity": 0.6535433070866141
          },
          {
            "duration": 0.8333329166666772,
            "durationTicks": 170,
            "midi": 56,
            "name": "G#3",
            "ticks": 13673,
            "time": 67.02447629166667,
            "velocity": 0.6535433070866141
          },
          {
            "duration": 0.7990192083333341,
            "durationTicks": 163,
            "midi": 60,
            "name": "C4",
            "ticks": 13696,
            "time": 67.13722133333334,
            "velocity": 0.6535433070866141
          },
          {
            "duration": 1.024509291666675,
            "durationTicks": 209,
            "midi": 54,
            "name": "F#3",
            "ticks": 13890,
            "time": 68.08820125,
            "velocity": 0.6535433070866141
          },
          {
            "duration": 0.9264701249999945,
            "durationTicks": 189,
            "midi": 58,
            "name": "A#3",
            "ticks": 13910,
            "time": 68.18624041666668,
            "velocity": 0.6535433070866141
          },
          {
            "duration": 0.8774505416666756,
            "durationTicks": 179,
            "midi": 61,
            "name": "C#4",
            "ticks": 13928,
            "time": 68.27447566666667,
            "velocity": 0.6535433070866141
          },
          {
            "duration": 0.9558818749999887,
            "durationTicks": 195,
            "midi": 56,
            "name": "G#3",
            "ticks": 14146,
            "time": 69.34310258333335,
            "velocity": 0.6535433070866141
          },
          {
            "duration": 1.0098034166666707,
            "durationTicks": 206,
            "midi": 60,
            "name": "C4",
            "ticks": 14153,
            "time": 69.37741629166666,
            "velocity": 0.6535433070866141
          },
          {
            "duration": 0.9362740416666782,
            "durationTicks": 191,
            "midi": 63,
            "name": "D#4",
            "ticks": 14170,
            "time": 69.46074958333332,
            "velocity": 0.6535433070866141
          },
          {
            "duration": 2.1715675416666613,
            "durationTicks": 443,
            "midi": 58,
            "name": "A#3",
            "ticks": 14371,
            "time": 70.44604320833335,
            "velocity": 0.6535433070866141
          },
          {
            "duration": 2.161763624999992,
            "durationTicks": 441,
            "midi": 61,
            "name": "C#4",
            "ticks": 14385,
            "time": 70.51467062500001,
            "velocity": 0.6535433070866141
          },
          {
            "duration": 1.9656852916666594,
            "durationTicks": 401,
            "midi": 65,
            "name": "F4",
            "ticks": 14410,
            "time": 70.63721958333335,
            "velocity": 0.6535433070866141
          },
          {
            "duration": 1.1470582500000148,
            "durationTicks": 234,
            "midi": 58,
            "name": "A#3",
            "ticks": 14852,
            "time": 72.80388516666667,
            "velocity": 0.6535433070866141
          },
          {
            "duration": 1.0931367083333328,
            "durationTicks": 223,
            "midi": 61,
            "name": "C#4",
            "ticks": 14868,
            "time": 72.8823165,
            "velocity": 0.6535433070866141
          },
          {
            "duration": 1.1078425833333085,
            "durationTicks": 226,
            "midi": 65,
            "name": "F4",
            "ticks": 14878,
            "time": 72.93133608333335,
            "velocity": 0.6535433070866141
          },
          {
            "duration": 1.0098034166666707,
            "durationTicks": 206,
            "midi": 54,
            "name": "F#3",
            "ticks": 15093,
            "time": 73.985257125,
            "velocity": 0.6535433070866141
          },
          {
            "duration": 0.9460779583333476,
            "durationTicks": 193,
            "midi": 58,
            "name": "A#3",
            "ticks": 15110,
            "time": 74.06859041666667,
            "velocity": 0.6535433070866141
          },
          {
            "duration": 1.078430833333357,
            "durationTicks": 220,
            "midi": 61,
            "name": "C#4",
            "ticks": 15126,
            "time": 74.14702175,
            "velocity": 0.6535433070866141
          },
          {
            "duration": 1.1176465000000064,
            "durationTicks": 228,
            "midi": 56,
            "name": "G#3",
            "ticks": 15336,
            "time": 75.176433,
            "velocity": 0.6535433070866141
          },
          {
            "duration": 1.0294112499999812,
            "durationTicks": 210,
            "midi": 60,
            "name": "C4",
            "ticks": 15345,
            "time": 75.22055062500002,
            "velocity": 0.6535433070866141
          },
          {
            "duration": 0.9117642500000045,
            "durationTicks": 186,
            "midi": 63,
            "name": "D#4",
            "ticks": 15367,
            "time": 75.32839370833335,
            "velocity": 0.6535433070866141
          },
          {
            "duration": 0.9607838333333234,
            "durationTicks": 196,
            "midi": 53,
            "name": "F3",
            "ticks": 15575,
            "time": 76.34800104166669,
            "velocity": 0.6535433070866141
          },
          {
            "duration": 0.9313720833333434,
            "durationTicks": 190,
            "midi": 56,
            "name": "G#3",
            "ticks": 15586,
            "time": 76.40192258333335,
            "velocity": 0.6535433070866141
          },
          {
            "duration": 1.024509291666675,
            "durationTicks": 209,
            "midi": 60,
            "name": "C4",
            "ticks": 15600,
            "time": 76.47055,
            "velocity": 0.6535433070866141
          },
          {
            "duration": 1.024509291666675,
            "durationTicks": 209,
            "midi": 54,
            "name": "F#3",
            "ticks": 15808,
            "time": 77.49015733333334,
            "velocity": 0.6535433070866141
          },
          {
            "duration": 1.0686269166666875,
            "durationTicks": 218,
            "midi": 58,
            "name": "A#3",
            "ticks": 15822,
            "time": 77.55878475,
            "velocity": 0.6535433070866141
          },
          {
            "duration": 0.9607838333333518,
            "durationTicks": 196,
            "midi": 61,
            "name": "C#4",
            "ticks": 15840,
            "time": 77.64702,
            "velocity": 0.6535433070866141
          },
          {
            "duration": 0.9754897083333276,
            "durationTicks": 199,
            "midi": 56,
            "name": "G#3",
            "ticks": 16051,
            "time": 78.68133320833334,
            "velocity": 0.6535433070866141
          },
          {
            "duration": 1.004901458333336,
            "durationTicks": 205,
            "midi": 60,
            "name": "C4",
            "ticks": 16068,
            "time": 78.7646665,
            "velocity": 0.6535433070866141
          },
          {
            "duration": 0.9705877499999929,
            "durationTicks": 198,
            "midi": 63,
            "name": "D#4",
            "ticks": 16088,
            "time": 78.86270566666667,
            "velocity": 0.6535433070866141
          },
          {
            "duration": 2.1568616666666856,
            "durationTicks": 440,
            "midi": 58,
            "name": "A#3",
            "ticks": 16291,
            "time": 79.85780320833334,
            "velocity": 0.6535433070866141
          },
          {
            "duration": 1.3431365833333473,
            "durationTicks": 274,
            "midi": 61,
            "name": "C#4",
            "ticks": 16305,
            "time": 79.926430625,
            "velocity": 0.6535433070866141
          },
          {
            "duration": 1.9019598333333363,
            "durationTicks": 388,
            "midi": 65,
            "name": "F4",
            "ticks": 16321,
            "time": 80.00486195833335,
            "velocity": 0.6535433070866141
          },
          {
            "duration": 0.343137083333346,
            "durationTicks": 70,
            "midi": 61,
            "name": "C#4",
            "ticks": 20630,
            "time": 101.12740041666666,
            "velocity": 0.6535433070866141
          },
          {
            "duration": 0.3235292500000071,
            "durationTicks": 66,
            "midi": 65,
            "name": "F4",
            "ticks": 20630,
            "time": 101.12740041666666,
            "velocity": 0.6535433070866141
          },
          {
            "duration": 0.3382351249999829,
            "durationTicks": 69,
            "midi": 58,
            "name": "A#3",
            "ticks": 20631,
            "time": 101.13230237500002,
            "velocity": 0.6535433070866141
          },
          {
            "duration": 0.10294112500000097,
            "durationTicks": 21,
            "midi": 58,
            "name": "A#3",
            "ticks": 20718,
            "time": 101.55877275,
            "velocity": 0.6535433070866141
          },
          {
            "duration": 0.09803916666666623,
            "durationTicks": 20,
            "midi": 61,
            "name": "C#4",
            "ticks": 20718,
            "time": 101.55877275,
            "velocity": 0.6535433070866141
          },
          {
            "duration": 0.10294112500000097,
            "durationTicks": 21,
            "midi": 65,
            "name": "F4",
            "ticks": 20718,
            "time": 101.55877275,
            "velocity": 0.6535433070866141
          },
          {
            "duration": 0.3088233750000029,
            "durationTicks": 63,
            "midi": 65,
            "name": "F4",
            "ticks": 21123,
            "time": 103.544065875,
            "velocity": 0.6535433070866141
          },
          {
            "duration": 0.3088233750000029,
            "durationTicks": 63,
            "midi": 58,
            "name": "A#3",
            "ticks": 21123,
            "time": 103.544065875,
            "velocity": 0.6535433070866141
          },
          {
            "duration": 0.3088233750000029,
            "durationTicks": 63,
            "midi": 61,
            "name": "C#4",
            "ticks": 21123,
            "time": 103.544065875,
            "velocity": 0.6535433070866141
          },
          {
            "duration": 0.07352937500002099,
            "durationTicks": 15,
            "midi": 61,
            "name": "C#4",
            "ticks": 21206,
            "time": 103.95092841666667,
            "velocity": 0.6535433070866141
          },
          {
            "duration": 0.08333329166666203,
            "durationTicks": 17,
            "midi": 58,
            "name": "A#3",
            "ticks": 21206,
            "time": 103.95092841666667,
            "velocity": 0.6535433070866141
          },
          {
            "duration": 0.0784313333333273,
            "durationTicks": 16,
            "midi": 65,
            "name": "F4",
            "ticks": 21207,
            "time": 103.955830375,
            "velocity": 0.6535433070866141
          },
          {
            "duration": 0.19607833333333247,
            "durationTicks": 40,
            "midi": 80,
            "name": "G#5",
            "ticks": 21419,
            "time": 104.99504554166668,
            "velocity": 0.5905511811023622
          },
          {
            "duration": 0.14705874999998514,
            "durationTicks": 30,
            "midi": 77,
            "name": "F5",
            "ticks": 21419,
            "time": 104.99504554166668,
            "velocity": 0.7086614173228346
          },
          {
            "duration": 0.14705875000001356,
            "durationTicks": 30,
            "midi": 78,
            "name": "F#5",
            "ticks": 21449,
            "time": 105.14210429166667,
            "velocity": 0.6692913385826772
          },
          {
            "duration": 0.2941174999999987,
            "durationTicks": 60,
            "midi": 80,
            "name": "G#5",
            "ticks": 21479,
            "time": 105.28916304166668,
            "velocity": 0.5905511811023622
          },
          {
            "duration": 0.14705875000001356,
            "durationTicks": 30,
            "midi": 77,
            "name": "F5",
            "ticks": 21479,
            "time": 105.28916304166668,
            "velocity": 0.7086614173228346
          },
          {
            "duration": 0.14705874999998514,
            "durationTicks": 30,
            "midi": 75,
            "name": "D#5",
            "ticks": 21509,
            "time": 105.4362217916667,
            "velocity": 0.5905511811023622
          },
          {
            "duration": 0.14705875000001356,
            "durationTicks": 30,
            "midi": 73,
            "name": "C#5",
            "ticks": 21539,
            "time": 105.58328054166668,
            "velocity": 0.5118110236220472
          },
          {
            "duration": 0.14705874999998514,
            "durationTicks": 30,
            "midi": 72,
            "name": "C5",
            "ticks": 21569,
            "time": 105.7303392916667,
            "velocity": 0.3937007874015748
          },
          {
            "duration": 0.3578429583333502,
            "durationTicks": 73,
            "midi": 58,
            "name": "A#3",
            "ticks": 21593,
            "time": 105.84798629166667,
            "velocity": 0.6535433070866141
          },
          {
            "duration": 0.343137083333346,
            "durationTicks": 70,
            "midi": 65,
            "name": "F4",
            "ticks": 21593,
            "time": 105.84798629166667,
            "velocity": 0.6535433070866141
          },
          {
            "duration": 0.34803904166668076,
            "durationTicks": 71,
            "midi": 61,
            "name": "C#4",
            "ticks": 21593,
            "time": 105.84798629166667,
            "velocity": 0.6535433070866141
          },
          {
            "duration": 0.34803904166668076,
            "durationTicks": 71,
            "midi": 58,
            "name": "A#3",
            "ticks": 21595,
            "time": 105.85779020833334,
            "velocity": 0.6535433070866141
          },
          {
            "duration": 0.34803904166668076,
            "durationTicks": 71,
            "midi": 65,
            "name": "F4",
            "ticks": 21595,
            "time": 105.85779020833334,
            "velocity": 0.6535433070866141
          },
          {
            "duration": 0.34803904166668076,
            "durationTicks": 71,
            "midi": 61,
            "name": "C#4",
            "ticks": 21595,
            "time": 105.85779020833334,
            "velocity": 0.6535433070866141
          },
          {
            "duration": 0.09803916666666623,
            "durationTicks": 20,
            "midi": 65,
            "name": "F4",
            "ticks": 21685,
            "time": 106.29896645833335,
            "velocity": 0.6535433070866141
          },
          {
            "duration": 0.08823524999999677,
            "durationTicks": 18,
            "midi": 61,
            "name": "C#4",
            "ticks": 21685,
            "time": 106.29896645833335,
            "velocity": 0.6535433070866141
          },
          {
            "duration": 0.08823524999999677,
            "durationTicks": 18,
            "midi": 58,
            "name": "A#3",
            "ticks": 21685,
            "time": 106.29896645833335,
            "velocity": 0.6535433070866141
          },
          {
            "duration": 0.14705875000001356,
            "durationTicks": 30,
            "midi": 77,
            "name": "F5",
            "ticks": 22019,
            "time": 107.93622054166667,
            "velocity": 0.7086614173228346
          },
          {
            "duration": 0.34803904166665234,
            "durationTicks": 71,
            "midi": 58,
            "name": "A#3",
            "ticks": 22075,
            "time": 108.21073020833336,
            "velocity": 0.6535433070866141
          },
          {
            "duration": 0.3431370833333176,
            "durationTicks": 70,
            "midi": 65,
            "name": "F4",
            "ticks": 22075,
            "time": 108.21073020833336,
            "velocity": 0.6535433070866141
          },
          {
            "duration": 0.3431370833333176,
            "durationTicks": 70,
            "midi": 61,
            "name": "C#4",
            "ticks": 22075,
            "time": 108.21073020833336,
            "velocity": 0.6535433070866141
          },
          {
            "duration": 0.0931372083333315,
            "durationTicks": 19,
            "midi": 61,
            "name": "C#4",
            "ticks": 22166,
            "time": 108.65680841666668,
            "velocity": 0.6535433070866141
          },
          {
            "duration": 0.08823524999999677,
            "durationTicks": 18,
            "midi": 58,
            "name": "A#3",
            "ticks": 22167,
            "time": 108.66171037500001,
            "velocity": 0.6535433070866141
          },
          {
            "duration": 0.08333329166666203,
            "durationTicks": 17,
            "midi": 65,
            "name": "F4",
            "ticks": 22167,
            "time": 108.66171037500001,
            "velocity": 0.6535433070866141
          },
          {
            "duration": 0.19607833333330404,
            "durationTicks": 40,
            "midi": 80,
            "name": "G#5",
            "ticks": 22379,
            "time": 109.70092554166669,
            "velocity": 0.5905511811023622
          },
          {
            "duration": 0.14705874999998514,
            "durationTicks": 30,
            "midi": 77,
            "name": "F5",
            "ticks": 22379,
            "time": 109.70092554166669,
            "velocity": 0.7086614173228346
          },
          {
            "duration": 0.14705875000001356,
            "durationTicks": 30,
            "midi": 78,
            "name": "F#5",
            "ticks": 22409,
            "time": 109.84798429166668,
            "velocity": 0.6692913385826772
          },
          {
            "duration": 0.2941174999999987,
            "durationTicks": 60,
            "midi": 80,
            "name": "G#5",
            "ticks": 22439,
            "time": 109.99504304166669,
            "velocity": 0.5905511811023622
          },
          {
            "duration": 0.14705874999998514,
            "durationTicks": 30,
            "midi": 77,
            "name": "F5",
            "ticks": 22439,
            "time": 109.99504304166669,
            "velocity": 0.7086614173228346
          },
          {
            "duration": 0.14705875000001356,
            "durationTicks": 30,
            "midi": 75,
            "name": "D#5",
            "ticks": 22469,
            "time": 110.14210179166668,
            "velocity": 0.5905511811023622
          },
          {
            "duration": 0.14705874999998514,
            "durationTicks": 30,
            "midi": 73,
            "name": "C#5",
            "ticks": 22499,
            "time": 110.28916054166669,
            "velocity": 0.5118110236220472
          },
          {
            "duration": 0.14705875000001356,
            "durationTicks": 30,
            "midi": 72,
            "name": "C5",
            "ticks": 22529,
            "time": 110.43621929166667,
            "velocity": 0.3937007874015748
          },
          {
            "duration": 0.33333316666664814,
            "durationTicks": 68,
            "midi": 65,
            "name": "F4",
            "ticks": 22553,
            "time": 110.55386629166668,
            "velocity": 0.6535433070866141
          },
          {
            "duration": 0.33333316666664814,
            "durationTicks": 68,
            "midi": 61,
            "name": "C#4",
            "ticks": 22553,
            "time": 110.55386629166668,
            "velocity": 0.6535433070866141
          },
          {
            "duration": 0.3235292500000071,
            "durationTicks": 66,
            "midi": 58,
            "name": "A#3",
            "ticks": 22553,
            "time": 110.55386629166668,
            "velocity": 0.6535433070866141
          },
          {
            "duration": 0.34803904166668076,
            "durationTicks": 71,
            "midi": 58,
            "name": "A#3",
            "ticks": 22555,
            "time": 110.56367020833335,
            "velocity": 0.6535433070866141
          },
          {
            "duration": 0.34803904166668076,
            "durationTicks": 71,
            "midi": 65,
            "name": "F4",
            "ticks": 22555,
            "time": 110.56367020833335,
            "velocity": 0.6535433070866141
          },
          {
            "duration": 0.34803904166668076,
            "durationTicks": 71,
            "midi": 61,
            "name": "C#4",
            "ticks": 22555,
            "time": 110.56367020833335,
            "velocity": 0.6535433070866141
          },
          {
            "duration": 0.0931372083333315,
            "durationTicks": 19,
            "midi": 65,
            "name": "F4",
            "ticks": 22641,
            "time": 110.98523862500002,
            "velocity": 0.6535433070866141
          },
          {
            "duration": 0.08823524999999677,
            "durationTicks": 18,
            "midi": 61,
            "name": "C#4",
            "ticks": 22641,
            "time": 110.98523862500002,
            "velocity": 0.6535433070866141
          },
          {
            "duration": 0.08823524999999677,
            "durationTicks": 18,
            "midi": 58,
            "name": "A#3",
            "ticks": 22641,
            "time": 110.98523862500002,
            "velocity": 0.6535433070866141
          },
          {
            "duration": 0.14705875000001356,
            "durationTicks": 30,
            "midi": 77,
            "name": "F5",
            "ticks": 22979,
            "time": 112.64210054166668,
            "velocity": 0.7086614173228346
          },
          {
            "duration": 0.31862729166667236,
            "durationTicks": 65,
            "midi": 61,
            "name": "C#4",
            "ticks": 23035,
            "time": 112.91661020833334,
            "velocity": 0.6535433070866141
          },
          {
            "duration": 0.31372533333333763,
            "durationTicks": 64,
            "midi": 65,
            "name": "F4",
            "ticks": 23035,
            "time": 112.91661020833334,
            "velocity": 0.6535433070866141
          },
          {
            "duration": 0.3235292500000071,
            "durationTicks": 66,
            "midi": 58,
            "name": "A#3",
            "ticks": 23035,
            "time": 112.91661020833334,
            "velocity": 0.6535433070866141
          },
          {
            "duration": 0.09803916666666623,
            "durationTicks": 20,
            "midi": 58,
            "name": "A#3",
            "ticks": 23120,
            "time": 113.33327666666668,
            "velocity": 0.6535433070866141
          },
          {
            "duration": 0.09803916666666623,
            "durationTicks": 20,
            "midi": 65,
            "name": "F4",
            "ticks": 23120,
            "time": 113.33327666666668,
            "velocity": 0.6535433070866141
          },
          {
            "duration": 0.0931372083333315,
            "durationTicks": 19,
            "midi": 61,
            "name": "C#4",
            "ticks": 23120,
            "time": 113.33327666666668,
            "velocity": 0.6535433070866141
          },
          {
            "duration": 0.31862729166664394,
            "durationTicks": 65,
            "midi": 61,
            "name": "C#4",
            "ticks": 23513,
            "time": 115.25974629166669,
            "velocity": 0.6535433070866141
          },
          {
            "duration": 0.3088233750000029,
            "durationTicks": 63,
            "midi": 65,
            "name": "F4",
            "ticks": 23513,
            "time": 115.25974629166669,
            "velocity": 0.6535433070866141
          },
          {
            "duration": 0.31862729166664394,
            "durationTicks": 65,
            "midi": 58,
            "name": "A#3",
            "ticks": 23513,
            "time": 115.25974629166669,
            "velocity": 0.6535433070866141
          },
          {
            "duration": 0.1225489583333399,
            "durationTicks": 25,
            "midi": 61,
            "name": "C#4",
            "ticks": 23600,
            "time": 115.68621666666667,
            "velocity": 0.6535433070866141
          },
          {
            "duration": 0.11764700000000516,
            "durationTicks": 24,
            "midi": 58,
            "name": "A#3",
            "ticks": 23600,
            "time": 115.68621666666667,
            "velocity": 0.6535433070866141
          },
          {
            "duration": 0.11764699999997674,
            "durationTicks": 24,
            "midi": 65,
            "name": "F4",
            "ticks": 23601,
            "time": 115.69111862500003,
            "velocity": 0.6535433070866141
          },
          {
            "duration": 0.14705874999998514,
            "durationTicks": 30,
            "midi": 77,
            "name": "F5",
            "ticks": 23939,
            "time": 117.34798054166669,
            "velocity": 0.7086614173228346
          },
          {
            "duration": 0.33333316666667656,
            "durationTicks": 68,
            "midi": 61,
            "name": "C#4",
            "ticks": 23993,
            "time": 117.61268629166668,
            "velocity": 0.6535433070866141
          },
          {
            "duration": 0.3235292500000071,
            "durationTicks": 66,
            "midi": 65,
            "name": "F4",
            "ticks": 23995,
            "time": 117.62249020833335,
            "velocity": 0.6535433070866141
          },
          {
            "duration": 0.3235292500000071,
            "durationTicks": 66,
            "midi": 58,
            "name": "A#3",
            "ticks": 23995,
            "time": 117.62249020833335,
            "velocity": 0.6535433070866141
          },
          {
            "duration": 0.0931372083333315,
            "durationTicks": 19,
            "midi": 61,
            "name": "C#4",
            "ticks": 24081,
            "time": 118.04405862500002,
            "velocity": 0.6535433070866141
          },
          {
            "duration": 0.0931372083333315,
            "durationTicks": 19,
            "midi": 65,
            "name": "F4",
            "ticks": 24081,
            "time": 118.04405862500002,
            "velocity": 0.6535433070866141
          },
          {
            "duration": 0.0931372083333315,
            "durationTicks": 19,
            "midi": 58,
            "name": "A#3",
            "ticks": 24081,
            "time": 118.04405862500002,
            "velocity": 0.6535433070866141
          },
          {
            "duration": 1.0441171250000139,
            "durationTicks": 213,
            "midi": 58,
            "name": "A#3",
            "ticks": 24481,
            "time": 120.00484195833334,
            "velocity": 0.6535433070866141
          },
          {
            "duration": 1.0931367083333043,
            "durationTicks": 223,
            "midi": 56,
            "name": "G#3",
            "ticks": 24716,
            "time": 121.1568021666667,
            "velocity": 0.6535433070866141
          },
          {
            "duration": 1.1960778333333337,
            "durationTicks": 244,
            "midi": 53,
            "name": "F3",
            "ticks": 24946,
            "time": 122.28425258333334,
            "velocity": 0.6535433070866141
          },
          {
            "duration": 2.230391041666678,
            "durationTicks": 455,
            "midi": 58,
            "name": "A#3",
            "ticks": 25190,
            "time": 123.48033041666667,
            "velocity": 0.6535433070866141
          },
          {
            "duration": 1.0294112500000097,
            "durationTicks": 210,
            "midi": 56,
            "name": "G#3",
            "ticks": 25673,
            "time": 125.84797629166667,
            "velocity": 0.6535433070866141
          },
          {
            "duration": 1.034313208333316,
            "durationTicks": 211,
            "midi": 56,
            "name": "G#3",
            "ticks": 25913,
            "time": 127.02444629166669,
            "velocity": 0.6535433070866141
          },
          {
            "duration": 0.19607833333333247,
            "durationTicks": 40,
            "midi": 58,
            "name": "A#3",
            "ticks": 26155,
            "time": 128.21072020833336,
            "velocity": 0.6535433070866141
          },
          {
            "duration": 0.7401957083333173,
            "durationTicks": 151,
            "midi": 54,
            "name": "F#3",
            "ticks": 27336,
            "time": 133.99993300000003,
            "velocity": 0.6535433070866141
          },
          {
            "duration": 0.15196070833331987,
            "durationTicks": 31,
            "midi": 58,
            "name": "A#3",
            "ticks": 27338,
            "time": 134.0097369166667,
            "velocity": 0.6535433070866141
          },
          {
            "duration": 0.6519604583333205,
            "durationTicks": 133,
            "midi": 66,
            "name": "F#4",
            "ticks": 27362,
            "time": 134.1273839166667,
            "velocity": 0.6535433070866141
          },
          {
            "duration": 0.7058820000000026,
            "durationTicks": 144,
            "midi": 56,
            "name": "G#3",
            "ticks": 27576,
            "time": 135.17640300000002,
            "velocity": 0.6535433070866141
          },
          {
            "duration": 0.6421565416666795,
            "durationTicks": 131,
            "midi": 60,
            "name": "C4",
            "ticks": 27586,
            "time": 135.22542258333334,
            "velocity": 0.6535433070866141
          },
          {
            "duration": 0.5539212916666827,
            "durationTicks": 113,
            "midi": 68,
            "name": "G#4",
            "ticks": 27605,
            "time": 135.31855979166667,
            "velocity": 0.6535433070866141
          },
          {
            "duration": 1.5098031666666714,
            "durationTicks": 308,
            "midi": 58,
            "name": "A#3",
            "ticks": 27805,
            "time": 136.29895145833336,
            "velocity": 0.6535433070866141
          },
          {
            "duration": 1.4362737916666788,
            "durationTicks": 293,
            "midi": 61,
            "name": "C#4",
            "ticks": 27820,
            "time": 136.37248083333336,
            "velocity": 0.6535433070866141
          },
          {
            "duration": 1.3529405000000168,
            "durationTicks": 276,
            "midi": 70,
            "name": "A#4",
            "ticks": 27837,
            "time": 136.45581412500002,
            "velocity": 0.6535433070866141
          },
          {
            "duration": 0.3235292500000071,
            "durationTicks": 66,
            "midi": 58,
            "name": "A#3",
            "ticks": 30235,
            "time": 148.21071020833335,
            "velocity": 0.6535433070866141
          },
          {
            "duration": 0.33333316666667656,
            "durationTicks": 68,
            "midi": 61,
            "name": "C#4",
            "ticks": 30235,
            "time": 148.21071020833335,
            "velocity": 0.6535433070866141
          },
          {
            "duration": 0.31862729166667236,
            "durationTicks": 65,
            "midi": 65,
            "name": "F4",
            "ticks": 30235,
            "time": 148.21071020833335,
            "velocity": 0.6535433070866141
          },
          {
            "duration": 0.09803916666666623,
            "durationTicks": 20,
            "midi": 58,
            "name": "A#3",
            "ticks": 30321,
            "time": 148.63227862500003,
            "velocity": 0.6535433070866141
          },
          {
            "duration": 0.08823524999999677,
            "durationTicks": 18,
            "midi": 61,
            "name": "C#4",
            "ticks": 30322,
            "time": 148.63718058333336,
            "velocity": 0.6535433070866141
          },
          {
            "duration": 0.0931372083333315,
            "durationTicks": 19,
            "midi": 65,
            "name": "F4",
            "ticks": 30322,
            "time": 148.63718058333336,
            "velocity": 0.6535433070866141
          },
          {
            "duration": 0.33333316666667656,
            "durationTicks": 68,
            "midi": 65,
            "name": "F4",
            "ticks": 30717,
            "time": 150.573454125,
            "velocity": 0.6535433070866141
          },
          {
            "duration": 0.343137083333346,
            "durationTicks": 70,
            "midi": 58,
            "name": "A#3",
            "ticks": 30718,
            "time": 150.57835608333335,
            "velocity": 0.6535433070866141
          },
          {
            "duration": 0.33333316666667656,
            "durationTicks": 68,
            "midi": 61,
            "name": "C#4",
            "ticks": 30718,
            "time": 150.57835608333335,
            "velocity": 0.6535433070866141
          },
          {
            "duration": 0.09803916666666623,
            "durationTicks": 20,
            "midi": 65,
            "name": "F4",
            "ticks": 30802,
            "time": 150.99012058333335,
            "velocity": 0.6535433070866141
          },
          {
            "duration": 0.08823524999999677,
            "durationTicks": 18,
            "midi": 58,
            "name": "A#3",
            "ticks": 30803,
            "time": 150.99502254166669,
            "velocity": 0.6535433070866141
          },
          {
            "duration": 0.0784313333333273,
            "durationTicks": 16,
            "midi": 61,
            "name": "C#4",
            "ticks": 30803,
            "time": 150.99502254166669,
            "velocity": 0.6535433070866141
          },
          {
            "duration": 0.2941174999999987,
            "durationTicks": 60,
            "midi": 65,
            "name": "F4",
            "ticks": 31207,
            "time": 152.97541370833335,
            "velocity": 0.6535433070866141
          },
          {
            "duration": 0.30392141666666816,
            "durationTicks": 62,
            "midi": 61,
            "name": "C#4",
            "ticks": 31207,
            "time": 152.97541370833335,
            "velocity": 0.6535433070866141
          },
          {
            "duration": 0.29901945833333343,
            "durationTicks": 61,
            "midi": 58,
            "name": "A#3",
            "ticks": 31207,
            "time": 152.97541370833335,
            "velocity": 0.6535433070866141
          },
          {
            "duration": 0.09803916666663781,
            "durationTicks": 20,
            "midi": 61,
            "name": "C#4",
            "ticks": 31285,
            "time": 153.35776645833337,
            "velocity": 0.6535433070866141
          },
          {
            "duration": 0.09803916666663781,
            "durationTicks": 20,
            "midi": 65,
            "name": "F4",
            "ticks": 31285,
            "time": 153.35776645833337,
            "velocity": 0.6535433070866141
          },
          {
            "duration": 0.0931372083333315,
            "durationTicks": 19,
            "midi": 58,
            "name": "A#3",
            "ticks": 31286,
            "time": 153.36266841666668,
            "velocity": 0.6535433070866141
          },
          {
            "duration": 0.3235292500000071,
            "durationTicks": 66,
            "midi": 65,
            "name": "F4",
            "ticks": 31675,
            "time": 155.26953020833335,
            "velocity": 0.6535433070866141
          },
          {
            "duration": 0.3235292500000071,
            "durationTicks": 66,
            "midi": 58,
            "name": "A#3",
            "ticks": 31675,
            "time": 155.26953020833335,
            "velocity": 0.6535433070866141
          },
          {
            "duration": 0.3235292500000071,
            "durationTicks": 66,
            "midi": 61,
            "name": "C#4",
            "ticks": 31675,
            "time": 155.26953020833335,
            "velocity": 0.6535433070866141
          },
          {
            "duration": 0.09803916666666623,
            "durationTicks": 20,
            "midi": 61,
            "name": "C#4",
            "ticks": 31760,
            "time": 155.6861966666667,
            "velocity": 0.6535433070866141
          },
          {
            "duration": 0.09803916666666623,
            "durationTicks": 20,
            "midi": 58,
            "name": "A#3",
            "ticks": 31760,
            "time": 155.6861966666667,
            "velocity": 0.6535433070866141
          },
          {
            "duration": 0.0931372083333315,
            "durationTicks": 19,
            "midi": 65,
            "name": "F4",
            "ticks": 31760,
            "time": 155.6861966666667,
            "velocity": 0.6535433070866141
          },
          {
            "duration": 0.3088233749999745,
            "durationTicks": 63,
            "midi": 65,
            "name": "F4",
            "ticks": 32153,
            "time": 157.6126662916667,
            "velocity": 0.6535433070866141
          },
          {
            "duration": 0.31372533333333763,
            "durationTicks": 64,
            "midi": 58,
            "name": "A#3",
            "ticks": 32153,
            "time": 157.6126662916667,
            "velocity": 0.6535433070866141
          },
          {
            "duration": 0.31372533333333763,
            "durationTicks": 64,
            "midi": 61,
            "name": "C#4",
            "ticks": 32153,
            "time": 157.6126662916667,
            "velocity": 0.6535433070866141
          },
          {
            "duration": 0.08823524999999677,
            "durationTicks": 18,
            "midi": 61,
            "name": "C#4",
            "ticks": 32243,
            "time": 158.05384254166668,
            "velocity": 0.6535433070866141
          },
          {
            "duration": 0.09803916666669465,
            "durationTicks": 20,
            "midi": 58,
            "name": "A#3",
            "ticks": 32243,
            "time": 158.05384254166668,
            "velocity": 0.6535433070866141
          },
          {
            "duration": 0.09803916666669465,
            "durationTicks": 20,
            "midi": 65,
            "name": "F4",
            "ticks": 32243,
            "time": 158.05384254166668,
            "velocity": 0.6535433070866141
          },
          {
            "duration": 0.31862729166667236,
            "durationTicks": 65,
            "midi": 65,
            "name": "F4",
            "ticks": 32635,
            "time": 159.97541020833336,
            "velocity": 0.6535433070866141
          },
          {
            "duration": 0.29901945833333343,
            "durationTicks": 61,
            "midi": 58,
            "name": "A#3",
            "ticks": 32638,
            "time": 159.99011608333336,
            "velocity": 0.6535433070866141
          },
          {
            "duration": 0.3088233750000029,
            "durationTicks": 63,
            "midi": 61,
            "name": "C#4",
            "ticks": 32638,
            "time": 159.99011608333336,
            "velocity": 0.6535433070866141
          },
          {
            "duration": 0.10294112500000097,
            "durationTicks": 21,
            "midi": 65,
            "name": "F4",
            "ticks": 32717,
            "time": 160.3773707916667,
            "velocity": 0.6535433070866141
          },
          {
            "duration": 0.0931372083333315,
            "durationTicks": 19,
            "midi": 61,
            "name": "C#4",
            "ticks": 32717,
            "time": 160.3773707916667,
            "velocity": 0.6535433070866141
          },
          {
            "duration": 0.09803916666666623,
            "durationTicks": 20,
            "midi": 58,
            "name": "A#3",
            "ticks": 32717,
            "time": 160.3773707916667,
            "velocity": 0.6535433070866141
          },
          {
            "duration": 0.3382351250000113,
            "durationTicks": 69,
            "midi": 65,
            "name": "F4",
            "ticks": 33113,
            "time": 162.31854629166668,
            "velocity": 0.6535433070866141
          },
          {
            "duration": 0.3382351250000113,
            "durationTicks": 69,
            "midi": 61,
            "name": "C#4",
            "ticks": 33113,
            "time": 162.31854629166668,
            "velocity": 0.6535433070866141
          },
          {
            "duration": 0.3235292500000071,
            "durationTicks": 66,
            "midi": 58,
            "name": "A#3",
            "ticks": 33115,
            "time": 162.32835020833335,
            "velocity": 0.6535433070866141
          },
          {
            "duration": 0.0931372083333315,
            "durationTicks": 19,
            "midi": 61,
            "name": "C#4",
            "ticks": 33205,
            "time": 162.76952645833336,
            "velocity": 0.6535433070866141
          },
          {
            "duration": 0.09803916666666623,
            "durationTicks": 20,
            "midi": 58,
            "name": "A#3",
            "ticks": 33205,
            "time": 162.76952645833336,
            "velocity": 0.6535433070866141
          },
          {
            "duration": 0.09803916666666623,
            "durationTicks": 20,
            "midi": 65,
            "name": "F4",
            "ticks": 33205,
            "time": 162.76952645833336,
            "velocity": 0.6535433070866141
          }
        ]
      },
      {
        "channel": 9,
        "controlChanges": {
          "0": [
            {
              "number": 0,
              "ticks": 165,
              "time": 0.8088231250000001,
              "value": 0
            },
            {
              "number": 0,
              "ticks": 165,
              "time": 0.8088231250000001,
              "value": 1
            },
            {
              "number": 0,
              "ticks": 165,
              "time": 0.8088231250000001,
              "value": 1
            },
            {
              "number": 0,
              "ticks": 165,
              "time": 0.8088231250000001,
              "value": 1
            },
            {
              "number": 0,
              "ticks": 165,
              "time": 0.8088231250000001,
              "value": 1
            },
            {
              "number": 0,
              "ticks": 165,
              "time": 0.8088231250000001,
              "value": 1
            },
            {
              "number": 0,
              "ticks": 167,
              "time": 0.8186270416666667,
              "value": 1
            }
          ],
          "6": [
            {
              "number": 6,
              "ticks": 192,
              "time": 0.9411760000000001,
              "value": 0.03937007874015748
            },
            {
              "number": 6,
              "ticks": 193,
              "time": 0.9460779583333335,
              "value": 0.03937007874015748
            },
            {
              "number": 6,
              "ticks": 196,
              "time": 0.9607838333333334,
              "value": 0.03937007874015748
            }
          ],
          "7": [
            {
              "number": 7,
              "ticks": 168,
              "time": 0.8235290000000001,
              "value": 0.6692913385826772
            },
            {
              "number": 7,
              "ticks": 168,
              "time": 0.8235290000000001,
              "value": 0.7086614173228346
            },
            {
              "number": 7,
              "ticks": 168,
              "time": 0.8235290000000001,
              "value": 0.6299212598425197
            },
            {
              "number": 7,
              "ticks": 168,
              "time": 0.8235290000000001,
              "value": 0.8661417322834646
            },
            {
              "number": 7,
              "ticks": 168,
              "time": 0.8235290000000001,
              "value": 0.5511811023622047
            },
            {
              "number": 7,
              "ticks": 168,
              "time": 0.8235290000000001,
              "value": 0.5511811023622047
            }
          ],
          "32": [
            {
              "number": 32,
              "ticks": 166,
              "time": 0.8137250833333334,
              "value": 0.9133858267716536
            },
            {
              "number": 32,
              "ticks": 166,
              "time": 0.8137250833333334,
              "value": 0
            },
            {
              "number": 32,
              "ticks": 166,
              "time": 0.8137250833333334,
              "value": 0
            },
            {
              "number": 32,
              "ticks": 166,
              "time": 0.8137250833333334,
              "value": 0
            },
            {
              "number": 32,
              "ticks": 166,
              "time": 0.8137250833333334,
              "value": 0
            },
            {
              "number": 32,
              "ticks": 166,
              "time": 0.8137250833333334,
              "value": 0
            },
            {
              "number": 32,
              "ticks": 167,
              "time": 0.8186270416666667,
              "value": 0
            }
          ],
          "38": [
            {
              "number": 38,
              "ticks": 192,
              "time": 0.9411760000000001,
              "value": 0
            },
            {
              "number": 38,
              "ticks": 193,
              "time": 0.9460779583333335,
              "value": 0
            },
            {
              "number": 38,
              "ticks": 196,
              "time": 0.9607838333333334,
              "value": 0
            }
          ],
          "91": [
            {
              "number": 91,
              "ticks": 191,
              "time": 0.9362740416666667,
              "value": 0.1732283464566929
            },
            {
              "number": 91,
              "ticks": 192,
              "time": 0.9411760000000001,
              "value": 0.15748031496062992
            },
            {
              "number": 91,
              "ticks": 193,
              "time": 0.9460779583333335,
              "value": 0.15748031496062992
            },
            {
              "number": 91,
              "ticks": 196,
              "time": 0.9607838333333334,
              "value": 0.15748031496062992
            },
            {
              "number": 91,
              "ticks": 198,
              "time": 0.9705877500000001,
              "value": 0.15748031496062992
            },
            {
              "number": 91,
              "ticks": 199,
              "time": 0.9754897083333335,
              "value": 0.1889763779527559
            },
            {
              "number": 91,
              "ticks": 203,
              "time": 0.9950975416666668,
              "value": 0.41732283464566927
            }
          ],
          "93": [
            {
              "number": 93,
              "ticks": 203,
              "time": 0.9950975416666668,
              "value": 0.1889763779527559
            }
          ],
          "100": [
            {
              "number": 100,
              "ticks": 192,
              "time": 0.9411760000000001,
              "value": 0
            },
            {
              "number": 100,
              "ticks": 193,
              "time": 0.9460779583333335,
              "value": 0
            },
            {
              "number": 100,
              "ticks": 196,
              "time": 0.9607838333333334,
              "value": 0
            }
          ],
          "101": [
            {
              "number": 101,
              "ticks": 192,
              "time": 0.9411760000000001,
              "value": 0
            },
            {
              "number": 101,
              "ticks": 193,
              "time": 0.9460779583333335,
              "value": 0
            },
            {
              "number": 101,
              "ticks": 196,
              "time": 0.9607838333333334,
              "value": 0
            }
          ]
        },
        "pitchBends": [
          {
            "ticks": 37754,
            "time": 185.0685349166667,
            "value": 0.92041015625
          },
          {
            "ticks": 37762,
            "time": 185.10775058333337,
            "value": 0.79345703125
          },
          {
            "ticks": 37768,
            "time": 185.13716233333338,
            "value": 0.682373046875
          },
          {
            "ticks": 37774,
            "time": 185.1665740833334,
            "value": 0.555419921875
          },
          {
            "ticks": 37782,
            "time": 185.20578975000004,
            "value": 0.460205078125
          },
          {
            "ticks": 37787,
            "time": 185.23029954166668,
            "value": 0.364990234375
          },
          {
            "ticks": 37794,
            "time": 185.26461325000002,
            "value": 0.22216796875
          },
          {
            "ticks": 37802,
            "time": 185.30382891666667,
            "value": 0.0634765625
          },
          {
            "ticks": 37808,
            "time": 185.33324066666668,
            "value": 0
          }
        ],
        "instrument": {
          "family": "drums",
          "number": 0,
          "name": "standard kit"
        },
        "name": "",
        "notes": [
          {
            "duration": 0.29411750000000225,
            "durationTicks": 60,
            "midi": 36,
            "name": "C2",
            "ticks": 3357,
            "time": 16.455874125,
            "velocity": 0.6535433070866141
          },
          {
            "duration": 0.10294112500000097,
            "durationTicks": 21,
            "midi": 35,
            "name": "B1",
            "ticks": 3357,
            "time": 16.455874125,
            "velocity": 0.6535433070866141
          },
          {
            "duration": 0.12254895833333279,
            "durationTicks": 25,
            "midi": 45,
            "name": "A2",
            "ticks": 3357,
            "time": 16.455874125,
            "velocity": 0.6535433070866141
          },
          {
            "duration": 0.11274504166666688,
            "durationTicks": 23,
            "midi": 49,
            "name": "C#3",
            "ticks": 3358,
            "time": 16.460776083333336,
            "velocity": 0.6535433070866141
          },
          {
            "duration": 0.06372545833333731,
            "durationTicks": 13,
            "midi": 44,
            "name": "G#2",
            "ticks": 3416,
            "time": 16.745089666666665,
            "velocity": 0.6535433070866141
          },
          {
            "duration": 0.02941175000000129,
            "durationTicks": 6,
            "midi": 39,
            "name": "D#2",
            "ticks": 3416,
            "time": 16.745089666666665,
            "velocity": 0.4330708661417323
          },
          {
            "duration": 0.02450979166666656,
            "durationTicks": 5,
            "midi": 63,
            "name": "D#4",
            "ticks": 3420,
            "time": 16.764697500000004,
            "velocity": 0.8503937007874016
          },
          {
            "duration": 0.09313720833333505,
            "durationTicks": 19,
            "midi": 40,
            "name": "E2",
            "ticks": 3446,
            "time": 16.892148416666668,
            "velocity": 0.6535433070866141
          },
          {
            "duration": 0.09803916666666623,
            "durationTicks": 20,
            "midi": 44,
            "name": "G#2",
            "ticks": 3446,
            "time": 16.892148416666668,
            "velocity": 0.6535433070866141
          },
          {
            "duration": 0.06372545833333021,
            "durationTicks": 13,
            "midi": 63,
            "name": "D#4",
            "ticks": 3450,
            "time": 16.911756250000003,
            "velocity": 0.937007874015748
          },
          {
            "duration": 0.2941174999999987,
            "durationTicks": 60,
            "midi": 36,
            "name": "C2",
            "ticks": 3475,
            "time": 17.034305208333336,
            "velocity": 0.6535433070866141
          },
          {
            "duration": 0.06372545833333376,
            "durationTicks": 13,
            "midi": 44,
            "name": "G#2",
            "ticks": 3476,
            "time": 17.039207166666667,
            "velocity": 0.6535433070866141
          },
          {
            "duration": 0.07352937500000323,
            "durationTicks": 15,
            "midi": 44,
            "name": "G#2",
            "ticks": 3506,
            "time": 17.186265916666667,
            "velocity": 0.6535433070866141
          },
          {
            "duration": 0.0686274166666685,
            "durationTicks": 14,
            "midi": 39,
            "name": "D#2",
            "ticks": 3506,
            "time": 17.186265916666667,
            "velocity": 0.25984251968503935
          },
          {
            "duration": 0.12745091666666752,
            "durationTicks": 26,
            "midi": 40,
            "name": "E2",
            "ticks": 3536,
            "time": 17.33332466666667,
            "velocity": 0.6535433070866141
          },
          {
            "duration": 0.06862741666666494,
            "durationTicks": 14,
            "midi": 44,
            "name": "G#2",
            "ticks": 3536,
            "time": 17.33332466666667,
            "velocity": 0.6535433070866141
          },
          {
            "duration": 0.06372545833333021,
            "durationTicks": 13,
            "midi": 39,
            "name": "D#2",
            "ticks": 3536,
            "time": 17.33332466666667,
            "velocity": 0.7244094488188977
          },
          {
            "duration": 0.06862741666666494,
            "durationTicks": 14,
            "midi": 64,
            "name": "E4",
            "ticks": 3540,
            "time": 17.3529325,
            "velocity": 1
          },
          {
            "duration": 0.06372545833333021,
            "durationTicks": 13,
            "midi": 44,
            "name": "G#2",
            "ticks": 3566,
            "time": 17.48038341666667,
            "velocity": 0.6535433070866141
          },
          {
            "duration": 0.07352937499999967,
            "durationTicks": 15,
            "midi": 39,
            "name": "D#2",
            "ticks": 3566,
            "time": 17.48038341666667,
            "velocity": 0.4330708661417323
          },
          {
            "duration": 0.14215679166667172,
            "durationTicks": 29,
            "midi": 45,
            "name": "A2",
            "ticks": 3594,
            "time": 17.61763825,
            "velocity": 0.6535433070866141
          },
          {
            "duration": 0.09803916666666979,
            "durationTicks": 20,
            "midi": 35,
            "name": "B1",
            "ticks": 3594,
            "time": 17.61763825,
            "velocity": 0.6535433070866141
          },
          {
            "duration": 0.2941174999999987,
            "durationTicks": 60,
            "midi": 36,
            "name": "C2",
            "ticks": 3595,
            "time": 17.622540208333334,
            "velocity": 0.6535433070866141
          },
          {
            "duration": 0.07352937499999967,
            "durationTicks": 15,
            "midi": 44,
            "name": "G#2",
            "ticks": 3596,
            "time": 17.62744216666667,
            "velocity": 0.6535433070866141
          },
          {
            "duration": 0.05392154166666785,
            "durationTicks": 11,
            "midi": 39,
            "name": "D#2",
            "ticks": 3596,
            "time": 17.62744216666667,
            "velocity": 0.5275590551181102
          },
          {
            "duration": 0.06372545833333376,
            "durationTicks": 13,
            "midi": 44,
            "name": "G#2",
            "ticks": 3626,
            "time": 17.774500916666668,
            "velocity": 0.6535433070866141
          },
          {
            "duration": 0.06862741666666494,
            "durationTicks": 14,
            "midi": 44,
            "name": "G#2",
            "ticks": 3656,
            "time": 17.921559666666667,
            "velocity": 0.6535433070866141
          },
          {
            "duration": 0.02941174999999774,
            "durationTicks": 6,
            "midi": 63,
            "name": "D#4",
            "ticks": 3660,
            "time": 17.941167500000002,
            "velocity": 0.8818897637795275
          },
          {
            "duration": 0.11274504166667043,
            "durationTicks": 23,
            "midi": 40,
            "name": "E2",
            "ticks": 3686,
            "time": 18.068618416666666,
            "velocity": 0.6535433070866141
          },
          {
            "duration": 0.07352937499999967,
            "durationTicks": 15,
            "midi": 44,
            "name": "G#2",
            "ticks": 3686,
            "time": 18.068618416666666,
            "velocity": 0.6535433070866141
          },
          {
            "duration": 0.08823525000000387,
            "durationTicks": 18,
            "midi": 39,
            "name": "D#2",
            "ticks": 3686,
            "time": 18.068618416666666,
            "velocity": 0.7637795275590551
          },
          {
            "duration": 0.04411762500000194,
            "durationTicks": 9,
            "midi": 63,
            "name": "D#4",
            "ticks": 3690,
            "time": 18.08822625,
            "velocity": 1
          },
          {
            "duration": 0.29411750000000225,
            "durationTicks": 60,
            "midi": 36,
            "name": "C2",
            "ticks": 3715,
            "time": 18.210775208333335,
            "velocity": 0.6535433070866141
          },
          {
            "duration": 0.06372545833333731,
            "durationTicks": 13,
            "midi": 44,
            "name": "G#2",
            "ticks": 3716,
            "time": 18.215677166666666,
            "velocity": 0.6535433070866141
          },
          {
            "duration": 0.06372545833333731,
            "durationTicks": 13,
            "midi": 44,
            "name": "G#2",
            "ticks": 3746,
            "time": 18.362735916666665,
            "velocity": 0.6535433070866141
          },
          {
            "duration": 0.06862741666667205,
            "durationTicks": 14,
            "midi": 39,
            "name": "D#2",
            "ticks": 3746,
            "time": 18.362735916666665,
            "velocity": 0.5748031496062992
          },
          {
            "duration": 0.11764700000000161,
            "durationTicks": 24,
            "midi": 40,
            "name": "E2",
            "ticks": 3776,
            "time": 18.509794666666668,
            "velocity": 0.6535433070866141
          },
          {
            "duration": 0.06372545833333376,
            "durationTicks": 13,
            "midi": 44,
            "name": "G#2",
            "ticks": 3776,
            "time": 18.509794666666668,
            "velocity": 0.6535433070866141
          },
          {
            "duration": 0.06372545833333376,
            "durationTicks": 13,
            "midi": 39,
            "name": "D#2",
            "ticks": 3776,
            "time": 18.509794666666668,
            "velocity": 0.7795275590551181
          },
          {
            "duration": 0.06372545833333021,
            "durationTicks": 13,
            "midi": 62,
            "name": "D4",
            "ticks": 3780,
            "time": 18.529402500000003,
            "velocity": 0.8267716535433071
          },
          {
            "duration": 0.07352937499999967,
            "durationTicks": 15,
            "midi": 44,
            "name": "G#2",
            "ticks": 3806,
            "time": 18.656853416666667,
            "velocity": 0.6535433070866141
          },
          {
            "duration": 0.12254895833333634,
            "durationTicks": 25,
            "midi": 45,
            "name": "A2",
            "ticks": 3834,
            "time": 18.79410825,
            "velocity": 0.6535433070866141
          },
          {
            "duration": 0.10294112500000097,
            "durationTicks": 21,
            "midi": 35,
            "name": "B1",
            "ticks": 3834,
            "time": 18.79410825,
            "velocity": 0.6535433070866141
          },
          {
            "duration": 0.2941174999999987,
            "durationTicks": 60,
            "midi": 36,
            "name": "C2",
            "ticks": 3835,
            "time": 18.799010208333335,
            "velocity": 0.6535433070866141
          },
          {
            "duration": 0.06372545833333021,
            "durationTicks": 13,
            "midi": 44,
            "name": "G#2",
            "ticks": 3836,
            "time": 18.80391216666667,
            "velocity": 0.6535433070866141
          },
          {
            "duration": 0.06372545833333021,
            "durationTicks": 13,
            "midi": 39,
            "name": "D#2",
            "ticks": 3836,
            "time": 18.80391216666667,
            "velocity": 0.6614173228346457
          },
          {
            "duration": 0.04901958333333312,
            "durationTicks": 10,
            "midi": 62,
            "name": "D4",
            "ticks": 3840,
            "time": 18.823520000000002,
            "velocity": 0.6614173228346457
          },
          {
            "duration": 0.06862741666666494,
            "durationTicks": 14,
            "midi": 44,
            "name": "G#2",
            "ticks": 3866,
            "time": 18.95097091666667,
            "velocity": 0.6535433070866141
          },
          {
            "duration": 0.039215666666667204,
            "durationTicks": 8,
            "midi": 63,
            "name": "D#4",
            "ticks": 3870,
            "time": 18.97057875,
            "velocity": 1
          },
          {
            "duration": 0.07352937499999967,
            "durationTicks": 15,
            "midi": 44,
            "name": "G#2",
            "ticks": 3896,
            "time": 19.09802966666667,
            "velocity": 0.6535433070866141
          },
          {
            "duration": 0.044117624999998384,
            "durationTicks": 9,
            "midi": 39,
            "name": "D#2",
            "ticks": 3896,
            "time": 19.09802966666667,
            "velocity": 0.5196850393700787
          },
          {
            "duration": 0.09803916666666623,
            "durationTicks": 20,
            "midi": 40,
            "name": "E2",
            "ticks": 3926,
            "time": 19.24508841666667,
            "velocity": 0.6535433070866141
          },
          {
            "duration": 0.06862741666666494,
            "durationTicks": 14,
            "midi": 44,
            "name": "G#2",
            "ticks": 3926,
            "time": 19.24508841666667,
            "velocity": 0.6535433070866141
          },
          {
            "duration": 0.07843133333333441,
            "durationTicks": 16,
            "midi": 39,
            "name": "D#2",
            "ticks": 3926,
            "time": 19.24508841666667,
            "velocity": 0.8503937007874016
          },
          {
            "duration": 0.039215666666670757,
            "durationTicks": 8,
            "midi": 63,
            "name": "D#4",
            "ticks": 3930,
            "time": 19.26469625,
            "velocity": 0.8267716535433071
          },
          {
            "duration": 0.29411750000000225,
            "durationTicks": 60,
            "midi": 36,
            "name": "C2",
            "ticks": 3955,
            "time": 19.387245208333333,
            "velocity": 0.6535433070866141
          },
          {
            "duration": 0.04901958333333312,
            "durationTicks": 10,
            "midi": 44,
            "name": "G#2",
            "ticks": 3956,
            "time": 19.392147166666668,
            "velocity": 0.6535433070866141
          },
          {
            "duration": 0.07352937499999967,
            "durationTicks": 15,
            "midi": 44,
            "name": "G#2",
            "ticks": 3986,
            "time": 19.539205916666667,
            "velocity": 0.6535433070866141
          },
          {
            "duration": 0.07352937499999967,
            "durationTicks": 15,
            "midi": 39,
            "name": "D#2",
            "ticks": 3986,
            "time": 19.539205916666667,
            "velocity": 0.5354330708661418
          },
          {
            "duration": 0.11274504166667043,
            "durationTicks": 23,
            "midi": 40,
            "name": "E2",
            "ticks": 4016,
            "time": 19.686264666666666,
            "velocity": 0.6535433070866141
          },
          {
            "duration": 0.0686274166666685,
            "durationTicks": 14,
            "midi": 44,
            "name": "G#2",
            "ticks": 4016,
            "time": 19.686264666666666,
            "velocity": 0.6535433070866141
          },
          {
            "duration": 0.04411762500000549,
            "durationTicks": 9,
            "midi": 39,
            "name": "D#2",
            "ticks": 4016,
            "time": 19.686264666666666,
            "velocity": 0.6535433070866141
          },
          {
            "duration": 0.0539215416666643,
            "durationTicks": 11,
            "midi": 62,
            "name": "D4",
            "ticks": 4020,
            "time": 19.7058725,
            "velocity": 0.905511811023622
          },
          {
            "duration": 0.08333329166666914,
            "durationTicks": 17,
            "midi": 44,
            "name": "G#2",
            "ticks": 4046,
            "time": 19.833323416666666,
            "velocity": 0.6535433070866141
          },
          {
            "duration": 0.12254895833333279,
            "durationTicks": 25,
            "midi": 45,
            "name": "A2",
            "ticks": 4074,
            "time": 19.970578250000003,
            "velocity": 0.6535433070866141
          },
          {
            "duration": 0.11274504166666333,
            "durationTicks": 23,
            "midi": 35,
            "name": "B1",
            "ticks": 4074,
            "time": 19.970578250000003,
            "velocity": 0.6535433070866141
          },
          {
            "duration": 0.2941174999999987,
            "durationTicks": 60,
            "midi": 36,
            "name": "C2",
            "ticks": 4075,
            "time": 19.975480208333337,
            "velocity": 0.6535433070866141
          },
          {
            "duration": 0.0686274166666685,
            "durationTicks": 14,
            "midi": 44,
            "name": "G#2",
            "ticks": 4076,
            "time": 19.98038216666667,
            "velocity": 0.6535433070866141
          },
          {
            "duration": 0.05392154166666785,
            "durationTicks": 11,
            "midi": 39,
            "name": "D#2",
            "ticks": 4076,
            "time": 19.98038216666667,
            "velocity": 0.6929133858267716
          },
          {
            "duration": 0.06372545833333376,
            "durationTicks": 13,
            "midi": 44,
            "name": "G#2",
            "ticks": 4106,
            "time": 20.127440916666668,
            "velocity": 0.6535433070866141
          },
          {
            "duration": 0.03921566666666365,
            "durationTicks": 8,
            "midi": 63,
            "name": "D#4",
            "ticks": 4110,
            "time": 20.147048750000003,
            "velocity": 0.937007874015748
          },
          {
            "duration": 0.07352937500000323,
            "durationTicks": 15,
            "midi": 44,
            "name": "G#2",
            "ticks": 4136,
            "time": 20.274499666666667,
            "velocity": 0.6535433070866141
          },
          {
            "duration": 0.02941175000000129,
            "durationTicks": 6,
            "midi": 64,
            "name": "E4",
            "ticks": 4140,
            "time": 20.294107500000003,
            "velocity": 0.8503937007874016
          },
          {
            "duration": 0.0931372083333315,
            "durationTicks": 19,
            "midi": 40,
            "name": "E2",
            "ticks": 4166,
            "time": 20.42155841666667,
            "velocity": 0.6535433070866141
          },
          {
            "duration": 0.06862741666666494,
            "durationTicks": 14,
            "midi": 44,
            "name": "G#2",
            "ticks": 4166,
            "time": 20.42155841666667,
            "velocity": 0.6535433070866141
          },
          {
            "duration": 0.07843133333333441,
            "durationTicks": 16,
            "midi": 39,
            "name": "D#2",
            "ticks": 4166,
            "time": 20.42155841666667,
            "velocity": 0.7795275590551181
          },
          {
            "duration": 0.2941174999999987,
            "durationTicks": 60,
            "midi": 36,
            "name": "C2",
            "ticks": 4195,
            "time": 20.563715208333335,
            "velocity": 0.6535433070866141
          },
          {
            "duration": 0.06372545833333021,
            "durationTicks": 13,
            "midi": 44,
            "name": "G#2",
            "ticks": 4196,
            "time": 20.56861716666667,
            "velocity": 0.6535433070866141
          },
          {
            "duration": 0.06372545833333376,
            "durationTicks": 13,
            "midi": 44,
            "name": "G#2",
            "ticks": 4226,
            "time": 20.71567591666667,
            "velocity": 0.6535433070866141
          },
          {
            "duration": 0.05392154166666785,
            "durationTicks": 11,
            "midi": 39,
            "name": "D#2",
            "ticks": 4226,
            "time": 20.71567591666667,
            "velocity": 0.4409448818897638
          },
          {
            "duration": 0.10294112500000097,
            "durationTicks": 21,
            "midi": 40,
            "name": "E2",
            "ticks": 4256,
            "time": 20.862734666666668,
            "velocity": 0.6535433070866141
          },
          {
            "duration": 0.06862741666666494,
            "durationTicks": 14,
            "midi": 44,
            "name": "G#2",
            "ticks": 4256,
            "time": 20.862734666666668,
            "velocity": 0.6535433070866141
          },
          {
            "duration": 0.04901958333333312,
            "durationTicks": 10,
            "midi": 39,
            "name": "D#2",
            "ticks": 4256,
            "time": 20.862734666666668,
            "velocity": 0.8031496062992126
          },
          {
            "duration": 0.07352937499999967,
            "durationTicks": 15,
            "midi": 44,
            "name": "G#2",
            "ticks": 4286,
            "time": 21.009793416666668,
            "velocity": 0.6535433070866141
          },
          {
            "duration": 0.09803916666666979,
            "durationTicks": 20,
            "midi": 45,
            "name": "A2",
            "ticks": 4314,
            "time": 21.14704825,
            "velocity": 0.6535433070866141
          },
          {
            "duration": 0.09313720833333505,
            "durationTicks": 19,
            "midi": 35,
            "name": "B1",
            "ticks": 4314,
            "time": 21.14704825,
            "velocity": 0.6535433070866141
          },
          {
            "duration": 0.2941174999999987,
            "durationTicks": 60,
            "midi": 36,
            "name": "C2",
            "ticks": 4315,
            "time": 21.151950208333336,
            "velocity": 0.6535433070866141
          },
          {
            "duration": 0.11764700000000161,
            "durationTicks": 24,
            "midi": 57,
            "name": "A3",
            "ticks": 4316,
            "time": 21.156852166666667,
            "velocity": 0.6535433070866141
          },
          {
            "duration": 0.04411762500000194,
            "durationTicks": 9,
            "midi": 39,
            "name": "D#2",
            "ticks": 4316,
            "time": 21.156852166666667,
            "velocity": 0.7637795275590551
          },
          {
            "duration": 0.03431370833333247,
            "durationTicks": 7,
            "midi": 62,
            "name": "D4",
            "ticks": 4320,
            "time": 21.176460000000002,
            "velocity": 0.8503937007874016
          },
          {
            "duration": 0.06372545833333731,
            "durationTicks": 13,
            "midi": 44,
            "name": "G#2",
            "ticks": 4346,
            "time": 21.303910916666666,
            "velocity": 0.6535433070866141
          },
          {
            "duration": 0.04901958333333312,
            "durationTicks": 10,
            "midi": 61,
            "name": "C#4",
            "ticks": 4350,
            "time": 21.32351875,
            "velocity": 1
          },
          {
            "duration": 0.08823525000000032,
            "durationTicks": 18,
            "midi": 44,
            "name": "G#2",
            "ticks": 4376,
            "time": 21.45096966666667,
            "velocity": 0.6535433070866141
          },
          {
            "duration": 0.09803916666666623,
            "durationTicks": 20,
            "midi": 40,
            "name": "E2",
            "ticks": 4406,
            "time": 21.59802841666667,
            "velocity": 0.6535433070866141
          },
          {
            "duration": 0.06862741666666494,
            "durationTicks": 14,
            "midi": 44,
            "name": "G#2",
            "ticks": 4406,
            "time": 21.59802841666667,
            "velocity": 0.6535433070866141
          },
          {
            "duration": 0.07352937499999967,
            "durationTicks": 15,
            "midi": 39,
            "name": "D#2",
            "ticks": 4406,
            "time": 21.59802841666667,
            "velocity": 0.937007874015748
          },
          {
            "duration": 0.06862741666666494,
            "durationTicks": 14,
            "midi": 63,
            "name": "D#4",
            "ticks": 4410,
            "time": 21.617636250000004,
            "velocity": 0.7795275590551181
          },
          {
            "duration": 0.2941174999999987,
            "durationTicks": 60,
            "midi": 36,
            "name": "C2",
            "ticks": 4435,
            "time": 21.740185208333337,
            "velocity": 0.6535433070866141
          },
          {
            "duration": 0.0686274166666685,
            "durationTicks": 14,
            "midi": 44,
            "name": "G#2",
            "ticks": 4436,
            "time": 21.745087166666668,
            "velocity": 0.6535433070866141
          },
          {
            "duration": 0.05392154166666785,
            "durationTicks": 11,
            "midi": 44,
            "name": "G#2",
            "ticks": 4466,
            "time": 21.892145916666667,
            "velocity": 0.6535433070866141
          },
          {
            "duration": 0.04411762500000194,
            "durationTicks": 9,
            "midi": 39,
            "name": "D#2",
            "ticks": 4466,
            "time": 21.892145916666667,
            "velocity": 0.5039370078740157
          },
          {
            "duration": 0.02450979166666656,
            "durationTicks": 5,
            "midi": 63,
            "name": "D#4",
            "ticks": 4470,
            "time": 21.911753750000003,
            "velocity": 1
          },
          {
            "duration": 0.10294112500000097,
            "durationTicks": 21,
            "midi": 40,
            "name": "E2",
            "ticks": 4496,
            "time": 22.039204666666667,
            "velocity": 0.6535433070866141
          },
          {
            "duration": 0.07843133333333796,
            "durationTicks": 16,
            "midi": 44,
            "name": "G#2",
            "ticks": 4496,
            "time": 22.039204666666667,
            "velocity": 0.6535433070866141
          },
          {
            "duration": 0.04411762500000194,
            "durationTicks": 9,
            "midi": 39,
            "name": "D#2",
            "ticks": 4496,
            "time": 22.039204666666667,
            "velocity": 0.7637795275590551
          },
          {
            "duration": 0.04901958333333312,
            "durationTicks": 10,
            "midi": 64,
            "name": "E4",
            "ticks": 4500,
            "time": 22.058812500000002,
            "velocity": 1
          },
          {
            "duration": 0.05882349999999903,
            "durationTicks": 12,
            "midi": 44,
            "name": "G#2",
            "ticks": 4526,
            "time": 22.18626341666667,
            "velocity": 0.6535433070866141
          },
          {
            "duration": 0.10294112500000097,
            "durationTicks": 21,
            "midi": 45,
            "name": "A2",
            "ticks": 4554,
            "time": 22.323518250000003,
            "velocity": 0.6535433070866141
          },
          {
            "duration": 0.09313720833333505,
            "durationTicks": 19,
            "midi": 35,
            "name": "B1",
            "ticks": 4554,
            "time": 22.323518250000003,
            "velocity": 0.6535433070866141
          },
          {
            "duration": 0.29411750000000225,
            "durationTicks": 60,
            "midi": 36,
            "name": "C2",
            "ticks": 4555,
            "time": 22.328420208333334,
            "velocity": 0.6535433070866141
          },
          {
            "duration": 0.06862741666666494,
            "durationTicks": 14,
            "midi": 44,
            "name": "G#2",
            "ticks": 4556,
            "time": 22.33332216666667,
            "velocity": 0.6535433070866141
          },
          {
            "duration": 0.02450979166667011,
            "durationTicks": 5,
            "midi": 62,
            "name": "D4",
            "ticks": 4560,
            "time": 22.35293,
            "velocity": 0.6141732283464567
          },
          {
            "duration": 0.06372545833333376,
            "durationTicks": 13,
            "midi": 44,
            "name": "G#2",
            "ticks": 4586,
            "time": 22.480380916666668,
            "velocity": 0.6535433070866141
          },
          {
            "duration": 0.04901958333333312,
            "durationTicks": 10,
            "midi": 61,
            "name": "C#4",
            "ticks": 4590,
            "time": 22.499988750000004,
            "velocity": 1
          },
          {
            "duration": 0.07352937499999967,
            "durationTicks": 15,
            "midi": 44,
            "name": "G#2",
            "ticks": 4616,
            "time": 22.627439666666668,
            "velocity": 0.6535433070866141
          },
          {
            "duration": 0.04901958333333667,
            "durationTicks": 10,
            "midi": 39,
            "name": "D#2",
            "ticks": 4616,
            "time": 22.627439666666668,
            "velocity": 0.7637795275590551
          },
          {
            "duration": 0.09313720833333505,
            "durationTicks": 19,
            "midi": 40,
            "name": "E2",
            "ticks": 4646,
            "time": 22.774498416666667,
            "velocity": 0.6535433070866141
          },
          {
            "duration": 0.06372545833333376,
            "durationTicks": 13,
            "midi": 44,
            "name": "G#2",
            "ticks": 4646,
            "time": 22.774498416666667,
            "velocity": 0.6535433070866141
          },
          {
            "duration": 0.05392154166666785,
            "durationTicks": 11,
            "midi": 39,
            "name": "D#2",
            "ticks": 4646,
            "time": 22.774498416666667,
            "velocity": 0.49606299212598426
          },
          {
            "duration": 0.044117624999998384,
            "durationTicks": 9,
            "midi": 63,
            "name": "D#4",
            "ticks": 4650,
            "time": 22.794106250000002,
            "velocity": 1
          },
          {
            "duration": 0.2941174999999987,
            "durationTicks": 60,
            "midi": 36,
            "name": "C2",
            "ticks": 4675,
            "time": 22.916655208333335,
            "velocity": 0.6535433070866141
          },
          {
            "duration": 0.07352937499999967,
            "durationTicks": 15,
            "midi": 44,
            "name": "G#2",
            "ticks": 4676,
            "time": 22.92155716666667,
            "velocity": 0.6535433070866141
          },
          {
            "duration": 0.06372545833333376,
            "durationTicks": 13,
            "midi": 44,
            "name": "G#2",
            "ticks": 4706,
            "time": 23.06861591666667,
            "velocity": 0.6535433070866141
          },
          {
            "duration": 0.02941175000000129,
            "durationTicks": 6,
            "midi": 63,
            "name": "D#4",
            "ticks": 4710,
            "time": 23.08822375,
            "velocity": 1
          },
          {
            "duration": 0.07843133333333441,
            "durationTicks": 16,
            "midi": 40,
            "name": "E2",
            "ticks": 4736,
            "time": 23.21567466666667,
            "velocity": 0.6535433070866141
          },
          {
            "duration": 0.07843133333333441,
            "durationTicks": 16,
            "midi": 44,
            "name": "G#2",
            "ticks": 4736,
            "time": 23.21567466666667,
            "velocity": 0.6535433070866141
          },
          {
            "duration": 0.02941175000000129,
            "durationTicks": 6,
            "midi": 39,
            "name": "D#2",
            "ticks": 4736,
            "time": 23.21567466666667,
            "velocity": 0.7086614173228346
          },
          {
            "duration": 0.06372545833333376,
            "durationTicks": 13,
            "midi": 64,
            "name": "E4",
            "ticks": 4740,
            "time": 23.235282500000004,
            "velocity": 1
          },
          {
            "duration": 0.0686274166666685,
            "durationTicks": 14,
            "midi": 44,
            "name": "G#2",
            "ticks": 4766,
            "time": 23.362733416666668,
            "velocity": 0.6535433070866141
          },
          {
            "duration": 0.06372545833333376,
            "durationTicks": 13,
            "midi": 39,
            "name": "D#2",
            "ticks": 4766,
            "time": 23.362733416666668,
            "velocity": 0.4015748031496063
          },
          {
            "duration": 0.11274504166666688,
            "durationTicks": 23,
            "midi": 45,
            "name": "A2",
            "ticks": 4794,
            "time": 23.49998825,
            "velocity": 0.6535433070866141
          },
          {
            "duration": 0.08823525000000387,
            "durationTicks": 18,
            "midi": 35,
            "name": "B1",
            "ticks": 4794,
            "time": 23.49998825,
            "velocity": 0.6535433070866141
          },
          {
            "duration": 0.29411750000000225,
            "durationTicks": 60,
            "midi": 36,
            "name": "C2",
            "ticks": 4795,
            "time": 23.504890208333336,
            "velocity": 0.6535433070866141
          },
          {
            "duration": 0.07352937500000323,
            "durationTicks": 15,
            "midi": 44,
            "name": "G#2",
            "ticks": 4796,
            "time": 23.509792166666667,
            "velocity": 0.6535433070866141
          },
          {
            "duration": 0.05392154166666785,
            "durationTicks": 11,
            "midi": 39,
            "name": "D#2",
            "ticks": 4796,
            "time": 23.509792166666667,
            "velocity": 0.8818897637795275
          },
          {
            "duration": 0.04411762500000194,
            "durationTicks": 9,
            "midi": 62,
            "name": "D4",
            "ticks": 4800,
            "time": 23.529400000000003,
            "velocity": 0.8031496062992126
          },
          {
            "duration": 0.07843133333333441,
            "durationTicks": 16,
            "midi": 44,
            "name": "G#2",
            "ticks": 4826,
            "time": 23.65685091666667,
            "velocity": 0.6535433070866141
          },
          {
            "duration": 0.0686274166666685,
            "durationTicks": 14,
            "midi": 39,
            "name": "D#2",
            "ticks": 4826,
            "time": 23.65685091666667,
            "velocity": 0.6062992125984252
          },
          {
            "duration": 0.02941174999999774,
            "durationTicks": 6,
            "midi": 61,
            "name": "C#4",
            "ticks": 4830,
            "time": 23.676458750000002,
            "velocity": 0.9763779527559056
          },
          {
            "duration": 0.07843133333333441,
            "durationTicks": 16,
            "midi": 44,
            "name": "G#2",
            "ticks": 4856,
            "time": 23.80390966666667,
            "velocity": 0.6535433070866141
          },
          {
            "duration": 0.08823525000000032,
            "durationTicks": 18,
            "midi": 40,
            "name": "E2",
            "ticks": 4886,
            "time": 23.95096841666667,
            "velocity": 0.6535433070866141
          },
          {
            "duration": 0.0686274166666685,
            "durationTicks": 14,
            "midi": 44,
            "name": "G#2",
            "ticks": 4886,
            "time": 23.95096841666667,
            "velocity": 0.6535433070866141
          },
          {
            "duration": 0.0686274166666685,
            "durationTicks": 14,
            "midi": 39,
            "name": "D#2",
            "ticks": 4886,
            "time": 23.95096841666667,
            "velocity": 0.6141732283464567
          },
          {
            "duration": 0.2941174999999987,
            "durationTicks": 60,
            "midi": 36,
            "name": "C2",
            "ticks": 4915,
            "time": 24.093125208333337,
            "velocity": 0.6535433070866141
          },
          {
            "duration": 0.06862741666666494,
            "durationTicks": 14,
            "midi": 44,
            "name": "G#2",
            "ticks": 4916,
            "time": 24.09802716666667,
            "velocity": 0.6535433070866141
          },
          {
            "duration": 0.02941174999999774,
            "durationTicks": 6,
            "midi": 62,
            "name": "D4",
            "ticks": 4920,
            "time": 24.117635000000003,
            "velocity": 0.5826771653543307
          },
          {
            "duration": 0.06372545833333376,
            "durationTicks": 13,
            "midi": 44,
            "name": "G#2",
            "ticks": 4946,
            "time": 24.24508591666667,
            "velocity": 0.6535433070866141
          },
          {
            "duration": 0.019607833333331826,
            "durationTicks": 4,
            "midi": 63,
            "name": "D#4",
            "ticks": 4950,
            "time": 24.264693750000003,
            "velocity": 0.7244094488188977
          },
          {
            "duration": 0.09803916666666623,
            "durationTicks": 20,
            "midi": 40,
            "name": "E2",
            "ticks": 4976,
            "time": 24.39214466666667,
            "velocity": 0.6535433070866141
          },
          {
            "duration": 0.06372545833333376,
            "durationTicks": 13,
            "midi": 44,
            "name": "G#2",
            "ticks": 4976,
            "time": 24.39214466666667,
            "velocity": 0.6535433070866141
          },
          {
            "duration": 0.044117624999998384,
            "durationTicks": 9,
            "midi": 39,
            "name": "D#2",
            "ticks": 4976,
            "time": 24.39214466666667,
            "velocity": 0.7795275590551181
          },
          {
            "duration": 0.02941174999999774,
            "durationTicks": 6,
            "midi": 63,
            "name": "D#4",
            "ticks": 4980,
            "time": 24.411752500000002,
            "velocity": 1
          },
          {
            "duration": 0.06372545833333376,
            "durationTicks": 13,
            "midi": 44,
            "name": "G#2",
            "ticks": 5006,
            "time": 24.53920341666667,
            "velocity": 0.6535433070866141
          },
          {
            "duration": 0.10294112500000097,
            "durationTicks": 21,
            "midi": 45,
            "name": "A2",
            "ticks": 5034,
            "time": 24.676458250000003,
            "velocity": 0.6535433070866141
          },
          {
            "duration": 0.08823525000000032,
            "durationTicks": 18,
            "midi": 35,
            "name": "B1",
            "ticks": 5034,
            "time": 24.676458250000003,
            "velocity": 0.6535433070866141
          },
          {
            "duration": 0.2941174999999987,
            "durationTicks": 60,
            "midi": 36,
            "name": "C2",
            "ticks": 5035,
            "time": 24.681360208333338,
            "velocity": 0.6535433070866141
          },
          {
            "duration": 0.07843133333333441,
            "durationTicks": 16,
            "midi": 44,
            "name": "G#2",
            "ticks": 5036,
            "time": 24.68626216666667,
            "velocity": 0.6535433070866141
          },
          {
            "duration": 0.039215666666667204,
            "durationTicks": 8,
            "midi": 39,
            "name": "D#2",
            "ticks": 5036,
            "time": 24.68626216666667,
            "velocity": 0.6220472440944882
          },
          {
            "duration": 0.06862741666666494,
            "durationTicks": 14,
            "midi": 44,
            "name": "G#2",
            "ticks": 5066,
            "time": 24.833320916666672,
            "velocity": 0.6535433070866141
          },
          {
            "duration": 0.019607833333331826,
            "durationTicks": 4,
            "midi": 64,
            "name": "E4",
            "ticks": 5070,
            "time": 24.852928750000004,
            "velocity": 0.7401574803149606
          },
          {
            "duration": 0.04901958333333312,
            "durationTicks": 10,
            "midi": 63,
            "name": "D#4",
            "ticks": 5070,
            "time": 24.852928750000004,
            "velocity": 1
          },
          {
            "duration": 0.06372545833333376,
            "durationTicks": 13,
            "midi": 44,
            "name": "G#2",
            "ticks": 5096,
            "time": 24.98037966666667,
            "velocity": 0.6535433070866141
          },
          {
            "duration": 0.03921566666666365,
            "durationTicks": 8,
            "midi": 39,
            "name": "D#2",
            "ticks": 5096,
            "time": 24.98037966666667,
            "velocity": 0.7244094488188977
          },
          {
            "duration": 0.04411762500000194,
            "durationTicks": 9,
            "midi": 62,
            "name": "D4",
            "ticks": 5100,
            "time": 24.999987500000003,
            "velocity": 0.8031496062992126
          },
          {
            "duration": 0.08823525000000032,
            "durationTicks": 18,
            "midi": 40,
            "name": "E2",
            "ticks": 5126,
            "time": 25.12743841666667,
            "velocity": 0.6535433070866141
          },
          {
            "duration": 0.05882349999999903,
            "durationTicks": 12,
            "midi": 44,
            "name": "G#2",
            "ticks": 5126,
            "time": 25.12743841666667,
            "velocity": 0.6535433070866141
          },
          {
            "duration": 0.07352937499999967,
            "durationTicks": 15,
            "midi": 39,
            "name": "D#2",
            "ticks": 5126,
            "time": 25.12743841666667,
            "velocity": 0.7795275590551181
          },
          {
            "duration": 0.04411762500000194,
            "durationTicks": 9,
            "midi": 63,
            "name": "D#4",
            "ticks": 5130,
            "time": 25.147046250000002,
            "velocity": 1
          },
          {
            "duration": 0.2941174999999987,
            "durationTicks": 60,
            "midi": 36,
            "name": "C2",
            "ticks": 5155,
            "time": 25.26959520833334,
            "velocity": 0.6535433070866141
          },
          {
            "duration": 0.08333329166666559,
            "durationTicks": 17,
            "midi": 44,
            "name": "G#2",
            "ticks": 5156,
            "time": 25.27449716666667,
            "velocity": 0.6535433070866141
          },
          {
            "duration": 0.0686274166666685,
            "durationTicks": 14,
            "midi": 44,
            "name": "G#2",
            "ticks": 5186,
            "time": 25.42155591666667,
            "velocity": 0.6535433070866141
          },
          {
            "duration": 0.06372545833333376,
            "durationTicks": 13,
            "midi": 63,
            "name": "D#4",
            "ticks": 5190,
            "time": 25.44116375,
            "velocity": 0.937007874015748
          },
          {
            "duration": 0.09803916666666268,
            "durationTicks": 20,
            "midi": 40,
            "name": "E2",
            "ticks": 5216,
            "time": 25.568614666666672,
            "velocity": 0.6535433070866141
          },
          {
            "duration": 0.07843133333333085,
            "durationTicks": 16,
            "midi": 44,
            "name": "G#2",
            "ticks": 5216,
            "time": 25.568614666666672,
            "velocity": 0.6535433070866141
          },
          {
            "duration": 0.053921541666660744,
            "durationTicks": 11,
            "midi": 39,
            "name": "D#2",
            "ticks": 5216,
            "time": 25.568614666666672,
            "velocity": 0.7244094488188977
          },
          {
            "duration": 0.06372545833333376,
            "durationTicks": 13,
            "midi": 64,
            "name": "E4",
            "ticks": 5220,
            "time": 25.588222500000004,
            "velocity": 1
          },
          {
            "duration": 0.05882349999999903,
            "durationTicks": 12,
            "midi": 44,
            "name": "G#2",
            "ticks": 5246,
            "time": 25.71567341666667,
            "velocity": 0.6535433070866141
          },
          {
            "duration": 0.11764699999999806,
            "durationTicks": 24,
            "midi": 45,
            "name": "A2",
            "ticks": 5274,
            "time": 25.852928250000005,
            "velocity": 0.6535433070866141
          },
          {
            "duration": 0.08823525000000032,
            "durationTicks": 18,
            "midi": 35,
            "name": "B1",
            "ticks": 5274,
            "time": 25.852928250000005,
            "velocity": 0.6535433070866141
          },
          {
            "duration": 0.29411750000000225,
            "durationTicks": 60,
            "midi": 36,
            "name": "C2",
            "ticks": 5275,
            "time": 25.857830208333336,
            "velocity": 0.6535433070866141
          },
          {
            "duration": 0.0931372083333315,
            "durationTicks": 19,
            "midi": 49,
            "name": "C#3",
            "ticks": 5276,
            "time": 25.86273216666667,
            "velocity": 0.6535433070866141
          },
          {
            "duration": 0.0539215416666643,
            "durationTicks": 11,
            "midi": 44,
            "name": "G#2",
            "ticks": 5306,
            "time": 26.00979091666667,
            "velocity": 0.6535433070866141
          },
          {
            "duration": 0.039215666666670757,
            "durationTicks": 8,
            "midi": 61,
            "name": "C#4",
            "ticks": 5310,
            "time": 26.029398750000002,
            "velocity": 1
          },
          {
            "duration": 0.08823525000000032,
            "durationTicks": 18,
            "midi": 44,
            "name": "G#2",
            "ticks": 5336,
            "time": 26.15684966666667,
            "velocity": 0.6535433070866141
          },
          {
            "duration": 0.03921566666666365,
            "durationTicks": 8,
            "midi": 39,
            "name": "D#2",
            "ticks": 5336,
            "time": 26.15684966666667,
            "velocity": 0.7795275590551181
          },
          {
            "duration": 0.07843133333333441,
            "durationTicks": 16,
            "midi": 40,
            "name": "E2",
            "ticks": 5366,
            "time": 26.30390841666667,
            "velocity": 0.6535433070866141
          },
          {
            "duration": 0.0686274166666685,
            "durationTicks": 14,
            "midi": 44,
            "name": "G#2",
            "ticks": 5366,
            "time": 26.30390841666667,
            "velocity": 0.6535433070866141
          },
          {
            "duration": 0.0686274166666685,
            "durationTicks": 14,
            "midi": 39,
            "name": "D#2",
            "ticks": 5366,
            "time": 26.30390841666667,
            "velocity": 0.5039370078740157
          },
          {
            "duration": 0.044117624999998384,
            "durationTicks": 9,
            "midi": 61,
            "name": "C#4",
            "ticks": 5370,
            "time": 26.323516250000004,
            "velocity": 0.905511811023622
          },
          {
            "duration": 0.2941174999999987,
            "durationTicks": 60,
            "midi": 36,
            "name": "C2",
            "ticks": 5395,
            "time": 26.446065208333337,
            "velocity": 0.6535433070866141
          },
          {
            "duration": 0.07352937499999967,
            "durationTicks": 15,
            "midi": 44,
            "name": "G#2",
            "ticks": 5396,
            "time": 26.450967166666672,
            "velocity": 0.6535433070866141
          },
          {
            "duration": 0.024509791666663006,
            "durationTicks": 5,
            "midi": 62,
            "name": "D4",
            "ticks": 5400,
            "time": 26.470575000000004,
            "velocity": 0.6614173228346457
          },
          {
            "duration": 0.06372545833333376,
            "durationTicks": 13,
            "midi": 44,
            "name": "G#2",
            "ticks": 5426,
            "time": 26.59802591666667,
            "velocity": 0.6535433070866141
          },
          {
            "duration": 0.02941174999999774,
            "durationTicks": 6,
            "midi": 63,
            "name": "D#4",
            "ticks": 5430,
            "time": 26.617633750000003,
            "velocity": 1
          },
          {
            "duration": 0.10294112499999741,
            "durationTicks": 21,
            "midi": 40,
            "name": "E2",
            "ticks": 5456,
            "time": 26.74508466666667,
            "velocity": 0.6535433070866141
          },
          {
            "duration": 0.07843133333333441,
            "durationTicks": 16,
            "midi": 44,
            "name": "G#2",
            "ticks": 5456,
            "time": 26.74508466666667,
            "velocity": 0.6535433070866141
          },
          {
            "duration": 0.049019583333329564,
            "durationTicks": 10,
            "midi": 39,
            "name": "D#2",
            "ticks": 5456,
            "time": 26.74508466666667,
            "velocity": 0.7401574803149606
          },
          {
            "duration": 0.02450979166666656,
            "durationTicks": 5,
            "midi": 64,
            "name": "E4",
            "ticks": 5460,
            "time": 26.764692500000002,
            "velocity": 1
          },
          {
            "duration": 0.0686274166666685,
            "durationTicks": 14,
            "midi": 44,
            "name": "G#2",
            "ticks": 5486,
            "time": 26.89214341666667,
            "velocity": 0.6535433070866141
          },
          {
            "duration": 0.039215666666670757,
            "durationTicks": 8,
            "midi": 61,
            "name": "C#4",
            "ticks": 5490,
            "time": 26.911751250000002,
            "velocity": 0.5118110236220472
          },
          {
            "duration": 0.11764699999999806,
            "durationTicks": 24,
            "midi": 45,
            "name": "A2",
            "ticks": 5514,
            "time": 27.029398250000003,
            "velocity": 0.6535433070866141
          },
          {
            "duration": 0.11764699999999806,
            "durationTicks": 24,
            "midi": 35,
            "name": "B1",
            "ticks": 5514,
            "time": 27.029398250000003,
            "velocity": 0.6535433070866141
          },
          {
            "duration": 0.2941174999999987,
            "durationTicks": 60,
            "midi": 36,
            "name": "C2",
            "ticks": 5515,
            "time": 27.034300208333338,
            "velocity": 0.6535433070866141
          },
          {
            "duration": 0.09313720833333505,
            "durationTicks": 19,
            "midi": 44,
            "name": "G#2",
            "ticks": 5516,
            "time": 27.03920216666667,
            "velocity": 0.6535433070866141
          },
          {
            "duration": 0.02941175000000129,
            "durationTicks": 6,
            "midi": 62,
            "name": "D4",
            "ticks": 5520,
            "time": 27.05881,
            "velocity": 0.8267716535433071
          },
          {
            "duration": 0.06862741666666494,
            "durationTicks": 14,
            "midi": 44,
            "name": "G#2",
            "ticks": 5546,
            "time": 27.186260916666672,
            "velocity": 0.6535433070866141
          },
          {
            "duration": 0.04411762500000194,
            "durationTicks": 9,
            "midi": 61,
            "name": "C#4",
            "ticks": 5550,
            "time": 27.205868750000004,
            "velocity": 1
          },
          {
            "duration": 0.07843133333333085,
            "durationTicks": 16,
            "midi": 44,
            "name": "G#2",
            "ticks": 5576,
            "time": 27.33331966666667,
            "velocity": 0.6535433070866141
          },
          {
            "duration": 0.02941174999999774,
            "durationTicks": 6,
            "midi": 39,
            "name": "D#2",
            "ticks": 5576,
            "time": 27.33331966666667,
            "velocity": 0.7086614173228346
          },
          {
            "duration": 0.09803916666666623,
            "durationTicks": 20,
            "midi": 40,
            "name": "E2",
            "ticks": 5606,
            "time": 27.48037841666667,
            "velocity": 0.6535433070866141
          },
          {
            "duration": 0.0686274166666685,
            "durationTicks": 14,
            "midi": 44,
            "name": "G#2",
            "ticks": 5606,
            "time": 27.48037841666667,
            "velocity": 0.6535433070866141
          },
          {
            "duration": 0.07843133333333441,
            "durationTicks": 16,
            "midi": 39,
            "name": "D#2",
            "ticks": 5606,
            "time": 27.48037841666667,
            "velocity": 0.7637795275590551
          },
          {
            "duration": 0.02941174999999774,
            "durationTicks": 6,
            "midi": 63,
            "name": "D#4",
            "ticks": 5610,
            "time": 27.499986250000003,
            "velocity": 1
          },
          {
            "duration": 0.2941174999999987,
            "durationTicks": 60,
            "midi": 36,
            "name": "C2",
            "ticks": 5635,
            "time": 27.62253520833334,
            "velocity": 0.6535433070866141
          },
          {
            "duration": 0.0686274166666685,
            "durationTicks": 14,
            "midi": 44,
            "name": "G#2",
            "ticks": 5636,
            "time": 27.62743716666667,
            "velocity": 0.6535433070866141
          },
          {
            "duration": 0.07352937499999967,
            "durationTicks": 15,
            "midi": 44,
            "name": "G#2",
            "ticks": 5666,
            "time": 27.77449591666667,
            "velocity": 0.6535433070866141
          },
          {
            "duration": 0.02941175000000129,
            "durationTicks": 6,
            "midi": 63,
            "name": "D#4",
            "ticks": 5670,
            "time": 27.79410375,
            "velocity": 0.8503937007874016
          },
          {
            "duration": 0.11274504166666333,
            "durationTicks": 23,
            "midi": 40,
            "name": "E2",
            "ticks": 5696,
            "time": 27.921554666666673,
            "velocity": 0.6535433070866141
          },
          {
            "duration": 0.08823524999999677,
            "durationTicks": 18,
            "midi": 44,
            "name": "G#2",
            "ticks": 5696,
            "time": 27.921554666666673,
            "velocity": 0.6535433070866141
          },
          {
            "duration": 0.04411762499999483,
            "durationTicks": 9,
            "midi": 39,
            "name": "D#2",
            "ticks": 5696,
            "time": 27.921554666666673,
            "velocity": 0.905511811023622
          },
          {
            "duration": 0.03431370833332892,
            "durationTicks": 7,
            "midi": 64,
            "name": "E4",
            "ticks": 5700,
            "time": 27.941162500000004,
            "velocity": 1
          },
          {
            "duration": 0.09803916666666268,
            "durationTicks": 20,
            "midi": 44,
            "name": "G#2",
            "ticks": 5726,
            "time": 28.068613416666672,
            "velocity": 0.6535433070866141
          },
          {
            "duration": 0.02941174999999774,
            "durationTicks": 6,
            "midi": 61,
            "name": "C#4",
            "ticks": 5730,
            "time": 28.088221250000004,
            "velocity": 0.6771653543307087
          },
          {
            "duration": 0.12254895833332924,
            "durationTicks": 25,
            "midi": 45,
            "name": "A2",
            "ticks": 5754,
            "time": 28.205868250000005,
            "velocity": 0.6535433070866141
          },
          {
            "duration": 0.09803916666666623,
            "durationTicks": 20,
            "midi": 35,
            "name": "B1",
            "ticks": 5754,
            "time": 28.205868250000005,
            "velocity": 0.6535433070866141
          },
          {
            "duration": 0.29411750000000225,
            "durationTicks": 60,
            "midi": 36,
            "name": "C2",
            "ticks": 5755,
            "time": 28.210770208333336,
            "velocity": 0.6535433070866141
          },
          {
            "duration": 0.07843133333333441,
            "durationTicks": 16,
            "midi": 44,
            "name": "G#2",
            "ticks": 5756,
            "time": 28.21567216666667,
            "velocity": 0.6535433070866141
          },
          {
            "duration": 0.02450979166666656,
            "durationTicks": 5,
            "midi": 39,
            "name": "D#2",
            "ticks": 5756,
            "time": 28.21567216666667,
            "velocity": 0.5196850393700787
          },
          {
            "duration": 0.04411762500000194,
            "durationTicks": 9,
            "midi": 62,
            "name": "D4",
            "ticks": 5760,
            "time": 28.235280000000003,
            "velocity": 0.8031496062992126
          },
          {
            "duration": 0.07843133333333441,
            "durationTicks": 16,
            "midi": 44,
            "name": "G#2",
            "ticks": 5786,
            "time": 28.36273091666667,
            "velocity": 0.6535433070866141
          },
          {
            "duration": 0.039215666666670757,
            "durationTicks": 8,
            "midi": 61,
            "name": "C#4",
            "ticks": 5790,
            "time": 28.382338750000002,
            "velocity": 0.937007874015748
          },
          {
            "duration": 0.07843133333333441,
            "durationTicks": 16,
            "midi": 44,
            "name": "G#2",
            "ticks": 5816,
            "time": 28.50978966666667,
            "velocity": 0.6535433070866141
          },
          {
            "duration": 0.044117624999998384,
            "durationTicks": 9,
            "midi": 39,
            "name": "D#2",
            "ticks": 5816,
            "time": 28.50978966666667,
            "velocity": 0.8031496062992126
          },
          {
            "duration": 0.09803916666666623,
            "durationTicks": 20,
            "midi": 40,
            "name": "E2",
            "ticks": 5846,
            "time": 28.65684841666667,
            "velocity": 0.6535433070866141
          },
          {
            "duration": 0.09313720833333505,
            "durationTicks": 19,
            "midi": 44,
            "name": "G#2",
            "ticks": 5846,
            "time": 28.65684841666667,
            "velocity": 0.6535433070866141
          },
          {
            "duration": 0.07352937500000323,
            "durationTicks": 15,
            "midi": 39,
            "name": "D#2",
            "ticks": 5846,
            "time": 28.65684841666667,
            "velocity": 0.7637795275590551
          },
          {
            "duration": 0.08333329166666559,
            "durationTicks": 17,
            "midi": 60,
            "name": "C4",
            "ticks": 5850,
            "time": 28.676456250000005,
            "velocity": 0.937007874015748
          },
          {
            "duration": 0.2941174999999987,
            "durationTicks": 60,
            "midi": 36,
            "name": "C2",
            "ticks": 5875,
            "time": 28.799005208333337,
            "velocity": 0.6535433070866141
          },
          {
            "duration": 0.07352937499999967,
            "durationTicks": 15,
            "midi": 44,
            "name": "G#2",
            "ticks": 5876,
            "time": 28.803907166666672,
            "velocity": 0.6535433070866141
          },
          {
            "duration": 0.019607833333331826,
            "durationTicks": 4,
            "midi": 63,
            "name": "D#4",
            "ticks": 5880,
            "time": 28.823515000000004,
            "velocity": 1
          },
          {
            "duration": 0.07843133333333085,
            "durationTicks": 16,
            "midi": 44,
            "name": "G#2",
            "ticks": 5906,
            "time": 28.95096591666667,
            "velocity": 0.6535433070866141
          },
          {
            "duration": 0.0539215416666643,
            "durationTicks": 11,
            "midi": 39,
            "name": "D#2",
            "ticks": 5906,
            "time": 28.95096591666667,
            "velocity": 0.6062992125984252
          },
          {
            "duration": 0.039215666666667204,
            "durationTicks": 8,
            "midi": 61,
            "name": "C#4",
            "ticks": 5910,
            "time": 28.970573750000003,
            "velocity": 1
          },
          {
            "duration": 0.11274504166666333,
            "durationTicks": 23,
            "midi": 40,
            "name": "E2",
            "ticks": 5936,
            "time": 29.09802466666667,
            "velocity": 0.6535433070866141
          },
          {
            "duration": 0.07352937499999967,
            "durationTicks": 15,
            "midi": 44,
            "name": "G#2",
            "ticks": 5936,
            "time": 29.09802466666667,
            "velocity": 0.6535433070866141
          },
          {
            "duration": 0.03431370833333247,
            "durationTicks": 7,
            "midi": 64,
            "name": "E4",
            "ticks": 5940,
            "time": 29.117632500000003,
            "velocity": 1
          },
          {
            "duration": 0.08823525000000032,
            "durationTicks": 18,
            "midi": 44,
            "name": "G#2",
            "ticks": 5966,
            "time": 29.24508341666667,
            "velocity": 0.6535433070866141
          },
          {
            "duration": 0.04901958333333667,
            "durationTicks": 10,
            "midi": 63,
            "name": "D#4",
            "ticks": 5970,
            "time": 29.264691250000002,
            "velocity": 1
          },
          {
            "duration": 0.11764699999999806,
            "durationTicks": 24,
            "midi": 45,
            "name": "A2",
            "ticks": 5994,
            "time": 29.382338250000004,
            "velocity": 0.6535433070866141
          },
          {
            "duration": 0.09313720833333505,
            "durationTicks": 19,
            "midi": 35,
            "name": "B1",
            "ticks": 5994,
            "time": 29.382338250000004,
            "velocity": 0.6535433070866141
          },
          {
            "duration": 0.2941174999999987,
            "durationTicks": 60,
            "midi": 36,
            "name": "C2",
            "ticks": 5995,
            "time": 29.38724020833334,
            "velocity": 0.6535433070866141
          },
          {
            "duration": 0.0686274166666685,
            "durationTicks": 14,
            "midi": 44,
            "name": "G#2",
            "ticks": 5996,
            "time": 29.39214216666667,
            "velocity": 0.6535433070866141
          },
          {
            "duration": 0.0539215416666643,
            "durationTicks": 11,
            "midi": 39,
            "name": "D#2",
            "ticks": 5996,
            "time": 29.39214216666667,
            "velocity": 0.905511811023622
          },
          {
            "duration": 0.039215666666667204,
            "durationTicks": 8,
            "midi": 62,
            "name": "D4",
            "ticks": 6000,
            "time": 29.411750000000005,
            "velocity": 0.8267716535433071
          },
          {
            "duration": 0.08823524999999677,
            "durationTicks": 18,
            "midi": 44,
            "name": "G#2",
            "ticks": 6026,
            "time": 29.539200916666672,
            "velocity": 0.6535433070866141
          },
          {
            "duration": 0.02941174999999774,
            "durationTicks": 6,
            "midi": 60,
            "name": "C4",
            "ticks": 6030,
            "time": 29.558808750000004,
            "velocity": 0.6771653543307087
          },
          {
            "duration": 0.08823524999999677,
            "durationTicks": 18,
            "midi": 44,
            "name": "G#2",
            "ticks": 6056,
            "time": 29.686259666666672,
            "velocity": 0.6535433070866141
          },
          {
            "duration": 0.02941174999999774,
            "durationTicks": 6,
            "midi": 39,
            "name": "D#2",
            "ticks": 6056,
            "time": 29.686259666666672,
            "velocity": 0.6771653543307087
          },
          {
            "duration": 0.02450979166666656,
            "durationTicks": 5,
            "midi": 63,
            "name": "D#4",
            "ticks": 6060,
            "time": 29.705867500000004,
            "velocity": 0.8818897637795275
          },
          {
            "duration": 0.0931372083333315,
            "durationTicks": 19,
            "midi": 40,
            "name": "E2",
            "ticks": 6086,
            "time": 29.83331841666667,
            "velocity": 0.6535433070866141
          },
          {
            "duration": 0.07352937499999967,
            "durationTicks": 15,
            "midi": 44,
            "name": "G#2",
            "ticks": 6086,
            "time": 29.83331841666667,
            "velocity": 0.6535433070866141
          },
          {
            "duration": 0.07843133333333441,
            "durationTicks": 16,
            "midi": 39,
            "name": "D#2",
            "ticks": 6086,
            "time": 29.83331841666667,
            "velocity": 0.6614173228346457
          },
          {
            "duration": 0.2941174999999987,
            "durationTicks": 60,
            "midi": 36,
            "name": "C2",
            "ticks": 6115,
            "time": 29.97547520833334,
            "velocity": 0.6535433070866141
          },
          {
            "duration": 0.07352937499999967,
            "durationTicks": 15,
            "midi": 44,
            "name": "G#2",
            "ticks": 6116,
            "time": 29.98037716666667,
            "velocity": 0.6535433070866141
          },
          {
            "duration": 0.07352937499999967,
            "durationTicks": 15,
            "midi": 44,
            "name": "G#2",
            "ticks": 6146,
            "time": 30.12743591666667,
            "velocity": 0.6535433070866141
          },
          {
            "duration": 0.019607833333335378,
            "durationTicks": 4,
            "midi": 62,
            "name": "D4",
            "ticks": 6150,
            "time": 30.14704375,
            "velocity": 1
          },
          {
            "duration": 0.09803916666666268,
            "durationTicks": 20,
            "midi": 40,
            "name": "E2",
            "ticks": 6176,
            "time": 30.274494666666673,
            "velocity": 0.6535433070866141
          },
          {
            "duration": 0.0931372083333315,
            "durationTicks": 19,
            "midi": 44,
            "name": "G#2",
            "ticks": 6176,
            "time": 30.274494666666673,
            "velocity": 0.6535433070866141
          },
          {
            "duration": 0.049019583333329564,
            "durationTicks": 10,
            "midi": 39,
            "name": "D#2",
            "ticks": 6176,
            "time": 30.274494666666673,
            "velocity": 0.9763779527559056
          },
          {
            "duration": 0.05882349999999903,
            "durationTicks": 12,
            "midi": 64,
            "name": "E4",
            "ticks": 6180,
            "time": 30.294102500000005,
            "velocity": 1
          },
          {
            "duration": 0.06372545833333376,
            "durationTicks": 13,
            "midi": 44,
            "name": "G#2",
            "ticks": 6206,
            "time": 30.421553416666672,
            "velocity": 0.6535433070866141
          },
          {
            "duration": 0.03431370833333247,
            "durationTicks": 7,
            "midi": 63,
            "name": "D#4",
            "ticks": 6210,
            "time": 30.441161250000004,
            "velocity": 0.937007874015748
          },
          {
            "duration": 0.11274504166666333,
            "durationTicks": 23,
            "midi": 45,
            "name": "A2",
            "ticks": 6234,
            "time": 30.558808250000006,
            "velocity": 0.6535433070866141
          },
          {
            "duration": 0.0931372083333315,
            "durationTicks": 19,
            "midi": 35,
            "name": "B1",
            "ticks": 6234,
            "time": 30.558808250000006,
            "velocity": 0.6535433070866141
          },
          {
            "duration": 0.29411750000000225,
            "durationTicks": 60,
            "midi": 36,
            "name": "C2",
            "ticks": 6235,
            "time": 30.563710208333337,
            "velocity": 0.6535433070866141
          },
          {
            "duration": 0.09803916666666623,
            "durationTicks": 20,
            "midi": 49,
            "name": "C#3",
            "ticks": 6236,
            "time": 30.56861216666667,
            "velocity": 0.6535433070866141
          },
          {
            "duration": 0.044117624999998384,
            "durationTicks": 9,
            "midi": 39,
            "name": "D#2",
            "ticks": 6236,
            "time": 30.56861216666667,
            "velocity": 0.7401574803149606
          },
          {
            "duration": 0.05392154166666785,
            "durationTicks": 11,
            "midi": 62,
            "name": "D4",
            "ticks": 6240,
            "time": 30.588220000000003,
            "velocity": 0.8031496062992126
          },
          {
            "duration": 0.0686274166666685,
            "durationTicks": 14,
            "midi": 44,
            "name": "G#2",
            "ticks": 6266,
            "time": 30.71567091666667,
            "velocity": 0.6535433070866141
          },
          {
            "duration": 0.02450979166666656,
            "durationTicks": 5,
            "midi": 60,
            "name": "C4",
            "ticks": 6270,
            "time": 30.735278750000003,
            "velocity": 0.937007874015748
          },
          {
            "duration": 0.08823525000000032,
            "durationTicks": 18,
            "midi": 44,
            "name": "G#2",
            "ticks": 6296,
            "time": 30.86272966666667,
            "velocity": 0.6535433070866141
          },
          {
            "duration": 0.02450979166666656,
            "durationTicks": 5,
            "midi": 63,
            "name": "D#4",
            "ticks": 6300,
            "time": 30.882337500000002,
            "velocity": 0.8031496062992126
          },
          {
            "duration": 0.09313720833333505,
            "durationTicks": 19,
            "midi": 40,
            "name": "E2",
            "ticks": 6326,
            "time": 31.00978841666667,
            "velocity": 0.6535433070866141
          },
          {
            "duration": 0.05882350000000258,
            "durationTicks": 12,
            "midi": 44,
            "name": "G#2",
            "ticks": 6326,
            "time": 31.00978841666667,
            "velocity": 0.6535433070866141
          },
          {
            "duration": 0.07352937500000323,
            "durationTicks": 15,
            "midi": 39,
            "name": "D#2",
            "ticks": 6326,
            "time": 31.00978841666667,
            "velocity": 0.7637795275590551
          },
          {
            "duration": 0.07843133333333085,
            "durationTicks": 16,
            "midi": 60,
            "name": "C4",
            "ticks": 6330,
            "time": 31.029396250000005,
            "velocity": 1
          },
          {
            "duration": 0.2941174999999987,
            "durationTicks": 60,
            "midi": 36,
            "name": "C2",
            "ticks": 6355,
            "time": 31.151945208333338,
            "velocity": 0.6535433070866141
          },
          {
            "duration": 0.07843133333333085,
            "durationTicks": 16,
            "midi": 44,
            "name": "G#2",
            "ticks": 6356,
            "time": 31.156847166666672,
            "velocity": 0.6535433070866141
          },
          {
            "duration": 0.02941174999999774,
            "durationTicks": 6,
            "midi": 39,
            "name": "D#2",
            "ticks": 6356,
            "time": 31.156847166666672,
            "velocity": 0.6614173228346457
          },
          {
            "duration": 0.014705874999997093,
            "durationTicks": 3,
            "midi": 64,
            "name": "E4",
            "ticks": 6360,
            "time": 31.176455000000004,
            "velocity": 0.7244094488188977
          },
          {
            "duration": 0.06862741666666494,
            "durationTicks": 14,
            "midi": 44,
            "name": "G#2",
            "ticks": 6386,
            "time": 31.30390591666667,
            "velocity": 0.6535433070866141
          },
          {
            "duration": 0.0539215416666643,
            "durationTicks": 11,
            "midi": 39,
            "name": "D#2",
            "ticks": 6386,
            "time": 31.30390591666667,
            "velocity": 0.5748031496062992
          },
          {
            "duration": 0.039215666666667204,
            "durationTicks": 8,
            "midi": 61,
            "name": "C#4",
            "ticks": 6390,
            "time": 31.323513750000004,
            "velocity": 0.937007874015748
          },
          {
            "duration": 0.09803916666666623,
            "durationTicks": 20,
            "midi": 40,
            "name": "E2",
            "ticks": 6416,
            "time": 31.45096466666667,
            "velocity": 0.6535433070866141
          },
          {
            "duration": 0.07843133333333441,
            "durationTicks": 16,
            "midi": 44,
            "name": "G#2",
            "ticks": 6416,
            "time": 31.45096466666667,
            "velocity": 0.6535433070866141
          },
          {
            "duration": 0.049019583333329564,
            "durationTicks": 10,
            "midi": 39,
            "name": "D#2",
            "ticks": 6416,
            "time": 31.45096466666667,
            "velocity": 0.8503937007874016
          },
          {
            "duration": 0.04411762500000194,
            "durationTicks": 9,
            "midi": 63,
            "name": "D#4",
            "ticks": 6420,
            "time": 31.470572500000003,
            "velocity": 1
          },
          {
            "duration": 0.0686274166666685,
            "durationTicks": 14,
            "midi": 44,
            "name": "G#2",
            "ticks": 6446,
            "time": 31.59802341666667,
            "velocity": 0.6535433070866141
          },
          {
            "duration": 0.039215666666670757,
            "durationTicks": 8,
            "midi": 63,
            "name": "D#4",
            "ticks": 6450,
            "time": 31.617631250000002,
            "velocity": 1
          },
          {
            "duration": 0.10294112500000097,
            "durationTicks": 21,
            "midi": 45,
            "name": "A2",
            "ticks": 6474,
            "time": 31.735278250000004,
            "velocity": 0.6535433070866141
          },
          {
            "duration": 0.09313720833333505,
            "durationTicks": 19,
            "midi": 35,
            "name": "B1",
            "ticks": 6474,
            "time": 31.735278250000004,
            "velocity": 0.6535433070866141
          },
          {
            "duration": 0.29411750000000225,
            "durationTicks": 60,
            "midi": 36,
            "name": "C2",
            "ticks": 6475,
            "time": 31.74018020833334,
            "velocity": 0.6535433070866141
          },
          {
            "duration": 0.08333329166666914,
            "durationTicks": 17,
            "midi": 44,
            "name": "G#2",
            "ticks": 6476,
            "time": 31.74508216666667,
            "velocity": 0.6535433070866141
          },
          {
            "duration": 0.05392154166666785,
            "durationTicks": 11,
            "midi": 62,
            "name": "D4",
            "ticks": 6480,
            "time": 31.76469,
            "velocity": 0.8818897637795275
          },
          {
            "duration": 0.06372545833333376,
            "durationTicks": 13,
            "midi": 44,
            "name": "G#2",
            "ticks": 6506,
            "time": 31.892140916666673,
            "velocity": 0.6535433070866141
          },
          {
            "duration": 0.04901958333333312,
            "durationTicks": 10,
            "midi": 61,
            "name": "C#4",
            "ticks": 6510,
            "time": 31.911748750000005,
            "velocity": 1
          },
          {
            "duration": 0.0784313333333273,
            "durationTicks": 16,
            "midi": 44,
            "name": "G#2",
            "ticks": 6536,
            "time": 32.039199666666676,
            "velocity": 0.6535433070866141
          },
          {
            "duration": 0.09803916666666623,
            "durationTicks": 20,
            "midi": 40,
            "name": "E2",
            "ticks": 6566,
            "time": 32.186258416666675,
            "velocity": 0.6535433070866141
          },
          {
            "duration": 0.06372545833333021,
            "durationTicks": 13,
            "midi": 44,
            "name": "G#2",
            "ticks": 6566,
            "time": 32.186258416666675,
            "velocity": 0.6535433070866141
          },
          {
            "duration": 0.06862741666666494,
            "durationTicks": 14,
            "midi": 39,
            "name": "D#2",
            "ticks": 6566,
            "time": 32.186258416666675,
            "velocity": 0.48031496062992124
          },
          {
            "duration": 0.06862741666667205,
            "durationTicks": 14,
            "midi": 60,
            "name": "C4",
            "ticks": 6570,
            "time": 32.20586625,
            "velocity": 0.937007874015748
          },
          {
            "duration": 0.2941174999999987,
            "durationTicks": 60,
            "midi": 36,
            "name": "C2",
            "ticks": 6595,
            "time": 32.32841520833334,
            "velocity": 0.6535433070866141
          },
          {
            "duration": 0.06862741666666494,
            "durationTicks": 14,
            "midi": 44,
            "name": "G#2",
            "ticks": 6596,
            "time": 32.333317166666674,
            "velocity": 0.6535433070866141
          },
          {
            "duration": 0.04901958333332601,
            "durationTicks": 10,
            "midi": 39,
            "name": "D#2",
            "ticks": 6596,
            "time": 32.333317166666674,
            "velocity": 0.7795275590551181
          },
          {
            "duration": 0.024509791666673664,
            "durationTicks": 5,
            "midi": 64,
            "name": "E4",
            "ticks": 6600,
            "time": 32.352925,
            "velocity": 0.6535433070866141
          },
          {
            "duration": 0.06862741666666494,
            "durationTicks": 14,
            "midi": 44,
            "name": "G#2",
            "ticks": 6626,
            "time": 32.480375916666674,
            "velocity": 0.6535433070866141
          },
          {
            "duration": 0.03921566666667786,
            "durationTicks": 8,
            "midi": 61,
            "name": "C#4",
            "ticks": 6630,
            "time": 32.49998375,
            "velocity": 0.905511811023622
          },
          {
            "duration": 0.10294112500000097,
            "durationTicks": 21,
            "midi": 40,
            "name": "E2",
            "ticks": 6656,
            "time": 32.62743466666667,
            "velocity": 0.6535433070866141
          },
          {
            "duration": 0.0784313333333273,
            "durationTicks": 16,
            "midi": 44,
            "name": "G#2",
            "ticks": 6656,
            "time": 32.62743466666667,
            "velocity": 0.6535433070866141
          },
          {
            "duration": 0.053921541666660744,
            "durationTicks": 11,
            "midi": 39,
            "name": "D#2",
            "ticks": 6656,
            "time": 32.62743466666667,
            "velocity": 0.905511811023622
          },
          {
            "duration": 0.05392154166666785,
            "durationTicks": 11,
            "midi": 64,
            "name": "E4",
            "ticks": 6660,
            "time": 32.647042500000005,
            "velocity": 0.8031496062992126
          },
          {
            "duration": 0.0784313333333273,
            "durationTicks": 16,
            "midi": 44,
            "name": "G#2",
            "ticks": 6686,
            "time": 32.77449341666667,
            "velocity": 0.6535433070866141
          },
          {
            "duration": 0.11764700000000516,
            "durationTicks": 24,
            "midi": 45,
            "name": "A2",
            "ticks": 6714,
            "time": 32.91174825,
            "velocity": 0.6535433070866141
          },
          {
            "duration": 0.09803916666666623,
            "durationTicks": 20,
            "midi": 35,
            "name": "B1",
            "ticks": 6714,
            "time": 32.91174825,
            "velocity": 0.6535433070866141
          },
          {
            "duration": 0.2941174999999987,
            "durationTicks": 60,
            "midi": 36,
            "name": "C2",
            "ticks": 6715,
            "time": 32.91665020833334,
            "velocity": 0.6535433070866141
          },
          {
            "duration": 0.07843133333333441,
            "durationTicks": 16,
            "midi": 44,
            "name": "G#2",
            "ticks": 6716,
            "time": 32.92155216666667,
            "velocity": 0.6535433070866141
          },
          {
            "duration": 0.04901958333333312,
            "durationTicks": 10,
            "midi": 39,
            "name": "D#2",
            "ticks": 6716,
            "time": 32.92155216666667,
            "velocity": 0.7637795275590551
          },
          {
            "duration": 0.06372545833333021,
            "durationTicks": 13,
            "midi": 62,
            "name": "D4",
            "ticks": 6720,
            "time": 32.94116,
            "velocity": 0.8031496062992126
          },
          {
            "duration": 0.07352937499999967,
            "durationTicks": 15,
            "midi": 44,
            "name": "G#2",
            "ticks": 6746,
            "time": 33.06861091666667,
            "velocity": 0.6535433070866141
          },
          {
            "duration": 0.07352937499999967,
            "durationTicks": 15,
            "midi": 44,
            "name": "G#2",
            "ticks": 6776,
            "time": 33.21566966666667,
            "velocity": 0.6535433070866141
          },
          {
            "duration": 0.029411749999994186,
            "durationTicks": 6,
            "midi": 39,
            "name": "D#2",
            "ticks": 6776,
            "time": 33.21566966666667,
            "velocity": 0.4645669291338583
          },
          {
            "duration": 0.02450979166666656,
            "durationTicks": 5,
            "midi": 63,
            "name": "D#4",
            "ticks": 6780,
            "time": 33.2352775,
            "velocity": 0.8503937007874016
          },
          {
            "duration": 0.09803916666666623,
            "durationTicks": 20,
            "midi": 40,
            "name": "E2",
            "ticks": 6806,
            "time": 33.36272841666667,
            "velocity": 0.6535433070866141
          },
          {
            "duration": 0.06372545833333731,
            "durationTicks": 13,
            "midi": 44,
            "name": "G#2",
            "ticks": 6806,
            "time": 33.36272841666667,
            "velocity": 0.6535433070866141
          },
          {
            "duration": 0.06862741666667205,
            "durationTicks": 14,
            "midi": 39,
            "name": "D#2",
            "ticks": 6806,
            "time": 33.36272841666667,
            "velocity": 0.5433070866141733
          },
          {
            "duration": 0.06372545833333021,
            "durationTicks": 13,
            "midi": 60,
            "name": "C4",
            "ticks": 6810,
            "time": 33.38233625000001,
            "velocity": 0.8818897637795275
          },
          {
            "duration": 0.07352937499999967,
            "durationTicks": 15,
            "midi": 35,
            "name": "B1",
            "ticks": 6834,
            "time": 33.49998325000001,
            "velocity": 0.6535433070866141
          },
          {
            "duration": 0.07352937499999967,
            "durationTicks": 15,
            "midi": 45,
            "name": "A2",
            "ticks": 6834,
            "time": 33.49998325000001,
            "velocity": 0.6535433070866141
          },
          {
            "duration": 0.2941174999999987,
            "durationTicks": 60,
            "midi": 36,
            "name": "C2",
            "ticks": 6835,
            "time": 33.504885208333334,
            "velocity": 0.6535433070866141
          },
          {
            "duration": 0.07843133333333441,
            "durationTicks": 16,
            "midi": 44,
            "name": "G#2",
            "ticks": 6836,
            "time": 33.50978716666667,
            "velocity": 0.6535433070866141
          },
          {
            "duration": 0.014705874999989987,
            "durationTicks": 3,
            "midi": 63,
            "name": "D#4",
            "ticks": 6840,
            "time": 33.52939500000001,
            "velocity": 0.6062992125984252
          },
          {
            "duration": 0.07843133333333441,
            "durationTicks": 16,
            "midi": 44,
            "name": "G#2",
            "ticks": 6866,
            "time": 33.65684591666667,
            "velocity": 0.6535433070866141
          },
          {
            "duration": 0.03921566666666365,
            "durationTicks": 8,
            "midi": 61,
            "name": "C#4",
            "ticks": 6870,
            "time": 33.67645375000001,
            "velocity": 0.9763779527559056
          },
          {
            "duration": 0.07352937499999967,
            "durationTicks": 15,
            "midi": 35,
            "name": "B1",
            "ticks": 6894,
            "time": 33.794100750000005,
            "velocity": 0.6535433070866141
          },
          {
            "duration": 0.07352937499999967,
            "durationTicks": 15,
            "midi": 45,
            "name": "A2",
            "ticks": 6894,
            "time": 33.794100750000005,
            "velocity": 0.6535433070866141
          },
          {
            "duration": 0.08823525000000387,
            "durationTicks": 18,
            "midi": 44,
            "name": "G#2",
            "ticks": 6896,
            "time": 33.80390466666667,
            "velocity": 0.6535433070866141
          },
          {
            "duration": 0.06372545833333731,
            "durationTicks": 13,
            "midi": 39,
            "name": "D#2",
            "ticks": 6896,
            "time": 33.80390466666667,
            "velocity": 0.905511811023622
          },
          {
            "duration": 0.044117624999998384,
            "durationTicks": 9,
            "midi": 64,
            "name": "E4",
            "ticks": 6900,
            "time": 33.82351250000001,
            "velocity": 1
          },
          {
            "duration": 0.06372545833333731,
            "durationTicks": 13,
            "midi": 44,
            "name": "G#2",
            "ticks": 6926,
            "time": 33.95096341666667,
            "velocity": 0.6535433070866141
          },
          {
            "duration": 0.09803916666666623,
            "durationTicks": 20,
            "midi": 45,
            "name": "A2",
            "ticks": 6954,
            "time": 34.088218250000004,
            "velocity": 0.6535433070866141
          },
          {
            "duration": 0.10294112500000097,
            "durationTicks": 21,
            "midi": 35,
            "name": "B1",
            "ticks": 6954,
            "time": 34.088218250000004,
            "velocity": 0.6535433070866141
          },
          {
            "duration": 0.07352937500000678,
            "durationTicks": 15,
            "midi": 44,
            "name": "G#2",
            "ticks": 6956,
            "time": 34.09802216666667,
            "velocity": 0.6535433070866141
          },
          {
            "duration": 0.05392154166666785,
            "durationTicks": 11,
            "midi": 39,
            "name": "D#2",
            "ticks": 6956,
            "time": 34.09802216666667,
            "velocity": 0.7401574803149606
          },
          {
            "duration": 0.044117624999998384,
            "durationTicks": 9,
            "midi": 62,
            "name": "D4",
            "ticks": 6960,
            "time": 34.117630000000005,
            "velocity": 0.8503937007874016
          },
          {
            "duration": 0.044117624999998384,
            "durationTicks": 9,
            "midi": 63,
            "name": "D#4",
            "ticks": 6990,
            "time": 34.264688750000005,
            "velocity": 1
          },
          {
            "duration": 0.09803916666665913,
            "durationTicks": 20,
            "midi": 45,
            "name": "A2",
            "ticks": 7014,
            "time": 34.38233575000001,
            "velocity": 0.6535433070866141
          },
          {
            "duration": 0.08823524999999677,
            "durationTicks": 18,
            "midi": 35,
            "name": "B1",
            "ticks": 7014,
            "time": 34.38233575000001,
            "velocity": 0.6535433070866141
          },
          {
            "duration": 0.04901958333332601,
            "durationTicks": 10,
            "midi": 39,
            "name": "D#2",
            "ticks": 7016,
            "time": 34.39213966666667,
            "velocity": 0.6377952755905512
          },
          {
            "duration": 0.019607833333331826,
            "durationTicks": 4,
            "midi": 63,
            "name": "D#4",
            "ticks": 7020,
            "time": 34.411747500000004,
            "velocity": 0.8267716535433071
          },
          {
            "duration": 0.02450979166666656,
            "durationTicks": 5,
            "midi": 63,
            "name": "D#4",
            "ticks": 7050,
            "time": 34.55880625,
            "velocity": 0.7086614173228346
          },
          {
            "duration": 0.11764699999999095,
            "durationTicks": 24,
            "midi": 45,
            "name": "A2",
            "ticks": 7074,
            "time": 34.67645325000001,
            "velocity": 0.6535433070866141
          },
          {
            "duration": 0.0931372083333315,
            "durationTicks": 19,
            "midi": 35,
            "name": "B1",
            "ticks": 7074,
            "time": 34.67645325000001,
            "velocity": 0.6535433070866141
          },
          {
            "duration": 0.053921541666660744,
            "durationTicks": 11,
            "midi": 39,
            "name": "D#2",
            "ticks": 7076,
            "time": 34.68625716666667,
            "velocity": 0.7401574803149606
          },
          {
            "duration": 0.039215666666670757,
            "durationTicks": 8,
            "midi": 64,
            "name": "E4",
            "ticks": 7080,
            "time": 34.705865,
            "velocity": 1
          },
          {
            "duration": 0.0931372083333315,
            "durationTicks": 19,
            "midi": 45,
            "name": "A2",
            "ticks": 7134,
            "time": 34.97057075000001,
            "velocity": 0.6535433070866141
          },
          {
            "duration": 0.0931372083333315,
            "durationTicks": 19,
            "midi": 35,
            "name": "B1",
            "ticks": 7134,
            "time": 34.97057075000001,
            "velocity": 0.6535433070866141
          },
          {
            "duration": 0.04901958333332601,
            "durationTicks": 10,
            "midi": 39,
            "name": "D#2",
            "ticks": 7136,
            "time": 34.98037466666668,
            "velocity": 0.6535433070866141
          },
          {
            "duration": 0.039215666666670757,
            "durationTicks": 8,
            "midi": 64,
            "name": "E4",
            "ticks": 7140,
            "time": 34.9999825,
            "velocity": 1
          },
          {
            "duration": 0.12745091666666042,
            "durationTicks": 26,
            "midi": 45,
            "name": "A2",
            "ticks": 7194,
            "time": 35.264688250000006,
            "velocity": 0.6535433070866141
          },
          {
            "duration": 0.1078430833333357,
            "durationTicks": 22,
            "midi": 35,
            "name": "B1",
            "ticks": 7194,
            "time": 35.264688250000006,
            "velocity": 0.6535433070866141
          },
          {
            "duration": 0.2941174999999987,
            "durationTicks": 60,
            "midi": 36,
            "name": "C2",
            "ticks": 7195,
            "time": 35.26959020833334,
            "velocity": 0.6535433070866141
          },
          {
            "duration": 0.11274504166665622,
            "durationTicks": 23,
            "midi": 57,
            "name": "A3",
            "ticks": 7196,
            "time": 35.274492166666676,
            "velocity": 0.6535433070866141
          },
          {
            "duration": 0.01960783333333893,
            "durationTicks": 4,
            "midi": 62,
            "name": "D4",
            "ticks": 7200,
            "time": 35.2941,
            "velocity": 0.8503937007874016
          },
          {
            "duration": 0.0784313333333273,
            "durationTicks": 16,
            "midi": 44,
            "name": "G#2",
            "ticks": 7256,
            "time": 35.568609666666674,
            "velocity": 0.6535433070866141
          },
          {
            "duration": 0.03921566666666365,
            "durationTicks": 8,
            "midi": 39,
            "name": "D#2",
            "ticks": 7256,
            "time": 35.568609666666674,
            "velocity": 0.6771653543307087
          },
          {
            "duration": 0.08823524999999677,
            "durationTicks": 18,
            "midi": 40,
            "name": "E2",
            "ticks": 7286,
            "time": 35.715668416666674,
            "velocity": 0.6535433070866141
          },
          {
            "duration": 0.07352937499999967,
            "durationTicks": 15,
            "midi": 44,
            "name": "G#2",
            "ticks": 7286,
            "time": 35.715668416666674,
            "velocity": 0.6535433070866141
          },
          {
            "duration": 0.0784313333333273,
            "durationTicks": 16,
            "midi": 39,
            "name": "D#2",
            "ticks": 7286,
            "time": 35.715668416666674,
            "velocity": 0.6062992125984252
          },
          {
            "duration": 0.05882349999999548,
            "durationTicks": 12,
            "midi": 60,
            "name": "C4",
            "ticks": 7290,
            "time": 35.735276250000005,
            "velocity": 0.8031496062992126
          },
          {
            "duration": 0.2941174999999987,
            "durationTicks": 60,
            "midi": 36,
            "name": "C2",
            "ticks": 7315,
            "time": 35.85782520833334,
            "velocity": 0.6535433070866141
          },
          {
            "duration": 0.06372545833333731,
            "durationTicks": 13,
            "midi": 44,
            "name": "G#2",
            "ticks": 7316,
            "time": 35.86272716666667,
            "velocity": 0.6535433070866141
          },
          {
            "duration": 0.06372545833333731,
            "durationTicks": 13,
            "midi": 44,
            "name": "G#2",
            "ticks": 7346,
            "time": 36.00978591666667,
            "velocity": 0.6535433070866141
          },
          {
            "duration": 0.02450979166666656,
            "durationTicks": 5,
            "midi": 61,
            "name": "C#4",
            "ticks": 7350,
            "time": 36.029393750000004,
            "velocity": 0.8267716535433071
          },
          {
            "duration": 0.10294112500000097,
            "durationTicks": 21,
            "midi": 40,
            "name": "E2",
            "ticks": 7376,
            "time": 36.15684466666667,
            "velocity": 0.6535433070866141
          },
          {
            "duration": 0.07352937499999967,
            "durationTicks": 15,
            "midi": 44,
            "name": "G#2",
            "ticks": 7376,
            "time": 36.15684466666667,
            "velocity": 0.6535433070866141
          },
          {
            "duration": 0.06372545833333731,
            "durationTicks": 13,
            "midi": 39,
            "name": "D#2",
            "ticks": 7376,
            "time": 36.15684466666667,
            "velocity": 0.9763779527559056
          },
          {
            "duration": 0.02941175000000129,
            "durationTicks": 6,
            "midi": 64,
            "name": "E4",
            "ticks": 7380,
            "time": 36.1764525,
            "velocity": 1
          },
          {
            "duration": 0.06862741666667205,
            "durationTicks": 14,
            "midi": 44,
            "name": "G#2",
            "ticks": 7406,
            "time": 36.30390341666667,
            "velocity": 0.6535433070866141
          },
          {
            "duration": 0.10294112500000097,
            "durationTicks": 21,
            "midi": 45,
            "name": "A2",
            "ticks": 7434,
            "time": 36.44115825,
            "velocity": 0.6535433070866141
          },
          {
            "duration": 0.09803916666666623,
            "durationTicks": 20,
            "midi": 35,
            "name": "B1",
            "ticks": 7434,
            "time": 36.44115825,
            "velocity": 0.6535433070866141
          },
          {
            "duration": 0.2941175000000058,
            "durationTicks": 60,
            "midi": 36,
            "name": "C2",
            "ticks": 7435,
            "time": 36.446060208333336,
            "velocity": 0.6535433070866141
          },
          {
            "duration": 0.07843133333333441,
            "durationTicks": 16,
            "midi": 44,
            "name": "G#2",
            "ticks": 7436,
            "time": 36.45096216666667,
            "velocity": 0.6535433070866141
          },
          {
            "duration": 0.06372545833333731,
            "durationTicks": 13,
            "midi": 39,
            "name": "D#2",
            "ticks": 7436,
            "time": 36.45096216666667,
            "velocity": 0.7244094488188977
          },
          {
            "duration": 0.04411762500000549,
            "durationTicks": 9,
            "midi": 62,
            "name": "D4",
            "ticks": 7440,
            "time": 36.47057,
            "velocity": 1
          },
          {
            "duration": 0.05392154166666785,
            "durationTicks": 11,
            "midi": 44,
            "name": "G#2",
            "ticks": 7466,
            "time": 36.59802091666667,
            "velocity": 0.6535433070866141
          },
          {
            "duration": 0.07352937499999967,
            "durationTicks": 15,
            "midi": 44,
            "name": "G#2",
            "ticks": 7496,
            "time": 36.74507966666667,
            "velocity": 0.6535433070866141
          },
          {
            "duration": 0.08823525000000387,
            "durationTicks": 18,
            "midi": 40,
            "name": "E2",
            "ticks": 7526,
            "time": 36.89213841666667,
            "velocity": 0.6535433070866141
          },
          {
            "duration": 0.06862741666667205,
            "durationTicks": 14,
            "midi": 44,
            "name": "G#2",
            "ticks": 7526,
            "time": 36.89213841666667,
            "velocity": 0.6535433070866141
          },
          {
            "duration": 0.08823525000000387,
            "durationTicks": 18,
            "midi": 39,
            "name": "D#2",
            "ticks": 7526,
            "time": 36.89213841666667,
            "velocity": 0.8267716535433071
          },
          {
            "duration": 0.044117624999998384,
            "durationTicks": 9,
            "midi": 63,
            "name": "D#4",
            "ticks": 7530,
            "time": 36.91174625000001,
            "velocity": 1
          },
          {
            "duration": 0.2941174999999987,
            "durationTicks": 60,
            "midi": 36,
            "name": "C2",
            "ticks": 7555,
            "time": 37.03429520833334,
            "velocity": 0.6535433070866141
          },
          {
            "duration": 0.07352937499999967,
            "durationTicks": 15,
            "midi": 44,
            "name": "G#2",
            "ticks": 7556,
            "time": 37.039197166666675,
            "velocity": 0.6535433070866141
          },
          {
            "duration": 0.0784313333333273,
            "durationTicks": 16,
            "midi": 44,
            "name": "G#2",
            "ticks": 7586,
            "time": 37.186255916666674,
            "velocity": 0.6535433070866141
          },
          {
            "duration": 0.029411749999994186,
            "durationTicks": 6,
            "midi": 61,
            "name": "C#4",
            "ticks": 7590,
            "time": 37.205863750000006,
            "velocity": 0.8818897637795275
          },
          {
            "duration": 0.11274504166666333,
            "durationTicks": 23,
            "midi": 40,
            "name": "E2",
            "ticks": 7616,
            "time": 37.33331466666667,
            "velocity": 0.6535433070866141
          },
          {
            "duration": 0.07352937499999967,
            "durationTicks": 15,
            "midi": 44,
            "name": "G#2",
            "ticks": 7616,
            "time": 37.33331466666667,
            "velocity": 0.6535433070866141
          },
          {
            "duration": 0.04901958333332601,
            "durationTicks": 10,
            "midi": 39,
            "name": "D#2",
            "ticks": 7616,
            "time": 37.33331466666667,
            "velocity": 0.8503937007874016
          },
          {
            "duration": 0.02450979166666656,
            "durationTicks": 5,
            "midi": 64,
            "name": "E4",
            "ticks": 7620,
            "time": 37.352922500000005,
            "velocity": 1
          },
          {
            "duration": 0.06372545833333021,
            "durationTicks": 13,
            "midi": 44,
            "name": "G#2",
            "ticks": 7646,
            "time": 37.48037341666667,
            "velocity": 0.6535433070866141
          },
          {
            "duration": 0.11274504166667043,
            "durationTicks": 23,
            "midi": 45,
            "name": "A2",
            "ticks": 7674,
            "time": 37.61762825,
            "velocity": 0.6535433070866141
          },
          {
            "duration": 0.08823525000000387,
            "durationTicks": 18,
            "midi": 35,
            "name": "B1",
            "ticks": 7674,
            "time": 37.61762825,
            "velocity": 0.6535433070866141
          },
          {
            "duration": 0.2941174999999987,
            "durationTicks": 60,
            "midi": 36,
            "name": "C2",
            "ticks": 7675,
            "time": 37.62253020833334,
            "velocity": 0.6535433070866141
          },
          {
            "duration": 0.07352937499999967,
            "durationTicks": 15,
            "midi": 44,
            "name": "G#2",
            "ticks": 7676,
            "time": 37.62743216666667,
            "velocity": 0.6535433070866141
          },
          {
            "duration": 0.053921541666660744,
            "durationTicks": 11,
            "midi": 39,
            "name": "D#2",
            "ticks": 7676,
            "time": 37.62743216666667,
            "velocity": 0.8267716535433071
          },
          {
            "duration": 0.044117624999998384,
            "durationTicks": 9,
            "midi": 62,
            "name": "D4",
            "ticks": 7680,
            "time": 37.647040000000004,
            "velocity": 1
          },
          {
            "duration": 0.06372545833333731,
            "durationTicks": 13,
            "midi": 44,
            "name": "G#2",
            "ticks": 7706,
            "time": 37.77449091666667,
            "velocity": 0.6535433070866141
          },
          {
            "duration": 0.07352937499999967,
            "durationTicks": 15,
            "midi": 44,
            "name": "G#2",
            "ticks": 7736,
            "time": 37.92154966666667,
            "velocity": 0.6535433070866141
          },
          {
            "duration": 0.044117624999998384,
            "durationTicks": 9,
            "midi": 39,
            "name": "D#2",
            "ticks": 7736,
            "time": 37.92154966666667,
            "velocity": 0.8818897637795275
          },
          {
            "duration": 0.08823525000000387,
            "durationTicks": 18,
            "midi": 40,
            "name": "E2",
            "ticks": 7766,
            "time": 38.06860841666667,
            "velocity": 0.6535433070866141
          },
          {
            "duration": 0.06372545833333731,
            "durationTicks": 13,
            "midi": 44,
            "name": "G#2",
            "ticks": 7766,
            "time": 38.06860841666667,
            "velocity": 0.6535433070866141
          },
          {
            "duration": 0.07352937499999967,
            "durationTicks": 15,
            "midi": 39,
            "name": "D#2",
            "ticks": 7766,
            "time": 38.06860841666667,
            "velocity": 0.7244094488188977
          },
          {
            "duration": 0.06372545833333731,
            "durationTicks": 13,
            "midi": 60,
            "name": "C4",
            "ticks": 7770,
            "time": 38.08821625,
            "velocity": 1
          },
          {
            "duration": 0.2941174999999987,
            "durationTicks": 60,
            "midi": 36,
            "name": "C2",
            "ticks": 7795,
            "time": 38.21076520833334,
            "velocity": 0.6535433070866141
          },
          {
            "duration": 0.07352937499999967,
            "durationTicks": 15,
            "midi": 44,
            "name": "G#2",
            "ticks": 7796,
            "time": 38.21566716666667,
            "velocity": 0.6535433070866141
          },
          {
            "duration": 0.06862741666667205,
            "durationTicks": 14,
            "midi": 44,
            "name": "G#2",
            "ticks": 7826,
            "time": 38.36272591666667,
            "velocity": 0.6535433070866141
          },
          {
            "duration": 0.04901958333333312,
            "durationTicks": 10,
            "midi": 39,
            "name": "D#2",
            "ticks": 7826,
            "time": 38.36272591666667,
            "velocity": 0.3937007874015748
          },
          {
            "duration": 0.02941175000000129,
            "durationTicks": 6,
            "midi": 61,
            "name": "C#4",
            "ticks": 7830,
            "time": 38.38233375,
            "velocity": 1
          },
          {
            "duration": 0.11764699999999095,
            "durationTicks": 24,
            "midi": 40,
            "name": "E2",
            "ticks": 7856,
            "time": 38.509784666666675,
            "velocity": 0.6535433070866141
          },
          {
            "duration": 0.07352937499999967,
            "durationTicks": 15,
            "midi": 44,
            "name": "G#2",
            "ticks": 7856,
            "time": 38.509784666666675,
            "velocity": 0.6535433070866141
          },
          {
            "duration": 0.04901958333332601,
            "durationTicks": 10,
            "midi": 39,
            "name": "D#2",
            "ticks": 7856,
            "time": 38.509784666666675,
            "velocity": 0.8267716535433071
          },
          {
            "duration": 0.029411749999994186,
            "durationTicks": 6,
            "midi": 63,
            "name": "D#4",
            "ticks": 7860,
            "time": 38.52939250000001,
            "velocity": 1
          },
          {
            "duration": 0.07352937499999967,
            "durationTicks": 15,
            "midi": 44,
            "name": "G#2",
            "ticks": 7886,
            "time": 38.656843416666675,
            "velocity": 0.6535433070866141
          },
          {
            "duration": 0.11764699999999806,
            "durationTicks": 24,
            "midi": 45,
            "name": "A2",
            "ticks": 7914,
            "time": 38.794098250000005,
            "velocity": 0.6535433070866141
          },
          {
            "duration": 0.08823525000000387,
            "durationTicks": 18,
            "midi": 35,
            "name": "B1",
            "ticks": 7914,
            "time": 38.794098250000005,
            "velocity": 0.6535433070866141
          },
          {
            "duration": 0.2941174999999987,
            "durationTicks": 60,
            "midi": 36,
            "name": "C2",
            "ticks": 7915,
            "time": 38.79900020833334,
            "velocity": 0.6535433070866141
          },
          {
            "duration": 0.07843133333333441,
            "durationTicks": 16,
            "midi": 44,
            "name": "G#2",
            "ticks": 7916,
            "time": 38.803902166666674,
            "velocity": 0.6535433070866141
          },
          {
            "duration": 0.053921541666660744,
            "durationTicks": 11,
            "midi": 39,
            "name": "D#2",
            "ticks": 7916,
            "time": 38.803902166666674,
            "velocity": 0.8267716535433071
          },
          {
            "duration": 0.04901958333333312,
            "durationTicks": 10,
            "midi": 62,
            "name": "D4",
            "ticks": 7920,
            "time": 38.823510000000006,
            "velocity": 1
          },
          {
            "duration": 0.06862741666666494,
            "durationTicks": 14,
            "midi": 44,
            "name": "G#2",
            "ticks": 7946,
            "time": 38.95096091666667,
            "velocity": 0.6535433070866141
          },
          {
            "duration": 0.07352937499999967,
            "durationTicks": 15,
            "midi": 44,
            "name": "G#2",
            "ticks": 7976,
            "time": 39.09801966666667,
            "velocity": 0.6535433070866141
          },
          {
            "duration": 0.02941175000000129,
            "durationTicks": 6,
            "midi": 62,
            "name": "D4",
            "ticks": 7980,
            "time": 39.117627500000005,
            "velocity": 0.6377952755905512
          },
          {
            "duration": 0.09803916666666623,
            "durationTicks": 20,
            "midi": 40,
            "name": "E2",
            "ticks": 8006,
            "time": 39.24507841666667,
            "velocity": 0.6535433070866141
          },
          {
            "duration": 0.06372545833333021,
            "durationTicks": 13,
            "midi": 44,
            "name": "G#2",
            "ticks": 8006,
            "time": 39.24507841666667,
            "velocity": 0.6535433070866141
          },
          {
            "duration": 0.08823524999999677,
            "durationTicks": 18,
            "midi": 39,
            "name": "D#2",
            "ticks": 8006,
            "time": 39.24507841666667,
            "velocity": 0.7401574803149606
          },
          {
            "duration": 0.04901958333333312,
            "durationTicks": 10,
            "midi": 63,
            "name": "D#4",
            "ticks": 8010,
            "time": 39.264686250000004,
            "velocity": 1
          },
          {
            "duration": 0.2941174999999987,
            "durationTicks": 60,
            "midi": 36,
            "name": "C2",
            "ticks": 8035,
            "time": 39.38723520833334,
            "velocity": 0.6535433070866141
          },
          {
            "duration": 0.07843133333333441,
            "durationTicks": 16,
            "midi": 44,
            "name": "G#2",
            "ticks": 8036,
            "time": 39.39213716666667,
            "velocity": 0.6535433070866141
          },
          {
            "duration": 0.02941175000000129,
            "durationTicks": 6,
            "midi": 39,
            "name": "D#2",
            "ticks": 8036,
            "time": 39.39213716666667,
            "velocity": 0.7401574803149606
          },
          {
            "duration": 0.08333329166666914,
            "durationTicks": 17,
            "midi": 44,
            "name": "G#2",
            "ticks": 8066,
            "time": 39.53919591666667,
            "velocity": 0.6535433070866141
          },
          {
            "duration": 0.02450979166666656,
            "durationTicks": 5,
            "midi": 61,
            "name": "C#4",
            "ticks": 8070,
            "time": 39.55880375,
            "velocity": 0.937007874015748
          },
          {
            "duration": 0.11274504166666333,
            "durationTicks": 23,
            "midi": 40,
            "name": "E2",
            "ticks": 8096,
            "time": 39.68625466666667,
            "velocity": 0.6535433070866141
          },
          {
            "duration": 0.07352937499999967,
            "durationTicks": 15,
            "midi": 44,
            "name": "G#2",
            "ticks": 8096,
            "time": 39.68625466666667,
            "velocity": 0.6535433070866141
          },
          {
            "duration": 0.044117624999998384,
            "durationTicks": 9,
            "midi": 39,
            "name": "D#2",
            "ticks": 8096,
            "time": 39.68625466666667,
            "velocity": 0.8031496062992126
          },
          {
            "duration": 0.04901958333334022,
            "durationTicks": 10,
            "midi": 64,
            "name": "E4",
            "ticks": 8100,
            "time": 39.7058625,
            "velocity": 1
          },
          {
            "duration": 0.07352937499999967,
            "durationTicks": 15,
            "midi": 44,
            "name": "G#2",
            "ticks": 8126,
            "time": 39.83331341666667,
            "velocity": 0.6535433070866141
          },
          {
            "duration": 0.11764699999999806,
            "durationTicks": 24,
            "midi": 45,
            "name": "A2",
            "ticks": 8154,
            "time": 39.97056825000001,
            "velocity": 0.6535433070866141
          },
          {
            "duration": 0.08823524999999677,
            "durationTicks": 18,
            "midi": 35,
            "name": "B1",
            "ticks": 8154,
            "time": 39.97056825000001,
            "velocity": 0.6535433070866141
          },
          {
            "duration": 0.2941174999999987,
            "durationTicks": 60,
            "midi": 36,
            "name": "C2",
            "ticks": 8155,
            "time": 39.97547020833334,
            "velocity": 0.6535433070866141
          },
          {
            "duration": 0.07843133333333441,
            "durationTicks": 16,
            "midi": 44,
            "name": "G#2",
            "ticks": 8156,
            "time": 39.98037216666667,
            "velocity": 0.6535433070866141
          },
          {
            "duration": 0.06862741666667205,
            "durationTicks": 14,
            "midi": 39,
            "name": "D#2",
            "ticks": 8156,
            "time": 39.98037216666667,
            "velocity": 0.8031496062992126
          },
          {
            "duration": 0.06862741666666494,
            "durationTicks": 14,
            "midi": 44,
            "name": "G#2",
            "ticks": 8186,
            "time": 40.127430916666675,
            "velocity": 0.6535433070866141
          },
          {
            "duration": 0.07352937499999967,
            "durationTicks": 15,
            "midi": 44,
            "name": "G#2",
            "ticks": 8216,
            "time": 40.274489666666675,
            "velocity": 0.6535433070866141
          },
          {
            "duration": 0.044117624999998384,
            "durationTicks": 9,
            "midi": 39,
            "name": "D#2",
            "ticks": 8216,
            "time": 40.274489666666675,
            "velocity": 0.6929133858267716
          },
          {
            "duration": 0.02450979166666656,
            "durationTicks": 5,
            "midi": 62,
            "name": "D4",
            "ticks": 8220,
            "time": 40.29409750000001,
            "velocity": 0.6771653543307087
          },
          {
            "duration": 0.10294112499999386,
            "durationTicks": 21,
            "midi": 40,
            "name": "E2",
            "ticks": 8246,
            "time": 40.421548416666674,
            "velocity": 0.6535433070866141
          },
          {
            "duration": 0.07352937499999967,
            "durationTicks": 15,
            "midi": 44,
            "name": "G#2",
            "ticks": 8246,
            "time": 40.421548416666674,
            "velocity": 0.6535433070866141
          },
          {
            "duration": 0.07352937499999967,
            "durationTicks": 15,
            "midi": 39,
            "name": "D#2",
            "ticks": 8246,
            "time": 40.421548416666674,
            "velocity": 0.5039370078740157
          },
          {
            "duration": 0.044117624999998384,
            "durationTicks": 9,
            "midi": 63,
            "name": "D#4",
            "ticks": 8250,
            "time": 40.441156250000006,
            "velocity": 1
          },
          {
            "duration": 0.2941174999999987,
            "durationTicks": 60,
            "midi": 36,
            "name": "C2",
            "ticks": 8275,
            "time": 40.56370520833334,
            "velocity": 0.6535433070866141
          },
          {
            "duration": 0.06862741666666494,
            "durationTicks": 14,
            "midi": 44,
            "name": "G#2",
            "ticks": 8276,
            "time": 40.56860716666667,
            "velocity": 0.6535433070866141
          },
          {
            "duration": 0.02450979166666656,
            "durationTicks": 5,
            "midi": 39,
            "name": "D#2",
            "ticks": 8276,
            "time": 40.56860716666667,
            "velocity": 0.5275590551181102
          },
          {
            "duration": 0.06862741666666494,
            "durationTicks": 14,
            "midi": 44,
            "name": "G#2",
            "ticks": 8306,
            "time": 40.71566591666667,
            "velocity": 0.6535433070866141
          },
          {
            "duration": 0.09803916666666623,
            "durationTicks": 20,
            "midi": 40,
            "name": "E2",
            "ticks": 8336,
            "time": 40.86272466666667,
            "velocity": 0.6535433070866141
          },
          {
            "duration": 0.07352937499999967,
            "durationTicks": 15,
            "midi": 44,
            "name": "G#2",
            "ticks": 8336,
            "time": 40.86272466666667,
            "velocity": 0.6535433070866141
          },
          {
            "duration": 0.053921541666660744,
            "durationTicks": 11,
            "midi": 39,
            "name": "D#2",
            "ticks": 8336,
            "time": 40.86272466666667,
            "velocity": 0.8818897637795275
          },
          {
            "duration": 0.039215666666670757,
            "durationTicks": 8,
            "midi": 64,
            "name": "E4",
            "ticks": 8340,
            "time": 40.882332500000004,
            "velocity": 0.9763779527559056
          },
          {
            "duration": 0.06372545833333731,
            "durationTicks": 13,
            "midi": 44,
            "name": "G#2",
            "ticks": 8366,
            "time": 41.00978341666667,
            "velocity": 0.6535433070866141
          },
          {
            "duration": 0.12745091666666042,
            "durationTicks": 26,
            "midi": 45,
            "name": "A2",
            "ticks": 8394,
            "time": 41.14703825000001,
            "velocity": 0.6535433070866141
          },
          {
            "duration": 0.11764699999999806,
            "durationTicks": 24,
            "midi": 35,
            "name": "B1",
            "ticks": 8394,
            "time": 41.14703825000001,
            "velocity": 0.6535433070866141
          },
          {
            "duration": 0.2941175000000058,
            "durationTicks": 60,
            "midi": 36,
            "name": "C2",
            "ticks": 8395,
            "time": 41.151940208333336,
            "velocity": 0.6535433070866141
          },
          {
            "duration": 0.07352937499999967,
            "durationTicks": 15,
            "midi": 44,
            "name": "G#2",
            "ticks": 8396,
            "time": 41.15684216666667,
            "velocity": 0.6535433070866141
          },
          {
            "duration": 0.05392154166666785,
            "durationTicks": 11,
            "midi": 39,
            "name": "D#2",
            "ticks": 8396,
            "time": 41.15684216666667,
            "velocity": 0.7401574803149606
          },
          {
            "duration": 0.039215666666670757,
            "durationTicks": 8,
            "midi": 62,
            "name": "D4",
            "ticks": 8400,
            "time": 41.17645,
            "velocity": 0.905511811023622
          },
          {
            "duration": 0.07352937499999967,
            "durationTicks": 15,
            "midi": 44,
            "name": "G#2",
            "ticks": 8426,
            "time": 41.30390091666667,
            "velocity": 0.6535433070866141
          },
          {
            "duration": 0.07843133333333441,
            "durationTicks": 16,
            "midi": 44,
            "name": "G#2",
            "ticks": 8456,
            "time": 41.45095966666667,
            "velocity": 0.6535433070866141
          },
          {
            "duration": 0.019607833333331826,
            "durationTicks": 4,
            "midi": 62,
            "name": "D4",
            "ticks": 8460,
            "time": 41.4705675,
            "velocity": 0.49606299212598426
          },
          {
            "duration": 0.09803916666666623,
            "durationTicks": 20,
            "midi": 40,
            "name": "E2",
            "ticks": 8486,
            "time": 41.59801841666667,
            "velocity": 0.6535433070866141
          },
          {
            "duration": 0.05392154166666785,
            "durationTicks": 11,
            "midi": 44,
            "name": "G#2",
            "ticks": 8486,
            "time": 41.59801841666667,
            "velocity": 0.6535433070866141
          },
          {
            "duration": 0.07843133333333441,
            "durationTicks": 16,
            "midi": 39,
            "name": "D#2",
            "ticks": 8486,
            "time": 41.59801841666667,
            "velocity": 0.6771653543307087
          },
          {
            "duration": 0.029411749999994186,
            "durationTicks": 6,
            "midi": 60,
            "name": "C4",
            "ticks": 8490,
            "time": 41.61762625000001,
            "velocity": 1
          },
          {
            "duration": 0.2941174999999987,
            "durationTicks": 60,
            "midi": 36,
            "name": "C2",
            "ticks": 8515,
            "time": 41.74017520833334,
            "velocity": 0.6535433070866141
          },
          {
            "duration": 0.06372545833333021,
            "durationTicks": 13,
            "midi": 44,
            "name": "G#2",
            "ticks": 8516,
            "time": 41.745077166666675,
            "velocity": 0.6535433070866141
          },
          {
            "duration": 0.03921566666666365,
            "durationTicks": 8,
            "midi": 39,
            "name": "D#2",
            "ticks": 8516,
            "time": 41.745077166666675,
            "velocity": 0.8267716535433071
          },
          {
            "duration": 0.06372545833333021,
            "durationTicks": 13,
            "midi": 44,
            "name": "G#2",
            "ticks": 8546,
            "time": 41.892135916666675,
            "velocity": 0.6535433070866141
          },
          {
            "duration": 0.02450979166666656,
            "durationTicks": 5,
            "midi": 61,
            "name": "C#4",
            "ticks": 8550,
            "time": 41.91174375000001,
            "velocity": 0.8503937007874016
          },
          {
            "duration": 0.11274504166666333,
            "durationTicks": 23,
            "midi": 40,
            "name": "E2",
            "ticks": 8576,
            "time": 42.039194666666674,
            "velocity": 0.6535433070866141
          },
          {
            "duration": 0.08333329166666203,
            "durationTicks": 17,
            "midi": 44,
            "name": "G#2",
            "ticks": 8576,
            "time": 42.039194666666674,
            "velocity": 0.6535433070866141
          },
          {
            "duration": 0.06372545833333021,
            "durationTicks": 13,
            "midi": 39,
            "name": "D#2",
            "ticks": 8576,
            "time": 42.039194666666674,
            "velocity": 1
          },
          {
            "duration": 0.029411749999994186,
            "durationTicks": 6,
            "midi": 63,
            "name": "D#4",
            "ticks": 8580,
            "time": 42.058802500000006,
            "velocity": 1
          },
          {
            "duration": 0.06372545833333021,
            "durationTicks": 13,
            "midi": 44,
            "name": "G#2",
            "ticks": 8606,
            "time": 42.18625341666667,
            "velocity": 0.6535433070866141
          },
          {
            "duration": 0.11764700000000516,
            "durationTicks": 24,
            "midi": 45,
            "name": "A2",
            "ticks": 8634,
            "time": 42.32350825,
            "velocity": 0.6535433070866141
          },
          {
            "duration": 0.09803916666666623,
            "durationTicks": 20,
            "midi": 35,
            "name": "B1",
            "ticks": 8634,
            "time": 42.32350825,
            "velocity": 0.6535433070866141
          },
          {
            "duration": 0.2941174999999987,
            "durationTicks": 60,
            "midi": 36,
            "name": "C2",
            "ticks": 8635,
            "time": 42.32841020833334,
            "velocity": 0.6535433070866141
          },
          {
            "duration": 0.07352937499999967,
            "durationTicks": 15,
            "midi": 44,
            "name": "G#2",
            "ticks": 8636,
            "time": 42.33331216666667,
            "velocity": 0.6535433070866141
          },
          {
            "duration": 0.06372545833333021,
            "durationTicks": 13,
            "midi": 39,
            "name": "D#2",
            "ticks": 8636,
            "time": 42.33331216666667,
            "velocity": 0.8267716535433071
          },
          {
            "duration": 0.02941175000000129,
            "durationTicks": 6,
            "midi": 62,
            "name": "D4",
            "ticks": 8640,
            "time": 42.352920000000005,
            "velocity": 0.7795275590551181
          },
          {
            "duration": 0.06372545833333731,
            "durationTicks": 13,
            "midi": 44,
            "name": "G#2",
            "ticks": 8666,
            "time": 42.48037091666667,
            "velocity": 0.6535433070866141
          },
          {
            "duration": 0.0784313333333273,
            "durationTicks": 16,
            "midi": 44,
            "name": "G#2",
            "ticks": 8696,
            "time": 42.62742966666667,
            "velocity": 0.6535433070866141
          },
          {
            "duration": 0.02941175000000129,
            "durationTicks": 6,
            "midi": 39,
            "name": "D#2",
            "ticks": 8696,
            "time": 42.62742966666667,
            "velocity": 0.6771653543307087
          },
          {
            "duration": 0.02941175000000129,
            "durationTicks": 6,
            "midi": 62,
            "name": "D4",
            "ticks": 8700,
            "time": 42.6470375,
            "velocity": 0.7637795275590551
          },
          {
            "duration": 0.11274504166666333,
            "durationTicks": 23,
            "midi": 40,
            "name": "E2",
            "ticks": 8726,
            "time": 42.77448841666667,
            "velocity": 0.6535433070866141
          },
          {
            "duration": 0.06372545833333731,
            "durationTicks": 13,
            "midi": 44,
            "name": "G#2",
            "ticks": 8726,
            "time": 42.77448841666667,
            "velocity": 0.6535433070866141
          },
          {
            "duration": 0.0784313333333273,
            "durationTicks": 16,
            "midi": 39,
            "name": "D#2",
            "ticks": 8726,
            "time": 42.77448841666667,
            "velocity": 0.7086614173228346
          },
          {
            "duration": 0.04411762500000549,
            "durationTicks": 9,
            "midi": 61,
            "name": "C#4",
            "ticks": 8730,
            "time": 42.79409625,
            "velocity": 1
          },
          {
            "duration": 0.07352937499999967,
            "durationTicks": 15,
            "midi": 35,
            "name": "B1",
            "ticks": 8754,
            "time": 42.91174325000001,
            "velocity": 0.6535433070866141
          },
          {
            "duration": 0.07352937499999967,
            "durationTicks": 15,
            "midi": 45,
            "name": "A2",
            "ticks": 8754,
            "time": 42.91174325000001,
            "velocity": 0.6535433070866141
          },
          {
            "duration": 0.2941174999999987,
            "durationTicks": 60,
            "midi": 36,
            "name": "C2",
            "ticks": 8755,
            "time": 42.916645208333335,
            "velocity": 0.6535433070866141
          },
          {
            "duration": 0.06862741666666494,
            "durationTicks": 14,
            "midi": 44,
            "name": "G#2",
            "ticks": 8756,
            "time": 42.92154716666667,
            "velocity": 0.6535433070866141
          },
          {
            "duration": 0.07352937499999967,
            "durationTicks": 15,
            "midi": 35,
            "name": "B1",
            "ticks": 8814,
            "time": 43.20586075000001,
            "velocity": 0.6535433070866141
          },
          {
            "duration": 0.07352937499999967,
            "durationTicks": 15,
            "midi": 45,
            "name": "A2",
            "ticks": 8814,
            "time": 43.20586075000001,
            "velocity": 0.6535433070866141
          },
          {
            "duration": 0.11274504166666333,
            "durationTicks": 23,
            "midi": 40,
            "name": "E2",
            "ticks": 8816,
            "time": 43.215664666666676,
            "velocity": 0.6535433070866141
          },
          {
            "duration": 0.07352937499999967,
            "durationTicks": 15,
            "midi": 44,
            "name": "G#2",
            "ticks": 8816,
            "time": 43.215664666666676,
            "velocity": 0.6535433070866141
          },
          {
            "duration": 0.053921541666660744,
            "durationTicks": 11,
            "midi": 39,
            "name": "D#2",
            "ticks": 8816,
            "time": 43.215664666666676,
            "velocity": 0.8818897637795275
          },
          {
            "duration": 0.03921566666666365,
            "durationTicks": 8,
            "midi": 62,
            "name": "D4",
            "ticks": 8820,
            "time": 43.23527250000001,
            "velocity": 0.937007874015748
          },
          {
            "duration": 0.09803916666665913,
            "durationTicks": 20,
            "midi": 45,
            "name": "A2",
            "ticks": 8874,
            "time": 43.499978250000005,
            "velocity": 0.6535433070866141
          },
          {
            "duration": 0.10294112500000097,
            "durationTicks": 21,
            "midi": 35,
            "name": "B1",
            "ticks": 8874,
            "time": 43.499978250000005,
            "velocity": 0.6535433070866141
          },
          {
            "duration": 0.2941175000000058,
            "durationTicks": 60,
            "midi": 36,
            "name": "C2",
            "ticks": 8875,
            "time": 43.50488020833333,
            "velocity": 0.6535433070866141
          },
          {
            "duration": 0.02450979166666656,
            "durationTicks": 5,
            "midi": 62,
            "name": "D4",
            "ticks": 8880,
            "time": 43.52939000000001,
            "velocity": 0.8267716535433071
          },
          {
            "duration": 0.09803916666666623,
            "durationTicks": 20,
            "midi": 45,
            "name": "A2",
            "ticks": 8934,
            "time": 43.794095750000004,
            "velocity": 0.6535433070866141
          },
          {
            "duration": 0.08823524999999677,
            "durationTicks": 18,
            "midi": 35,
            "name": "B1",
            "ticks": 8934,
            "time": 43.794095750000004,
            "velocity": 0.6535433070866141
          },
          {
            "duration": 0.044117624999998384,
            "durationTicks": 9,
            "midi": 63,
            "name": "D#4",
            "ticks": 8970,
            "time": 43.970566250000005,
            "velocity": 1
          },
          {
            "duration": 0.11764699999999806,
            "durationTicks": 24,
            "midi": 45,
            "name": "A2",
            "ticks": 8994,
            "time": 44.08821325000001,
            "velocity": 0.6535433070866141
          },
          {
            "duration": 0.0931372083333315,
            "durationTicks": 19,
            "midi": 35,
            "name": "B1",
            "ticks": 8994,
            "time": 44.08821325000001,
            "velocity": 0.6535433070866141
          },
          {
            "duration": 0.2941174999999987,
            "durationTicks": 60,
            "midi": 36,
            "name": "C2",
            "ticks": 8995,
            "time": 44.09311520833334,
            "velocity": 0.6535433070866141
          },
          {
            "duration": 0.0931372083333315,
            "durationTicks": 19,
            "midi": 45,
            "name": "A2",
            "ticks": 9054,
            "time": 44.38233075000001,
            "velocity": 0.6535433070866141
          },
          {
            "duration": 0.0931372083333315,
            "durationTicks": 19,
            "midi": 35,
            "name": "B1",
            "ticks": 9054,
            "time": 44.38233075000001,
            "velocity": 0.6535433070866141
          },
          {
            "duration": 0.04901958333333312,
            "durationTicks": 10,
            "midi": 64,
            "name": "E4",
            "ticks": 9060,
            "time": 44.4117425,
            "velocity": 1
          },
          {
            "duration": 0.12745091666666752,
            "durationTicks": 26,
            "midi": 45,
            "name": "A2",
            "ticks": 9114,
            "time": 44.67644825000001,
            "velocity": 0.6535433070866141
          },
          {
            "duration": 0.10294112500000097,
            "durationTicks": 21,
            "midi": 35,
            "name": "B1",
            "ticks": 9114,
            "time": 44.67644825000001,
            "velocity": 0.6535433070866141
          },
          {
            "duration": 0.2941174999999987,
            "durationTicks": 60,
            "midi": 36,
            "name": "C2",
            "ticks": 9115,
            "time": 44.681350208333335,
            "velocity": 0.6535433070866141
          },
          {
            "duration": 0.11274504166667043,
            "durationTicks": 23,
            "midi": 57,
            "name": "A3",
            "ticks": 9116,
            "time": 44.68625216666667,
            "velocity": 0.6535433070866141
          },
          {
            "duration": 0.05392154166666785,
            "durationTicks": 11,
            "midi": 39,
            "name": "D#2",
            "ticks": 9116,
            "time": 44.68625216666667,
            "velocity": 0.937007874015748
          },
          {
            "duration": 0.0784313333333273,
            "durationTicks": 16,
            "midi": 44,
            "name": "G#2",
            "ticks": 9176,
            "time": 44.980369666666675,
            "velocity": 0.6535433070866141
          },
          {
            "duration": 0.04901958333333312,
            "durationTicks": 10,
            "midi": 46,
            "name": "A#2",
            "ticks": 9178,
            "time": 44.99017358333334,
            "velocity": 0.6535433070866141
          },
          {
            "duration": 0.04901958333333312,
            "durationTicks": 10,
            "midi": 34,
            "name": "A#1",
            "ticks": 9178,
            "time": 44.99017358333334,
            "velocity": 0.5590551181102362
          },
          {
            "duration": 0.0931372083333315,
            "durationTicks": 19,
            "midi": 40,
            "name": "E2",
            "ticks": 9206,
            "time": 45.127428416666675,
            "velocity": 0.6535433070866141
          },
          {
            "duration": 0.07352937499999967,
            "durationTicks": 15,
            "midi": 44,
            "name": "G#2",
            "ticks": 9206,
            "time": 45.127428416666675,
            "velocity": 0.6535433070866141
          },
          {
            "duration": 0.07352937499999967,
            "durationTicks": 15,
            "midi": 46,
            "name": "A#2",
            "ticks": 9208,
            "time": 45.13723233333334,
            "velocity": 0.6535433070866141
          },
          {
            "duration": 0.07352937499999967,
            "durationTicks": 15,
            "midi": 34,
            "name": "A#1",
            "ticks": 9208,
            "time": 45.13723233333334,
            "velocity": 0.5590551181102362
          },
          {
            "duration": 0.02450979166666656,
            "durationTicks": 5,
            "midi": 61,
            "name": "C#4",
            "ticks": 9210,
            "time": 45.147036250000006,
            "velocity": 0.937007874015748
          },
          {
            "duration": 0.2941175000000058,
            "durationTicks": 60,
            "midi": 36,
            "name": "C2",
            "ticks": 9235,
            "time": 45.26958520833333,
            "velocity": 0.6535433070866141
          },
          {
            "duration": 0.08333329166666203,
            "durationTicks": 17,
            "midi": 44,
            "name": "G#2",
            "ticks": 9236,
            "time": 45.274487166666674,
            "velocity": 0.6535433070866141
          },
          {
            "duration": 0.07352937499999967,
            "durationTicks": 15,
            "midi": 44,
            "name": "G#2",
            "ticks": 9266,
            "time": 45.42154591666667,
            "velocity": 0.6535433070866141
          },
          {
            "duration": 0.02941175000000129,
            "durationTicks": 6,
            "midi": 46,
            "name": "A#2",
            "ticks": 9268,
            "time": 45.431349833333336,
            "velocity": 0.6535433070866141
          },
          {
            "duration": 0.02941175000000129,
            "durationTicks": 6,
            "midi": 34,
            "name": "A#1",
            "ticks": 9268,
            "time": 45.431349833333336,
            "velocity": 0.5590551181102362
          },
          {
            "duration": 0.10294112500000097,
            "durationTicks": 21,
            "midi": 40,
            "name": "E2",
            "ticks": 9296,
            "time": 45.56860466666667,
            "velocity": 0.6535433070866141
          },
          {
            "duration": 0.08823524999999677,
            "durationTicks": 18,
            "midi": 44,
            "name": "G#2",
            "ticks": 9296,
            "time": 45.56860466666667,
            "velocity": 0.6535433070866141
          },
          {
            "duration": 0.06862741666666494,
            "durationTicks": 14,
            "midi": 39,
            "name": "D#2",
            "ticks": 9296,
            "time": 45.56860466666667,
            "velocity": 0.7637795275590551
          },
          {
            "duration": 0.13725483333332988,
            "durationTicks": 28,
            "midi": 46,
            "name": "A#2",
            "ticks": 9298,
            "time": 45.57840858333334,
            "velocity": 0.6535433070866141
          },
          {
            "duration": 0.13725483333332988,
            "durationTicks": 28,
            "midi": 34,
            "name": "A#1",
            "ticks": 9298,
            "time": 45.57840858333334,
            "velocity": 0.5590551181102362
          },
          {
            "duration": 0.05882349999999548,
            "durationTicks": 12,
            "midi": 62,
            "name": "D4",
            "ticks": 9300,
            "time": 45.588212500000004,
            "velocity": 1
          },
          {
            "duration": 0.0784313333333273,
            "durationTicks": 16,
            "midi": 44,
            "name": "G#2",
            "ticks": 9326,
            "time": 45.71566341666667,
            "velocity": 0.6535433070866141
          },
          {
            "duration": 0.10294112499999386,
            "durationTicks": 21,
            "midi": 45,
            "name": "A2",
            "ticks": 9354,
            "time": 45.85291825000001,
            "velocity": 0.6535433070866141
          },
          {
            "duration": 0.08823524999998966,
            "durationTicks": 18,
            "midi": 35,
            "name": "B1",
            "ticks": 9354,
            "time": 45.85291825000001,
            "velocity": 0.6535433070866141
          },
          {
            "duration": 0.2941174999999987,
            "durationTicks": 60,
            "midi": 36,
            "name": "C2",
            "ticks": 9355,
            "time": 45.85782020833334,
            "velocity": 0.6535433070866141
          },
          {
            "duration": 0.08823524999999677,
            "durationTicks": 18,
            "midi": 44,
            "name": "G#2",
            "ticks": 9356,
            "time": 45.86272216666667,
            "velocity": 0.6535433070866141
          },
          {
            "duration": 0.06372545833333731,
            "durationTicks": 13,
            "midi": 39,
            "name": "D#2",
            "ticks": 9356,
            "time": 45.86272216666667,
            "velocity": 0.8267716535433071
          },
          {
            "duration": 0.019607833333331826,
            "durationTicks": 4,
            "midi": 62,
            "name": "D4",
            "ticks": 9360,
            "time": 45.88233,
            "velocity": 0.5511811023622047
          },
          {
            "duration": 0.07843133333333441,
            "durationTicks": 16,
            "midi": 44,
            "name": "G#2",
            "ticks": 9386,
            "time": 46.00978091666667,
            "velocity": 0.6535433070866141
          },
          {
            "duration": 0.06862741666666494,
            "durationTicks": 14,
            "midi": 39,
            "name": "D#2",
            "ticks": 9386,
            "time": 46.00978091666667,
            "velocity": 0.5196850393700787
          },
          {
            "duration": 0.05392154166666785,
            "durationTicks": 11,
            "midi": 63,
            "name": "D#4",
            "ticks": 9390,
            "time": 46.02938875,
            "velocity": 1
          },
          {
            "duration": 0.07843133333333441,
            "durationTicks": 16,
            "midi": 44,
            "name": "G#2",
            "ticks": 9416,
            "time": 46.15683966666667,
            "velocity": 0.6535433070866141
          },
          {
            "duration": 0.05392154166666785,
            "durationTicks": 11,
            "midi": 46,
            "name": "A#2",
            "ticks": 9418,
            "time": 46.16664358333334,
            "velocity": 0.6535433070866141
          },
          {
            "duration": 0.05392154166666785,
            "durationTicks": 11,
            "midi": 34,
            "name": "A#1",
            "ticks": 9418,
            "time": 46.16664358333334,
            "velocity": 0.5590551181102362
          },
          {
            "duration": 0.10294112500000097,
            "durationTicks": 21,
            "midi": 40,
            "name": "E2",
            "ticks": 9446,
            "time": 46.30389841666667,
            "velocity": 0.6535433070866141
          },
          {
            "duration": 0.06862741666666494,
            "durationTicks": 14,
            "midi": 44,
            "name": "G#2",
            "ticks": 9446,
            "time": 46.30389841666667,
            "velocity": 0.6535433070866141
          },
          {
            "duration": 0.07843133333333441,
            "durationTicks": 16,
            "midi": 39,
            "name": "D#2",
            "ticks": 9446,
            "time": 46.30389841666667,
            "velocity": 0.6377952755905512
          },
          {
            "duration": 0.07352937499999967,
            "durationTicks": 15,
            "midi": 46,
            "name": "A#2",
            "ticks": 9448,
            "time": 46.31370233333334,
            "velocity": 0.6535433070866141
          },
          {
            "duration": 0.06862741666666494,
            "durationTicks": 14,
            "midi": 34,
            "name": "A#1",
            "ticks": 9448,
            "time": 46.31370233333334,
            "velocity": 0.5590551181102362
          },
          {
            "duration": 0.05392154166666785,
            "durationTicks": 11,
            "midi": 61,
            "name": "C#4",
            "ticks": 9450,
            "time": 46.32350625000001,
            "velocity": 0.905511811023622
          },
          {
            "duration": 0.2941174999999987,
            "durationTicks": 60,
            "midi": 36,
            "name": "C2",
            "ticks": 9475,
            "time": 46.446055208333334,
            "velocity": 0.6535433070866141
          },
          {
            "duration": 0.0784313333333273,
            "durationTicks": 16,
            "midi": 44,
            "name": "G#2",
            "ticks": 9476,
            "time": 46.450957166666676,
            "velocity": 0.6535433070866141
          },
          {
            "duration": 0.06372545833333021,
            "durationTicks": 13,
            "midi": 39,
            "name": "D#2",
            "ticks": 9476,
            "time": 46.450957166666676,
            "velocity": 0.937007874015748
          },
          {
            "duration": 0.044117624999998384,
            "durationTicks": 9,
            "midi": 62,
            "name": "D4",
            "ticks": 9480,
            "time": 46.47056500000001,
            "velocity": 1
          },
          {
            "duration": 0.06372545833333021,
            "durationTicks": 13,
            "midi": 44,
            "name": "G#2",
            "ticks": 9506,
            "time": 46.598015916666675,
            "velocity": 0.6535433070866141
          },
          {
            "duration": 0.04901958333333312,
            "durationTicks": 10,
            "midi": 46,
            "name": "A#2",
            "ticks": 9508,
            "time": 46.60781983333334,
            "velocity": 0.6535433070866141
          },
          {
            "duration": 0.04901958333333312,
            "durationTicks": 10,
            "midi": 34,
            "name": "A#1",
            "ticks": 9508,
            "time": 46.60781983333334,
            "velocity": 0.5590551181102362
          },
          {
            "duration": 0.05392154166666785,
            "durationTicks": 11,
            "midi": 63,
            "name": "D#4",
            "ticks": 9510,
            "time": 46.61762375000001,
            "velocity": 1
          },
          {
            "duration": 0.11274504166666333,
            "durationTicks": 23,
            "midi": 40,
            "name": "E2",
            "ticks": 9536,
            "time": 46.745074666666675,
            "velocity": 0.6535433070866141
          },
          {
            "duration": 0.07352937499999967,
            "durationTicks": 15,
            "midi": 44,
            "name": "G#2",
            "ticks": 9536,
            "time": 46.745074666666675,
            "velocity": 0.6535433070866141
          },
          {
            "duration": 0.0931372083333315,
            "durationTicks": 19,
            "midi": 39,
            "name": "D#2",
            "ticks": 9536,
            "time": 46.745074666666675,
            "velocity": 0.8031496062992126
          },
          {
            "duration": 0.15686266666666882,
            "durationTicks": 32,
            "midi": 46,
            "name": "A#2",
            "ticks": 9538,
            "time": 46.75487858333334,
            "velocity": 0.6535433070866141
          },
          {
            "duration": 0.15196070833333408,
            "durationTicks": 31,
            "midi": 34,
            "name": "A#1",
            "ticks": 9538,
            "time": 46.75487858333334,
            "velocity": 0.5590551181102362
          },
          {
            "duration": 0.04901958333332601,
            "durationTicks": 10,
            "midi": 64,
            "name": "E4",
            "ticks": 9540,
            "time": 46.764682500000006,
            "velocity": 1
          },
          {
            "duration": 0.07352937499999967,
            "durationTicks": 15,
            "midi": 44,
            "name": "G#2",
            "ticks": 9566,
            "time": 46.892133416666674,
            "velocity": 0.6535433070866141
          },
          {
            "duration": 0.06372545833333021,
            "durationTicks": 13,
            "midi": 63,
            "name": "D#4",
            "ticks": 9570,
            "time": 46.911741250000006,
            "velocity": 1
          },
          {
            "duration": 0.0931372083333386,
            "durationTicks": 19,
            "midi": 45,
            "name": "A2",
            "ticks": 9594,
            "time": 47.029388250000004,
            "velocity": 0.6535433070866141
          },
          {
            "duration": 0.09803916666666623,
            "durationTicks": 20,
            "midi": 35,
            "name": "B1",
            "ticks": 9594,
            "time": 47.029388250000004,
            "velocity": 0.6535433070866141
          },
          {
            "duration": 0.2941174999999987,
            "durationTicks": 60,
            "midi": 36,
            "name": "C2",
            "ticks": 9595,
            "time": 47.03429020833334,
            "velocity": 0.6535433070866141
          },
          {
            "duration": 0.06862741666666494,
            "durationTicks": 14,
            "midi": 44,
            "name": "G#2",
            "ticks": 9596,
            "time": 47.03919216666667,
            "velocity": 0.6535433070866141
          },
          {
            "duration": 0.03921566666666365,
            "durationTicks": 8,
            "midi": 62,
            "name": "D4",
            "ticks": 9600,
            "time": 47.058800000000005,
            "velocity": 0.9763779527559056
          },
          {
            "duration": 0.07352937499999967,
            "durationTicks": 15,
            "midi": 44,
            "name": "G#2",
            "ticks": 9626,
            "time": 47.18625091666667,
            "velocity": 0.6535433070866141
          },
          {
            "duration": 0.0784313333333273,
            "durationTicks": 16,
            "midi": 44,
            "name": "G#2",
            "ticks": 9656,
            "time": 47.33330966666667,
            "velocity": 0.6535433070866141
          },
          {
            "duration": 0.044117624999998384,
            "durationTicks": 9,
            "midi": 46,
            "name": "A#2",
            "ticks": 9658,
            "time": 47.34311358333334,
            "velocity": 0.6535433070866141
          },
          {
            "duration": 0.03921566666666365,
            "durationTicks": 8,
            "midi": 34,
            "name": "A#1",
            "ticks": 9658,
            "time": 47.34311358333334,
            "velocity": 0.5590551181102362
          },
          {
            "duration": 0.03921566666666365,
            "durationTicks": 8,
            "midi": 62,
            "name": "D4",
            "ticks": 9660,
            "time": 47.352917500000004,
            "velocity": 1
          },
          {
            "duration": 0.0931372083333315,
            "durationTicks": 19,
            "midi": 40,
            "name": "E2",
            "ticks": 9686,
            "time": 47.48036841666667,
            "velocity": 0.6535433070866141
          },
          {
            "duration": 0.0784313333333273,
            "durationTicks": 16,
            "midi": 44,
            "name": "G#2",
            "ticks": 9686,
            "time": 47.48036841666667,
            "velocity": 0.6535433070866141
          },
          {
            "duration": 0.0784313333333273,
            "durationTicks": 16,
            "midi": 39,
            "name": "D#2",
            "ticks": 9686,
            "time": 47.48036841666667,
            "velocity": 0.7637795275590551
          },
          {
            "duration": 0.04901958333332601,
            "durationTicks": 10,
            "midi": 46,
            "name": "A#2",
            "ticks": 9688,
            "time": 47.49017233333334,
            "velocity": 0.6535433070866141
          },
          {
            "duration": 0.04901958333332601,
            "durationTicks": 10,
            "midi": 34,
            "name": "A#1",
            "ticks": 9688,
            "time": 47.49017233333334,
            "velocity": 0.5590551181102362
          },
          {
            "duration": 0.07843133333334151,
            "durationTicks": 16,
            "midi": 60,
            "name": "C4",
            "ticks": 9690,
            "time": 47.49997625,
            "velocity": 1
          },
          {
            "duration": 0.2941174999999987,
            "durationTicks": 60,
            "midi": 36,
            "name": "C2",
            "ticks": 9715,
            "time": 47.622525208333336,
            "velocity": 0.6535433070866141
          },
          {
            "duration": 0.07352937499999967,
            "durationTicks": 15,
            "midi": 44,
            "name": "G#2",
            "ticks": 9716,
            "time": 47.62742716666667,
            "velocity": 0.6535433070866141
          },
          {
            "duration": 0.03921566666666365,
            "durationTicks": 8,
            "midi": 39,
            "name": "D#2",
            "ticks": 9716,
            "time": 47.62742716666667,
            "velocity": 0.7795275590551181
          },
          {
            "duration": 0.029411749999994186,
            "durationTicks": 6,
            "midi": 46,
            "name": "A#2",
            "ticks": 9718,
            "time": 47.63723108333334,
            "velocity": 0.6535433070866141
          },
          {
            "duration": 0.02450979166666656,
            "durationTicks": 5,
            "midi": 34,
            "name": "A#1",
            "ticks": 9718,
            "time": 47.63723108333334,
            "velocity": 0.5590551181102362
          },
          {
            "duration": 0.06862741666666494,
            "durationTicks": 14,
            "midi": 44,
            "name": "G#2",
            "ticks": 9746,
            "time": 47.77448591666667,
            "velocity": 0.6535433070866141
          },
          {
            "duration": 0.044117624999998384,
            "durationTicks": 9,
            "midi": 46,
            "name": "A#2",
            "ticks": 9748,
            "time": 47.78428983333334,
            "velocity": 0.6535433070866141
          },
          {
            "duration": 0.044117624999998384,
            "durationTicks": 9,
            "midi": 34,
            "name": "A#1",
            "ticks": 9748,
            "time": 47.78428983333334,
            "velocity": 0.5590551181102362
          },
          {
            "duration": 0.039215666666670757,
            "durationTicks": 8,
            "midi": 61,
            "name": "C#4",
            "ticks": 9750,
            "time": 47.79409375,
            "velocity": 1
          },
          {
            "duration": 0.11274504166666333,
            "durationTicks": 23,
            "midi": 40,
            "name": "E2",
            "ticks": 9776,
            "time": 47.92154466666668,
            "velocity": 0.6535433070866141
          },
          {
            "duration": 0.0784313333333273,
            "durationTicks": 16,
            "midi": 44,
            "name": "G#2",
            "ticks": 9776,
            "time": 47.92154466666668,
            "velocity": 0.6535433070866141
          },
          {
            "duration": 0.04901958333332601,
            "durationTicks": 10,
            "midi": 39,
            "name": "D#2",
            "ticks": 9776,
            "time": 47.92154466666668,
            "velocity": 0.8503937007874016
          },
          {
            "duration": 0.17647050000000064,
            "durationTicks": 36,
            "midi": 46,
            "name": "A#2",
            "ticks": 9778,
            "time": 47.93134858333334,
            "velocity": 0.6535433070866141
          },
          {
            "duration": 0.171568541666673,
            "durationTicks": 35,
            "midi": 34,
            "name": "A#1",
            "ticks": 9778,
            "time": 47.93134858333334,
            "velocity": 0.5590551181102362
          },
          {
            "duration": 0.029411749999994186,
            "durationTicks": 6,
            "midi": 63,
            "name": "D#4",
            "ticks": 9780,
            "time": 47.94115250000001,
            "velocity": 1
          },
          {
            "duration": 0.08823524999998966,
            "durationTicks": 18,
            "midi": 44,
            "name": "G#2",
            "ticks": 9806,
            "time": 48.068603416666676,
            "velocity": 0.6535433070866141
          },
          {
            "duration": 0.08823524999999677,
            "durationTicks": 18,
            "midi": 45,
            "name": "A2",
            "ticks": 9834,
            "time": 48.205858250000006,
            "velocity": 0.6535433070866141
          },
          {
            "duration": 0.0784313333333273,
            "durationTicks": 16,
            "midi": 35,
            "name": "B1",
            "ticks": 9834,
            "time": 48.205858250000006,
            "velocity": 0.6535433070866141
          },
          {
            "duration": 0.2941175000000058,
            "durationTicks": 60,
            "midi": 36,
            "name": "C2",
            "ticks": 9835,
            "time": 48.21076020833333,
            "velocity": 0.6535433070866141
          },
          {
            "duration": 0.0784313333333273,
            "durationTicks": 16,
            "midi": 44,
            "name": "G#2",
            "ticks": 9836,
            "time": 48.215662166666675,
            "velocity": 0.6535433070866141
          },
          {
            "duration": 0.05392154166666785,
            "durationTicks": 11,
            "midi": 39,
            "name": "D#2",
            "ticks": 9836,
            "time": 48.215662166666675,
            "velocity": 0.8267716535433071
          },
          {
            "duration": 0.034313708333336024,
            "durationTicks": 7,
            "midi": 62,
            "name": "D4",
            "ticks": 9840,
            "time": 48.23527000000001,
            "velocity": 0.8818897637795275
          },
          {
            "duration": 0.05392154166666785,
            "durationTicks": 11,
            "midi": 44,
            "name": "G#2",
            "ticks": 9866,
            "time": 48.362720916666674,
            "velocity": 0.6535433070866141
          },
          {
            "duration": 0.04901958333333312,
            "durationTicks": 10,
            "midi": 46,
            "name": "A#2",
            "ticks": 9868,
            "time": 48.37252483333334,
            "velocity": 0.6535433070866141
          },
          {
            "duration": 0.04901958333333312,
            "durationTicks": 10,
            "midi": 34,
            "name": "A#1",
            "ticks": 9868,
            "time": 48.37252483333334,
            "velocity": 0.5590551181102362
          },
          {
            "duration": 0.05392154166666785,
            "durationTicks": 11,
            "midi": 63,
            "name": "D#4",
            "ticks": 9870,
            "time": 48.382328750000006,
            "velocity": 1
          },
          {
            "duration": 0.0784313333333273,
            "durationTicks": 16,
            "midi": 44,
            "name": "G#2",
            "ticks": 9896,
            "time": 48.509779666666674,
            "velocity": 0.6535433070866141
          },
          {
            "duration": 0.019607833333331826,
            "durationTicks": 4,
            "midi": 62,
            "name": "D4",
            "ticks": 9900,
            "time": 48.529387500000006,
            "velocity": 0.5905511811023622
          },
          {
            "duration": 0.0931372083333315,
            "durationTicks": 19,
            "midi": 40,
            "name": "E2",
            "ticks": 9926,
            "time": 48.65683841666667,
            "velocity": 0.6535433070866141
          },
          {
            "duration": 0.0784313333333273,
            "durationTicks": 16,
            "midi": 44,
            "name": "G#2",
            "ticks": 9926,
            "time": 48.65683841666667,
            "velocity": 0.6535433070866141
          },
          {
            "duration": 0.0784313333333273,
            "durationTicks": 16,
            "midi": 39,
            "name": "D#2",
            "ticks": 9926,
            "time": 48.65683841666667,
            "velocity": 0.8267716535433071
          },
          {
            "duration": 0.053921541666660744,
            "durationTicks": 11,
            "midi": 46,
            "name": "A#2",
            "ticks": 9928,
            "time": 48.66664233333334,
            "velocity": 0.6535433070866141
          },
          {
            "duration": 0.04901958333332601,
            "durationTicks": 10,
            "midi": 34,
            "name": "A#1",
            "ticks": 9928,
            "time": 48.66664233333334,
            "velocity": 0.5590551181102362
          },
          {
            "duration": 0.03921566666666365,
            "durationTicks": 8,
            "midi": 63,
            "name": "D#4",
            "ticks": 9930,
            "time": 48.676446250000005,
            "velocity": 1
          },
          {
            "duration": 0.2941174999999987,
            "durationTicks": 60,
            "midi": 36,
            "name": "C2",
            "ticks": 9955,
            "time": 48.79899520833334,
            "velocity": 0.6535433070866141
          },
          {
            "duration": 0.07352937499999967,
            "durationTicks": 15,
            "midi": 44,
            "name": "G#2",
            "ticks": 9956,
            "time": 48.80389716666667,
            "velocity": 0.6535433070866141
          },
          {
            "duration": 0.03921566666666365,
            "durationTicks": 8,
            "midi": 39,
            "name": "D#2",
            "ticks": 9956,
            "time": 48.80389716666667,
            "velocity": 0.6929133858267716
          },
          {
            "duration": 0.04411762500000549,
            "durationTicks": 9,
            "midi": 62,
            "name": "D4",
            "ticks": 9960,
            "time": 48.823505000000004,
            "velocity": 1
          },
          {
            "duration": 0.07352937499999967,
            "durationTicks": 15,
            "midi": 44,
            "name": "G#2",
            "ticks": 9986,
            "time": 48.95095591666667,
            "velocity": 0.6535433070866141
          },
          {
            "duration": 0.044117624999998384,
            "durationTicks": 9,
            "midi": 46,
            "name": "A#2",
            "ticks": 9988,
            "time": 48.96075983333334,
            "velocity": 0.6535433070866141
          },
          {
            "duration": 0.044117624999998384,
            "durationTicks": 9,
            "midi": 34,
            "name": "A#1",
            "ticks": 9988,
            "time": 48.96075983333334,
            "velocity": 0.5590551181102362
          },
          {
            "duration": 0.10294112500000097,
            "durationTicks": 21,
            "midi": 40,
            "name": "E2",
            "ticks": 10016,
            "time": 49.09801466666667,
            "velocity": 0.6535433070866141
          },
          {
            "duration": 0.07352937499999967,
            "durationTicks": 15,
            "midi": 44,
            "name": "G#2",
            "ticks": 10016,
            "time": 49.09801466666667,
            "velocity": 0.6535433070866141
          },
          {
            "duration": 0.137254833333337,
            "durationTicks": 28,
            "midi": 39,
            "name": "D#2",
            "ticks": 10016,
            "time": 49.09801466666667,
            "velocity": 0.937007874015748
          },
          {
            "duration": 0.21078420833332956,
            "durationTicks": 43,
            "midi": 46,
            "name": "A#2",
            "ticks": 10018,
            "time": 49.10781858333334,
            "velocity": 0.6535433070866141
          },
          {
            "duration": 0.21078420833332956,
            "durationTicks": 43,
            "midi": 34,
            "name": "A#1",
            "ticks": 10018,
            "time": 49.10781858333334,
            "velocity": 0.5590551181102362
          },
          {
            "duration": 0.06372545833333731,
            "durationTicks": 13,
            "midi": 79,
            "name": "G5",
            "ticks": 10020,
            "time": 49.1176225,
            "velocity": 1
          },
          {
            "duration": 0.07843133333333441,
            "durationTicks": 16,
            "midi": 44,
            "name": "G#2",
            "ticks": 10046,
            "time": 49.24507341666667,
            "velocity": 0.6535433070866141
          },
          {
            "duration": 0.12745091666666752,
            "durationTicks": 26,
            "midi": 45,
            "name": "A2",
            "ticks": 10074,
            "time": 49.38232825000001,
            "velocity": 0.6535433070866141
          },
          {
            "duration": 0.10294112500000097,
            "durationTicks": 21,
            "midi": 35,
            "name": "B1",
            "ticks": 10074,
            "time": 49.38232825000001,
            "velocity": 0.6535433070866141
          },
          {
            "duration": 0.2941174999999987,
            "durationTicks": 60,
            "midi": 36,
            "name": "C2",
            "ticks": 10075,
            "time": 49.387230208333335,
            "velocity": 0.6535433070866141
          },
          {
            "duration": 0.0931372083333386,
            "durationTicks": 19,
            "midi": 44,
            "name": "G#2",
            "ticks": 10076,
            "time": 49.39213216666667,
            "velocity": 0.6535433070866141
          },
          {
            "duration": 0.05882350000000258,
            "durationTicks": 12,
            "midi": 39,
            "name": "D#2",
            "ticks": 10076,
            "time": 49.39213216666667,
            "velocity": 0.7795275590551181
          },
          {
            "duration": 0.024509791666673664,
            "durationTicks": 5,
            "midi": 62,
            "name": "D4",
            "ticks": 10080,
            "time": 49.41174,
            "velocity": 0.7795275590551181
          },
          {
            "duration": 0.07352937499999967,
            "durationTicks": 15,
            "midi": 44,
            "name": "G#2",
            "ticks": 10106,
            "time": 49.539190916666676,
            "velocity": 0.6535433070866141
          },
          {
            "duration": 0.0784313333333273,
            "durationTicks": 16,
            "midi": 39,
            "name": "D#2",
            "ticks": 10106,
            "time": 49.539190916666676,
            "velocity": 0.3228346456692913
          },
          {
            "duration": 0.0931372083333315,
            "durationTicks": 19,
            "midi": 44,
            "name": "G#2",
            "ticks": 10136,
            "time": 49.686249666666676,
            "velocity": 0.6535433070866141
          },
          {
            "duration": 0.05392154166666785,
            "durationTicks": 11,
            "midi": 46,
            "name": "A#2",
            "ticks": 10138,
            "time": 49.69605358333334,
            "velocity": 0.6535433070866141
          },
          {
            "duration": 0.05392154166666785,
            "durationTicks": 11,
            "midi": 34,
            "name": "A#1",
            "ticks": 10138,
            "time": 49.69605358333334,
            "velocity": 0.5590551181102362
          },
          {
            "duration": 0.11274504166666333,
            "durationTicks": 23,
            "midi": 40,
            "name": "E2",
            "ticks": 10166,
            "time": 49.833308416666675,
            "velocity": 0.6535433070866141
          },
          {
            "duration": 0.0784313333333273,
            "durationTicks": 16,
            "midi": 44,
            "name": "G#2",
            "ticks": 10166,
            "time": 49.833308416666675,
            "velocity": 0.6535433070866141
          },
          {
            "duration": 0.0784313333333273,
            "durationTicks": 16,
            "midi": 39,
            "name": "D#2",
            "ticks": 10166,
            "time": 49.833308416666675,
            "velocity": 0.6220472440944882
          },
          {
            "duration": 0.07352937499999967,
            "durationTicks": 15,
            "midi": 46,
            "name": "A#2",
            "ticks": 10168,
            "time": 49.84311233333334,
            "velocity": 0.6535433070866141
          },
          {
            "duration": 0.07352937499999967,
            "durationTicks": 15,
            "midi": 34,
            "name": "A#1",
            "ticks": 10168,
            "time": 49.84311233333334,
            "velocity": 0.5590551181102362
          },
          {
            "duration": 0.03921566666666365,
            "durationTicks": 8,
            "midi": 61,
            "name": "C#4",
            "ticks": 10170,
            "time": 49.85291625000001,
            "velocity": 1
          },
          {
            "duration": 0.2941175000000058,
            "durationTicks": 60,
            "midi": 36,
            "name": "C2",
            "ticks": 10195,
            "time": 49.97546520833333,
            "velocity": 0.6535433070866141
          },
          {
            "duration": 0.08823524999999677,
            "durationTicks": 18,
            "midi": 44,
            "name": "G#2",
            "ticks": 10196,
            "time": 49.980367166666674,
            "velocity": 0.6535433070866141
          },
          {
            "duration": 0.03921566666666365,
            "durationTicks": 8,
            "midi": 39,
            "name": "D#2",
            "ticks": 10196,
            "time": 49.980367166666674,
            "velocity": 0.6614173228346457
          },
          {
            "duration": 0.019607833333331826,
            "durationTicks": 4,
            "midi": 62,
            "name": "D4",
            "ticks": 10200,
            "time": 49.999975000000006,
            "velocity": 0.6220472440944882
          },
          {
            "duration": 0.07352937499999967,
            "durationTicks": 15,
            "midi": 44,
            "name": "G#2",
            "ticks": 10226,
            "time": 50.127425916666674,
            "velocity": 0.6535433070866141
          },
          {
            "duration": 0.044117624999998384,
            "durationTicks": 9,
            "midi": 39,
            "name": "D#2",
            "ticks": 10226,
            "time": 50.127425916666674,
            "velocity": 0.4015748031496063
          },
          {
            "duration": 0.039215666666670757,
            "durationTicks": 8,
            "midi": 46,
            "name": "A#2",
            "ticks": 10228,
            "time": 50.137229833333336,
            "velocity": 0.6535433070866141
          },
          {
            "duration": 0.039215666666670757,
            "durationTicks": 8,
            "midi": 34,
            "name": "A#1",
            "ticks": 10228,
            "time": 50.137229833333336,
            "velocity": 0.5590551181102362
          },
          {
            "duration": 0.06372545833333021,
            "durationTicks": 13,
            "midi": 60,
            "name": "C4",
            "ticks": 10230,
            "time": 50.147033750000006,
            "velocity": 1
          },
          {
            "duration": 0.12254895833333279,
            "durationTicks": 25,
            "midi": 40,
            "name": "E2",
            "ticks": 10256,
            "time": 50.27448466666667,
            "velocity": 0.6535433070866141
          },
          {
            "duration": 0.08823524999999677,
            "durationTicks": 18,
            "midi": 44,
            "name": "G#2",
            "ticks": 10256,
            "time": 50.27448466666667,
            "velocity": 0.6535433070866141
          },
          {
            "duration": 0.03921566666666365,
            "durationTicks": 8,
            "midi": 39,
            "name": "D#2",
            "ticks": 10256,
            "time": 50.27448466666667,
            "velocity": 0.7086614173228346
          },
          {
            "duration": 0.19117637499999773,
            "durationTicks": 39,
            "midi": 46,
            "name": "A#2",
            "ticks": 10258,
            "time": 50.28428858333334,
            "velocity": 0.6535433070866141
          },
          {
            "duration": 0.19117637499999773,
            "durationTicks": 39,
            "midi": 34,
            "name": "A#1",
            "ticks": 10258,
            "time": 50.28428858333334,
            "velocity": 0.5590551181102362
          },
          {
            "duration": 0.02450979166666656,
            "durationTicks": 5,
            "midi": 63,
            "name": "D#4",
            "ticks": 10260,
            "time": 50.294092500000005,
            "velocity": 1
          },
          {
            "duration": 0.06372545833333731,
            "durationTicks": 13,
            "midi": 44,
            "name": "G#2",
            "ticks": 10286,
            "time": 50.42154341666667,
            "velocity": 0.6535433070866141
          },
          {
            "duration": 0.03921566666666365,
            "durationTicks": 8,
            "midi": 39,
            "name": "D#2",
            "ticks": 10286,
            "time": 50.42154341666667,
            "velocity": 0.28346456692913385
          },
          {
            "duration": 0.10294112499999386,
            "durationTicks": 21,
            "midi": 45,
            "name": "A2",
            "ticks": 10314,
            "time": 50.55879825000001,
            "velocity": 0.6535433070866141
          },
          {
            "duration": 0.08823524999998966,
            "durationTicks": 18,
            "midi": 35,
            "name": "B1",
            "ticks": 10314,
            "time": 50.55879825000001,
            "velocity": 0.6535433070866141
          },
          {
            "duration": 0.2941174999999987,
            "durationTicks": 60,
            "midi": 36,
            "name": "C2",
            "ticks": 10315,
            "time": 50.56370020833334,
            "velocity": 0.6535433070866141
          },
          {
            "duration": 0.08823524999999677,
            "durationTicks": 18,
            "midi": 44,
            "name": "G#2",
            "ticks": 10316,
            "time": 50.56860216666667,
            "velocity": 0.6535433070866141
          },
          {
            "duration": 0.06372545833333731,
            "durationTicks": 13,
            "midi": 39,
            "name": "D#2",
            "ticks": 10316,
            "time": 50.56860216666667,
            "velocity": 1
          },
          {
            "duration": 0.02941175000000129,
            "durationTicks": 6,
            "midi": 62,
            "name": "D4",
            "ticks": 10320,
            "time": 50.588210000000004,
            "velocity": 1
          },
          {
            "duration": 0.07352937499999967,
            "durationTicks": 15,
            "midi": 44,
            "name": "G#2",
            "ticks": 10346,
            "time": 50.71566091666667,
            "velocity": 0.6535433070866141
          },
          {
            "duration": 0.04901958333333312,
            "durationTicks": 10,
            "midi": 39,
            "name": "D#2",
            "ticks": 10346,
            "time": 50.71566091666667,
            "velocity": 0.48031496062992124
          },
          {
            "duration": 0.06862741666666494,
            "durationTicks": 14,
            "midi": 46,
            "name": "A#2",
            "ticks": 10348,
            "time": 50.72546483333334,
            "velocity": 0.6535433070866141
          },
          {
            "duration": 0.06862741666666494,
            "durationTicks": 14,
            "midi": 34,
            "name": "A#1",
            "ticks": 10348,
            "time": 50.72546483333334,
            "velocity": 0.5590551181102362
          },
          {
            "duration": 0.03921566666666365,
            "durationTicks": 8,
            "midi": 61,
            "name": "C#4",
            "ticks": 10350,
            "time": 50.73526875,
            "velocity": 1
          },
          {
            "duration": 0.08823524999999677,
            "durationTicks": 18,
            "midi": 44,
            "name": "G#2",
            "ticks": 10376,
            "time": 50.86271966666667,
            "velocity": 0.6535433070866141
          },
          {
            "duration": 0.11274504166667043,
            "durationTicks": 23,
            "midi": 40,
            "name": "E2",
            "ticks": 10406,
            "time": 51.00977841666667,
            "velocity": 0.6535433070866141
          },
          {
            "duration": 0.07843133333333441,
            "durationTicks": 16,
            "midi": 44,
            "name": "G#2",
            "ticks": 10406,
            "time": 51.00977841666667,
            "velocity": 0.6535433070866141
          },
          {
            "duration": 0.04411762500000549,
            "durationTicks": 9,
            "midi": 39,
            "name": "D#2",
            "ticks": 10406,
            "time": 51.00977841666667,
            "velocity": 0.2755905511811024
          },
          {
            "duration": 0.07352937499999967,
            "durationTicks": 15,
            "midi": 46,
            "name": "A#2",
            "ticks": 10408,
            "time": 51.01958233333334,
            "velocity": 0.6535433070866141
          },
          {
            "duration": 0.07352937499999967,
            "durationTicks": 15,
            "midi": 34,
            "name": "A#1",
            "ticks": 10408,
            "time": 51.01958233333334,
            "velocity": 0.5590551181102362
          },
          {
            "duration": 0.07352937499999967,
            "durationTicks": 15,
            "midi": 60,
            "name": "C4",
            "ticks": 10410,
            "time": 51.02938625000001,
            "velocity": 1
          },
          {
            "duration": 0.2941174999999987,
            "durationTicks": 60,
            "midi": 36,
            "name": "C2",
            "ticks": 10435,
            "time": 51.151935208333335,
            "velocity": 0.6535433070866141
          },
          {
            "duration": 0.08823524999998966,
            "durationTicks": 18,
            "midi": 44,
            "name": "G#2",
            "ticks": 10436,
            "time": 51.156837166666676,
            "velocity": 0.6535433070866141
          },
          {
            "duration": 0.03921566666666365,
            "durationTicks": 8,
            "midi": 62,
            "name": "D4",
            "ticks": 10440,
            "time": 51.17644500000001,
            "velocity": 0.937007874015748
          },
          {
            "duration": 0.06862741666665784,
            "durationTicks": 14,
            "midi": 44,
            "name": "G#2",
            "ticks": 10466,
            "time": 51.303895916666676,
            "velocity": 0.6535433070866141
          },
          {
            "duration": 0.0784313333333273,
            "durationTicks": 16,
            "midi": 39,
            "name": "D#2",
            "ticks": 10466,
            "time": 51.303895916666676,
            "velocity": 0.7401574803149606
          },
          {
            "duration": 0.06372545833333731,
            "durationTicks": 13,
            "midi": 46,
            "name": "A#2",
            "ticks": 10468,
            "time": 51.31369983333334,
            "velocity": 0.6535433070866141
          },
          {
            "duration": 0.06372545833333731,
            "durationTicks": 13,
            "midi": 34,
            "name": "A#1",
            "ticks": 10468,
            "time": 51.31369983333334,
            "velocity": 0.5590551181102362
          },
          {
            "duration": 0.03921566666666365,
            "durationTicks": 8,
            "midi": 61,
            "name": "C#4",
            "ticks": 10470,
            "time": 51.32350375000001,
            "velocity": 0.8503937007874016
          },
          {
            "duration": 0.11764699999999806,
            "durationTicks": 24,
            "midi": 40,
            "name": "E2",
            "ticks": 10496,
            "time": 51.450954666666675,
            "velocity": 0.6535433070866141
          },
          {
            "duration": 0.08823524999999677,
            "durationTicks": 18,
            "midi": 44,
            "name": "G#2",
            "ticks": 10496,
            "time": 51.450954666666675,
            "velocity": 0.6535433070866141
          },
          {
            "duration": 0.044117624999998384,
            "durationTicks": 9,
            "midi": 39,
            "name": "D#2",
            "ticks": 10496,
            "time": 51.450954666666675,
            "velocity": 0.8818897637795275
          },
          {
            "duration": 0.19607833333333247,
            "durationTicks": 40,
            "midi": 46,
            "name": "A#2",
            "ticks": 10498,
            "time": 51.46075858333334,
            "velocity": 0.6535433070866141
          },
          {
            "duration": 0.19607833333333247,
            "durationTicks": 40,
            "midi": 34,
            "name": "A#1",
            "ticks": 10498,
            "time": 51.46075858333334,
            "velocity": 0.5590551181102362
          },
          {
            "duration": 0.019607833333331826,
            "durationTicks": 4,
            "midi": 64,
            "name": "E4",
            "ticks": 10500,
            "time": 51.47056250000001,
            "velocity": 1
          },
          {
            "duration": 0.06862741666666494,
            "durationTicks": 14,
            "midi": 44,
            "name": "G#2",
            "ticks": 10526,
            "time": 51.598013416666674,
            "velocity": 0.6535433070866141
          },
          {
            "duration": 0.0931372083333386,
            "durationTicks": 19,
            "midi": 45,
            "name": "A2",
            "ticks": 10554,
            "time": 51.735268250000004,
            "velocity": 0.6535433070866141
          },
          {
            "duration": 0.09803916666666623,
            "durationTicks": 20,
            "midi": 35,
            "name": "B1",
            "ticks": 10554,
            "time": 51.735268250000004,
            "velocity": 0.6535433070866141
          },
          {
            "duration": 0.2941174999999987,
            "durationTicks": 60,
            "midi": 36,
            "name": "C2",
            "ticks": 10555,
            "time": 51.74017020833334,
            "velocity": 0.6535433070866141
          },
          {
            "duration": 0.07352937499999967,
            "durationTicks": 15,
            "midi": 44,
            "name": "G#2",
            "ticks": 10556,
            "time": 51.745072166666674,
            "velocity": 0.6535433070866141
          },
          {
            "duration": 0.04901958333333312,
            "durationTicks": 10,
            "midi": 39,
            "name": "D#2",
            "ticks": 10556,
            "time": 51.745072166666674,
            "velocity": 0.8818897637795275
          },
          {
            "duration": 0.009803916666669465,
            "durationTicks": 2,
            "midi": 62,
            "name": "D4",
            "ticks": 10560,
            "time": 51.764680000000006,
            "velocity": 0.905511811023622
          },
          {
            "duration": 0.06372545833333731,
            "durationTicks": 13,
            "midi": 44,
            "name": "G#2",
            "ticks": 10586,
            "time": 51.89213091666667,
            "velocity": 0.6535433070866141
          },
          {
            "duration": 0.034313708333336024,
            "durationTicks": 7,
            "midi": 61,
            "name": "C#4",
            "ticks": 10590,
            "time": 51.911738750000005,
            "velocity": 1
          },
          {
            "duration": 0.0784313333333273,
            "durationTicks": 16,
            "midi": 44,
            "name": "G#2",
            "ticks": 10616,
            "time": 52.03918966666667,
            "velocity": 0.6535433070866141
          },
          {
            "duration": 0.04411762500000549,
            "durationTicks": 9,
            "midi": 39,
            "name": "D#2",
            "ticks": 10616,
            "time": 52.03918966666667,
            "velocity": 0.8031496062992126
          },
          {
            "duration": 0.05392154166666785,
            "durationTicks": 11,
            "midi": 46,
            "name": "A#2",
            "ticks": 10618,
            "time": 52.04899358333334,
            "velocity": 0.6535433070866141
          },
          {
            "duration": 0.05392154166666785,
            "durationTicks": 11,
            "midi": 34,
            "name": "A#1",
            "ticks": 10618,
            "time": 52.04899358333334,
            "velocity": 0.5590551181102362
          },
          {
            "duration": 0.10294112500000097,
            "durationTicks": 21,
            "midi": 40,
            "name": "E2",
            "ticks": 10646,
            "time": 52.18624841666667,
            "velocity": 0.6535433070866141
          },
          {
            "duration": 0.06862741666666494,
            "durationTicks": 14,
            "midi": 44,
            "name": "G#2",
            "ticks": 10646,
            "time": 52.18624841666667,
            "velocity": 0.6535433070866141
          },
          {
            "duration": 0.07352937499999967,
            "durationTicks": 15,
            "midi": 39,
            "name": "D#2",
            "ticks": 10646,
            "time": 52.18624841666667,
            "velocity": 0.6220472440944882
          },
          {
            "duration": 0.03921566666666365,
            "durationTicks": 8,
            "midi": 63,
            "name": "D#4",
            "ticks": 10650,
            "time": 52.205856250000004,
            "velocity": 1
          },
          {
            "duration": 0.2941174999999987,
            "durationTicks": 60,
            "midi": 36,
            "name": "C2",
            "ticks": 10675,
            "time": 52.328405208333336,
            "velocity": 0.6535433070866141
          },
          {
            "duration": 0.07352937499999967,
            "durationTicks": 15,
            "midi": 44,
            "name": "G#2",
            "ticks": 10676,
            "time": 52.33330716666667,
            "velocity": 0.6535433070866141
          },
          {
            "duration": 0.06372545833333731,
            "durationTicks": 13,
            "midi": 44,
            "name": "G#2",
            "ticks": 10706,
            "time": 52.48036591666667,
            "velocity": 0.6535433070866141
          },
          {
            "duration": 0.0784313333333273,
            "durationTicks": 16,
            "midi": 46,
            "name": "A#2",
            "ticks": 10708,
            "time": 52.49016983333334,
            "velocity": 0.6535433070866141
          },
          {
            "duration": 0.0784313333333273,
            "durationTicks": 16,
            "midi": 34,
            "name": "A#1",
            "ticks": 10708,
            "time": 52.49016983333334,
            "velocity": 0.5590551181102362
          },
          {
            "duration": 0.02941175000000129,
            "durationTicks": 6,
            "midi": 63,
            "name": "D#4",
            "ticks": 10710,
            "time": 52.49997375,
            "velocity": 0.9763779527559056
          },
          {
            "duration": 0.11274504166666333,
            "durationTicks": 23,
            "midi": 40,
            "name": "E2",
            "ticks": 10736,
            "time": 52.62742466666668,
            "velocity": 0.6535433070866141
          },
          {
            "duration": 0.08823524999998966,
            "durationTicks": 18,
            "midi": 44,
            "name": "G#2",
            "ticks": 10736,
            "time": 52.62742466666668,
            "velocity": 0.6535433070866141
          },
          {
            "duration": 0.044117624999998384,
            "durationTicks": 9,
            "midi": 39,
            "name": "D#2",
            "ticks": 10736,
            "time": 52.62742466666668,
            "velocity": 0.6929133858267716
          },
          {
            "duration": 0.19607833333333247,
            "durationTicks": 40,
            "midi": 46,
            "name": "A#2",
            "ticks": 10738,
            "time": 52.63722858333334,
            "velocity": 0.6535433070866141
          },
          {
            "duration": 0.19607833333333247,
            "durationTicks": 40,
            "midi": 34,
            "name": "A#1",
            "ticks": 10738,
            "time": 52.63722858333334,
            "velocity": 0.5590551181102362
          },
          {
            "duration": 0.03921566666666365,
            "durationTicks": 8,
            "midi": 64,
            "name": "E4",
            "ticks": 10740,
            "time": 52.64703250000001,
            "velocity": 1
          },
          {
            "duration": 0.06372545833333021,
            "durationTicks": 13,
            "midi": 44,
            "name": "G#2",
            "ticks": 10766,
            "time": 52.774483416666676,
            "velocity": 0.6535433070866141
          },
          {
            "duration": 0.08823524999999677,
            "durationTicks": 18,
            "midi": 45,
            "name": "A2",
            "ticks": 10794,
            "time": 52.911738250000006,
            "velocity": 0.6535433070866141
          },
          {
            "duration": 0.0784313333333273,
            "durationTicks": 16,
            "midi": 35,
            "name": "B1",
            "ticks": 10794,
            "time": 52.911738250000006,
            "velocity": 0.6535433070866141
          },
          {
            "duration": 0.2941175000000058,
            "durationTicks": 60,
            "midi": 36,
            "name": "C2",
            "ticks": 10795,
            "time": 52.916640208333334,
            "velocity": 0.6535433070866141
          },
          {
            "duration": 0.08823524999998966,
            "durationTicks": 18,
            "midi": 44,
            "name": "G#2",
            "ticks": 10796,
            "time": 52.921542166666676,
            "velocity": 0.6535433070866141
          },
          {
            "duration": 0.05392154166666785,
            "durationTicks": 11,
            "midi": 39,
            "name": "D#2",
            "ticks": 10796,
            "time": 52.921542166666676,
            "velocity": 1
          },
          {
            "duration": 0.06372545833333021,
            "durationTicks": 13,
            "midi": 44,
            "name": "G#2",
            "ticks": 10826,
            "time": 53.068600916666675,
            "velocity": 0.6535433070866141
          },
          {
            "duration": 0.06862741666666494,
            "durationTicks": 14,
            "midi": 46,
            "name": "A#2",
            "ticks": 10828,
            "time": 53.07840483333334,
            "velocity": 0.6535433070866141
          },
          {
            "duration": 0.06862741666666494,
            "durationTicks": 14,
            "midi": 34,
            "name": "A#1",
            "ticks": 10828,
            "time": 53.07840483333334,
            "velocity": 0.5590551181102362
          },
          {
            "duration": 0.044117624999998384,
            "durationTicks": 9,
            "midi": 60,
            "name": "C4",
            "ticks": 10830,
            "time": 53.08820875000001,
            "velocity": 1
          },
          {
            "duration": 0.07352937499999967,
            "durationTicks": 15,
            "midi": 44,
            "name": "G#2",
            "ticks": 10856,
            "time": 53.215659666666674,
            "velocity": 0.6535433070866141
          },
          {
            "duration": 0.02450979166666656,
            "durationTicks": 5,
            "midi": 39,
            "name": "D#2",
            "ticks": 10856,
            "time": 53.215659666666674,
            "velocity": 0.5905511811023622
          },
          {
            "duration": 0.11274504166666333,
            "durationTicks": 23,
            "midi": 40,
            "name": "E2",
            "ticks": 10886,
            "time": 53.362718416666674,
            "velocity": 0.6535433070866141
          },
          {
            "duration": 0.06372545833333021,
            "durationTicks": 13,
            "midi": 44,
            "name": "G#2",
            "ticks": 10886,
            "time": 53.362718416666674,
            "velocity": 0.6535433070866141
          },
          {
            "duration": 0.0931372083333315,
            "durationTicks": 19,
            "midi": 39,
            "name": "D#2",
            "ticks": 10886,
            "time": 53.362718416666674,
            "velocity": 0.7637795275590551
          },
          {
            "duration": 0.044117624999998384,
            "durationTicks": 9,
            "midi": 46,
            "name": "A#2",
            "ticks": 10888,
            "time": 53.37252233333334,
            "velocity": 0.6535433070866141
          },
          {
            "duration": 0.044117624999998384,
            "durationTicks": 9,
            "midi": 34,
            "name": "A#1",
            "ticks": 10888,
            "time": 53.37252233333334,
            "velocity": 0.5590551181102362
          },
          {
            "duration": 0.04901958333333312,
            "durationTicks": 10,
            "midi": 61,
            "name": "C#4",
            "ticks": 10890,
            "time": 53.382326250000006,
            "velocity": 1
          },
          {
            "duration": 0.2941174999999987,
            "durationTicks": 60,
            "midi": 36,
            "name": "C2",
            "ticks": 10915,
            "time": 53.50487520833334,
            "velocity": 0.6535433070866141
          },
          {
            "duration": 0.0931372083333315,
            "durationTicks": 19,
            "midi": 44,
            "name": "G#2",
            "ticks": 10916,
            "time": 53.50977716666667,
            "velocity": 0.6535433070866141
          },
          {
            "duration": 0.014705874999997093,
            "durationTicks": 3,
            "midi": 46,
            "name": "A#2",
            "ticks": 10918,
            "time": 53.51958108333334,
            "velocity": 0.6535433070866141
          },
          {
            "duration": 0.014705874999997093,
            "durationTicks": 3,
            "midi": 34,
            "name": "A#1",
            "ticks": 10918,
            "time": 53.51958108333334,
            "velocity": 0.5590551181102362
          },
          {
            "duration": 0.034313708333336024,
            "durationTicks": 7,
            "midi": 62,
            "name": "D4",
            "ticks": 10920,
            "time": 53.529385000000005,
            "velocity": 1
          },
          {
            "duration": 0.05392154166666785,
            "durationTicks": 11,
            "midi": 44,
            "name": "G#2",
            "ticks": 10946,
            "time": 53.65683591666667,
            "velocity": 0.6535433070866141
          },
          {
            "duration": 0.06372545833333731,
            "durationTicks": 13,
            "midi": 39,
            "name": "D#2",
            "ticks": 10946,
            "time": 53.65683591666667,
            "velocity": 0.6535433070866141
          },
          {
            "duration": 0.06372545833333021,
            "durationTicks": 13,
            "midi": 46,
            "name": "A#2",
            "ticks": 10948,
            "time": 53.66663983333334,
            "velocity": 0.6535433070866141
          },
          {
            "duration": 0.06372545833333021,
            "durationTicks": 13,
            "midi": 34,
            "name": "A#1",
            "ticks": 10948,
            "time": 53.66663983333334,
            "velocity": 0.5590551181102362
          },
          {
            "duration": 0.04901958333333312,
            "durationTicks": 10,
            "midi": 63,
            "name": "D#4",
            "ticks": 10950,
            "time": 53.676443750000004,
            "velocity": 1
          },
          {
            "duration": 0.10294112500000097,
            "durationTicks": 21,
            "midi": 40,
            "name": "E2",
            "ticks": 10976,
            "time": 53.80389466666667,
            "velocity": 0.6535433070866141
          },
          {
            "duration": 0.0784313333333273,
            "durationTicks": 16,
            "midi": 46,
            "name": "A#2",
            "ticks": 10976,
            "time": 53.80389466666667,
            "velocity": 0.6535433070866141
          },
          {
            "duration": 0.04901958333333312,
            "durationTicks": 10,
            "midi": 39,
            "name": "D#2",
            "ticks": 10976,
            "time": 53.80389466666667,
            "velocity": 0.8267716535433071
          },
          {
            "duration": 0.21078420833332956,
            "durationTicks": 43,
            "midi": 46,
            "name": "A#2",
            "ticks": 10978,
            "time": 53.81369858333334,
            "velocity": 0.6535433070866141
          },
          {
            "duration": 0.21078420833332956,
            "durationTicks": 43,
            "midi": 34,
            "name": "A#1",
            "ticks": 10978,
            "time": 53.81369858333334,
            "velocity": 0.5590551181102362
          },
          {
            "duration": 0.06372545833333731,
            "durationTicks": 13,
            "midi": 64,
            "name": "E4",
            "ticks": 10980,
            "time": 53.823502500000004,
            "velocity": 1
          },
          {
            "duration": 0.05392154166666785,
            "durationTicks": 11,
            "midi": 44,
            "name": "G#2",
            "ticks": 11006,
            "time": 53.95095341666667,
            "velocity": 0.6535433070866141
          },
          {
            "duration": 0.05392154166666785,
            "durationTicks": 11,
            "midi": 63,
            "name": "D#4",
            "ticks": 11010,
            "time": 53.97056125,
            "velocity": 1
          },
          {
            "duration": 0.09803916666665913,
            "durationTicks": 20,
            "midi": 45,
            "name": "A2",
            "ticks": 11034,
            "time": 54.08820825000001,
            "velocity": 0.6535433070866141
          },
          {
            "duration": 0.08823524999999677,
            "durationTicks": 18,
            "midi": 35,
            "name": "B1",
            "ticks": 11034,
            "time": 54.08820825000001,
            "velocity": 0.6535433070866141
          },
          {
            "duration": 0.2941174999999987,
            "durationTicks": 60,
            "midi": 36,
            "name": "C2",
            "ticks": 11035,
            "time": 54.093110208333336,
            "velocity": 0.6535433070866141
          },
          {
            "duration": 0.0931372083333386,
            "durationTicks": 19,
            "midi": 49,
            "name": "C#3",
            "ticks": 11036,
            "time": 54.09801216666667,
            "velocity": 0.6535433070866141
          },
          {
            "duration": 0.07352937499999967,
            "durationTicks": 15,
            "midi": 39,
            "name": "D#2",
            "ticks": 11036,
            "time": 54.09801216666667,
            "velocity": 0.9763779527559056
          },
          {
            "duration": 0.06862741666666494,
            "durationTicks": 14,
            "midi": 46,
            "name": "A#2",
            "ticks": 11038,
            "time": 54.10781608333334,
            "velocity": 0.6535433070866141
          },
          {
            "duration": 0.06862741666666494,
            "durationTicks": 14,
            "midi": 34,
            "name": "A#1",
            "ticks": 11038,
            "time": 54.10781608333334,
            "velocity": 0.5590551181102362
          },
          {
            "duration": 0.004901958333334733,
            "durationTicks": 1,
            "midi": 62,
            "name": "D4",
            "ticks": 11040,
            "time": 54.11762000000001,
            "velocity": 1
          },
          {
            "duration": 0.05392154166666785,
            "durationTicks": 11,
            "midi": 44,
            "name": "G#2",
            "ticks": 11066,
            "time": 54.24507091666668,
            "velocity": 0.6535433070866141
          },
          {
            "duration": 0.05392154166666785,
            "durationTicks": 11,
            "midi": 46,
            "name": "A#2",
            "ticks": 11068,
            "time": 54.25487483333334,
            "velocity": 0.6535433070866141
          },
          {
            "duration": 0.06372545833333731,
            "durationTicks": 13,
            "midi": 34,
            "name": "A#1",
            "ticks": 11068,
            "time": 54.25487483333334,
            "velocity": 0.5590551181102362
          },
          {
            "duration": 0.0784313333333273,
            "durationTicks": 16,
            "midi": 44,
            "name": "G#2",
            "ticks": 11096,
            "time": 54.392129666666676,
            "velocity": 0.6535433070866141
          },
          {
            "duration": 0.11274504166666333,
            "durationTicks": 23,
            "midi": 40,
            "name": "E2",
            "ticks": 11126,
            "time": 54.539188416666676,
            "velocity": 0.6535433070866141
          },
          {
            "duration": 0.06372545833333021,
            "durationTicks": 13,
            "midi": 44,
            "name": "G#2",
            "ticks": 11126,
            "time": 54.539188416666676,
            "velocity": 0.6535433070866141
          },
          {
            "duration": 0.0784313333333273,
            "durationTicks": 16,
            "midi": 39,
            "name": "D#2",
            "ticks": 11126,
            "time": 54.539188416666676,
            "velocity": 0.4251968503937008
          },
          {
            "duration": 0.05392154166666785,
            "durationTicks": 11,
            "midi": 46,
            "name": "A#2",
            "ticks": 11128,
            "time": 54.54899233333334,
            "velocity": 0.6535433070866141
          },
          {
            "duration": 0.05392154166666785,
            "durationTicks": 11,
            "midi": 34,
            "name": "A#1",
            "ticks": 11128,
            "time": 54.54899233333334,
            "velocity": 0.5590551181102362
          },
          {
            "duration": 0.034313708333336024,
            "durationTicks": 7,
            "midi": 61,
            "name": "C#4",
            "ticks": 11130,
            "time": 54.55879625000001,
            "velocity": 1
          },
          {
            "duration": 0.2941175000000058,
            "durationTicks": 60,
            "midi": 36,
            "name": "C2",
            "ticks": 11155,
            "time": 54.68134520833333,
            "velocity": 0.6535433070866141
          },
          {
            "duration": 0.09803916666666623,
            "durationTicks": 20,
            "midi": 44,
            "name": "G#2",
            "ticks": 11156,
            "time": 54.686247166666675,
            "velocity": 0.6535433070866141
          },
          {
            "duration": 0.029411749999994186,
            "durationTicks": 6,
            "midi": 39,
            "name": "D#2",
            "ticks": 11156,
            "time": 54.686247166666675,
            "velocity": 0.5669291338582677
          },
          {
            "duration": 0.04901958333333312,
            "durationTicks": 10,
            "midi": 46,
            "name": "A#2",
            "ticks": 11158,
            "time": 54.69605108333334,
            "velocity": 0.6535433070866141
          },
          {
            "duration": 0.04901958333333312,
            "durationTicks": 10,
            "midi": 34,
            "name": "A#1",
            "ticks": 11158,
            "time": 54.69605108333334,
            "velocity": 0.5590551181102362
          },
          {
            "duration": 0.07352937499999967,
            "durationTicks": 15,
            "midi": 44,
            "name": "G#2",
            "ticks": 11186,
            "time": 54.833305916666674,
            "velocity": 0.6535433070866141
          },
          {
            "duration": 0.03921566666666365,
            "durationTicks": 8,
            "midi": 60,
            "name": "C4",
            "ticks": 11190,
            "time": 54.852913750000006,
            "velocity": 1
          },
          {
            "duration": 0.12254895833333279,
            "durationTicks": 25,
            "midi": 40,
            "name": "E2",
            "ticks": 11216,
            "time": 54.980364666666674,
            "velocity": 0.6535433070866141
          },
          {
            "duration": 0.06372545833333731,
            "durationTicks": 13,
            "midi": 44,
            "name": "G#2",
            "ticks": 11216,
            "time": 54.980364666666674,
            "velocity": 0.6535433070866141
          },
          {
            "duration": 0.05392154166666785,
            "durationTicks": 11,
            "midi": 39,
            "name": "D#2",
            "ticks": 11216,
            "time": 54.980364666666674,
            "velocity": 0.8031496062992126
          },
          {
            "duration": 0.15196070833332698,
            "durationTicks": 31,
            "midi": 46,
            "name": "A#2",
            "ticks": 11218,
            "time": 54.99016858333334,
            "velocity": 0.6535433070866141
          },
          {
            "duration": 0.15196070833332698,
            "durationTicks": 31,
            "midi": 34,
            "name": "A#1",
            "ticks": 11218,
            "time": 54.99016858333334,
            "velocity": 0.5590551181102362
          },
          {
            "duration": 0.03921566666666365,
            "durationTicks": 8,
            "midi": 62,
            "name": "D4",
            "ticks": 11220,
            "time": 54.999972500000005,
            "velocity": 1
          },
          {
            "duration": 0.05392154166666785,
            "durationTicks": 11,
            "midi": 44,
            "name": "G#2",
            "ticks": 11246,
            "time": 55.12742341666667,
            "velocity": 0.6535433070866141
          },
          {
            "duration": 0.09803916666665913,
            "durationTicks": 20,
            "midi": 45,
            "name": "A2",
            "ticks": 11274,
            "time": 55.26467825000001,
            "velocity": 0.6535433070866141
          },
          {
            "duration": 0.0931372083333315,
            "durationTicks": 19,
            "midi": 35,
            "name": "B1",
            "ticks": 11274,
            "time": 55.26467825000001,
            "velocity": 0.6535433070866141
          },
          {
            "duration": 0.2941174999999987,
            "durationTicks": 60,
            "midi": 36,
            "name": "C2",
            "ticks": 11275,
            "time": 55.26958020833334,
            "velocity": 0.6535433070866141
          },
          {
            "duration": 0.0784313333333273,
            "durationTicks": 16,
            "midi": 44,
            "name": "G#2",
            "ticks": 11276,
            "time": 55.27448216666667,
            "velocity": 0.6535433070866141
          },
          {
            "duration": 0.06372545833333731,
            "durationTicks": 13,
            "midi": 39,
            "name": "D#2",
            "ticks": 11276,
            "time": 55.27448216666667,
            "velocity": 0.8267716535433071
          },
          {
            "duration": 0.06862741666666494,
            "durationTicks": 14,
            "midi": 44,
            "name": "G#2",
            "ticks": 11306,
            "time": 55.42154091666667,
            "velocity": 0.6535433070866141
          },
          {
            "duration": 0.06862741666666494,
            "durationTicks": 14,
            "midi": 46,
            "name": "A#2",
            "ticks": 11308,
            "time": 55.43134483333334,
            "velocity": 0.6535433070866141
          },
          {
            "duration": 0.06862741666666494,
            "durationTicks": 14,
            "midi": 34,
            "name": "A#1",
            "ticks": 11308,
            "time": 55.43134483333334,
            "velocity": 0.5590551181102362
          },
          {
            "duration": 0.04901958333333312,
            "durationTicks": 10,
            "midi": 62,
            "name": "D4",
            "ticks": 11310,
            "time": 55.44114875,
            "velocity": 1
          },
          {
            "duration": 0.07843133333333441,
            "durationTicks": 16,
            "midi": 44,
            "name": "G#2",
            "ticks": 11336,
            "time": 55.56859966666667,
            "velocity": 0.6535433070866141
          },
          {
            "duration": 0.02941175000000129,
            "durationTicks": 6,
            "midi": 39,
            "name": "D#2",
            "ticks": 11336,
            "time": 55.56859966666667,
            "velocity": 0.6220472440944882
          },
          {
            "duration": 0.02450979166666656,
            "durationTicks": 5,
            "midi": 46,
            "name": "A#2",
            "ticks": 11338,
            "time": 55.57840358333334,
            "velocity": 0.6535433070866141
          },
          {
            "duration": 0.02450979166666656,
            "durationTicks": 5,
            "midi": 34,
            "name": "A#1",
            "ticks": 11338,
            "time": 55.57840358333334,
            "velocity": 0.5590551181102362
          },
          {
            "duration": 0.11274504166667043,
            "durationTicks": 23,
            "midi": 40,
            "name": "E2",
            "ticks": 11366,
            "time": 55.71565841666667,
            "velocity": 0.6535433070866141
          },
          {
            "duration": 0.07352937500000678,
            "durationTicks": 15,
            "midi": 44,
            "name": "G#2",
            "ticks": 11366,
            "time": 55.71565841666667,
            "velocity": 0.6535433070866141
          },
          {
            "duration": 0.08823524999999677,
            "durationTicks": 18,
            "midi": 39,
            "name": "D#2",
            "ticks": 11366,
            "time": 55.71565841666667,
            "velocity": 0.3779527559055118
          },
          {
            "duration": 0.06862741666666494,
            "durationTicks": 14,
            "midi": 46,
            "name": "A#2",
            "ticks": 11368,
            "time": 55.72546233333334,
            "velocity": 0.6535433070866141
          },
          {
            "duration": 0.06862741666666494,
            "durationTicks": 14,
            "midi": 34,
            "name": "A#1",
            "ticks": 11368,
            "time": 55.72546233333334,
            "velocity": 0.5590551181102362
          },
          {
            "duration": 0.02450979166666656,
            "durationTicks": 5,
            "midi": 62,
            "name": "D4",
            "ticks": 11370,
            "time": 55.73526625000001,
            "velocity": 1
          },
          {
            "duration": 0.2941174999999987,
            "durationTicks": 60,
            "midi": 36,
            "name": "C2",
            "ticks": 11395,
            "time": 55.857815208333335,
            "velocity": 0.6535433070866141
          },
          {
            "duration": 0.08823524999998966,
            "durationTicks": 18,
            "midi": 44,
            "name": "G#2",
            "ticks": 11396,
            "time": 55.86271716666668,
            "velocity": 0.6535433070866141
          },
          {
            "duration": 0.029411749999994186,
            "durationTicks": 6,
            "midi": 39,
            "name": "D#2",
            "ticks": 11396,
            "time": 55.86271716666668,
            "velocity": 0.7244094488188977
          },
          {
            "duration": 0.019607833333331826,
            "durationTicks": 4,
            "midi": 63,
            "name": "D#4",
            "ticks": 11400,
            "time": 55.88232500000001,
            "velocity": 1
          },
          {
            "duration": 0.06862741666665784,
            "durationTicks": 14,
            "midi": 44,
            "name": "G#2",
            "ticks": 11426,
            "time": 56.009775916666676,
            "velocity": 0.6535433070866141
          },
          {
            "duration": 0.05392154166666785,
            "durationTicks": 11,
            "midi": 46,
            "name": "A#2",
            "ticks": 11428,
            "time": 56.01957983333334,
            "velocity": 0.6535433070866141
          },
          {
            "duration": 0.05392154166666785,
            "durationTicks": 11,
            "midi": 34,
            "name": "A#1",
            "ticks": 11428,
            "time": 56.01957983333334,
            "velocity": 0.5590551181102362
          },
          {
            "duration": 0.04901958333332601,
            "durationTicks": 10,
            "midi": 63,
            "name": "D#4",
            "ticks": 11430,
            "time": 56.02938375000001,
            "velocity": 1
          },
          {
            "duration": 0.11764699999999806,
            "durationTicks": 24,
            "midi": 40,
            "name": "E2",
            "ticks": 11456,
            "time": 56.156834666666676,
            "velocity": 0.6535433070866141
          },
          {
            "duration": 0.08823524999999677,
            "durationTicks": 18,
            "midi": 44,
            "name": "G#2",
            "ticks": 11456,
            "time": 56.156834666666676,
            "velocity": 0.6535433070866141
          },
          {
            "duration": 0.04901958333332601,
            "durationTicks": 10,
            "midi": 39,
            "name": "D#2",
            "ticks": 11456,
            "time": 56.156834666666676,
            "velocity": 0.8267716535433071
          },
          {
            "duration": 0.24019595833333085,
            "durationTicks": 49,
            "midi": 46,
            "name": "A#2",
            "ticks": 11458,
            "time": 56.16663858333334,
            "velocity": 0.6535433070866141
          },
          {
            "duration": 0.24019595833333085,
            "durationTicks": 49,
            "midi": 34,
            "name": "A#1",
            "ticks": 11458,
            "time": 56.16663858333334,
            "velocity": 0.5590551181102362
          },
          {
            "duration": 0.05882349999999548,
            "durationTicks": 12,
            "midi": 64,
            "name": "E4",
            "ticks": 11460,
            "time": 56.17644250000001,
            "velocity": 1
          },
          {
            "duration": 0.07352937499999967,
            "durationTicks": 15,
            "midi": 44,
            "name": "G#2",
            "ticks": 11486,
            "time": 56.303893416666675,
            "velocity": 0.6535433070866141
          },
          {
            "duration": 0.02450979166666656,
            "durationTicks": 5,
            "midi": 61,
            "name": "C#4",
            "ticks": 11490,
            "time": 56.32350125000001,
            "velocity": 1
          },
          {
            "duration": 0.0931372083333386,
            "durationTicks": 19,
            "midi": 45,
            "name": "A2",
            "ticks": 11514,
            "time": 56.441148250000005,
            "velocity": 0.6535433070866141
          },
          {
            "duration": 0.07843133333333441,
            "durationTicks": 16,
            "midi": 35,
            "name": "B1",
            "ticks": 11514,
            "time": 56.441148250000005,
            "velocity": 0.6535433070866141
          },
          {
            "duration": 0.2941174999999987,
            "durationTicks": 60,
            "midi": 36,
            "name": "C2",
            "ticks": 11515,
            "time": 56.44605020833334,
            "velocity": 0.6535433070866141
          },
          {
            "duration": 0.08823524999999677,
            "durationTicks": 18,
            "midi": 44,
            "name": "G#2",
            "ticks": 11516,
            "time": 56.450952166666674,
            "velocity": 0.6535433070866141
          },
          {
            "duration": 0.04901958333333312,
            "durationTicks": 10,
            "midi": 39,
            "name": "D#2",
            "ticks": 11516,
            "time": 56.450952166666674,
            "velocity": 0.7401574803149606
          },
          {
            "duration": 0.019607833333331826,
            "durationTicks": 4,
            "midi": 62,
            "name": "D4",
            "ticks": 11520,
            "time": 56.470560000000006,
            "velocity": 0.8031496062992126
          },
          {
            "duration": 0.06372545833333731,
            "durationTicks": 13,
            "midi": 44,
            "name": "G#2",
            "ticks": 11546,
            "time": 56.598010916666674,
            "velocity": 0.6535433070866141
          },
          {
            "duration": 0.06862741666665784,
            "durationTicks": 14,
            "midi": 46,
            "name": "A#2",
            "ticks": 11548,
            "time": 56.60781483333334,
            "velocity": 0.6535433070866141
          },
          {
            "duration": 0.06862741666665784,
            "durationTicks": 14,
            "midi": 34,
            "name": "A#1",
            "ticks": 11548,
            "time": 56.60781483333334,
            "velocity": 0.5590551181102362
          },
          {
            "duration": 0.08823524999999677,
            "durationTicks": 18,
            "midi": 44,
            "name": "G#2",
            "ticks": 11576,
            "time": 56.74506966666667,
            "velocity": 0.6535433070866141
          },
          {
            "duration": 0.02941175000000129,
            "durationTicks": 6,
            "midi": 39,
            "name": "D#2",
            "ticks": 11576,
            "time": 56.74506966666667,
            "velocity": 0.7086614173228346
          },
          {
            "duration": 0.03921566666666365,
            "durationTicks": 8,
            "midi": 62,
            "name": "D4",
            "ticks": 11580,
            "time": 56.764677500000005,
            "velocity": 1
          },
          {
            "duration": 0.10294112500000097,
            "durationTicks": 21,
            "midi": 40,
            "name": "E2",
            "ticks": 11606,
            "time": 56.89212841666667,
            "velocity": 0.6535433070866141
          },
          {
            "duration": 0.07352937499999967,
            "durationTicks": 15,
            "midi": 44,
            "name": "G#2",
            "ticks": 11606,
            "time": 56.89212841666667,
            "velocity": 0.6535433070866141
          },
          {
            "duration": 0.07352937499999967,
            "durationTicks": 15,
            "midi": 39,
            "name": "D#2",
            "ticks": 11606,
            "time": 56.89212841666667,
            "velocity": 0.6771653543307087
          },
          {
            "duration": 0.06372545833333021,
            "durationTicks": 13,
            "midi": 46,
            "name": "A#2",
            "ticks": 11608,
            "time": 56.90193233333334,
            "velocity": 0.6535433070866141
          },
          {
            "duration": 0.06372545833333021,
            "durationTicks": 13,
            "midi": 34,
            "name": "A#1",
            "ticks": 11608,
            "time": 56.90193233333334,
            "velocity": 0.5590551181102362
          },
          {
            "duration": 0.05882349999999548,
            "durationTicks": 12,
            "midi": 63,
            "name": "D#4",
            "ticks": 11610,
            "time": 56.911736250000004,
            "velocity": 1
          },
          {
            "duration": 0.2941174999999987,
            "durationTicks": 60,
            "midi": 36,
            "name": "C2",
            "ticks": 11635,
            "time": 57.03428520833334,
            "velocity": 0.6535433070866141
          },
          {
            "duration": 0.07843133333333441,
            "durationTicks": 16,
            "midi": 44,
            "name": "G#2",
            "ticks": 11636,
            "time": 57.03918716666667,
            "velocity": 0.6535433070866141
          },
          {
            "duration": 0.02941175000000129,
            "durationTicks": 6,
            "midi": 39,
            "name": "D#2",
            "ticks": 11636,
            "time": 57.03918716666667,
            "velocity": 0.7795275590551181
          },
          {
            "duration": 0.02450979166666656,
            "durationTicks": 5,
            "midi": 46,
            "name": "A#2",
            "ticks": 11638,
            "time": 57.04899108333334,
            "velocity": 0.6535433070866141
          },
          {
            "duration": 0.019607833333331826,
            "durationTicks": 4,
            "midi": 34,
            "name": "A#1",
            "ticks": 11638,
            "time": 57.04899108333334,
            "velocity": 0.5590551181102362
          },
          {
            "duration": 0.06862741666666494,
            "durationTicks": 14,
            "midi": 44,
            "name": "G#2",
            "ticks": 11666,
            "time": 57.18624591666667,
            "velocity": 0.6535433070866141
          },
          {
            "duration": 0.034313708333336024,
            "durationTicks": 7,
            "midi": 46,
            "name": "A#2",
            "ticks": 11668,
            "time": 57.19604983333334,
            "velocity": 0.6535433070866141
          },
          {
            "duration": 0.02941175000000129,
            "durationTicks": 6,
            "midi": 34,
            "name": "A#1",
            "ticks": 11668,
            "time": 57.19604983333334,
            "velocity": 0.5590551181102362
          },
          {
            "duration": 0.10294112499999386,
            "durationTicks": 21,
            "midi": 40,
            "name": "E2",
            "ticks": 11696,
            "time": 57.33330466666668,
            "velocity": 0.6535433070866141
          },
          {
            "duration": 0.08823524999998966,
            "durationTicks": 18,
            "midi": 44,
            "name": "G#2",
            "ticks": 11696,
            "time": 57.33330466666668,
            "velocity": 0.6535433070866141
          },
          {
            "duration": 0.044117624999998384,
            "durationTicks": 9,
            "midi": 39,
            "name": "D#2",
            "ticks": 11696,
            "time": 57.33330466666668,
            "velocity": 0.8818897637795275
          },
          {
            "duration": 0.14705874999999935,
            "durationTicks": 30,
            "midi": 46,
            "name": "A#2",
            "ticks": 11698,
            "time": 57.34310858333334,
            "velocity": 0.6535433070866141
          },
          {
            "duration": 0.15196070833332698,
            "durationTicks": 31,
            "midi": 34,
            "name": "A#1",
            "ticks": 11698,
            "time": 57.34310858333334,
            "velocity": 0.5590551181102362
          },
          {
            "duration": 0.029411749999994186,
            "durationTicks": 6,
            "midi": 62,
            "name": "D4",
            "ticks": 11700,
            "time": 57.35291250000001,
            "velocity": 0.7401574803149606
          },
          {
            "duration": 0.06862741666665784,
            "durationTicks": 14,
            "midi": 44,
            "name": "G#2",
            "ticks": 11726,
            "time": 57.48036341666668,
            "velocity": 0.6535433070866141
          },
          {
            "duration": 0.02450979166666656,
            "durationTicks": 5,
            "midi": 62,
            "name": "D4",
            "ticks": 11730,
            "time": 57.49997125000001,
            "velocity": 0.937007874015748
          },
          {
            "duration": 0.11764700000000516,
            "durationTicks": 24,
            "midi": 45,
            "name": "A2",
            "ticks": 11754,
            "time": 57.61761825000001,
            "velocity": 0.6535433070866141
          },
          {
            "duration": 0.0931372083333315,
            "durationTicks": 19,
            "midi": 35,
            "name": "B1",
            "ticks": 11754,
            "time": 57.61761825000001,
            "velocity": 0.6535433070866141
          },
          {
            "duration": 0.2941175000000058,
            "durationTicks": 60,
            "midi": 36,
            "name": "C2",
            "ticks": 11755,
            "time": 57.622520208333334,
            "velocity": 0.6535433070866141
          },
          {
            "duration": 0.08823524999998966,
            "durationTicks": 18,
            "midi": 44,
            "name": "G#2",
            "ticks": 11756,
            "time": 57.627422166666676,
            "velocity": 0.6535433070866141
          },
          {
            "duration": 0.04411762500000549,
            "durationTicks": 9,
            "midi": 46,
            "name": "A#2",
            "ticks": 11758,
            "time": 57.63722608333334,
            "velocity": 0.6535433070866141
          },
          {
            "duration": 0.04411762500000549,
            "durationTicks": 9,
            "midi": 34,
            "name": "A#1",
            "ticks": 11758,
            "time": 57.63722608333334,
            "velocity": 0.5590551181102362
          },
          {
            "duration": 0.02450979166666656,
            "durationTicks": 5,
            "midi": 62,
            "name": "D4",
            "ticks": 11760,
            "time": 57.64703000000001,
            "velocity": 0.8503937007874016
          },
          {
            "duration": 0.05392154166666785,
            "durationTicks": 11,
            "midi": 44,
            "name": "G#2",
            "ticks": 11786,
            "time": 57.774480916666676,
            "velocity": 0.6535433070866141
          },
          {
            "duration": 0.12745091666666752,
            "durationTicks": 26,
            "midi": 46,
            "name": "A#2",
            "ticks": 11788,
            "time": 57.78428483333334,
            "velocity": 0.6535433070866141
          },
          {
            "duration": 0.12745091666666752,
            "durationTicks": 26,
            "midi": 34,
            "name": "A#1",
            "ticks": 11788,
            "time": 57.78428483333334,
            "velocity": 0.5590551181102362
          },
          {
            "duration": 0.08823524999999677,
            "durationTicks": 18,
            "midi": 44,
            "name": "G#2",
            "ticks": 11816,
            "time": 57.921539666666675,
            "velocity": 0.6535433070866141
          },
          {
            "duration": 0.10294112500000097,
            "durationTicks": 21,
            "midi": 40,
            "name": "E2",
            "ticks": 11846,
            "time": 58.068598416666674,
            "velocity": 0.6535433070866141
          },
          {
            "duration": 0.07352937499999967,
            "durationTicks": 15,
            "midi": 44,
            "name": "G#2",
            "ticks": 11846,
            "time": 58.068598416666674,
            "velocity": 0.6535433070866141
          },
          {
            "duration": 0.0784313333333273,
            "durationTicks": 16,
            "midi": 39,
            "name": "D#2",
            "ticks": 11846,
            "time": 58.068598416666674,
            "velocity": 0.8503937007874016
          },
          {
            "duration": 0.06372545833333021,
            "durationTicks": 13,
            "midi": 46,
            "name": "A#2",
            "ticks": 11848,
            "time": 58.078402333333344,
            "velocity": 0.6535433070866141
          },
          {
            "duration": 0.06372545833333021,
            "durationTicks": 13,
            "midi": 34,
            "name": "A#1",
            "ticks": 11848,
            "time": 58.078402333333344,
            "velocity": 0.5590551181102362
          },
          {
            "duration": 0.044117624999998384,
            "durationTicks": 9,
            "midi": 62,
            "name": "D4",
            "ticks": 11850,
            "time": 58.088206250000006,
            "velocity": 0.937007874015748
          },
          {
            "duration": 0.03921566666666365,
            "durationTicks": 8,
            "midi": 61,
            "name": "C#4",
            "ticks": 11850,
            "time": 58.088206250000006,
            "velocity": 0.4330708661417323
          },
          {
            "duration": 0.2941174999999987,
            "durationTicks": 60,
            "midi": 36,
            "name": "C2",
            "ticks": 11875,
            "time": 58.21075520833334,
            "velocity": 0.6535433070866141
          },
          {
            "duration": 0.07352937499999967,
            "durationTicks": 15,
            "midi": 44,
            "name": "G#2",
            "ticks": 11876,
            "time": 58.215657166666674,
            "velocity": 0.6535433070866141
          },
          {
            "duration": 0.03921566666666365,
            "durationTicks": 8,
            "midi": 39,
            "name": "D#2",
            "ticks": 11876,
            "time": 58.215657166666674,
            "velocity": 0.7244094488188977
          },
          {
            "duration": 0.044117624999998384,
            "durationTicks": 9,
            "midi": 46,
            "name": "A#2",
            "ticks": 11878,
            "time": 58.22546108333334,
            "velocity": 0.6535433070866141
          },
          {
            "duration": 0.044117624999998384,
            "durationTicks": 9,
            "midi": 34,
            "name": "A#1",
            "ticks": 11878,
            "time": 58.22546108333334,
            "velocity": 0.5590551181102362
          },
          {
            "duration": 0.014705875000004198,
            "durationTicks": 3,
            "midi": 78,
            "name": "F#5",
            "ticks": 11880,
            "time": 58.235265000000005,
            "velocity": 1
          },
          {
            "duration": 0.05392154166666785,
            "durationTicks": 11,
            "midi": 44,
            "name": "G#2",
            "ticks": 11906,
            "time": 58.36271591666667,
            "velocity": 0.6535433070866141
          },
          {
            "duration": 0.05392154166666785,
            "durationTicks": 11,
            "midi": 46,
            "name": "A#2",
            "ticks": 11908,
            "time": 58.37251983333334,
            "velocity": 0.6535433070866141
          },
          {
            "duration": 0.05392154166666785,
            "durationTicks": 11,
            "midi": 34,
            "name": "A#1",
            "ticks": 11908,
            "time": 58.37251983333334,
            "velocity": 0.5590551181102362
          },
          {
            "duration": 0.11274504166666333,
            "durationTicks": 23,
            "midi": 40,
            "name": "E2",
            "ticks": 11936,
            "time": 58.50977466666667,
            "velocity": 0.6535433070866141
          },
          {
            "duration": 0.0931372083333315,
            "durationTicks": 19,
            "midi": 44,
            "name": "G#2",
            "ticks": 11936,
            "time": 58.50977466666667,
            "velocity": 0.6535433070866141
          },
          {
            "duration": 0.04411762500000549,
            "durationTicks": 9,
            "midi": 39,
            "name": "D#2",
            "ticks": 11936,
            "time": 58.50977466666667,
            "velocity": 0.8503937007874016
          },
          {
            "duration": 0.2009802916666672,
            "durationTicks": 41,
            "midi": 46,
            "name": "A#2",
            "ticks": 11938,
            "time": 58.51957858333334,
            "velocity": 0.6535433070866141
          },
          {
            "duration": 0.2009802916666672,
            "durationTicks": 41,
            "midi": 34,
            "name": "A#1",
            "ticks": 11938,
            "time": 58.51957858333334,
            "velocity": 0.5590551181102362
          },
          {
            "duration": 0.02941175000000129,
            "durationTicks": 6,
            "midi": 62,
            "name": "D4",
            "ticks": 11940,
            "time": 58.529382500000004,
            "velocity": 0.8818897637795275
          },
          {
            "duration": 0.05392154166666785,
            "durationTicks": 11,
            "midi": 44,
            "name": "G#2",
            "ticks": 11966,
            "time": 58.65683341666667,
            "velocity": 0.6535433070866141
          },
          {
            "duration": 0.05392154166666785,
            "durationTicks": 11,
            "midi": 61,
            "name": "C#4",
            "ticks": 11970,
            "time": 58.67644125,
            "velocity": 1
          },
          {
            "duration": 0.1078430833333357,
            "durationTicks": 22,
            "midi": 45,
            "name": "A2",
            "ticks": 11994,
            "time": 58.79408825000001,
            "velocity": 0.6535433070866141
          },
          {
            "duration": 0.1078430833333357,
            "durationTicks": 22,
            "midi": 35,
            "name": "B1",
            "ticks": 11994,
            "time": 58.79408825000001,
            "velocity": 0.6535433070866141
          },
          {
            "duration": 0.2941174999999987,
            "durationTicks": 60,
            "midi": 36,
            "name": "C2",
            "ticks": 11995,
            "time": 58.798990208333336,
            "velocity": 0.6535433070866141
          },
          {
            "duration": 0.08823524999999677,
            "durationTicks": 18,
            "midi": 44,
            "name": "G#2",
            "ticks": 11996,
            "time": 58.80389216666667,
            "velocity": 0.6535433070866141
          },
          {
            "duration": 0.05882350000000258,
            "durationTicks": 12,
            "midi": 39,
            "name": "D#2",
            "ticks": 11996,
            "time": 58.80389216666667,
            "velocity": 0.8503937007874016
          },
          {
            "duration": 0.05392154166666785,
            "durationTicks": 11,
            "midi": 62,
            "name": "D4",
            "ticks": 12000,
            "time": 58.8235,
            "velocity": 1
          },
          {
            "duration": 0.06862741666665784,
            "durationTicks": 14,
            "midi": 44,
            "name": "G#2",
            "ticks": 12026,
            "time": 58.95095091666668,
            "velocity": 0.6535433070866141
          },
          {
            "duration": 0.07352937499999967,
            "durationTicks": 15,
            "midi": 46,
            "name": "A#2",
            "ticks": 12028,
            "time": 58.96075483333334,
            "velocity": 0.6535433070866141
          },
          {
            "duration": 0.07352937499999967,
            "durationTicks": 15,
            "midi": 34,
            "name": "A#1",
            "ticks": 12028,
            "time": 58.96075483333334,
            "velocity": 0.5590551181102362
          },
          {
            "duration": 0.034313708333336024,
            "durationTicks": 7,
            "midi": 60,
            "name": "C4",
            "ticks": 12030,
            "time": 58.97055875000001,
            "velocity": 0.6614173228346457
          },
          {
            "duration": 0.0784313333333273,
            "durationTicks": 16,
            "midi": 44,
            "name": "G#2",
            "ticks": 12056,
            "time": 59.09800966666668,
            "velocity": 0.6535433070866141
          },
          {
            "duration": 0.044117624999998384,
            "durationTicks": 9,
            "midi": 39,
            "name": "D#2",
            "ticks": 12056,
            "time": 59.09800966666668,
            "velocity": 0.8267716535433071
          },
          {
            "duration": 0.09803916666666623,
            "durationTicks": 20,
            "midi": 40,
            "name": "E2",
            "ticks": 12086,
            "time": 59.245068416666676,
            "velocity": 0.6535433070866141
          },
          {
            "duration": 0.07352937499999967,
            "durationTicks": 15,
            "midi": 44,
            "name": "G#2",
            "ticks": 12086,
            "time": 59.245068416666676,
            "velocity": 0.6535433070866141
          },
          {
            "duration": 0.0784313333333273,
            "durationTicks": 16,
            "midi": 39,
            "name": "D#2",
            "ticks": 12086,
            "time": 59.245068416666676,
            "velocity": 0.6929133858267716
          },
          {
            "duration": 0.04901958333333312,
            "durationTicks": 10,
            "midi": 46,
            "name": "A#2",
            "ticks": 12088,
            "time": 59.25487233333334,
            "velocity": 0.6535433070866141
          },
          {
            "duration": 0.04901958333333312,
            "durationTicks": 10,
            "midi": 34,
            "name": "A#1",
            "ticks": 12088,
            "time": 59.25487233333334,
            "velocity": 0.5590551181102362
          },
          {
            "duration": 0.06862741666665784,
            "durationTicks": 14,
            "midi": 61,
            "name": "C#4",
            "ticks": 12090,
            "time": 59.26467625000001,
            "velocity": 1
          },
          {
            "duration": 0.2941175000000058,
            "durationTicks": 60,
            "midi": 36,
            "name": "C2",
            "ticks": 12115,
            "time": 59.387225208333334,
            "velocity": 0.6535433070866141
          },
          {
            "duration": 0.0784313333333273,
            "durationTicks": 16,
            "midi": 44,
            "name": "G#2",
            "ticks": 12116,
            "time": 59.392127166666675,
            "velocity": 0.6535433070866141
          },
          {
            "duration": 0.04411762500000549,
            "durationTicks": 9,
            "midi": 46,
            "name": "A#2",
            "ticks": 12118,
            "time": 59.40193108333334,
            "velocity": 0.6535433070866141
          },
          {
            "duration": 0.04411762500000549,
            "durationTicks": 9,
            "midi": 34,
            "name": "A#1",
            "ticks": 12118,
            "time": 59.40193108333334,
            "velocity": 0.5590551181102362
          },
          {
            "duration": 0.07352937499999967,
            "durationTicks": 15,
            "midi": 44,
            "name": "G#2",
            "ticks": 12146,
            "time": 59.539185916666675,
            "velocity": 0.6535433070866141
          },
          {
            "duration": 0.04901958333333312,
            "durationTicks": 10,
            "midi": 46,
            "name": "A#2",
            "ticks": 12148,
            "time": 59.54898983333334,
            "velocity": 0.6535433070866141
          },
          {
            "duration": 0.04901958333333312,
            "durationTicks": 10,
            "midi": 34,
            "name": "A#1",
            "ticks": 12148,
            "time": 59.54898983333334,
            "velocity": 0.5590551181102362
          },
          {
            "duration": 0.019607833333331826,
            "durationTicks": 4,
            "midi": 62,
            "name": "D4",
            "ticks": 12150,
            "time": 59.55879375000001,
            "velocity": 0.937007874015748
          },
          {
            "duration": 0.11274504166666333,
            "durationTicks": 23,
            "midi": 40,
            "name": "E2",
            "ticks": 12176,
            "time": 59.686244666666674,
            "velocity": 0.6535433070866141
          },
          {
            "duration": 0.08823524999999677,
            "durationTicks": 18,
            "midi": 44,
            "name": "G#2",
            "ticks": 12176,
            "time": 59.686244666666674,
            "velocity": 0.6535433070866141
          },
          {
            "duration": 0.04901958333333312,
            "durationTicks": 10,
            "midi": 39,
            "name": "D#2",
            "ticks": 12176,
            "time": 59.686244666666674,
            "velocity": 0.8267716535433071
          },
          {
            "duration": 0.1715685416666659,
            "durationTicks": 35,
            "midi": 46,
            "name": "A#2",
            "ticks": 12178,
            "time": 59.696048583333344,
            "velocity": 0.6535433070866141
          },
          {
            "duration": 0.17647049999999354,
            "durationTicks": 36,
            "midi": 34,
            "name": "A#1",
            "ticks": 12178,
            "time": 59.696048583333344,
            "velocity": 0.5590551181102362
          },
          {
            "duration": 0.04901958333333312,
            "durationTicks": 10,
            "midi": 64,
            "name": "E4",
            "ticks": 12180,
            "time": 59.705852500000006,
            "velocity": 1
          },
          {
            "duration": 0.07352937499999967,
            "durationTicks": 15,
            "midi": 44,
            "name": "G#2",
            "ticks": 12206,
            "time": 59.83330341666667,
            "velocity": 0.6535433070866141
          },
          {
            "duration": 0.09803916666665913,
            "durationTicks": 20,
            "midi": 45,
            "name": "A2",
            "ticks": 12234,
            "time": 59.97055825000001,
            "velocity": 0.6535433070866141
          },
          {
            "duration": 0.08823524999998966,
            "durationTicks": 18,
            "midi": 35,
            "name": "B1",
            "ticks": 12234,
            "time": 59.97055825000001,
            "velocity": 0.6535433070866141
          },
          {
            "duration": 0.2941174999999987,
            "durationTicks": 60,
            "midi": 36,
            "name": "C2",
            "ticks": 12235,
            "time": 59.97546020833334,
            "velocity": 0.6535433070866141
          },
          {
            "duration": 0.0784313333333273,
            "durationTicks": 16,
            "midi": 44,
            "name": "G#2",
            "ticks": 12236,
            "time": 59.98036216666667,
            "velocity": 0.6535433070866141
          },
          {
            "duration": 0.024509791666673664,
            "durationTicks": 5,
            "midi": 62,
            "name": "D4",
            "ticks": 12240,
            "time": 59.999970000000005,
            "velocity": 0.7401574803149606
          },
          {
            "duration": 0.07352937499999967,
            "durationTicks": 15,
            "midi": 44,
            "name": "G#2",
            "ticks": 12266,
            "time": 60.12742091666667,
            "velocity": 0.6535433070866141
          },
          {
            "duration": 0.06862741666666494,
            "durationTicks": 14,
            "midi": 46,
            "name": "A#2",
            "ticks": 12268,
            "time": 60.13722483333334,
            "velocity": 0.6535433070866141
          },
          {
            "duration": 0.06862741666666494,
            "durationTicks": 14,
            "midi": 34,
            "name": "A#1",
            "ticks": 12268,
            "time": 60.13722483333334,
            "velocity": 0.5590551181102362
          },
          {
            "duration": 0.05392154166666785,
            "durationTicks": 11,
            "midi": 60,
            "name": "C4",
            "ticks": 12270,
            "time": 60.147028750000004,
            "velocity": 1
          },
          {
            "duration": 0.07843133333333441,
            "durationTicks": 16,
            "midi": 44,
            "name": "G#2",
            "ticks": 12296,
            "time": 60.27447966666667,
            "velocity": 0.6535433070866141
          },
          {
            "duration": 0.05392154166666785,
            "durationTicks": 11,
            "midi": 39,
            "name": "D#2",
            "ticks": 12296,
            "time": 60.27447966666667,
            "velocity": 1
          },
          {
            "duration": 0.02941175000000129,
            "durationTicks": 6,
            "midi": 62,
            "name": "D4",
            "ticks": 12300,
            "time": 60.2940875,
            "velocity": 0.8267716535433071
          },
          {
            "duration": 0.09803916666667334,
            "durationTicks": 20,
            "midi": 40,
            "name": "E2",
            "ticks": 12326,
            "time": 60.42153841666667,
            "velocity": 0.6535433070866141
          },
          {
            "duration": 0.06862741666666494,
            "durationTicks": 14,
            "midi": 44,
            "name": "G#2",
            "ticks": 12326,
            "time": 60.42153841666667,
            "velocity": 0.6535433070866141
          },
          {
            "duration": 0.07843133333333441,
            "durationTicks": 16,
            "midi": 39,
            "name": "D#2",
            "ticks": 12326,
            "time": 60.42153841666667,
            "velocity": 0.6377952755905512
          },
          {
            "duration": 0.06372545833333731,
            "durationTicks": 13,
            "midi": 46,
            "name": "A#2",
            "ticks": 12328,
            "time": 60.43134233333334,
            "velocity": 0.6535433070866141
          },
          {
            "duration": 0.06372545833333731,
            "durationTicks": 13,
            "midi": 34,
            "name": "A#1",
            "ticks": 12328,
            "time": 60.43134233333334,
            "velocity": 0.5590551181102362
          },
          {
            "duration": 0.014705874999997093,
            "durationTicks": 3,
            "midi": 61,
            "name": "C#4",
            "ticks": 12330,
            "time": 60.44114625000001,
            "velocity": 1
          },
          {
            "duration": 0.2941174999999987,
            "durationTicks": 60,
            "midi": 36,
            "name": "C2",
            "ticks": 12355,
            "time": 60.563695208333336,
            "velocity": 0.6535433070866141
          },
          {
            "duration": 0.08823524999998966,
            "durationTicks": 18,
            "midi": 44,
            "name": "G#2",
            "ticks": 12356,
            "time": 60.56859716666668,
            "velocity": 0.6535433070866141
          },
          {
            "duration": 0.03921566666666365,
            "durationTicks": 8,
            "midi": 62,
            "name": "D4",
            "ticks": 12360,
            "time": 60.58820500000001,
            "velocity": 1
          },
          {
            "duration": 0.0784313333333273,
            "durationTicks": 16,
            "midi": 44,
            "name": "G#2",
            "ticks": 12386,
            "time": 60.71565591666668,
            "velocity": 0.6535433070866141
          },
          {
            "duration": 0.06372545833333731,
            "durationTicks": 13,
            "midi": 46,
            "name": "A#2",
            "ticks": 12388,
            "time": 60.72545983333334,
            "velocity": 0.6535433070866141
          },
          {
            "duration": 0.06372545833333731,
            "durationTicks": 13,
            "midi": 34,
            "name": "A#1",
            "ticks": 12388,
            "time": 60.72545983333334,
            "velocity": 0.5590551181102362
          },
          {
            "duration": 0.05392154166666785,
            "durationTicks": 11,
            "midi": 63,
            "name": "D#4",
            "ticks": 12390,
            "time": 60.73526375000001,
            "velocity": 1
          },
          {
            "duration": 0.09803916666666623,
            "durationTicks": 20,
            "midi": 40,
            "name": "E2",
            "ticks": 12416,
            "time": 60.862714666666676,
            "velocity": 0.6535433070866141
          },
          {
            "duration": 0.07352937499999967,
            "durationTicks": 15,
            "midi": 44,
            "name": "G#2",
            "ticks": 12416,
            "time": 60.862714666666676,
            "velocity": 0.6535433070866141
          },
          {
            "duration": 0.05392154166666785,
            "durationTicks": 11,
            "midi": 39,
            "name": "D#2",
            "ticks": 12416,
            "time": 60.862714666666676,
            "velocity": 1
          },
          {
            "duration": 0.19117637500000484,
            "durationTicks": 39,
            "midi": 46,
            "name": "A#2",
            "ticks": 12418,
            "time": 60.87251858333334,
            "velocity": 0.6535433070866141
          },
          {
            "duration": 0.19117637500000484,
            "durationTicks": 39,
            "midi": 34,
            "name": "A#1",
            "ticks": 12418,
            "time": 60.87251858333334,
            "velocity": 0.5590551181102362
          },
          {
            "duration": 0.02450979166666656,
            "durationTicks": 5,
            "midi": 64,
            "name": "E4",
            "ticks": 12420,
            "time": 60.88232250000001,
            "velocity": 1
          },
          {
            "duration": 0.06372545833333021,
            "durationTicks": 13,
            "midi": 44,
            "name": "G#2",
            "ticks": 12446,
            "time": 61.009773416666675,
            "velocity": 0.6535433070866141
          },
          {
            "duration": 0.11764700000000516,
            "durationTicks": 24,
            "midi": 45,
            "name": "A2",
            "ticks": 12474,
            "time": 61.147028250000005,
            "velocity": 0.6535433070866141
          },
          {
            "duration": 0.09803916666666623,
            "durationTicks": 20,
            "midi": 35,
            "name": "B1",
            "ticks": 12474,
            "time": 61.147028250000005,
            "velocity": 0.6535433070866141
          },
          {
            "duration": 0.2941174999999987,
            "durationTicks": 60,
            "midi": 36,
            "name": "C2",
            "ticks": 12475,
            "time": 61.15193020833334,
            "velocity": 0.6535433070866141
          },
          {
            "duration": 0.0784313333333273,
            "durationTicks": 16,
            "midi": 44,
            "name": "G#2",
            "ticks": 12476,
            "time": 61.156832166666675,
            "velocity": 0.6535433070866141
          },
          {
            "duration": 0.02941175000000129,
            "durationTicks": 6,
            "midi": 62,
            "name": "D4",
            "ticks": 12480,
            "time": 61.17644000000001,
            "velocity": 0.937007874015748
          },
          {
            "duration": 0.06372545833333731,
            "durationTicks": 13,
            "midi": 44,
            "name": "G#2",
            "ticks": 12506,
            "time": 61.303890916666674,
            "velocity": 0.6535433070866141
          },
          {
            "duration": 0.05392154166666785,
            "durationTicks": 11,
            "midi": 46,
            "name": "A#2",
            "ticks": 12508,
            "time": 61.313694833333344,
            "velocity": 0.6535433070866141
          },
          {
            "duration": 0.05392154166666785,
            "durationTicks": 11,
            "midi": 34,
            "name": "A#1",
            "ticks": 12508,
            "time": 61.313694833333344,
            "velocity": 0.5590551181102362
          },
          {
            "duration": 0.07352937499999967,
            "durationTicks": 15,
            "midi": 44,
            "name": "G#2",
            "ticks": 12536,
            "time": 61.45094966666667,
            "velocity": 0.6535433070866141
          },
          {
            "duration": 0.05392154166666785,
            "durationTicks": 11,
            "midi": 39,
            "name": "D#2",
            "ticks": 12536,
            "time": 61.45094966666667,
            "velocity": 0.937007874015748
          },
          {
            "duration": 0.019607833333331826,
            "durationTicks": 4,
            "midi": 62,
            "name": "D4",
            "ticks": 12540,
            "time": 61.470557500000005,
            "velocity": 0.5511811023622047
          },
          {
            "duration": 0.09803916666667334,
            "durationTicks": 20,
            "midi": 40,
            "name": "E2",
            "ticks": 12566,
            "time": 61.59800841666667,
            "velocity": 0.6535433070866141
          },
          {
            "duration": 0.06862741666666494,
            "durationTicks": 14,
            "midi": 44,
            "name": "G#2",
            "ticks": 12566,
            "time": 61.59800841666667,
            "velocity": 0.6535433070866141
          },
          {
            "duration": 0.08823524999999677,
            "durationTicks": 18,
            "midi": 39,
            "name": "D#2",
            "ticks": 12566,
            "time": 61.59800841666667,
            "velocity": 0.5748031496062992
          },
          {
            "duration": 0.06372545833333021,
            "durationTicks": 13,
            "midi": 46,
            "name": "A#2",
            "ticks": 12568,
            "time": 61.60781233333334,
            "velocity": 0.6535433070866141
          },
          {
            "duration": 0.06372545833333021,
            "durationTicks": 13,
            "midi": 34,
            "name": "A#1",
            "ticks": 12568,
            "time": 61.60781233333334,
            "velocity": 0.5590551181102362
          },
          {
            "duration": 0.03921566666666365,
            "durationTicks": 8,
            "midi": 60,
            "name": "C4",
            "ticks": 12570,
            "time": 61.617616250000005,
            "velocity": 1
          },
          {
            "duration": 0.07352937499999967,
            "durationTicks": 15,
            "midi": 35,
            "name": "B1",
            "ticks": 12594,
            "time": 61.73526325000001,
            "velocity": 0.6535433070866141
          },
          {
            "duration": 0.07352937499999967,
            "durationTicks": 15,
            "midi": 45,
            "name": "A2",
            "ticks": 12594,
            "time": 61.73526325000001,
            "velocity": 0.6535433070866141
          },
          {
            "duration": 0.2941174999999987,
            "durationTicks": 60,
            "midi": 36,
            "name": "C2",
            "ticks": 12595,
            "time": 61.74016520833334,
            "velocity": 0.6535433070866141
          },
          {
            "duration": 0.07843133333333441,
            "durationTicks": 16,
            "midi": 44,
            "name": "G#2",
            "ticks": 12596,
            "time": 61.74506716666667,
            "velocity": 0.6535433070866141
          },
          {
            "duration": 0.08823525000000387,
            "durationTicks": 18,
            "midi": 46,
            "name": "A#2",
            "ticks": 12598,
            "time": 61.75487108333334,
            "velocity": 0.6535433070866141
          },
          {
            "duration": 0.08823525000000387,
            "durationTicks": 18,
            "midi": 34,
            "name": "A#1",
            "ticks": 12598,
            "time": 61.75487108333334,
            "velocity": 0.5590551181102362
          },
          {
            "duration": 0.05392154166666785,
            "durationTicks": 11,
            "midi": 44,
            "name": "G#2",
            "ticks": 12626,
            "time": 61.89212591666667,
            "velocity": 0.6535433070866141
          },
          {
            "duration": 0.06862741666666494,
            "durationTicks": 14,
            "midi": 46,
            "name": "A#2",
            "ticks": 12628,
            "time": 61.90192983333334,
            "velocity": 0.6535433070866141
          },
          {
            "duration": 0.06862741666666494,
            "durationTicks": 14,
            "midi": 34,
            "name": "A#1",
            "ticks": 12628,
            "time": 61.90192983333334,
            "velocity": 0.5590551181102362
          },
          {
            "duration": 0.05882350000000258,
            "durationTicks": 12,
            "midi": 61,
            "name": "C#4",
            "ticks": 12630,
            "time": 61.91173375,
            "velocity": 1
          },
          {
            "duration": 0.07352937499999967,
            "durationTicks": 15,
            "midi": 35,
            "name": "B1",
            "ticks": 12654,
            "time": 62.02938075000001,
            "velocity": 0.6535433070866141
          },
          {
            "duration": 0.07352937499999967,
            "durationTicks": 15,
            "midi": 45,
            "name": "A2",
            "ticks": 12654,
            "time": 62.02938075000001,
            "velocity": 0.6535433070866141
          },
          {
            "duration": 0.10294112499999386,
            "durationTicks": 21,
            "midi": 40,
            "name": "E2",
            "ticks": 12656,
            "time": 62.03918466666668,
            "velocity": 0.6535433070866141
          },
          {
            "duration": 0.08823524999998966,
            "durationTicks": 18,
            "midi": 44,
            "name": "G#2",
            "ticks": 12656,
            "time": 62.03918466666668,
            "velocity": 0.6535433070866141
          },
          {
            "duration": 0.04901958333332601,
            "durationTicks": 10,
            "midi": 39,
            "name": "D#2",
            "ticks": 12656,
            "time": 62.03918466666668,
            "velocity": 1
          },
          {
            "duration": 0.16176462500000355,
            "durationTicks": 33,
            "midi": 46,
            "name": "A#2",
            "ticks": 12658,
            "time": 62.04898858333334,
            "velocity": 0.6535433070866141
          },
          {
            "duration": 0.16176462500000355,
            "durationTicks": 33,
            "midi": 34,
            "name": "A#1",
            "ticks": 12658,
            "time": 62.04898858333334,
            "velocity": 0.5590551181102362
          },
          {
            "duration": 0.04901958333332601,
            "durationTicks": 10,
            "midi": 62,
            "name": "D4",
            "ticks": 12660,
            "time": 62.05879250000001,
            "velocity": 0.8503937007874016
          },
          {
            "duration": 0.05392154166666785,
            "durationTicks": 11,
            "midi": 44,
            "name": "G#2",
            "ticks": 12686,
            "time": 62.18624341666668,
            "velocity": 0.6535433070866141
          },
          {
            "duration": 0.09803916666665913,
            "durationTicks": 20,
            "midi": 45,
            "name": "A2",
            "ticks": 12714,
            "time": 62.32349825000001,
            "velocity": 0.6535433070866141
          },
          {
            "duration": 0.10294112500000097,
            "durationTicks": 21,
            "midi": 35,
            "name": "B1",
            "ticks": 12714,
            "time": 62.32349825000001,
            "velocity": 0.6535433070866141
          },
          {
            "duration": 0.0931372083333315,
            "durationTicks": 19,
            "midi": 57,
            "name": "A3",
            "ticks": 12716,
            "time": 62.33330216666668,
            "velocity": 0.6535433070866141
          },
          {
            "duration": 0.10294112499999386,
            "durationTicks": 21,
            "midi": 55,
            "name": "G3",
            "ticks": 12716,
            "time": 62.33330216666668,
            "velocity": 0.6535433070866141
          },
          {
            "duration": 0.02450979166666656,
            "durationTicks": 5,
            "midi": 39,
            "name": "D#2",
            "ticks": 12716,
            "time": 62.33330216666668,
            "velocity": 0.4881889763779528
          },
          {
            "duration": 0.06862741666665784,
            "durationTicks": 14,
            "midi": 39,
            "name": "D#2",
            "ticks": 12746,
            "time": 62.480360916666676,
            "velocity": 0.5196850393700787
          },
          {
            "duration": 0.07843133333333441,
            "durationTicks": 16,
            "midi": 46,
            "name": "A#2",
            "ticks": 12748,
            "time": 62.49016483333334,
            "velocity": 0.6535433070866141
          },
          {
            "duration": 0.07352937499999967,
            "durationTicks": 15,
            "midi": 34,
            "name": "A#1",
            "ticks": 12748,
            "time": 62.49016483333334,
            "velocity": 0.5590551181102362
          },
          {
            "duration": 0.019607833333331826,
            "durationTicks": 4,
            "midi": 65,
            "name": "F4",
            "ticks": 12750,
            "time": 62.49996875000001,
            "velocity": 0.937007874015748
          },
          {
            "duration": 0.09803916666666623,
            "durationTicks": 20,
            "midi": 45,
            "name": "A2",
            "ticks": 12774,
            "time": 62.617615750000006,
            "velocity": 0.6535433070866141
          },
          {
            "duration": 0.08823524999999677,
            "durationTicks": 18,
            "midi": 35,
            "name": "B1",
            "ticks": 12774,
            "time": 62.617615750000006,
            "velocity": 0.6535433070866141
          },
          {
            "duration": 0.10294112500000097,
            "durationTicks": 21,
            "midi": 55,
            "name": "G3",
            "ticks": 12776,
            "time": 62.627419666666675,
            "velocity": 0.6535433070866141
          },
          {
            "duration": 0.04901958333333312,
            "durationTicks": 10,
            "midi": 39,
            "name": "D#2",
            "ticks": 12776,
            "time": 62.627419666666675,
            "velocity": 0.8503937007874016
          },
          {
            "duration": 0.039215666666670757,
            "durationTicks": 8,
            "midi": 46,
            "name": "A#2",
            "ticks": 12778,
            "time": 62.63722358333334,
            "velocity": 0.6535433070866141
          },
          {
            "duration": 0.039215666666670757,
            "durationTicks": 8,
            "midi": 34,
            "name": "A#1",
            "ticks": 12778,
            "time": 62.63722358333334,
            "velocity": 0.5590551181102362
          },
          {
            "duration": 0.07352937499999967,
            "durationTicks": 15,
            "midi": 39,
            "name": "D#2",
            "ticks": 12806,
            "time": 62.774478416666675,
            "velocity": 0.7086614173228346
          },
          {
            "duration": 0.053921541666660744,
            "durationTicks": 11,
            "midi": 46,
            "name": "A#2",
            "ticks": 12808,
            "time": 62.784282333333344,
            "velocity": 0.6535433070866141
          },
          {
            "duration": 0.053921541666660744,
            "durationTicks": 11,
            "midi": 34,
            "name": "A#1",
            "ticks": 12808,
            "time": 62.784282333333344,
            "velocity": 0.5590551181102362
          },
          {
            "duration": 0.11764699999999806,
            "durationTicks": 24,
            "midi": 45,
            "name": "A2",
            "ticks": 12834,
            "time": 62.91173325000001,
            "velocity": 0.6535433070866141
          },
          {
            "duration": 0.0931372083333315,
            "durationTicks": 19,
            "midi": 35,
            "name": "B1",
            "ticks": 12834,
            "time": 62.91173325000001,
            "velocity": 0.6535433070866141
          },
          {
            "duration": 0.11274504166666333,
            "durationTicks": 23,
            "midi": 55,
            "name": "G3",
            "ticks": 12836,
            "time": 62.921537166666674,
            "velocity": 0.6535433070866141
          },
          {
            "duration": 0.02941175000000129,
            "durationTicks": 6,
            "midi": 39,
            "name": "D#2",
            "ticks": 12836,
            "time": 62.921537166666674,
            "velocity": 0.8267716535433071
          },
          {
            "duration": 0.06862741666665784,
            "durationTicks": 14,
            "midi": 46,
            "name": "A#2",
            "ticks": 12838,
            "time": 62.93134108333334,
            "velocity": 0.6535433070866141
          },
          {
            "duration": 0.06862741666665784,
            "durationTicks": 14,
            "midi": 34,
            "name": "A#1",
            "ticks": 12838,
            "time": 62.93134108333334,
            "velocity": 0.5590551181102362
          },
          {
            "duration": 0.009803916666669465,
            "durationTicks": 2,
            "midi": 66,
            "name": "F#4",
            "ticks": 12840,
            "time": 62.941145000000006,
            "velocity": 0.8818897637795275
          },
          {
            "duration": 0.0784313333333273,
            "durationTicks": 16,
            "midi": 39,
            "name": "D#2",
            "ticks": 12866,
            "time": 63.06859591666667,
            "velocity": 0.8818897637795275
          },
          {
            "duration": 0.0784313333333273,
            "durationTicks": 16,
            "midi": 46,
            "name": "A#2",
            "ticks": 12868,
            "time": 63.07839983333334,
            "velocity": 0.6535433070866141
          },
          {
            "duration": 0.0784313333333273,
            "durationTicks": 16,
            "midi": 34,
            "name": "A#1",
            "ticks": 12868,
            "time": 63.07839983333334,
            "velocity": 0.5590551181102362
          },
          {
            "duration": 0.0931372083333315,
            "durationTicks": 19,
            "midi": 45,
            "name": "A2",
            "ticks": 12894,
            "time": 63.20585075000001,
            "velocity": 0.6535433070866141
          },
          {
            "duration": 0.0931372083333315,
            "durationTicks": 19,
            "midi": 35,
            "name": "B1",
            "ticks": 12894,
            "time": 63.20585075000001,
            "velocity": 0.6535433070866141
          },
          {
            "duration": 0.1078430833333357,
            "durationTicks": 22,
            "midi": 55,
            "name": "G3",
            "ticks": 12896,
            "time": 63.21565466666667,
            "velocity": 0.6535433070866141
          },
          {
            "duration": 0.05392154166666785,
            "durationTicks": 11,
            "midi": 39,
            "name": "D#2",
            "ticks": 12896,
            "time": 63.21565466666667,
            "velocity": 1
          },
          {
            "duration": 0.2647057499999974,
            "durationTicks": 54,
            "midi": 46,
            "name": "A#2",
            "ticks": 12898,
            "time": 63.22545858333334,
            "velocity": 0.6535433070866141
          },
          {
            "duration": 0.2647057499999974,
            "durationTicks": 54,
            "midi": 34,
            "name": "A#1",
            "ticks": 12898,
            "time": 63.22545858333334,
            "velocity": 0.5590551181102362
          },
          {
            "duration": 0.03921566666666365,
            "durationTicks": 8,
            "midi": 66,
            "name": "F#4",
            "ticks": 12900,
            "time": 63.235262500000005,
            "velocity": 1
          },
          {
            "duration": 0.06862741666666494,
            "durationTicks": 14,
            "midi": 39,
            "name": "D#2",
            "ticks": 12926,
            "time": 63.36271341666667,
            "velocity": 0.937007874015748
          },
          {
            "duration": 0.2941174999999987,
            "durationTicks": 60,
            "midi": 36,
            "name": "C2",
            "ticks": 12955,
            "time": 63.50487020833334,
            "velocity": 0.6535433070866141
          },
          {
            "duration": 0.09803916666667334,
            "durationTicks": 20,
            "midi": 57,
            "name": "A3",
            "ticks": 12956,
            "time": 63.50977216666667,
            "velocity": 0.6535433070866141
          },
          {
            "duration": 0.053921541666660744,
            "durationTicks": 11,
            "midi": 62,
            "name": "D4",
            "ticks": 12960,
            "time": 63.52938000000001,
            "velocity": 1
          },
          {
            "duration": 0.07352937499999967,
            "durationTicks": 15,
            "midi": 44,
            "name": "G#2",
            "ticks": 13016,
            "time": 63.80388966666668,
            "velocity": 0.6535433070866141
          },
          {
            "duration": 0.03921566666666365,
            "durationTicks": 8,
            "midi": 39,
            "name": "D#2",
            "ticks": 13016,
            "time": 63.80388966666668,
            "velocity": 0.905511811023622
          },
          {
            "duration": 0.08823524999999677,
            "durationTicks": 18,
            "midi": 40,
            "name": "E2",
            "ticks": 13046,
            "time": 63.95094841666668,
            "velocity": 0.6535433070866141
          },
          {
            "duration": 0.06862741666665784,
            "durationTicks": 14,
            "midi": 44,
            "name": "G#2",
            "ticks": 13046,
            "time": 63.95094841666668,
            "velocity": 0.6535433070866141
          },
          {
            "duration": 0.06862741666665784,
            "durationTicks": 14,
            "midi": 39,
            "name": "D#2",
            "ticks": 13046,
            "time": 63.95094841666668,
            "velocity": 0.6771653543307087
          },
          {
            "duration": 0.05882349999999548,
            "durationTicks": 12,
            "midi": 61,
            "name": "C#4",
            "ticks": 13050,
            "time": 63.97055625000001,
            "velocity": 1
          },
          {
            "duration": 0.02450979166666656,
            "durationTicks": 5,
            "midi": 60,
            "name": "C4",
            "ticks": 13050,
            "time": 63.97055625000001,
            "velocity": 0.905511811023622
          },
          {
            "duration": 0.2941175000000129,
            "durationTicks": 60,
            "midi": 36,
            "name": "C2",
            "ticks": 13075,
            "time": 64.09310520833333,
            "velocity": 0.6535433070866141
          },
          {
            "duration": 0.0784313333333273,
            "durationTicks": 16,
            "midi": 44,
            "name": "G#2",
            "ticks": 13076,
            "time": 64.09800716666668,
            "velocity": 0.6535433070866141
          },
          {
            "duration": 0.06862741666665784,
            "durationTicks": 14,
            "midi": 44,
            "name": "G#2",
            "ticks": 13106,
            "time": 64.24506591666668,
            "velocity": 0.6535433070866141
          },
          {
            "duration": 0.03921566666664944,
            "durationTicks": 8,
            "midi": 60,
            "name": "C4",
            "ticks": 13110,
            "time": 64.26467375000001,
            "velocity": 1
          },
          {
            "duration": 0.10294112500000097,
            "durationTicks": 21,
            "midi": 40,
            "name": "E2",
            "ticks": 13136,
            "time": 64.39212466666667,
            "velocity": 0.6535433070866141
          },
          {
            "duration": 0.0784313333333273,
            "durationTicks": 16,
            "midi": 44,
            "name": "G#2",
            "ticks": 13136,
            "time": 64.39212466666667,
            "velocity": 0.6535433070866141
          },
          {
            "duration": 0.044117624999998384,
            "durationTicks": 9,
            "midi": 39,
            "name": "D#2",
            "ticks": 13136,
            "time": 64.39212466666667,
            "velocity": 0.905511811023622
          },
          {
            "duration": 0.029411750000008396,
            "durationTicks": 6,
            "midi": 64,
            "name": "E4",
            "ticks": 13140,
            "time": 64.4117325,
            "velocity": 1
          },
          {
            "duration": 0.07352937499999257,
            "durationTicks": 15,
            "midi": 44,
            "name": "G#2",
            "ticks": 13166,
            "time": 64.53918341666667,
            "velocity": 0.6535433070866141
          },
          {
            "duration": 0.11274504166665622,
            "durationTicks": 23,
            "midi": 45,
            "name": "A2",
            "ticks": 13194,
            "time": 64.67643825000002,
            "velocity": 0.6535433070866141
          },
          {
            "duration": 0.09803916666665202,
            "durationTicks": 20,
            "midi": 35,
            "name": "B1",
            "ticks": 13194,
            "time": 64.67643825000002,
            "velocity": 0.6535433070866141
          },
          {
            "duration": 0.2941174999999987,
            "durationTicks": 60,
            "midi": 36,
            "name": "C2",
            "ticks": 13195,
            "time": 64.68134020833334,
            "velocity": 0.6535433070866141
          },
          {
            "duration": 0.08333329166667625,
            "durationTicks": 17,
            "midi": 44,
            "name": "G#2",
            "ticks": 13196,
            "time": 64.68624216666667,
            "velocity": 0.6535433070866141
          },
          {
            "duration": 0.05882350000000258,
            "durationTicks": 12,
            "midi": 39,
            "name": "D#2",
            "ticks": 13196,
            "time": 64.68624216666667,
            "velocity": 0.905511811023622
          },
          {
            "duration": 0.029411750000008396,
            "durationTicks": 6,
            "midi": 62,
            "name": "D4",
            "ticks": 13200,
            "time": 64.70585,
            "velocity": 0.9763779527559056
          },
          {
            "duration": 0.04901958333333312,
            "durationTicks": 10,
            "midi": 44,
            "name": "G#2",
            "ticks": 13226,
            "time": 64.83330091666667,
            "velocity": 0.6535433070866141
          },
          {
            "duration": 0.029411749999994186,
            "durationTicks": 6,
            "midi": 61,
            "name": "C#4",
            "ticks": 13230,
            "time": 64.85290875000001,
            "velocity": 0.905511811023622
          },
          {
            "duration": 0.07843133333334151,
            "durationTicks": 16,
            "midi": 44,
            "name": "G#2",
            "ticks": 13256,
            "time": 64.98035966666667,
            "velocity": 0.6535433070866141
          },
          {
            "duration": 0.01960783333333893,
            "durationTicks": 4,
            "midi": 62,
            "name": "D4",
            "ticks": 13260,
            "time": 64.9999675,
            "velocity": 0.6535433070866141
          },
          {
            "duration": 0.09803916666666623,
            "durationTicks": 20,
            "midi": 40,
            "name": "E2",
            "ticks": 13286,
            "time": 65.12741841666667,
            "velocity": 0.6535433070866141
          },
          {
            "duration": 0.06372545833333731,
            "durationTicks": 13,
            "midi": 44,
            "name": "G#2",
            "ticks": 13286,
            "time": 65.12741841666667,
            "velocity": 0.6535433070866141
          },
          {
            "duration": 0.08823524999999677,
            "durationTicks": 18,
            "midi": 39,
            "name": "D#2",
            "ticks": 13286,
            "time": 65.12741841666667,
            "velocity": 0.7637795275590551
          },
          {
            "duration": 0.0637254583333231,
            "durationTicks": 13,
            "midi": 63,
            "name": "D#4",
            "ticks": 13290,
            "time": 65.14702625000001,
            "velocity": 1
          },
          {
            "duration": 0.2941174999999987,
            "durationTicks": 60,
            "midi": 36,
            "name": "C2",
            "ticks": 13315,
            "time": 65.26957520833334,
            "velocity": 0.6535433070866141
          },
          {
            "duration": 0.08823524999998256,
            "durationTicks": 18,
            "midi": 44,
            "name": "G#2",
            "ticks": 13316,
            "time": 65.27447716666668,
            "velocity": 0.6535433070866141
          },
          {
            "duration": 0.06862741666665784,
            "durationTicks": 14,
            "midi": 44,
            "name": "G#2",
            "ticks": 13346,
            "time": 65.42153591666667,
            "velocity": 0.6535433070866141
          },
          {
            "duration": 0.03921566666666365,
            "durationTicks": 8,
            "midi": 61,
            "name": "C#4",
            "ticks": 13350,
            "time": 65.44114375000001,
            "velocity": 1
          },
          {
            "duration": 0.09803916666666623,
            "durationTicks": 20,
            "midi": 40,
            "name": "E2",
            "ticks": 13376,
            "time": 65.56859466666668,
            "velocity": 0.6535433070866141
          },
          {
            "duration": 0.0784313333333273,
            "durationTicks": 16,
            "midi": 44,
            "name": "G#2",
            "ticks": 13376,
            "time": 65.56859466666668,
            "velocity": 0.6535433070866141
          },
          {
            "duration": 0.049019583333318906,
            "durationTicks": 10,
            "midi": 39,
            "name": "D#2",
            "ticks": 13376,
            "time": 65.56859466666668,
            "velocity": 0.905511811023622
          },
          {
            "duration": 0.03431370833332892,
            "durationTicks": 7,
            "midi": 64,
            "name": "E4",
            "ticks": 13380,
            "time": 65.58820250000001,
            "velocity": 1
          },
          {
            "duration": 0.05392154166668206,
            "durationTicks": 11,
            "midi": 44,
            "name": "G#2",
            "ticks": 13406,
            "time": 65.71565341666667,
            "velocity": 0.6535433070866141
          },
          {
            "duration": 0.10294112500000097,
            "durationTicks": 21,
            "midi": 45,
            "name": "A2",
            "ticks": 13434,
            "time": 65.85290825000001,
            "velocity": 0.6535433070866141
          },
          {
            "duration": 0.09803916666666623,
            "durationTicks": 20,
            "midi": 35,
            "name": "B1",
            "ticks": 13434,
            "time": 65.85290825000001,
            "velocity": 0.6535433070866141
          },
          {
            "duration": 0.2941174999999987,
            "durationTicks": 60,
            "midi": 36,
            "name": "C2",
            "ticks": 13435,
            "time": 65.85781020833335,
            "velocity": 0.6535433070866141
          },
          {
            "duration": 0.08333329166666203,
            "durationTicks": 17,
            "midi": 44,
            "name": "G#2",
            "ticks": 13436,
            "time": 65.86271216666668,
            "velocity": 0.6535433070866141
          },
          {
            "duration": 0.05392154166665364,
            "durationTicks": 11,
            "midi": 39,
            "name": "D#2",
            "ticks": 13436,
            "time": 65.86271216666668,
            "velocity": 0.8503937007874016
          },
          {
            "duration": 0.03921566666666365,
            "durationTicks": 8,
            "midi": 62,
            "name": "D4",
            "ticks": 13440,
            "time": 65.88232,
            "velocity": 1
          },
          {
            "duration": 0.06372545833335153,
            "durationTicks": 13,
            "midi": 44,
            "name": "G#2",
            "ticks": 13466,
            "time": 66.00977091666667,
            "velocity": 0.6535433070866141
          },
          {
            "duration": 0.07352937500000678,
            "durationTicks": 15,
            "midi": 39,
            "name": "D#2",
            "ticks": 13466,
            "time": 66.00977091666667,
            "velocity": 0.6929133858267716
          },
          {
            "duration": 0.08823524999999677,
            "durationTicks": 18,
            "midi": 44,
            "name": "G#2",
            "ticks": 13496,
            "time": 66.15682966666668,
            "velocity": 0.6535433070866141
          },
          {
            "duration": 0.10294112500000097,
            "durationTicks": 21,
            "midi": 40,
            "name": "E2",
            "ticks": 13526,
            "time": 66.30388841666667,
            "velocity": 0.6535433070866141
          },
          {
            "duration": 0.06862741666667205,
            "durationTicks": 14,
            "midi": 44,
            "name": "G#2",
            "ticks": 13526,
            "time": 66.30388841666667,
            "velocity": 0.6535433070866141
          },
          {
            "duration": 0.06372545833335153,
            "durationTicks": 13,
            "midi": 39,
            "name": "D#2",
            "ticks": 13526,
            "time": 66.30388841666667,
            "velocity": 0.4330708661417323
          },
          {
            "duration": 0.06372545833333731,
            "durationTicks": 13,
            "midi": 61,
            "name": "C#4",
            "ticks": 13530,
            "time": 66.32349625,
            "velocity": 1
          },
          {
            "duration": 0.2941174999999987,
            "durationTicks": 60,
            "midi": 36,
            "name": "C2",
            "ticks": 13555,
            "time": 66.44604520833335,
            "velocity": 0.6535433070866141
          },
          {
            "duration": 0.07352937499999257,
            "durationTicks": 15,
            "midi": 44,
            "name": "G#2",
            "ticks": 13556,
            "time": 66.45094716666668,
            "velocity": 0.6535433070866141
          },
          {
            "duration": 0.049019583333318906,
            "durationTicks": 10,
            "midi": 39,
            "name": "D#2",
            "ticks": 13556,
            "time": 66.45094716666668,
            "velocity": 0.7401574803149606
          },
          {
            "duration": 0.07352937500000678,
            "durationTicks": 15,
            "midi": 44,
            "name": "G#2",
            "ticks": 13586,
            "time": 66.59800591666666,
            "velocity": 0.6535433070866141
          },
          {
            "duration": 0.03921566666667786,
            "durationTicks": 8,
            "midi": 63,
            "name": "D#4",
            "ticks": 13590,
            "time": 66.61761375,
            "velocity": 1
          },
          {
            "duration": 0.11764700000000516,
            "durationTicks": 24,
            "midi": 40,
            "name": "E2",
            "ticks": 13616,
            "time": 66.74506466666668,
            "velocity": 0.6535433070866141
          },
          {
            "duration": 0.07352937499999257,
            "durationTicks": 15,
            "midi": 44,
            "name": "G#2",
            "ticks": 13616,
            "time": 66.74506466666668,
            "velocity": 0.6535433070866141
          },
          {
            "duration": 0.05392154166665364,
            "durationTicks": 11,
            "midi": 39,
            "name": "D#2",
            "ticks": 13616,
            "time": 66.74506466666668,
            "velocity": 0.7795275590551181
          },
          {
            "duration": 0.049019583333318906,
            "durationTicks": 10,
            "midi": 64,
            "name": "E4",
            "ticks": 13620,
            "time": 66.76467250000002,
            "velocity": 1
          },
          {
            "duration": 0.06862741666665784,
            "durationTicks": 14,
            "midi": 44,
            "name": "G#2",
            "ticks": 13646,
            "time": 66.89212341666668,
            "velocity": 0.6535433070866141
          },
          {
            "duration": 0.11274504166667043,
            "durationTicks": 23,
            "midi": 45,
            "name": "A2",
            "ticks": 13674,
            "time": 67.02937825000001,
            "velocity": 0.6535433070866141
          },
          {
            "duration": 0.0931372083333315,
            "durationTicks": 19,
            "midi": 35,
            "name": "B1",
            "ticks": 13674,
            "time": 67.02937825000001,
            "velocity": 0.6535433070866141
          },
          {
            "duration": 0.2941174999999987,
            "durationTicks": 60,
            "midi": 36,
            "name": "C2",
            "ticks": 13675,
            "time": 67.03428020833334,
            "velocity": 0.6535433070866141
          },
          {
            "duration": 0.08333329166666203,
            "durationTicks": 17,
            "midi": 44,
            "name": "G#2",
            "ticks": 13676,
            "time": 67.03918216666668,
            "velocity": 0.6535433070866141
          },
          {
            "duration": 0.049019583333318906,
            "durationTicks": 10,
            "midi": 39,
            "name": "D#2",
            "ticks": 13676,
            "time": 67.03918216666668,
            "velocity": 0.8267716535433071
          },
          {
            "duration": 0.0637254583333231,
            "durationTicks": 13,
            "midi": 62,
            "name": "D4",
            "ticks": 13680,
            "time": 67.05879000000002,
            "velocity": 1
          },
          {
            "duration": 0.07352937500000678,
            "durationTicks": 15,
            "midi": 44,
            "name": "G#2",
            "ticks": 13706,
            "time": 67.18624091666668,
            "velocity": 0.6535433070866141
          },
          {
            "duration": 0.08823524999999677,
            "durationTicks": 18,
            "midi": 44,
            "name": "G#2",
            "ticks": 13736,
            "time": 67.33329966666668,
            "velocity": 0.6535433070866141
          },
          {
            "duration": 0.029411749999994186,
            "durationTicks": 6,
            "midi": 39,
            "name": "D#2",
            "ticks": 13736,
            "time": 67.33329966666668,
            "velocity": 0.6535433070866141
          },
          {
            "duration": 0.024509791666659453,
            "durationTicks": 5,
            "midi": 62,
            "name": "D4",
            "ticks": 13740,
            "time": 67.35290750000001,
            "velocity": 0.6377952755905512
          },
          {
            "duration": 0.10294112500000097,
            "durationTicks": 21,
            "midi": 40,
            "name": "E2",
            "ticks": 13766,
            "time": 67.48035841666668,
            "velocity": 0.6535433070866141
          },
          {
            "duration": 0.06862741666667205,
            "durationTicks": 14,
            "midi": 44,
            "name": "G#2",
            "ticks": 13766,
            "time": 67.48035841666668,
            "velocity": 0.6535433070866141
          },
          {
            "duration": 0.0784313333333273,
            "durationTicks": 16,
            "midi": 39,
            "name": "D#2",
            "ticks": 13766,
            "time": 67.48035841666668,
            "velocity": 0.6771653543307087
          },
          {
            "duration": 0.06372545833335153,
            "durationTicks": 13,
            "midi": 61,
            "name": "C#4",
            "ticks": 13770,
            "time": 67.49996625,
            "velocity": 1
          },
          {
            "duration": 0.2941174999999987,
            "durationTicks": 60,
            "midi": 36,
            "name": "C2",
            "ticks": 13795,
            "time": 67.62251520833334,
            "velocity": 0.6535433070866141
          },
          {
            "duration": 0.07352937499999257,
            "durationTicks": 15,
            "midi": 44,
            "name": "G#2",
            "ticks": 13796,
            "time": 67.62741716666667,
            "velocity": 0.6535433070866141
          },
          {
            "duration": 0.06372545833333731,
            "durationTicks": 13,
            "midi": 44,
            "name": "G#2",
            "ticks": 13826,
            "time": 67.77447591666667,
            "velocity": 0.6535433070866141
          },
          {
            "duration": 0.03921566666667786,
            "durationTicks": 8,
            "midi": 63,
            "name": "D#4",
            "ticks": 13830,
            "time": 67.79408375,
            "velocity": 1
          },
          {
            "duration": 0.0931372083333315,
            "durationTicks": 19,
            "midi": 40,
            "name": "E2",
            "ticks": 13856,
            "time": 67.92153466666667,
            "velocity": 0.6535433070866141
          },
          {
            "duration": 0.0784313333333273,
            "durationTicks": 16,
            "midi": 44,
            "name": "G#2",
            "ticks": 13856,
            "time": 67.92153466666667,
            "velocity": 0.6535433070866141
          },
          {
            "duration": 0.05392154166666785,
            "durationTicks": 11,
            "midi": 39,
            "name": "D#2",
            "ticks": 13856,
            "time": 67.92153466666667,
            "velocity": 0.8267716535433071
          },
          {
            "duration": 0.049019583333318906,
            "durationTicks": 10,
            "midi": 64,
            "name": "E4",
            "ticks": 13860,
            "time": 67.94114250000001,
            "velocity": 1
          },
          {
            "duration": 0.06372545833333731,
            "durationTicks": 13,
            "midi": 44,
            "name": "G#2",
            "ticks": 13886,
            "time": 68.06859341666667,
            "velocity": 0.6535433070866141
          },
          {
            "duration": 0.10294112500000097,
            "durationTicks": 21,
            "midi": 45,
            "name": "A2",
            "ticks": 13914,
            "time": 68.20584825,
            "velocity": 0.6535433070866141
          },
          {
            "duration": 0.09803916666666623,
            "durationTicks": 20,
            "midi": 35,
            "name": "B1",
            "ticks": 13914,
            "time": 68.20584825,
            "velocity": 0.6535433070866141
          },
          {
            "duration": 0.2941174999999987,
            "durationTicks": 60,
            "midi": 36,
            "name": "C2",
            "ticks": 13915,
            "time": 68.21075020833334,
            "velocity": 0.6535433070866141
          },
          {
            "duration": 0.08333329166666203,
            "durationTicks": 17,
            "midi": 49,
            "name": "C#3",
            "ticks": 13916,
            "time": 68.21565216666667,
            "velocity": 0.6535433070866141
          },
          {
            "duration": 0.029411750000008396,
            "durationTicks": 6,
            "midi": 39,
            "name": "D#2",
            "ticks": 13916,
            "time": 68.21565216666667,
            "velocity": 0.5354330708661418
          },
          {
            "duration": 0.044117624999998384,
            "durationTicks": 9,
            "midi": 62,
            "name": "D4",
            "ticks": 13920,
            "time": 68.23526000000001,
            "velocity": 0.6614173228346457
          },
          {
            "duration": 0.049019583333318906,
            "durationTicks": 10,
            "midi": 44,
            "name": "G#2",
            "ticks": 13946,
            "time": 68.36271091666669,
            "velocity": 0.6535433070866141
          },
          {
            "duration": 0.0931372083333315,
            "durationTicks": 19,
            "midi": 44,
            "name": "G#2",
            "ticks": 13976,
            "time": 68.50976966666667,
            "velocity": 0.6535433070866141
          },
          {
            "duration": 0.11274504166664201,
            "durationTicks": 23,
            "midi": 40,
            "name": "E2",
            "ticks": 14006,
            "time": 68.65682841666668,
            "velocity": 0.6535433070866141
          },
          {
            "duration": 0.07352937499999257,
            "durationTicks": 15,
            "midi": 44,
            "name": "G#2",
            "ticks": 14006,
            "time": 68.65682841666668,
            "velocity": 0.6535433070866141
          },
          {
            "duration": 0.0637254583333231,
            "durationTicks": 13,
            "midi": 39,
            "name": "D#2",
            "ticks": 14006,
            "time": 68.65682841666668,
            "velocity": 0.5433070866141733
          },
          {
            "duration": 0.05392154166666785,
            "durationTicks": 11,
            "midi": 42,
            "name": "F#2",
            "ticks": 14008,
            "time": 68.66663233333334,
            "velocity": 0.6535433070866141
          },
          {
            "duration": 0.04901958333333312,
            "durationTicks": 10,
            "midi": 30,
            "name": "F#1",
            "ticks": 14008,
            "time": 68.66663233333334,
            "velocity": 0.5590551181102362
          },
          {
            "duration": 0.06372545833333731,
            "durationTicks": 13,
            "midi": 61,
            "name": "C#4",
            "ticks": 14010,
            "time": 68.67643625000001,
            "velocity": 1
          },
          {
            "duration": 0.2941174999999987,
            "durationTicks": 60,
            "midi": 36,
            "name": "C2",
            "ticks": 14035,
            "time": 68.79898520833333,
            "velocity": 0.6535433070866141
          },
          {
            "duration": 0.08823524999999677,
            "durationTicks": 18,
            "midi": 44,
            "name": "G#2",
            "ticks": 14036,
            "time": 68.80388716666667,
            "velocity": 0.6535433070866141
          },
          {
            "duration": 0.03921566666667786,
            "durationTicks": 8,
            "midi": 39,
            "name": "D#2",
            "ticks": 14036,
            "time": 68.80388716666667,
            "velocity": 0.7401574803149606
          },
          {
            "duration": 0.0637254583333231,
            "durationTicks": 13,
            "midi": 44,
            "name": "G#2",
            "ticks": 14066,
            "time": 68.95094591666668,
            "velocity": 0.6535433070866141
          },
          {
            "duration": 0.06372545833335153,
            "durationTicks": 13,
            "midi": 61,
            "name": "C#4",
            "ticks": 14070,
            "time": 68.97055375,
            "velocity": 1
          },
          {
            "duration": 0.11274504166667043,
            "durationTicks": 23,
            "midi": 40,
            "name": "E2",
            "ticks": 14096,
            "time": 69.09800466666667,
            "velocity": 0.6535433070866141
          },
          {
            "duration": 0.07352937500002099,
            "durationTicks": 15,
            "midi": 44,
            "name": "G#2",
            "ticks": 14096,
            "time": 69.09800466666667,
            "velocity": 0.6535433070866141
          },
          {
            "duration": 0.044117625000012595,
            "durationTicks": 9,
            "midi": 39,
            "name": "D#2",
            "ticks": 14096,
            "time": 69.09800466666667,
            "velocity": 0.7086614173228346
          },
          {
            "duration": 0.17647049999999354,
            "durationTicks": 36,
            "midi": 42,
            "name": "F#2",
            "ticks": 14098,
            "time": 69.10780858333334,
            "velocity": 0.6535433070866141
          },
          {
            "duration": 0.17156854166668722,
            "durationTicks": 35,
            "midi": 30,
            "name": "F#1",
            "ticks": 14098,
            "time": 69.10780858333334,
            "velocity": 0.5590551181102362
          },
          {
            "duration": 0.06862741666665784,
            "durationTicks": 14,
            "midi": 64,
            "name": "E4",
            "ticks": 14100,
            "time": 69.1176125,
            "velocity": 1
          },
          {
            "duration": 0.05392154166665364,
            "durationTicks": 11,
            "midi": 44,
            "name": "G#2",
            "ticks": 14126,
            "time": 69.24506341666668,
            "velocity": 0.6535433070866141
          },
          {
            "duration": 0.10294112500000097,
            "durationTicks": 21,
            "midi": 45,
            "name": "A2",
            "ticks": 14154,
            "time": 69.38231825,
            "velocity": 0.6535433070866141
          },
          {
            "duration": 0.10294112500000097,
            "durationTicks": 21,
            "midi": 35,
            "name": "B1",
            "ticks": 14154,
            "time": 69.38231825,
            "velocity": 0.6535433070866141
          },
          {
            "duration": 0.2941174999999987,
            "durationTicks": 60,
            "midi": 36,
            "name": "C2",
            "ticks": 14155,
            "time": 69.38722020833333,
            "velocity": 0.6535433070866141
          },
          {
            "duration": 0.08333329166666203,
            "durationTicks": 17,
            "midi": 44,
            "name": "G#2",
            "ticks": 14156,
            "time": 69.39212216666667,
            "velocity": 0.6535433070866141
          },
          {
            "duration": 0.029411750000008396,
            "durationTicks": 6,
            "midi": 39,
            "name": "D#2",
            "ticks": 14156,
            "time": 69.39212216666667,
            "velocity": 0.5433070866141733
          },
          {
            "duration": 0.049019583333318906,
            "durationTicks": 10,
            "midi": 62,
            "name": "D4",
            "ticks": 14160,
            "time": 69.41173,
            "velocity": 1
          },
          {
            "duration": 0.049019583333318906,
            "durationTicks": 10,
            "midi": 44,
            "name": "G#2",
            "ticks": 14186,
            "time": 69.53918091666668,
            "velocity": 0.6535433070866141
          },
          {
            "duration": 0.07352937499999257,
            "durationTicks": 15,
            "midi": 39,
            "name": "D#2",
            "ticks": 14186,
            "time": 69.53918091666668,
            "velocity": 0.7244094488188977
          },
          {
            "duration": 0.05882349999998837,
            "durationTicks": 12,
            "midi": 44,
            "name": "G#2",
            "ticks": 14188,
            "time": 69.54898483333335,
            "velocity": 0.6535433070866141
          },
          {
            "duration": 0.03921566666664944,
            "durationTicks": 8,
            "midi": 32,
            "name": "G#1",
            "ticks": 14188,
            "time": 69.54898483333335,
            "velocity": 0.5590551181102362
          },
          {
            "duration": 0.08823524999999677,
            "durationTicks": 18,
            "midi": 44,
            "name": "G#2",
            "ticks": 14216,
            "time": 69.68623966666667,
            "velocity": 0.6535433070866141
          },
          {
            "duration": 0.10294112500000097,
            "durationTicks": 21,
            "midi": 40,
            "name": "E2",
            "ticks": 14246,
            "time": 69.83329841666668,
            "velocity": 0.6535433070866141
          },
          {
            "duration": 0.05392154166665364,
            "durationTicks": 11,
            "midi": 44,
            "name": "G#2",
            "ticks": 14246,
            "time": 69.83329841666668,
            "velocity": 0.6535433070866141
          },
          {
            "duration": 0.07352937499999257,
            "durationTicks": 15,
            "midi": 39,
            "name": "D#2",
            "ticks": 14246,
            "time": 69.83329841666668,
            "velocity": 0.6220472440944882
          },
          {
            "duration": 0.04411762499998417,
            "durationTicks": 9,
            "midi": 44,
            "name": "G#2",
            "ticks": 14248,
            "time": 69.84310233333335,
            "velocity": 0.6535433070866141
          },
          {
            "duration": 0.03921566666664944,
            "durationTicks": 8,
            "midi": 32,
            "name": "G#1",
            "ticks": 14248,
            "time": 69.84310233333335,
            "velocity": 0.5590551181102362
          },
          {
            "duration": 0.05882349999998837,
            "durationTicks": 12,
            "midi": 60,
            "name": "C4",
            "ticks": 14250,
            "time": 69.85290625000002,
            "velocity": 0.9763779527559056
          },
          {
            "duration": 0.2941174999999987,
            "durationTicks": 60,
            "midi": 36,
            "name": "C2",
            "ticks": 14275,
            "time": 69.97545520833333,
            "velocity": 0.6535433070866141
          },
          {
            "duration": 0.029411750000008396,
            "durationTicks": 6,
            "midi": 44,
            "name": "G#2",
            "ticks": 14276,
            "time": 69.98035716666666,
            "velocity": 0.6535433070866141
          },
          {
            "duration": 0.03921566666667786,
            "durationTicks": 8,
            "midi": 39,
            "name": "D#2",
            "ticks": 14276,
            "time": 69.98035716666666,
            "velocity": 0.7637795275590551
          },
          {
            "duration": 0.06862741666665784,
            "durationTicks": 14,
            "midi": 44,
            "name": "G#2",
            "ticks": 14278,
            "time": 69.99016108333333,
            "velocity": 0.6535433070866141
          },
          {
            "duration": 0.024509791666673664,
            "durationTicks": 5,
            "midi": 32,
            "name": "G#1",
            "ticks": 14278,
            "time": 69.99016108333333,
            "velocity": 0.5590551181102362
          },
          {
            "duration": 0.06862741666665784,
            "durationTicks": 14,
            "midi": 44,
            "name": "G#2",
            "ticks": 14306,
            "time": 70.12741591666668,
            "velocity": 0.6535433070866141
          },
          {
            "duration": 0.04411762499998417,
            "durationTicks": 9,
            "midi": 61,
            "name": "C#4",
            "ticks": 14310,
            "time": 70.14702375000002,
            "velocity": 1
          },
          {
            "duration": 0.11764700000000516,
            "durationTicks": 24,
            "midi": 40,
            "name": "E2",
            "ticks": 14336,
            "time": 70.27447466666666,
            "velocity": 0.6535433070866141
          },
          {
            "duration": 0.0784313333333273,
            "durationTicks": 16,
            "midi": 44,
            "name": "G#2",
            "ticks": 14336,
            "time": 70.27447466666666,
            "velocity": 0.6535433070866141
          },
          {
            "duration": 0.05392154166668206,
            "durationTicks": 11,
            "midi": 39,
            "name": "D#2",
            "ticks": 14336,
            "time": 70.27447466666666,
            "velocity": 0.7795275590551181
          },
          {
            "duration": 0.14705875000001356,
            "durationTicks": 30,
            "midi": 44,
            "name": "G#2",
            "ticks": 14338,
            "time": 70.28427858333333,
            "velocity": 0.6535433070866141
          },
          {
            "duration": 0.14705875000001356,
            "durationTicks": 30,
            "midi": 32,
            "name": "G#1",
            "ticks": 14338,
            "time": 70.28427858333333,
            "velocity": 0.5590551181102362
          },
          {
            "duration": 0.01960783333333893,
            "durationTicks": 4,
            "midi": 64,
            "name": "E4",
            "ticks": 14340,
            "time": 70.2940825,
            "velocity": 1
          },
          {
            "duration": 0.05392154166665364,
            "durationTicks": 11,
            "midi": 44,
            "name": "G#2",
            "ticks": 14366,
            "time": 70.42153341666668,
            "velocity": 0.6535433070866141
          },
          {
            "duration": 0.10294112500000097,
            "durationTicks": 21,
            "midi": 45,
            "name": "A2",
            "ticks": 14394,
            "time": 70.55878825000002,
            "velocity": 0.6535433070866141
          },
          {
            "duration": 0.10294112500000097,
            "durationTicks": 21,
            "midi": 35,
            "name": "B1",
            "ticks": 14394,
            "time": 70.55878825000002,
            "velocity": 0.6535433070866141
          },
          {
            "duration": 0.2941174999999987,
            "durationTicks": 60,
            "midi": 36,
            "name": "C2",
            "ticks": 14395,
            "time": 70.56369020833333,
            "velocity": 0.6535433070866141
          },
          {
            "duration": 0.08823524999999677,
            "durationTicks": 18,
            "midi": 44,
            "name": "G#2",
            "ticks": 14396,
            "time": 70.56859216666666,
            "velocity": 0.6535433070866141
          },
          {
            "duration": 0.044117625000012595,
            "durationTicks": 9,
            "midi": 62,
            "name": "D4",
            "ticks": 14400,
            "time": 70.5882,
            "velocity": 1
          },
          {
            "duration": 0.0637254583333231,
            "durationTicks": 13,
            "midi": 44,
            "name": "G#2",
            "ticks": 14426,
            "time": 70.71565091666668,
            "velocity": 0.6535433070866141
          },
          {
            "duration": 0.05392154166665364,
            "durationTicks": 11,
            "midi": 46,
            "name": "A#2",
            "ticks": 14428,
            "time": 70.72545483333334,
            "velocity": 0.6535433070866141
          },
          {
            "duration": 0.05392154166665364,
            "durationTicks": 11,
            "midi": 34,
            "name": "A#1",
            "ticks": 14428,
            "time": 70.72545483333334,
            "velocity": 0.5590551181102362
          },
          {
            "duration": 0.0784313333333273,
            "durationTicks": 16,
            "midi": 44,
            "name": "G#2",
            "ticks": 14456,
            "time": 70.86270966666669,
            "velocity": 0.6535433070866141
          },
          {
            "duration": 0.05392154166665364,
            "durationTicks": 11,
            "midi": 39,
            "name": "D#2",
            "ticks": 14456,
            "time": 70.86270966666669,
            "velocity": 0.8503937007874016
          },
          {
            "duration": 0.11274504166667043,
            "durationTicks": 23,
            "midi": 40,
            "name": "E2",
            "ticks": 14486,
            "time": 71.00976841666667,
            "velocity": 0.6535433070866141
          },
          {
            "duration": 0.06862741666665784,
            "durationTicks": 14,
            "midi": 44,
            "name": "G#2",
            "ticks": 14486,
            "time": 71.00976841666667,
            "velocity": 0.6535433070866141
          },
          {
            "duration": 0.0637254583333231,
            "durationTicks": 13,
            "midi": 39,
            "name": "D#2",
            "ticks": 14486,
            "time": 71.00976841666667,
            "velocity": 0.5433070866141733
          },
          {
            "duration": 0.0637254583333231,
            "durationTicks": 13,
            "midi": 63,
            "name": "D#4",
            "ticks": 14490,
            "time": 71.02937625000001,
            "velocity": 1
          },
          {
            "duration": 0.2941175000000271,
            "durationTicks": 60,
            "midi": 36,
            "name": "C2",
            "ticks": 14515,
            "time": 71.15192520833332,
            "velocity": 0.6535433070866141
          },
          {
            "duration": 0.07352937499999257,
            "durationTicks": 15,
            "midi": 44,
            "name": "G#2",
            "ticks": 14516,
            "time": 71.15682716666669,
            "velocity": 0.6535433070866141
          },
          {
            "duration": 0.044117625000012595,
            "durationTicks": 9,
            "midi": 46,
            "name": "A#2",
            "ticks": 14518,
            "time": 71.16663108333333,
            "velocity": 0.6535433070866141
          },
          {
            "duration": 0.044117625000012595,
            "durationTicks": 9,
            "midi": 34,
            "name": "A#1",
            "ticks": 14518,
            "time": 71.16663108333333,
            "velocity": 0.5590551181102362
          },
          {
            "duration": 0.06862741666665784,
            "durationTicks": 14,
            "midi": 44,
            "name": "G#2",
            "ticks": 14546,
            "time": 71.30388591666667,
            "velocity": 0.6535433070866141
          },
          {
            "duration": 0.029411750000008396,
            "durationTicks": 6,
            "midi": 61,
            "name": "C#4",
            "ticks": 14550,
            "time": 71.32349375000001,
            "velocity": 1
          },
          {
            "duration": 0.11274504166664201,
            "durationTicks": 23,
            "midi": 40,
            "name": "E2",
            "ticks": 14576,
            "time": 71.45094466666669,
            "velocity": 0.6535433070866141
          },
          {
            "duration": 0.0784313333333273,
            "durationTicks": 16,
            "midi": 44,
            "name": "G#2",
            "ticks": 14576,
            "time": 71.45094466666669,
            "velocity": 0.6535433070866141
          },
          {
            "duration": 0.05392154166665364,
            "durationTicks": 11,
            "midi": 39,
            "name": "D#2",
            "ticks": 14576,
            "time": 71.45094466666669,
            "velocity": 0.8818897637795275
          },
          {
            "duration": 0.15196070833331987,
            "durationTicks": 31,
            "midi": 46,
            "name": "A#2",
            "ticks": 14578,
            "time": 71.46074858333336,
            "velocity": 0.6535433070866141
          },
          {
            "duration": 0.15196070833331987,
            "durationTicks": 31,
            "midi": 34,
            "name": "A#1",
            "ticks": 14578,
            "time": 71.46074858333336,
            "velocity": 0.5590551181102362
          },
          {
            "duration": 0.03921566666667786,
            "durationTicks": 8,
            "midi": 62,
            "name": "D4",
            "ticks": 14580,
            "time": 71.4705525,
            "velocity": 1
          },
          {
            "duration": 0.06862741666665784,
            "durationTicks": 14,
            "midi": 44,
            "name": "G#2",
            "ticks": 14606,
            "time": 71.59800341666667,
            "velocity": 0.6535433070866141
          },
          {
            "duration": 0.024509791666673664,
            "durationTicks": 5,
            "midi": 60,
            "name": "C4",
            "ticks": 14610,
            "time": 71.61761125000001,
            "velocity": 1
          },
          {
            "duration": 0.11274504166667043,
            "durationTicks": 23,
            "midi": 45,
            "name": "A2",
            "ticks": 14634,
            "time": 71.73525825000002,
            "velocity": 0.6535433070866141
          },
          {
            "duration": 0.0931372083333315,
            "durationTicks": 19,
            "midi": 35,
            "name": "B1",
            "ticks": 14634,
            "time": 71.73525825000002,
            "velocity": 0.6535433070866141
          },
          {
            "duration": 0.2941174999999987,
            "durationTicks": 60,
            "midi": 36,
            "name": "C2",
            "ticks": 14635,
            "time": 71.74016020833335,
            "velocity": 0.6535433070866141
          },
          {
            "duration": 0.0784313333333273,
            "durationTicks": 16,
            "midi": 49,
            "name": "C#3",
            "ticks": 14636,
            "time": 71.74506216666668,
            "velocity": 0.6535433070866141
          },
          {
            "duration": 0.024509791666673664,
            "durationTicks": 5,
            "midi": 64,
            "name": "E4",
            "ticks": 14640,
            "time": 71.76467,
            "velocity": 1
          },
          {
            "duration": 0.06862741666665784,
            "durationTicks": 14,
            "midi": 44,
            "name": "G#2",
            "ticks": 14666,
            "time": 71.89212091666667,
            "velocity": 0.6535433070866141
          },
          {
            "duration": 0.0784313333333273,
            "durationTicks": 16,
            "midi": 44,
            "name": "G#2",
            "ticks": 14696,
            "time": 72.03917966666668,
            "velocity": 0.6535433070866141
          },
          {
            "duration": 0.049019583333318906,
            "durationTicks": 10,
            "midi": 39,
            "name": "D#2",
            "ticks": 14696,
            "time": 72.03917966666668,
            "velocity": 0.8818897637795275
          },
          {
            "duration": 0.024509791666673664,
            "durationTicks": 5,
            "midi": 64,
            "name": "E4",
            "ticks": 14700,
            "time": 72.0587875,
            "velocity": 1
          },
          {
            "duration": 0.10294112500000097,
            "durationTicks": 21,
            "midi": 40,
            "name": "E2",
            "ticks": 14726,
            "time": 72.18623841666667,
            "velocity": 0.6535433070866141
          },
          {
            "duration": 0.05882350000001679,
            "durationTicks": 12,
            "midi": 44,
            "name": "G#2",
            "ticks": 14726,
            "time": 72.18623841666667,
            "velocity": 0.6535433070866141
          },
          {
            "duration": 0.07352937500002099,
            "durationTicks": 15,
            "midi": 39,
            "name": "D#2",
            "ticks": 14726,
            "time": 72.18623841666667,
            "velocity": 0.6614173228346457
          },
          {
            "duration": 0.2941174999999987,
            "durationTicks": 60,
            "midi": 36,
            "name": "C2",
            "ticks": 14755,
            "time": 72.32839520833335,
            "velocity": 0.6535433070866141
          },
          {
            "duration": 0.0784313333333273,
            "durationTicks": 16,
            "midi": 49,
            "name": "C#3",
            "ticks": 14756,
            "time": 72.33329716666668,
            "velocity": 0.6535433070866141
          },
          {
            "duration": 0.01960783333331051,
            "durationTicks": 4,
            "midi": 64,
            "name": "E4",
            "ticks": 14760,
            "time": 72.35290500000002,
            "velocity": 1
          },
          {
            "duration": 0.05392154166668206,
            "durationTicks": 11,
            "midi": 44,
            "name": "G#2",
            "ticks": 14786,
            "time": 72.48035591666667,
            "velocity": 0.6535433070866141
          },
          {
            "duration": 0.06372545833335153,
            "durationTicks": 13,
            "midi": 39,
            "name": "D#2",
            "ticks": 14786,
            "time": 72.48035591666667,
            "velocity": 0.36220472440944884
          },
          {
            "duration": 0.11764700000000516,
            "durationTicks": 24,
            "midi": 40,
            "name": "E2",
            "ticks": 14816,
            "time": 72.62741466666668,
            "velocity": 0.6535433070866141
          },
          {
            "duration": 0.08333329166666203,
            "durationTicks": 17,
            "midi": 44,
            "name": "G#2",
            "ticks": 14816,
            "time": 72.62741466666668,
            "velocity": 0.6535433070866141
          },
          {
            "duration": 0.05392154166665364,
            "durationTicks": 11,
            "midi": 39,
            "name": "D#2",
            "ticks": 14816,
            "time": 72.62741466666668,
            "velocity": 0.905511811023622
          },
          {
            "duration": 0.029411749999979975,
            "durationTicks": 6,
            "midi": 64,
            "name": "E4",
            "ticks": 14820,
            "time": 72.64702250000002,
            "velocity": 1
          },
          {
            "duration": 0.06372545833335153,
            "durationTicks": 13,
            "midi": 44,
            "name": "G#2",
            "ticks": 14846,
            "time": 72.77447341666667,
            "velocity": 0.6535433070866141
          },
          {
            "duration": 0.09803916666666623,
            "durationTicks": 20,
            "midi": 45,
            "name": "A2",
            "ticks": 14874,
            "time": 72.91172825000001,
            "velocity": 0.6535433070866141
          },
          {
            "duration": 0.09803916666666623,
            "durationTicks": 20,
            "midi": 35,
            "name": "B1",
            "ticks": 14874,
            "time": 72.91172825000001,
            "velocity": 0.6535433070866141
          },
          {
            "duration": 0.2941174999999987,
            "durationTicks": 60,
            "midi": 36,
            "name": "C2",
            "ticks": 14875,
            "time": 72.91663020833334,
            "velocity": 0.6535433070866141
          },
          {
            "duration": 0.11274504166667043,
            "durationTicks": 23,
            "midi": 57,
            "name": "A3",
            "ticks": 14876,
            "time": 72.92153216666668,
            "velocity": 0.6535433070866141
          },
          {
            "duration": 0.08823524999999677,
            "durationTicks": 18,
            "midi": 55,
            "name": "G3",
            "ticks": 14876,
            "time": 72.92153216666668,
            "velocity": 0.6535433070866141
          },
          {
            "duration": 0.03921566666664944,
            "durationTicks": 8,
            "midi": 62,
            "name": "D4",
            "ticks": 14880,
            "time": 72.94114000000002,
            "velocity": 0.9763779527559056
          },
          {
            "duration": 0.05392154166668206,
            "durationTicks": 11,
            "midi": 44,
            "name": "G#2",
            "ticks": 14906,
            "time": 73.06859091666666,
            "velocity": 0.6535433070866141
          },
          {
            "duration": 0.08823524999999677,
            "durationTicks": 18,
            "midi": 44,
            "name": "G#2",
            "ticks": 14936,
            "time": 73.21564966666668,
            "velocity": 0.6535433070866141
          },
          {
            "duration": 0.049019583333318906,
            "durationTicks": 10,
            "midi": 39,
            "name": "D#2",
            "ticks": 14936,
            "time": 73.21564966666668,
            "velocity": 1
          },
          {
            "duration": 0.09803916666669465,
            "durationTicks": 20,
            "midi": 40,
            "name": "E2",
            "ticks": 14966,
            "time": 73.36270841666666,
            "velocity": 0.6535433070866141
          },
          {
            "duration": 0.06862741666668626,
            "durationTicks": 14,
            "midi": 44,
            "name": "G#2",
            "ticks": 14966,
            "time": 73.36270841666666,
            "velocity": 0.6535433070866141
          },
          {
            "duration": 0.06862741666668626,
            "durationTicks": 14,
            "midi": 39,
            "name": "D#2",
            "ticks": 14966,
            "time": 73.36270841666666,
            "velocity": 0.4645669291338583
          },
          {
            "duration": 0.04901958333334733,
            "durationTicks": 10,
            "midi": 60,
            "name": "C4",
            "ticks": 14970,
            "time": 73.38231625,
            "velocity": 1
          },
          {
            "duration": 0.2941174999999987,
            "durationTicks": 60,
            "midi": 36,
            "name": "C2",
            "ticks": 14995,
            "time": 73.50486520833334,
            "velocity": 0.6535433070866141
          },
          {
            "duration": 0.08823524999999677,
            "durationTicks": 18,
            "midi": 44,
            "name": "G#2",
            "ticks": 14996,
            "time": 73.50976716666668,
            "velocity": 0.6535433070866141
          },
          {
            "duration": 0.029411750000008396,
            "durationTicks": 6,
            "midi": 39,
            "name": "D#2",
            "ticks": 14996,
            "time": 73.50976716666668,
            "velocity": 0.6141732283464567
          },
          {
            "duration": 0.06862741666668626,
            "durationTicks": 14,
            "midi": 44,
            "name": "G#2",
            "ticks": 15026,
            "time": 73.65682591666666,
            "velocity": 0.6535433070866141
          },
          {
            "duration": 0.024509791666673664,
            "durationTicks": 5,
            "midi": 61,
            "name": "C#4",
            "ticks": 15030,
            "time": 73.67643375,
            "velocity": 1
          },
          {
            "duration": 0.11764700000000516,
            "durationTicks": 24,
            "midi": 40,
            "name": "E2",
            "ticks": 15056,
            "time": 73.80388466666668,
            "velocity": 0.6535433070866141
          },
          {
            "duration": 0.08823524999999677,
            "durationTicks": 18,
            "midi": 44,
            "name": "G#2",
            "ticks": 15056,
            "time": 73.80388466666668,
            "velocity": 0.6535433070866141
          },
          {
            "duration": 0.05392154166665364,
            "durationTicks": 11,
            "midi": 39,
            "name": "D#2",
            "ticks": 15056,
            "time": 73.80388466666668,
            "velocity": 0.8267716535433071
          },
          {
            "duration": 0.009803916666669465,
            "durationTicks": 2,
            "midi": 63,
            "name": "D#4",
            "ticks": 15060,
            "time": 73.82349250000001,
            "velocity": 1
          },
          {
            "duration": 0.06862741666665784,
            "durationTicks": 14,
            "midi": 44,
            "name": "G#2",
            "ticks": 15086,
            "time": 73.95094341666669,
            "velocity": 0.6535433070866141
          },
          {
            "duration": 0.12745091666667463,
            "durationTicks": 26,
            "midi": 45,
            "name": "A2",
            "ticks": 15114,
            "time": 74.08819825,
            "velocity": 0.6535433070866141
          },
          {
            "duration": 0.11274504166667043,
            "durationTicks": 23,
            "midi": 35,
            "name": "B1",
            "ticks": 15114,
            "time": 74.08819825,
            "velocity": 0.6535433070866141
          },
          {
            "duration": 0.2941174999999987,
            "durationTicks": 60,
            "midi": 36,
            "name": "C2",
            "ticks": 15115,
            "time": 74.09310020833334,
            "velocity": 0.6535433070866141
          },
          {
            "duration": 0.08823524999999677,
            "durationTicks": 18,
            "midi": 44,
            "name": "G#2",
            "ticks": 15116,
            "time": 74.09800216666667,
            "velocity": 0.6535433070866141
          },
          {
            "duration": 0.024509791666673664,
            "durationTicks": 5,
            "midi": 39,
            "name": "D#2",
            "ticks": 15116,
            "time": 74.09800216666667,
            "velocity": 0.6377952755905512
          },
          {
            "duration": 0.0637254583333231,
            "durationTicks": 13,
            "midi": 44,
            "name": "G#2",
            "ticks": 15146,
            "time": 74.24506091666669,
            "velocity": 0.6535433070866141
          },
          {
            "duration": 0.04901958333334733,
            "durationTicks": 10,
            "midi": 63,
            "name": "D#4",
            "ticks": 15150,
            "time": 74.26466875,
            "velocity": 1
          },
          {
            "duration": 0.0784313333333273,
            "durationTicks": 16,
            "midi": 44,
            "name": "G#2",
            "ticks": 15176,
            "time": 74.39211966666667,
            "velocity": 0.6535433070866141
          },
          {
            "duration": 0.05392154166668206,
            "durationTicks": 11,
            "midi": 39,
            "name": "D#2",
            "ticks": 15176,
            "time": 74.39211966666667,
            "velocity": 0.9763779527559056
          },
          {
            "duration": 0.0931372083333315,
            "durationTicks": 19,
            "midi": 40,
            "name": "E2",
            "ticks": 15206,
            "time": 74.53917841666669,
            "velocity": 0.6535433070866141
          },
          {
            "duration": 0.06862741666665784,
            "durationTicks": 14,
            "midi": 44,
            "name": "G#2",
            "ticks": 15206,
            "time": 74.53917841666669,
            "velocity": 0.6535433070866141
          },
          {
            "duration": 0.06862741666665784,
            "durationTicks": 14,
            "midi": 39,
            "name": "D#2",
            "ticks": 15206,
            "time": 74.53917841666669,
            "velocity": 0.48031496062992124
          },
          {
            "duration": 0.01960783333333893,
            "durationTicks": 4,
            "midi": 61,
            "name": "C#4",
            "ticks": 15210,
            "time": 74.55878625,
            "velocity": 0.7086614173228346
          },
          {
            "duration": 0.2941174999999987,
            "durationTicks": 60,
            "midi": 36,
            "name": "C2",
            "ticks": 15235,
            "time": 74.68133520833334,
            "velocity": 0.6535433070866141
          },
          {
            "duration": 0.0784313333333273,
            "durationTicks": 16,
            "midi": 44,
            "name": "G#2",
            "ticks": 15236,
            "time": 74.68623716666667,
            "velocity": 0.6535433070866141
          },
          {
            "duration": 0.024509791666673664,
            "durationTicks": 5,
            "midi": 39,
            "name": "D#2",
            "ticks": 15236,
            "time": 74.68623716666667,
            "velocity": 0.5905511811023622
          },
          {
            "duration": 0.03431370833334313,
            "durationTicks": 7,
            "midi": 62,
            "name": "D4",
            "ticks": 15240,
            "time": 74.70584500000001,
            "velocity": 0.7244094488188977
          },
          {
            "duration": 0.08823524999999677,
            "durationTicks": 18,
            "midi": 44,
            "name": "G#2",
            "ticks": 15266,
            "time": 74.83329591666669,
            "velocity": 0.6535433070866141
          },
          {
            "duration": 0.05392154166665364,
            "durationTicks": 11,
            "midi": 39,
            "name": "D#2",
            "ticks": 15266,
            "time": 74.83329591666669,
            "velocity": 0.4094488188976378
          },
          {
            "duration": 0.04901958333334733,
            "durationTicks": 10,
            "midi": 61,
            "name": "C#4",
            "ticks": 15270,
            "time": 74.85290375,
            "velocity": 0.9763779527559056
          },
          {
            "duration": 0.10294112500000097,
            "durationTicks": 21,
            "midi": 40,
            "name": "E2",
            "ticks": 15296,
            "time": 74.98035466666667,
            "velocity": 0.6535433070866141
          },
          {
            "duration": 0.0784313333333273,
            "durationTicks": 16,
            "midi": 44,
            "name": "G#2",
            "ticks": 15296,
            "time": 74.98035466666667,
            "velocity": 0.6535433070866141
          },
          {
            "duration": 0.04901958333334733,
            "durationTicks": 10,
            "midi": 39,
            "name": "D#2",
            "ticks": 15296,
            "time": 74.98035466666667,
            "velocity": 0.9763779527559056
          },
          {
            "duration": 0.044117625000012595,
            "durationTicks": 9,
            "midi": 64,
            "name": "E4",
            "ticks": 15300,
            "time": 74.99996250000001,
            "velocity": 1
          },
          {
            "duration": 0.07352937499999257,
            "durationTicks": 15,
            "midi": 44,
            "name": "G#2",
            "ticks": 15326,
            "time": 75.12741341666668,
            "velocity": 0.6535433070866141
          },
          {
            "duration": 0.2941174999999987,
            "durationTicks": 60,
            "midi": 36,
            "name": "C2",
            "ticks": 15355,
            "time": 75.26957020833333,
            "velocity": 0.6535433070866141
          },
          {
            "duration": 0.08333329166666203,
            "durationTicks": 17,
            "midi": 44,
            "name": "G#2",
            "ticks": 15356,
            "time": 75.27447216666667,
            "velocity": 0.6535433070866141
          },
          {
            "duration": 0.024509791666673664,
            "durationTicks": 5,
            "midi": 62,
            "name": "D4",
            "ticks": 15360,
            "time": 75.29408000000001,
            "velocity": 0.905511811023622
          },
          {
            "duration": 0.0637254583333231,
            "durationTicks": 13,
            "midi": 44,
            "name": "G#2",
            "ticks": 15386,
            "time": 75.42153091666668,
            "velocity": 0.6535433070866141
          },
          {
            "duration": 0.07352937500002099,
            "durationTicks": 15,
            "midi": 44,
            "name": "G#2",
            "ticks": 15416,
            "time": 75.56858966666667,
            "velocity": 0.6535433070866141
          },
          {
            "duration": 0.04901958333334733,
            "durationTicks": 10,
            "midi": 39,
            "name": "D#2",
            "ticks": 15416,
            "time": 75.56858966666667,
            "velocity": 0.6929133858267716
          },
          {
            "duration": 0.03431370833334313,
            "durationTicks": 7,
            "midi": 62,
            "name": "D4",
            "ticks": 15420,
            "time": 75.5881975,
            "velocity": 0.8031496062992126
          },
          {
            "duration": 0.09803916666666623,
            "durationTicks": 20,
            "midi": 40,
            "name": "E2",
            "ticks": 15446,
            "time": 75.71564841666668,
            "velocity": 0.6535433070866141
          },
          {
            "duration": 0.07352937499999257,
            "durationTicks": 15,
            "midi": 44,
            "name": "G#2",
            "ticks": 15446,
            "time": 75.71564841666668,
            "velocity": 0.6535433070866141
          },
          {
            "duration": 0.0637254583333231,
            "durationTicks": 13,
            "midi": 39,
            "name": "D#2",
            "ticks": 15446,
            "time": 75.71564841666668,
            "velocity": 0.2992125984251969
          },
          {
            "duration": 0.03921566666664944,
            "durationTicks": 8,
            "midi": 60,
            "name": "C4",
            "ticks": 15450,
            "time": 75.73525625000002,
            "velocity": 0.7401574803149606
          },
          {
            "duration": 0.2941174999999987,
            "durationTicks": 60,
            "midi": 36,
            "name": "C2",
            "ticks": 15475,
            "time": 75.85780520833333,
            "velocity": 0.6535433070866141
          },
          {
            "duration": 0.0784313333333273,
            "durationTicks": 16,
            "midi": 44,
            "name": "G#2",
            "ticks": 15476,
            "time": 75.86270716666667,
            "velocity": 0.6535433070866141
          },
          {
            "duration": 0.024509791666673664,
            "durationTicks": 5,
            "midi": 39,
            "name": "D#2",
            "ticks": 15476,
            "time": 75.86270716666667,
            "velocity": 0.6141732283464567
          },
          {
            "duration": 0.06862741666665784,
            "durationTicks": 14,
            "midi": 44,
            "name": "G#2",
            "ticks": 15506,
            "time": 76.00976591666668,
            "velocity": 0.6535433070866141
          },
          {
            "duration": 0.06862741666665784,
            "durationTicks": 14,
            "midi": 39,
            "name": "D#2",
            "ticks": 15506,
            "time": 76.00976591666668,
            "velocity": 0.4566929133858268
          },
          {
            "duration": 0.024509791666645242,
            "durationTicks": 5,
            "midi": 61,
            "name": "C#4",
            "ticks": 15510,
            "time": 76.02937375000002,
            "velocity": 1
          },
          {
            "duration": 0.12745091666667463,
            "durationTicks": 26,
            "midi": 40,
            "name": "E2",
            "ticks": 15536,
            "time": 76.15682466666667,
            "velocity": 0.6535433070866141
          },
          {
            "duration": 0.08823524999999677,
            "durationTicks": 18,
            "midi": 44,
            "name": "G#2",
            "ticks": 15536,
            "time": 76.15682466666667,
            "velocity": 0.6535433070866141
          },
          {
            "duration": 0.044117625000012595,
            "durationTicks": 9,
            "midi": 39,
            "name": "D#2",
            "ticks": 15536,
            "time": 76.15682466666667,
            "velocity": 0.9763779527559056
          },
          {
            "duration": 0.01960783333333893,
            "durationTicks": 4,
            "midi": 62,
            "name": "D4",
            "ticks": 15540,
            "time": 76.1764325,
            "velocity": 0.5905511811023622
          },
          {
            "duration": 0.06862741666665784,
            "durationTicks": 14,
            "midi": 44,
            "name": "G#2",
            "ticks": 15566,
            "time": 76.30388341666668,
            "velocity": 0.6535433070866141
          },
          {
            "duration": 0.11274504166664201,
            "durationTicks": 23,
            "midi": 45,
            "name": "A2",
            "ticks": 15594,
            "time": 76.44113825000002,
            "velocity": 0.6535433070866141
          },
          {
            "duration": 0.0931372083333315,
            "durationTicks": 19,
            "midi": 35,
            "name": "B1",
            "ticks": 15594,
            "time": 76.44113825000002,
            "velocity": 0.6535433070866141
          },
          {
            "duration": 0.2941174999999987,
            "durationTicks": 60,
            "midi": 36,
            "name": "C2",
            "ticks": 15595,
            "time": 76.44604020833333,
            "velocity": 0.6535433070866141
          },
          {
            "duration": 0.07352937500002099,
            "durationTicks": 15,
            "midi": 44,
            "name": "G#2",
            "ticks": 15596,
            "time": 76.45094216666666,
            "velocity": 0.6535433070866141
          },
          {
            "duration": 0.05392154166668206,
            "durationTicks": 11,
            "midi": 62,
            "name": "D4",
            "ticks": 15600,
            "time": 76.47055,
            "velocity": 1
          },
          {
            "duration": 0.0637254583333231,
            "durationTicks": 13,
            "midi": 44,
            "name": "G#2",
            "ticks": 15626,
            "time": 76.59800091666668,
            "velocity": 0.6535433070866141
          },
          {
            "duration": 0.07843133333335572,
            "durationTicks": 16,
            "midi": 44,
            "name": "G#2",
            "ticks": 15656,
            "time": 76.74505966666666,
            "velocity": 0.6535433070866141
          },
          {
            "duration": 0.05392154166668206,
            "durationTicks": 11,
            "midi": 39,
            "name": "D#2",
            "ticks": 15656,
            "time": 76.74505966666666,
            "velocity": 0.8267716535433071
          },
          {
            "duration": 0.09803916666666623,
            "durationTicks": 20,
            "midi": 40,
            "name": "E2",
            "ticks": 15686,
            "time": 76.89211841666668,
            "velocity": 0.6535433070866141
          },
          {
            "duration": 0.0637254583333231,
            "durationTicks": 13,
            "midi": 44,
            "name": "G#2",
            "ticks": 15686,
            "time": 76.89211841666668,
            "velocity": 0.6535433070866141
          },
          {
            "duration": 0.0784313333333273,
            "durationTicks": 16,
            "midi": 39,
            "name": "D#2",
            "ticks": 15686,
            "time": 76.89211841666668,
            "velocity": 0.48031496062992124
          },
          {
            "duration": 0.01960783333333893,
            "durationTicks": 4,
            "midi": 63,
            "name": "D#4",
            "ticks": 15690,
            "time": 76.91172625000002,
            "velocity": 0.905511811023622
          },
          {
            "duration": 0.2941174999999987,
            "durationTicks": 60,
            "midi": 36,
            "name": "C2",
            "ticks": 15715,
            "time": 77.03427520833333,
            "velocity": 0.6535433070866141
          },
          {
            "duration": 0.0784313333333273,
            "durationTicks": 16,
            "midi": 44,
            "name": "G#2",
            "ticks": 15716,
            "time": 77.03917716666669,
            "velocity": 0.6535433070866141
          },
          {
            "duration": 0.0637254583333231,
            "durationTicks": 13,
            "midi": 44,
            "name": "G#2",
            "ticks": 15746,
            "time": 77.18623591666667,
            "velocity": 0.6535433070866141
          },
          {
            "duration": 0.12254895833331148,
            "durationTicks": 25,
            "midi": 40,
            "name": "E2",
            "ticks": 15776,
            "time": 77.33329466666669,
            "velocity": 0.6535433070866141
          },
          {
            "duration": 0.0784313333333273,
            "durationTicks": 16,
            "midi": 44,
            "name": "G#2",
            "ticks": 15776,
            "time": 77.33329466666669,
            "velocity": 0.6535433070866141
          },
          {
            "duration": 0.05392154166665364,
            "durationTicks": 11,
            "midi": 39,
            "name": "D#2",
            "ticks": 15776,
            "time": 77.33329466666669,
            "velocity": 0.9763779527559056
          },
          {
            "duration": 0.03431370833334313,
            "durationTicks": 7,
            "midi": 64,
            "name": "E4",
            "ticks": 15780,
            "time": 77.3529025,
            "velocity": 1
          },
          {
            "duration": 0.06862741666665784,
            "durationTicks": 14,
            "midi": 44,
            "name": "G#2",
            "ticks": 15806,
            "time": 77.48035341666667,
            "velocity": 0.6535433070866141
          },
          {
            "duration": 0.09803916666666623,
            "durationTicks": 20,
            "midi": 45,
            "name": "A2",
            "ticks": 15834,
            "time": 77.61760825000002,
            "velocity": 0.6535433070866141
          },
          {
            "duration": 0.09803916666666623,
            "durationTicks": 20,
            "midi": 35,
            "name": "B1",
            "ticks": 15834,
            "time": 77.61760825000002,
            "velocity": 0.6535433070866141
          },
          {
            "duration": 0.2941174999999987,
            "durationTicks": 60,
            "midi": 36,
            "name": "C2",
            "ticks": 15835,
            "time": 77.62251020833335,
            "velocity": 0.6535433070866141
          },
          {
            "duration": 0.08823524999999677,
            "durationTicks": 18,
            "midi": 49,
            "name": "C#3",
            "ticks": 15836,
            "time": 77.62741216666669,
            "velocity": 0.6535433070866141
          },
          {
            "duration": 0.05392154166665364,
            "durationTicks": 11,
            "midi": 39,
            "name": "D#2",
            "ticks": 15836,
            "time": 77.62741216666669,
            "velocity": 0.8267716535433071
          },
          {
            "duration": 0.01960783333333893,
            "durationTicks": 4,
            "midi": 62,
            "name": "D4",
            "ticks": 15840,
            "time": 77.64702,
            "velocity": 0.5354330708661418
          },
          {
            "duration": 0.06372545833335153,
            "durationTicks": 13,
            "midi": 44,
            "name": "G#2",
            "ticks": 15866,
            "time": 77.77447091666667,
            "velocity": 0.6535433070866141
          },
          {
            "duration": 0.029411750000008396,
            "durationTicks": 6,
            "midi": 61,
            "name": "C#4",
            "ticks": 15870,
            "time": 77.79407875000001,
            "velocity": 0.905511811023622
          },
          {
            "duration": 0.08333329166666203,
            "durationTicks": 17,
            "midi": 44,
            "name": "G#2",
            "ticks": 15896,
            "time": 77.92152966666669,
            "velocity": 0.6535433070866141
          },
          {
            "duration": 0.01960783333331051,
            "durationTicks": 4,
            "midi": 39,
            "name": "D#2",
            "ticks": 15896,
            "time": 77.92152966666669,
            "velocity": 0.6771653543307087
          },
          {
            "duration": 0.03921566666667786,
            "durationTicks": 8,
            "midi": 62,
            "name": "D4",
            "ticks": 15900,
            "time": 77.9411375,
            "velocity": 1
          },
          {
            "duration": 0.11274504166667043,
            "durationTicks": 23,
            "midi": 40,
            "name": "E2",
            "ticks": 15926,
            "time": 78.06858841666667,
            "velocity": 0.6535433070866141
          },
          {
            "duration": 0.06862741666665784,
            "durationTicks": 14,
            "midi": 44,
            "name": "G#2",
            "ticks": 15926,
            "time": 78.06858841666667,
            "velocity": 0.6535433070866141
          },
          {
            "duration": 0.0784313333333273,
            "durationTicks": 16,
            "midi": 39,
            "name": "D#2",
            "ticks": 15926,
            "time": 78.06858841666667,
            "velocity": 0.7795275590551181
          },
          {
            "duration": 0.07352937499999257,
            "durationTicks": 15,
            "midi": 42,
            "name": "F#2",
            "ticks": 15928,
            "time": 78.07839233333334,
            "velocity": 0.6535433070866141
          },
          {
            "duration": 0.07352937499999257,
            "durationTicks": 15,
            "midi": 30,
            "name": "F#1",
            "ticks": 15928,
            "time": 78.07839233333334,
            "velocity": 0.5590551181102362
          },
          {
            "duration": 0.03921566666664944,
            "durationTicks": 8,
            "midi": 60,
            "name": "C4",
            "ticks": 15930,
            "time": 78.08819625000001,
            "velocity": 0.6614173228346457
          },
          {
            "duration": 0.2941174999999987,
            "durationTicks": 60,
            "midi": 36,
            "name": "C2",
            "ticks": 15955,
            "time": 78.21074520833335,
            "velocity": 0.6535433070866141
          },
          {
            "duration": 0.0784313333333273,
            "durationTicks": 16,
            "midi": 44,
            "name": "G#2",
            "ticks": 15956,
            "time": 78.21564716666668,
            "velocity": 0.6535433070866141
          },
          {
            "duration": 0.05392154166668206,
            "durationTicks": 11,
            "midi": 44,
            "name": "G#2",
            "ticks": 15986,
            "time": 78.36270591666667,
            "velocity": 0.6535433070866141
          },
          {
            "duration": 0.05392154166668206,
            "durationTicks": 11,
            "midi": 39,
            "name": "D#2",
            "ticks": 15986,
            "time": 78.36270591666667,
            "velocity": 0.5196850393700787
          },
          {
            "duration": 0.12254895833331148,
            "durationTicks": 25,
            "midi": 40,
            "name": "E2",
            "ticks": 16016,
            "time": 78.50976466666668,
            "velocity": 0.6535433070866141
          },
          {
            "duration": 0.0784313333333273,
            "durationTicks": 16,
            "midi": 44,
            "name": "G#2",
            "ticks": 16016,
            "time": 78.50976466666668,
            "velocity": 0.6535433070866141
          },
          {
            "duration": 0.049019583333318906,
            "durationTicks": 10,
            "midi": 39,
            "name": "D#2",
            "ticks": 16016,
            "time": 78.50976466666668,
            "velocity": 0.9763779527559056
          },
          {
            "duration": 0.14705874999998514,
            "durationTicks": 30,
            "midi": 42,
            "name": "F#2",
            "ticks": 16018,
            "time": 78.51956858333335,
            "velocity": 0.6535433070866141
          },
          {
            "duration": 0.15196070833331987,
            "durationTicks": 31,
            "midi": 30,
            "name": "F#1",
            "ticks": 16018,
            "time": 78.51956858333335,
            "velocity": 0.5590551181102362
          },
          {
            "duration": 0.04411762499998417,
            "durationTicks": 9,
            "midi": 64,
            "name": "E4",
            "ticks": 16020,
            "time": 78.52937250000002,
            "velocity": 1
          },
          {
            "duration": 0.06862741666665784,
            "durationTicks": 14,
            "midi": 44,
            "name": "G#2",
            "ticks": 16046,
            "time": 78.65682341666667,
            "velocity": 0.6535433070866141
          },
          {
            "duration": 0.12745091666667463,
            "durationTicks": 26,
            "midi": 45,
            "name": "A2",
            "ticks": 16074,
            "time": 78.79407825000001,
            "velocity": 0.6535433070866141
          },
          {
            "duration": 0.11274504166667043,
            "durationTicks": 23,
            "midi": 35,
            "name": "B1",
            "ticks": 16074,
            "time": 78.79407825000001,
            "velocity": 0.6535433070866141
          },
          {
            "duration": 0.2941174999999987,
            "durationTicks": 60,
            "midi": 36,
            "name": "C2",
            "ticks": 16075,
            "time": 78.79898020833335,
            "velocity": 0.6535433070866141
          },
          {
            "duration": 0.08333329166666203,
            "durationTicks": 17,
            "midi": 44,
            "name": "G#2",
            "ticks": 16076,
            "time": 78.80388216666668,
            "velocity": 0.6535433070866141
          },
          {
            "duration": 0.024509791666673664,
            "durationTicks": 5,
            "midi": 39,
            "name": "D#2",
            "ticks": 16076,
            "time": 78.80388216666668,
            "velocity": 0.6062992125984252
          },
          {
            "duration": 0.04411762499998417,
            "durationTicks": 9,
            "midi": 62,
            "name": "D4",
            "ticks": 16080,
            "time": 78.82349000000002,
            "velocity": 1
          },
          {
            "duration": 0.06372545833335153,
            "durationTicks": 13,
            "midi": 44,
            "name": "G#2",
            "ticks": 16106,
            "time": 78.95094091666667,
            "velocity": 0.6535433070866141
          },
          {
            "duration": 0.044117625000012595,
            "durationTicks": 9,
            "midi": 60,
            "name": "C4",
            "ticks": 16110,
            "time": 78.97054875,
            "velocity": 0.905511811023622
          },
          {
            "duration": 0.05882349999998837,
            "durationTicks": 12,
            "midi": 44,
            "name": "G#2",
            "ticks": 16136,
            "time": 79.09799966666668,
            "velocity": 0.6535433070866141
          },
          {
            "duration": 0.04411762499998417,
            "durationTicks": 9,
            "midi": 39,
            "name": "D#2",
            "ticks": 16136,
            "time": 79.09799966666668,
            "velocity": 0.905511811023622
          },
          {
            "duration": 0.08333329166666203,
            "durationTicks": 17,
            "midi": 44,
            "name": "G#2",
            "ticks": 16138,
            "time": 79.10780358333335,
            "velocity": 0.6535433070866141
          },
          {
            "duration": 0.049019583333318906,
            "durationTicks": 10,
            "midi": 32,
            "name": "G#1",
            "ticks": 16138,
            "time": 79.10780358333335,
            "velocity": 0.5590551181102362
          },
          {
            "duration": 0.1225489583333399,
            "durationTicks": 25,
            "midi": 40,
            "name": "E2",
            "ticks": 16166,
            "time": 79.24505841666667,
            "velocity": 0.6535433070866141
          },
          {
            "duration": 0.06372545833335153,
            "durationTicks": 13,
            "midi": 44,
            "name": "G#2",
            "ticks": 16166,
            "time": 79.24505841666667,
            "velocity": 0.6535433070866141
          },
          {
            "duration": 0.0784313333333273,
            "durationTicks": 16,
            "midi": 39,
            "name": "D#2",
            "ticks": 16166,
            "time": 79.24505841666667,
            "velocity": 0.5826771653543307
          },
          {
            "duration": 0.07352937500002099,
            "durationTicks": 15,
            "midi": 44,
            "name": "G#2",
            "ticks": 16168,
            "time": 79.25486233333334,
            "velocity": 0.6535433070866141
          },
          {
            "duration": 0.07352937500002099,
            "durationTicks": 15,
            "midi": 32,
            "name": "G#1",
            "ticks": 16168,
            "time": 79.25486233333334,
            "velocity": 0.5590551181102362
          },
          {
            "duration": 0.03921566666667786,
            "durationTicks": 8,
            "midi": 61,
            "name": "C#4",
            "ticks": 16170,
            "time": 79.26466625,
            "velocity": 0.9763779527559056
          },
          {
            "duration": 0.2941174999999987,
            "durationTicks": 60,
            "midi": 36,
            "name": "C2",
            "ticks": 16195,
            "time": 79.38721520833334,
            "velocity": 0.6535433070866141
          },
          {
            "duration": 0.08823524999999677,
            "durationTicks": 18,
            "midi": 44,
            "name": "G#2",
            "ticks": 16196,
            "time": 79.39211716666668,
            "velocity": 0.6535433070866141
          },
          {
            "duration": 0.07352937500002099,
            "durationTicks": 15,
            "midi": 44,
            "name": "G#2",
            "ticks": 16226,
            "time": 79.53917591666666,
            "velocity": 0.6535433070866141
          },
          {
            "duration": 0.06372545833335153,
            "durationTicks": 13,
            "midi": 44,
            "name": "G#2",
            "ticks": 16228,
            "time": 79.54897983333333,
            "velocity": 0.6535433070866141
          },
          {
            "duration": 0.06372545833335153,
            "durationTicks": 13,
            "midi": 32,
            "name": "G#1",
            "ticks": 16228,
            "time": 79.54897983333333,
            "velocity": 0.5590551181102362
          },
          {
            "duration": 0.04901958333334733,
            "durationTicks": 10,
            "midi": 63,
            "name": "D#4",
            "ticks": 16230,
            "time": 79.55878375,
            "velocity": 0.9763779527559056
          },
          {
            "duration": 0.12745091666667463,
            "durationTicks": 26,
            "midi": 40,
            "name": "E2",
            "ticks": 16256,
            "time": 79.68623466666668,
            "velocity": 0.6535433070866141
          },
          {
            "duration": 0.08823524999999677,
            "durationTicks": 18,
            "midi": 44,
            "name": "G#2",
            "ticks": 16256,
            "time": 79.68623466666668,
            "velocity": 0.6535433070866141
          },
          {
            "duration": 0.05882349999998837,
            "durationTicks": 12,
            "midi": 39,
            "name": "D#2",
            "ticks": 16256,
            "time": 79.68623466666668,
            "velocity": 0.7795275590551181
          },
          {
            "duration": 0.186274416666663,
            "durationTicks": 38,
            "midi": 44,
            "name": "G#2",
            "ticks": 16258,
            "time": 79.69603858333335,
            "velocity": 0.6535433070866141
          },
          {
            "duration": 0.186274416666663,
            "durationTicks": 38,
            "midi": 32,
            "name": "G#1",
            "ticks": 16258,
            "time": 79.69603858333335,
            "velocity": 0.5590551181102362
          },
          {
            "duration": 0.05392154166665364,
            "durationTicks": 11,
            "midi": 62,
            "name": "D4",
            "ticks": 16260,
            "time": 79.70584250000002,
            "velocity": 1
          },
          {
            "duration": 0.06372545833335153,
            "durationTicks": 13,
            "midi": 44,
            "name": "G#2",
            "ticks": 16286,
            "time": 79.83329341666666,
            "velocity": 0.6535433070866141
          },
          {
            "duration": 0.11764700000000516,
            "durationTicks": 24,
            "midi": 45,
            "name": "A2",
            "ticks": 16314,
            "time": 79.97054825000001,
            "velocity": 0.6535433070866141
          },
          {
            "duration": 0.09803916666666623,
            "durationTicks": 20,
            "midi": 35,
            "name": "B1",
            "ticks": 16314,
            "time": 79.97054825000001,
            "velocity": 0.6535433070866141
          },
          {
            "duration": 0.2941174999999987,
            "durationTicks": 60,
            "midi": 36,
            "name": "C2",
            "ticks": 16315,
            "time": 79.97545020833334,
            "velocity": 0.6535433070866141
          },
          {
            "duration": 0.0931372083333315,
            "durationTicks": 19,
            "midi": 44,
            "name": "G#2",
            "ticks": 16316,
            "time": 79.98035216666668,
            "velocity": 0.6535433070866141
          },
          {
            "duration": 0.029411750000008396,
            "durationTicks": 6,
            "midi": 62,
            "name": "D4",
            "ticks": 16320,
            "time": 79.99996000000002,
            "velocity": 0.8503937007874016
          },
          {
            "duration": 0.0784313333333273,
            "durationTicks": 16,
            "midi": 44,
            "name": "G#2",
            "ticks": 16376,
            "time": 80.27446966666668,
            "velocity": 0.6535433070866141
          },
          {
            "duration": 0.04901958333334733,
            "durationTicks": 10,
            "midi": 39,
            "name": "D#2",
            "ticks": 16376,
            "time": 80.27446966666668,
            "velocity": 0.8503937007874016
          },
          {
            "duration": 0.01960783333333893,
            "durationTicks": 4,
            "midi": 62,
            "name": "D4",
            "ticks": 16380,
            "time": 80.29407750000001,
            "velocity": 0.8267716535433071
          },
          {
            "duration": 0.10294112500000097,
            "durationTicks": 21,
            "midi": 40,
            "name": "E2",
            "ticks": 16406,
            "time": 80.42152841666669,
            "velocity": 0.6535433070866141
          },
          {
            "duration": 0.08823524999999677,
            "durationTicks": 18,
            "midi": 39,
            "name": "D#2",
            "ticks": 16406,
            "time": 80.42152841666669,
            "velocity": 0.5275590551181102
          },
          {
            "duration": 0.024509791666673664,
            "durationTicks": 5,
            "midi": 60,
            "name": "C4",
            "ticks": 16410,
            "time": 80.44113625,
            "velocity": 0.7244094488188977
          },
          {
            "duration": 0.07352937499999257,
            "durationTicks": 15,
            "midi": 35,
            "name": "B1",
            "ticks": 16434,
            "time": 80.55878325,
            "velocity": 0.6535433070866141
          },
          {
            "duration": 0.07352937499999257,
            "durationTicks": 15,
            "midi": 45,
            "name": "A2",
            "ticks": 16434,
            "time": 80.55878325,
            "velocity": 0.6535433070866141
          },
          {
            "duration": 0.2941174999999987,
            "durationTicks": 60,
            "midi": 36,
            "name": "C2",
            "ticks": 16435,
            "time": 80.56368520833334,
            "velocity": 0.6535433070866141
          },
          {
            "duration": 0.0784313333333273,
            "durationTicks": 16,
            "midi": 44,
            "name": "G#2",
            "ticks": 16436,
            "time": 80.56858716666667,
            "velocity": 0.6535433070866141
          },
          {
            "duration": 0.04901958333334733,
            "durationTicks": 10,
            "midi": 62,
            "name": "D4",
            "ticks": 16440,
            "time": 80.58819500000001,
            "velocity": 1
          },
          {
            "duration": 0.07352937499999257,
            "durationTicks": 15,
            "midi": 35,
            "name": "B1",
            "ticks": 16494,
            "time": 80.85290075,
            "velocity": 0.6535433070866141
          },
          {
            "duration": 0.07352937499999257,
            "durationTicks": 15,
            "midi": 45,
            "name": "A2",
            "ticks": 16494,
            "time": 80.85290075,
            "velocity": 0.6535433070866141
          },
          {
            "duration": 0.0784313333333273,
            "durationTicks": 16,
            "midi": 44,
            "name": "G#2",
            "ticks": 16496,
            "time": 80.86270466666667,
            "velocity": 0.6535433070866141
          },
          {
            "duration": 0.05882349999998837,
            "durationTicks": 12,
            "midi": 39,
            "name": "D#2",
            "ticks": 16496,
            "time": 80.86270466666667,
            "velocity": 0.8031496062992126
          },
          {
            "duration": 0.029411750000008396,
            "durationTicks": 6,
            "midi": 62,
            "name": "D4",
            "ticks": 16500,
            "time": 80.88231250000001,
            "velocity": 0.8503937007874016
          },
          {
            "duration": 0.029411750000008396,
            "durationTicks": 6,
            "midi": 60,
            "name": "C4",
            "ticks": 16530,
            "time": 81.02937125,
            "velocity": 0.6220472440944882
          },
          {
            "duration": 0.09803916666666623,
            "durationTicks": 20,
            "midi": 45,
            "name": "A2",
            "ticks": 16554,
            "time": 81.14701825,
            "velocity": 0.6535433070866141
          },
          {
            "duration": 0.10294112500000097,
            "durationTicks": 21,
            "midi": 35,
            "name": "B1",
            "ticks": 16554,
            "time": 81.14701825,
            "velocity": 0.6535433070866141
          },
          {
            "duration": 0.04901958333334733,
            "durationTicks": 10,
            "midi": 62,
            "name": "D4",
            "ticks": 16560,
            "time": 81.17643000000001,
            "velocity": 1
          },
          {
            "duration": 0.09803916666666623,
            "durationTicks": 20,
            "midi": 45,
            "name": "A2",
            "ticks": 16614,
            "time": 81.44113575,
            "velocity": 0.6535433070866141
          },
          {
            "duration": 0.08823524999999677,
            "durationTicks": 18,
            "midi": 35,
            "name": "B1",
            "ticks": 16614,
            "time": 81.44113575,
            "velocity": 0.6535433070866141
          },
          {
            "duration": 0.04411762499998417,
            "durationTicks": 9,
            "midi": 62,
            "name": "D4",
            "ticks": 16620,
            "time": 81.47054750000001,
            "velocity": 0.937007874015748
          },
          {
            "duration": 0.029411749999979975,
            "durationTicks": 6,
            "midi": 60,
            "name": "C4",
            "ticks": 16650,
            "time": 81.61760625000002,
            "velocity": 0.6614173228346457
          },
          {
            "duration": 0.11764700000000516,
            "durationTicks": 24,
            "midi": 45,
            "name": "A2",
            "ticks": 16674,
            "time": 81.73525325,
            "velocity": 0.6535433070866141
          },
          {
            "duration": 0.0931372083333315,
            "durationTicks": 19,
            "midi": 35,
            "name": "B1",
            "ticks": 16674,
            "time": 81.73525325,
            "velocity": 0.6535433070866141
          },
          {
            "duration": 0.03921566666667786,
            "durationTicks": 8,
            "midi": 62,
            "name": "D4",
            "ticks": 16680,
            "time": 81.76466500000001,
            "velocity": 0.8031496062992126
          },
          {
            "duration": 0.0931372083333315,
            "durationTicks": 19,
            "midi": 45,
            "name": "A2",
            "ticks": 16734,
            "time": 82.02937075,
            "velocity": 0.6535433070866141
          },
          {
            "duration": 0.0931372083333315,
            "durationTicks": 19,
            "midi": 35,
            "name": "B1",
            "ticks": 16734,
            "time": 82.02937075,
            "velocity": 0.6535433070866141
          },
          {
            "duration": 0.1078430833333357,
            "durationTicks": 22,
            "midi": 45,
            "name": "A2",
            "ticks": 16794,
            "time": 82.32348825,
            "velocity": 0.6535433070866141
          },
          {
            "duration": 0.09803916666669465,
            "durationTicks": 20,
            "midi": 35,
            "name": "B1",
            "ticks": 16794,
            "time": 82.32348825,
            "velocity": 0.6535433070866141
          },
          {
            "duration": 0.2941174999999987,
            "durationTicks": 60,
            "midi": 36,
            "name": "C2",
            "ticks": 16795,
            "time": 82.32839020833336,
            "velocity": 0.6535433070866141
          },
          {
            "duration": 0.11764700000000516,
            "durationTicks": 24,
            "midi": 57,
            "name": "A3",
            "ticks": 16796,
            "time": 82.33329216666667,
            "velocity": 0.6535433070866141
          },
          {
            "duration": 0.04411762499998417,
            "durationTicks": 9,
            "midi": 62,
            "name": "D4",
            "ticks": 16800,
            "time": 82.3529,
            "velocity": 1
          },
          {
            "duration": 0.0784313333333273,
            "durationTicks": 16,
            "midi": 44,
            "name": "G#2",
            "ticks": 16856,
            "time": 82.62740966666667,
            "velocity": 0.6535433070866141
          },
          {
            "duration": 0.05392154166668206,
            "durationTicks": 11,
            "midi": 39,
            "name": "D#2",
            "ticks": 16856,
            "time": 82.62740966666667,
            "velocity": 0.6377952755905512
          },
          {
            "duration": 0.03921566666667786,
            "durationTicks": 8,
            "midi": 62,
            "name": "D4",
            "ticks": 16860,
            "time": 82.6470175,
            "velocity": 0.8818897637795275
          },
          {
            "duration": 0.09803916666666623,
            "durationTicks": 20,
            "midi": 40,
            "name": "E2",
            "ticks": 16886,
            "time": 82.77446841666668,
            "velocity": 0.6535433070866141
          },
          {
            "duration": 0.07352937499999257,
            "durationTicks": 15,
            "midi": 44,
            "name": "G#2",
            "ticks": 16886,
            "time": 82.77446841666668,
            "velocity": 0.6535433070866141
          },
          {
            "duration": 0.0784313333333273,
            "durationTicks": 16,
            "midi": 39,
            "name": "D#2",
            "ticks": 16886,
            "time": 82.77446841666668,
            "velocity": 0.4330708661417323
          },
          {
            "duration": 0.0931372083333315,
            "durationTicks": 19,
            "midi": 46,
            "name": "A#2",
            "ticks": 16888,
            "time": 82.78427233333335,
            "velocity": 0.6535433070866141
          },
          {
            "duration": 0.0931372083333315,
            "durationTicks": 19,
            "midi": 34,
            "name": "A#1",
            "ticks": 16888,
            "time": 82.78427233333335,
            "velocity": 0.5590551181102362
          },
          {
            "duration": 0.05882349999998837,
            "durationTicks": 12,
            "midi": 60,
            "name": "C4",
            "ticks": 16890,
            "time": 82.79407625000002,
            "velocity": 0.8818897637795275
          },
          {
            "duration": 0.2941174999999987,
            "durationTicks": 60,
            "midi": 36,
            "name": "C2",
            "ticks": 16915,
            "time": 82.91662520833336,
            "velocity": 0.6535433070866141
          },
          {
            "duration": 0.07352937500002099,
            "durationTicks": 15,
            "midi": 44,
            "name": "G#2",
            "ticks": 16916,
            "time": 82.92152716666666,
            "velocity": 0.6535433070866141
          },
          {
            "duration": 0.06862741666665784,
            "durationTicks": 14,
            "midi": 44,
            "name": "G#2",
            "ticks": 16946,
            "time": 83.06858591666668,
            "velocity": 0.6535433070866141
          },
          {
            "duration": 0.06862741666665784,
            "durationTicks": 14,
            "midi": 46,
            "name": "A#2",
            "ticks": 16948,
            "time": 83.07838983333335,
            "velocity": 0.6535433070866141
          },
          {
            "duration": 0.06862741666665784,
            "durationTicks": 14,
            "midi": 34,
            "name": "A#1",
            "ticks": 16948,
            "time": 83.07838983333335,
            "velocity": 0.5590551181102362
          },
          {
            "duration": 0.049019583333318906,
            "durationTicks": 10,
            "midi": 61,
            "name": "C#4",
            "ticks": 16950,
            "time": 83.08819375000002,
            "velocity": 1
          },
          {
            "duration": 0.12254895833331148,
            "durationTicks": 25,
            "midi": 40,
            "name": "E2",
            "ticks": 16976,
            "time": 83.21564466666669,
            "velocity": 0.6535433070866141
          },
          {
            "duration": 0.08823524999999677,
            "durationTicks": 18,
            "midi": 44,
            "name": "G#2",
            "ticks": 16976,
            "time": 83.21564466666669,
            "velocity": 0.6535433070866141
          },
          {
            "duration": 0.07352937499999257,
            "durationTicks": 15,
            "midi": 39,
            "name": "D#2",
            "ticks": 16976,
            "time": 83.21564466666669,
            "velocity": 0.8031496062992126
          },
          {
            "duration": 0.19607833333333247,
            "durationTicks": 40,
            "midi": 46,
            "name": "A#2",
            "ticks": 16978,
            "time": 83.22544858333333,
            "velocity": 0.6535433070866141
          },
          {
            "duration": 0.19117637500002616,
            "durationTicks": 39,
            "midi": 34,
            "name": "A#1",
            "ticks": 16978,
            "time": 83.22544858333333,
            "velocity": 0.5590551181102362
          },
          {
            "duration": 0.044117625000012595,
            "durationTicks": 9,
            "midi": 64,
            "name": "E4",
            "ticks": 16980,
            "time": 83.2352525,
            "velocity": 1
          },
          {
            "duration": 0.06862741666665784,
            "durationTicks": 14,
            "midi": 44,
            "name": "G#2",
            "ticks": 17006,
            "time": 83.36270341666668,
            "velocity": 0.6535433070866141
          },
          {
            "duration": 0.1372548333333441,
            "durationTicks": 28,
            "midi": 45,
            "name": "A2",
            "ticks": 17034,
            "time": 83.49995824999999,
            "velocity": 0.6535433070866141
          },
          {
            "duration": 0.09803916666669465,
            "durationTicks": 20,
            "midi": 35,
            "name": "B1",
            "ticks": 17034,
            "time": 83.49995824999999,
            "velocity": 0.6535433070866141
          },
          {
            "duration": 0.2941174999999987,
            "durationTicks": 60,
            "midi": 36,
            "name": "C2",
            "ticks": 17035,
            "time": 83.50486020833335,
            "velocity": 0.6535433070866141
          },
          {
            "duration": 0.0931372083333315,
            "durationTicks": 19,
            "midi": 44,
            "name": "G#2",
            "ticks": 17036,
            "time": 83.50976216666669,
            "velocity": 0.6535433070866141
          },
          {
            "duration": 0.044117625000012595,
            "durationTicks": 9,
            "midi": 62,
            "name": "D4",
            "ticks": 17040,
            "time": 83.52937,
            "velocity": 1
          },
          {
            "duration": 0.05392154166668206,
            "durationTicks": 11,
            "midi": 44,
            "name": "G#2",
            "ticks": 17066,
            "time": 83.65682091666667,
            "velocity": 0.6535433070866141
          },
          {
            "duration": 0.0784313333333273,
            "durationTicks": 16,
            "midi": 44,
            "name": "G#2",
            "ticks": 17096,
            "time": 83.80387966666669,
            "velocity": 0.6535433070866141
          },
          {
            "duration": 0.06862741666665784,
            "durationTicks": 14,
            "midi": 39,
            "name": "D#2",
            "ticks": 17096,
            "time": 83.80387966666669,
            "velocity": 0.7244094488188977
          },
          {
            "duration": 0.10294112500000097,
            "durationTicks": 21,
            "midi": 40,
            "name": "E2",
            "ticks": 17126,
            "time": 83.95093841666667,
            "velocity": 0.6535433070866141
          },
          {
            "duration": 0.07352937499999257,
            "durationTicks": 15,
            "midi": 44,
            "name": "G#2",
            "ticks": 17126,
            "time": 83.95093841666667,
            "velocity": 0.6535433070866141
          },
          {
            "duration": 0.0931372083333315,
            "durationTicks": 19,
            "midi": 39,
            "name": "D#2",
            "ticks": 17126,
            "time": 83.95093841666667,
            "velocity": 0.3858267716535433
          },
          {
            "duration": 0.07352937499999257,
            "durationTicks": 15,
            "midi": 42,
            "name": "F#2",
            "ticks": 17128,
            "time": 83.96074233333334,
            "velocity": 0.6535433070866141
          },
          {
            "duration": 0.07352937499999257,
            "durationTicks": 15,
            "midi": 30,
            "name": "F#1",
            "ticks": 17128,
            "time": 83.96074233333334,
            "velocity": 0.5590551181102362
          },
          {
            "duration": 0.04901958333334733,
            "durationTicks": 10,
            "midi": 60,
            "name": "C4",
            "ticks": 17130,
            "time": 83.97054625000001,
            "velocity": 0.905511811023622
          },
          {
            "duration": 0.2941174999999987,
            "durationTicks": 60,
            "midi": 36,
            "name": "C2",
            "ticks": 17155,
            "time": 84.09309520833335,
            "velocity": 0.6535433070866141
          },
          {
            "duration": 0.06862741666665784,
            "durationTicks": 14,
            "midi": 44,
            "name": "G#2",
            "ticks": 17156,
            "time": 84.09799716666669,
            "velocity": 0.6535433070866141
          },
          {
            "duration": 0.049019583333318906,
            "durationTicks": 10,
            "midi": 39,
            "name": "D#2",
            "ticks": 17156,
            "time": 84.09799716666669,
            "velocity": 0.4645669291338583
          },
          {
            "duration": 0.06862741666668626,
            "durationTicks": 14,
            "midi": 44,
            "name": "G#2",
            "ticks": 17186,
            "time": 84.24505591666667,
            "velocity": 0.6535433070866141
          },
          {
            "duration": 0.03921566666667786,
            "durationTicks": 8,
            "midi": 42,
            "name": "F#2",
            "ticks": 17188,
            "time": 84.25485983333334,
            "velocity": 0.6535433070866141
          },
          {
            "duration": 0.03921566666667786,
            "durationTicks": 8,
            "midi": 30,
            "name": "F#1",
            "ticks": 17188,
            "time": 84.25485983333334,
            "velocity": 0.5590551181102362
          },
          {
            "duration": 0.029411750000008396,
            "durationTicks": 6,
            "midi": 61,
            "name": "C#4",
            "ticks": 17190,
            "time": 84.26466375000001,
            "velocity": 1
          },
          {
            "duration": 0.1274509166666462,
            "durationTicks": 26,
            "midi": 40,
            "name": "E2",
            "ticks": 17216,
            "time": 84.39211466666669,
            "velocity": 0.6535433070866141
          },
          {
            "duration": 0.0784313333333273,
            "durationTicks": 16,
            "midi": 44,
            "name": "G#2",
            "ticks": 17216,
            "time": 84.39211466666669,
            "velocity": 0.6535433070866141
          },
          {
            "duration": 0.07352937499999257,
            "durationTicks": 15,
            "midi": 39,
            "name": "D#2",
            "ticks": 17216,
            "time": 84.39211466666669,
            "velocity": 0.7795275590551181
          },
          {
            "duration": 0.1960783333333609,
            "durationTicks": 40,
            "midi": 42,
            "name": "F#2",
            "ticks": 17218,
            "time": 84.40191858333333,
            "velocity": 0.6535433070866141
          },
          {
            "duration": 0.1960783333333609,
            "durationTicks": 40,
            "midi": 30,
            "name": "F#1",
            "ticks": 17218,
            "time": 84.40191858333333,
            "velocity": 0.5590551181102362
          },
          {
            "duration": 0.044117625000012595,
            "durationTicks": 9,
            "midi": 64,
            "name": "E4",
            "ticks": 17220,
            "time": 84.4117225,
            "velocity": 1
          },
          {
            "duration": 0.05392154166668206,
            "durationTicks": 11,
            "midi": 44,
            "name": "G#2",
            "ticks": 17246,
            "time": 84.53917341666667,
            "velocity": 0.6535433070866141
          },
          {
            "duration": 0.2941174999999987,
            "durationTicks": 60,
            "midi": 36,
            "name": "C2",
            "ticks": 17275,
            "time": 84.68133020833335,
            "velocity": 0.6535433070866141
          },
          {
            "duration": 0.08823524999999677,
            "durationTicks": 18,
            "midi": 44,
            "name": "G#2",
            "ticks": 17276,
            "time": 84.68623216666668,
            "velocity": 0.6535433070866141
          },
          {
            "duration": 0.04411762499998417,
            "durationTicks": 9,
            "midi": 62,
            "name": "D4",
            "ticks": 17280,
            "time": 84.70584000000002,
            "velocity": 1
          },
          {
            "duration": 0.06862741666668626,
            "durationTicks": 14,
            "midi": 44,
            "name": "G#2",
            "ticks": 17306,
            "time": 84.83329091666667,
            "velocity": 0.6535433070866141
          },
          {
            "duration": 0.08823524999999677,
            "durationTicks": 18,
            "midi": 44,
            "name": "G#2",
            "ticks": 17336,
            "time": 84.98034966666668,
            "velocity": 0.6535433070866141
          },
          {
            "duration": 0.06862741666665784,
            "durationTicks": 14,
            "midi": 39,
            "name": "D#2",
            "ticks": 17336,
            "time": 84.98034966666668,
            "velocity": 0.6220472440944882
          },
          {
            "duration": 0.024509791666645242,
            "durationTicks": 5,
            "midi": 62,
            "name": "D4",
            "ticks": 17340,
            "time": 84.99995750000002,
            "velocity": 0.7637795275590551
          },
          {
            "duration": 0.11764700000000516,
            "durationTicks": 24,
            "midi": 40,
            "name": "E2",
            "ticks": 17366,
            "time": 85.12740841666667,
            "velocity": 0.6535433070866141
          },
          {
            "duration": 0.05392154166668206,
            "durationTicks": 11,
            "midi": 44,
            "name": "G#2",
            "ticks": 17366,
            "time": 85.12740841666667,
            "velocity": 0.6535433070866141
          },
          {
            "duration": 0.08823525000002519,
            "durationTicks": 18,
            "midi": 39,
            "name": "D#2",
            "ticks": 17366,
            "time": 85.12740841666667,
            "velocity": 0.48031496062992124
          },
          {
            "duration": 0.06372545833335153,
            "durationTicks": 13,
            "midi": 44,
            "name": "G#2",
            "ticks": 17368,
            "time": 85.13721233333334,
            "velocity": 0.6535433070866141
          },
          {
            "duration": 0.06372545833335153,
            "durationTicks": 13,
            "midi": 32,
            "name": "G#1",
            "ticks": 17368,
            "time": 85.13721233333334,
            "velocity": 0.5590551181102362
          },
          {
            "duration": 0.029411750000008396,
            "durationTicks": 6,
            "midi": 63,
            "name": "D#4",
            "ticks": 17370,
            "time": 85.14701625000001,
            "velocity": 1
          },
          {
            "duration": 0.2941174999999987,
            "durationTicks": 60,
            "midi": 36,
            "name": "C2",
            "ticks": 17395,
            "time": 85.26956520833335,
            "velocity": 0.6535433070866141
          },
          {
            "duration": 0.08823524999999677,
            "durationTicks": 18,
            "midi": 44,
            "name": "G#2",
            "ticks": 17396,
            "time": 85.27446716666668,
            "velocity": 0.6535433070866141
          },
          {
            "duration": 0.06862741666668626,
            "durationTicks": 14,
            "midi": 44,
            "name": "G#2",
            "ticks": 17426,
            "time": 85.42152591666667,
            "velocity": 0.6535433070866141
          },
          {
            "duration": 0.0637254583333231,
            "durationTicks": 13,
            "midi": 39,
            "name": "D#2",
            "ticks": 17426,
            "time": 85.42152591666667,
            "velocity": 0.4881889763779528
          },
          {
            "duration": 0.06372545833335153,
            "durationTicks": 13,
            "midi": 44,
            "name": "G#2",
            "ticks": 17428,
            "time": 85.43132983333334,
            "velocity": 0.6535433070866141
          },
          {
            "duration": 0.06372545833335153,
            "durationTicks": 13,
            "midi": 32,
            "name": "G#1",
            "ticks": 17428,
            "time": 85.43132983333334,
            "velocity": 0.5590551181102362
          },
          {
            "duration": 0.0637254583333231,
            "durationTicks": 13,
            "midi": 61,
            "name": "C#4",
            "ticks": 17430,
            "time": 85.44113375,
            "velocity": 1
          },
          {
            "duration": 0.12745091666667463,
            "durationTicks": 26,
            "midi": 40,
            "name": "E2",
            "ticks": 17456,
            "time": 85.56858466666668,
            "velocity": 0.6535433070866141
          },
          {
            "duration": 0.08823524999999677,
            "durationTicks": 18,
            "midi": 44,
            "name": "G#2",
            "ticks": 17456,
            "time": 85.56858466666668,
            "velocity": 0.6535433070866141
          },
          {
            "duration": 0.0637254583333231,
            "durationTicks": 13,
            "midi": 39,
            "name": "D#2",
            "ticks": 17456,
            "time": 85.56858466666668,
            "velocity": 0.7795275590551181
          },
          {
            "duration": 0.1960783333333609,
            "durationTicks": 40,
            "midi": 44,
            "name": "G#2",
            "ticks": 17458,
            "time": 85.57838858333332,
            "velocity": 0.6535433070866141
          },
          {
            "duration": 0.1960783333333609,
            "durationTicks": 40,
            "midi": 32,
            "name": "G#1",
            "ticks": 17458,
            "time": 85.57838858333332,
            "velocity": 0.5590551181102362
          },
          {
            "duration": 0.029411750000008396,
            "durationTicks": 6,
            "midi": 64,
            "name": "E4",
            "ticks": 17460,
            "time": 85.58819250000002,
            "velocity": 1
          },
          {
            "duration": 0.07352937500002099,
            "durationTicks": 15,
            "midi": 44,
            "name": "G#2",
            "ticks": 17486,
            "time": 85.71564341666667,
            "velocity": 0.6535433070866141
          },
          {
            "duration": 0.03921566666667786,
            "durationTicks": 8,
            "midi": 60,
            "name": "C4",
            "ticks": 17490,
            "time": 85.73525125,
            "velocity": 1
          },
          {
            "duration": 0.1372548333333441,
            "durationTicks": 28,
            "midi": 45,
            "name": "A2",
            "ticks": 17514,
            "time": 85.85289825000001,
            "velocity": 0.6535433070866141
          },
          {
            "duration": 0.09803916666666623,
            "durationTicks": 20,
            "midi": 35,
            "name": "B1",
            "ticks": 17514,
            "time": 85.85289825000001,
            "velocity": 0.6535433070866141
          },
          {
            "duration": 0.2941174999999987,
            "durationTicks": 60,
            "midi": 36,
            "name": "C2",
            "ticks": 17515,
            "time": 85.85780020833334,
            "velocity": 0.6535433070866141
          },
          {
            "duration": 0.0784313333333273,
            "durationTicks": 16,
            "midi": 44,
            "name": "G#2",
            "ticks": 17516,
            "time": 85.86270216666668,
            "velocity": 0.6535433070866141
          },
          {
            "duration": 0.024509791666645242,
            "durationTicks": 5,
            "midi": 62,
            "name": "D4",
            "ticks": 17520,
            "time": 85.88231000000002,
            "velocity": 0.5826771653543307
          },
          {
            "duration": 0.06372545833335153,
            "durationTicks": 13,
            "midi": 44,
            "name": "G#2",
            "ticks": 17546,
            "time": 86.00976091666666,
            "velocity": 0.6535433070866141
          },
          {
            "duration": 0.01960783333333893,
            "durationTicks": 4,
            "midi": 61,
            "name": "C#4",
            "ticks": 17550,
            "time": 86.02936875,
            "velocity": 1
          },
          {
            "duration": 0.08823524999999677,
            "durationTicks": 18,
            "midi": 44,
            "name": "G#2",
            "ticks": 17576,
            "time": 86.15681966666668,
            "velocity": 0.6535433070866141
          },
          {
            "duration": 0.05392154166665364,
            "durationTicks": 11,
            "midi": 39,
            "name": "D#2",
            "ticks": 17576,
            "time": 86.15681966666668,
            "velocity": 0.6220472440944882
          },
          {
            "duration": 0.11764700000000516,
            "durationTicks": 24,
            "midi": 40,
            "name": "E2",
            "ticks": 17606,
            "time": 86.30387841666666,
            "velocity": 0.6535433070866141
          },
          {
            "duration": 0.06862741666668626,
            "durationTicks": 14,
            "midi": 44,
            "name": "G#2",
            "ticks": 17606,
            "time": 86.30387841666666,
            "velocity": 0.6535433070866141
          },
          {
            "duration": 0.08823525000002519,
            "durationTicks": 18,
            "midi": 39,
            "name": "D#2",
            "ticks": 17606,
            "time": 86.30387841666666,
            "velocity": 0.5118110236220472
          },
          {
            "duration": 0.07352937499999257,
            "durationTicks": 15,
            "midi": 41,
            "name": "F2",
            "ticks": 17608,
            "time": 86.31368233333333,
            "velocity": 0.6535433070866141
          },
          {
            "duration": 0.07352937499999257,
            "durationTicks": 15,
            "midi": 29,
            "name": "F1",
            "ticks": 17608,
            "time": 86.31368233333333,
            "velocity": 0.5590551181102362
          },
          {
            "duration": 0.05392154166668206,
            "durationTicks": 11,
            "midi": 63,
            "name": "D#4",
            "ticks": 17610,
            "time": 86.32348625,
            "velocity": 1
          },
          {
            "duration": 0.2941174999999987,
            "durationTicks": 60,
            "midi": 36,
            "name": "C2",
            "ticks": 17635,
            "time": 86.44603520833334,
            "velocity": 0.6535433070866141
          },
          {
            "duration": 0.06862741666665784,
            "durationTicks": 14,
            "midi": 44,
            "name": "G#2",
            "ticks": 17636,
            "time": 86.45093716666668,
            "velocity": 0.6535433070866141
          },
          {
            "duration": 0.0637254583333231,
            "durationTicks": 13,
            "midi": 44,
            "name": "G#2",
            "ticks": 17666,
            "time": 86.59799591666669,
            "velocity": 0.6535433070866141
          },
          {
            "duration": 0.07352937499999257,
            "durationTicks": 15,
            "midi": 39,
            "name": "D#2",
            "ticks": 17666,
            "time": 86.59799591666669,
            "velocity": 0.41732283464566927
          },
          {
            "duration": 0.04901958333334733,
            "durationTicks": 10,
            "midi": 41,
            "name": "F2",
            "ticks": 17668,
            "time": 86.60779983333333,
            "velocity": 0.6535433070866141
          },
          {
            "duration": 0.04901958333334733,
            "durationTicks": 10,
            "midi": 29,
            "name": "F1",
            "ticks": 17668,
            "time": 86.60779983333333,
            "velocity": 0.5590551181102362
          },
          {
            "duration": 0.04901958333334733,
            "durationTicks": 10,
            "midi": 62,
            "name": "D4",
            "ticks": 17670,
            "time": 86.61760375,
            "velocity": 1
          },
          {
            "duration": 0.12745091666667463,
            "durationTicks": 26,
            "midi": 40,
            "name": "E2",
            "ticks": 17696,
            "time": 86.74505466666668,
            "velocity": 0.6535433070866141
          },
          {
            "duration": 0.07352937499999257,
            "durationTicks": 15,
            "midi": 44,
            "name": "G#2",
            "ticks": 17696,
            "time": 86.74505466666668,
            "velocity": 0.6535433070866141
          },
          {
            "duration": 0.0637254583333231,
            "durationTicks": 13,
            "midi": 39,
            "name": "D#2",
            "ticks": 17696,
            "time": 86.74505466666668,
            "velocity": 0.7086614173228346
          },
          {
            "duration": 0.186274416666663,
            "durationTicks": 38,
            "midi": 41,
            "name": "F2",
            "ticks": 17698,
            "time": 86.75485858333334,
            "velocity": 0.6535433070866141
          },
          {
            "duration": 0.186274416666663,
            "durationTicks": 38,
            "midi": 29,
            "name": "F1",
            "ticks": 17698,
            "time": 86.75485858333334,
            "velocity": 0.5590551181102362
          },
          {
            "duration": 0.024509791666645242,
            "durationTicks": 5,
            "midi": 64,
            "name": "E4",
            "ticks": 17700,
            "time": 86.76466250000001,
            "velocity": 1
          },
          {
            "duration": 0.0637254583333231,
            "durationTicks": 13,
            "midi": 44,
            "name": "G#2",
            "ticks": 17726,
            "time": 86.89211341666669,
            "velocity": 0.6535433070866141
          },
          {
            "duration": 0.024509791666673664,
            "durationTicks": 5,
            "midi": 61,
            "name": "C#4",
            "ticks": 17730,
            "time": 86.91172125,
            "velocity": 0.9763779527559056
          },
          {
            "duration": 0.11274504166667043,
            "durationTicks": 23,
            "midi": 45,
            "name": "A2",
            "ticks": 17754,
            "time": 87.02936825,
            "velocity": 0.6535433070866141
          },
          {
            "duration": 0.09803916666666623,
            "durationTicks": 20,
            "midi": 35,
            "name": "B1",
            "ticks": 17754,
            "time": 87.02936825,
            "velocity": 0.6535433070866141
          },
          {
            "duration": 0.2941174999999987,
            "durationTicks": 60,
            "midi": 36,
            "name": "C2",
            "ticks": 17755,
            "time": 87.03427020833334,
            "velocity": 0.6535433070866141
          },
          {
            "duration": 0.0784313333333273,
            "durationTicks": 16,
            "midi": 44,
            "name": "G#2",
            "ticks": 17756,
            "time": 87.03917216666667,
            "velocity": 0.6535433070866141
          },
          {
            "duration": 0.03921566666664944,
            "durationTicks": 8,
            "midi": 62,
            "name": "D4",
            "ticks": 17760,
            "time": 87.05878000000001,
            "velocity": 0.7637795275590551
          },
          {
            "duration": 0.05392154166665364,
            "durationTicks": 11,
            "midi": 44,
            "name": "G#2",
            "ticks": 17786,
            "time": 87.18623091666669,
            "velocity": 0.6535433070866141
          },
          {
            "duration": 0.05392154166668206,
            "durationTicks": 11,
            "midi": 60,
            "name": "C4",
            "ticks": 17790,
            "time": 87.20583875,
            "velocity": 0.905511811023622
          },
          {
            "duration": 0.07352937499999257,
            "durationTicks": 15,
            "midi": 44,
            "name": "G#2",
            "ticks": 17816,
            "time": 87.33328966666667,
            "velocity": 0.6535433070866141
          },
          {
            "duration": 0.03431370833334313,
            "durationTicks": 7,
            "midi": 39,
            "name": "D#2",
            "ticks": 17816,
            "time": 87.33328966666667,
            "velocity": 0.4645669291338583
          },
          {
            "duration": 0.029411750000008396,
            "durationTicks": 6,
            "midi": 42,
            "name": "F#2",
            "ticks": 17818,
            "time": 87.34309358333334,
            "velocity": 0.6535433070866141
          },
          {
            "duration": 0.03921566666667786,
            "durationTicks": 8,
            "midi": 30,
            "name": "F#1",
            "ticks": 17818,
            "time": 87.34309358333334,
            "velocity": 0.5590551181102362
          },
          {
            "duration": 0.01960783333333893,
            "durationTicks": 4,
            "midi": 63,
            "name": "D#4",
            "ticks": 17820,
            "time": 87.35289750000001,
            "velocity": 1
          },
          {
            "duration": 0.11274504166664201,
            "durationTicks": 23,
            "midi": 40,
            "name": "E2",
            "ticks": 17846,
            "time": 87.48034841666669,
            "velocity": 0.6535433070866141
          },
          {
            "duration": 0.0637254583333231,
            "durationTicks": 13,
            "midi": 44,
            "name": "G#2",
            "ticks": 17846,
            "time": 87.48034841666669,
            "velocity": 0.6535433070866141
          },
          {
            "duration": 0.08823524999999677,
            "durationTicks": 18,
            "midi": 39,
            "name": "D#2",
            "ticks": 17846,
            "time": 87.48034841666669,
            "velocity": 0.6062992125984252
          },
          {
            "duration": 0.04901958333334733,
            "durationTicks": 10,
            "midi": 42,
            "name": "F#2",
            "ticks": 17848,
            "time": 87.49015233333333,
            "velocity": 0.6535433070866141
          },
          {
            "duration": 0.04901958333334733,
            "durationTicks": 10,
            "midi": 30,
            "name": "F#1",
            "ticks": 17848,
            "time": 87.49015233333333,
            "velocity": 0.5590551181102362
          },
          {
            "duration": 0.024509791666673664,
            "durationTicks": 5,
            "midi": 61,
            "name": "C#4",
            "ticks": 17850,
            "time": 87.49995625,
            "velocity": 1
          },
          {
            "duration": 0.2941174999999987,
            "durationTicks": 60,
            "midi": 36,
            "name": "C2",
            "ticks": 17875,
            "time": 87.62250520833334,
            "velocity": 0.6535433070866141
          },
          {
            "duration": 0.0637254583333231,
            "durationTicks": 13,
            "midi": 44,
            "name": "G#2",
            "ticks": 17876,
            "time": 87.62740716666667,
            "velocity": 0.6535433070866141
          },
          {
            "duration": 0.05392154166665364,
            "durationTicks": 11,
            "midi": 44,
            "name": "G#2",
            "ticks": 17906,
            "time": 87.77446591666668,
            "velocity": 0.6535433070866141
          },
          {
            "duration": 0.0637254583333231,
            "durationTicks": 13,
            "midi": 39,
            "name": "D#2",
            "ticks": 17906,
            "time": 87.77446591666668,
            "velocity": 0.5118110236220472
          },
          {
            "duration": 0.04901958333334733,
            "durationTicks": 10,
            "midi": 42,
            "name": "F#2",
            "ticks": 17908,
            "time": 87.78426983333333,
            "velocity": 0.6535433070866141
          },
          {
            "duration": 0.04901958333334733,
            "durationTicks": 10,
            "midi": 30,
            "name": "F#1",
            "ticks": 17908,
            "time": 87.78426983333333,
            "velocity": 0.5590551181102362
          },
          {
            "duration": 0.05882350000001679,
            "durationTicks": 12,
            "midi": 63,
            "name": "D#4",
            "ticks": 17910,
            "time": 87.79407375,
            "velocity": 1
          },
          {
            "duration": 0.16176462500001776,
            "durationTicks": 33,
            "midi": 40,
            "name": "E2",
            "ticks": 17936,
            "time": 87.92152466666667,
            "velocity": 0.6535433070866141
          },
          {
            "duration": 0.0784313333333273,
            "durationTicks": 16,
            "midi": 44,
            "name": "G#2",
            "ticks": 17936,
            "time": 87.92152466666667,
            "velocity": 0.6535433070866141
          },
          {
            "duration": 0.0637254583333231,
            "durationTicks": 13,
            "midi": 39,
            "name": "D#2",
            "ticks": 17936,
            "time": 87.92152466666667,
            "velocity": 0.6377952755905512
          },
          {
            "duration": 0.17647049999999354,
            "durationTicks": 36,
            "midi": 42,
            "name": "F#2",
            "ticks": 17938,
            "time": 87.93132858333334,
            "velocity": 0.6535433070866141
          },
          {
            "duration": 0.17647049999999354,
            "durationTicks": 36,
            "midi": 30,
            "name": "F#1",
            "ticks": 17938,
            "time": 87.93132858333334,
            "velocity": 0.5590551181102362
          },
          {
            "duration": 0.05882349999998837,
            "durationTicks": 12,
            "midi": 64,
            "name": "E4",
            "ticks": 17940,
            "time": 87.94113250000001,
            "velocity": 1
          },
          {
            "duration": 0.05392154166665364,
            "durationTicks": 11,
            "midi": 44,
            "name": "G#2",
            "ticks": 17966,
            "time": 88.06858341666668,
            "velocity": 0.6535433070866141
          },
          {
            "duration": 0.029411749999979975,
            "durationTicks": 6,
            "midi": 62,
            "name": "D4",
            "ticks": 17970,
            "time": 88.08819125000002,
            "velocity": 0.8031496062992126
          },
          {
            "duration": 0.1225489583333399,
            "durationTicks": 25,
            "midi": 45,
            "name": "A2",
            "ticks": 17994,
            "time": 88.20583825,
            "velocity": 0.6535433070866141
          },
          {
            "duration": 0.10294112500000097,
            "durationTicks": 21,
            "midi": 35,
            "name": "B1",
            "ticks": 17994,
            "time": 88.20583825,
            "velocity": 0.6535433070866141
          },
          {
            "duration": 0.2941174999999987,
            "durationTicks": 60,
            "midi": 36,
            "name": "C2",
            "ticks": 17995,
            "time": 88.21074020833336,
            "velocity": 0.6535433070866141
          },
          {
            "duration": 0.06862741666668626,
            "durationTicks": 14,
            "midi": 44,
            "name": "G#2",
            "ticks": 17996,
            "time": 88.21564216666667,
            "velocity": 0.6535433070866141
          },
          {
            "duration": 0.0637254583333231,
            "durationTicks": 13,
            "midi": 39,
            "name": "D#2",
            "ticks": 17996,
            "time": 88.21564216666667,
            "velocity": 0.5826771653543307
          },
          {
            "duration": 0.0637254583333231,
            "durationTicks": 13,
            "midi": 44,
            "name": "G#2",
            "ticks": 18026,
            "time": 88.36270091666668,
            "velocity": 0.6535433070866141
          },
          {
            "duration": 0.014705875000004198,
            "durationTicks": 3,
            "midi": 61,
            "name": "C#4",
            "ticks": 18030,
            "time": 88.38230875000002,
            "velocity": 1
          },
          {
            "duration": 0.03921566666664944,
            "durationTicks": 8,
            "midi": 60,
            "name": "C4",
            "ticks": 18030,
            "time": 88.38230875000002,
            "velocity": 0.3700787401574803
          },
          {
            "duration": 0.07352937500002099,
            "durationTicks": 15,
            "midi": 44,
            "name": "G#2",
            "ticks": 18056,
            "time": 88.50975966666667,
            "velocity": 0.6535433070866141
          },
          {
            "duration": 0.029411750000008396,
            "durationTicks": 6,
            "midi": 39,
            "name": "D#2",
            "ticks": 18056,
            "time": 88.50975966666667,
            "velocity": 0.5511811023622047
          },
          {
            "duration": 0.029411750000008396,
            "durationTicks": 6,
            "midi": 62,
            "name": "D4",
            "ticks": 18060,
            "time": 88.5293675,
            "velocity": 0.7637795275590551
          },
          {
            "duration": 0.10294112500000097,
            "durationTicks": 21,
            "midi": 40,
            "name": "E2",
            "ticks": 18086,
            "time": 88.65681841666668,
            "velocity": 0.6535433070866141
          },
          {
            "duration": 0.05392154166665364,
            "durationTicks": 11,
            "midi": 44,
            "name": "G#2",
            "ticks": 18086,
            "time": 88.65681841666668,
            "velocity": 0.6535433070866141
          },
          {
            "duration": 0.07352937499999257,
            "durationTicks": 15,
            "midi": 39,
            "name": "D#2",
            "ticks": 18086,
            "time": 88.65681841666668,
            "velocity": 0.5669291338582677
          },
          {
            "duration": 0.05392154166668206,
            "durationTicks": 11,
            "midi": 44,
            "name": "G#2",
            "ticks": 18088,
            "time": 88.66662233333332,
            "velocity": 0.6535433070866141
          },
          {
            "duration": 0.06372545833335153,
            "durationTicks": 13,
            "midi": 32,
            "name": "G#1",
            "ticks": 18088,
            "time": 88.66662233333332,
            "velocity": 0.5590551181102362
          },
          {
            "duration": 0.05392154166665364,
            "durationTicks": 11,
            "midi": 60,
            "name": "C4",
            "ticks": 18090,
            "time": 88.67642625000002,
            "velocity": 0.937007874015748
          },
          {
            "duration": 0.2941174999999987,
            "durationTicks": 60,
            "midi": 36,
            "name": "C2",
            "ticks": 18115,
            "time": 88.79897520833336,
            "velocity": 0.6535433070866141
          },
          {
            "duration": 0.0784313333333273,
            "durationTicks": 16,
            "midi": 44,
            "name": "G#2",
            "ticks": 18116,
            "time": 88.80387716666667,
            "velocity": 0.6535433070866141
          },
          {
            "duration": 0.0637254583333231,
            "durationTicks": 13,
            "midi": 62,
            "name": "D4",
            "ticks": 18120,
            "time": 88.823485,
            "velocity": 1
          },
          {
            "duration": 0.0637254583333231,
            "durationTicks": 13,
            "midi": 44,
            "name": "G#2",
            "ticks": 18146,
            "time": 88.95093591666668,
            "velocity": 0.6535433070866141
          },
          {
            "duration": 0.05392154166665364,
            "durationTicks": 11,
            "midi": 39,
            "name": "D#2",
            "ticks": 18146,
            "time": 88.95093591666668,
            "velocity": 0.48031496062992124
          },
          {
            "duration": 0.0637254583333231,
            "durationTicks": 13,
            "midi": 61,
            "name": "C#4",
            "ticks": 18150,
            "time": 88.97054375000002,
            "velocity": 1
          },
          {
            "duration": 0.1225489583333399,
            "durationTicks": 25,
            "midi": 40,
            "name": "E2",
            "ticks": 18176,
            "time": 89.09799466666666,
            "velocity": 0.6535433070866141
          },
          {
            "duration": 0.07352937500002099,
            "durationTicks": 15,
            "midi": 44,
            "name": "G#2",
            "ticks": 18176,
            "time": 89.09799466666666,
            "velocity": 0.6535433070866141
          },
          {
            "duration": 0.06372545833335153,
            "durationTicks": 13,
            "midi": 39,
            "name": "D#2",
            "ticks": 18176,
            "time": 89.09799466666666,
            "velocity": 0.6771653543307087
          },
          {
            "duration": 0.14705875000001356,
            "durationTicks": 30,
            "midi": 44,
            "name": "G#2",
            "ticks": 18178,
            "time": 89.10779858333333,
            "velocity": 0.6535433070866141
          },
          {
            "duration": 0.14705875000001356,
            "durationTicks": 30,
            "midi": 32,
            "name": "G#1",
            "ticks": 18178,
            "time": 89.10779858333333,
            "velocity": 0.5590551181102362
          },
          {
            "duration": 0.01960783333333893,
            "durationTicks": 4,
            "midi": 63,
            "name": "D#4",
            "ticks": 18180,
            "time": 89.1176025,
            "velocity": 1
          },
          {
            "duration": 0.0637254583333231,
            "durationTicks": 13,
            "midi": 44,
            "name": "G#2",
            "ticks": 18206,
            "time": 89.24505341666668,
            "velocity": 0.6535433070866141
          },
          {
            "duration": 0.049019583333318906,
            "durationTicks": 10,
            "midi": 63,
            "name": "D#4",
            "ticks": 18210,
            "time": 89.26466125000002,
            "velocity": 1
          },
          {
            "duration": 0.1078430833333357,
            "durationTicks": 22,
            "midi": 45,
            "name": "A2",
            "ticks": 18234,
            "time": 89.38230825,
            "velocity": 0.6535433070866141
          },
          {
            "duration": 0.09803916666669465,
            "durationTicks": 20,
            "midi": 35,
            "name": "B1",
            "ticks": 18234,
            "time": 89.38230825,
            "velocity": 0.6535433070866141
          },
          {
            "duration": 0.2941174999999987,
            "durationTicks": 60,
            "midi": 36,
            "name": "C2",
            "ticks": 18235,
            "time": 89.38721020833336,
            "velocity": 0.6535433070866141
          },
          {
            "duration": 0.09313720833335992,
            "durationTicks": 19,
            "midi": 44,
            "name": "G#2",
            "ticks": 18236,
            "time": 89.39211216666666,
            "velocity": 0.6535433070866141
          },
          {
            "duration": 0.044117625000012595,
            "durationTicks": 9,
            "midi": 62,
            "name": "D4",
            "ticks": 18240,
            "time": 89.41172,
            "velocity": 0.7401574803149606
          },
          {
            "duration": 0.0637254583333231,
            "durationTicks": 13,
            "midi": 44,
            "name": "G#2",
            "ticks": 18266,
            "time": 89.53917091666668,
            "velocity": 0.6535433070866141
          },
          {
            "duration": 0.0784313333333273,
            "durationTicks": 16,
            "midi": 44,
            "name": "G#2",
            "ticks": 18296,
            "time": 89.68622966666669,
            "velocity": 0.6535433070866141
          },
          {
            "duration": 0.049019583333318906,
            "durationTicks": 10,
            "midi": 39,
            "name": "D#2",
            "ticks": 18296,
            "time": 89.68622966666669,
            "velocity": 0.7086614173228346
          },
          {
            "duration": 0.014705875000004198,
            "durationTicks": 3,
            "midi": 62,
            "name": "D4",
            "ticks": 18300,
            "time": 89.7058375,
            "velocity": 0.7637795275590551
          },
          {
            "duration": 0.11764700000000516,
            "durationTicks": 24,
            "midi": 40,
            "name": "E2",
            "ticks": 18326,
            "time": 89.83328841666668,
            "velocity": 0.6535433070866141
          },
          {
            "duration": 0.06862741666668626,
            "durationTicks": 14,
            "midi": 44,
            "name": "G#2",
            "ticks": 18326,
            "time": 89.83328841666668,
            "velocity": 0.6535433070866141
          },
          {
            "duration": 0.0637254583333231,
            "durationTicks": 13,
            "midi": 39,
            "name": "D#2",
            "ticks": 18326,
            "time": 89.83328841666668,
            "velocity": 0.5039370078740157
          },
          {
            "duration": 0.0784313333333273,
            "durationTicks": 16,
            "midi": 46,
            "name": "A#2",
            "ticks": 18328,
            "time": 89.84309233333335,
            "velocity": 0.6535433070866141
          },
          {
            "duration": 0.0784313333333273,
            "durationTicks": 16,
            "midi": 34,
            "name": "A#1",
            "ticks": 18328,
            "time": 89.84309233333335,
            "velocity": 0.5590551181102362
          },
          {
            "duration": 0.07352937499999257,
            "durationTicks": 15,
            "midi": 60,
            "name": "C4",
            "ticks": 18330,
            "time": 89.85289625000001,
            "velocity": 1
          },
          {
            "duration": 0.2941174999999987,
            "durationTicks": 60,
            "midi": 36,
            "name": "C2",
            "ticks": 18355,
            "time": 89.97544520833335,
            "velocity": 0.6535433070866141
          },
          {
            "duration": 0.07352937499999257,
            "durationTicks": 15,
            "midi": 44,
            "name": "G#2",
            "ticks": 18356,
            "time": 89.98034716666669,
            "velocity": 0.6535433070866141
          },
          {
            "duration": 0.07352937499999257,
            "durationTicks": 15,
            "midi": 46,
            "name": "A#2",
            "ticks": 18358,
            "time": 89.99015108333333,
            "velocity": 0.6535433070866141
          },
          {
            "duration": 0.07352937499999257,
            "durationTicks": 15,
            "midi": 34,
            "name": "A#1",
            "ticks": 18358,
            "time": 89.99015108333333,
            "velocity": 0.5590551181102362
          },
          {
            "duration": 0.05392154166668206,
            "durationTicks": 11,
            "midi": 44,
            "name": "G#2",
            "ticks": 18386,
            "time": 90.12740591666667,
            "velocity": 0.6535433070866141
          },
          {
            "duration": 0.03921566666664944,
            "durationTicks": 8,
            "midi": 61,
            "name": "C#4",
            "ticks": 18390,
            "time": 90.14701375000001,
            "velocity": 0.7086614173228346
          },
          {
            "duration": 0.1274509166666462,
            "durationTicks": 26,
            "midi": 40,
            "name": "E2",
            "ticks": 18416,
            "time": 90.27446466666669,
            "velocity": 0.6535433070866141
          },
          {
            "duration": 0.0784313333333273,
            "durationTicks": 16,
            "midi": 44,
            "name": "G#2",
            "ticks": 18416,
            "time": 90.27446466666669,
            "velocity": 0.6535433070866141
          },
          {
            "duration": 0.10294112500000097,
            "durationTicks": 21,
            "midi": 46,
            "name": "A#2",
            "ticks": 18418,
            "time": 90.28426858333333,
            "velocity": 0.6535433070866141
          },
          {
            "duration": 0.10294112500000097,
            "durationTicks": 21,
            "midi": 34,
            "name": "A#1",
            "ticks": 18418,
            "time": 90.28426858333333,
            "velocity": 0.5590551181102362
          },
          {
            "duration": 0.029411750000008396,
            "durationTicks": 6,
            "midi": 63,
            "name": "D#4",
            "ticks": 18420,
            "time": 90.2940725,
            "velocity": 1
          },
          {
            "duration": 0.06862741666668626,
            "durationTicks": 14,
            "midi": 44,
            "name": "G#2",
            "ticks": 18446,
            "time": 90.42152341666667,
            "velocity": 0.6535433070866141
          },
          {
            "duration": 0.1372548333333441,
            "durationTicks": 28,
            "midi": 45,
            "name": "A2",
            "ticks": 18474,
            "time": 90.55877824999999,
            "velocity": 0.6535433070866141
          },
          {
            "duration": 0.09803916666669465,
            "durationTicks": 20,
            "midi": 35,
            "name": "B1",
            "ticks": 18474,
            "time": 90.55877824999999,
            "velocity": 0.6535433070866141
          },
          {
            "duration": 0.2941174999999987,
            "durationTicks": 60,
            "midi": 36,
            "name": "C2",
            "ticks": 18475,
            "time": 90.56368020833335,
            "velocity": 0.6535433070866141
          },
          {
            "duration": 0.08823524999999677,
            "durationTicks": 18,
            "midi": 44,
            "name": "G#2",
            "ticks": 18476,
            "time": 90.56858216666669,
            "velocity": 0.6535433070866141
          },
          {
            "duration": 0.049019583333318906,
            "durationTicks": 10,
            "midi": 39,
            "name": "D#2",
            "ticks": 18476,
            "time": 90.56858216666669,
            "velocity": 0.5826771653543307
          },
          {
            "duration": 0.04411762499998417,
            "durationTicks": 9,
            "midi": 63,
            "name": "D#4",
            "ticks": 18510,
            "time": 90.73524875000001,
            "velocity": 1
          },
          {
            "duration": 0.08823524999999677,
            "durationTicks": 18,
            "midi": 49,
            "name": "C#3",
            "ticks": 18536,
            "time": 90.86269966666669,
            "velocity": 0.6535433070866141
          },
          {
            "duration": 0.0637254583333231,
            "durationTicks": 13,
            "midi": 39,
            "name": "D#2",
            "ticks": 18536,
            "time": 90.86269966666669,
            "velocity": 0.7401574803149606
          },
          {
            "duration": 0.05392154166668206,
            "durationTicks": 11,
            "midi": 46,
            "name": "A#2",
            "ticks": 18538,
            "time": 90.87250358333333,
            "velocity": 0.6535433070866141
          },
          {
            "duration": 0.05392154166668206,
            "durationTicks": 11,
            "midi": 34,
            "name": "A#1",
            "ticks": 18538,
            "time": 90.87250358333333,
            "velocity": 0.5590551181102362
          },
          {
            "duration": 0.1225489583333399,
            "durationTicks": 25,
            "midi": 40,
            "name": "E2",
            "ticks": 18566,
            "time": 91.00975841666667,
            "velocity": 0.6535433070866141
          },
          {
            "duration": 0.07352937500002099,
            "durationTicks": 15,
            "midi": 39,
            "name": "D#2",
            "ticks": 18566,
            "time": 91.00975841666667,
            "velocity": 0.3937007874015748
          },
          {
            "duration": 0.04901958333334733,
            "durationTicks": 10,
            "midi": 46,
            "name": "A#2",
            "ticks": 18568,
            "time": 91.01956233333334,
            "velocity": 0.6535433070866141
          },
          {
            "duration": 0.04901958333334733,
            "durationTicks": 10,
            "midi": 34,
            "name": "A#1",
            "ticks": 18568,
            "time": 91.01956233333334,
            "velocity": 0.5590551181102362
          },
          {
            "duration": 0.024509791666673664,
            "durationTicks": 5,
            "midi": 62,
            "name": "D4",
            "ticks": 18570,
            "time": 91.02936625000001,
            "velocity": 0.8267716535433071
          },
          {
            "duration": 0.2941174999999987,
            "durationTicks": 60,
            "midi": 36,
            "name": "C2",
            "ticks": 18595,
            "time": 91.15191520833335,
            "velocity": 0.6535433070866141
          },
          {
            "duration": 0.10294112500000097,
            "durationTicks": 21,
            "midi": 44,
            "name": "G#2",
            "ticks": 18596,
            "time": 91.15681716666668,
            "velocity": 0.6535433070866141
          },
          {
            "duration": 0.05882349999998837,
            "durationTicks": 12,
            "midi": 39,
            "name": "D#2",
            "ticks": 18596,
            "time": 91.15681716666668,
            "velocity": 0.7244094488188977
          },
          {
            "duration": 0.05392154166665364,
            "durationTicks": 11,
            "midi": 64,
            "name": "E4",
            "ticks": 18600,
            "time": 91.17642500000002,
            "velocity": 1
          },
          {
            "duration": 0.08823525000002519,
            "durationTicks": 18,
            "midi": 39,
            "name": "D#2",
            "ticks": 18626,
            "time": 91.30387591666667,
            "velocity": 0.7244094488188977
          },
          {
            "duration": 0.14705874999998514,
            "durationTicks": 30,
            "midi": 40,
            "name": "E2",
            "ticks": 18656,
            "time": 91.45093466666668,
            "velocity": 0.6535433070866141
          },
          {
            "duration": 0.07352937499999257,
            "durationTicks": 15,
            "midi": 49,
            "name": "C#3",
            "ticks": 18656,
            "time": 91.45093466666668,
            "velocity": 0.6535433070866141
          },
          {
            "duration": 0.05392154166665364,
            "durationTicks": 11,
            "midi": 39,
            "name": "D#2",
            "ticks": 18656,
            "time": 91.45093466666668,
            "velocity": 0.7637795275590551
          },
          {
            "duration": 0.19117637500002616,
            "durationTicks": 39,
            "midi": 46,
            "name": "A#2",
            "ticks": 18658,
            "time": 91.46073858333332,
            "velocity": 0.6535433070866141
          },
          {
            "duration": 0.19117637500002616,
            "durationTicks": 39,
            "midi": 34,
            "name": "A#1",
            "ticks": 18658,
            "time": 91.46073858333332,
            "velocity": 0.5590551181102362
          },
          {
            "duration": 0.09803916666666623,
            "durationTicks": 20,
            "midi": 39,
            "name": "D#2",
            "ticks": 18686,
            "time": 91.59799341666667,
            "velocity": 0.7401574803149606
          },
          {
            "duration": 0.2941174999999987,
            "durationTicks": 60,
            "midi": 36,
            "name": "C2",
            "ticks": 18715,
            "time": 91.74015020833335,
            "velocity": 0.6535433070866141
          },
          {
            "duration": 0.09803916666666623,
            "durationTicks": 20,
            "midi": 57,
            "name": "A3",
            "ticks": 18716,
            "time": 91.74505216666668,
            "velocity": 0.6535433070866141
          },
          {
            "duration": 0.05392154166665364,
            "durationTicks": 11,
            "midi": 62,
            "name": "D4",
            "ticks": 18720,
            "time": 91.76466000000002,
            "velocity": 1
          },
          {
            "duration": 0.08823524999999677,
            "durationTicks": 18,
            "midi": 44,
            "name": "G#2",
            "ticks": 18776,
            "time": 92.03916966666668,
            "velocity": 0.6535433070866141
          },
          {
            "duration": 0.04411762499998417,
            "durationTicks": 9,
            "midi": 39,
            "name": "D#2",
            "ticks": 18776,
            "time": 92.03916966666668,
            "velocity": 0.5196850393700787
          },
          {
            "duration": 0.029411750000008396,
            "durationTicks": 6,
            "midi": 62,
            "name": "D4",
            "ticks": 18780,
            "time": 92.05877750000002,
            "velocity": 0.7401574803149606
          },
          {
            "duration": 0.11274504166667043,
            "durationTicks": 23,
            "midi": 40,
            "name": "E2",
            "ticks": 18806,
            "time": 92.18622841666667,
            "velocity": 0.6535433070866141
          },
          {
            "duration": 0.06862741666668626,
            "durationTicks": 14,
            "midi": 44,
            "name": "G#2",
            "ticks": 18806,
            "time": 92.18622841666667,
            "velocity": 0.6535433070866141
          },
          {
            "duration": 0.07352937500002099,
            "durationTicks": 15,
            "midi": 39,
            "name": "D#2",
            "ticks": 18806,
            "time": 92.18622841666667,
            "velocity": 0.4881889763779528
          },
          {
            "duration": 0.07352937499999257,
            "durationTicks": 15,
            "midi": 46,
            "name": "A#2",
            "ticks": 18808,
            "time": 92.19603233333333,
            "velocity": 0.6535433070866141
          },
          {
            "duration": 0.07352937499999257,
            "durationTicks": 15,
            "midi": 34,
            "name": "A#1",
            "ticks": 18808,
            "time": 92.19603233333333,
            "velocity": 0.5590551181102362
          },
          {
            "duration": 0.06862741666668626,
            "durationTicks": 14,
            "midi": 60,
            "name": "C4",
            "ticks": 18810,
            "time": 92.20583625,
            "velocity": 1
          },
          {
            "duration": 0.2941174999999987,
            "durationTicks": 60,
            "midi": 36,
            "name": "C2",
            "ticks": 18835,
            "time": 92.32838520833334,
            "velocity": 0.6535433070866141
          },
          {
            "duration": 0.08823524999999677,
            "durationTicks": 18,
            "midi": 44,
            "name": "G#2",
            "ticks": 18836,
            "time": 92.33328716666668,
            "velocity": 0.6535433070866141
          },
          {
            "duration": 0.06372545833335153,
            "durationTicks": 13,
            "midi": 44,
            "name": "G#2",
            "ticks": 18866,
            "time": 92.48034591666666,
            "velocity": 0.6535433070866141
          },
          {
            "duration": 0.07352937499999257,
            "durationTicks": 15,
            "midi": 46,
            "name": "A#2",
            "ticks": 18868,
            "time": 92.49014983333333,
            "velocity": 0.6535433070866141
          },
          {
            "duration": 0.07352937499999257,
            "durationTicks": 15,
            "midi": 34,
            "name": "A#1",
            "ticks": 18868,
            "time": 92.49014983333333,
            "velocity": 0.5590551181102362
          },
          {
            "duration": 0.024509791666673664,
            "durationTicks": 5,
            "midi": 61,
            "name": "C#4",
            "ticks": 18870,
            "time": 92.49995375,
            "velocity": 0.9763779527559056
          },
          {
            "duration": 0.13725483333331567,
            "durationTicks": 28,
            "midi": 40,
            "name": "E2",
            "ticks": 18896,
            "time": 92.62740466666668,
            "velocity": 0.6535433070866141
          },
          {
            "duration": 0.0931372083333315,
            "durationTicks": 19,
            "midi": 44,
            "name": "G#2",
            "ticks": 18896,
            "time": 92.62740466666668,
            "velocity": 0.6535433070866141
          },
          {
            "duration": 0.05392154166665364,
            "durationTicks": 11,
            "midi": 39,
            "name": "D#2",
            "ticks": 18896,
            "time": 92.62740466666668,
            "velocity": 0.7795275590551181
          },
          {
            "duration": 0.17647049999999354,
            "durationTicks": 36,
            "midi": 46,
            "name": "A#2",
            "ticks": 18898,
            "time": 92.63720858333335,
            "velocity": 0.6535433070866141
          },
          {
            "duration": 0.186274416666663,
            "durationTicks": 38,
            "midi": 34,
            "name": "A#1",
            "ticks": 18898,
            "time": 92.63720858333335,
            "velocity": 0.5590551181102362
          },
          {
            "duration": 0.014705875000004198,
            "durationTicks": 3,
            "midi": 63,
            "name": "D#4",
            "ticks": 18900,
            "time": 92.64701250000002,
            "velocity": 1
          },
          {
            "duration": 0.07352937499999257,
            "durationTicks": 15,
            "midi": 44,
            "name": "G#2",
            "ticks": 18926,
            "time": 92.77446341666669,
            "velocity": 0.6535433070866141
          },
          {
            "duration": 0.09803916666666623,
            "durationTicks": 20,
            "midi": 45,
            "name": "A2",
            "ticks": 18954,
            "time": 92.91171825,
            "velocity": 0.6535433070866141
          },
          {
            "duration": 0.09803916666666623,
            "durationTicks": 20,
            "midi": 35,
            "name": "B1",
            "ticks": 18954,
            "time": 92.91171825,
            "velocity": 0.6535433070866141
          },
          {
            "duration": 0.2941174999999987,
            "durationTicks": 60,
            "midi": 36,
            "name": "C2",
            "ticks": 18955,
            "time": 92.91662020833334,
            "velocity": 0.6535433070866141
          },
          {
            "duration": 0.08823524999999677,
            "durationTicks": 18,
            "midi": 44,
            "name": "G#2",
            "ticks": 18956,
            "time": 92.92152216666668,
            "velocity": 0.6535433070866141
          },
          {
            "duration": 0.05392154166668206,
            "durationTicks": 11,
            "midi": 39,
            "name": "D#2",
            "ticks": 18956,
            "time": 92.92152216666668,
            "velocity": 0.6141732283464567
          },
          {
            "duration": 0.024509791666645242,
            "durationTicks": 5,
            "midi": 62,
            "name": "D4",
            "ticks": 18960,
            "time": 92.94113000000002,
            "velocity": 0.8031496062992126
          },
          {
            "duration": 0.06862741666665784,
            "durationTicks": 14,
            "midi": 44,
            "name": "G#2",
            "ticks": 18986,
            "time": 93.06858091666669,
            "velocity": 0.6535433070866141
          },
          {
            "duration": 0.0784313333333273,
            "durationTicks": 16,
            "midi": 44,
            "name": "G#2",
            "ticks": 19016,
            "time": 93.21563966666668,
            "velocity": 0.6535433070866141
          },
          {
            "duration": 0.03921566666667786,
            "durationTicks": 8,
            "midi": 42,
            "name": "F#2",
            "ticks": 19018,
            "time": 93.22544358333334,
            "velocity": 0.6535433070866141
          },
          {
            "duration": 0.03921566666667786,
            "durationTicks": 8,
            "midi": 30,
            "name": "F#1",
            "ticks": 19018,
            "time": 93.22544358333334,
            "velocity": 0.5590551181102362
          },
          {
            "duration": 0.024509791666645242,
            "durationTicks": 5,
            "midi": 62,
            "name": "D4",
            "ticks": 19020,
            "time": 93.23524750000001,
            "velocity": 0.7795275590551181
          },
          {
            "duration": 0.13235287499998094,
            "durationTicks": 27,
            "midi": 40,
            "name": "E2",
            "ticks": 19046,
            "time": 93.36269841666669,
            "velocity": 0.6535433070866141
          },
          {
            "duration": 0.06862741666665784,
            "durationTicks": 14,
            "midi": 44,
            "name": "G#2",
            "ticks": 19046,
            "time": 93.36269841666669,
            "velocity": 0.6535433070866141
          },
          {
            "duration": 0.07352937499999257,
            "durationTicks": 15,
            "midi": 39,
            "name": "D#2",
            "ticks": 19046,
            "time": 93.36269841666669,
            "velocity": 0.5748031496062992
          },
          {
            "duration": 0.03921566666667786,
            "durationTicks": 8,
            "midi": 63,
            "name": "D#4",
            "ticks": 19050,
            "time": 93.38230625,
            "velocity": 1
          },
          {
            "duration": 0.2941174999999987,
            "durationTicks": 60,
            "midi": 36,
            "name": "C2",
            "ticks": 19075,
            "time": 93.50485520833334,
            "velocity": 0.6535433070866141
          },
          {
            "duration": 0.07352937499999257,
            "durationTicks": 15,
            "midi": 44,
            "name": "G#2",
            "ticks": 19076,
            "time": 93.50975716666667,
            "velocity": 0.6535433070866141
          },
          {
            "duration": 0.0784313333333273,
            "durationTicks": 16,
            "midi": 44,
            "name": "G#2",
            "ticks": 19106,
            "time": 93.65681591666669,
            "velocity": 0.6535433070866141
          },
          {
            "duration": 0.04901958333334733,
            "durationTicks": 10,
            "midi": 42,
            "name": "F#2",
            "ticks": 19108,
            "time": 93.66661983333333,
            "velocity": 0.6535433070866141
          },
          {
            "duration": 0.04901958333334733,
            "durationTicks": 10,
            "midi": 30,
            "name": "F#1",
            "ticks": 19108,
            "time": 93.66661983333333,
            "velocity": 0.5590551181102362
          },
          {
            "duration": 0.12745091666667463,
            "durationTicks": 26,
            "midi": 40,
            "name": "E2",
            "ticks": 19136,
            "time": 93.80387466666667,
            "velocity": 0.6535433070866141
          },
          {
            "duration": 0.0784313333333273,
            "durationTicks": 16,
            "midi": 44,
            "name": "G#2",
            "ticks": 19136,
            "time": 93.80387466666667,
            "velocity": 0.6535433070866141
          },
          {
            "duration": 0.06862741666668626,
            "durationTicks": 14,
            "midi": 39,
            "name": "D#2",
            "ticks": 19136,
            "time": 93.80387466666667,
            "velocity": 0.7401574803149606
          },
          {
            "duration": 0.17647049999999354,
            "durationTicks": 36,
            "midi": 42,
            "name": "F#2",
            "ticks": 19138,
            "time": 93.81367858333334,
            "velocity": 0.6535433070866141
          },
          {
            "duration": 0.17647049999999354,
            "durationTicks": 36,
            "midi": 30,
            "name": "F#1",
            "ticks": 19138,
            "time": 93.81367858333334,
            "velocity": 0.5590551181102362
          },
          {
            "duration": 0.024509791666673664,
            "durationTicks": 5,
            "midi": 64,
            "name": "E4",
            "ticks": 19140,
            "time": 93.82348250000001,
            "velocity": 1
          },
          {
            "duration": 0.06862741666665784,
            "durationTicks": 14,
            "midi": 44,
            "name": "G#2",
            "ticks": 19166,
            "time": 93.95093341666669,
            "velocity": 0.6535433070866141
          },
          {
            "duration": 0.11274504166667043,
            "durationTicks": 23,
            "midi": 45,
            "name": "A2",
            "ticks": 19194,
            "time": 94.08818825,
            "velocity": 0.6535433070866141
          },
          {
            "duration": 0.0931372083333315,
            "durationTicks": 19,
            "midi": 35,
            "name": "B1",
            "ticks": 19194,
            "time": 94.08818825,
            "velocity": 0.6535433070866141
          },
          {
            "duration": 0.2941174999999987,
            "durationTicks": 60,
            "midi": 36,
            "name": "C2",
            "ticks": 19195,
            "time": 94.09309020833334,
            "velocity": 0.6535433070866141
          },
          {
            "duration": 0.0784313333333273,
            "durationTicks": 16,
            "midi": 44,
            "name": "G#2",
            "ticks": 19196,
            "time": 94.09799216666667,
            "velocity": 0.6535433070866141
          },
          {
            "duration": 0.0637254583333231,
            "durationTicks": 13,
            "midi": 39,
            "name": "D#2",
            "ticks": 19196,
            "time": 94.09799216666667,
            "velocity": 0.6929133858267716
          },
          {
            "duration": 0.03431370833334313,
            "durationTicks": 7,
            "midi": 62,
            "name": "D4",
            "ticks": 19200,
            "time": 94.11760000000001,
            "velocity": 0.8818897637795275
          },
          {
            "duration": 0.06862741666665784,
            "durationTicks": 14,
            "midi": 44,
            "name": "G#2",
            "ticks": 19226,
            "time": 94.24505091666668,
            "velocity": 0.6535433070866141
          },
          {
            "duration": 0.0931372083333315,
            "durationTicks": 19,
            "midi": 44,
            "name": "G#2",
            "ticks": 19256,
            "time": 94.39210966666667,
            "velocity": 0.6535433070866141
          },
          {
            "duration": 0.024509791666673664,
            "durationTicks": 5,
            "midi": 62,
            "name": "D4",
            "ticks": 19260,
            "time": 94.41171750000001,
            "velocity": 0.7401574803149606
          },
          {
            "duration": 0.11764699999997674,
            "durationTicks": 24,
            "midi": 40,
            "name": "E2",
            "ticks": 19286,
            "time": 94.53916841666668,
            "velocity": 0.6535433070866141
          },
          {
            "duration": 0.05392154166665364,
            "durationTicks": 11,
            "midi": 44,
            "name": "G#2",
            "ticks": 19286,
            "time": 94.53916841666668,
            "velocity": 0.6535433070866141
          },
          {
            "duration": 0.0784313333333273,
            "durationTicks": 16,
            "midi": 39,
            "name": "D#2",
            "ticks": 19286,
            "time": 94.53916841666668,
            "velocity": 0.5905511811023622
          },
          {
            "duration": 0.07352937500002099,
            "durationTicks": 15,
            "midi": 44,
            "name": "G#2",
            "ticks": 19288,
            "time": 94.54897233333332,
            "velocity": 0.6535433070866141
          },
          {
            "duration": 0.07352937500002099,
            "durationTicks": 15,
            "midi": 32,
            "name": "G#1",
            "ticks": 19288,
            "time": 94.54897233333332,
            "velocity": 0.5590551181102362
          },
          {
            "duration": 0.05392154166665364,
            "durationTicks": 11,
            "midi": 60,
            "name": "C4",
            "ticks": 19290,
            "time": 94.55877625000002,
            "velocity": 1
          },
          {
            "duration": 0.2941174999999987,
            "durationTicks": 60,
            "midi": 36,
            "name": "C2",
            "ticks": 19315,
            "time": 94.68132520833336,
            "velocity": 0.6535433070866141
          },
          {
            "duration": 0.07352937500002099,
            "durationTicks": 15,
            "midi": 44,
            "name": "G#2",
            "ticks": 19316,
            "time": 94.68622716666667,
            "velocity": 0.6535433070866141
          },
          {
            "duration": 0.01960783333333893,
            "durationTicks": 4,
            "midi": 63,
            "name": "D#4",
            "ticks": 19320,
            "time": 94.70583500000001,
            "velocity": 0.7401574803149606
          },
          {
            "duration": 0.0784313333333273,
            "durationTicks": 16,
            "midi": 44,
            "name": "G#2",
            "ticks": 19346,
            "time": 94.83328591666668,
            "velocity": 0.6535433070866141
          },
          {
            "duration": 0.07352937500002099,
            "durationTicks": 15,
            "midi": 44,
            "name": "G#2",
            "ticks": 19348,
            "time": 94.84308983333332,
            "velocity": 0.6535433070866141
          },
          {
            "duration": 0.07352937500002099,
            "durationTicks": 15,
            "midi": 32,
            "name": "G#1",
            "ticks": 19348,
            "time": 94.84308983333332,
            "velocity": 0.5590551181102362
          },
          {
            "duration": 0.05392154166665364,
            "durationTicks": 11,
            "midi": 61,
            "name": "C#4",
            "ticks": 19350,
            "time": 94.85289375000002,
            "velocity": 1
          },
          {
            "duration": 0.14215679166667883,
            "durationTicks": 29,
            "midi": 40,
            "name": "E2",
            "ticks": 19376,
            "time": 94.98034466666667,
            "velocity": 0.6535433070866141
          },
          {
            "duration": 0.0931372083333315,
            "durationTicks": 19,
            "midi": 44,
            "name": "G#2",
            "ticks": 19376,
            "time": 94.98034466666667,
            "velocity": 0.6535433070866141
          },
          {
            "duration": 0.0637254583333231,
            "durationTicks": 13,
            "midi": 39,
            "name": "D#2",
            "ticks": 19376,
            "time": 94.98034466666667,
            "velocity": 0.7401574803149606
          },
          {
            "duration": 0.19117637499999773,
            "durationTicks": 39,
            "midi": 44,
            "name": "G#2",
            "ticks": 19378,
            "time": 94.99014858333334,
            "velocity": 0.6535433070866141
          },
          {
            "duration": 0.19117637499999773,
            "durationTicks": 39,
            "midi": 32,
            "name": "G#1",
            "ticks": 19378,
            "time": 94.99014858333334,
            "velocity": 0.5590551181102362
          },
          {
            "duration": 0.014705875000004198,
            "durationTicks": 3,
            "midi": 63,
            "name": "D#4",
            "ticks": 19380,
            "time": 94.9999525,
            "velocity": 1
          },
          {
            "duration": 0.05392154166665364,
            "durationTicks": 11,
            "midi": 44,
            "name": "G#2",
            "ticks": 19406,
            "time": 95.12740341666668,
            "velocity": 0.6535433070866141
          },
          {
            "duration": 0.11274504166669885,
            "durationTicks": 23,
            "midi": 45,
            "name": "A2",
            "ticks": 19434,
            "time": 95.26465825,
            "velocity": 0.6535433070866141
          },
          {
            "duration": 0.10294112500000097,
            "durationTicks": 21,
            "midi": 35,
            "name": "B1",
            "ticks": 19434,
            "time": 95.26465825,
            "velocity": 0.6535433070866141
          },
          {
            "duration": 0.2941174999999987,
            "durationTicks": 60,
            "midi": 36,
            "name": "C2",
            "ticks": 19435,
            "time": 95.26956020833336,
            "velocity": 0.6535433070866141
          },
          {
            "duration": 0.08823525000002519,
            "durationTicks": 18,
            "midi": 44,
            "name": "G#2",
            "ticks": 19436,
            "time": 95.27446216666667,
            "velocity": 0.6535433070866141
          },
          {
            "duration": 0.044117625000012595,
            "durationTicks": 9,
            "midi": 39,
            "name": "D#2",
            "ticks": 19436,
            "time": 95.27446216666667,
            "velocity": 0.6535433070866141
          },
          {
            "duration": 0.03921566666667786,
            "durationTicks": 8,
            "midi": 62,
            "name": "D4",
            "ticks": 19440,
            "time": 95.29407,
            "velocity": 0.7637795275590551
          },
          {
            "duration": 0.06862741666665784,
            "durationTicks": 14,
            "midi": 44,
            "name": "G#2",
            "ticks": 19466,
            "time": 95.42152091666668,
            "velocity": 0.6535433070866141
          },
          {
            "duration": 0.024509791666645242,
            "durationTicks": 5,
            "midi": 62,
            "name": "D4",
            "ticks": 19470,
            "time": 95.44112875000002,
            "velocity": 0.905511811023622
          },
          {
            "duration": 0.08823525000002519,
            "durationTicks": 18,
            "midi": 44,
            "name": "G#2",
            "ticks": 19496,
            "time": 95.56857966666666,
            "velocity": 0.6535433070866141
          },
          {
            "duration": 0.05392154166668206,
            "durationTicks": 11,
            "midi": 39,
            "name": "D#2",
            "ticks": 19496,
            "time": 95.56857966666666,
            "velocity": 0.8267716535433071
          },
          {
            "duration": 0.11274504166667043,
            "durationTicks": 23,
            "midi": 40,
            "name": "E2",
            "ticks": 19526,
            "time": 95.71563841666668,
            "velocity": 0.6535433070866141
          },
          {
            "duration": 0.06862741666665784,
            "durationTicks": 14,
            "midi": 44,
            "name": "G#2",
            "ticks": 19526,
            "time": 95.71563841666668,
            "velocity": 0.6535433070866141
          },
          {
            "duration": 0.08823524999999677,
            "durationTicks": 18,
            "midi": 39,
            "name": "D#2",
            "ticks": 19526,
            "time": 95.71563841666668,
            "velocity": 0.7086614173228346
          },
          {
            "duration": 0.05392154166665364,
            "durationTicks": 11,
            "midi": 41,
            "name": "F2",
            "ticks": 19528,
            "time": 95.72544233333335,
            "velocity": 0.6535433070866141
          },
          {
            "duration": 0.049019583333318906,
            "durationTicks": 10,
            "midi": 29,
            "name": "F1",
            "ticks": 19528,
            "time": 95.72544233333335,
            "velocity": 0.5590551181102362
          },
          {
            "duration": 0.05392154166665364,
            "durationTicks": 11,
            "midi": 60,
            "name": "C4",
            "ticks": 19530,
            "time": 95.73524625000002,
            "velocity": 1
          },
          {
            "duration": 0.2941174999999987,
            "durationTicks": 60,
            "midi": 36,
            "name": "C2",
            "ticks": 19555,
            "time": 95.85779520833336,
            "velocity": 0.6535433070866141
          },
          {
            "duration": 0.08823524999999677,
            "durationTicks": 18,
            "midi": 44,
            "name": "G#2",
            "ticks": 19556,
            "time": 95.86269716666669,
            "velocity": 0.6535433070866141
          },
          {
            "duration": 0.0637254583333231,
            "durationTicks": 13,
            "midi": 44,
            "name": "G#2",
            "ticks": 19586,
            "time": 96.00975591666668,
            "velocity": 0.6535433070866141
          },
          {
            "duration": 0.0637254583333231,
            "durationTicks": 13,
            "midi": 39,
            "name": "D#2",
            "ticks": 19586,
            "time": 96.00975591666668,
            "velocity": 0.4094488188976378
          },
          {
            "duration": 0.03921566666667786,
            "durationTicks": 8,
            "midi": 41,
            "name": "F2",
            "ticks": 19588,
            "time": 96.01955983333335,
            "velocity": 0.6535433070866141
          },
          {
            "duration": 0.03921566666667786,
            "durationTicks": 8,
            "midi": 29,
            "name": "F1",
            "ticks": 19588,
            "time": 96.01955983333335,
            "velocity": 0.5590551181102362
          },
          {
            "duration": 0.04411762499998417,
            "durationTicks": 9,
            "midi": 61,
            "name": "C#4",
            "ticks": 19590,
            "time": 96.02936375000002,
            "velocity": 0.937007874015748
          },
          {
            "duration": 0.1225489583333399,
            "durationTicks": 25,
            "midi": 40,
            "name": "E2",
            "ticks": 19616,
            "time": 96.15681466666669,
            "velocity": 0.6535433070866141
          },
          {
            "duration": 0.0931372083333315,
            "durationTicks": 19,
            "midi": 44,
            "name": "G#2",
            "ticks": 19616,
            "time": 96.15681466666669,
            "velocity": 0.6535433070866141
          },
          {
            "duration": 0.05392154166665364,
            "durationTicks": 11,
            "midi": 39,
            "name": "D#2",
            "ticks": 19616,
            "time": 96.15681466666669,
            "velocity": 0.7086614173228346
          },
          {
            "duration": 0.17647050000002196,
            "durationTicks": 36,
            "midi": 41,
            "name": "F2",
            "ticks": 19618,
            "time": 96.16661858333333,
            "velocity": 0.6535433070866141
          },
          {
            "duration": 0.17647050000002196,
            "durationTicks": 36,
            "midi": 29,
            "name": "F1",
            "ticks": 19618,
            "time": 96.16661858333333,
            "velocity": 0.5590551181102362
          },
          {
            "duration": 0.014705875000004198,
            "durationTicks": 3,
            "midi": 63,
            "name": "D#4",
            "ticks": 19620,
            "time": 96.1764225,
            "velocity": 1
          },
          {
            "duration": 0.0637254583333231,
            "durationTicks": 13,
            "midi": 44,
            "name": "G#2",
            "ticks": 19646,
            "time": 96.30387341666668,
            "velocity": 0.6535433070866141
          },
          {
            "duration": 0.11764700000003359,
            "durationTicks": 24,
            "midi": 45,
            "name": "A2",
            "ticks": 19674,
            "time": 96.44112824999999,
            "velocity": 0.6535433070866141
          },
          {
            "duration": 0.09803916666669465,
            "durationTicks": 20,
            "midi": 35,
            "name": "B1",
            "ticks": 19674,
            "time": 96.44112824999999,
            "velocity": 0.6535433070866141
          },
          {
            "duration": 0.2941174999999987,
            "durationTicks": 60,
            "midi": 36,
            "name": "C2",
            "ticks": 19675,
            "time": 96.44603020833335,
            "velocity": 0.6535433070866141
          },
          {
            "duration": 0.09803916666663781,
            "durationTicks": 20,
            "midi": 49,
            "name": "C#3",
            "ticks": 19676,
            "time": 96.45093216666669,
            "velocity": 0.6535433070866141
          },
          {
            "duration": 0.029411750000008396,
            "durationTicks": 6,
            "midi": 39,
            "name": "D#2",
            "ticks": 19676,
            "time": 96.45093216666669,
            "velocity": 0.5275590551181102
          },
          {
            "duration": 0.04901958333334733,
            "durationTicks": 10,
            "midi": 62,
            "name": "D4",
            "ticks": 19680,
            "time": 96.47054,
            "velocity": 1
          },
          {
            "duration": 0.0637254583333231,
            "durationTicks": 13,
            "midi": 44,
            "name": "G#2",
            "ticks": 19706,
            "time": 96.59799091666667,
            "velocity": 0.6535433070866141
          },
          {
            "duration": 0.08823524999999677,
            "durationTicks": 18,
            "midi": 44,
            "name": "G#2",
            "ticks": 19736,
            "time": 96.74504966666669,
            "velocity": 0.6535433070866141
          },
          {
            "duration": 0.05392154166665364,
            "durationTicks": 11,
            "midi": 39,
            "name": "D#2",
            "ticks": 19736,
            "time": 96.74504966666669,
            "velocity": 0.8267716535433071
          },
          {
            "duration": 0.024509791666673664,
            "durationTicks": 5,
            "midi": 62,
            "name": "D4",
            "ticks": 19740,
            "time": 96.7646575,
            "velocity": 0.6220472440944882
          },
          {
            "duration": 0.11764700000000516,
            "durationTicks": 24,
            "midi": 40,
            "name": "E2",
            "ticks": 19766,
            "time": 96.89210841666667,
            "velocity": 0.6535433070866141
          },
          {
            "duration": 0.0637254583333231,
            "durationTicks": 13,
            "midi": 44,
            "name": "G#2",
            "ticks": 19766,
            "time": 96.89210841666667,
            "velocity": 0.6535433070866141
          },
          {
            "duration": 0.0637254583333231,
            "durationTicks": 13,
            "midi": 39,
            "name": "D#2",
            "ticks": 19766,
            "time": 96.89210841666667,
            "velocity": 0.33858267716535434
          },
          {
            "duration": 0.0637254583333231,
            "durationTicks": 13,
            "midi": 42,
            "name": "F#2",
            "ticks": 19768,
            "time": 96.90191233333334,
            "velocity": 0.6535433070866141
          },
          {
            "duration": 0.0637254583333231,
            "durationTicks": 13,
            "midi": 30,
            "name": "F#1",
            "ticks": 19768,
            "time": 96.90191233333334,
            "velocity": 0.5590551181102362
          },
          {
            "duration": 0.03431370833334313,
            "durationTicks": 7,
            "midi": 62,
            "name": "D4",
            "ticks": 19770,
            "time": 96.91171625000001,
            "velocity": 1
          },
          {
            "duration": 0.2941174999999987,
            "durationTicks": 60,
            "midi": 36,
            "name": "C2",
            "ticks": 19795,
            "time": 97.03426520833335,
            "velocity": 0.6535433070866141
          },
          {
            "duration": 0.08823524999999677,
            "durationTicks": 18,
            "midi": 44,
            "name": "G#2",
            "ticks": 19796,
            "time": 97.03916716666669,
            "velocity": 0.6535433070866141
          },
          {
            "duration": 0.0931372083333315,
            "durationTicks": 19,
            "midi": 44,
            "name": "G#2",
            "ticks": 19826,
            "time": 97.18622591666667,
            "velocity": 0.6535433070866141
          },
          {
            "duration": 0.04901958333334733,
            "durationTicks": 10,
            "midi": 42,
            "name": "F#2",
            "ticks": 19828,
            "time": 97.19602983333334,
            "velocity": 0.6535433070866141
          },
          {
            "duration": 0.04901958333334733,
            "durationTicks": 10,
            "midi": 30,
            "name": "F#1",
            "ticks": 19828,
            "time": 97.19602983333334,
            "velocity": 0.5590551181102362
          },
          {
            "duration": 0.03921566666667786,
            "durationTicks": 8,
            "midi": 60,
            "name": "C4",
            "ticks": 19830,
            "time": 97.20583375000001,
            "velocity": 0.5433070866141733
          },
          {
            "duration": 0.12745091666667463,
            "durationTicks": 26,
            "midi": 40,
            "name": "E2",
            "ticks": 19856,
            "time": 97.33328466666669,
            "velocity": 0.6535433070866141
          },
          {
            "duration": 0.0931372083333315,
            "durationTicks": 19,
            "midi": 44,
            "name": "G#2",
            "ticks": 19856,
            "time": 97.33328466666669,
            "velocity": 0.6535433070866141
          },
          {
            "duration": 0.05392154166665364,
            "durationTicks": 11,
            "midi": 39,
            "name": "D#2",
            "ticks": 19856,
            "time": 97.33328466666669,
            "velocity": 0.8031496062992126
          },
          {
            "duration": 0.2156861666666714,
            "durationTicks": 44,
            "midi": 42,
            "name": "F#2",
            "ticks": 19858,
            "time": 97.34308858333333,
            "velocity": 0.6535433070866141
          },
          {
            "duration": 0.2156861666666714,
            "durationTicks": 44,
            "midi": 30,
            "name": "F#1",
            "ticks": 19858,
            "time": 97.34308858333333,
            "velocity": 0.5590551181102362
          },
          {
            "duration": 0.049019583333318906,
            "durationTicks": 10,
            "midi": 64,
            "name": "E4",
            "ticks": 19860,
            "time": 97.35289250000002,
            "velocity": 1
          },
          {
            "duration": 0.014705874999975777,
            "durationTicks": 3,
            "midi": 62,
            "name": "D4",
            "ticks": 19860,
            "time": 97.35289250000002,
            "velocity": 0.5039370078740157
          },
          {
            "duration": 0.0637254583333231,
            "durationTicks": 13,
            "midi": 44,
            "name": "G#2",
            "ticks": 19886,
            "time": 97.48034341666667,
            "velocity": 0.6535433070866141
          },
          {
            "duration": 0.10294112500000097,
            "durationTicks": 21,
            "midi": 45,
            "name": "A2",
            "ticks": 19914,
            "time": 97.61759825000001,
            "velocity": 0.6535433070866141
          },
          {
            "duration": 0.1078430833333357,
            "durationTicks": 22,
            "midi": 35,
            "name": "B1",
            "ticks": 19914,
            "time": 97.61759825000001,
            "velocity": 0.6535433070866141
          },
          {
            "duration": 0.2941174999999987,
            "durationTicks": 60,
            "midi": 36,
            "name": "C2",
            "ticks": 19915,
            "time": 97.62250020833335,
            "velocity": 0.6535433070866141
          },
          {
            "duration": 0.0784313333333273,
            "durationTicks": 16,
            "midi": 44,
            "name": "G#2",
            "ticks": 19916,
            "time": 97.62740216666668,
            "velocity": 0.6535433070866141
          },
          {
            "duration": 0.049019583333318906,
            "durationTicks": 10,
            "midi": 62,
            "name": "D4",
            "ticks": 19920,
            "time": 97.64701000000002,
            "velocity": 0.7795275590551181
          },
          {
            "duration": 0.06862741666668626,
            "durationTicks": 14,
            "midi": 44,
            "name": "G#2",
            "ticks": 19946,
            "time": 97.77446091666667,
            "velocity": 0.6535433070866141
          },
          {
            "duration": 0.0931372083333315,
            "durationTicks": 19,
            "midi": 44,
            "name": "G#2",
            "ticks": 19976,
            "time": 97.92151966666668,
            "velocity": 0.6535433070866141
          },
          {
            "duration": 0.05392154166665364,
            "durationTicks": 11,
            "midi": 39,
            "name": "D#2",
            "ticks": 19976,
            "time": 97.92151966666668,
            "velocity": 0.8267716535433071
          },
          {
            "duration": 0.03921566666664944,
            "durationTicks": 8,
            "midi": 62,
            "name": "D4",
            "ticks": 19980,
            "time": 97.94112750000002,
            "velocity": 0.8818897637795275
          },
          {
            "duration": 0.11274504166667043,
            "durationTicks": 23,
            "midi": 40,
            "name": "E2",
            "ticks": 20006,
            "time": 98.06857841666667,
            "velocity": 0.6535433070866141
          },
          {
            "duration": 0.05392154166668206,
            "durationTicks": 11,
            "midi": 44,
            "name": "G#2",
            "ticks": 20006,
            "time": 98.06857841666667,
            "velocity": 0.6535433070866141
          },
          {
            "duration": 0.0784313333333273,
            "durationTicks": 16,
            "midi": 39,
            "name": "D#2",
            "ticks": 20006,
            "time": 98.06857841666667,
            "velocity": 0.6929133858267716
          },
          {
            "duration": 0.06372545833335153,
            "durationTicks": 13,
            "midi": 44,
            "name": "G#2",
            "ticks": 20008,
            "time": 98.07838233333334,
            "velocity": 0.6535433070866141
          },
          {
            "duration": 0.06372545833335153,
            "durationTicks": 13,
            "midi": 32,
            "name": "G#1",
            "ticks": 20008,
            "time": 98.07838233333334,
            "velocity": 0.5590551181102362
          },
          {
            "duration": 0.06862741666668626,
            "durationTicks": 14,
            "midi": 61,
            "name": "C#4",
            "ticks": 20010,
            "time": 98.08818625,
            "velocity": 1
          },
          {
            "duration": 0.2941174999999987,
            "durationTicks": 60,
            "midi": 36,
            "name": "C2",
            "ticks": 20035,
            "time": 98.21073520833335,
            "velocity": 0.6535433070866141
          },
          {
            "duration": 0.07352937499999257,
            "durationTicks": 15,
            "midi": 44,
            "name": "G#2",
            "ticks": 20036,
            "time": 98.21563716666668,
            "velocity": 0.6535433070866141
          },
          {
            "duration": 0.06372545833335153,
            "durationTicks": 13,
            "midi": 44,
            "name": "G#2",
            "ticks": 20066,
            "time": 98.36269591666667,
            "velocity": 0.6535433070866141
          },
          {
            "duration": 0.06372545833335153,
            "durationTicks": 13,
            "midi": 39,
            "name": "D#2",
            "ticks": 20066,
            "time": 98.36269591666667,
            "velocity": 0.5433070866141733
          },
          {
            "duration": 0.06862741666665784,
            "durationTicks": 14,
            "midi": 44,
            "name": "G#2",
            "ticks": 20068,
            "time": 98.37249983333334,
            "velocity": 0.6535433070866141
          },
          {
            "duration": 0.06862741666665784,
            "durationTicks": 14,
            "midi": 32,
            "name": "G#1",
            "ticks": 20068,
            "time": 98.37249983333334,
            "velocity": 0.5590551181102362
          },
          {
            "duration": 0.03921566666667786,
            "durationTicks": 8,
            "midi": 63,
            "name": "D#4",
            "ticks": 20070,
            "time": 98.38230375,
            "velocity": 1
          },
          {
            "duration": 0.13725483333331567,
            "durationTicks": 28,
            "midi": 40,
            "name": "E2",
            "ticks": 20096,
            "time": 98.50975466666668,
            "velocity": 0.6535433070866141
          },
          {
            "duration": 0.08823524999999677,
            "durationTicks": 18,
            "midi": 44,
            "name": "G#2",
            "ticks": 20096,
            "time": 98.50975466666668,
            "velocity": 0.6535433070866141
          },
          {
            "duration": 0.04901958333334733,
            "durationTicks": 10,
            "midi": 39,
            "name": "D#2",
            "ticks": 20096,
            "time": 98.50975466666668,
            "velocity": 0.8267716535433071
          },
          {
            "duration": 0.20588225000000193,
            "durationTicks": 42,
            "midi": 44,
            "name": "G#2",
            "ticks": 20098,
            "time": 98.51955858333335,
            "velocity": 0.6535433070866141
          },
          {
            "duration": 0.21078420833333666,
            "durationTicks": 43,
            "midi": 32,
            "name": "G#1",
            "ticks": 20098,
            "time": 98.51955858333335,
            "velocity": 0.5590551181102362
          },
          {
            "duration": 0.029411750000008396,
            "durationTicks": 6,
            "midi": 64,
            "name": "E4",
            "ticks": 20100,
            "time": 98.52936250000002,
            "velocity": 1
          },
          {
            "duration": 0.07352937500002099,
            "durationTicks": 15,
            "midi": 44,
            "name": "G#2",
            "ticks": 20126,
            "time": 98.65681341666667,
            "velocity": 0.6535433070866141
          },
          {
            "duration": 0.11764700000000516,
            "durationTicks": 24,
            "midi": 45,
            "name": "A2",
            "ticks": 20154,
            "time": 98.79406825000001,
            "velocity": 0.6535433070866141
          },
          {
            "duration": 0.09803916666666623,
            "durationTicks": 20,
            "midi": 35,
            "name": "B1",
            "ticks": 20154,
            "time": 98.79406825000001,
            "velocity": 0.6535433070866141
          },
          {
            "duration": 0.2941174999999987,
            "durationTicks": 60,
            "midi": 36,
            "name": "C2",
            "ticks": 20155,
            "time": 98.79897020833334,
            "velocity": 0.6535433070866141
          },
          {
            "duration": 0.08823524999999677,
            "durationTicks": 18,
            "midi": 44,
            "name": "G#2",
            "ticks": 20156,
            "time": 98.80387216666668,
            "velocity": 0.6535433070866141
          },
          {
            "duration": 0.03921566666664944,
            "durationTicks": 8,
            "midi": 62,
            "name": "D4",
            "ticks": 20160,
            "time": 98.82348000000002,
            "velocity": 0.905511811023622
          },
          {
            "duration": 0.0637254583333231,
            "durationTicks": 13,
            "midi": 44,
            "name": "G#2",
            "ticks": 20186,
            "time": 98.95093091666669,
            "velocity": 0.6535433070866141
          },
          {
            "duration": 0.0784313333333273,
            "durationTicks": 16,
            "midi": 44,
            "name": "G#2",
            "ticks": 20216,
            "time": 99.09798966666668,
            "velocity": 0.6535433070866141
          },
          {
            "duration": 0.04901958333334733,
            "durationTicks": 10,
            "midi": 39,
            "name": "D#2",
            "ticks": 20216,
            "time": 99.09798966666668,
            "velocity": 0.7244094488188977
          },
          {
            "duration": 0.05392154166665364,
            "durationTicks": 11,
            "midi": 46,
            "name": "A#2",
            "ticks": 20218,
            "time": 99.10779358333335,
            "velocity": 0.6535433070866141
          },
          {
            "duration": 0.049019583333318906,
            "durationTicks": 10,
            "midi": 34,
            "name": "A#1",
            "ticks": 20218,
            "time": 99.10779358333335,
            "velocity": 0.5590551181102362
          },
          {
            "duration": 0.03921566666664944,
            "durationTicks": 8,
            "midi": 62,
            "name": "D4",
            "ticks": 20220,
            "time": 99.11759750000002,
            "velocity": 0.8503937007874016
          },
          {
            "duration": 0.1274509166666462,
            "durationTicks": 26,
            "midi": 40,
            "name": "E2",
            "ticks": 20246,
            "time": 99.24504841666669,
            "velocity": 0.6535433070866141
          },
          {
            "duration": 0.05392154166665364,
            "durationTicks": 11,
            "midi": 44,
            "name": "G#2",
            "ticks": 20246,
            "time": 99.24504841666669,
            "velocity": 0.6535433070866141
          },
          {
            "duration": 0.0637254583333231,
            "durationTicks": 13,
            "midi": 39,
            "name": "D#2",
            "ticks": 20246,
            "time": 99.24504841666669,
            "velocity": 0.3937007874015748
          },
          {
            "duration": 0.07843133333335572,
            "durationTicks": 16,
            "midi": 46,
            "name": "A#2",
            "ticks": 20248,
            "time": 99.25485233333333,
            "velocity": 0.6535433070866141
          },
          {
            "duration": 0.07843133333335572,
            "durationTicks": 16,
            "midi": 34,
            "name": "A#1",
            "ticks": 20248,
            "time": 99.25485233333333,
            "velocity": 0.5590551181102362
          },
          {
            "duration": 0.024509791666673664,
            "durationTicks": 5,
            "midi": 60,
            "name": "C4",
            "ticks": 20250,
            "time": 99.26465625,
            "velocity": 1
          },
          {
            "duration": 0.2941174999999987,
            "durationTicks": 60,
            "midi": 36,
            "name": "C2",
            "ticks": 20275,
            "time": 99.38720520833334,
            "velocity": 0.6535433070866141
          },
          {
            "duration": 0.0784313333333273,
            "durationTicks": 16,
            "midi": 44,
            "name": "G#2",
            "ticks": 20276,
            "time": 99.39210716666668,
            "velocity": 0.6535433070866141
          },
          {
            "duration": 0.029411750000008396,
            "durationTicks": 6,
            "midi": 39,
            "name": "D#2",
            "ticks": 20276,
            "time": 99.39210716666668,
            "velocity": 0.5354330708661418
          },
          {
            "duration": 0.03921566666664944,
            "durationTicks": 8,
            "midi": 62,
            "name": "D4",
            "ticks": 20280,
            "time": 99.41171500000002,
            "velocity": 0.8267716535433071
          },
          {
            "duration": 0.05392154166668206,
            "durationTicks": 11,
            "midi": 46,
            "name": "A#2",
            "ticks": 20308,
            "time": 99.54896983333333,
            "velocity": 0.6535433070866141
          },
          {
            "duration": 0.05392154166668206,
            "durationTicks": 11,
            "midi": 34,
            "name": "A#1",
            "ticks": 20308,
            "time": 99.54896983333333,
            "velocity": 0.5590551181102362
          },
          {
            "duration": 0.13235287500000936,
            "durationTicks": 27,
            "midi": 40,
            "name": "E2",
            "ticks": 20336,
            "time": 99.68622466666667,
            "velocity": 0.6535433070866141
          },
          {
            "duration": 0.10294112500000097,
            "durationTicks": 21,
            "midi": 44,
            "name": "G#2",
            "ticks": 20336,
            "time": 99.68622466666667,
            "velocity": 0.6535433070866141
          },
          {
            "duration": 0.05392154166668206,
            "durationTicks": 11,
            "midi": 39,
            "name": "D#2",
            "ticks": 20336,
            "time": 99.68622466666667,
            "velocity": 0.937007874015748
          },
          {
            "duration": 0.19607833333333247,
            "durationTicks": 40,
            "midi": 46,
            "name": "A#2",
            "ticks": 20338,
            "time": 99.69602858333334,
            "velocity": 0.6535433070866141
          },
          {
            "duration": 0.19607833333333247,
            "durationTicks": 40,
            "midi": 34,
            "name": "A#1",
            "ticks": 20338,
            "time": 99.69602858333334,
            "velocity": 0.5590551181102362
          },
          {
            "duration": 0.04411762499998417,
            "durationTicks": 9,
            "midi": 62,
            "name": "D4",
            "ticks": 20340,
            "time": 99.70583250000001,
            "velocity": 0.8503937007874016
          },
          {
            "duration": 0.09803916666666623,
            "durationTicks": 20,
            "midi": 45,
            "name": "A2",
            "ticks": 20394,
            "time": 99.97053825,
            "velocity": 0.6535433070866141
          },
          {
            "duration": 0.10294112500000097,
            "durationTicks": 21,
            "midi": 35,
            "name": "B1",
            "ticks": 20394,
            "time": 99.97053825,
            "velocity": 0.6535433070866141
          },
          {
            "duration": 0.0637254583333231,
            "durationTicks": 13,
            "midi": 62,
            "name": "D4",
            "ticks": 20400,
            "time": 99.99995000000001,
            "velocity": 0.9763779527559056
          },
          {
            "duration": 0.09803916666666623,
            "durationTicks": 20,
            "midi": 45,
            "name": "A2",
            "ticks": 20454,
            "time": 100.26465575,
            "velocity": 0.6535433070866141
          },
          {
            "duration": 0.08823524999999677,
            "durationTicks": 18,
            "midi": 35,
            "name": "B1",
            "ticks": 20454,
            "time": 100.26465575,
            "velocity": 0.6535433070866141
          },
          {
            "duration": 0.03921566666667786,
            "durationTicks": 8,
            "midi": 62,
            "name": "D4",
            "ticks": 20460,
            "time": 100.29406750000001,
            "velocity": 0.9763779527559056
          },
          {
            "duration": 0.03921566666664944,
            "durationTicks": 8,
            "midi": 60,
            "name": "C4",
            "ticks": 20490,
            "time": 100.44112625000002,
            "velocity": 0.8031496062992126
          },
          {
            "duration": 0.11764700000000516,
            "durationTicks": 24,
            "midi": 45,
            "name": "A2",
            "ticks": 20514,
            "time": 100.55877325,
            "velocity": 0.6535433070866141
          },
          {
            "duration": 0.0931372083333315,
            "durationTicks": 19,
            "midi": 35,
            "name": "B1",
            "ticks": 20514,
            "time": 100.55877325,
            "velocity": 0.6535433070866141
          },
          {
            "duration": 0.049019583333318906,
            "durationTicks": 10,
            "midi": 61,
            "name": "C#4",
            "ticks": 20550,
            "time": 100.73524375000002,
            "velocity": 0.8267716535433071
          },
          {
            "duration": 0.0931372083333315,
            "durationTicks": 19,
            "midi": 45,
            "name": "A2",
            "ticks": 20574,
            "time": 100.85289075,
            "velocity": 0.6535433070866141
          },
          {
            "duration": 0.0931372083333315,
            "durationTicks": 19,
            "midi": 35,
            "name": "B1",
            "ticks": 20574,
            "time": 100.85289075,
            "velocity": 0.6535433070866141
          },
          {
            "duration": 0.05392154166668206,
            "durationTicks": 11,
            "midi": 63,
            "name": "D#4",
            "ticks": 20580,
            "time": 100.88230250000001,
            "velocity": 1
          },
          {
            "duration": 0.029411750000008396,
            "durationTicks": 6,
            "midi": 61,
            "name": "C#4",
            "ticks": 20610,
            "time": 101.02936125000002,
            "velocity": 0.905511811023622
          },
          {
            "duration": 0.09803916666669465,
            "durationTicks": 20,
            "midi": 45,
            "name": "A2",
            "ticks": 20634,
            "time": 101.14700825,
            "velocity": 0.6535433070866141
          },
          {
            "duration": 0.07352937499999257,
            "durationTicks": 15,
            "midi": 35,
            "name": "B1",
            "ticks": 20634,
            "time": 101.14700825,
            "velocity": 0.6535433070866141
          },
          {
            "duration": 0.5882349999999974,
            "durationTicks": 120,
            "midi": 36,
            "name": "C2",
            "ticks": 20635,
            "time": 101.15191020833336,
            "velocity": 0.6535433070866141
          },
          {
            "duration": 0.11764700000000516,
            "durationTicks": 24,
            "midi": 57,
            "name": "A3",
            "ticks": 20636,
            "time": 101.15681216666667,
            "velocity": 0.6535433070866141
          },
          {
            "duration": 0.024509791666673664,
            "durationTicks": 5,
            "midi": 46,
            "name": "A#2",
            "ticks": 20638,
            "time": 101.16661608333334,
            "velocity": 0.6535433070866141
          },
          {
            "duration": 0.024509791666673664,
            "durationTicks": 5,
            "midi": 34,
            "name": "A#1",
            "ticks": 20638,
            "time": 101.16661608333334,
            "velocity": 0.5590551181102362
          },
          {
            "duration": 0.03921566666667786,
            "durationTicks": 8,
            "midi": 64,
            "name": "E4",
            "ticks": 20640,
            "time": 101.17642000000001,
            "velocity": 1
          },
          {
            "duration": 0.1960783333333609,
            "durationTicks": 40,
            "midi": 35,
            "name": "B1",
            "ticks": 20874,
            "time": 102.32347825,
            "velocity": 0.6535433070866141
          },
          {
            "duration": 0.1960783333333609,
            "durationTicks": 40,
            "midi": 45,
            "name": "A2",
            "ticks": 20874,
            "time": 102.32347825,
            "velocity": 0.6535433070866141
          },
          {
            "duration": 0.19607833333333247,
            "durationTicks": 40,
            "midi": 35,
            "name": "B1",
            "ticks": 20914,
            "time": 102.51955658333335,
            "velocity": 0.6535433070866141
          },
          {
            "duration": 0.19607833333333247,
            "durationTicks": 40,
            "midi": 45,
            "name": "A2",
            "ticks": 20914,
            "time": 102.51955658333335,
            "velocity": 0.6535433070866141
          },
          {
            "duration": 0.19607833333330404,
            "durationTicks": 40,
            "midi": 35,
            "name": "B1",
            "ticks": 20954,
            "time": 102.71563491666669,
            "velocity": 0.6535433070866141
          },
          {
            "duration": 0.19607833333330404,
            "durationTicks": 40,
            "midi": 45,
            "name": "A2",
            "ticks": 20954,
            "time": 102.71563491666669,
            "velocity": 0.6535433070866141
          },
          {
            "duration": 0.1960783333333609,
            "durationTicks": 40,
            "midi": 35,
            "name": "B1",
            "ticks": 20994,
            "time": 102.91171324999999,
            "velocity": 0.6535433070866141
          },
          {
            "duration": 0.1960783333333609,
            "durationTicks": 40,
            "midi": 45,
            "name": "A2",
            "ticks": 20994,
            "time": 102.91171324999999,
            "velocity": 0.6535433070866141
          },
          {
            "duration": 0.19607833333333247,
            "durationTicks": 40,
            "midi": 35,
            "name": "B1",
            "ticks": 21034,
            "time": 103.10779158333335,
            "velocity": 0.6535433070866141
          },
          {
            "duration": 0.19607833333333247,
            "durationTicks": 40,
            "midi": 45,
            "name": "A2",
            "ticks": 21034,
            "time": 103.10779158333335,
            "velocity": 0.6535433070866141
          },
          {
            "duration": 0.19607833333333247,
            "durationTicks": 40,
            "midi": 35,
            "name": "B1",
            "ticks": 21074,
            "time": 103.30386991666668,
            "velocity": 0.6535433070866141
          },
          {
            "duration": 0.19607833333333247,
            "durationTicks": 40,
            "midi": 45,
            "name": "A2",
            "ticks": 21074,
            "time": 103.30386991666668,
            "velocity": 0.6535433070866141
          },
          {
            "duration": 0.11274504166667043,
            "durationTicks": 23,
            "midi": 45,
            "name": "A2",
            "ticks": 21114,
            "time": 103.49994825000002,
            "velocity": 0.6535433070866141
          },
          {
            "duration": 0.09803916666666623,
            "durationTicks": 20,
            "midi": 35,
            "name": "B1",
            "ticks": 21114,
            "time": 103.49994825000002,
            "velocity": 0.6535433070866141
          },
          {
            "duration": 0.2941174999999987,
            "durationTicks": 60,
            "midi": 36,
            "name": "C2",
            "ticks": 21115,
            "time": 103.50485020833335,
            "velocity": 0.6535433070866141
          },
          {
            "duration": 0.08823524999999677,
            "durationTicks": 18,
            "midi": 49,
            "name": "C#3",
            "ticks": 21116,
            "time": 103.50975216666669,
            "velocity": 0.6535433070866141
          },
          {
            "duration": 0.06862741666665784,
            "durationTicks": 14,
            "midi": 62,
            "name": "D4",
            "ticks": 21120,
            "time": 103.52936000000003,
            "velocity": 1
          },
          {
            "duration": 0.08823524999999677,
            "durationTicks": 18,
            "midi": 44,
            "name": "G#2",
            "ticks": 21176,
            "time": 103.80386966666669,
            "velocity": 0.6535433070866141
          },
          {
            "duration": 0.049019583333318906,
            "durationTicks": 10,
            "midi": 39,
            "name": "D#2",
            "ticks": 21176,
            "time": 103.80386966666669,
            "velocity": 0.937007874015748
          },
          {
            "duration": 0.029411750000008396,
            "durationTicks": 6,
            "midi": 46,
            "name": "A#2",
            "ticks": 21178,
            "time": 103.81367358333333,
            "velocity": 0.6535433070866141
          },
          {
            "duration": 0.029411750000008396,
            "durationTicks": 6,
            "midi": 34,
            "name": "A#1",
            "ticks": 21178,
            "time": 103.81367358333333,
            "velocity": 0.5590551181102362
          },
          {
            "duration": 0.029411749999979975,
            "durationTicks": 6,
            "midi": 62,
            "name": "D4",
            "ticks": 21180,
            "time": 103.82347750000002,
            "velocity": 0.7401574803149606
          },
          {
            "duration": 0.11764700000000516,
            "durationTicks": 24,
            "midi": 40,
            "name": "E2",
            "ticks": 21206,
            "time": 103.95092841666667,
            "velocity": 0.6535433070866141
          },
          {
            "duration": 0.07352937500002099,
            "durationTicks": 15,
            "midi": 44,
            "name": "G#2",
            "ticks": 21206,
            "time": 103.95092841666667,
            "velocity": 0.6535433070866141
          },
          {
            "duration": 0.0784313333333273,
            "durationTicks": 16,
            "midi": 39,
            "name": "D#2",
            "ticks": 21206,
            "time": 103.95092841666667,
            "velocity": 0.5511811023622047
          },
          {
            "duration": 0.06862741666665784,
            "durationTicks": 14,
            "midi": 46,
            "name": "A#2",
            "ticks": 21208,
            "time": 103.96073233333334,
            "velocity": 0.6535433070866141
          },
          {
            "duration": 0.06862741666665784,
            "durationTicks": 14,
            "midi": 34,
            "name": "A#1",
            "ticks": 21208,
            "time": 103.96073233333334,
            "velocity": 0.5590551181102362
          },
          {
            "duration": 0.01960783333333893,
            "durationTicks": 4,
            "midi": 60,
            "name": "C4",
            "ticks": 21210,
            "time": 103.97053625000001,
            "velocity": 0.6614173228346457
          },
          {
            "duration": 0.2941174999999987,
            "durationTicks": 60,
            "midi": 36,
            "name": "C2",
            "ticks": 21235,
            "time": 104.09308520833335,
            "velocity": 0.6535433070866141
          },
          {
            "duration": 0.0784313333333273,
            "durationTicks": 16,
            "midi": 44,
            "name": "G#2",
            "ticks": 21236,
            "time": 104.09798716666668,
            "velocity": 0.6535433070866141
          },
          {
            "duration": 0.0637254583333231,
            "durationTicks": 13,
            "midi": 44,
            "name": "G#2",
            "ticks": 21266,
            "time": 104.24504591666667,
            "velocity": 0.6535433070866141
          },
          {
            "duration": 0.0637254583333231,
            "durationTicks": 13,
            "midi": 39,
            "name": "D#2",
            "ticks": 21266,
            "time": 104.24504591666667,
            "velocity": 0.41732283464566927
          },
          {
            "duration": 0.04901958333334733,
            "durationTicks": 10,
            "midi": 46,
            "name": "A#2",
            "ticks": 21268,
            "time": 104.25484983333334,
            "velocity": 0.6535433070866141
          },
          {
            "duration": 0.05392154166665364,
            "durationTicks": 11,
            "midi": 34,
            "name": "A#1",
            "ticks": 21268,
            "time": 104.25484983333334,
            "velocity": 0.5590551181102362
          },
          {
            "duration": 0.024509791666673664,
            "durationTicks": 5,
            "midi": 61,
            "name": "C#4",
            "ticks": 21270,
            "time": 104.26465375000001,
            "velocity": 0.8818897637795275
          },
          {
            "duration": 0.1225489583333399,
            "durationTicks": 25,
            "midi": 40,
            "name": "E2",
            "ticks": 21296,
            "time": 104.39210466666668,
            "velocity": 0.6535433070866141
          },
          {
            "duration": 0.0784313333333273,
            "durationTicks": 16,
            "midi": 44,
            "name": "G#2",
            "ticks": 21296,
            "time": 104.39210466666668,
            "velocity": 0.6535433070866141
          },
          {
            "duration": 0.05392154166665364,
            "durationTicks": 11,
            "midi": 39,
            "name": "D#2",
            "ticks": 21296,
            "time": 104.39210466666668,
            "velocity": 0.8267716535433071
          },
          {
            "duration": 0.18627441666669142,
            "durationTicks": 38,
            "midi": 46,
            "name": "A#2",
            "ticks": 21298,
            "time": 104.40190858333332,
            "velocity": 0.6535433070866141
          },
          {
            "duration": 0.19117637500002616,
            "durationTicks": 39,
            "midi": 34,
            "name": "A#1",
            "ticks": 21298,
            "time": 104.40190858333332,
            "velocity": 0.5590551181102362
          },
          {
            "duration": 0.04411762499998417,
            "durationTicks": 9,
            "midi": 64,
            "name": "E4",
            "ticks": 21300,
            "time": 104.41171250000002,
            "velocity": 1
          },
          {
            "duration": 0.05392154166668206,
            "durationTicks": 11,
            "midi": 44,
            "name": "G#2",
            "ticks": 21326,
            "time": 104.53916341666667,
            "velocity": 0.6535433070866141
          },
          {
            "duration": 0.1225489583333399,
            "durationTicks": 25,
            "midi": 45,
            "name": "A2",
            "ticks": 21354,
            "time": 104.67641825000001,
            "velocity": 0.6535433070866141
          },
          {
            "duration": 0.0784313333333273,
            "durationTicks": 16,
            "midi": 35,
            "name": "B1",
            "ticks": 21354,
            "time": 104.67641825000001,
            "velocity": 0.6535433070866141
          },
          {
            "duration": 0.2941174999999987,
            "durationTicks": 60,
            "midi": 36,
            "name": "C2",
            "ticks": 21355,
            "time": 104.68132020833335,
            "velocity": 0.6535433070866141
          },
          {
            "duration": 0.07352937499999257,
            "durationTicks": 15,
            "midi": 44,
            "name": "G#2",
            "ticks": 21356,
            "time": 104.68622216666668,
            "velocity": 0.6535433070866141
          },
          {
            "duration": 0.029411750000008396,
            "durationTicks": 6,
            "midi": 62,
            "name": "D4",
            "ticks": 21360,
            "time": 104.70583000000002,
            "velocity": 0.8503937007874016
          },
          {
            "duration": 0.06862741666668626,
            "durationTicks": 14,
            "midi": 44,
            "name": "G#2",
            "ticks": 21386,
            "time": 104.83328091666667,
            "velocity": 0.6535433070866141
          },
          {
            "duration": 0.07843133333335572,
            "durationTicks": 16,
            "midi": 39,
            "name": "D#2",
            "ticks": 21386,
            "time": 104.83328091666667,
            "velocity": 0.7401574803149606
          },
          {
            "duration": 0.06372545833335153,
            "durationTicks": 13,
            "midi": 46,
            "name": "A#2",
            "ticks": 21388,
            "time": 104.84308483333334,
            "velocity": 0.6535433070866141
          },
          {
            "duration": 0.06372545833335153,
            "durationTicks": 13,
            "midi": 34,
            "name": "A#1",
            "ticks": 21388,
            "time": 104.84308483333334,
            "velocity": 0.5590551181102362
          },
          {
            "duration": 0.03921566666667786,
            "durationTicks": 8,
            "midi": 62,
            "name": "D4",
            "ticks": 21390,
            "time": 104.85288875,
            "velocity": 1
          },
          {
            "duration": 0.07352937499999257,
            "durationTicks": 15,
            "midi": 44,
            "name": "G#2",
            "ticks": 21416,
            "time": 104.98033966666668,
            "velocity": 0.6535433070866141
          },
          {
            "duration": 0.04901958333334733,
            "durationTicks": 10,
            "midi": 39,
            "name": "D#2",
            "ticks": 21416,
            "time": 104.98033966666668,
            "velocity": 0.8503937007874016
          },
          {
            "duration": 0.12745091666667463,
            "durationTicks": 26,
            "midi": 40,
            "name": "E2",
            "ticks": 21446,
            "time": 105.12739841666667,
            "velocity": 0.6535433070866141
          },
          {
            "duration": 0.06372545833335153,
            "durationTicks": 13,
            "midi": 44,
            "name": "G#2",
            "ticks": 21446,
            "time": 105.12739841666667,
            "velocity": 0.6535433070866141
          },
          {
            "duration": 0.07843133333335572,
            "durationTicks": 16,
            "midi": 39,
            "name": "D#2",
            "ticks": 21446,
            "time": 105.12739841666667,
            "velocity": 0.7244094488188977
          },
          {
            "duration": 0.05392154166668206,
            "durationTicks": 11,
            "midi": 46,
            "name": "A#2",
            "ticks": 21448,
            "time": 105.13720233333333,
            "velocity": 0.6535433070866141
          },
          {
            "duration": 0.05392154166668206,
            "durationTicks": 11,
            "midi": 34,
            "name": "A#1",
            "ticks": 21448,
            "time": 105.13720233333333,
            "velocity": 0.5590551181102362
          },
          {
            "duration": 0.0637254583333231,
            "durationTicks": 13,
            "midi": 62,
            "name": "D4",
            "ticks": 21450,
            "time": 105.14700625,
            "velocity": 1
          },
          {
            "duration": 0.2941174999999987,
            "durationTicks": 60,
            "midi": 36,
            "name": "C2",
            "ticks": 21475,
            "time": 105.26955520833334,
            "velocity": 0.6535433070866141
          },
          {
            "duration": 0.07352937499999257,
            "durationTicks": 15,
            "midi": 44,
            "name": "G#2",
            "ticks": 21476,
            "time": 105.27445716666668,
            "velocity": 0.6535433070866141
          },
          {
            "duration": 0.0637254583333231,
            "durationTicks": 13,
            "midi": 44,
            "name": "G#2",
            "ticks": 21506,
            "time": 105.42151591666669,
            "velocity": 0.6535433070866141
          },
          {
            "duration": 0.07352937499999257,
            "durationTicks": 15,
            "midi": 39,
            "name": "D#2",
            "ticks": 21506,
            "time": 105.42151591666669,
            "velocity": 0.3700787401574803
          },
          {
            "duration": 0.05882350000001679,
            "durationTicks": 12,
            "midi": 46,
            "name": "A#2",
            "ticks": 21508,
            "time": 105.43131983333333,
            "velocity": 0.6535433070866141
          },
          {
            "duration": 0.05392154166668206,
            "durationTicks": 11,
            "midi": 34,
            "name": "A#1",
            "ticks": 21508,
            "time": 105.43131983333333,
            "velocity": 0.5590551181102362
          },
          {
            "duration": 0.044117625000012595,
            "durationTicks": 9,
            "midi": 62,
            "name": "D4",
            "ticks": 21510,
            "time": 105.44112375,
            "velocity": 1
          },
          {
            "duration": 0.14705875000001356,
            "durationTicks": 30,
            "midi": 40,
            "name": "E2",
            "ticks": 21536,
            "time": 105.56857466666668,
            "velocity": 0.6535433070866141
          },
          {
            "duration": 0.0784313333333273,
            "durationTicks": 16,
            "midi": 44,
            "name": "G#2",
            "ticks": 21536,
            "time": 105.56857466666668,
            "velocity": 0.6535433070866141
          },
          {
            "duration": 0.05392154166668206,
            "durationTicks": 11,
            "midi": 39,
            "name": "D#2",
            "ticks": 21536,
            "time": 105.56857466666668,
            "velocity": 0.7795275590551181
          },
          {
            "duration": 0.19117637499999773,
            "durationTicks": 39,
            "midi": 46,
            "name": "A#2",
            "ticks": 21538,
            "time": 105.57837858333335,
            "velocity": 0.6535433070866141
          },
          {
            "duration": 0.19117637499999773,
            "durationTicks": 39,
            "midi": 34,
            "name": "A#1",
            "ticks": 21538,
            "time": 105.57837858333335,
            "velocity": 0.5590551181102362
          },
          {
            "duration": 0.024509791666645242,
            "durationTicks": 5,
            "midi": 78,
            "name": "F#5",
            "ticks": 21540,
            "time": 105.58818250000002,
            "velocity": 1
          },
          {
            "duration": 0.05392154166665364,
            "durationTicks": 11,
            "midi": 44,
            "name": "G#2",
            "ticks": 21566,
            "time": 105.71563341666669,
            "velocity": 0.6535433070866141
          },
          {
            "duration": 0.0637254583333231,
            "durationTicks": 13,
            "midi": 39,
            "name": "D#2",
            "ticks": 21566,
            "time": 105.71563341666669,
            "velocity": 0.41732283464566927
          },
          {
            "duration": 0.10294112500000097,
            "durationTicks": 21,
            "midi": 45,
            "name": "A2",
            "ticks": 21594,
            "time": 105.85288825,
            "velocity": 0.6535433070866141
          },
          {
            "duration": 0.06862741666665784,
            "durationTicks": 14,
            "midi": 35,
            "name": "B1",
            "ticks": 21594,
            "time": 105.85288825,
            "velocity": 0.6535433070866141
          },
          {
            "duration": 0.2941174999999987,
            "durationTicks": 60,
            "midi": 36,
            "name": "C2",
            "ticks": 21595,
            "time": 105.85779020833334,
            "velocity": 0.6535433070866141
          },
          {
            "duration": 0.0784313333333273,
            "durationTicks": 16,
            "midi": 44,
            "name": "G#2",
            "ticks": 21596,
            "time": 105.86269216666668,
            "velocity": 0.6535433070866141
          },
          {
            "duration": 0.05392154166665364,
            "durationTicks": 11,
            "midi": 44,
            "name": "G#2",
            "ticks": 21626,
            "time": 106.00975091666669,
            "velocity": 0.6535433070866141
          },
          {
            "duration": 0.06372545833335153,
            "durationTicks": 13,
            "midi": 46,
            "name": "A#2",
            "ticks": 21628,
            "time": 106.01955483333333,
            "velocity": 0.6535433070866141
          },
          {
            "duration": 0.06862741666668626,
            "durationTicks": 14,
            "midi": 34,
            "name": "A#1",
            "ticks": 21628,
            "time": 106.01955483333333,
            "velocity": 0.5590551181102362
          },
          {
            "duration": 0.05392154166668206,
            "durationTicks": 11,
            "midi": 61,
            "name": "C#4",
            "ticks": 21630,
            "time": 106.02935875,
            "velocity": 0.6377952755905512
          },
          {
            "duration": 0.0784313333333273,
            "durationTicks": 16,
            "midi": 44,
            "name": "G#2",
            "ticks": 21656,
            "time": 106.15680966666667,
            "velocity": 0.6535433070866141
          },
          {
            "duration": 0.04901958333334733,
            "durationTicks": 10,
            "midi": 39,
            "name": "D#2",
            "ticks": 21656,
            "time": 106.15680966666667,
            "velocity": 0.937007874015748
          },
          {
            "duration": 0.04411762499998417,
            "durationTicks": 9,
            "midi": 62,
            "name": "D4",
            "ticks": 21660,
            "time": 106.17641750000001,
            "velocity": 1
          },
          {
            "duration": 0.13725483333331567,
            "durationTicks": 28,
            "midi": 40,
            "name": "E2",
            "ticks": 21686,
            "time": 106.30386841666669,
            "velocity": 0.6535433070866141
          },
          {
            "duration": 0.05392154166665364,
            "durationTicks": 11,
            "midi": 44,
            "name": "G#2",
            "ticks": 21686,
            "time": 106.30386841666669,
            "velocity": 0.6535433070866141
          },
          {
            "duration": 0.0931372083333315,
            "durationTicks": 19,
            "midi": 39,
            "name": "D#2",
            "ticks": 21686,
            "time": 106.30386841666669,
            "velocity": 0.48031496062992124
          },
          {
            "duration": 0.05392154166668206,
            "durationTicks": 11,
            "midi": 46,
            "name": "A#2",
            "ticks": 21688,
            "time": 106.31367233333333,
            "velocity": 0.6535433070866141
          },
          {
            "duration": 0.05392154166668206,
            "durationTicks": 11,
            "midi": 34,
            "name": "A#1",
            "ticks": 21688,
            "time": 106.31367233333333,
            "velocity": 0.5590551181102362
          },
          {
            "duration": 0.06862741666668626,
            "durationTicks": 14,
            "midi": 60,
            "name": "C4",
            "ticks": 21690,
            "time": 106.32347625,
            "velocity": 0.905511811023622
          },
          {
            "duration": 0.2941174999999987,
            "durationTicks": 60,
            "midi": 36,
            "name": "C2",
            "ticks": 21715,
            "time": 106.44602520833334,
            "velocity": 0.6535433070866141
          },
          {
            "duration": 0.07352937499999257,
            "durationTicks": 15,
            "midi": 44,
            "name": "G#2",
            "ticks": 21716,
            "time": 106.45092716666667,
            "velocity": 0.6535433070866141
          },
          {
            "duration": 0.049019583333318906,
            "durationTicks": 10,
            "midi": 46,
            "name": "A#2",
            "ticks": 21718,
            "time": 106.46073108333334,
            "velocity": 0.6535433070866141
          },
          {
            "duration": 0.049019583333318906,
            "durationTicks": 10,
            "midi": 34,
            "name": "A#1",
            "ticks": 21718,
            "time": 106.46073108333334,
            "velocity": 0.5590551181102362
          },
          {
            "duration": 0.029411750000008396,
            "durationTicks": 6,
            "midi": 63,
            "name": "D#4",
            "ticks": 21720,
            "time": 106.47053500000001,
            "velocity": 0.8818897637795275
          },
          {
            "duration": 0.06862741666665784,
            "durationTicks": 14,
            "midi": 44,
            "name": "G#2",
            "ticks": 21746,
            "time": 106.59798591666669,
            "velocity": 0.6535433070866141
          },
          {
            "duration": 0.0637254583333231,
            "durationTicks": 13,
            "midi": 39,
            "name": "D#2",
            "ticks": 21746,
            "time": 106.59798591666669,
            "velocity": 0.5433070866141733
          },
          {
            "duration": 0.044117625000012595,
            "durationTicks": 9,
            "midi": 46,
            "name": "A#2",
            "ticks": 21748,
            "time": 106.60778983333333,
            "velocity": 0.6535433070866141
          },
          {
            "duration": 0.044117625000012595,
            "durationTicks": 9,
            "midi": 34,
            "name": "A#1",
            "ticks": 21748,
            "time": 106.60778983333333,
            "velocity": 0.5590551181102362
          },
          {
            "duration": 0.04901958333334733,
            "durationTicks": 10,
            "midi": 61,
            "name": "C#4",
            "ticks": 21750,
            "time": 106.61759375,
            "velocity": 0.9763779527559056
          },
          {
            "duration": 0.14215679166667883,
            "durationTicks": 29,
            "midi": 40,
            "name": "E2",
            "ticks": 21776,
            "time": 106.74504466666667,
            "velocity": 0.6535433070866141
          },
          {
            "duration": 0.0784313333333273,
            "durationTicks": 16,
            "midi": 44,
            "name": "G#2",
            "ticks": 21776,
            "time": 106.74504466666667,
            "velocity": 0.6535433070866141
          },
          {
            "duration": 0.05392154166668206,
            "durationTicks": 11,
            "midi": 39,
            "name": "D#2",
            "ticks": 21776,
            "time": 106.74504466666667,
            "velocity": 0.8503937007874016
          },
          {
            "duration": 0.186274416666663,
            "durationTicks": 38,
            "midi": 46,
            "name": "A#2",
            "ticks": 21778,
            "time": 106.75484858333334,
            "velocity": 0.6535433070866141
          },
          {
            "duration": 0.186274416666663,
            "durationTicks": 38,
            "midi": 34,
            "name": "A#1",
            "ticks": 21778,
            "time": 106.75484858333334,
            "velocity": 0.5590551181102362
          },
          {
            "duration": 0.04901958333334733,
            "durationTicks": 10,
            "midi": 63,
            "name": "D#4",
            "ticks": 21780,
            "time": 106.76465250000001,
            "velocity": 1
          },
          {
            "duration": 0.08823524999999677,
            "durationTicks": 18,
            "midi": 44,
            "name": "G#2",
            "ticks": 21806,
            "time": 106.89210341666669,
            "velocity": 0.6535433070866141
          },
          {
            "duration": 0.049019583333318906,
            "durationTicks": 10,
            "midi": 39,
            "name": "D#2",
            "ticks": 21806,
            "time": 106.89210341666669,
            "velocity": 0.2677165354330709
          },
          {
            "duration": 0.09803916666669465,
            "durationTicks": 20,
            "midi": 45,
            "name": "A2",
            "ticks": 21834,
            "time": 107.02935825,
            "velocity": 0.6535433070866141
          },
          {
            "duration": 0.07843133333335572,
            "durationTicks": 16,
            "midi": 35,
            "name": "B1",
            "ticks": 21834,
            "time": 107.02935825,
            "velocity": 0.6535433070866141
          },
          {
            "duration": 0.2941174999999987,
            "durationTicks": 60,
            "midi": 36,
            "name": "C2",
            "ticks": 21835,
            "time": 107.03426020833336,
            "velocity": 0.6535433070866141
          },
          {
            "duration": 0.0784313333333273,
            "durationTicks": 16,
            "midi": 44,
            "name": "G#2",
            "ticks": 21836,
            "time": 107.03916216666667,
            "velocity": 0.6535433070866141
          },
          {
            "duration": 0.01960783333333893,
            "durationTicks": 4,
            "midi": 64,
            "name": "E4",
            "ticks": 21840,
            "time": 107.05877000000001,
            "velocity": 0.8031496062992126
          },
          {
            "duration": 0.06862741666665784,
            "durationTicks": 14,
            "midi": 44,
            "name": "G#2",
            "ticks": 21866,
            "time": 107.18622091666668,
            "velocity": 0.6535433070866141
          },
          {
            "duration": 0.05392154166665364,
            "durationTicks": 11,
            "midi": 39,
            "name": "D#2",
            "ticks": 21866,
            "time": 107.18622091666668,
            "velocity": 0.33070866141732286
          },
          {
            "duration": 0.07843133333335572,
            "durationTicks": 16,
            "midi": 46,
            "name": "A#2",
            "ticks": 21868,
            "time": 107.19602483333333,
            "velocity": 0.6535433070866141
          },
          {
            "duration": 0.07843133333335572,
            "durationTicks": 16,
            "midi": 34,
            "name": "A#1",
            "ticks": 21868,
            "time": 107.19602483333333,
            "velocity": 0.5590551181102362
          },
          {
            "duration": 0.049019583333318906,
            "durationTicks": 10,
            "midi": 62,
            "name": "D4",
            "ticks": 21870,
            "time": 107.20582875000002,
            "velocity": 1
          },
          {
            "duration": 0.08823525000002519,
            "durationTicks": 18,
            "midi": 44,
            "name": "G#2",
            "ticks": 21896,
            "time": 107.33327966666667,
            "velocity": 0.6535433070866141
          },
          {
            "duration": 0.0637254583333231,
            "durationTicks": 13,
            "midi": 39,
            "name": "D#2",
            "ticks": 21896,
            "time": 107.33327966666667,
            "velocity": 1
          },
          {
            "duration": 0.11764699999997674,
            "durationTicks": 24,
            "midi": 40,
            "name": "E2",
            "ticks": 21926,
            "time": 107.48033841666668,
            "velocity": 0.6535433070866141
          },
          {
            "duration": 0.07352937499999257,
            "durationTicks": 15,
            "midi": 44,
            "name": "G#2",
            "ticks": 21926,
            "time": 107.48033841666668,
            "velocity": 0.6535433070866141
          },
          {
            "duration": 0.0637254583333231,
            "durationTicks": 13,
            "midi": 39,
            "name": "D#2",
            "ticks": 21926,
            "time": 107.48033841666668,
            "velocity": 0.5275590551181102
          },
          {
            "duration": 0.044117625000012595,
            "durationTicks": 9,
            "midi": 46,
            "name": "A#2",
            "ticks": 21928,
            "time": 107.49014233333332,
            "velocity": 0.6535433070866141
          },
          {
            "duration": 0.044117625000012595,
            "durationTicks": 9,
            "midi": 34,
            "name": "A#1",
            "ticks": 21928,
            "time": 107.49014233333332,
            "velocity": 0.5590551181102362
          },
          {
            "duration": 0.01960783333331051,
            "durationTicks": 4,
            "midi": 62,
            "name": "D4",
            "ticks": 21930,
            "time": 107.49994625000002,
            "velocity": 0.8267716535433071
          },
          {
            "duration": 0.2941174999999987,
            "durationTicks": 60,
            "midi": 36,
            "name": "C2",
            "ticks": 21955,
            "time": 107.62249520833336,
            "velocity": 0.6535433070866141
          },
          {
            "duration": 0.08823525000002519,
            "durationTicks": 18,
            "midi": 44,
            "name": "G#2",
            "ticks": 21956,
            "time": 107.62739716666667,
            "velocity": 0.6535433070866141
          },
          {
            "duration": 0.024509791666673664,
            "durationTicks": 5,
            "midi": 46,
            "name": "A#2",
            "ticks": 21958,
            "time": 107.63720108333334,
            "velocity": 0.6535433070866141
          },
          {
            "duration": 0.024509791666673664,
            "durationTicks": 5,
            "midi": 34,
            "name": "A#1",
            "ticks": 21958,
            "time": 107.63720108333334,
            "velocity": 0.5590551181102362
          },
          {
            "duration": 0.05392154166665364,
            "durationTicks": 11,
            "midi": 44,
            "name": "G#2",
            "ticks": 21986,
            "time": 107.77445591666668,
            "velocity": 0.6535433070866141
          },
          {
            "duration": 0.03921566666664944,
            "durationTicks": 8,
            "midi": 39,
            "name": "D#2",
            "ticks": 21986,
            "time": 107.77445591666668,
            "velocity": 0.4330708661417323
          },
          {
            "duration": 0.049019583333318906,
            "durationTicks": 10,
            "midi": 46,
            "name": "A#2",
            "ticks": 21988,
            "time": 107.78425983333335,
            "velocity": 0.6535433070866141
          },
          {
            "duration": 0.049019583333318906,
            "durationTicks": 10,
            "midi": 34,
            "name": "A#1",
            "ticks": 21988,
            "time": 107.78425983333335,
            "velocity": 0.5590551181102362
          },
          {
            "duration": 0.04411762499998417,
            "durationTicks": 9,
            "midi": 60,
            "name": "C4",
            "ticks": 21990,
            "time": 107.79406375000002,
            "velocity": 0.9763779527559056
          },
          {
            "duration": 0.1225489583333399,
            "durationTicks": 25,
            "midi": 40,
            "name": "E2",
            "ticks": 22016,
            "time": 107.92151466666667,
            "velocity": 0.6535433070866141
          },
          {
            "duration": 0.07352937500002099,
            "durationTicks": 15,
            "midi": 44,
            "name": "G#2",
            "ticks": 22016,
            "time": 107.92151466666667,
            "velocity": 0.6535433070866141
          },
          {
            "duration": 0.04901958333334733,
            "durationTicks": 10,
            "midi": 39,
            "name": "D#2",
            "ticks": 22016,
            "time": 107.92151466666667,
            "velocity": 1
          },
          {
            "duration": 0.2156861666666714,
            "durationTicks": 44,
            "midi": 46,
            "name": "A#2",
            "ticks": 22018,
            "time": 107.93131858333334,
            "velocity": 0.6535433070866141
          },
          {
            "duration": 0.21078420833333666,
            "durationTicks": 43,
            "midi": 34,
            "name": "A#1",
            "ticks": 22018,
            "time": 107.93131858333334,
            "velocity": 0.5590551181102362
          },
          {
            "duration": 0.029411750000008396,
            "durationTicks": 6,
            "midi": 63,
            "name": "D#4",
            "ticks": 22020,
            "time": 107.9411225,
            "velocity": 1
          },
          {
            "duration": 0.05392154166665364,
            "durationTicks": 11,
            "midi": 44,
            "name": "G#2",
            "ticks": 22046,
            "time": 108.06857341666668,
            "velocity": 0.6535433070866141
          },
          {
            "duration": 0.11764700000000516,
            "durationTicks": 24,
            "midi": 45,
            "name": "A2",
            "ticks": 22074,
            "time": 108.20582825,
            "velocity": 0.6535433070866141
          },
          {
            "duration": 0.0931372083333315,
            "durationTicks": 19,
            "midi": 35,
            "name": "B1",
            "ticks": 22074,
            "time": 108.20582825,
            "velocity": 0.6535433070866141
          },
          {
            "duration": 0.2941174999999987,
            "durationTicks": 60,
            "midi": 36,
            "name": "C2",
            "ticks": 22075,
            "time": 108.21073020833336,
            "velocity": 0.6535433070866141
          },
          {
            "duration": 0.06862741666668626,
            "durationTicks": 14,
            "midi": 44,
            "name": "G#2",
            "ticks": 22076,
            "time": 108.21563216666667,
            "velocity": 0.6535433070866141
          },
          {
            "duration": 0.004901958333334733,
            "durationTicks": 1,
            "midi": 62,
            "name": "D4",
            "ticks": 22080,
            "time": 108.23524,
            "velocity": 0.937007874015748
          },
          {
            "duration": 0.0637254583333231,
            "durationTicks": 13,
            "midi": 44,
            "name": "G#2",
            "ticks": 22106,
            "time": 108.36269091666668,
            "velocity": 0.6535433070866141
          },
          {
            "duration": 0.06862741666665784,
            "durationTicks": 14,
            "midi": 46,
            "name": "A#2",
            "ticks": 22108,
            "time": 108.37249483333335,
            "velocity": 0.6535433070866141
          },
          {
            "duration": 0.06862741666665784,
            "durationTicks": 14,
            "midi": 34,
            "name": "A#1",
            "ticks": 22108,
            "time": 108.37249483333335,
            "velocity": 0.5590551181102362
          },
          {
            "duration": 0.06862741666665784,
            "durationTicks": 14,
            "midi": 44,
            "name": "G#2",
            "ticks": 22136,
            "time": 108.50974966666669,
            "velocity": 0.6535433070866141
          },
          {
            "duration": 0.03921566666664944,
            "durationTicks": 8,
            "midi": 39,
            "name": "D#2",
            "ticks": 22136,
            "time": 108.50974966666669,
            "velocity": 0.8267716535433071
          },
          {
            "duration": 0.029411750000008396,
            "durationTicks": 6,
            "midi": 62,
            "name": "D4",
            "ticks": 22140,
            "time": 108.5293575,
            "velocity": 1
          },
          {
            "duration": 0.11274504166667043,
            "durationTicks": 23,
            "midi": 40,
            "name": "E2",
            "ticks": 22166,
            "time": 108.65680841666668,
            "velocity": 0.6535433070866141
          },
          {
            "duration": 0.0637254583333231,
            "durationTicks": 13,
            "midi": 44,
            "name": "G#2",
            "ticks": 22166,
            "time": 108.65680841666668,
            "velocity": 0.6535433070866141
          },
          {
            "duration": 0.07352937499999257,
            "durationTicks": 15,
            "midi": 39,
            "name": "D#2",
            "ticks": 22166,
            "time": 108.65680841666668,
            "velocity": 0.5826771653543307
          },
          {
            "duration": 0.03921566666667786,
            "durationTicks": 8,
            "midi": 46,
            "name": "A#2",
            "ticks": 22168,
            "time": 108.66661233333335,
            "velocity": 0.6535433070866141
          },
          {
            "duration": 0.03921566666667786,
            "durationTicks": 8,
            "midi": 34,
            "name": "A#1",
            "ticks": 22168,
            "time": 108.66661233333335,
            "velocity": 0.5590551181102362
          },
          {
            "duration": 0.009803916666669465,
            "durationTicks": 2,
            "midi": 60,
            "name": "C4",
            "ticks": 22170,
            "time": 108.67641625000002,
            "velocity": 1
          },
          {
            "duration": 0.2941174999999987,
            "durationTicks": 60,
            "midi": 36,
            "name": "C2",
            "ticks": 22195,
            "time": 108.79896520833336,
            "velocity": 0.6535433070866141
          },
          {
            "duration": 0.06862741666665784,
            "durationTicks": 14,
            "midi": 44,
            "name": "G#2",
            "ticks": 22196,
            "time": 108.80386716666669,
            "velocity": 0.6535433070866141
          },
          {
            "duration": 0.05392154166668206,
            "durationTicks": 11,
            "midi": 44,
            "name": "G#2",
            "ticks": 22226,
            "time": 108.95092591666668,
            "velocity": 0.6535433070866141
          },
          {
            "duration": 0.07352937499999257,
            "durationTicks": 15,
            "midi": 39,
            "name": "D#2",
            "ticks": 22226,
            "time": 108.95092591666668,
            "velocity": 0.5669291338582677
          },
          {
            "duration": 0.024509791666673664,
            "durationTicks": 5,
            "midi": 46,
            "name": "A#2",
            "ticks": 22228,
            "time": 108.96072983333335,
            "velocity": 0.6535433070866141
          },
          {
            "duration": 0.024509791666673664,
            "durationTicks": 5,
            "midi": 34,
            "name": "A#1",
            "ticks": 22228,
            "time": 108.96072983333335,
            "velocity": 0.5590551181102362
          },
          {
            "duration": 0.029411750000008396,
            "durationTicks": 6,
            "midi": 62,
            "name": "D4",
            "ticks": 22230,
            "time": 108.97053375000002,
            "velocity": 1
          },
          {
            "duration": 0.1274509166666462,
            "durationTicks": 26,
            "midi": 40,
            "name": "E2",
            "ticks": 22256,
            "time": 109.09798466666669,
            "velocity": 0.6535433070866141
          },
          {
            "duration": 0.06862741666665784,
            "durationTicks": 14,
            "midi": 44,
            "name": "G#2",
            "ticks": 22256,
            "time": 109.09798466666669,
            "velocity": 0.6535433070866141
          },
          {
            "duration": 0.05392154166665364,
            "durationTicks": 11,
            "midi": 39,
            "name": "D#2",
            "ticks": 22256,
            "time": 109.09798466666669,
            "velocity": 0.937007874015748
          },
          {
            "duration": 0.19117637500002616,
            "durationTicks": 39,
            "midi": 46,
            "name": "A#2",
            "ticks": 22258,
            "time": 109.10778858333333,
            "velocity": 0.6535433070866141
          },
          {
            "duration": 0.19117637500002616,
            "durationTicks": 39,
            "midi": 34,
            "name": "A#1",
            "ticks": 22258,
            "time": 109.10778858333333,
            "velocity": 0.5590551181102362
          },
          {
            "duration": 0.01960783333333893,
            "durationTicks": 4,
            "midi": 64,
            "name": "E4",
            "ticks": 22260,
            "time": 109.1175925,
            "velocity": 1
          },
          {
            "duration": 0.0637254583333231,
            "durationTicks": 13,
            "midi": 44,
            "name": "G#2",
            "ticks": 22286,
            "time": 109.24504341666668,
            "velocity": 0.6535433070866141
          },
          {
            "duration": 0.09313720833335992,
            "durationTicks": 19,
            "midi": 45,
            "name": "A2",
            "ticks": 22314,
            "time": 109.38229824999999,
            "velocity": 0.6535433070866141
          },
          {
            "duration": 0.08823525000002519,
            "durationTicks": 18,
            "midi": 35,
            "name": "B1",
            "ticks": 22314,
            "time": 109.38229824999999,
            "velocity": 0.6535433070866141
          },
          {
            "duration": 0.2941174999999987,
            "durationTicks": 60,
            "midi": 36,
            "name": "C2",
            "ticks": 22315,
            "time": 109.38720020833335,
            "velocity": 0.6535433070866141
          },
          {
            "duration": 0.08333329166666203,
            "durationTicks": 17,
            "midi": 44,
            "name": "G#2",
            "ticks": 22316,
            "time": 109.39210216666669,
            "velocity": 0.6535433070866141
          },
          {
            "duration": 0.03921566666664944,
            "durationTicks": 8,
            "midi": 39,
            "name": "D#2",
            "ticks": 22316,
            "time": 109.39210216666669,
            "velocity": 0.7244094488188977
          },
          {
            "duration": 0.024509791666673664,
            "durationTicks": 5,
            "midi": 46,
            "name": "A#2",
            "ticks": 22318,
            "time": 109.40190608333333,
            "velocity": 0.6535433070866141
          },
          {
            "duration": 0.024509791666673664,
            "durationTicks": 5,
            "midi": 34,
            "name": "A#1",
            "ticks": 22318,
            "time": 109.40190608333333,
            "velocity": 0.5590551181102362
          },
          {
            "duration": 0.009803916666697887,
            "durationTicks": 2,
            "midi": 62,
            "name": "D4",
            "ticks": 22320,
            "time": 109.41171,
            "velocity": 0.6771653543307087
          },
          {
            "duration": 0.06862741666668626,
            "durationTicks": 14,
            "midi": 44,
            "name": "G#2",
            "ticks": 22346,
            "time": 109.53916091666667,
            "velocity": 0.6535433070866141
          },
          {
            "duration": 0.0637254583333231,
            "durationTicks": 13,
            "midi": 39,
            "name": "D#2",
            "ticks": 22346,
            "time": 109.53916091666667,
            "velocity": 0.3858267716535433
          },
          {
            "duration": 0.07352937499999257,
            "durationTicks": 15,
            "midi": 46,
            "name": "A#2",
            "ticks": 22348,
            "time": 109.54896483333334,
            "velocity": 0.6535433070866141
          },
          {
            "duration": 0.06862741666665784,
            "durationTicks": 14,
            "midi": 34,
            "name": "A#1",
            "ticks": 22348,
            "time": 109.54896483333334,
            "velocity": 0.5590551181102362
          },
          {
            "duration": 0.024509791666673664,
            "durationTicks": 5,
            "midi": 61,
            "name": "C#4",
            "ticks": 22350,
            "time": 109.55876875000001,
            "velocity": 0.9763779527559056
          },
          {
            "duration": 0.07352937499999257,
            "durationTicks": 15,
            "midi": 44,
            "name": "G#2",
            "ticks": 22376,
            "time": 109.68621966666669,
            "velocity": 0.6535433070866141
          },
          {
            "duration": 0.03921566666664944,
            "durationTicks": 8,
            "midi": 39,
            "name": "D#2",
            "ticks": 22376,
            "time": 109.68621966666669,
            "velocity": 0.6377952755905512
          },
          {
            "duration": 0.1225489583333399,
            "durationTicks": 25,
            "midi": 40,
            "name": "E2",
            "ticks": 22406,
            "time": 109.83327841666667,
            "velocity": 0.6535433070866141
          },
          {
            "duration": 0.0637254583333231,
            "durationTicks": 13,
            "midi": 44,
            "name": "G#2",
            "ticks": 22406,
            "time": 109.83327841666667,
            "velocity": 0.6535433070866141
          },
          {
            "duration": 0.08823524999999677,
            "durationTicks": 18,
            "midi": 39,
            "name": "D#2",
            "ticks": 22406,
            "time": 109.83327841666667,
            "velocity": 0.5433070866141733
          },
          {
            "duration": 0.044117625000012595,
            "durationTicks": 9,
            "midi": 46,
            "name": "A#2",
            "ticks": 22408,
            "time": 109.84308233333334,
            "velocity": 0.6535433070866141
          },
          {
            "duration": 0.044117625000012595,
            "durationTicks": 9,
            "midi": 34,
            "name": "A#1",
            "ticks": 22408,
            "time": 109.84308233333334,
            "velocity": 0.5590551181102362
          },
          {
            "duration": 0.029411750000008396,
            "durationTicks": 6,
            "midi": 62,
            "name": "D4",
            "ticks": 22410,
            "time": 109.85288625000001,
            "velocity": 0.905511811023622
          },
          {
            "duration": 0.2941174999999987,
            "durationTicks": 60,
            "midi": 36,
            "name": "C2",
            "ticks": 22435,
            "time": 109.97543520833335,
            "velocity": 0.6535433070866141
          },
          {
            "duration": 0.07352937499999257,
            "durationTicks": 15,
            "midi": 49,
            "name": "C#3",
            "ticks": 22436,
            "time": 109.98033716666669,
            "velocity": 0.6535433070866141
          },
          {
            "duration": 0.049019583333318906,
            "durationTicks": 10,
            "midi": 39,
            "name": "D#2",
            "ticks": 22436,
            "time": 109.98033716666669,
            "velocity": 0.8818897637795275
          },
          {
            "duration": 0.11274504166669885,
            "durationTicks": 23,
            "midi": 46,
            "name": "A#2",
            "ticks": 22438,
            "time": 109.99014108333333,
            "velocity": 0.6535433070866141
          },
          {
            "duration": 0.11274504166669885,
            "durationTicks": 23,
            "midi": 34,
            "name": "A#1",
            "ticks": 22438,
            "time": 109.99014108333333,
            "velocity": 0.5590551181102362
          },
          {
            "duration": 0.0637254583333231,
            "durationTicks": 13,
            "midi": 44,
            "name": "G#2",
            "ticks": 22466,
            "time": 110.12739591666667,
            "velocity": 0.6535433070866141
          },
          {
            "duration": 0.07352937500002099,
            "durationTicks": 15,
            "midi": 39,
            "name": "D#2",
            "ticks": 22466,
            "time": 110.12739591666667,
            "velocity": 0.7244094488188977
          },
          {
            "duration": 0.07352937499999257,
            "durationTicks": 15,
            "midi": 46,
            "name": "A#2",
            "ticks": 22468,
            "time": 110.13719983333334,
            "velocity": 0.6535433070866141
          },
          {
            "duration": 0.07352937499999257,
            "durationTicks": 15,
            "midi": 34,
            "name": "A#1",
            "ticks": 22468,
            "time": 110.13719983333334,
            "velocity": 0.5590551181102362
          },
          {
            "duration": 0.11764699999997674,
            "durationTicks": 24,
            "midi": 40,
            "name": "E2",
            "ticks": 22496,
            "time": 110.27445466666668,
            "velocity": 0.6535433070866141
          },
          {
            "duration": 0.06862741666665784,
            "durationTicks": 14,
            "midi": 49,
            "name": "C#3",
            "ticks": 22496,
            "time": 110.27445466666668,
            "velocity": 0.6535433070866141
          },
          {
            "duration": 0.0637254583333231,
            "durationTicks": 13,
            "midi": 39,
            "name": "D#2",
            "ticks": 22496,
            "time": 110.27445466666668,
            "velocity": 0.937007874015748
          },
          {
            "duration": 0.07843133333335572,
            "durationTicks": 16,
            "midi": 46,
            "name": "A#2",
            "ticks": 22498,
            "time": 110.28425858333333,
            "velocity": 0.6535433070866141
          },
          {
            "duration": 0.07843133333335572,
            "durationTicks": 16,
            "midi": 34,
            "name": "A#1",
            "ticks": 22498,
            "time": 110.28425858333333,
            "velocity": 0.5590551181102362
          },
          {
            "duration": 0.0637254583333231,
            "durationTicks": 13,
            "midi": 78,
            "name": "F#5",
            "ticks": 22500,
            "time": 110.29406250000002,
            "velocity": 1
          },
          {
            "duration": 0.0637254583333231,
            "durationTicks": 13,
            "midi": 44,
            "name": "G#2",
            "ticks": 22526,
            "time": 110.42151341666667,
            "velocity": 0.6535433070866141
          },
          {
            "duration": 0.0784313333333273,
            "durationTicks": 16,
            "midi": 39,
            "name": "D#2",
            "ticks": 22526,
            "time": 110.42151341666667,
            "velocity": 0.7401574803149606
          },
          {
            "duration": 0.09313720833335992,
            "durationTicks": 19,
            "midi": 46,
            "name": "A#2",
            "ticks": 22528,
            "time": 110.43131733333334,
            "velocity": 0.6535433070866141
          },
          {
            "duration": 0.09313720833335992,
            "durationTicks": 19,
            "midi": 34,
            "name": "A#1",
            "ticks": 22528,
            "time": 110.43131733333334,
            "velocity": 0.5590551181102362
          },
          {
            "duration": 0.11274504166667043,
            "durationTicks": 23,
            "midi": 45,
            "name": "A2",
            "ticks": 22554,
            "time": 110.55876825000001,
            "velocity": 0.6535433070866141
          },
          {
            "duration": 0.09803916666666623,
            "durationTicks": 20,
            "midi": 35,
            "name": "B1",
            "ticks": 22554,
            "time": 110.55876825000001,
            "velocity": 0.6535433070866141
          },
          {
            "duration": 0.2941174999999987,
            "durationTicks": 60,
            "midi": 36,
            "name": "C2",
            "ticks": 22555,
            "time": 110.56367020833335,
            "velocity": 0.6535433070866141
          },
          {
            "duration": 0.10294112500000097,
            "durationTicks": 21,
            "midi": 57,
            "name": "A3",
            "ticks": 22556,
            "time": 110.56857216666668,
            "velocity": 0.6535433070866141
          },
          {
            "duration": 0.0637254583333231,
            "durationTicks": 13,
            "midi": 44,
            "name": "G#2",
            "ticks": 22586,
            "time": 110.71563091666667,
            "velocity": 0.6535433070866141
          },
          {
            "duration": 0.07352937499999257,
            "durationTicks": 15,
            "midi": 46,
            "name": "A#2",
            "ticks": 22588,
            "time": 110.72543483333334,
            "velocity": 0.6535433070866141
          },
          {
            "duration": 0.06862741666665784,
            "durationTicks": 14,
            "midi": 34,
            "name": "A#1",
            "ticks": 22588,
            "time": 110.72543483333334,
            "velocity": 0.5590551181102362
          },
          {
            "duration": 0.05392154166668206,
            "durationTicks": 11,
            "midi": 61,
            "name": "C#4",
            "ticks": 22590,
            "time": 110.73523875000001,
            "velocity": 0.7637795275590551
          },
          {
            "duration": 0.08823524999999677,
            "durationTicks": 18,
            "midi": 44,
            "name": "G#2",
            "ticks": 22616,
            "time": 110.86268966666668,
            "velocity": 0.6535433070866141
          },
          {
            "duration": 0.05392154166665364,
            "durationTicks": 11,
            "midi": 39,
            "name": "D#2",
            "ticks": 22616,
            "time": 110.86268966666668,
            "velocity": 0.8818897637795275
          },
          {
            "duration": 0.03921566666664944,
            "durationTicks": 8,
            "midi": 62,
            "name": "D4",
            "ticks": 22620,
            "time": 110.88229750000002,
            "velocity": 1
          },
          {
            "duration": 0.11764700000000516,
            "durationTicks": 24,
            "midi": 40,
            "name": "E2",
            "ticks": 22646,
            "time": 111.00974841666667,
            "velocity": 0.6535433070866141
          },
          {
            "duration": 0.07352937500002099,
            "durationTicks": 15,
            "midi": 44,
            "name": "G#2",
            "ticks": 22646,
            "time": 111.00974841666667,
            "velocity": 0.6535433070866141
          },
          {
            "duration": 0.06372545833335153,
            "durationTicks": 13,
            "midi": 39,
            "name": "D#2",
            "ticks": 22646,
            "time": 111.00974841666667,
            "velocity": 0.2677165354330709
          },
          {
            "duration": 0.04901958333334733,
            "durationTicks": 10,
            "midi": 46,
            "name": "A#2",
            "ticks": 22648,
            "time": 111.01955233333334,
            "velocity": 0.6535433070866141
          },
          {
            "duration": 0.04901958333334733,
            "durationTicks": 10,
            "midi": 34,
            "name": "A#1",
            "ticks": 22648,
            "time": 111.01955233333334,
            "velocity": 0.5590551181102362
          },
          {
            "duration": 0.044117625000012595,
            "durationTicks": 9,
            "midi": 60,
            "name": "C4",
            "ticks": 22650,
            "time": 111.02935625,
            "velocity": 0.7795275590551181
          },
          {
            "duration": 0.2941174999999987,
            "durationTicks": 60,
            "midi": 36,
            "name": "C2",
            "ticks": 22675,
            "time": 111.15190520833335,
            "velocity": 0.6535433070866141
          },
          {
            "duration": 0.08823524999999677,
            "durationTicks": 18,
            "midi": 44,
            "name": "G#2",
            "ticks": 22676,
            "time": 111.15680716666668,
            "velocity": 0.6535433070866141
          },
          {
            "duration": 0.05392154166668206,
            "durationTicks": 11,
            "midi": 44,
            "name": "G#2",
            "ticks": 22706,
            "time": 111.30386591666667,
            "velocity": 0.6535433070866141
          },
          {
            "duration": 0.03921566666667786,
            "durationTicks": 8,
            "midi": 46,
            "name": "A#2",
            "ticks": 22708,
            "time": 111.31366983333334,
            "velocity": 0.6535433070866141
          },
          {
            "duration": 0.03921566666667786,
            "durationTicks": 8,
            "midi": 34,
            "name": "A#1",
            "ticks": 22708,
            "time": 111.31366983333334,
            "velocity": 0.5590551181102362
          },
          {
            "duration": 0.12745091666667463,
            "durationTicks": 26,
            "midi": 40,
            "name": "E2",
            "ticks": 22736,
            "time": 111.45092466666668,
            "velocity": 0.6535433070866141
          },
          {
            "duration": 0.0784313333333273,
            "durationTicks": 16,
            "midi": 44,
            "name": "G#2",
            "ticks": 22736,
            "time": 111.45092466666668,
            "velocity": 0.6535433070866141
          },
          {
            "duration": 0.06862741666665784,
            "durationTicks": 14,
            "midi": 39,
            "name": "D#2",
            "ticks": 22736,
            "time": 111.45092466666668,
            "velocity": 0.7401574803149606
          },
          {
            "duration": 0.2156861666666714,
            "durationTicks": 44,
            "midi": 46,
            "name": "A#2",
            "ticks": 22738,
            "time": 111.46072858333335,
            "velocity": 0.6535433070866141
          },
          {
            "duration": 0.2156861666666714,
            "durationTicks": 44,
            "midi": 34,
            "name": "A#1",
            "ticks": 22738,
            "time": 111.46072858333335,
            "velocity": 0.5590551181102362
          },
          {
            "duration": 0.03921566666664944,
            "durationTicks": 8,
            "midi": 63,
            "name": "D#4",
            "ticks": 22740,
            "time": 111.47053250000002,
            "velocity": 1
          },
          {
            "duration": 0.05392154166665364,
            "durationTicks": 11,
            "midi": 44,
            "name": "G#2",
            "ticks": 22766,
            "time": 111.5979834166667,
            "velocity": 0.6535433070866141
          },
          {
            "duration": 0.024509791666673664,
            "durationTicks": 5,
            "midi": 61,
            "name": "C#4",
            "ticks": 22770,
            "time": 111.61759125,
            "velocity": 0.5669291338582677
          },
          {
            "duration": 0.07352937499999257,
            "durationTicks": 15,
            "midi": 35,
            "name": "B1",
            "ticks": 22794,
            "time": 111.73523825000001,
            "velocity": 0.6535433070866141
          },
          {
            "duration": 0.03921566666667786,
            "durationTicks": 8,
            "midi": 45,
            "name": "A2",
            "ticks": 22794,
            "time": 111.73523825000001,
            "velocity": 0.6535433070866141
          },
          {
            "duration": 0.2941174999999987,
            "durationTicks": 60,
            "midi": 36,
            "name": "C2",
            "ticks": 22795,
            "time": 111.74014020833334,
            "velocity": 0.6535433070866141
          },
          {
            "duration": 0.06862741666668626,
            "durationTicks": 14,
            "midi": 44,
            "name": "G#2",
            "ticks": 22796,
            "time": 111.74504216666668,
            "velocity": 0.6535433070866141
          },
          {
            "duration": 0.024509791666645242,
            "durationTicks": 5,
            "midi": 64,
            "name": "E4",
            "ticks": 22800,
            "time": 111.76465000000002,
            "velocity": 0.8267716535433071
          },
          {
            "duration": 0.05392154166665364,
            "durationTicks": 11,
            "midi": 44,
            "name": "G#2",
            "ticks": 22826,
            "time": 111.89210091666669,
            "velocity": 0.6535433070866141
          },
          {
            "duration": 0.10294112500000097,
            "durationTicks": 21,
            "midi": 46,
            "name": "A#2",
            "ticks": 22828,
            "time": 111.90190483333333,
            "velocity": 0.6535433070866141
          },
          {
            "duration": 0.10294112500000097,
            "durationTicks": 21,
            "midi": 34,
            "name": "A#1",
            "ticks": 22828,
            "time": 111.90190483333333,
            "velocity": 0.5590551181102362
          },
          {
            "duration": 0.05392154166668206,
            "durationTicks": 11,
            "midi": 62,
            "name": "D4",
            "ticks": 22830,
            "time": 111.91170875,
            "velocity": 1
          },
          {
            "duration": 0.06862741666668626,
            "durationTicks": 14,
            "midi": 44,
            "name": "G#2",
            "ticks": 22856,
            "time": 112.03915966666668,
            "velocity": 0.6535433070866141
          },
          {
            "duration": 0.0637254583333231,
            "durationTicks": 13,
            "midi": 39,
            "name": "D#2",
            "ticks": 22856,
            "time": 112.03915966666668,
            "velocity": 0.8503937007874016
          },
          {
            "duration": 0.13725483333331567,
            "durationTicks": 28,
            "midi": 40,
            "name": "E2",
            "ticks": 22886,
            "time": 112.18621841666669,
            "velocity": 0.6535433070866141
          },
          {
            "duration": 0.05392154166665364,
            "durationTicks": 11,
            "midi": 44,
            "name": "G#2",
            "ticks": 22886,
            "time": 112.18621841666669,
            "velocity": 0.6535433070866141
          },
          {
            "duration": 0.0784313333333273,
            "durationTicks": 16,
            "midi": 39,
            "name": "D#2",
            "ticks": 22886,
            "time": 112.18621841666669,
            "velocity": 0.5275590551181102
          },
          {
            "duration": 0.10294112500000097,
            "durationTicks": 21,
            "midi": 46,
            "name": "A#2",
            "ticks": 22888,
            "time": 112.19602233333333,
            "velocity": 0.6535433070866141
          },
          {
            "duration": 0.09803916666669465,
            "durationTicks": 20,
            "midi": 34,
            "name": "A#1",
            "ticks": 22888,
            "time": 112.19602233333333,
            "velocity": 0.5590551181102362
          },
          {
            "duration": 0.024509791666673664,
            "durationTicks": 5,
            "midi": 61,
            "name": "C#4",
            "ticks": 22890,
            "time": 112.20582625,
            "velocity": 0.8818897637795275
          },
          {
            "duration": 0.024509791666673664,
            "durationTicks": 5,
            "midi": 62,
            "name": "D4",
            "ticks": 22890,
            "time": 112.20582625,
            "velocity": 0.937007874015748
          },
          {
            "duration": 0.2941174999999987,
            "durationTicks": 60,
            "midi": 36,
            "name": "C2",
            "ticks": 22915,
            "time": 112.32837520833334,
            "velocity": 0.6535433070866141
          },
          {
            "duration": 0.0637254583333231,
            "durationTicks": 13,
            "midi": 44,
            "name": "G#2",
            "ticks": 22916,
            "time": 112.33327716666668,
            "velocity": 0.6535433070866141
          },
          {
            "duration": 0.07352937499999257,
            "durationTicks": 15,
            "midi": 44,
            "name": "G#2",
            "ticks": 22946,
            "time": 112.48033591666669,
            "velocity": 0.6535433070866141
          },
          {
            "duration": 0.029411750000008396,
            "durationTicks": 6,
            "midi": 61,
            "name": "C#4",
            "ticks": 22950,
            "time": 112.49994375,
            "velocity": 0.937007874015748
          },
          {
            "duration": 0.1372548333333441,
            "durationTicks": 28,
            "midi": 40,
            "name": "E2",
            "ticks": 22976,
            "time": 112.62739466666667,
            "velocity": 0.6535433070866141
          },
          {
            "duration": 0.06862741666668626,
            "durationTicks": 14,
            "midi": 44,
            "name": "G#2",
            "ticks": 22976,
            "time": 112.62739466666667,
            "velocity": 0.6535433070866141
          },
          {
            "duration": 0.05392154166668206,
            "durationTicks": 11,
            "midi": 39,
            "name": "D#2",
            "ticks": 22976,
            "time": 112.62739466666667,
            "velocity": 0.8818897637795275
          },
          {
            "duration": 0.04411762499998417,
            "durationTicks": 9,
            "midi": 63,
            "name": "D#4",
            "ticks": 22980,
            "time": 112.64700250000001,
            "velocity": 1
          },
          {
            "duration": 0.05392154166665364,
            "durationTicks": 11,
            "midi": 44,
            "name": "G#2",
            "ticks": 23006,
            "time": 112.77445341666669,
            "velocity": 0.6535433070866141
          },
          {
            "duration": 0.0931372083333315,
            "durationTicks": 19,
            "midi": 35,
            "name": "B1",
            "ticks": 23034,
            "time": 112.91170825,
            "velocity": 0.6535433070866141
          },
          {
            "duration": 0.09803916666666623,
            "durationTicks": 20,
            "midi": 45,
            "name": "A2",
            "ticks": 23034,
            "time": 112.91170825,
            "velocity": 0.6535433070866141
          },
          {
            "duration": 0.2941174999999987,
            "durationTicks": 60,
            "midi": 36,
            "name": "C2",
            "ticks": 23035,
            "time": 112.91661020833334,
            "velocity": 0.6535433070866141
          },
          {
            "duration": 0.0784313333333273,
            "durationTicks": 16,
            "midi": 44,
            "name": "G#2",
            "ticks": 23036,
            "time": 112.92151216666667,
            "velocity": 0.6535433070866141
          },
          {
            "duration": 0.01960783333333893,
            "durationTicks": 4,
            "midi": 62,
            "name": "D4",
            "ticks": 23040,
            "time": 112.94112000000001,
            "velocity": 1
          },
          {
            "duration": 0.07352937499999257,
            "durationTicks": 15,
            "midi": 44,
            "name": "G#2",
            "ticks": 23066,
            "time": 113.06857091666669,
            "velocity": 0.6535433070866141
          },
          {
            "duration": 0.06862741666665784,
            "durationTicks": 14,
            "midi": 39,
            "name": "D#2",
            "ticks": 23066,
            "time": 113.06857091666669,
            "velocity": 0.6220472440944882
          },
          {
            "duration": 0.06862741666668626,
            "durationTicks": 14,
            "midi": 46,
            "name": "A#2",
            "ticks": 23068,
            "time": 113.07837483333333,
            "velocity": 0.6535433070866141
          },
          {
            "duration": 0.06862741666668626,
            "durationTicks": 14,
            "midi": 34,
            "name": "A#1",
            "ticks": 23068,
            "time": 113.07837483333333,
            "velocity": 0.5590551181102362
          },
          {
            "duration": 0.04901958333334733,
            "durationTicks": 10,
            "midi": 44,
            "name": "G#2",
            "ticks": 23096,
            "time": 113.21562966666667,
            "velocity": 0.6535433070866141
          },
          {
            "duration": 0.029411750000008396,
            "durationTicks": 6,
            "midi": 39,
            "name": "D#2",
            "ticks": 23096,
            "time": 113.21562966666667,
            "velocity": 0.6614173228346457
          },
          {
            "duration": 0.03921566666667786,
            "durationTicks": 8,
            "midi": 62,
            "name": "D4",
            "ticks": 23100,
            "time": 113.23523750000001,
            "velocity": 1
          },
          {
            "duration": 0.11274504166667043,
            "durationTicks": 23,
            "midi": 40,
            "name": "E2",
            "ticks": 23126,
            "time": 113.36268841666669,
            "velocity": 0.6535433070866141
          },
          {
            "duration": 0.06862741666665784,
            "durationTicks": 14,
            "midi": 44,
            "name": "G#2",
            "ticks": 23126,
            "time": 113.36268841666669,
            "velocity": 0.6535433070866141
          },
          {
            "duration": 0.05392154166668206,
            "durationTicks": 11,
            "midi": 46,
            "name": "A#2",
            "ticks": 23128,
            "time": 113.37249233333333,
            "velocity": 0.6535433070866141
          },
          {
            "duration": 0.05392154166668206,
            "durationTicks": 11,
            "midi": 34,
            "name": "A#1",
            "ticks": 23128,
            "time": 113.37249233333333,
            "velocity": 0.5590551181102362
          },
          {
            "duration": 0.049019583333318906,
            "durationTicks": 10,
            "midi": 60,
            "name": "C4",
            "ticks": 23130,
            "time": 113.38229625000002,
            "velocity": 0.8503937007874016
          },
          {
            "duration": 0.2941174999999987,
            "durationTicks": 60,
            "midi": 36,
            "name": "C2",
            "ticks": 23155,
            "time": 113.50484520833336,
            "velocity": 0.6535433070866141
          },
          {
            "duration": 0.0637254583333231,
            "durationTicks": 13,
            "midi": 44,
            "name": "G#2",
            "ticks": 23156,
            "time": 113.50974716666667,
            "velocity": 0.6535433070866141
          },
          {
            "duration": 0.03921566666667786,
            "durationTicks": 8,
            "midi": 39,
            "name": "D#2",
            "ticks": 23156,
            "time": 113.50974716666667,
            "velocity": 0.6771653543307087
          },
          {
            "duration": 0.06862741666665784,
            "durationTicks": 14,
            "midi": 46,
            "name": "A#2",
            "ticks": 23158,
            "time": 113.51955108333334,
            "velocity": 0.6535433070866141
          },
          {
            "duration": 0.06862741666665784,
            "durationTicks": 14,
            "midi": 34,
            "name": "A#1",
            "ticks": 23158,
            "time": 113.51955108333334,
            "velocity": 0.5590551181102362
          },
          {
            "duration": 0.0637254583333231,
            "durationTicks": 13,
            "midi": 44,
            "name": "G#2",
            "ticks": 23186,
            "time": 113.65680591666668,
            "velocity": 0.6535433070866141
          },
          {
            "duration": 0.0637254583333231,
            "durationTicks": 13,
            "midi": 39,
            "name": "D#2",
            "ticks": 23186,
            "time": 113.65680591666668,
            "velocity": 0.6377952755905512
          },
          {
            "duration": 0.04901958333334733,
            "durationTicks": 10,
            "midi": 46,
            "name": "A#2",
            "ticks": 23188,
            "time": 113.66660983333333,
            "velocity": 0.6535433070866141
          },
          {
            "duration": 0.05392154166668206,
            "durationTicks": 11,
            "midi": 34,
            "name": "A#1",
            "ticks": 23188,
            "time": 113.66660983333333,
            "velocity": 0.5590551181102362
          },
          {
            "duration": 0.049019583333318906,
            "durationTicks": 10,
            "midi": 61,
            "name": "C#4",
            "ticks": 23190,
            "time": 113.67641375000002,
            "velocity": 0.7401574803149606
          },
          {
            "duration": 0.11274504166667043,
            "durationTicks": 23,
            "midi": 40,
            "name": "E2",
            "ticks": 23216,
            "time": 113.80386466666667,
            "velocity": 0.6535433070866141
          },
          {
            "duration": 0.0637254583333231,
            "durationTicks": 13,
            "midi": 44,
            "name": "G#2",
            "ticks": 23216,
            "time": 113.80386466666667,
            "velocity": 0.6535433070866141
          },
          {
            "duration": 0.0637254583333231,
            "durationTicks": 13,
            "midi": 39,
            "name": "D#2",
            "ticks": 23216,
            "time": 113.80386466666667,
            "velocity": 0.937007874015748
          },
          {
            "duration": 0.07352937499999257,
            "durationTicks": 15,
            "midi": 46,
            "name": "A#2",
            "ticks": 23218,
            "time": 113.81366858333334,
            "velocity": 0.6535433070866141
          },
          {
            "duration": 0.06862741666665784,
            "durationTicks": 14,
            "midi": 34,
            "name": "A#1",
            "ticks": 23218,
            "time": 113.81366858333334,
            "velocity": 0.5590551181102362
          },
          {
            "duration": 0.04411762499998417,
            "durationTicks": 9,
            "midi": 62,
            "name": "D4",
            "ticks": 23220,
            "time": 113.82347250000001,
            "velocity": 1
          },
          {
            "duration": 0.0637254583333231,
            "durationTicks": 13,
            "midi": 44,
            "name": "G#2",
            "ticks": 23246,
            "time": 113.95092341666668,
            "velocity": 0.6535433070866141
          },
          {
            "duration": 0.1225489583333399,
            "durationTicks": 25,
            "midi": 45,
            "name": "A2",
            "ticks": 23274,
            "time": 114.08817825,
            "velocity": 0.6535433070866141
          },
          {
            "duration": 0.10294112500000097,
            "durationTicks": 21,
            "midi": 35,
            "name": "B1",
            "ticks": 23274,
            "time": 114.08817825,
            "velocity": 0.6535433070866141
          },
          {
            "duration": 0.2941174999999987,
            "durationTicks": 60,
            "midi": 36,
            "name": "C2",
            "ticks": 23275,
            "time": 114.09308020833336,
            "velocity": 0.6535433070866141
          },
          {
            "duration": 0.06862741666668626,
            "durationTicks": 14,
            "midi": 44,
            "name": "G#2",
            "ticks": 23276,
            "time": 114.09798216666667,
            "velocity": 0.6535433070866141
          },
          {
            "duration": 0.07843133333335572,
            "durationTicks": 16,
            "midi": 46,
            "name": "A#2",
            "ticks": 23278,
            "time": 114.10778608333334,
            "velocity": 0.6535433070866141
          },
          {
            "duration": 0.07843133333335572,
            "durationTicks": 16,
            "midi": 34,
            "name": "A#1",
            "ticks": 23278,
            "time": 114.10778608333334,
            "velocity": 0.5590551181102362
          },
          {
            "duration": 0.03921566666667786,
            "durationTicks": 8,
            "midi": 62,
            "name": "D4",
            "ticks": 23280,
            "time": 114.11759,
            "velocity": 0.937007874015748
          },
          {
            "duration": 0.06862741666665784,
            "durationTicks": 14,
            "midi": 44,
            "name": "G#2",
            "ticks": 23306,
            "time": 114.24504091666668,
            "velocity": 0.6535433070866141
          },
          {
            "duration": 0.04411762499998417,
            "durationTicks": 9,
            "midi": 46,
            "name": "A#2",
            "ticks": 23308,
            "time": 114.25484483333335,
            "velocity": 0.6535433070866141
          },
          {
            "duration": 0.04411762499998417,
            "durationTicks": 9,
            "midi": 34,
            "name": "A#1",
            "ticks": 23308,
            "time": 114.25484483333335,
            "velocity": 0.5590551181102362
          },
          {
            "duration": 0.07352937500002099,
            "durationTicks": 15,
            "midi": 44,
            "name": "G#2",
            "ticks": 23336,
            "time": 114.39209966666667,
            "velocity": 0.6535433070866141
          },
          {
            "duration": 0.04901958333334733,
            "durationTicks": 10,
            "midi": 39,
            "name": "D#2",
            "ticks": 23336,
            "time": 114.39209966666667,
            "velocity": 0.8031496062992126
          },
          {
            "duration": 0.044117625000012595,
            "durationTicks": 9,
            "midi": 62,
            "name": "D4",
            "ticks": 23340,
            "time": 114.4117075,
            "velocity": 1
          },
          {
            "duration": 0.13725483333331567,
            "durationTicks": 28,
            "midi": 40,
            "name": "E2",
            "ticks": 23366,
            "time": 114.53915841666668,
            "velocity": 0.6535433070866141
          },
          {
            "duration": 0.05882349999998837,
            "durationTicks": 12,
            "midi": 44,
            "name": "G#2",
            "ticks": 23366,
            "time": 114.53915841666668,
            "velocity": 0.6535433070866141
          },
          {
            "duration": 0.0637254583333231,
            "durationTicks": 13,
            "midi": 39,
            "name": "D#2",
            "ticks": 23366,
            "time": 114.53915841666668,
            "velocity": 0.5511811023622047
          },
          {
            "duration": 0.08333329166666203,
            "durationTicks": 17,
            "midi": 46,
            "name": "A#2",
            "ticks": 23368,
            "time": 114.54896233333335,
            "velocity": 0.6535433070866141
          },
          {
            "duration": 0.0784313333333273,
            "durationTicks": 16,
            "midi": 34,
            "name": "A#1",
            "ticks": 23368,
            "time": 114.54896233333335,
            "velocity": 0.5590551181102362
          },
          {
            "duration": 0.2941174999999987,
            "durationTicks": 60,
            "midi": 36,
            "name": "C2",
            "ticks": 23395,
            "time": 114.68131520833336,
            "velocity": 0.6535433070866141
          },
          {
            "duration": 0.06862741666665784,
            "durationTicks": 14,
            "midi": 44,
            "name": "G#2",
            "ticks": 23396,
            "time": 114.6862171666667,
            "velocity": 0.6535433070866141
          },
          {
            "duration": 0.03921566666667786,
            "durationTicks": 8,
            "midi": 62,
            "name": "D4",
            "ticks": 23400,
            "time": 114.705825,
            "velocity": 0.905511811023622
          },
          {
            "duration": 0.05392154166668206,
            "durationTicks": 11,
            "midi": 44,
            "name": "G#2",
            "ticks": 23426,
            "time": 114.83327591666668,
            "velocity": 0.6535433070866141
          },
          {
            "duration": 0.044117625000012595,
            "durationTicks": 9,
            "midi": 46,
            "name": "A#2",
            "ticks": 23428,
            "time": 114.84307983333335,
            "velocity": 0.6535433070866141
          },
          {
            "duration": 0.044117625000012595,
            "durationTicks": 9,
            "midi": 34,
            "name": "A#1",
            "ticks": 23428,
            "time": 114.84307983333335,
            "velocity": 0.5590551181102362
          },
          {
            "duration": 0.14705874999998514,
            "durationTicks": 30,
            "midi": 40,
            "name": "E2",
            "ticks": 23456,
            "time": 114.98033466666669,
            "velocity": 0.6535433070866141
          },
          {
            "duration": 0.04411762499998417,
            "durationTicks": 9,
            "midi": 46,
            "name": "A#2",
            "ticks": 23456,
            "time": 114.98033466666669,
            "velocity": 0.6535433070866141
          },
          {
            "duration": 0.05882349999998837,
            "durationTicks": 12,
            "midi": 39,
            "name": "D#2",
            "ticks": 23456,
            "time": 114.98033466666669,
            "velocity": 0.937007874015748
          },
          {
            "duration": 0.05392154166668206,
            "durationTicks": 11,
            "midi": 46,
            "name": "A#2",
            "ticks": 23458,
            "time": 114.99013858333333,
            "velocity": 0.6535433070866141
          },
          {
            "duration": 0,
            "durationTicks": 0,
            "midi": 34,
            "name": "A#1",
            "ticks": 23458,
            "time": 114.99013858333333,
            "velocity": 0.5590551181102362
          },
          {
            "duration": 0.019607833333367353,
            "durationTicks": 4,
            "midi": 48,
            "name": "C3",
            "ticks": 23458,
            "time": 114.99013858333333,
            "velocity": 0.6535433070866141
          },
          {
            "duration": 0.019607833333367353,
            "durationTicks": 4,
            "midi": 36,
            "name": "C2",
            "ticks": 23458,
            "time": 114.99013858333333,
            "velocity": 0.5590551181102362
          },
          {
            "duration": 0.186274416666663,
            "durationTicks": 38,
            "midi": 46,
            "name": "A#2",
            "ticks": 23460,
            "time": 114.9999425,
            "velocity": 0.937007874015748
          },
          {
            "duration": 0.0637254583333231,
            "durationTicks": 13,
            "midi": 44,
            "name": "G#2",
            "ticks": 23486,
            "time": 115.12739341666668,
            "velocity": 0.6535433070866141
          },
          {
            "duration": 0.1372548333333441,
            "durationTicks": 28,
            "midi": 45,
            "name": "A2",
            "ticks": 23514,
            "time": 115.26464825,
            "velocity": 0.6535433070866141
          },
          {
            "duration": 0.0931372083333315,
            "durationTicks": 19,
            "midi": 35,
            "name": "B1",
            "ticks": 23514,
            "time": 115.26464825,
            "velocity": 0.6535433070866141
          },
          {
            "duration": 0.2941174999999987,
            "durationTicks": 60,
            "midi": 36,
            "name": "C2",
            "ticks": 23515,
            "time": 115.26955020833336,
            "velocity": 0.6535433070866141
          },
          {
            "duration": 0.08333329166663361,
            "durationTicks": 17,
            "midi": 44,
            "name": "G#2",
            "ticks": 23516,
            "time": 115.27445216666669,
            "velocity": 0.6535433070866141
          },
          {
            "duration": 0.04901958333334733,
            "durationTicks": 10,
            "midi": 62,
            "name": "D4",
            "ticks": 23520,
            "time": 115.29406,
            "velocity": 0.6220472440944882
          },
          {
            "duration": 0.04901958333334733,
            "durationTicks": 10,
            "midi": 44,
            "name": "G#2",
            "ticks": 23546,
            "time": 115.42151091666668,
            "velocity": 0.6535433070866141
          },
          {
            "duration": 0.0784313333333273,
            "durationTicks": 16,
            "midi": 46,
            "name": "A#2",
            "ticks": 23548,
            "time": 115.43131483333335,
            "velocity": 0.6535433070866141
          },
          {
            "duration": 0.0784313333333273,
            "durationTicks": 16,
            "midi": 34,
            "name": "A#1",
            "ticks": 23548,
            "time": 115.43131483333335,
            "velocity": 0.5590551181102362
          },
          {
            "duration": 0.06862741666665784,
            "durationTicks": 14,
            "midi": 44,
            "name": "G#2",
            "ticks": 23576,
            "time": 115.56856966666669,
            "velocity": 0.6535433070866141
          },
          {
            "duration": 0.04411762499998417,
            "durationTicks": 9,
            "midi": 39,
            "name": "D#2",
            "ticks": 23576,
            "time": 115.56856966666669,
            "velocity": 0.8267716535433071
          },
          {
            "duration": 0.029411750000008396,
            "durationTicks": 6,
            "midi": 62,
            "name": "D4",
            "ticks": 23580,
            "time": 115.5881775,
            "velocity": 0.9763779527559056
          },
          {
            "duration": 0.12745091666667463,
            "durationTicks": 26,
            "midi": 40,
            "name": "E2",
            "ticks": 23606,
            "time": 115.71562841666668,
            "velocity": 0.6535433070866141
          },
          {
            "duration": 0.05392154166668206,
            "durationTicks": 11,
            "midi": 44,
            "name": "G#2",
            "ticks": 23606,
            "time": 115.71562841666668,
            "velocity": 0.6535433070866141
          },
          {
            "duration": 0.08823524999999677,
            "durationTicks": 18,
            "midi": 39,
            "name": "D#2",
            "ticks": 23606,
            "time": 115.71562841666668,
            "velocity": 0.7086614173228346
          },
          {
            "duration": 0.049019583333318906,
            "durationTicks": 10,
            "midi": 46,
            "name": "A#2",
            "ticks": 23608,
            "time": 115.72543233333334,
            "velocity": 0.6535433070866141
          },
          {
            "duration": 0.044117625000012595,
            "durationTicks": 9,
            "midi": 34,
            "name": "A#1",
            "ticks": 23608,
            "time": 115.72543233333334,
            "velocity": 0.5590551181102362
          },
          {
            "duration": 0.07352937499999257,
            "durationTicks": 15,
            "midi": 61,
            "name": "C#4",
            "ticks": 23610,
            "time": 115.73523625000001,
            "velocity": 1
          },
          {
            "duration": 0.2941174999999987,
            "durationTicks": 60,
            "midi": 36,
            "name": "C2",
            "ticks": 23635,
            "time": 115.85778520833335,
            "velocity": 0.6535433070866141
          },
          {
            "duration": 0.07352937499999257,
            "durationTicks": 15,
            "midi": 44,
            "name": "G#2",
            "ticks": 23636,
            "time": 115.86268716666669,
            "velocity": 0.6535433070866141
          },
          {
            "duration": 0.0637254583333231,
            "durationTicks": 13,
            "midi": 44,
            "name": "G#2",
            "ticks": 23666,
            "time": 116.00974591666667,
            "velocity": 0.6535433070866141
          },
          {
            "duration": 0.04901958333334733,
            "durationTicks": 10,
            "midi": 46,
            "name": "A#2",
            "ticks": 23668,
            "time": 116.01954983333334,
            "velocity": 0.6535433070866141
          },
          {
            "duration": 0.04901958333334733,
            "durationTicks": 10,
            "midi": 34,
            "name": "A#1",
            "ticks": 23668,
            "time": 116.01954983333334,
            "velocity": 0.5590551181102362
          },
          {
            "duration": 0.12745091666667463,
            "durationTicks": 26,
            "midi": 40,
            "name": "E2",
            "ticks": 23696,
            "time": 116.15680466666669,
            "velocity": 0.6535433070866141
          },
          {
            "duration": 0.08823524999999677,
            "durationTicks": 18,
            "midi": 44,
            "name": "G#2",
            "ticks": 23696,
            "time": 116.15680466666669,
            "velocity": 0.6535433070866141
          },
          {
            "duration": 0.05392154166665364,
            "durationTicks": 11,
            "midi": 39,
            "name": "D#2",
            "ticks": 23696,
            "time": 116.15680466666669,
            "velocity": 0.8267716535433071
          },
          {
            "duration": 0.17647050000002196,
            "durationTicks": 36,
            "midi": 46,
            "name": "A#2",
            "ticks": 23698,
            "time": 116.16660858333333,
            "velocity": 0.6535433070866141
          },
          {
            "duration": 0.18627441666669142,
            "durationTicks": 38,
            "midi": 34,
            "name": "A#1",
            "ticks": 23698,
            "time": 116.16660858333333,
            "velocity": 0.5590551181102362
          },
          {
            "duration": 0.04411762499998417,
            "durationTicks": 9,
            "midi": 62,
            "name": "D4",
            "ticks": 23700,
            "time": 116.17641250000003,
            "velocity": 1
          },
          {
            "duration": 0.05882350000001679,
            "durationTicks": 12,
            "midi": 44,
            "name": "G#2",
            "ticks": 23726,
            "time": 116.30386341666667,
            "velocity": 0.6535433070866141
          },
          {
            "duration": 0.09803916666666623,
            "durationTicks": 20,
            "midi": 45,
            "name": "A2",
            "ticks": 23754,
            "time": 116.44111825000002,
            "velocity": 0.6535433070866141
          },
          {
            "duration": 0.0931372083333315,
            "durationTicks": 19,
            "midi": 35,
            "name": "B1",
            "ticks": 23754,
            "time": 116.44111825000002,
            "velocity": 0.6535433070866141
          },
          {
            "duration": 0.2941174999999987,
            "durationTicks": 60,
            "midi": 36,
            "name": "C2",
            "ticks": 23755,
            "time": 116.44602020833335,
            "velocity": 0.6535433070866141
          },
          {
            "duration": 0.0784313333333273,
            "durationTicks": 16,
            "midi": 44,
            "name": "G#2",
            "ticks": 23756,
            "time": 116.45092216666669,
            "velocity": 0.6535433070866141
          },
          {
            "duration": 0.03921566666664944,
            "durationTicks": 8,
            "midi": 62,
            "name": "D4",
            "ticks": 23760,
            "time": 116.47053000000002,
            "velocity": 0.8818897637795275
          },
          {
            "duration": 0.06862741666668626,
            "durationTicks": 14,
            "midi": 44,
            "name": "G#2",
            "ticks": 23786,
            "time": 116.59798091666667,
            "velocity": 0.6535433070866141
          },
          {
            "duration": 0.04901958333334733,
            "durationTicks": 10,
            "midi": 46,
            "name": "A#2",
            "ticks": 23788,
            "time": 116.60778483333334,
            "velocity": 0.6535433070866141
          },
          {
            "duration": 0.04901958333334733,
            "durationTicks": 10,
            "midi": 34,
            "name": "A#1",
            "ticks": 23788,
            "time": 116.60778483333334,
            "velocity": 0.5590551181102362
          },
          {
            "duration": 0.06862741666665784,
            "durationTicks": 14,
            "midi": 44,
            "name": "G#2",
            "ticks": 23816,
            "time": 116.74503966666668,
            "velocity": 0.6535433070866141
          },
          {
            "duration": 0.05392154166665364,
            "durationTicks": 11,
            "midi": 39,
            "name": "D#2",
            "ticks": 23816,
            "time": 116.74503966666668,
            "velocity": 0.8818897637795275
          },
          {
            "duration": 0.03921566666664944,
            "durationTicks": 8,
            "midi": 60,
            "name": "C4",
            "ticks": 23820,
            "time": 116.76464750000002,
            "velocity": 0.937007874015748
          },
          {
            "duration": 0.11764700000000516,
            "durationTicks": 24,
            "midi": 40,
            "name": "E2",
            "ticks": 23846,
            "time": 116.89209841666667,
            "velocity": 0.6535433070866141
          },
          {
            "duration": 0.0637254583333231,
            "durationTicks": 13,
            "midi": 44,
            "name": "G#2",
            "ticks": 23846,
            "time": 116.89209841666667,
            "velocity": 0.6535433070866141
          },
          {
            "duration": 0.0931372083333315,
            "durationTicks": 19,
            "midi": 39,
            "name": "D#2",
            "ticks": 23846,
            "time": 116.89209841666667,
            "velocity": 0.7086614173228346
          },
          {
            "duration": 0.2941174999999987,
            "durationTicks": 60,
            "midi": 36,
            "name": "C2",
            "ticks": 23875,
            "time": 117.03425520833335,
            "velocity": 0.6535433070866141
          },
          {
            "duration": 0.0784313333333273,
            "durationTicks": 16,
            "midi": 44,
            "name": "G#2",
            "ticks": 23876,
            "time": 117.03915716666668,
            "velocity": 0.6535433070866141
          },
          {
            "duration": 0.029411750000008396,
            "durationTicks": 6,
            "midi": 46,
            "name": "A#2",
            "ticks": 23878,
            "time": 117.04896108333332,
            "velocity": 0.6535433070866141
          },
          {
            "duration": 0.039215666666706284,
            "durationTicks": 8,
            "midi": 34,
            "name": "A#1",
            "ticks": 23878,
            "time": 117.04896108333332,
            "velocity": 0.5590551181102362
          },
          {
            "duration": 0.029411750000008396,
            "durationTicks": 6,
            "midi": 60,
            "name": "C4",
            "ticks": 23880,
            "time": 117.05876500000002,
            "velocity": 0.905511811023622
          },
          {
            "duration": 0.06372545833335153,
            "durationTicks": 13,
            "midi": 44,
            "name": "G#2",
            "ticks": 23906,
            "time": 117.18621591666667,
            "velocity": 0.6535433070866141
          },
          {
            "duration": 0.06862741666665784,
            "durationTicks": 14,
            "midi": 46,
            "name": "A#2",
            "ticks": 23908,
            "time": 117.19601983333334,
            "velocity": 0.6535433070866141
          },
          {
            "duration": 0.06862741666665784,
            "durationTicks": 14,
            "midi": 34,
            "name": "A#1",
            "ticks": 23908,
            "time": 117.19601983333334,
            "velocity": 0.5590551181102362
          },
          {
            "duration": 0.11764700000000516,
            "durationTicks": 24,
            "midi": 40,
            "name": "E2",
            "ticks": 23936,
            "time": 117.33327466666668,
            "velocity": 0.6535433070866141
          },
          {
            "duration": 0.0931372083333315,
            "durationTicks": 19,
            "midi": 44,
            "name": "G#2",
            "ticks": 23936,
            "time": 117.33327466666668,
            "velocity": 0.6535433070866141
          },
          {
            "duration": 0.04411762499998417,
            "durationTicks": 9,
            "midi": 39,
            "name": "D#2",
            "ticks": 23936,
            "time": 117.33327466666668,
            "velocity": 0.937007874015748
          },
          {
            "duration": 0.17647049999999354,
            "durationTicks": 36,
            "midi": 46,
            "name": "A#2",
            "ticks": 23938,
            "time": 117.34307858333335,
            "velocity": 0.6535433070866141
          },
          {
            "duration": 0.17647049999999354,
            "durationTicks": 36,
            "midi": 34,
            "name": "A#1",
            "ticks": 23938,
            "time": 117.34307858333335,
            "velocity": 0.5590551181102362
          },
          {
            "duration": 0.07352937499999257,
            "durationTicks": 15,
            "midi": 58,
            "name": "A#3",
            "ticks": 23940,
            "time": 117.35288250000002,
            "velocity": 1
          },
          {
            "duration": 0.06862741666668626,
            "durationTicks": 14,
            "midi": 44,
            "name": "G#2",
            "ticks": 23966,
            "time": 117.48033341666667,
            "velocity": 0.6535433070866141
          },
          {
            "duration": 0.11764700000000516,
            "durationTicks": 24,
            "midi": 35,
            "name": "B1",
            "ticks": 23994,
            "time": 117.61758825000001,
            "velocity": 0.6535433070866141
          },
          {
            "duration": 0.10294112500000097,
            "durationTicks": 21,
            "midi": 45,
            "name": "A2",
            "ticks": 23994,
            "time": 117.61758825000001,
            "velocity": 0.6535433070866141
          },
          {
            "duration": 0.2941174999999987,
            "durationTicks": 60,
            "midi": 36,
            "name": "C2",
            "ticks": 23995,
            "time": 117.62249020833335,
            "velocity": 0.6535433070866141
          },
          {
            "duration": 0.08823524999999677,
            "durationTicks": 18,
            "midi": 49,
            "name": "C#3",
            "ticks": 23996,
            "time": 117.62739216666668,
            "velocity": 0.6535433070866141
          },
          {
            "duration": 0.05392154166665364,
            "durationTicks": 11,
            "midi": 62,
            "name": "D4",
            "ticks": 24000,
            "time": 117.64700000000002,
            "velocity": 0.905511811023622
          },
          {
            "duration": 0.06862741666665784,
            "durationTicks": 14,
            "midi": 44,
            "name": "G#2",
            "ticks": 24026,
            "time": 117.7744509166667,
            "velocity": 0.6535433070866141
          },
          {
            "duration": 0.08823524999999677,
            "durationTicks": 18,
            "midi": 46,
            "name": "A#2",
            "ticks": 24028,
            "time": 117.78425483333334,
            "velocity": 0.6535433070866141
          },
          {
            "duration": 0.07843133333335572,
            "durationTicks": 16,
            "midi": 34,
            "name": "A#1",
            "ticks": 24028,
            "time": 117.78425483333334,
            "velocity": 0.5590551181102362
          },
          {
            "duration": 0.07352937499999257,
            "durationTicks": 15,
            "midi": 44,
            "name": "G#2",
            "ticks": 24056,
            "time": 117.92150966666668,
            "velocity": 0.6535433070866141
          },
          {
            "duration": 0.04411762499998417,
            "durationTicks": 9,
            "midi": 39,
            "name": "D#2",
            "ticks": 24056,
            "time": 117.92150966666668,
            "velocity": 0.9763779527559056
          },
          {
            "duration": 0.01960783333333893,
            "durationTicks": 4,
            "midi": 63,
            "name": "D#4",
            "ticks": 24060,
            "time": 117.94111750000002,
            "velocity": 1
          },
          {
            "duration": 0.11274504166664201,
            "durationTicks": 23,
            "midi": 40,
            "name": "E2",
            "ticks": 24086,
            "time": 118.0685684166667,
            "velocity": 0.6535433070866141
          },
          {
            "duration": 0.0637254583333231,
            "durationTicks": 13,
            "midi": 44,
            "name": "G#2",
            "ticks": 24086,
            "time": 118.0685684166667,
            "velocity": 0.6535433070866141
          },
          {
            "duration": 0.07352937499999257,
            "durationTicks": 15,
            "midi": 39,
            "name": "D#2",
            "ticks": 24086,
            "time": 118.0685684166667,
            "velocity": 0.6929133858267716
          },
          {
            "duration": 0.044117625000012595,
            "durationTicks": 9,
            "midi": 46,
            "name": "A#2",
            "ticks": 24088,
            "time": 118.07837233333333,
            "velocity": 0.6535433070866141
          },
          {
            "duration": 0.044117625000012595,
            "durationTicks": 9,
            "midi": 34,
            "name": "A#1",
            "ticks": 24088,
            "time": 118.07837233333333,
            "velocity": 0.5590551181102362
          },
          {
            "duration": 0.03431370833334313,
            "durationTicks": 7,
            "midi": 61,
            "name": "C#4",
            "ticks": 24090,
            "time": 118.08817625,
            "velocity": 1
          },
          {
            "duration": 0.2941174999999987,
            "durationTicks": 60,
            "midi": 36,
            "name": "C2",
            "ticks": 24115,
            "time": 118.21072520833334,
            "velocity": 0.6535433070866141
          },
          {
            "duration": 0.06862741666668626,
            "durationTicks": 14,
            "midi": 44,
            "name": "G#2",
            "ticks": 24116,
            "time": 118.21562716666668,
            "velocity": 0.6535433070866141
          },
          {
            "duration": 0.05392154166665364,
            "durationTicks": 11,
            "midi": 46,
            "name": "A#2",
            "ticks": 24118,
            "time": 118.22543108333335,
            "velocity": 0.6535433070866141
          },
          {
            "duration": 0.05392154166665364,
            "durationTicks": 11,
            "midi": 34,
            "name": "A#1",
            "ticks": 24118,
            "time": 118.22543108333335,
            "velocity": 0.5590551181102362
          },
          {
            "duration": 0.0637254583333231,
            "durationTicks": 13,
            "midi": 44,
            "name": "G#2",
            "ticks": 24146,
            "time": 118.36268591666669,
            "velocity": 0.6535433070866141
          },
          {
            "duration": 0.05392154166668206,
            "durationTicks": 11,
            "midi": 46,
            "name": "A#2",
            "ticks": 24148,
            "time": 118.37248983333333,
            "velocity": 0.6535433070866141
          },
          {
            "duration": 0.05392154166668206,
            "durationTicks": 11,
            "midi": 34,
            "name": "A#1",
            "ticks": 24148,
            "time": 118.37248983333333,
            "velocity": 0.5590551181102362
          },
          {
            "duration": 0.029411750000008396,
            "durationTicks": 6,
            "midi": 63,
            "name": "D#4",
            "ticks": 24150,
            "time": 118.38229375,
            "velocity": 0.937007874015748
          },
          {
            "duration": 0.1225489583333399,
            "durationTicks": 25,
            "midi": 40,
            "name": "E2",
            "ticks": 24176,
            "time": 118.50974466666668,
            "velocity": 0.6535433070866141
          },
          {
            "duration": 0.07352937499999257,
            "durationTicks": 15,
            "midi": 44,
            "name": "G#2",
            "ticks": 24176,
            "time": 118.50974466666668,
            "velocity": 0.6535433070866141
          },
          {
            "duration": 0.03921566666667786,
            "durationTicks": 8,
            "midi": 39,
            "name": "D#2",
            "ticks": 24176,
            "time": 118.50974466666668,
            "velocity": 0.8818897637795275
          },
          {
            "duration": 0.186274416666663,
            "durationTicks": 38,
            "midi": 46,
            "name": "A#2",
            "ticks": 24178,
            "time": 118.51954858333335,
            "velocity": 0.6535433070866141
          },
          {
            "duration": 0.186274416666663,
            "durationTicks": 38,
            "midi": 34,
            "name": "A#1",
            "ticks": 24178,
            "time": 118.51954858333335,
            "velocity": 0.5590551181102362
          },
          {
            "duration": 0.024509791666645242,
            "durationTicks": 5,
            "midi": 64,
            "name": "E4",
            "ticks": 24180,
            "time": 118.52935250000002,
            "velocity": 1
          },
          {
            "duration": 0.05392154166665364,
            "durationTicks": 11,
            "midi": 44,
            "name": "G#2",
            "ticks": 24206,
            "time": 118.65680341666669,
            "velocity": 0.6535433070866141
          },
          {
            "duration": 0.11764700000000516,
            "durationTicks": 24,
            "midi": 45,
            "name": "A2",
            "ticks": 24234,
            "time": 118.79405825,
            "velocity": 0.6535433070866141
          },
          {
            "duration": 0.11764700000000516,
            "durationTicks": 24,
            "midi": 35,
            "name": "B1",
            "ticks": 24234,
            "time": 118.79405825,
            "velocity": 0.6535433070866141
          },
          {
            "duration": 0.2941174999999987,
            "durationTicks": 60,
            "midi": 36,
            "name": "C2",
            "ticks": 24235,
            "time": 118.79896020833334,
            "velocity": 0.6535433070866141
          },
          {
            "duration": 0.0784313333333273,
            "durationTicks": 16,
            "midi": 44,
            "name": "G#2",
            "ticks": 24236,
            "time": 118.80386216666668,
            "velocity": 0.6535433070866141
          },
          {
            "duration": 0.024509791666645242,
            "durationTicks": 5,
            "midi": 62,
            "name": "D4",
            "ticks": 24240,
            "time": 118.82347000000001,
            "velocity": 0.6614173228346457
          },
          {
            "duration": 0.05392154166665364,
            "durationTicks": 11,
            "midi": 44,
            "name": "G#2",
            "ticks": 24266,
            "time": 118.95092091666669,
            "velocity": 0.6535433070866141
          },
          {
            "duration": 0.06372545833335153,
            "durationTicks": 13,
            "midi": 46,
            "name": "A#2",
            "ticks": 24268,
            "time": 118.96072483333333,
            "velocity": 0.6535433070866141
          },
          {
            "duration": 0.06862741666668626,
            "durationTicks": 14,
            "midi": 34,
            "name": "A#1",
            "ticks": 24268,
            "time": 118.96072483333333,
            "velocity": 0.5590551181102362
          },
          {
            "duration": 0.03921566666667786,
            "durationTicks": 8,
            "midi": 46,
            "name": "A#2",
            "ticks": 24296,
            "time": 119.09797966666667,
            "velocity": 0.6535433070866141
          },
          {
            "duration": 0.01960783333333893,
            "durationTicks": 4,
            "midi": 39,
            "name": "D#2",
            "ticks": 24296,
            "time": 119.09797966666667,
            "velocity": 0.5433070866141733
          },
          {
            "duration": 0.05392154166665364,
            "durationTicks": 11,
            "midi": 46,
            "name": "A#2",
            "ticks": 24298,
            "time": 119.10778358333334,
            "velocity": 0.6535433070866141
          },
          {
            "duration": 0.029411750000008396,
            "durationTicks": 6,
            "midi": 34,
            "name": "A#1",
            "ticks": 24298,
            "time": 119.10778358333334,
            "velocity": 0.5590551181102362
          },
          {
            "duration": 0.009803916666669465,
            "durationTicks": 2,
            "midi": 62,
            "name": "D4",
            "ticks": 24300,
            "time": 119.11758750000001,
            "velocity": 0.48031496062992124
          },
          {
            "duration": 0.11764699999997674,
            "durationTicks": 24,
            "midi": 40,
            "name": "E2",
            "ticks": 24326,
            "time": 119.24503841666669,
            "velocity": 0.6535433070866141
          },
          {
            "duration": 0.05392154166665364,
            "durationTicks": 11,
            "midi": 44,
            "name": "G#2",
            "ticks": 24326,
            "time": 119.24503841666669,
            "velocity": 0.6535433070866141
          },
          {
            "duration": 0.0637254583333231,
            "durationTicks": 13,
            "midi": 39,
            "name": "D#2",
            "ticks": 24326,
            "time": 119.24503841666669,
            "velocity": 0.48031496062992124
          },
          {
            "duration": 0.03921566666667786,
            "durationTicks": 8,
            "midi": 46,
            "name": "A#2",
            "ticks": 24328,
            "time": 119.25484233333333,
            "velocity": 0.6535433070866141
          },
          {
            "duration": 0.03921566666667786,
            "durationTicks": 8,
            "midi": 34,
            "name": "A#1",
            "ticks": 24328,
            "time": 119.25484233333333,
            "velocity": 0.5590551181102362
          },
          {
            "duration": 0.2941175000000271,
            "durationTicks": 60,
            "midi": 36,
            "name": "C2",
            "ticks": 24355,
            "time": 119.38719520833334,
            "velocity": 0.6535433070866141
          },
          {
            "duration": 0.0784313333333273,
            "durationTicks": 16,
            "midi": 44,
            "name": "G#2",
            "ticks": 24356,
            "time": 119.39209716666667,
            "velocity": 0.6535433070866141
          },
          {
            "duration": 0.04901958333334733,
            "durationTicks": 10,
            "midi": 46,
            "name": "A#2",
            "ticks": 24358,
            "time": 119.40190108333334,
            "velocity": 0.6535433070866141
          },
          {
            "duration": 0.04901958333334733,
            "durationTicks": 10,
            "midi": 34,
            "name": "A#1",
            "ticks": 24358,
            "time": 119.40190108333334,
            "velocity": 0.5590551181102362
          },
          {
            "duration": 0.0637254583333231,
            "durationTicks": 13,
            "midi": 44,
            "name": "G#2",
            "ticks": 24386,
            "time": 119.53915591666669,
            "velocity": 0.6535433070866141
          },
          {
            "duration": 0.0637254583333231,
            "durationTicks": 13,
            "midi": 39,
            "name": "D#2",
            "ticks": 24386,
            "time": 119.53915591666669,
            "velocity": 0.5748031496062992
          },
          {
            "duration": 0.06372545833335153,
            "durationTicks": 13,
            "midi": 46,
            "name": "A#2",
            "ticks": 24388,
            "time": 119.54895983333333,
            "velocity": 0.6535433070866141
          },
          {
            "duration": 0.06372545833335153,
            "durationTicks": 13,
            "midi": 34,
            "name": "A#1",
            "ticks": 24388,
            "time": 119.54895983333333,
            "velocity": 0.5590551181102362
          },
          {
            "duration": 0.12745091666667463,
            "durationTicks": 26,
            "midi": 40,
            "name": "E2",
            "ticks": 24416,
            "time": 119.68621466666667,
            "velocity": 0.6535433070866141
          },
          {
            "duration": 0.06862741666668626,
            "durationTicks": 14,
            "midi": 46,
            "name": "A#2",
            "ticks": 24416,
            "time": 119.68621466666667,
            "velocity": 0.6535433070866141
          },
          {
            "duration": 0.044117625000012595,
            "durationTicks": 9,
            "midi": 39,
            "name": "D#2",
            "ticks": 24416,
            "time": 119.68621466666667,
            "velocity": 0.9763779527559056
          },
          {
            "duration": 0.2156861666666714,
            "durationTicks": 44,
            "midi": 46,
            "name": "A#2",
            "ticks": 24418,
            "time": 119.69601858333334,
            "velocity": 0.6535433070866141
          },
          {
            "duration": 0.2156861666666714,
            "durationTicks": 44,
            "midi": 34,
            "name": "A#1",
            "ticks": 24418,
            "time": 119.69601858333334,
            "velocity": 0.5590551181102362
          },
          {
            "duration": 0.04901958333334733,
            "durationTicks": 10,
            "midi": 78,
            "name": "F#5",
            "ticks": 24420,
            "time": 119.70582250000001,
            "velocity": 1
          },
          {
            "duration": 0.0637254583333231,
            "durationTicks": 13,
            "midi": 44,
            "name": "G#2",
            "ticks": 24446,
            "time": 119.83327341666669,
            "velocity": 0.6535433070866141
          },
          {
            "duration": 0.10294112500000097,
            "durationTicks": 21,
            "midi": 45,
            "name": "A2",
            "ticks": 24474,
            "time": 119.97052825,
            "velocity": 0.6535433070866141
          },
          {
            "duration": 0.09803916666669465,
            "durationTicks": 20,
            "midi": 35,
            "name": "B1",
            "ticks": 24474,
            "time": 119.97052825,
            "velocity": 0.6535433070866141
          },
          {
            "duration": 0.2941174999999987,
            "durationTicks": 60,
            "midi": 36,
            "name": "C2",
            "ticks": 24475,
            "time": 119.97543020833336,
            "velocity": 0.6535433070866141
          },
          {
            "duration": 0.07352937500002099,
            "durationTicks": 15,
            "midi": 49,
            "name": "C#3",
            "ticks": 24476,
            "time": 119.98033216666667,
            "velocity": 0.6535433070866141
          },
          {
            "duration": 0.06862741666665784,
            "durationTicks": 14,
            "midi": 44,
            "name": "G#2",
            "ticks": 24506,
            "time": 120.12739091666668,
            "velocity": 0.6535433070866141
          },
          {
            "duration": 0.05392154166668206,
            "durationTicks": 11,
            "midi": 44,
            "name": "G#2",
            "ticks": 24536,
            "time": 120.27444966666667,
            "velocity": 0.6535433070866141
          },
          {
            "duration": 0.044117625000012595,
            "durationTicks": 9,
            "midi": 39,
            "name": "D#2",
            "ticks": 24536,
            "time": 120.27444966666667,
            "velocity": 0.937007874015748
          },
          {
            "duration": 0.04901958333334733,
            "durationTicks": 10,
            "midi": 60,
            "name": "C4",
            "ticks": 24540,
            "time": 120.29405750000001,
            "velocity": 0.9763779527559056
          },
          {
            "duration": 0.11274504166667043,
            "durationTicks": 23,
            "midi": 40,
            "name": "E2",
            "ticks": 24566,
            "time": 120.42150841666668,
            "velocity": 0.6535433070866141
          },
          {
            "duration": 0.05392154166665364,
            "durationTicks": 11,
            "midi": 44,
            "name": "G#2",
            "ticks": 24566,
            "time": 120.42150841666668,
            "velocity": 0.6535433070866141
          },
          {
            "duration": 0.07352937499999257,
            "durationTicks": 15,
            "midi": 39,
            "name": "D#2",
            "ticks": 24566,
            "time": 120.42150841666668,
            "velocity": 0.5275590551181102
          },
          {
            "duration": 0.05882349999998837,
            "durationTicks": 12,
            "midi": 60,
            "name": "C4",
            "ticks": 24570,
            "time": 120.44111625000002,
            "velocity": 1
          },
          {
            "duration": 0.2941174999999987,
            "durationTicks": 60,
            "midi": 36,
            "name": "C2",
            "ticks": 24595,
            "time": 120.56366520833336,
            "velocity": 0.6535433070866141
          },
          {
            "duration": 0.06862741666668626,
            "durationTicks": 14,
            "midi": 44,
            "name": "G#2",
            "ticks": 24596,
            "time": 120.56856716666667,
            "velocity": 0.6535433070866141
          },
          {
            "duration": 0.05392154166665364,
            "durationTicks": 11,
            "midi": 44,
            "name": "G#2",
            "ticks": 24626,
            "time": 120.71562591666668,
            "velocity": 0.6535433070866141
          },
          {
            "duration": 0.12254895833331148,
            "durationTicks": 25,
            "midi": 40,
            "name": "E2",
            "ticks": 24656,
            "time": 120.8626846666667,
            "velocity": 0.6535433070866141
          },
          {
            "duration": 0.07352937499999257,
            "durationTicks": 15,
            "midi": 44,
            "name": "G#2",
            "ticks": 24656,
            "time": 120.8626846666667,
            "velocity": 0.6535433070866141
          },
          {
            "duration": 0.05392154166665364,
            "durationTicks": 11,
            "midi": 39,
            "name": "D#2",
            "ticks": 24656,
            "time": 120.8626846666667,
            "velocity": 0.9763779527559056
          },
          {
            "duration": 0.05392154166668206,
            "durationTicks": 11,
            "midi": 62,
            "name": "D4",
            "ticks": 24660,
            "time": 120.8822925,
            "velocity": 1
          },
          {
            "duration": 0.0637254583333231,
            "durationTicks": 13,
            "midi": 44,
            "name": "G#2",
            "ticks": 24686,
            "time": 121.00974341666668,
            "velocity": 0.6535433070866141
          },
          {
            "duration": 0.1372548333333441,
            "durationTicks": 28,
            "midi": 45,
            "name": "A2",
            "ticks": 24714,
            "time": 121.14699825,
            "velocity": 0.6535433070866141
          },
          {
            "duration": 0.11764700000003359,
            "durationTicks": 24,
            "midi": 35,
            "name": "B1",
            "ticks": 24714,
            "time": 121.14699825,
            "velocity": 0.6535433070866141
          },
          {
            "duration": 0.2941174999999987,
            "durationTicks": 60,
            "midi": 36,
            "name": "C2",
            "ticks": 24715,
            "time": 121.15190020833336,
            "velocity": 0.6535433070866141
          },
          {
            "duration": 0.0784313333333273,
            "durationTicks": 16,
            "midi": 44,
            "name": "G#2",
            "ticks": 24716,
            "time": 121.1568021666667,
            "velocity": 0.6535433070866141
          },
          {
            "duration": 0.03921566666667786,
            "durationTicks": 8,
            "midi": 62,
            "name": "D4",
            "ticks": 24720,
            "time": 121.17641,
            "velocity": 0.7637795275590551
          },
          {
            "duration": 0.0637254583333231,
            "durationTicks": 13,
            "midi": 44,
            "name": "G#2",
            "ticks": 24746,
            "time": 121.30386091666668,
            "velocity": 0.6535433070866141
          },
          {
            "duration": 0.08823524999999677,
            "durationTicks": 18,
            "midi": 44,
            "name": "G#2",
            "ticks": 24776,
            "time": 121.45091966666669,
            "velocity": 0.6535433070866141
          },
          {
            "duration": 0.049019583333318906,
            "durationTicks": 10,
            "midi": 39,
            "name": "D#2",
            "ticks": 24776,
            "time": 121.45091966666669,
            "velocity": 0.937007874015748
          },
          {
            "duration": 0.05882350000001679,
            "durationTicks": 12,
            "midi": 63,
            "name": "D#4",
            "ticks": 24780,
            "time": 121.4705275,
            "velocity": 1
          },
          {
            "duration": 0.14705875000001356,
            "durationTicks": 30,
            "midi": 40,
            "name": "E2",
            "ticks": 24806,
            "time": 121.59797841666668,
            "velocity": 0.6535433070866141
          },
          {
            "duration": 0.07352937499999257,
            "durationTicks": 15,
            "midi": 44,
            "name": "G#2",
            "ticks": 24806,
            "time": 121.59797841666668,
            "velocity": 0.6535433070866141
          },
          {
            "duration": 0.07352937499999257,
            "durationTicks": 15,
            "midi": 39,
            "name": "D#2",
            "ticks": 24806,
            "time": 121.59797841666668,
            "velocity": 0.4094488188976378
          },
          {
            "duration": 0.2941174999999987,
            "durationTicks": 60,
            "midi": 36,
            "name": "C2",
            "ticks": 24835,
            "time": 121.74013520833336,
            "velocity": 0.6535433070866141
          },
          {
            "duration": 0.08823524999999677,
            "durationTicks": 18,
            "midi": 44,
            "name": "G#2",
            "ticks": 24836,
            "time": 121.74503716666669,
            "velocity": 0.6535433070866141
          },
          {
            "duration": 0.0637254583333231,
            "durationTicks": 13,
            "midi": 44,
            "name": "G#2",
            "ticks": 24866,
            "time": 121.89209591666668,
            "velocity": 0.6535433070866141
          },
          {
            "duration": 0.0637254583333231,
            "durationTicks": 13,
            "midi": 60,
            "name": "C4",
            "ticks": 24870,
            "time": 121.91170375000002,
            "velocity": 1
          },
          {
            "duration": 0.1225489583333399,
            "durationTicks": 25,
            "midi": 40,
            "name": "E2",
            "ticks": 24896,
            "time": 122.03915466666669,
            "velocity": 0.6535433070866141
          },
          {
            "duration": 0.0784313333333273,
            "durationTicks": 16,
            "midi": 44,
            "name": "G#2",
            "ticks": 24896,
            "time": 122.03915466666669,
            "velocity": 0.6535433070866141
          },
          {
            "duration": 0.0637254583333231,
            "durationTicks": 13,
            "midi": 39,
            "name": "D#2",
            "ticks": 24896,
            "time": 122.03915466666669,
            "velocity": 1
          },
          {
            "duration": 0.014705875000004198,
            "durationTicks": 3,
            "midi": 63,
            "name": "D#4",
            "ticks": 24900,
            "time": 122.0587625,
            "velocity": 1
          },
          {
            "duration": 0.0637254583333231,
            "durationTicks": 13,
            "midi": 44,
            "name": "G#2",
            "ticks": 24926,
            "time": 122.18621341666667,
            "velocity": 0.6535433070866141
          },
          {
            "duration": 0.0637254583333231,
            "durationTicks": 13,
            "midi": 61,
            "name": "C#4",
            "ticks": 24930,
            "time": 122.20582125000001,
            "velocity": 1
          },
          {
            "duration": 0.10294112500000097,
            "durationTicks": 21,
            "midi": 35,
            "name": "B1",
            "ticks": 24954,
            "time": 122.32346825000002,
            "velocity": 0.6535433070866141
          },
          {
            "duration": 0.14705874999998514,
            "durationTicks": 30,
            "midi": 45,
            "name": "A2",
            "ticks": 24954,
            "time": 122.32346825000002,
            "velocity": 0.6535433070866141
          },
          {
            "duration": 0.2941174999999987,
            "durationTicks": 60,
            "midi": 36,
            "name": "C2",
            "ticks": 24955,
            "time": 122.32837020833335,
            "velocity": 0.6535433070866141
          },
          {
            "duration": 0.07352937499999257,
            "durationTicks": 15,
            "midi": 49,
            "name": "C#3",
            "ticks": 24956,
            "time": 122.33327216666669,
            "velocity": 0.6535433070866141
          },
          {
            "duration": 0.0637254583333231,
            "durationTicks": 13,
            "midi": 44,
            "name": "G#2",
            "ticks": 24986,
            "time": 122.48033091666667,
            "velocity": 0.6535433070866141
          },
          {
            "duration": 0.05392154166668206,
            "durationTicks": 11,
            "midi": 63,
            "name": "D#4",
            "ticks": 24990,
            "time": 122.49993875000001,
            "velocity": 1
          },
          {
            "duration": 0.07352937499999257,
            "durationTicks": 15,
            "midi": 44,
            "name": "G#2",
            "ticks": 25016,
            "time": 122.62738966666669,
            "velocity": 0.6535433070866141
          },
          {
            "duration": 0.03921566666664944,
            "durationTicks": 8,
            "midi": 39,
            "name": "D#2",
            "ticks": 25016,
            "time": 122.62738966666669,
            "velocity": 0.905511811023622
          },
          {
            "duration": 0.01960783333331051,
            "durationTicks": 4,
            "midi": 64,
            "name": "E4",
            "ticks": 25020,
            "time": 122.64699750000003,
            "velocity": 1
          },
          {
            "duration": 0.10294112500002939,
            "durationTicks": 21,
            "midi": 40,
            "name": "E2",
            "ticks": 25046,
            "time": 122.77444841666667,
            "velocity": 0.6535433070866141
          },
          {
            "duration": 0.06862741666668626,
            "durationTicks": 14,
            "midi": 44,
            "name": "G#2",
            "ticks": 25046,
            "time": 122.77444841666667,
            "velocity": 0.6535433070866141
          },
          {
            "duration": 0.07352937500002099,
            "durationTicks": 15,
            "midi": 39,
            "name": "D#2",
            "ticks": 25046,
            "time": 122.77444841666667,
            "velocity": 0.7086614173228346
          },
          {
            "duration": 0.04901958333334733,
            "durationTicks": 10,
            "midi": 61,
            "name": "C#4",
            "ticks": 25050,
            "time": 122.79405625000001,
            "velocity": 0.937007874015748
          },
          {
            "duration": 0.2941174999999987,
            "durationTicks": 60,
            "midi": 36,
            "name": "C2",
            "ticks": 25075,
            "time": 122.91660520833335,
            "velocity": 0.6535433070866141
          },
          {
            "duration": 0.07352937499999257,
            "durationTicks": 15,
            "midi": 44,
            "name": "G#2",
            "ticks": 25076,
            "time": 122.92150716666669,
            "velocity": 0.6535433070866141
          },
          {
            "duration": 0.05392154166668206,
            "durationTicks": 11,
            "midi": 44,
            "name": "G#2",
            "ticks": 25106,
            "time": 123.06856591666667,
            "velocity": 0.6535433070866141
          },
          {
            "duration": 0.04901958333334733,
            "durationTicks": 10,
            "midi": 61,
            "name": "C#4",
            "ticks": 25110,
            "time": 123.08817375000001,
            "velocity": 0.937007874015748
          },
          {
            "duration": 0.1225489583333399,
            "durationTicks": 25,
            "midi": 40,
            "name": "E2",
            "ticks": 25136,
            "time": 123.21562466666668,
            "velocity": 0.6535433070866141
          },
          {
            "duration": 0.07352937499999257,
            "durationTicks": 15,
            "midi": 44,
            "name": "G#2",
            "ticks": 25136,
            "time": 123.21562466666668,
            "velocity": 0.6535433070866141
          },
          {
            "duration": 0.04901958333334733,
            "durationTicks": 10,
            "midi": 39,
            "name": "D#2",
            "ticks": 25136,
            "time": 123.21562466666668,
            "velocity": 1
          },
          {
            "duration": 0.01960783333331051,
            "durationTicks": 4,
            "midi": 62,
            "name": "D4",
            "ticks": 25140,
            "time": 123.23523250000002,
            "velocity": 1
          },
          {
            "duration": 0.0637254583333231,
            "durationTicks": 13,
            "midi": 44,
            "name": "G#2",
            "ticks": 25166,
            "time": 123.36268341666667,
            "velocity": 0.6535433070866141
          },
          {
            "duration": 0.04411762499998417,
            "durationTicks": 9,
            "midi": 60,
            "name": "C4",
            "ticks": 25170,
            "time": 123.38229125000001,
            "velocity": 0.8818897637795275
          },
          {
            "duration": 0.11274504166667043,
            "durationTicks": 23,
            "midi": 45,
            "name": "A2",
            "ticks": 25194,
            "time": 123.49993825000001,
            "velocity": 0.6535433070866141
          },
          {
            "duration": 0.09803916666666623,
            "durationTicks": 20,
            "midi": 35,
            "name": "B1",
            "ticks": 25194,
            "time": 123.49993825000001,
            "velocity": 0.6535433070866141
          },
          {
            "duration": 0.2941174999999987,
            "durationTicks": 60,
            "midi": 36,
            "name": "C2",
            "ticks": 25195,
            "time": 123.50484020833335,
            "velocity": 0.6535433070866141
          },
          {
            "duration": 0.08333329166666203,
            "durationTicks": 17,
            "midi": 44,
            "name": "G#2",
            "ticks": 25196,
            "time": 123.50974216666668,
            "velocity": 0.6535433070866141
          },
          {
            "duration": 0.024509791666645242,
            "durationTicks": 5,
            "midi": 62,
            "name": "D4",
            "ticks": 25200,
            "time": 123.52935000000002,
            "velocity": 1
          },
          {
            "duration": 0.05882350000001679,
            "durationTicks": 12,
            "midi": 44,
            "name": "G#2",
            "ticks": 25226,
            "time": 123.65680091666667,
            "velocity": 0.6535433070866141
          },
          {
            "duration": 0.0931372083333315,
            "durationTicks": 19,
            "midi": 44,
            "name": "G#2",
            "ticks": 25256,
            "time": 123.80385966666668,
            "velocity": 0.6535433070866141
          },
          {
            "duration": 0.03921566666664944,
            "durationTicks": 8,
            "midi": 39,
            "name": "D#2",
            "ticks": 25256,
            "time": 123.80385966666668,
            "velocity": 0.8818897637795275
          },
          {
            "duration": 0.11764700000000516,
            "durationTicks": 24,
            "midi": 40,
            "name": "E2",
            "ticks": 25286,
            "time": 123.95091841666667,
            "velocity": 0.6535433070866141
          },
          {
            "duration": 0.06862741666668626,
            "durationTicks": 14,
            "midi": 44,
            "name": "G#2",
            "ticks": 25286,
            "time": 123.95091841666667,
            "velocity": 0.6535433070866141
          },
          {
            "duration": 0.08823525000002519,
            "durationTicks": 18,
            "midi": 39,
            "name": "D#2",
            "ticks": 25286,
            "time": 123.95091841666667,
            "velocity": 0.49606299212598426
          },
          {
            "duration": 0.024509791666673664,
            "durationTicks": 5,
            "midi": 63,
            "name": "D#4",
            "ticks": 25290,
            "time": 123.97052625,
            "velocity": 1
          },
          {
            "duration": 0.2941174999999987,
            "durationTicks": 60,
            "midi": 36,
            "name": "C2",
            "ticks": 25315,
            "time": 124.09307520833335,
            "velocity": 0.6535433070866141
          },
          {
            "duration": 0.0931372083333315,
            "durationTicks": 19,
            "midi": 44,
            "name": "G#2",
            "ticks": 25316,
            "time": 124.09797716666668,
            "velocity": 0.6535433070866141
          },
          {
            "duration": 0.04411762499998417,
            "durationTicks": 9,
            "midi": 63,
            "name": "D#4",
            "ticks": 25320,
            "time": 124.11758500000002,
            "velocity": 1
          },
          {
            "duration": 0.04411762499998417,
            "durationTicks": 9,
            "midi": 63,
            "name": "D#4",
            "ticks": 25320,
            "time": 124.11758500000002,
            "velocity": 1
          },
          {
            "duration": 0.06862741666665784,
            "durationTicks": 14,
            "midi": 44,
            "name": "G#2",
            "ticks": 25346,
            "time": 124.2450359166667,
            "velocity": 0.6535433070866141
          },
          {
            "duration": 0.04901958333334733,
            "durationTicks": 10,
            "midi": 63,
            "name": "D#4",
            "ticks": 25350,
            "time": 124.26464375,
            "velocity": 1
          },
          {
            "duration": 0.14705875000001356,
            "durationTicks": 30,
            "midi": 40,
            "name": "E2",
            "ticks": 25376,
            "time": 124.39209466666668,
            "velocity": 0.6535433070866141
          },
          {
            "duration": 0.08823524999999677,
            "durationTicks": 18,
            "midi": 55,
            "name": "G3",
            "ticks": 25376,
            "time": 124.39209466666668,
            "velocity": 0.6535433070866141
          },
          {
            "duration": 0.07352937499999257,
            "durationTicks": 15,
            "midi": 44,
            "name": "G#2",
            "ticks": 25376,
            "time": 124.39209466666668,
            "velocity": 0.6535433070866141
          },
          {
            "duration": 0.04901958333334733,
            "durationTicks": 10,
            "midi": 39,
            "name": "D#2",
            "ticks": 25376,
            "time": 124.39209466666668,
            "velocity": 0.9763779527559056
          },
          {
            "duration": 0.024509791666645242,
            "durationTicks": 5,
            "midi": 62,
            "name": "D4",
            "ticks": 25380,
            "time": 124.41170250000002,
            "velocity": 1
          },
          {
            "duration": 0.05392154166668206,
            "durationTicks": 11,
            "midi": 60,
            "name": "C4",
            "ticks": 25410,
            "time": 124.55876125,
            "velocity": 1
          },
          {
            "duration": 0.1225489583333399,
            "durationTicks": 25,
            "midi": 35,
            "name": "B1",
            "ticks": 25434,
            "time": 124.67640825000001,
            "velocity": 0.6535433070866141
          },
          {
            "duration": 0.12745091666667463,
            "durationTicks": 26,
            "midi": 45,
            "name": "A2",
            "ticks": 25434,
            "time": 124.67640825000001,
            "velocity": 0.6535433070866141
          },
          {
            "duration": 0.2941174999999987,
            "durationTicks": 60,
            "midi": 36,
            "name": "C2",
            "ticks": 25435,
            "time": 124.68131020833334,
            "velocity": 0.6535433070866141
          },
          {
            "duration": 0.0931372083333315,
            "durationTicks": 19,
            "midi": 57,
            "name": "A3",
            "ticks": 25436,
            "time": 124.68621216666668,
            "velocity": 0.6535433070866141
          },
          {
            "duration": 0.07352937499999257,
            "durationTicks": 15,
            "midi": 44,
            "name": "G#2",
            "ticks": 25466,
            "time": 124.83327091666669,
            "velocity": 0.6535433070866141
          },
          {
            "duration": 0.03921566666667786,
            "durationTicks": 8,
            "midi": 61,
            "name": "C#4",
            "ticks": 25470,
            "time": 124.85287875,
            "velocity": 1
          },
          {
            "duration": 0.024509791666673664,
            "durationTicks": 5,
            "midi": 60,
            "name": "C4",
            "ticks": 25470,
            "time": 124.85287875,
            "velocity": 1
          },
          {
            "duration": 0.0784313333333273,
            "durationTicks": 16,
            "midi": 44,
            "name": "G#2",
            "ticks": 25496,
            "time": 124.98032966666668,
            "velocity": 0.6535433070866141
          },
          {
            "duration": 0.05392154166668206,
            "durationTicks": 11,
            "midi": 39,
            "name": "D#2",
            "ticks": 25496,
            "time": 124.98032966666668,
            "velocity": 0.937007874015748
          },
          {
            "duration": 0.01960783333333893,
            "durationTicks": 4,
            "midi": 62,
            "name": "D4",
            "ticks": 25500,
            "time": 124.99993750000002,
            "velocity": 1
          },
          {
            "duration": 0.11274504166664201,
            "durationTicks": 23,
            "midi": 40,
            "name": "E2",
            "ticks": 25526,
            "time": 125.12738841666669,
            "velocity": 0.6535433070866141
          },
          {
            "duration": 0.06862741666665784,
            "durationTicks": 14,
            "midi": 44,
            "name": "G#2",
            "ticks": 25526,
            "time": 125.12738841666669,
            "velocity": 0.6535433070866141
          },
          {
            "duration": 0.08823524999999677,
            "durationTicks": 18,
            "midi": 39,
            "name": "D#2",
            "ticks": 25526,
            "time": 125.12738841666669,
            "velocity": 0.48031496062992124
          },
          {
            "duration": 0.04901958333334733,
            "durationTicks": 10,
            "midi": 60,
            "name": "C4",
            "ticks": 25530,
            "time": 125.14699625,
            "velocity": 1
          },
          {
            "duration": 0.2941174999999987,
            "durationTicks": 60,
            "midi": 36,
            "name": "C2",
            "ticks": 25555,
            "time": 125.26954520833334,
            "velocity": 0.6535433070866141
          },
          {
            "duration": 0.07352937499999257,
            "durationTicks": 15,
            "midi": 44,
            "name": "G#2",
            "ticks": 25556,
            "time": 125.27444716666668,
            "velocity": 0.6535433070866141
          },
          {
            "duration": 0.06862741666665784,
            "durationTicks": 14,
            "midi": 44,
            "name": "G#2",
            "ticks": 25586,
            "time": 125.42150591666669,
            "velocity": 0.6535433070866141
          },
          {
            "duration": 0.024509791666673664,
            "durationTicks": 5,
            "midi": 63,
            "name": "D#4",
            "ticks": 25590,
            "time": 125.44111375,
            "velocity": 1
          },
          {
            "duration": 0.14215679166667883,
            "durationTicks": 29,
            "midi": 40,
            "name": "E2",
            "ticks": 25616,
            "time": 125.56856466666667,
            "velocity": 0.6535433070866141
          },
          {
            "duration": 0.07352937500002099,
            "durationTicks": 15,
            "midi": 44,
            "name": "G#2",
            "ticks": 25616,
            "time": 125.56856466666667,
            "velocity": 0.6535433070866141
          },
          {
            "duration": 0.04901958333334733,
            "durationTicks": 10,
            "midi": 39,
            "name": "D#2",
            "ticks": 25616,
            "time": 125.56856466666667,
            "velocity": 0.937007874015748
          },
          {
            "duration": 0.01960783333333893,
            "durationTicks": 4,
            "midi": 63,
            "name": "D#4",
            "ticks": 25620,
            "time": 125.58817250000001,
            "velocity": 0.9763779527559056
          },
          {
            "duration": 0.06862741666665784,
            "durationTicks": 14,
            "midi": 44,
            "name": "G#2",
            "ticks": 25646,
            "time": 125.71562341666669,
            "velocity": 0.6535433070866141
          },
          {
            "duration": 0.12745091666667463,
            "durationTicks": 26,
            "midi": 45,
            "name": "A2",
            "ticks": 25674,
            "time": 125.85287825,
            "velocity": 0.6535433070866141
          },
          {
            "duration": 0.09803916666669465,
            "durationTicks": 20,
            "midi": 35,
            "name": "B1",
            "ticks": 25674,
            "time": 125.85287825,
            "velocity": 0.6535433070866141
          },
          {
            "duration": 0.2941174999999987,
            "durationTicks": 60,
            "midi": 36,
            "name": "C2",
            "ticks": 25675,
            "time": 125.85778020833337,
            "velocity": 0.6535433070866141
          },
          {
            "duration": 0.06862741666668626,
            "durationTicks": 14,
            "midi": 44,
            "name": "G#2",
            "ticks": 25676,
            "time": 125.86268216666667,
            "velocity": 0.6535433070866141
          },
          {
            "duration": 0.01960783333333893,
            "durationTicks": 4,
            "midi": 64,
            "name": "E4",
            "ticks": 25680,
            "time": 125.88229000000001,
            "velocity": 1
          },
          {
            "duration": 0.0637254583333231,
            "durationTicks": 13,
            "midi": 44,
            "name": "G#2",
            "ticks": 25706,
            "time": 126.00974091666669,
            "velocity": 0.6535433070866141
          },
          {
            "duration": 0.0784313333333273,
            "durationTicks": 16,
            "midi": 44,
            "name": "G#2",
            "ticks": 25736,
            "time": 126.15679966666667,
            "velocity": 0.6535433070866141
          },
          {
            "duration": 0.05392154166668206,
            "durationTicks": 11,
            "midi": 39,
            "name": "D#2",
            "ticks": 25736,
            "time": 126.15679966666667,
            "velocity": 0.937007874015748
          },
          {
            "duration": 0.029411750000008396,
            "durationTicks": 6,
            "midi": 64,
            "name": "E4",
            "ticks": 25740,
            "time": 126.17640750000001,
            "velocity": 1
          },
          {
            "duration": 0.07352937499999257,
            "durationTicks": 15,
            "midi": 40,
            "name": "E2",
            "ticks": 25766,
            "time": 126.30385841666669,
            "velocity": 0.6535433070866141
          },
          {
            "duration": 0.0784313333333273,
            "durationTicks": 16,
            "midi": 44,
            "name": "G#2",
            "ticks": 25766,
            "time": 126.30385841666669,
            "velocity": 0.6535433070866141
          },
          {
            "duration": 0.0931372083333315,
            "durationTicks": 19,
            "midi": 39,
            "name": "D#2",
            "ticks": 25766,
            "time": 126.30385841666669,
            "velocity": 0.6771653543307087
          },
          {
            "duration": 0.04411762499998417,
            "durationTicks": 9,
            "midi": 60,
            "name": "C4",
            "ticks": 25770,
            "time": 126.32346625000002,
            "velocity": 0.9763779527559056
          },
          {
            "duration": 0.2941174999999987,
            "durationTicks": 60,
            "midi": 36,
            "name": "C2",
            "ticks": 25795,
            "time": 126.44601520833336,
            "velocity": 0.6535433070866141
          },
          {
            "duration": 0.06862741666668626,
            "durationTicks": 14,
            "midi": 44,
            "name": "G#2",
            "ticks": 25796,
            "time": 126.45091716666667,
            "velocity": 0.6535433070866141
          },
          {
            "duration": 0.07352937499999257,
            "durationTicks": 15,
            "midi": 44,
            "name": "G#2",
            "ticks": 25826,
            "time": 126.59797591666668,
            "velocity": 0.6535433070866141
          },
          {
            "duration": 0.029411750000008396,
            "durationTicks": 6,
            "midi": 60,
            "name": "C4",
            "ticks": 25830,
            "time": 126.61758375000002,
            "velocity": 0.8818897637795275
          },
          {
            "duration": 0.1225489583333399,
            "durationTicks": 25,
            "midi": 40,
            "name": "E2",
            "ticks": 25856,
            "time": 126.74503466666667,
            "velocity": 0.6535433070866141
          },
          {
            "duration": 0.08823525000002519,
            "durationTicks": 18,
            "midi": 44,
            "name": "G#2",
            "ticks": 25856,
            "time": 126.74503466666667,
            "velocity": 0.6535433070866141
          },
          {
            "duration": 0.06372545833335153,
            "durationTicks": 13,
            "midi": 39,
            "name": "D#2",
            "ticks": 25856,
            "time": 126.74503466666667,
            "velocity": 0.937007874015748
          },
          {
            "duration": 0.01960783333333893,
            "durationTicks": 4,
            "midi": 62,
            "name": "D4",
            "ticks": 25860,
            "time": 126.76464250000001,
            "velocity": 1
          },
          {
            "duration": 0.0637254583333231,
            "durationTicks": 13,
            "midi": 44,
            "name": "G#2",
            "ticks": 25886,
            "time": 126.89209341666668,
            "velocity": 0.6535433070866141
          },
          {
            "duration": 0.029411750000008396,
            "durationTicks": 6,
            "midi": 60,
            "name": "C4",
            "ticks": 25890,
            "time": 126.91170125000002,
            "velocity": 0.8267716535433071
          },
          {
            "duration": 0.11764700000000516,
            "durationTicks": 24,
            "midi": 35,
            "name": "B1",
            "ticks": 25914,
            "time": 127.02934825,
            "velocity": 0.6535433070866141
          },
          {
            "duration": 0.12745091666667463,
            "durationTicks": 26,
            "midi": 45,
            "name": "A2",
            "ticks": 25914,
            "time": 127.02934825,
            "velocity": 0.6535433070866141
          },
          {
            "duration": 0.004901958333334733,
            "durationTicks": 1,
            "midi": 49,
            "name": "C#3",
            "ticks": 25916,
            "time": 127.03915216666667,
            "velocity": 0.6535433070866141
          },
          {
            "duration": 0.0637254583333231,
            "durationTicks": 13,
            "midi": 44,
            "name": "G#2",
            "ticks": 25946,
            "time": 127.18621091666668,
            "velocity": 0.6535433070866141
          },
          {
            "duration": 0.049019583333318906,
            "durationTicks": 10,
            "midi": 61,
            "name": "C#4",
            "ticks": 25950,
            "time": 127.20581875000002,
            "velocity": 1
          },
          {
            "duration": 0.06862741666665784,
            "durationTicks": 14,
            "midi": 44,
            "name": "G#2",
            "ticks": 25976,
            "time": 127.3332696666667,
            "velocity": 0.6535433070866141
          },
          {
            "duration": 0.04411762499998417,
            "durationTicks": 9,
            "midi": 39,
            "name": "D#2",
            "ticks": 25976,
            "time": 127.3332696666667,
            "velocity": 0.8503937007874016
          },
          {
            "duration": 0.024509791666673664,
            "durationTicks": 5,
            "midi": 62,
            "name": "D4",
            "ticks": 25980,
            "time": 127.3528775,
            "velocity": 1
          },
          {
            "duration": 0.10294112500000097,
            "durationTicks": 21,
            "midi": 40,
            "name": "E2",
            "ticks": 26006,
            "time": 127.48032841666668,
            "velocity": 0.6535433070866141
          },
          {
            "duration": 0.06862741666668626,
            "durationTicks": 14,
            "midi": 44,
            "name": "G#2",
            "ticks": 26006,
            "time": 127.48032841666668,
            "velocity": 0.6535433070866141
          },
          {
            "duration": 0.07352937499999257,
            "durationTicks": 15,
            "midi": 39,
            "name": "D#2",
            "ticks": 26006,
            "time": 127.48032841666668,
            "velocity": 0.5196850393700787
          },
          {
            "duration": 0.0784313333333273,
            "durationTicks": 16,
            "midi": 44,
            "name": "G#2",
            "ticks": 26036,
            "time": 127.6273871666667,
            "velocity": 0.6535433070866141
          },
          {
            "duration": 0.0637254583333231,
            "durationTicks": 13,
            "midi": 39,
            "name": "D#2",
            "ticks": 26036,
            "time": 127.6273871666667,
            "velocity": 0.8031496062992126
          },
          {
            "duration": 0.05392154166668206,
            "durationTicks": 11,
            "midi": 44,
            "name": "G#2",
            "ticks": 26066,
            "time": 127.77444591666668,
            "velocity": 0.6535433070866141
          },
          {
            "duration": 0.0784313333333273,
            "durationTicks": 16,
            "midi": 39,
            "name": "D#2",
            "ticks": 26066,
            "time": 127.77444591666668,
            "velocity": 0.5196850393700787
          },
          {
            "duration": 0.04411762499998417,
            "durationTicks": 9,
            "midi": 63,
            "name": "D#4",
            "ticks": 26070,
            "time": 127.79405375000002,
            "velocity": 0.937007874015748
          },
          {
            "duration": 0.11274504166664201,
            "durationTicks": 23,
            "midi": 40,
            "name": "E2",
            "ticks": 26096,
            "time": 127.92150466666669,
            "velocity": 0.6535433070866141
          },
          {
            "duration": 0.0637254583333231,
            "durationTicks": 13,
            "midi": 44,
            "name": "G#2",
            "ticks": 26096,
            "time": 127.92150466666669,
            "velocity": 0.6535433070866141
          },
          {
            "duration": 0.0637254583333231,
            "durationTicks": 13,
            "midi": 39,
            "name": "D#2",
            "ticks": 26096,
            "time": 127.92150466666669,
            "velocity": 0.8031496062992126
          },
          {
            "duration": 0.01960783333333893,
            "durationTicks": 4,
            "midi": 63,
            "name": "D#4",
            "ticks": 26100,
            "time": 127.9411125,
            "velocity": 1
          },
          {
            "duration": 0.0784313333333273,
            "durationTicks": 16,
            "midi": 39,
            "name": "D#2",
            "ticks": 26126,
            "time": 128.06856341666668,
            "velocity": 0.6220472440944882
          },
          {
            "duration": 0.09313720833335992,
            "durationTicks": 19,
            "midi": 45,
            "name": "A2",
            "ticks": 26154,
            "time": 128.20581825,
            "velocity": 0.6535433070866141
          },
          {
            "duration": 0.08823525000002519,
            "durationTicks": 18,
            "midi": 35,
            "name": "B1",
            "ticks": 26154,
            "time": 128.20581825,
            "velocity": 0.6535433070866141
          },
          {
            "duration": 0.04411762499998417,
            "durationTicks": 9,
            "midi": 46,
            "name": "A#2",
            "ticks": 26156,
            "time": 128.2156221666667,
            "velocity": 0.6535433070866141
          },
          {
            "duration": 0.06862741666665784,
            "durationTicks": 14,
            "midi": 39,
            "name": "D#2",
            "ticks": 26156,
            "time": 128.2156221666667,
            "velocity": 0.937007874015748
          },
          {
            "duration": 0.07352937500002099,
            "durationTicks": 15,
            "midi": 49,
            "name": "C#3",
            "ticks": 26160,
            "time": 128.23523,
            "velocity": 0.11811023622047244
          },
          {
            "duration": 0.07352937499999257,
            "durationTicks": 15,
            "midi": 49,
            "name": "C#3",
            "ticks": 26175,
            "time": 128.30875937500002,
            "velocity": 0.15748031496062992
          },
          {
            "duration": 0.14705875000001356,
            "durationTicks": 30,
            "midi": 35,
            "name": "B1",
            "ticks": 26184,
            "time": 128.352877,
            "velocity": 0.6535433070866141
          },
          {
            "duration": 0.14705875000001356,
            "durationTicks": 30,
            "midi": 45,
            "name": "A2",
            "ticks": 26184,
            "time": 128.352877,
            "velocity": 0.6535433070866141
          },
          {
            "duration": 0.09803916666666623,
            "durationTicks": 20,
            "midi": 39,
            "name": "D#2",
            "ticks": 26186,
            "time": 128.36268091666668,
            "velocity": 0.7401574803149606
          },
          {
            "duration": 0.07352937499999257,
            "durationTicks": 15,
            "midi": 49,
            "name": "C#3",
            "ticks": 26190,
            "time": 128.38228875000001,
            "velocity": 0.2125984251968504
          },
          {
            "duration": 0.01960783333333893,
            "durationTicks": 4,
            "midi": 60,
            "name": "C4",
            "ticks": 26190,
            "time": 128.38228875000001,
            "velocity": 0.905511811023622
          },
          {
            "duration": 0.04901958333334733,
            "durationTicks": 10,
            "midi": 60,
            "name": "C4",
            "ticks": 26190,
            "time": 128.38228875000001,
            "velocity": 1
          },
          {
            "duration": 0.07352937499999257,
            "durationTicks": 15,
            "midi": 49,
            "name": "C#3",
            "ticks": 26205,
            "time": 128.455818125,
            "velocity": 0.25984251968503935
          },
          {
            "duration": 0.0931372083333315,
            "durationTicks": 19,
            "midi": 45,
            "name": "A2",
            "ticks": 26214,
            "time": 128.49993575000002,
            "velocity": 0.6535433070866141
          },
          {
            "duration": 0.0931372083333315,
            "durationTicks": 19,
            "midi": 35,
            "name": "B1",
            "ticks": 26214,
            "time": 128.49993575000002,
            "velocity": 0.6535433070866141
          },
          {
            "duration": 0.05392154166665364,
            "durationTicks": 11,
            "midi": 46,
            "name": "A#2",
            "ticks": 26216,
            "time": 128.5097396666667,
            "velocity": 0.6535433070866141
          },
          {
            "duration": 0.05392154166665364,
            "durationTicks": 11,
            "midi": 39,
            "name": "D#2",
            "ticks": 26216,
            "time": 128.5097396666667,
            "velocity": 0.937007874015748
          },
          {
            "duration": 0.07352937500002099,
            "durationTicks": 15,
            "midi": 49,
            "name": "C#3",
            "ticks": 26220,
            "time": 128.5293475,
            "velocity": 0.2992125984251969
          },
          {
            "duration": 0.05882350000001679,
            "durationTicks": 12,
            "midi": 60,
            "name": "C4",
            "ticks": 26220,
            "time": 128.5293475,
            "velocity": 0.5826771653543307
          },
          {
            "duration": 0.07352937499999257,
            "durationTicks": 15,
            "midi": 49,
            "name": "C#3",
            "ticks": 26235,
            "time": 128.60287687500002,
            "velocity": 0.33070866141732286
          },
          {
            "duration": 0.14705875000001356,
            "durationTicks": 30,
            "midi": 35,
            "name": "B1",
            "ticks": 26244,
            "time": 128.6469945,
            "velocity": 0.6535433070866141
          },
          {
            "duration": 0.14705875000001356,
            "durationTicks": 30,
            "midi": 45,
            "name": "A2",
            "ticks": 26244,
            "time": 128.6469945,
            "velocity": 0.6535433070866141
          },
          {
            "duration": 0.08823524999999677,
            "durationTicks": 18,
            "midi": 39,
            "name": "D#2",
            "ticks": 26246,
            "time": 128.65679841666667,
            "velocity": 0.8267716535433071
          },
          {
            "duration": 0.07352937499999257,
            "durationTicks": 15,
            "midi": 49,
            "name": "C#3",
            "ticks": 26250,
            "time": 128.67640625,
            "velocity": 0.3700787401574803
          },
          {
            "duration": 0.029411750000008396,
            "durationTicks": 6,
            "midi": 60,
            "name": "C4",
            "ticks": 26250,
            "time": 128.67640625,
            "velocity": 1
          },
          {
            "duration": 0.07352937500002099,
            "durationTicks": 15,
            "midi": 49,
            "name": "C#3",
            "ticks": 26265,
            "time": 128.749935625,
            "velocity": 0.4251968503937008
          },
          {
            "duration": 0.09803916666666623,
            "durationTicks": 20,
            "midi": 45,
            "name": "A2",
            "ticks": 26274,
            "time": 128.79405325000002,
            "velocity": 0.6535433070866141
          },
          {
            "duration": 0.09803916666666623,
            "durationTicks": 20,
            "midi": 35,
            "name": "B1",
            "ticks": 26274,
            "time": 128.79405325000002,
            "velocity": 0.6535433070866141
          },
          {
            "duration": 0.06862741666665784,
            "durationTicks": 14,
            "midi": 39,
            "name": "D#2",
            "ticks": 26276,
            "time": 128.8038571666667,
            "velocity": 0.9763779527559056
          },
          {
            "duration": 0.07352937499999257,
            "durationTicks": 15,
            "midi": 49,
            "name": "C#3",
            "ticks": 26280,
            "time": 128.82346500000003,
            "velocity": 0.4645669291338583
          },
          {
            "duration": 0.03921566666664944,
            "durationTicks": 8,
            "midi": 62,
            "name": "D4",
            "ticks": 26280,
            "time": 128.82346500000003,
            "velocity": 1
          },
          {
            "duration": 0.07352937499999257,
            "durationTicks": 15,
            "midi": 49,
            "name": "C#3",
            "ticks": 26295,
            "time": 128.89699437500002,
            "velocity": 0.49606299212598426
          },
          {
            "duration": 0.14705875000001356,
            "durationTicks": 30,
            "midi": 35,
            "name": "B1",
            "ticks": 26304,
            "time": 128.941112,
            "velocity": 0.6535433070866141
          },
          {
            "duration": 0.14705875000001356,
            "durationTicks": 30,
            "midi": 45,
            "name": "A2",
            "ticks": 26304,
            "time": 128.941112,
            "velocity": 0.6535433070866141
          },
          {
            "duration": 0.09803916666666623,
            "durationTicks": 20,
            "midi": 39,
            "name": "D#2",
            "ticks": 26306,
            "time": 128.95091591666667,
            "velocity": 0.8503937007874016
          },
          {
            "duration": 0.07352937499999257,
            "durationTicks": 15,
            "midi": 49,
            "name": "C#3",
            "ticks": 26310,
            "time": 128.97052375,
            "velocity": 0.5354330708661418
          },
          {
            "duration": 0.04901958333334733,
            "durationTicks": 10,
            "midi": 63,
            "name": "D#4",
            "ticks": 26310,
            "time": 128.97052375,
            "velocity": 1
          },
          {
            "duration": 0.07352937500002099,
            "durationTicks": 15,
            "midi": 49,
            "name": "C#3",
            "ticks": 26325,
            "time": 129.044053125,
            "velocity": 0.5826771653543307
          },
          {
            "duration": 0.09803916666666623,
            "durationTicks": 20,
            "midi": 45,
            "name": "A2",
            "ticks": 26334,
            "time": 129.08817075000002,
            "velocity": 0.6535433070866141
          },
          {
            "duration": 0.0784313333333273,
            "durationTicks": 16,
            "midi": 35,
            "name": "B1",
            "ticks": 26334,
            "time": 129.08817075000002,
            "velocity": 0.6535433070866141
          },
          {
            "duration": 0.0784313333333273,
            "durationTicks": 16,
            "midi": 39,
            "name": "D#2",
            "ticks": 26336,
            "time": 129.0979746666667,
            "velocity": 0.9763779527559056
          },
          {
            "duration": 0.07352937499999257,
            "durationTicks": 15,
            "midi": 49,
            "name": "C#3",
            "ticks": 26340,
            "time": 129.11758250000003,
            "velocity": 0.6141732283464567
          },
          {
            "duration": 0.03921566666664944,
            "durationTicks": 8,
            "midi": 63,
            "name": "D#4",
            "ticks": 26340,
            "time": 129.11758250000003,
            "velocity": 1
          },
          {
            "duration": 0.07352937499999257,
            "durationTicks": 15,
            "midi": 49,
            "name": "C#3",
            "ticks": 26355,
            "time": 129.19111187500002,
            "velocity": 0.6535433070866141
          },
          {
            "duration": 0.14705875000001356,
            "durationTicks": 30,
            "midi": 35,
            "name": "B1",
            "ticks": 26364,
            "time": 129.2352295,
            "velocity": 0.6535433070866141
          },
          {
            "duration": 0.14705875000001356,
            "durationTicks": 30,
            "midi": 45,
            "name": "A2",
            "ticks": 26364,
            "time": 129.2352295,
            "velocity": 0.6535433070866141
          },
          {
            "duration": 0.0931372083333315,
            "durationTicks": 19,
            "midi": 39,
            "name": "D#2",
            "ticks": 26366,
            "time": 129.24503341666667,
            "velocity": 1
          },
          {
            "duration": 0.07352937499999257,
            "durationTicks": 15,
            "midi": 49,
            "name": "C#3",
            "ticks": 26370,
            "time": 129.26464125,
            "velocity": 0.6850393700787402
          },
          {
            "duration": 0.03921566666667786,
            "durationTicks": 8,
            "midi": 63,
            "name": "D#4",
            "ticks": 26370,
            "time": 129.26464125,
            "velocity": 1
          },
          {
            "duration": 0.004901958333334733,
            "durationTicks": 1,
            "midi": 61,
            "name": "C#4",
            "ticks": 26370,
            "time": 129.26464125,
            "velocity": 0.7086614173228346
          },
          {
            "duration": 0.07352937500002099,
            "durationTicks": 15,
            "midi": 49,
            "name": "C#3",
            "ticks": 26385,
            "time": 129.338170625,
            "velocity": 0.7322834645669292
          },
          {
            "duration": 0.11274504166667043,
            "durationTicks": 23,
            "midi": 45,
            "name": "A2",
            "ticks": 26394,
            "time": 129.38228825000002,
            "velocity": 0.6535433070866141
          },
          {
            "duration": 0.09803916666666623,
            "durationTicks": 20,
            "midi": 35,
            "name": "B1",
            "ticks": 26394,
            "time": 129.38228825000002,
            "velocity": 0.6535433070866141
          },
          {
            "duration": 0.2941174999999987,
            "durationTicks": 60,
            "midi": 36,
            "name": "C2",
            "ticks": 26395,
            "time": 129.38719020833335,
            "velocity": 0.6535433070866141
          },
          {
            "duration": 0.0637254583333231,
            "durationTicks": 13,
            "midi": 49,
            "name": "C#3",
            "ticks": 26396,
            "time": 129.39209216666669,
            "velocity": 0.6535433070866141
          },
          {
            "duration": 0.05392154166665364,
            "durationTicks": 11,
            "midi": 39,
            "name": "D#2",
            "ticks": 26396,
            "time": 129.39209216666669,
            "velocity": 0.7244094488188977
          },
          {
            "duration": 0.07352937499999257,
            "durationTicks": 15,
            "midi": 49,
            "name": "C#3",
            "ticks": 26400,
            "time": 129.41170000000002,
            "velocity": 0.7874015748031497
          },
          {
            "duration": 0.029411750000008396,
            "durationTicks": 6,
            "midi": 64,
            "name": "E4",
            "ticks": 26400,
            "time": 129.41170000000002,
            "velocity": 1
          },
          {
            "duration": 0.07352937499999257,
            "durationTicks": 15,
            "midi": 44,
            "name": "G#2",
            "ticks": 26456,
            "time": 129.68620966666668,
            "velocity": 0.6535433070866141
          },
          {
            "duration": 0.0637254583333231,
            "durationTicks": 13,
            "midi": 39,
            "name": "D#2",
            "ticks": 26456,
            "time": 129.68620966666668,
            "velocity": 0.8267716535433071
          },
          {
            "duration": 0.05392154166668206,
            "durationTicks": 11,
            "midi": 46,
            "name": "A#2",
            "ticks": 26458,
            "time": 129.69601358333333,
            "velocity": 0.6535433070866141
          },
          {
            "duration": 0.05392154166668206,
            "durationTicks": 11,
            "midi": 34,
            "name": "A#1",
            "ticks": 26458,
            "time": 129.69601358333333,
            "velocity": 0.5590551181102362
          },
          {
            "duration": 0.11274504166667043,
            "durationTicks": 23,
            "midi": 40,
            "name": "E2",
            "ticks": 26486,
            "time": 129.83326841666667,
            "velocity": 0.6535433070866141
          },
          {
            "duration": 0.05392154166668206,
            "durationTicks": 11,
            "midi": 44,
            "name": "G#2",
            "ticks": 26486,
            "time": 129.83326841666667,
            "velocity": 0.6535433070866141
          },
          {
            "duration": 0.06862741666668626,
            "durationTicks": 14,
            "midi": 39,
            "name": "D#2",
            "ticks": 26486,
            "time": 129.83326841666667,
            "velocity": 0.48031496062992124
          },
          {
            "duration": 0.07352937499999257,
            "durationTicks": 15,
            "midi": 46,
            "name": "A#2",
            "ticks": 26488,
            "time": 129.84307233333334,
            "velocity": 0.6535433070866141
          },
          {
            "duration": 0.07352937499999257,
            "durationTicks": 15,
            "midi": 34,
            "name": "A#1",
            "ticks": 26488,
            "time": 129.84307233333334,
            "velocity": 0.5590551181102362
          },
          {
            "duration": 0.03921566666667786,
            "durationTicks": 8,
            "midi": 60,
            "name": "C4",
            "ticks": 26490,
            "time": 129.85287625,
            "velocity": 1
          },
          {
            "duration": 0.2941174999999987,
            "durationTicks": 60,
            "midi": 36,
            "name": "C2",
            "ticks": 26515,
            "time": 129.97542520833335,
            "velocity": 0.6535433070866141
          },
          {
            "duration": 0.07352937499999257,
            "durationTicks": 15,
            "midi": 44,
            "name": "G#2",
            "ticks": 26516,
            "time": 129.98032716666668,
            "velocity": 0.6535433070866141
          },
          {
            "duration": 0.06862741666668626,
            "durationTicks": 14,
            "midi": 44,
            "name": "G#2",
            "ticks": 26546,
            "time": 130.12738591666667,
            "velocity": 0.6535433070866141
          },
          {
            "duration": 0.024509791666673664,
            "durationTicks": 5,
            "midi": 60,
            "name": "C4",
            "ticks": 26550,
            "time": 130.14699375,
            "velocity": 0.6771653543307087
          },
          {
            "duration": 0.1225489583333399,
            "durationTicks": 25,
            "midi": 40,
            "name": "E2",
            "ticks": 26576,
            "time": 130.27444466666668,
            "velocity": 0.6535433070866141
          },
          {
            "duration": 0.0784313333333273,
            "durationTicks": 16,
            "midi": 44,
            "name": "G#2",
            "ticks": 26576,
            "time": 130.27444466666668,
            "velocity": 0.6535433070866141
          },
          {
            "duration": 0.0637254583333231,
            "durationTicks": 13,
            "midi": 39,
            "name": "D#2",
            "ticks": 26576,
            "time": 130.27444466666668,
            "velocity": 0.8031496062992126
          },
          {
            "duration": 0.0637254583333231,
            "durationTicks": 13,
            "midi": 46,
            "name": "A#2",
            "ticks": 26578,
            "time": 130.28424858333335,
            "velocity": 0.6535433070866141
          },
          {
            "duration": 0.0637254583333231,
            "durationTicks": 13,
            "midi": 34,
            "name": "A#1",
            "ticks": 26578,
            "time": 130.28424858333335,
            "velocity": 0.5590551181102362
          },
          {
            "duration": 0.024509791666645242,
            "durationTicks": 5,
            "midi": 62,
            "name": "D4",
            "ticks": 26580,
            "time": 130.29405250000002,
            "velocity": 1
          },
          {
            "duration": 0.06862741666665784,
            "durationTicks": 14,
            "midi": 44,
            "name": "G#2",
            "ticks": 26606,
            "time": 130.4215034166667,
            "velocity": 0.6535433070866141
          },
          {
            "duration": 0.0931372083333315,
            "durationTicks": 19,
            "midi": 35,
            "name": "B1",
            "ticks": 26634,
            "time": 130.55875825,
            "velocity": 0.6535433070866141
          },
          {
            "duration": 0.11274504166667043,
            "durationTicks": 23,
            "midi": 45,
            "name": "A2",
            "ticks": 26634,
            "time": 130.55875825,
            "velocity": 0.6535433070866141
          },
          {
            "duration": 0.2941174999999987,
            "durationTicks": 60,
            "midi": 36,
            "name": "C2",
            "ticks": 26635,
            "time": 130.56366020833335,
            "velocity": 0.6535433070866141
          },
          {
            "duration": 0.0784313333333273,
            "durationTicks": 16,
            "midi": 44,
            "name": "G#2",
            "ticks": 26636,
            "time": 130.56856216666668,
            "velocity": 0.6535433070866141
          },
          {
            "duration": 0.05392154166665364,
            "durationTicks": 11,
            "midi": 44,
            "name": "G#2",
            "ticks": 26666,
            "time": 130.7156209166667,
            "velocity": 0.6535433070866141
          },
          {
            "duration": 0.01960783333333893,
            "durationTicks": 4,
            "midi": 63,
            "name": "D#4",
            "ticks": 26670,
            "time": 130.73522875,
            "velocity": 0.5433070866141733
          },
          {
            "duration": 0.07352937499999257,
            "durationTicks": 15,
            "midi": 44,
            "name": "G#2",
            "ticks": 26696,
            "time": 130.86267966666668,
            "velocity": 0.6535433070866141
          },
          {
            "duration": 0.03921566666667786,
            "durationTicks": 8,
            "midi": 39,
            "name": "D#2",
            "ticks": 26696,
            "time": 130.86267966666668,
            "velocity": 0.7244094488188977
          },
          {
            "duration": 0.01960783333333893,
            "durationTicks": 4,
            "midi": 62,
            "name": "D4",
            "ticks": 26700,
            "time": 130.88228750000002,
            "velocity": 0.8267716535433071
          },
          {
            "duration": 0.11274504166664201,
            "durationTicks": 23,
            "midi": 40,
            "name": "E2",
            "ticks": 26726,
            "time": 131.0097384166667,
            "velocity": 0.6535433070866141
          },
          {
            "duration": 0.06862741666665784,
            "durationTicks": 14,
            "midi": 44,
            "name": "G#2",
            "ticks": 26726,
            "time": 131.0097384166667,
            "velocity": 0.6535433070866141
          },
          {
            "duration": 0.06862741666665784,
            "durationTicks": 14,
            "midi": 39,
            "name": "D#2",
            "ticks": 26726,
            "time": 131.0097384166667,
            "velocity": 0.6220472440944882
          },
          {
            "duration": 0.06862741666668626,
            "durationTicks": 14,
            "midi": 42,
            "name": "F#2",
            "ticks": 26728,
            "time": 131.01954233333333,
            "velocity": 0.6535433070866141
          },
          {
            "duration": 0.06862741666668626,
            "durationTicks": 14,
            "midi": 30,
            "name": "F#1",
            "ticks": 26728,
            "time": 131.01954233333333,
            "velocity": 0.5590551181102362
          },
          {
            "duration": 0.04901958333334733,
            "durationTicks": 10,
            "midi": 61,
            "name": "C#4",
            "ticks": 26730,
            "time": 131.02934625,
            "velocity": 1
          },
          {
            "duration": 0.2941174999999987,
            "durationTicks": 60,
            "midi": 36,
            "name": "C2",
            "ticks": 26755,
            "time": 131.15189520833334,
            "velocity": 0.6535433070866141
          },
          {
            "duration": 0.08823524999999677,
            "durationTicks": 18,
            "midi": 44,
            "name": "G#2",
            "ticks": 26756,
            "time": 131.15679716666668,
            "velocity": 0.6535433070866141
          },
          {
            "duration": 0.06862741666665784,
            "durationTicks": 14,
            "midi": 44,
            "name": "G#2",
            "ticks": 26786,
            "time": 131.3038559166667,
            "velocity": 0.6535433070866141
          },
          {
            "duration": 0.07352937500002099,
            "durationTicks": 15,
            "midi": 42,
            "name": "F#2",
            "ticks": 26788,
            "time": 131.31365983333333,
            "velocity": 0.6535433070866141
          },
          {
            "duration": 0.07352937500002099,
            "durationTicks": 15,
            "midi": 30,
            "name": "F#1",
            "ticks": 26788,
            "time": 131.31365983333333,
            "velocity": 0.5590551181102362
          },
          {
            "duration": 0.05392154166668206,
            "durationTicks": 11,
            "midi": 62,
            "name": "D4",
            "ticks": 26790,
            "time": 131.32346375,
            "velocity": 1
          },
          {
            "duration": 0.12745091666667463,
            "durationTicks": 26,
            "midi": 40,
            "name": "E2",
            "ticks": 26816,
            "time": 131.45091466666668,
            "velocity": 0.6535433070866141
          },
          {
            "duration": 0.08823524999999677,
            "durationTicks": 18,
            "midi": 44,
            "name": "G#2",
            "ticks": 26816,
            "time": 131.45091466666668,
            "velocity": 0.6535433070866141
          },
          {
            "duration": 0.05392154166668206,
            "durationTicks": 11,
            "midi": 39,
            "name": "D#2",
            "ticks": 26816,
            "time": 131.45091466666668,
            "velocity": 0.7795275590551181
          },
          {
            "duration": 0.06862741666665784,
            "durationTicks": 14,
            "midi": 42,
            "name": "F#2",
            "ticks": 26818,
            "time": 131.46071858333335,
            "velocity": 0.6535433070866141
          },
          {
            "duration": 0.06862741666665784,
            "durationTicks": 14,
            "midi": 30,
            "name": "F#1",
            "ticks": 26818,
            "time": 131.46071858333335,
            "velocity": 0.5590551181102362
          },
          {
            "duration": 0.03921566666664944,
            "durationTicks": 8,
            "midi": 64,
            "name": "E4",
            "ticks": 26820,
            "time": 131.47052250000002,
            "velocity": 1
          },
          {
            "duration": 0.0637254583333231,
            "durationTicks": 13,
            "midi": 44,
            "name": "G#2",
            "ticks": 26846,
            "time": 131.5979734166667,
            "velocity": 0.6535433070866141
          },
          {
            "duration": 0.1225489583333399,
            "durationTicks": 25,
            "midi": 45,
            "name": "A2",
            "ticks": 26874,
            "time": 131.73522825,
            "velocity": 0.6535433070866141
          },
          {
            "duration": 0.0931372083333315,
            "durationTicks": 19,
            "midi": 35,
            "name": "B1",
            "ticks": 26874,
            "time": 131.73522825,
            "velocity": 0.6535433070866141
          },
          {
            "duration": 0.2941174999999987,
            "durationTicks": 60,
            "midi": 36,
            "name": "C2",
            "ticks": 26875,
            "time": 131.74013020833334,
            "velocity": 0.6535433070866141
          },
          {
            "duration": 0.0931372083333315,
            "durationTicks": 19,
            "midi": 44,
            "name": "G#2",
            "ticks": 26876,
            "time": 131.74503216666668,
            "velocity": 0.6535433070866141
          },
          {
            "duration": 0.07352937499999257,
            "durationTicks": 15,
            "midi": 44,
            "name": "G#2",
            "ticks": 26906,
            "time": 131.8920909166667,
            "velocity": 0.6535433070866141
          },
          {
            "duration": 0.0784313333333273,
            "durationTicks": 16,
            "midi": 44,
            "name": "G#2",
            "ticks": 26936,
            "time": 132.03914966666667,
            "velocity": 0.6535433070866141
          },
          {
            "duration": 0.044117625000012595,
            "durationTicks": 9,
            "midi": 39,
            "name": "D#2",
            "ticks": 26936,
            "time": 132.03914966666667,
            "velocity": 0.6377952755905512
          },
          {
            "duration": 0.029411750000008396,
            "durationTicks": 6,
            "midi": 62,
            "name": "D4",
            "ticks": 26940,
            "time": 132.0587575,
            "velocity": 0.8818897637795275
          },
          {
            "duration": 0.11274504166667043,
            "durationTicks": 23,
            "midi": 40,
            "name": "E2",
            "ticks": 26966,
            "time": 132.1862084166667,
            "velocity": 0.6535433070866141
          },
          {
            "duration": 0.0637254583333231,
            "durationTicks": 13,
            "midi": 44,
            "name": "G#2",
            "ticks": 26966,
            "time": 132.1862084166667,
            "velocity": 0.6535433070866141
          },
          {
            "duration": 0.0931372083333315,
            "durationTicks": 19,
            "midi": 39,
            "name": "D#2",
            "ticks": 26966,
            "time": 132.1862084166667,
            "velocity": 0.6062992125984252
          },
          {
            "duration": 0.07352937500002099,
            "durationTicks": 15,
            "midi": 44,
            "name": "G#2",
            "ticks": 26968,
            "time": 132.19601233333333,
            "velocity": 0.6535433070866141
          },
          {
            "duration": 0.07352937500002099,
            "durationTicks": 15,
            "midi": 32,
            "name": "G#1",
            "ticks": 26968,
            "time": 132.19601233333333,
            "velocity": 0.5590551181102362
          },
          {
            "duration": 0.2941174999999987,
            "durationTicks": 60,
            "midi": 36,
            "name": "C2",
            "ticks": 26995,
            "time": 132.32836520833337,
            "velocity": 0.6535433070866141
          },
          {
            "duration": 0.0784313333333273,
            "durationTicks": 16,
            "midi": 44,
            "name": "G#2",
            "ticks": 26996,
            "time": 132.33326716666667,
            "velocity": 0.6535433070866141
          },
          {
            "duration": 0.029411750000008396,
            "durationTicks": 6,
            "midi": 39,
            "name": "D#2",
            "ticks": 26996,
            "time": 132.33326716666667,
            "velocity": 0.5354330708661418
          },
          {
            "duration": 0.0637254583333231,
            "durationTicks": 13,
            "midi": 44,
            "name": "G#2",
            "ticks": 27026,
            "time": 132.4803259166667,
            "velocity": 0.6535433070866141
          },
          {
            "duration": 0.04901958333334733,
            "durationTicks": 10,
            "midi": 39,
            "name": "D#2",
            "ticks": 27026,
            "time": 132.4803259166667,
            "velocity": 0.25196850393700787
          },
          {
            "duration": 0.05882350000001679,
            "durationTicks": 12,
            "midi": 44,
            "name": "G#2",
            "ticks": 27028,
            "time": 132.49012983333333,
            "velocity": 0.6535433070866141
          },
          {
            "duration": 0.06372545833335153,
            "durationTicks": 13,
            "midi": 32,
            "name": "G#1",
            "ticks": 27028,
            "time": 132.49012983333333,
            "velocity": 0.5590551181102362
          },
          {
            "duration": 0.024509791666645242,
            "durationTicks": 5,
            "midi": 61,
            "name": "C#4",
            "ticks": 27030,
            "time": 132.49993375000003,
            "velocity": 0.937007874015748
          },
          {
            "duration": 0.01960783333331051,
            "durationTicks": 4,
            "midi": 62,
            "name": "D4",
            "ticks": 27030,
            "time": 132.49993375000003,
            "velocity": 0.7637795275590551
          },
          {
            "duration": 0.12745091666667463,
            "durationTicks": 26,
            "midi": 40,
            "name": "E2",
            "ticks": 27056,
            "time": 132.62738466666667,
            "velocity": 0.6535433070866141
          },
          {
            "duration": 0.07352937500002099,
            "durationTicks": 15,
            "midi": 44,
            "name": "G#2",
            "ticks": 27056,
            "time": 132.62738466666667,
            "velocity": 0.6535433070866141
          },
          {
            "duration": 0.05882350000001679,
            "durationTicks": 12,
            "midi": 39,
            "name": "D#2",
            "ticks": 27056,
            "time": 132.62738466666667,
            "velocity": 1
          },
          {
            "duration": 0.06372545833335153,
            "durationTicks": 13,
            "midi": 44,
            "name": "G#2",
            "ticks": 27058,
            "time": 132.63718858333334,
            "velocity": 0.6535433070866141
          },
          {
            "duration": 0.06372545833335153,
            "durationTicks": 13,
            "midi": 32,
            "name": "G#1",
            "ticks": 27058,
            "time": 132.63718858333334,
            "velocity": 0.5590551181102362
          },
          {
            "duration": 0.04901958333334733,
            "durationTicks": 10,
            "midi": 64,
            "name": "E4",
            "ticks": 27060,
            "time": 132.6469925,
            "velocity": 1
          },
          {
            "duration": 0.06862741666668626,
            "durationTicks": 14,
            "midi": 44,
            "name": "G#2",
            "ticks": 27086,
            "time": 132.77444341666668,
            "velocity": 0.6535433070866141
          },
          {
            "duration": 0.1225489583333399,
            "durationTicks": 25,
            "midi": 45,
            "name": "A2",
            "ticks": 27114,
            "time": 132.91169825,
            "velocity": 0.6535433070866141
          },
          {
            "duration": 0.1078430833333357,
            "durationTicks": 22,
            "midi": 35,
            "name": "B1",
            "ticks": 27114,
            "time": 132.91169825,
            "velocity": 0.6535433070866141
          },
          {
            "duration": 0.2941174999999987,
            "durationTicks": 60,
            "midi": 36,
            "name": "C2",
            "ticks": 27115,
            "time": 132.91660020833336,
            "velocity": 0.6535433070866141
          },
          {
            "duration": 0.0784313333333273,
            "durationTicks": 16,
            "midi": 44,
            "name": "G#2",
            "ticks": 27116,
            "time": 132.9215021666667,
            "velocity": 0.6535433070866141
          },
          {
            "duration": 0.05392154166668206,
            "durationTicks": 11,
            "midi": 62,
            "name": "D4",
            "ticks": 27120,
            "time": 132.94111,
            "velocity": 1
          },
          {
            "duration": 0.0784313333333273,
            "durationTicks": 16,
            "midi": 44,
            "name": "G#2",
            "ticks": 27146,
            "time": 133.06856091666668,
            "velocity": 0.6535433070866141
          },
          {
            "duration": 0.0784313333333273,
            "durationTicks": 16,
            "midi": 44,
            "name": "G#2",
            "ticks": 27176,
            "time": 133.2156196666667,
            "velocity": 0.6535433070866141
          },
          {
            "duration": 0.0637254583333231,
            "durationTicks": 13,
            "midi": 39,
            "name": "D#2",
            "ticks": 27176,
            "time": 133.2156196666667,
            "velocity": 0.937007874015748
          },
          {
            "duration": 0.024509791666673664,
            "durationTicks": 5,
            "midi": 62,
            "name": "D4",
            "ticks": 27180,
            "time": 133.2352275,
            "velocity": 0.7244094488188977
          },
          {
            "duration": 0.11274504166667043,
            "durationTicks": 23,
            "midi": 40,
            "name": "E2",
            "ticks": 27206,
            "time": 133.36267841666668,
            "velocity": 0.6535433070866141
          },
          {
            "duration": 0.07352937500002099,
            "durationTicks": 15,
            "midi": 44,
            "name": "G#2",
            "ticks": 27206,
            "time": 133.36267841666668,
            "velocity": 0.6535433070866141
          },
          {
            "duration": 0.08823524999999677,
            "durationTicks": 18,
            "midi": 39,
            "name": "D#2",
            "ticks": 27206,
            "time": 133.36267841666668,
            "velocity": 0.6220472440944882
          },
          {
            "duration": 0.0784313333333273,
            "durationTicks": 16,
            "midi": 41,
            "name": "F2",
            "ticks": 27208,
            "time": 133.37248233333335,
            "velocity": 0.6535433070866141
          },
          {
            "duration": 0.0784313333333273,
            "durationTicks": 16,
            "midi": 29,
            "name": "F1",
            "ticks": 27208,
            "time": 133.37248233333335,
            "velocity": 0.5590551181102362
          },
          {
            "duration": 0.04901958333334733,
            "durationTicks": 10,
            "midi": 62,
            "name": "D4",
            "ticks": 27210,
            "time": 133.38228625000002,
            "velocity": 1
          },
          {
            "duration": 0.2941174999999987,
            "durationTicks": 60,
            "midi": 36,
            "name": "C2",
            "ticks": 27235,
            "time": 133.50483520833336,
            "velocity": 0.6535433070866141
          },
          {
            "duration": 0.07352937499999257,
            "durationTicks": 15,
            "midi": 44,
            "name": "G#2",
            "ticks": 27236,
            "time": 133.5097371666667,
            "velocity": 0.6535433070866141
          },
          {
            "duration": 0.06862741666668626,
            "durationTicks": 14,
            "midi": 44,
            "name": "G#2",
            "ticks": 27266,
            "time": 133.65679591666668,
            "velocity": 0.6535433070866141
          },
          {
            "duration": 0.06862741666665784,
            "durationTicks": 14,
            "midi": 41,
            "name": "F2",
            "ticks": 27268,
            "time": 133.66659983333335,
            "velocity": 0.6535433070866141
          },
          {
            "duration": 0.06862741666665784,
            "durationTicks": 14,
            "midi": 29,
            "name": "F1",
            "ticks": 27268,
            "time": 133.66659983333335,
            "velocity": 0.5590551181102362
          },
          {
            "duration": 0.04901958333334733,
            "durationTicks": 10,
            "midi": 61,
            "name": "C#4",
            "ticks": 27270,
            "time": 133.67640375000002,
            "velocity": 1
          },
          {
            "duration": 0.12745091666667463,
            "durationTicks": 26,
            "midi": 40,
            "name": "E2",
            "ticks": 27296,
            "time": 133.8038546666667,
            "velocity": 0.6535433070866141
          },
          {
            "duration": 0.08823524999999677,
            "durationTicks": 18,
            "midi": 44,
            "name": "G#2",
            "ticks": 27296,
            "time": 133.8038546666667,
            "velocity": 0.6535433070866141
          },
          {
            "duration": 0.05392154166665364,
            "durationTicks": 11,
            "midi": 39,
            "name": "D#2",
            "ticks": 27296,
            "time": 133.8038546666667,
            "velocity": 0.937007874015748
          },
          {
            "duration": 0.07843133333335572,
            "durationTicks": 16,
            "midi": 41,
            "name": "F2",
            "ticks": 27298,
            "time": 133.81365858333334,
            "velocity": 0.6535433070866141
          },
          {
            "duration": 0.07843133333335572,
            "durationTicks": 16,
            "midi": 29,
            "name": "F1",
            "ticks": 27298,
            "time": 133.81365858333334,
            "velocity": 0.5590551181102362
          },
          {
            "duration": 0.03431370833331471,
            "durationTicks": 7,
            "midi": 64,
            "name": "E4",
            "ticks": 27300,
            "time": 133.82346250000003,
            "velocity": 1
          },
          {
            "duration": 0.0637254583333231,
            "durationTicks": 13,
            "midi": 44,
            "name": "G#2",
            "ticks": 27326,
            "time": 133.95091341666668,
            "velocity": 0.6535433070866141
          },
          {
            "duration": 0.1372548333333441,
            "durationTicks": 28,
            "midi": 45,
            "name": "A2",
            "ticks": 27354,
            "time": 134.08816825000002,
            "velocity": 0.6535433070866141
          },
          {
            "duration": 0.0931372083333315,
            "durationTicks": 19,
            "midi": 35,
            "name": "B1",
            "ticks": 27354,
            "time": 134.08816825000002,
            "velocity": 0.6535433070866141
          },
          {
            "duration": 0.2941174999999987,
            "durationTicks": 60,
            "midi": 36,
            "name": "C2",
            "ticks": 27355,
            "time": 134.09307020833336,
            "velocity": 0.6535433070866141
          },
          {
            "duration": 0.09803916666666623,
            "durationTicks": 20,
            "midi": 49,
            "name": "C#3",
            "ticks": 27356,
            "time": 134.0979721666667,
            "velocity": 0.6535433070866141
          },
          {
            "duration": 0.0784313333333273,
            "durationTicks": 16,
            "midi": 44,
            "name": "G#2",
            "ticks": 27416,
            "time": 134.3920896666667,
            "velocity": 0.6535433070866141
          },
          {
            "duration": 0.04901958333334733,
            "durationTicks": 10,
            "midi": 39,
            "name": "D#2",
            "ticks": 27416,
            "time": 134.3920896666667,
            "velocity": 0.7401574803149606
          },
          {
            "duration": 0.03431370833331471,
            "durationTicks": 7,
            "midi": 62,
            "name": "D4",
            "ticks": 27420,
            "time": 134.41169750000003,
            "velocity": 0.7795275590551181
          },
          {
            "duration": 0.10294112500002939,
            "durationTicks": 21,
            "midi": 40,
            "name": "E2",
            "ticks": 27446,
            "time": 134.53914841666668,
            "velocity": 0.6535433070866141
          },
          {
            "duration": 0.0784313333333273,
            "durationTicks": 16,
            "midi": 44,
            "name": "G#2",
            "ticks": 27446,
            "time": 134.53914841666668,
            "velocity": 0.6535433070866141
          },
          {
            "duration": 0.0931372083333315,
            "durationTicks": 19,
            "midi": 39,
            "name": "D#2",
            "ticks": 27446,
            "time": 134.53914841666668,
            "velocity": 0.6377952755905512
          },
          {
            "duration": 0.07352937499999257,
            "durationTicks": 15,
            "midi": 42,
            "name": "F#2",
            "ticks": 27448,
            "time": 134.54895233333335,
            "velocity": 0.6535433070866141
          },
          {
            "duration": 0.07352937499999257,
            "durationTicks": 15,
            "midi": 30,
            "name": "F#1",
            "ticks": 27448,
            "time": 134.54895233333335,
            "velocity": 0.5590551181102362
          },
          {
            "duration": 0.03921566666667786,
            "durationTicks": 8,
            "midi": 63,
            "name": "D#4",
            "ticks": 27450,
            "time": 134.55875625000002,
            "velocity": 1
          },
          {
            "duration": 0.2941174999999987,
            "durationTicks": 60,
            "midi": 36,
            "name": "C2",
            "ticks": 27475,
            "time": 134.68130520833336,
            "velocity": 0.6535433070866141
          },
          {
            "duration": 0.0784313333333273,
            "durationTicks": 16,
            "midi": 44,
            "name": "G#2",
            "ticks": 27476,
            "time": 134.6862071666667,
            "velocity": 0.6535433070866141
          },
          {
            "duration": 0.06862741666668626,
            "durationTicks": 14,
            "midi": 44,
            "name": "G#2",
            "ticks": 27506,
            "time": 134.83326591666668,
            "velocity": 0.6535433070866141
          },
          {
            "duration": 0.05392154166668206,
            "durationTicks": 11,
            "midi": 42,
            "name": "F#2",
            "ticks": 27508,
            "time": 134.84306983333335,
            "velocity": 0.6535433070866141
          },
          {
            "duration": 0.05392154166668206,
            "durationTicks": 11,
            "midi": 30,
            "name": "F#1",
            "ticks": 27508,
            "time": 134.84306983333335,
            "velocity": 0.5590551181102362
          },
          {
            "duration": 0.029411750000008396,
            "durationTicks": 6,
            "midi": 61,
            "name": "C#4",
            "ticks": 27510,
            "time": 134.85287375000001,
            "velocity": 0.9763779527559056
          },
          {
            "duration": 0.1078430833333357,
            "durationTicks": 22,
            "midi": 40,
            "name": "E2",
            "ticks": 27536,
            "time": 134.9803246666667,
            "velocity": 0.6535433070866141
          },
          {
            "duration": 0.07352937499999257,
            "durationTicks": 15,
            "midi": 44,
            "name": "G#2",
            "ticks": 27536,
            "time": 134.9803246666667,
            "velocity": 0.6535433070866141
          },
          {
            "duration": 0.05882349999998837,
            "durationTicks": 12,
            "midi": 39,
            "name": "D#2",
            "ticks": 27536,
            "time": 134.9803246666667,
            "velocity": 0.8267716535433071
          },
          {
            "duration": 0.0784313333333273,
            "durationTicks": 16,
            "midi": 42,
            "name": "F#2",
            "ticks": 27538,
            "time": 134.99012858333336,
            "velocity": 0.6535433070866141
          },
          {
            "duration": 0.0784313333333273,
            "durationTicks": 16,
            "midi": 30,
            "name": "F#1",
            "ticks": 27538,
            "time": 134.99012858333336,
            "velocity": 0.5590551181102362
          },
          {
            "duration": 0.05392154166665364,
            "durationTicks": 11,
            "midi": 62,
            "name": "D4",
            "ticks": 27540,
            "time": 134.99993250000003,
            "velocity": 1
          },
          {
            "duration": 0.05392154166665364,
            "durationTicks": 11,
            "midi": 44,
            "name": "G#2",
            "ticks": 27566,
            "time": 135.1273834166667,
            "velocity": 0.6535433070866141
          },
          {
            "duration": 0.10294112500000097,
            "durationTicks": 21,
            "midi": 35,
            "name": "B1",
            "ticks": 27594,
            "time": 135.26463825000002,
            "velocity": 0.6535433070866141
          },
          {
            "duration": 0.1078430833333357,
            "durationTicks": 22,
            "midi": 45,
            "name": "A2",
            "ticks": 27594,
            "time": 135.26463825000002,
            "velocity": 0.6535433070866141
          },
          {
            "duration": 0.2941174999999987,
            "durationTicks": 60,
            "midi": 36,
            "name": "C2",
            "ticks": 27595,
            "time": 135.26954020833335,
            "velocity": 0.6535433070866141
          },
          {
            "duration": 0.0784313333333273,
            "durationTicks": 16,
            "midi": 44,
            "name": "G#2",
            "ticks": 27596,
            "time": 135.2744421666667,
            "velocity": 0.6535433070866141
          },
          {
            "duration": 0.03921566666664944,
            "durationTicks": 8,
            "midi": 62,
            "name": "D4",
            "ticks": 27600,
            "time": 135.29405000000003,
            "velocity": 1
          },
          {
            "duration": 0.0637254583333231,
            "durationTicks": 13,
            "midi": 44,
            "name": "G#2",
            "ticks": 27626,
            "time": 135.4215009166667,
            "velocity": 0.6535433070866141
          },
          {
            "duration": 0.0784313333333273,
            "durationTicks": 16,
            "midi": 44,
            "name": "G#2",
            "ticks": 27656,
            "time": 135.5685596666667,
            "velocity": 0.6535433070866141
          },
          {
            "duration": 0.03921566666667786,
            "durationTicks": 8,
            "midi": 39,
            "name": "D#2",
            "ticks": 27656,
            "time": 135.5685596666667,
            "velocity": 0.7637795275590551
          },
          {
            "duration": 0.029411750000008396,
            "durationTicks": 6,
            "midi": 62,
            "name": "D4",
            "ticks": 27660,
            "time": 135.58816750000003,
            "velocity": 0.8503937007874016
          },
          {
            "duration": 0.09803916666663781,
            "durationTicks": 20,
            "midi": 40,
            "name": "E2",
            "ticks": 27686,
            "time": 135.7156184166667,
            "velocity": 0.6535433070866141
          },
          {
            "duration": 0.0637254583333231,
            "durationTicks": 13,
            "midi": 44,
            "name": "G#2",
            "ticks": 27686,
            "time": 135.7156184166667,
            "velocity": 0.6535433070866141
          },
          {
            "duration": 0.08823524999999677,
            "durationTicks": 18,
            "midi": 39,
            "name": "D#2",
            "ticks": 27686,
            "time": 135.7156184166667,
            "velocity": 0.6062992125984252
          },
          {
            "duration": 0.06862741666668626,
            "durationTicks": 14,
            "midi": 44,
            "name": "G#2",
            "ticks": 27688,
            "time": 135.72542233333334,
            "velocity": 0.6535433070866141
          },
          {
            "duration": 0.06862741666668626,
            "durationTicks": 14,
            "midi": 32,
            "name": "G#1",
            "ticks": 27688,
            "time": 135.72542233333334,
            "velocity": 0.5590551181102362
          },
          {
            "duration": 0.03921566666667786,
            "durationTicks": 8,
            "midi": 60,
            "name": "C4",
            "ticks": 27690,
            "time": 135.73522625,
            "velocity": 0.9763779527559056
          },
          {
            "duration": 0.2941174999999987,
            "durationTicks": 60,
            "midi": 36,
            "name": "C2",
            "ticks": 27715,
            "time": 135.85777520833335,
            "velocity": 0.6535433070866141
          },
          {
            "duration": 0.07352937499999257,
            "durationTicks": 15,
            "midi": 44,
            "name": "G#2",
            "ticks": 27716,
            "time": 135.86267716666669,
            "velocity": 0.6535433070866141
          },
          {
            "duration": 0.049019583333318906,
            "durationTicks": 10,
            "midi": 44,
            "name": "G#2",
            "ticks": 27746,
            "time": 136.0097359166667,
            "velocity": 0.6535433070866141
          },
          {
            "duration": 0.05882350000001679,
            "durationTicks": 12,
            "midi": 44,
            "name": "G#2",
            "ticks": 27748,
            "time": 136.01953983333334,
            "velocity": 0.6535433070866141
          },
          {
            "duration": 0.03921566666667786,
            "durationTicks": 8,
            "midi": 32,
            "name": "G#1",
            "ticks": 27748,
            "time": 136.01953983333334,
            "velocity": 0.5590551181102362
          },
          {
            "duration": 0.024509791666673664,
            "durationTicks": 5,
            "midi": 61,
            "name": "C#4",
            "ticks": 27750,
            "time": 136.02934375,
            "velocity": 1
          },
          {
            "duration": 0.11274504166667043,
            "durationTicks": 23,
            "midi": 40,
            "name": "E2",
            "ticks": 27776,
            "time": 136.15679466666668,
            "velocity": 0.6535433070866141
          },
          {
            "duration": 0.0784313333333273,
            "durationTicks": 16,
            "midi": 44,
            "name": "G#2",
            "ticks": 27776,
            "time": 136.15679466666668,
            "velocity": 0.6535433070866141
          },
          {
            "duration": 0.05392154166668206,
            "durationTicks": 11,
            "midi": 39,
            "name": "D#2",
            "ticks": 27776,
            "time": 136.15679466666668,
            "velocity": 0.8818897637795275
          },
          {
            "duration": 0.08333329166666203,
            "durationTicks": 17,
            "midi": 44,
            "name": "G#2",
            "ticks": 27778,
            "time": 136.16659858333335,
            "velocity": 0.6535433070866141
          },
          {
            "duration": 0.06862741666665784,
            "durationTicks": 14,
            "midi": 32,
            "name": "G#1",
            "ticks": 27778,
            "time": 136.16659858333335,
            "velocity": 0.5590551181102362
          },
          {
            "duration": 0.04411762499998417,
            "durationTicks": 9,
            "midi": 64,
            "name": "E4",
            "ticks": 27780,
            "time": 136.17640250000002,
            "velocity": 1
          },
          {
            "duration": 0.0637254583333231,
            "durationTicks": 13,
            "midi": 44,
            "name": "G#2",
            "ticks": 27806,
            "time": 136.3038534166667,
            "velocity": 0.6535433070866141
          },
          {
            "duration": 0.11274504166667043,
            "durationTicks": 23,
            "midi": 35,
            "name": "B1",
            "ticks": 27834,
            "time": 136.44110825,
            "velocity": 0.6535433070866141
          },
          {
            "duration": 0.14215679166667883,
            "durationTicks": 29,
            "midi": 45,
            "name": "A2",
            "ticks": 27834,
            "time": 136.44110825,
            "velocity": 0.6535433070866141
          },
          {
            "duration": 0.2941174999999987,
            "durationTicks": 60,
            "midi": 36,
            "name": "C2",
            "ticks": 27835,
            "time": 136.44601020833335,
            "velocity": 0.6535433070866141
          },
          {
            "duration": 0.10294112500000097,
            "durationTicks": 21,
            "midi": 55,
            "name": "G3",
            "ticks": 27836,
            "time": 136.45091216666668,
            "velocity": 0.6535433070866141
          },
          {
            "duration": 0.04411762499998417,
            "durationTicks": 9,
            "midi": 62,
            "name": "D4",
            "ticks": 27840,
            "time": 136.47052000000002,
            "velocity": 1
          },
          {
            "duration": 0.06862741666665784,
            "durationTicks": 14,
            "midi": 44,
            "name": "G#2",
            "ticks": 27866,
            "time": 136.5979709166667,
            "velocity": 0.6535433070866141
          },
          {
            "duration": 0.0931372083333315,
            "durationTicks": 19,
            "midi": 44,
            "name": "G#2",
            "ticks": 27896,
            "time": 136.74502966666668,
            "velocity": 0.6535433070866141
          },
          {
            "duration": 0.044117625000012595,
            "durationTicks": 9,
            "midi": 39,
            "name": "D#2",
            "ticks": 27896,
            "time": 136.74502966666668,
            "velocity": 0.8818897637795275
          },
          {
            "duration": 0.024509791666673664,
            "durationTicks": 5,
            "midi": 62,
            "name": "D4",
            "ticks": 27900,
            "time": 136.76463750000002,
            "velocity": 0.905511811023622
          },
          {
            "duration": 0.1225489583333399,
            "durationTicks": 25,
            "midi": 40,
            "name": "E2",
            "ticks": 27926,
            "time": 136.8920884166667,
            "velocity": 0.6535433070866141
          },
          {
            "duration": 0.07352937499999257,
            "durationTicks": 15,
            "midi": 44,
            "name": "G#2",
            "ticks": 27926,
            "time": 136.8920884166667,
            "velocity": 0.6535433070866141
          },
          {
            "duration": 0.07352937499999257,
            "durationTicks": 15,
            "midi": 39,
            "name": "D#2",
            "ticks": 27926,
            "time": 136.8920884166667,
            "velocity": 0.41732283464566927
          },
          {
            "duration": 0.07843133333335572,
            "durationTicks": 16,
            "midi": 46,
            "name": "A#2",
            "ticks": 27928,
            "time": 136.90189233333334,
            "velocity": 0.6535433070866141
          },
          {
            "duration": 0.07843133333335572,
            "durationTicks": 16,
            "midi": 34,
            "name": "A#1",
            "ticks": 27928,
            "time": 136.90189233333334,
            "velocity": 0.5590551181102362
          },
          {
            "duration": 0.049019583333318906,
            "durationTicks": 10,
            "midi": 63,
            "name": "D#4",
            "ticks": 27930,
            "time": 136.91169625000003,
            "velocity": 1
          },
          {
            "duration": 0.2941174999999987,
            "durationTicks": 60,
            "midi": 36,
            "name": "C2",
            "ticks": 27955,
            "time": 137.03424520833337,
            "velocity": 0.6535433070866141
          },
          {
            "duration": 0.08823525000002519,
            "durationTicks": 18,
            "midi": 44,
            "name": "G#2",
            "ticks": 27956,
            "time": 137.03914716666668,
            "velocity": 0.6535433070866141
          },
          {
            "duration": 0.05392154166665364,
            "durationTicks": 11,
            "midi": 44,
            "name": "G#2",
            "ticks": 27986,
            "time": 137.1862059166667,
            "velocity": 0.6535433070866141
          },
          {
            "duration": 0.04901958333334733,
            "durationTicks": 10,
            "midi": 46,
            "name": "A#2",
            "ticks": 27988,
            "time": 137.19600983333333,
            "velocity": 0.6535433070866141
          },
          {
            "duration": 0.04901958333334733,
            "durationTicks": 10,
            "midi": 34,
            "name": "A#1",
            "ticks": 27988,
            "time": 137.19600983333333,
            "velocity": 0.5590551181102362
          },
          {
            "duration": 0.05392154166665364,
            "durationTicks": 11,
            "midi": 62,
            "name": "D4",
            "ticks": 27990,
            "time": 137.20581375000003,
            "velocity": 1
          },
          {
            "duration": 0.014705875000004198,
            "durationTicks": 3,
            "midi": 61,
            "name": "C#4",
            "ticks": 27990,
            "time": 137.20581375000003,
            "velocity": 0.5511811023622047
          },
          {
            "duration": 0.11764700000000516,
            "durationTicks": 24,
            "midi": 40,
            "name": "E2",
            "ticks": 28016,
            "time": 137.33326466666668,
            "velocity": 0.6535433070866141
          },
          {
            "duration": 0.08823525000002519,
            "durationTicks": 18,
            "midi": 44,
            "name": "G#2",
            "ticks": 28016,
            "time": 137.33326466666668,
            "velocity": 0.6535433070866141
          },
          {
            "duration": 0.04901958333334733,
            "durationTicks": 10,
            "midi": 39,
            "name": "D#2",
            "ticks": 28016,
            "time": 137.33326466666668,
            "velocity": 0.9763779527559056
          },
          {
            "duration": 0.05392154166665364,
            "durationTicks": 11,
            "midi": 46,
            "name": "A#2",
            "ticks": 28018,
            "time": 137.34306858333335,
            "velocity": 0.6535433070866141
          },
          {
            "duration": 0.05392154166665364,
            "durationTicks": 11,
            "midi": 34,
            "name": "A#1",
            "ticks": 28018,
            "time": 137.34306858333335,
            "velocity": 0.5590551181102362
          },
          {
            "duration": 0.04411762499998417,
            "durationTicks": 9,
            "midi": 62,
            "name": "D4",
            "ticks": 28020,
            "time": 137.35287250000002,
            "velocity": 1
          },
          {
            "duration": 0.05392154166665364,
            "durationTicks": 11,
            "midi": 44,
            "name": "G#2",
            "ticks": 28046,
            "time": 137.4803234166667,
            "velocity": 0.6535433070866141
          },
          {
            "duration": 0.0931372083333315,
            "durationTicks": 19,
            "midi": 45,
            "name": "A2",
            "ticks": 28074,
            "time": 137.61757825,
            "velocity": 0.6535433070866141
          },
          {
            "duration": 0.08823524999999677,
            "durationTicks": 18,
            "midi": 35,
            "name": "B1",
            "ticks": 28074,
            "time": 137.61757825,
            "velocity": 0.6535433070866141
          },
          {
            "duration": 0.2941174999999987,
            "durationTicks": 60,
            "midi": 36,
            "name": "C2",
            "ticks": 28075,
            "time": 137.62248020833337,
            "velocity": 0.6535433070866141
          },
          {
            "duration": 0.0784313333333273,
            "durationTicks": 16,
            "midi": 49,
            "name": "C#3",
            "ticks": 28076,
            "time": 137.62738216666668,
            "velocity": 0.6535433070866141
          },
          {
            "duration": 0.04901958333334733,
            "durationTicks": 10,
            "midi": 62,
            "name": "D4",
            "ticks": 28080,
            "time": 137.64699000000002,
            "velocity": 1
          },
          {
            "duration": 0.06372545833335153,
            "durationTicks": 13,
            "midi": 44,
            "name": "G#2",
            "ticks": 28136,
            "time": 137.92149966666668,
            "velocity": 0.6535433070866141
          },
          {
            "duration": 0.03921566666667786,
            "durationTicks": 8,
            "midi": 39,
            "name": "D#2",
            "ticks": 28136,
            "time": 137.92149966666668,
            "velocity": 0.7401574803149606
          },
          {
            "duration": 0.044117625000012595,
            "durationTicks": 9,
            "midi": 62,
            "name": "D4",
            "ticks": 28140,
            "time": 137.94110750000002,
            "velocity": 1
          },
          {
            "duration": 0.1225489583333399,
            "durationTicks": 25,
            "midi": 40,
            "name": "E2",
            "ticks": 28166,
            "time": 138.0685584166667,
            "velocity": 0.6535433070866141
          },
          {
            "duration": 0.0637254583333231,
            "durationTicks": 13,
            "midi": 44,
            "name": "G#2",
            "ticks": 28166,
            "time": 138.0685584166667,
            "velocity": 0.6535433070866141
          },
          {
            "duration": 0.0637254583333231,
            "durationTicks": 13,
            "midi": 39,
            "name": "D#2",
            "ticks": 28166,
            "time": 138.0685584166667,
            "velocity": 0.4251968503937008
          },
          {
            "duration": 0.07352937499999257,
            "durationTicks": 15,
            "midi": 46,
            "name": "A#2",
            "ticks": 28168,
            "time": 138.07836233333336,
            "velocity": 0.6535433070866141
          },
          {
            "duration": 0.07352937499999257,
            "durationTicks": 15,
            "midi": 34,
            "name": "A#1",
            "ticks": 28168,
            "time": 138.07836233333336,
            "velocity": 0.5590551181102362
          },
          {
            "duration": 0.2941174999999987,
            "durationTicks": 60,
            "midi": 36,
            "name": "C2",
            "ticks": 28195,
            "time": 138.21071520833337,
            "velocity": 0.6535433070866141
          },
          {
            "duration": 0.08823524999999677,
            "durationTicks": 18,
            "midi": 46,
            "name": "A#2",
            "ticks": 28196,
            "time": 138.2156171666667,
            "velocity": 0.6535433070866141
          },
          {
            "duration": 0.044117625000012595,
            "durationTicks": 9,
            "midi": 62,
            "name": "D4",
            "ticks": 28200,
            "time": 138.235225,
            "velocity": 1
          },
          {
            "duration": 0.0637254583333231,
            "durationTicks": 13,
            "midi": 44,
            "name": "G#2",
            "ticks": 28226,
            "time": 138.3626759166667,
            "velocity": 0.6535433070866141
          },
          {
            "duration": 0.07352937499999257,
            "durationTicks": 15,
            "midi": 46,
            "name": "A#2",
            "ticks": 28228,
            "time": 138.37247983333336,
            "velocity": 0.6535433070866141
          },
          {
            "duration": 0.07352937499999257,
            "durationTicks": 15,
            "midi": 34,
            "name": "A#1",
            "ticks": 28228,
            "time": 138.37247983333336,
            "velocity": 0.5590551181102362
          },
          {
            "duration": 0.13235287499998094,
            "durationTicks": 27,
            "midi": 40,
            "name": "E2",
            "ticks": 28256,
            "time": 138.5097346666667,
            "velocity": 0.6535433070866141
          },
          {
            "duration": 0.05392154166665364,
            "durationTicks": 11,
            "midi": 39,
            "name": "D#2",
            "ticks": 28256,
            "time": 138.5097346666667,
            "velocity": 0.9763779527559056
          },
          {
            "duration": 0.07843133333335572,
            "durationTicks": 16,
            "midi": 46,
            "name": "A#2",
            "ticks": 28258,
            "time": 138.51953858333334,
            "velocity": 0.6535433070866141
          },
          {
            "duration": 0.07843133333335572,
            "durationTicks": 16,
            "midi": 34,
            "name": "A#1",
            "ticks": 28258,
            "time": 138.51953858333334,
            "velocity": 0.5590551181102362
          },
          {
            "duration": 0.0784313333333273,
            "durationTicks": 16,
            "midi": 58,
            "name": "A#3",
            "ticks": 28260,
            "time": 138.5293425,
            "velocity": 1
          },
          {
            "duration": 0.05392154166668206,
            "durationTicks": 11,
            "midi": 44,
            "name": "G#2",
            "ticks": 28286,
            "time": 138.6567934166667,
            "velocity": 0.6535433070866141
          },
          {
            "duration": 0.1078430833333357,
            "durationTicks": 22,
            "midi": 35,
            "name": "B1",
            "ticks": 28314,
            "time": 138.79404825,
            "velocity": 0.6535433070866141
          },
          {
            "duration": 0.11764700000003359,
            "durationTicks": 24,
            "midi": 45,
            "name": "A2",
            "ticks": 28314,
            "time": 138.79404825,
            "velocity": 0.6535433070866141
          },
          {
            "duration": 0.2941174999999987,
            "durationTicks": 60,
            "midi": 36,
            "name": "C2",
            "ticks": 28315,
            "time": 138.79895020833337,
            "velocity": 0.6535433070866141
          },
          {
            "duration": 0.0784313333333273,
            "durationTicks": 16,
            "midi": 49,
            "name": "C#3",
            "ticks": 28316,
            "time": 138.8038521666667,
            "velocity": 0.6535433070866141
          },
          {
            "duration": 0.03921566666667786,
            "durationTicks": 8,
            "midi": 62,
            "name": "D4",
            "ticks": 28320,
            "time": 138.82346,
            "velocity": 0.8818897637795275
          },
          {
            "duration": 0.0637254583333231,
            "durationTicks": 13,
            "midi": 44,
            "name": "G#2",
            "ticks": 28346,
            "time": 138.9509109166667,
            "velocity": 0.6535433070866141
          },
          {
            "duration": 0.06862741666665784,
            "durationTicks": 14,
            "midi": 44,
            "name": "G#2",
            "ticks": 28376,
            "time": 139.0979696666667,
            "velocity": 0.6535433070866141
          },
          {
            "duration": 0.04411762499998417,
            "durationTicks": 9,
            "midi": 39,
            "name": "D#2",
            "ticks": 28376,
            "time": 139.0979696666667,
            "velocity": 0.7795275590551181
          },
          {
            "duration": 0.01960783333333893,
            "durationTicks": 4,
            "midi": 60,
            "name": "C4",
            "ticks": 28380,
            "time": 139.1175775,
            "velocity": 0.6535433070866141
          },
          {
            "duration": 0.11764700000000516,
            "durationTicks": 24,
            "midi": 40,
            "name": "E2",
            "ticks": 28406,
            "time": 139.24502841666668,
            "velocity": 0.6535433070866141
          },
          {
            "duration": 0.0637254583333231,
            "durationTicks": 13,
            "midi": 44,
            "name": "G#2",
            "ticks": 28406,
            "time": 139.24502841666668,
            "velocity": 0.6535433070866141
          },
          {
            "duration": 0.08823524999999677,
            "durationTicks": 18,
            "midi": 39,
            "name": "D#2",
            "ticks": 28406,
            "time": 139.24502841666668,
            "velocity": 0.5354330708661418
          },
          {
            "duration": 0.0784313333333273,
            "durationTicks": 16,
            "midi": 46,
            "name": "A#2",
            "ticks": 28408,
            "time": 139.25483233333335,
            "velocity": 0.6535433070866141
          },
          {
            "duration": 0.0784313333333273,
            "durationTicks": 16,
            "midi": 34,
            "name": "A#1",
            "ticks": 28408,
            "time": 139.25483233333335,
            "velocity": 0.5590551181102362
          },
          {
            "duration": 0.0637254583333231,
            "durationTicks": 13,
            "midi": 61,
            "name": "C#4",
            "ticks": 28410,
            "time": 139.26463625000002,
            "velocity": 1
          },
          {
            "duration": 0.2941174999999987,
            "durationTicks": 60,
            "midi": 36,
            "name": "C2",
            "ticks": 28435,
            "time": 139.38718520833336,
            "velocity": 0.6535433070866141
          },
          {
            "duration": 0.07352937499999257,
            "durationTicks": 15,
            "midi": 44,
            "name": "G#2",
            "ticks": 28436,
            "time": 139.3920871666667,
            "velocity": 0.6535433070866141
          },
          {
            "duration": 0.05392154166668206,
            "durationTicks": 11,
            "midi": 44,
            "name": "G#2",
            "ticks": 28466,
            "time": 139.53914591666668,
            "velocity": 0.6535433070866141
          },
          {
            "duration": 0.05392154166665364,
            "durationTicks": 11,
            "midi": 46,
            "name": "A#2",
            "ticks": 28468,
            "time": 139.54894983333335,
            "velocity": 0.6535433070866141
          },
          {
            "duration": 0.05392154166665364,
            "durationTicks": 11,
            "midi": 34,
            "name": "A#1",
            "ticks": 28468,
            "time": 139.54894983333335,
            "velocity": 0.5590551181102362
          },
          {
            "duration": 0.04411762499998417,
            "durationTicks": 9,
            "midi": 60,
            "name": "C4",
            "ticks": 28470,
            "time": 139.55875375000002,
            "velocity": 1
          },
          {
            "duration": 0.1225489583333399,
            "durationTicks": 25,
            "midi": 40,
            "name": "E2",
            "ticks": 28496,
            "time": 139.6862046666667,
            "velocity": 0.6535433070866141
          },
          {
            "duration": 0.0637254583333231,
            "durationTicks": 13,
            "midi": 44,
            "name": "G#2",
            "ticks": 28496,
            "time": 139.6862046666667,
            "velocity": 0.6535433070866141
          },
          {
            "duration": 0.0637254583333231,
            "durationTicks": 13,
            "midi": 39,
            "name": "D#2",
            "ticks": 28496,
            "time": 139.6862046666667,
            "velocity": 0.937007874015748
          },
          {
            "duration": 0.11274504166669885,
            "durationTicks": 23,
            "midi": 46,
            "name": "A#2",
            "ticks": 28498,
            "time": 139.69600858333334,
            "velocity": 0.6535433070866141
          },
          {
            "duration": 0.11274504166669885,
            "durationTicks": 23,
            "midi": 34,
            "name": "A#1",
            "ticks": 28498,
            "time": 139.69600858333334,
            "velocity": 0.5590551181102362
          },
          {
            "duration": 0.03921566666664944,
            "durationTicks": 8,
            "midi": 62,
            "name": "D4",
            "ticks": 28500,
            "time": 139.70581250000004,
            "velocity": 0.905511811023622
          },
          {
            "duration": 0.05392154166668206,
            "durationTicks": 11,
            "midi": 44,
            "name": "G#2",
            "ticks": 28526,
            "time": 139.83326341666668,
            "velocity": 0.6535433070866141
          },
          {
            "duration": 0.09803916666666623,
            "durationTicks": 20,
            "midi": 45,
            "name": "A2",
            "ticks": 28554,
            "time": 139.97051825000003,
            "velocity": 0.6535433070866141
          },
          {
            "duration": 0.11274504166667043,
            "durationTicks": 23,
            "midi": 35,
            "name": "B1",
            "ticks": 28554,
            "time": 139.97051825000003,
            "velocity": 0.6535433070866141
          },
          {
            "duration": 0.2941174999999987,
            "durationTicks": 60,
            "midi": 36,
            "name": "C2",
            "ticks": 28555,
            "time": 139.97542020833336,
            "velocity": 0.6535433070866141
          },
          {
            "duration": 0.07352937499999257,
            "durationTicks": 15,
            "midi": 44,
            "name": "G#2",
            "ticks": 28556,
            "time": 139.9803221666667,
            "velocity": 0.6535433070866141
          },
          {
            "duration": 0.05392154166668206,
            "durationTicks": 11,
            "midi": 44,
            "name": "G#2",
            "ticks": 28586,
            "time": 140.12738091666668,
            "velocity": 0.6535433070866141
          },
          {
            "duration": 0.07352937499999257,
            "durationTicks": 15,
            "midi": 44,
            "name": "G#2",
            "ticks": 28616,
            "time": 140.2744396666667,
            "velocity": 0.6535433070866141
          },
          {
            "duration": 0.04411762499998417,
            "durationTicks": 9,
            "midi": 39,
            "name": "D#2",
            "ticks": 28616,
            "time": 140.2744396666667,
            "velocity": 0.7086614173228346
          },
          {
            "duration": 0.029411750000008396,
            "durationTicks": 6,
            "midi": 62,
            "name": "D4",
            "ticks": 28620,
            "time": 140.29404750000003,
            "velocity": 0.8267716535433071
          },
          {
            "duration": 0.1225489583333399,
            "durationTicks": 25,
            "midi": 40,
            "name": "E2",
            "ticks": 28646,
            "time": 140.42149841666668,
            "velocity": 0.6535433070866141
          },
          {
            "duration": 0.0637254583333231,
            "durationTicks": 13,
            "midi": 44,
            "name": "G#2",
            "ticks": 28646,
            "time": 140.42149841666668,
            "velocity": 0.6535433070866141
          },
          {
            "duration": 0.0784313333333273,
            "durationTicks": 16,
            "midi": 39,
            "name": "D#2",
            "ticks": 28646,
            "time": 140.42149841666668,
            "velocity": 0.5669291338582677
          },
          {
            "duration": 0.07352937499999257,
            "durationTicks": 15,
            "midi": 42,
            "name": "F#2",
            "ticks": 28648,
            "time": 140.43130233333335,
            "velocity": 0.6535433070866141
          },
          {
            "duration": 0.07352937499999257,
            "durationTicks": 15,
            "midi": 30,
            "name": "F#1",
            "ticks": 28648,
            "time": 140.43130233333335,
            "velocity": 0.5590551181102362
          },
          {
            "duration": 0.05392154166668206,
            "durationTicks": 11,
            "midi": 61,
            "name": "C#4",
            "ticks": 28650,
            "time": 140.44110625000002,
            "velocity": 1
          },
          {
            "duration": 0.2941174999999987,
            "durationTicks": 60,
            "midi": 36,
            "name": "C2",
            "ticks": 28675,
            "time": 140.56365520833336,
            "velocity": 0.6535433070866141
          },
          {
            "duration": 0.06862741666665784,
            "durationTicks": 14,
            "midi": 44,
            "name": "G#2",
            "ticks": 28676,
            "time": 140.5685571666667,
            "velocity": 0.6535433070866141
          },
          {
            "duration": 0.06372545833335153,
            "durationTicks": 13,
            "midi": 44,
            "name": "G#2",
            "ticks": 28706,
            "time": 140.71561591666668,
            "velocity": 0.6535433070866141
          },
          {
            "duration": 0.06862741666668626,
            "durationTicks": 14,
            "midi": 39,
            "name": "D#2",
            "ticks": 28706,
            "time": 140.71561591666668,
            "velocity": 0.5511811023622047
          },
          {
            "duration": 0.05392154166668206,
            "durationTicks": 11,
            "midi": 42,
            "name": "F#2",
            "ticks": 28708,
            "time": 140.72541983333335,
            "velocity": 0.6535433070866141
          },
          {
            "duration": 0.05392154166668206,
            "durationTicks": 11,
            "midi": 30,
            "name": "F#1",
            "ticks": 28708,
            "time": 140.72541983333335,
            "velocity": 0.5590551181102362
          },
          {
            "duration": 0.12745091666667463,
            "durationTicks": 26,
            "midi": 40,
            "name": "E2",
            "ticks": 28736,
            "time": 140.8626746666667,
            "velocity": 0.6535433070866141
          },
          {
            "duration": 0.05392154166665364,
            "durationTicks": 11,
            "midi": 44,
            "name": "G#2",
            "ticks": 28736,
            "time": 140.8626746666667,
            "velocity": 0.6535433070866141
          },
          {
            "duration": 0.05392154166665364,
            "durationTicks": 11,
            "midi": 39,
            "name": "D#2",
            "ticks": 28736,
            "time": 140.8626746666667,
            "velocity": 0.8267716535433071
          },
          {
            "duration": 0.06862741666665784,
            "durationTicks": 14,
            "midi": 42,
            "name": "F#2",
            "ticks": 28738,
            "time": 140.87247858333336,
            "velocity": 0.6535433070866141
          },
          {
            "duration": 0.06862741666665784,
            "durationTicks": 14,
            "midi": 30,
            "name": "F#1",
            "ticks": 28738,
            "time": 140.87247858333336,
            "velocity": 0.5590551181102362
          },
          {
            "duration": 0.029411750000008396,
            "durationTicks": 6,
            "midi": 56,
            "name": "G#3",
            "ticks": 28740,
            "time": 140.88228250000003,
            "velocity": 1
          },
          {
            "duration": 0.06372545833335153,
            "durationTicks": 13,
            "midi": 44,
            "name": "G#2",
            "ticks": 28766,
            "time": 141.00973341666668,
            "velocity": 0.6535433070866141
          },
          {
            "duration": 0.1225489583333399,
            "durationTicks": 25,
            "midi": 45,
            "name": "A2",
            "ticks": 28794,
            "time": 141.14698825000002,
            "velocity": 0.6535433070866141
          },
          {
            "duration": 0.10294112500000097,
            "durationTicks": 21,
            "midi": 35,
            "name": "B1",
            "ticks": 28794,
            "time": 141.14698825000002,
            "velocity": 0.6535433070866141
          },
          {
            "duration": 0.2941174999999987,
            "durationTicks": 60,
            "midi": 36,
            "name": "C2",
            "ticks": 28795,
            "time": 141.15189020833336,
            "velocity": 0.6535433070866141
          },
          {
            "duration": 0.0637254583333231,
            "durationTicks": 13,
            "midi": 44,
            "name": "G#2",
            "ticks": 28796,
            "time": 141.1567921666667,
            "velocity": 0.6535433070866141
          },
          {
            "duration": 0.024509791666645242,
            "durationTicks": 5,
            "midi": 60,
            "name": "C4",
            "ticks": 28800,
            "time": 141.17640000000003,
            "velocity": 0.4015748031496063
          },
          {
            "duration": 0.0637254583333231,
            "durationTicks": 13,
            "midi": 44,
            "name": "G#2",
            "ticks": 28826,
            "time": 141.3038509166667,
            "velocity": 0.6535433070866141
          },
          {
            "duration": 0.05882349999998837,
            "durationTicks": 12,
            "midi": 44,
            "name": "G#2",
            "ticks": 28856,
            "time": 141.4509096666667,
            "velocity": 0.6535433070866141
          },
          {
            "duration": 0.04411762499998417,
            "durationTicks": 9,
            "midi": 39,
            "name": "D#2",
            "ticks": 28856,
            "time": 141.4509096666667,
            "velocity": 0.8503937007874016
          },
          {
            "duration": 0.0637254583333231,
            "durationTicks": 13,
            "midi": 44,
            "name": "G#2",
            "ticks": 28858,
            "time": 141.46071358333336,
            "velocity": 0.6535433070866141
          },
          {
            "duration": 0.049019583333318906,
            "durationTicks": 10,
            "midi": 32,
            "name": "G#1",
            "ticks": 28858,
            "time": 141.46071358333336,
            "velocity": 0.5590551181102362
          },
          {
            "duration": 0.03431370833334313,
            "durationTicks": 7,
            "midi": 60,
            "name": "C4",
            "ticks": 28860,
            "time": 141.47051750000003,
            "velocity": 0.937007874015748
          },
          {
            "duration": 0.11764699999997674,
            "durationTicks": 24,
            "midi": 40,
            "name": "E2",
            "ticks": 28886,
            "time": 141.5979684166667,
            "velocity": 0.6535433070866141
          },
          {
            "duration": 0.0637254583333231,
            "durationTicks": 13,
            "midi": 44,
            "name": "G#2",
            "ticks": 28886,
            "time": 141.5979684166667,
            "velocity": 0.6535433070866141
          },
          {
            "duration": 0.06862741666665784,
            "durationTicks": 14,
            "midi": 39,
            "name": "D#2",
            "ticks": 28886,
            "time": 141.5979684166667,
            "velocity": 0.4251968503937008
          },
          {
            "duration": 0.07352937499999257,
            "durationTicks": 15,
            "midi": 44,
            "name": "G#2",
            "ticks": 28888,
            "time": 141.60777233333334,
            "velocity": 0.6535433070866141
          },
          {
            "duration": 0.07352937499999257,
            "durationTicks": 15,
            "midi": 32,
            "name": "G#1",
            "ticks": 28888,
            "time": 141.60777233333334,
            "velocity": 0.5590551181102362
          },
          {
            "duration": 0.04901958333334733,
            "durationTicks": 10,
            "midi": 61,
            "name": "C#4",
            "ticks": 28890,
            "time": 141.61757625,
            "velocity": 1
          },
          {
            "duration": 0.2941174999999987,
            "durationTicks": 60,
            "midi": 36,
            "name": "C2",
            "ticks": 28915,
            "time": 141.74012520833335,
            "velocity": 0.6535433070866141
          },
          {
            "duration": 0.07352937499999257,
            "durationTicks": 15,
            "midi": 44,
            "name": "G#2",
            "ticks": 28916,
            "time": 141.7450271666667,
            "velocity": 0.6535433070866141
          },
          {
            "duration": 0.03921566666664944,
            "durationTicks": 8,
            "midi": 44,
            "name": "G#2",
            "ticks": 28946,
            "time": 141.8920859166667,
            "velocity": 0.6535433070866141
          },
          {
            "duration": 0.05392154166665364,
            "durationTicks": 11,
            "midi": 39,
            "name": "D#2",
            "ticks": 28946,
            "time": 141.8920859166667,
            "velocity": 0.4330708661417323
          },
          {
            "duration": 0.05392154166668206,
            "durationTicks": 11,
            "midi": 44,
            "name": "G#2",
            "ticks": 28948,
            "time": 141.90188983333334,
            "velocity": 0.6535433070866141
          },
          {
            "duration": 0.029411750000008396,
            "durationTicks": 6,
            "midi": 32,
            "name": "G#1",
            "ticks": 28948,
            "time": 141.90188983333334,
            "velocity": 0.5590551181102362
          },
          {
            "duration": 0.1225489583333399,
            "durationTicks": 25,
            "midi": 40,
            "name": "E2",
            "ticks": 28976,
            "time": 142.0391446666667,
            "velocity": 0.6535433070866141
          },
          {
            "duration": 0.06862741666668626,
            "durationTicks": 14,
            "midi": 44,
            "name": "G#2",
            "ticks": 28976,
            "time": 142.0391446666667,
            "velocity": 0.6535433070866141
          },
          {
            "duration": 0.05392154166668206,
            "durationTicks": 11,
            "midi": 39,
            "name": "D#2",
            "ticks": 28976,
            "time": 142.0391446666667,
            "velocity": 0.8031496062992126
          },
          {
            "duration": 0.0637254583333231,
            "durationTicks": 13,
            "midi": 44,
            "name": "G#2",
            "ticks": 28978,
            "time": 142.04894858333336,
            "velocity": 0.6535433070866141
          },
          {
            "duration": 0.0637254583333231,
            "durationTicks": 13,
            "midi": 32,
            "name": "G#1",
            "ticks": 28978,
            "time": 142.04894858333336,
            "velocity": 0.5590551181102362
          },
          {
            "duration": 0.04411762499998417,
            "durationTicks": 9,
            "midi": 63,
            "name": "D#4",
            "ticks": 28980,
            "time": 142.05875250000003,
            "velocity": 1
          },
          {
            "duration": 0.0637254583333231,
            "durationTicks": 13,
            "midi": 44,
            "name": "G#2",
            "ticks": 29006,
            "time": 142.1862034166667,
            "velocity": 0.6535433070866141
          },
          {
            "duration": 0.05392154166665364,
            "durationTicks": 11,
            "midi": 39,
            "name": "D#2",
            "ticks": 29006,
            "time": 142.1862034166667,
            "velocity": 0.4409448818897638
          },
          {
            "duration": 0.11274504166667043,
            "durationTicks": 23,
            "midi": 45,
            "name": "A2",
            "ticks": 29034,
            "time": 142.32345825000002,
            "velocity": 0.6535433070866141
          },
          {
            "duration": 0.10294112500000097,
            "durationTicks": 21,
            "midi": 35,
            "name": "B1",
            "ticks": 29034,
            "time": 142.32345825000002,
            "velocity": 0.6535433070866141
          },
          {
            "duration": 0.2941174999999987,
            "durationTicks": 60,
            "midi": 36,
            "name": "C2",
            "ticks": 29035,
            "time": 142.32836020833335,
            "velocity": 0.6535433070866141
          },
          {
            "duration": 0.06862741666668626,
            "durationTicks": 14,
            "midi": 44,
            "name": "G#2",
            "ticks": 29036,
            "time": 142.33326216666669,
            "velocity": 0.6535433070866141
          },
          {
            "duration": 0.04411762499998417,
            "durationTicks": 9,
            "midi": 62,
            "name": "D4",
            "ticks": 29040,
            "time": 142.35287000000002,
            "velocity": 1
          },
          {
            "duration": 0.0637254583333231,
            "durationTicks": 13,
            "midi": 44,
            "name": "G#2",
            "ticks": 29066,
            "time": 142.4803209166667,
            "velocity": 0.6535433070866141
          },
          {
            "duration": 0.06862741666668626,
            "durationTicks": 14,
            "midi": 44,
            "name": "G#2",
            "ticks": 29096,
            "time": 142.62737966666668,
            "velocity": 0.6535433070866141
          },
          {
            "duration": 0.044117625000012595,
            "durationTicks": 9,
            "midi": 39,
            "name": "D#2",
            "ticks": 29096,
            "time": 142.62737966666668,
            "velocity": 0.8031496062992126
          },
          {
            "duration": 0.03921566666667786,
            "durationTicks": 8,
            "midi": 41,
            "name": "F2",
            "ticks": 29098,
            "time": 142.63718358333335,
            "velocity": 0.6535433070866141
          },
          {
            "duration": 0.03921566666667786,
            "durationTicks": 8,
            "midi": 29,
            "name": "F1",
            "ticks": 29098,
            "time": 142.63718358333335,
            "velocity": 0.5590551181102362
          },
          {
            "duration": 0.11764699999997674,
            "durationTicks": 24,
            "midi": 40,
            "name": "E2",
            "ticks": 29126,
            "time": 142.7744384166667,
            "velocity": 0.6535433070866141
          },
          {
            "duration": 0.0637254583333231,
            "durationTicks": 13,
            "midi": 44,
            "name": "G#2",
            "ticks": 29126,
            "time": 142.7744384166667,
            "velocity": 0.6535433070866141
          },
          {
            "duration": 0.049019583333318906,
            "durationTicks": 10,
            "midi": 39,
            "name": "D#2",
            "ticks": 29126,
            "time": 142.7744384166667,
            "velocity": 0.2755905511811024
          },
          {
            "duration": 0.07352937500002099,
            "durationTicks": 15,
            "midi": 41,
            "name": "F2",
            "ticks": 29128,
            "time": 142.78424233333334,
            "velocity": 0.6535433070866141
          },
          {
            "duration": 0.07352937500002099,
            "durationTicks": 15,
            "midi": 29,
            "name": "F1",
            "ticks": 29128,
            "time": 142.78424233333334,
            "velocity": 0.5590551181102362
          },
          {
            "duration": 0.029411749999979975,
            "durationTicks": 6,
            "midi": 54,
            "name": "F#3",
            "ticks": 29130,
            "time": 142.79404625000004,
            "velocity": 0.7401574803149606
          },
          {
            "duration": 0.2941175000000271,
            "durationTicks": 60,
            "midi": 36,
            "name": "C2",
            "ticks": 29155,
            "time": 142.91659520833335,
            "velocity": 0.6535433070866141
          },
          {
            "duration": 0.0784313333333273,
            "durationTicks": 16,
            "midi": 44,
            "name": "G#2",
            "ticks": 29156,
            "time": 142.92149716666668,
            "velocity": 0.6535433070866141
          },
          {
            "duration": 0.0637254583333231,
            "durationTicks": 13,
            "midi": 44,
            "name": "G#2",
            "ticks": 29186,
            "time": 143.0685559166667,
            "velocity": 0.6535433070866141
          },
          {
            "duration": 0.11764700000000516,
            "durationTicks": 24,
            "midi": 40,
            "name": "E2",
            "ticks": 29216,
            "time": 143.21561466666668,
            "velocity": 0.6535433070866141
          },
          {
            "duration": 0.0637254583333231,
            "durationTicks": 13,
            "midi": 46,
            "name": "A#2",
            "ticks": 29216,
            "time": 143.21561466666668,
            "velocity": 0.6535433070866141
          },
          {
            "duration": 0.0637254583333231,
            "durationTicks": 13,
            "midi": 39,
            "name": "D#2",
            "ticks": 29216,
            "time": 143.21561466666668,
            "velocity": 0.7795275590551181
          },
          {
            "duration": 0.06372545833335153,
            "durationTicks": 13,
            "midi": 41,
            "name": "F2",
            "ticks": 29218,
            "time": 143.22541858333335,
            "velocity": 0.6535433070866141
          },
          {
            "duration": 0.06372545833335153,
            "durationTicks": 13,
            "midi": 29,
            "name": "F1",
            "ticks": 29218,
            "time": 143.22541858333335,
            "velocity": 0.5590551181102362
          },
          {
            "duration": 0.06862741666665784,
            "durationTicks": 14,
            "midi": 44,
            "name": "G#2",
            "ticks": 29246,
            "time": 143.3626734166667,
            "velocity": 0.6535433070866141
          },
          {
            "duration": 0.07352937499999257,
            "durationTicks": 15,
            "midi": 39,
            "name": "D#2",
            "ticks": 29246,
            "time": 143.3626734166667,
            "velocity": 0.48031496062992124
          },
          {
            "duration": 0.1225489583333399,
            "durationTicks": 25,
            "midi": 45,
            "name": "A2",
            "ticks": 29274,
            "time": 143.49992825,
            "velocity": 0.6535433070866141
          },
          {
            "duration": 0.0931372083333315,
            "durationTicks": 19,
            "midi": 35,
            "name": "B1",
            "ticks": 29274,
            "time": 143.49992825,
            "velocity": 0.6535433070866141
          },
          {
            "duration": 0.2941174999999987,
            "durationTicks": 60,
            "midi": 36,
            "name": "C2",
            "ticks": 29275,
            "time": 143.50483020833337,
            "velocity": 0.6535433070866141
          },
          {
            "duration": 0.08823525000002519,
            "durationTicks": 18,
            "midi": 49,
            "name": "C#3",
            "ticks": 29276,
            "time": 143.50973216666668,
            "velocity": 0.6535433070866141
          },
          {
            "duration": 0.03921566666667786,
            "durationTicks": 8,
            "midi": 60,
            "name": "C4",
            "ticks": 29280,
            "time": 143.52934000000002,
            "velocity": 1
          },
          {
            "duration": 0.05392154166665364,
            "durationTicks": 11,
            "midi": 44,
            "name": "G#2",
            "ticks": 29306,
            "time": 143.6567909166667,
            "velocity": 0.6535433070866141
          },
          {
            "duration": 0.07352937500002099,
            "durationTicks": 15,
            "midi": 44,
            "name": "G#2",
            "ticks": 29336,
            "time": 143.80384966666668,
            "velocity": 0.6535433070866141
          },
          {
            "duration": 0.05882350000001679,
            "durationTicks": 12,
            "midi": 39,
            "name": "D#2",
            "ticks": 29336,
            "time": 143.80384966666668,
            "velocity": 0.9763779527559056
          },
          {
            "duration": 0.04901958333334733,
            "durationTicks": 10,
            "midi": 42,
            "name": "F#2",
            "ticks": 29338,
            "time": 143.81365358333335,
            "velocity": 0.6535433070866141
          },
          {
            "duration": 0.04901958333334733,
            "durationTicks": 10,
            "midi": 30,
            "name": "F#1",
            "ticks": 29338,
            "time": 143.81365358333335,
            "velocity": 0.5590551181102362
          },
          {
            "duration": 0.10294112500000097,
            "durationTicks": 21,
            "midi": 40,
            "name": "E2",
            "ticks": 29366,
            "time": 143.9509084166667,
            "velocity": 0.6535433070866141
          },
          {
            "duration": 0.0637254583333231,
            "durationTicks": 13,
            "midi": 44,
            "name": "G#2",
            "ticks": 29366,
            "time": 143.9509084166667,
            "velocity": 0.6535433070866141
          },
          {
            "duration": 0.0931372083333315,
            "durationTicks": 19,
            "midi": 39,
            "name": "D#2",
            "ticks": 29366,
            "time": 143.9509084166667,
            "velocity": 0.5669291338582677
          },
          {
            "duration": 0.07352937499999257,
            "durationTicks": 15,
            "midi": 42,
            "name": "F#2",
            "ticks": 29368,
            "time": 143.96071233333336,
            "velocity": 0.6535433070866141
          },
          {
            "duration": 0.06862741666665784,
            "durationTicks": 14,
            "midi": 30,
            "name": "F#1",
            "ticks": 29368,
            "time": 143.96071233333336,
            "velocity": 0.5590551181102362
          },
          {
            "duration": 0.049019583333318906,
            "durationTicks": 10,
            "midi": 61,
            "name": "C#4",
            "ticks": 29370,
            "time": 143.97051625000003,
            "velocity": 1
          },
          {
            "duration": 0.2941174999999987,
            "durationTicks": 60,
            "midi": 36,
            "name": "C2",
            "ticks": 29395,
            "time": 144.09306520833337,
            "velocity": 0.6535433070866141
          },
          {
            "duration": 0.07843133333335572,
            "durationTicks": 16,
            "midi": 44,
            "name": "G#2",
            "ticks": 29396,
            "time": 144.09796716666668,
            "velocity": 0.6535433070866141
          },
          {
            "duration": 0.01960783333333893,
            "durationTicks": 4,
            "midi": 62,
            "name": "D4",
            "ticks": 29400,
            "time": 144.11757500000002,
            "velocity": 1
          },
          {
            "duration": 0.05392154166665364,
            "durationTicks": 11,
            "midi": 44,
            "name": "G#2",
            "ticks": 29426,
            "time": 144.2450259166667,
            "velocity": 0.6535433070866141
          },
          {
            "duration": 0.0637254583333231,
            "durationTicks": 13,
            "midi": 39,
            "name": "D#2",
            "ticks": 29426,
            "time": 144.2450259166667,
            "velocity": 0.44881889763779526
          },
          {
            "duration": 0.04411762499998417,
            "durationTicks": 9,
            "midi": 63,
            "name": "D#4",
            "ticks": 29430,
            "time": 144.26463375000003,
            "velocity": 0.9763779527559056
          },
          {
            "duration": 0.11764699999997674,
            "durationTicks": 24,
            "midi": 40,
            "name": "E2",
            "ticks": 29456,
            "time": 144.3920846666667,
            "velocity": 0.6535433070866141
          },
          {
            "duration": 0.07352937499999257,
            "durationTicks": 15,
            "midi": 44,
            "name": "G#2",
            "ticks": 29456,
            "time": 144.3920846666667,
            "velocity": 0.6535433070866141
          },
          {
            "duration": 0.049019583333318906,
            "durationTicks": 10,
            "midi": 39,
            "name": "D#2",
            "ticks": 29456,
            "time": 144.3920846666667,
            "velocity": 0.7795275590551181
          },
          {
            "duration": 0.05392154166668206,
            "durationTicks": 11,
            "midi": 42,
            "name": "F#2",
            "ticks": 29458,
            "time": 144.40188858333335,
            "velocity": 0.6535433070866141
          },
          {
            "duration": 0.05392154166668206,
            "durationTicks": 11,
            "midi": 30,
            "name": "F#1",
            "ticks": 29458,
            "time": 144.40188858333335,
            "velocity": 0.5590551181102362
          },
          {
            "duration": 0.03431370833334313,
            "durationTicks": 7,
            "midi": 64,
            "name": "E4",
            "ticks": 29460,
            "time": 144.41169250000002,
            "velocity": 1
          },
          {
            "duration": 0.04901958333334733,
            "durationTicks": 10,
            "midi": 44,
            "name": "G#2",
            "ticks": 29486,
            "time": 144.5391434166667,
            "velocity": 0.6535433070866141
          },
          {
            "duration": 0.04411762499998417,
            "durationTicks": 9,
            "midi": 39,
            "name": "D#2",
            "ticks": 29486,
            "time": 144.5391434166667,
            "velocity": 0.30708661417322836
          },
          {
            "duration": 0.11764700000003359,
            "durationTicks": 24,
            "midi": 45,
            "name": "A2",
            "ticks": 29514,
            "time": 144.67639825,
            "velocity": 0.6535433070866141
          },
          {
            "duration": 0.11274504166669885,
            "durationTicks": 23,
            "midi": 35,
            "name": "B1",
            "ticks": 29514,
            "time": 144.67639825,
            "velocity": 0.6535433070866141
          },
          {
            "duration": 0.2941174999999987,
            "durationTicks": 60,
            "midi": 36,
            "name": "C2",
            "ticks": 29515,
            "time": 144.68130020833337,
            "velocity": 0.6535433070866141
          },
          {
            "duration": 0.06862741666665784,
            "durationTicks": 14,
            "midi": 44,
            "name": "G#2",
            "ticks": 29516,
            "time": 144.6862021666667,
            "velocity": 0.6535433070866141
          },
          {
            "duration": 0.05882350000001679,
            "durationTicks": 12,
            "midi": 60,
            "name": "C4",
            "ticks": 29520,
            "time": 144.70581,
            "velocity": 1
          },
          {
            "duration": 0.04901958333334733,
            "durationTicks": 10,
            "midi": 44,
            "name": "G#2",
            "ticks": 29546,
            "time": 144.8332609166667,
            "velocity": 0.6535433070866141
          },
          {
            "duration": 0.0637254583333231,
            "durationTicks": 13,
            "midi": 44,
            "name": "G#2",
            "ticks": 29576,
            "time": 144.9803196666667,
            "velocity": 0.6535433070866141
          },
          {
            "duration": 0.0637254583333231,
            "durationTicks": 13,
            "midi": 39,
            "name": "D#2",
            "ticks": 29576,
            "time": 144.9803196666667,
            "velocity": 0.8503937007874016
          },
          {
            "duration": 0.06372545833335153,
            "durationTicks": 13,
            "midi": 44,
            "name": "G#2",
            "ticks": 29578,
            "time": 144.99012358333334,
            "velocity": 0.6535433070866141
          },
          {
            "duration": 0.05392154166668206,
            "durationTicks": 11,
            "midi": 32,
            "name": "G#1",
            "ticks": 29578,
            "time": 144.99012358333334,
            "velocity": 0.5590551181102362
          },
          {
            "duration": 0.11764700000000516,
            "durationTicks": 24,
            "midi": 40,
            "name": "E2",
            "ticks": 29606,
            "time": 145.1273784166667,
            "velocity": 0.6535433070866141
          },
          {
            "duration": 0.0637254583333231,
            "durationTicks": 13,
            "midi": 44,
            "name": "G#2",
            "ticks": 29606,
            "time": 145.1273784166667,
            "velocity": 0.6535433070866141
          },
          {
            "duration": 0.0784313333333273,
            "durationTicks": 16,
            "midi": 39,
            "name": "D#2",
            "ticks": 29606,
            "time": 145.1273784166667,
            "velocity": 0.5354330708661418
          },
          {
            "duration": 0.07352937499999257,
            "durationTicks": 15,
            "midi": 44,
            "name": "G#2",
            "ticks": 29608,
            "time": 145.13718233333336,
            "velocity": 0.6535433070866141
          },
          {
            "duration": 0.07352937499999257,
            "durationTicks": 15,
            "midi": 32,
            "name": "G#1",
            "ticks": 29608,
            "time": 145.13718233333336,
            "velocity": 0.5590551181102362
          },
          {
            "duration": 0.07352937499999257,
            "durationTicks": 15,
            "midi": 61,
            "name": "C#4",
            "ticks": 29610,
            "time": 145.14698625000003,
            "velocity": 1
          },
          {
            "duration": 0.2941174999999987,
            "durationTicks": 60,
            "midi": 36,
            "name": "C2",
            "ticks": 29635,
            "time": 145.26953520833337,
            "velocity": 0.6535433070866141
          },
          {
            "duration": 0.0784313333333273,
            "durationTicks": 16,
            "midi": 44,
            "name": "G#2",
            "ticks": 29636,
            "time": 145.2744371666667,
            "velocity": 0.6535433070866141
          },
          {
            "duration": 0.05392154166668206,
            "durationTicks": 11,
            "midi": 44,
            "name": "G#2",
            "ticks": 29666,
            "time": 145.4214959166667,
            "velocity": 0.6535433070866141
          },
          {
            "duration": 0.03921566666664944,
            "durationTicks": 8,
            "midi": 62,
            "name": "D4",
            "ticks": 29670,
            "time": 145.44110375000002,
            "velocity": 1
          },
          {
            "duration": 0.11764699999997674,
            "durationTicks": 24,
            "midi": 40,
            "name": "E2",
            "ticks": 29696,
            "time": 145.5685546666667,
            "velocity": 0.6535433070866141
          },
          {
            "duration": 0.07352937499999257,
            "durationTicks": 15,
            "midi": 44,
            "name": "G#2",
            "ticks": 29696,
            "time": 145.5685546666667,
            "velocity": 0.6535433070866141
          },
          {
            "duration": 0.049019583333318906,
            "durationTicks": 10,
            "midi": 39,
            "name": "D#2",
            "ticks": 29696,
            "time": 145.5685546666667,
            "velocity": 0.7795275590551181
          },
          {
            "duration": 0.07843133333335572,
            "durationTicks": 16,
            "midi": 44,
            "name": "G#2",
            "ticks": 29698,
            "time": 145.57835858333334,
            "velocity": 0.6535433070866141
          },
          {
            "duration": 0.06372545833335153,
            "durationTicks": 13,
            "midi": 32,
            "name": "G#1",
            "ticks": 29698,
            "time": 145.57835858333334,
            "velocity": 0.5590551181102362
          },
          {
            "duration": 0.04901958333334733,
            "durationTicks": 10,
            "midi": 63,
            "name": "D#4",
            "ticks": 29700,
            "time": 145.5881625,
            "velocity": 1
          },
          {
            "duration": 0.05392154166668206,
            "durationTicks": 11,
            "midi": 44,
            "name": "G#2",
            "ticks": 29726,
            "time": 145.71561341666668,
            "velocity": 0.6535433070866141
          },
          {
            "duration": 0.05392154166668206,
            "durationTicks": 11,
            "midi": 39,
            "name": "D#2",
            "ticks": 29726,
            "time": 145.71561341666668,
            "velocity": 0.25196850393700787
          },
          {
            "duration": 0.11274504166667043,
            "durationTicks": 23,
            "midi": 45,
            "name": "A2",
            "ticks": 29754,
            "time": 145.85286825000003,
            "velocity": 0.6535433070866141
          },
          {
            "duration": 0.11274504166667043,
            "durationTicks": 23,
            "midi": 35,
            "name": "B1",
            "ticks": 29754,
            "time": 145.85286825000003,
            "velocity": 0.6535433070866141
          },
          {
            "duration": 0.2941174999999987,
            "durationTicks": 60,
            "midi": 36,
            "name": "C2",
            "ticks": 29755,
            "time": 145.85777020833336,
            "velocity": 0.6535433070866141
          },
          {
            "duration": 0.0931372083333315,
            "durationTicks": 19,
            "midi": 57,
            "name": "A3",
            "ticks": 29756,
            "time": 145.8626721666667,
            "velocity": 0.6535433070866141
          },
          {
            "duration": 0.04901958333334733,
            "durationTicks": 10,
            "midi": 64,
            "name": "E4",
            "ticks": 29760,
            "time": 145.88228,
            "velocity": 1
          },
          {
            "duration": 0.05392154166668206,
            "durationTicks": 11,
            "midi": 44,
            "name": "G#2",
            "ticks": 29786,
            "time": 146.00973091666668,
            "velocity": 0.6535433070866141
          },
          {
            "duration": 0.08823524999999677,
            "durationTicks": 18,
            "midi": 39,
            "name": "D#2",
            "ticks": 29786,
            "time": 146.00973091666668,
            "velocity": 0.48031496062992124
          },
          {
            "duration": 0.029411750000008396,
            "durationTicks": 6,
            "midi": 60,
            "name": "C4",
            "ticks": 29790,
            "time": 146.02933875000002,
            "velocity": 0.8031496062992126
          },
          {
            "duration": 0.04901958333334733,
            "durationTicks": 10,
            "midi": 62,
            "name": "D4",
            "ticks": 29790,
            "time": 146.02933875000002,
            "velocity": 0.8267716535433071
          },
          {
            "duration": 0.0637254583333231,
            "durationTicks": 13,
            "midi": 44,
            "name": "G#2",
            "ticks": 29816,
            "time": 146.1567896666667,
            "velocity": 0.6535433070866141
          },
          {
            "duration": 0.04411762499998417,
            "durationTicks": 9,
            "midi": 39,
            "name": "D#2",
            "ticks": 29816,
            "time": 146.1567896666667,
            "velocity": 0.5826771653543307
          },
          {
            "duration": 0.04901958333334733,
            "durationTicks": 10,
            "midi": 46,
            "name": "A#2",
            "ticks": 29818,
            "time": 146.16659358333334,
            "velocity": 0.6535433070866141
          },
          {
            "duration": 0.04901958333334733,
            "durationTicks": 10,
            "midi": 34,
            "name": "A#1",
            "ticks": 29818,
            "time": 146.16659358333334,
            "velocity": 0.5590551181102362
          },
          {
            "duration": 0.024509791666645242,
            "durationTicks": 5,
            "midi": 62,
            "name": "D4",
            "ticks": 29820,
            "time": 146.17639750000004,
            "velocity": 0.9763779527559056
          },
          {
            "duration": 0.11274504166667043,
            "durationTicks": 23,
            "midi": 40,
            "name": "E2",
            "ticks": 29846,
            "time": 146.30384841666668,
            "velocity": 0.6535433070866141
          },
          {
            "duration": 0.06862741666668626,
            "durationTicks": 14,
            "midi": 44,
            "name": "G#2",
            "ticks": 29846,
            "time": 146.30384841666668,
            "velocity": 0.6535433070866141
          },
          {
            "duration": 0.07843133333335572,
            "durationTicks": 16,
            "midi": 46,
            "name": "A#2",
            "ticks": 29848,
            "time": 146.31365233333335,
            "velocity": 0.6535433070866141
          },
          {
            "duration": 0.07843133333335572,
            "durationTicks": 16,
            "midi": 34,
            "name": "A#1",
            "ticks": 29848,
            "time": 146.31365233333335,
            "velocity": 0.5590551181102362
          },
          {
            "duration": 0.0637254583333231,
            "durationTicks": 13,
            "midi": 61,
            "name": "C#4",
            "ticks": 29850,
            "time": 146.32345625000002,
            "velocity": 1
          },
          {
            "duration": 0.14705874999998514,
            "durationTicks": 30,
            "midi": 35,
            "name": "B1",
            "ticks": 29874,
            "time": 146.44110325000003,
            "velocity": 0.6535433070866141
          },
          {
            "duration": 0.14705874999998514,
            "durationTicks": 30,
            "midi": 45,
            "name": "A2",
            "ticks": 29874,
            "time": 146.44110325000003,
            "velocity": 0.6535433070866141
          },
          {
            "duration": 0.06862741666665784,
            "durationTicks": 14,
            "midi": 44,
            "name": "G#2",
            "ticks": 29876,
            "time": 146.4509071666667,
            "velocity": 0.6535433070866141
          },
          {
            "duration": 0.04901958333334733,
            "durationTicks": 10,
            "midi": 39,
            "name": "D#2",
            "ticks": 29906,
            "time": 146.59796591666668,
            "velocity": 0.33070866141732286
          },
          {
            "duration": 0.044117625000012595,
            "durationTicks": 9,
            "midi": 46,
            "name": "A#2",
            "ticks": 29908,
            "time": 146.60776983333335,
            "velocity": 0.6535433070866141
          },
          {
            "duration": 0.044117625000012595,
            "durationTicks": 9,
            "midi": 34,
            "name": "A#1",
            "ticks": 29908,
            "time": 146.60776983333335,
            "velocity": 0.5590551181102362
          },
          {
            "duration": 0.024509791666673664,
            "durationTicks": 5,
            "midi": 62,
            "name": "D4",
            "ticks": 29910,
            "time": 146.61757375000002,
            "velocity": 1
          },
          {
            "duration": 0.14705874999998514,
            "durationTicks": 30,
            "midi": 35,
            "name": "B1",
            "ticks": 29934,
            "time": 146.73522075000002,
            "velocity": 0.6535433070866141
          },
          {
            "duration": 0.14705874999998514,
            "durationTicks": 30,
            "midi": 45,
            "name": "A2",
            "ticks": 29934,
            "time": 146.73522075000002,
            "velocity": 0.6535433070866141
          },
          {
            "duration": 0.0637254583333231,
            "durationTicks": 13,
            "midi": 44,
            "name": "G#2",
            "ticks": 29936,
            "time": 146.7450246666667,
            "velocity": 0.6535433070866141
          },
          {
            "duration": 0.06862741666665784,
            "durationTicks": 14,
            "midi": 39,
            "name": "D#2",
            "ticks": 29936,
            "time": 146.7450246666667,
            "velocity": 0.7795275590551181
          },
          {
            "duration": 0.03921566666664944,
            "durationTicks": 8,
            "midi": 64,
            "name": "E4",
            "ticks": 29940,
            "time": 146.76463250000003,
            "velocity": 0.8503937007874016
          },
          {
            "duration": 0.03921566666667786,
            "durationTicks": 8,
            "midi": 63,
            "name": "D#4",
            "ticks": 29970,
            "time": 146.91169125000002,
            "velocity": 1
          },
          {
            "duration": 0.08823524999999677,
            "durationTicks": 18,
            "midi": 45,
            "name": "A2",
            "ticks": 29994,
            "time": 147.02933825000002,
            "velocity": 0.6535433070866141
          },
          {
            "duration": 0.07352937499999257,
            "durationTicks": 15,
            "midi": 35,
            "name": "B1",
            "ticks": 29994,
            "time": 147.02933825000002,
            "velocity": 0.6535433070866141
          },
          {
            "duration": 0.029411750000008396,
            "durationTicks": 6,
            "midi": 62,
            "name": "D4",
            "ticks": 30000,
            "time": 147.05875000000003,
            "velocity": 0.8503937007874016
          },
          {
            "duration": 0.029411750000008396,
            "durationTicks": 6,
            "midi": 62,
            "name": "D4",
            "ticks": 30030,
            "time": 147.20580875000002,
            "velocity": 0.937007874015748
          },
          {
            "duration": 0.14705874999998514,
            "durationTicks": 30,
            "midi": 35,
            "name": "B1",
            "ticks": 30054,
            "time": 147.32345575000002,
            "velocity": 0.6535433070866141
          },
          {
            "duration": 0.14705874999998514,
            "durationTicks": 30,
            "midi": 45,
            "name": "A2",
            "ticks": 30054,
            "time": 147.32345575000002,
            "velocity": 0.6535433070866141
          },
          {
            "duration": 0.024509791666645242,
            "durationTicks": 5,
            "midi": 62,
            "name": "D4",
            "ticks": 30060,
            "time": 147.35286750000003,
            "velocity": 0.6929133858267716
          },
          {
            "duration": 0.029411750000008396,
            "durationTicks": 6,
            "midi": 62,
            "name": "D4",
            "ticks": 30090,
            "time": 147.49992625000002,
            "velocity": 1
          },
          {
            "duration": 0.09803916666666623,
            "durationTicks": 20,
            "midi": 45,
            "name": "A2",
            "ticks": 30114,
            "time": 147.61757325000002,
            "velocity": 0.6535433070866141
          },
          {
            "duration": 0.0784313333333273,
            "durationTicks": 16,
            "midi": 35,
            "name": "B1",
            "ticks": 30114,
            "time": 147.61757325000002,
            "velocity": 0.6535433070866141
          },
          {
            "duration": 0.11274504166667043,
            "durationTicks": 23,
            "midi": 45,
            "name": "A2",
            "ticks": 30174,
            "time": 147.91169075000002,
            "velocity": 0.6535433070866141
          },
          {
            "duration": 0.0931372083333315,
            "durationTicks": 19,
            "midi": 35,
            "name": "B1",
            "ticks": 30174,
            "time": 147.91169075000002,
            "velocity": 0.6535433070866141
          },
          {
            "duration": 0.04901958333334733,
            "durationTicks": 10,
            "midi": 78,
            "name": "F#5",
            "ticks": 30180,
            "time": 147.94110250000003,
            "velocity": 1
          },
          {
            "duration": 0.08823524999999677,
            "durationTicks": 18,
            "midi": 35,
            "name": "B1",
            "ticks": 30234,
            "time": 148.20580825000002,
            "velocity": 0.6535433070866141
          },
          {
            "duration": 0.11764700000000516,
            "durationTicks": 24,
            "midi": 45,
            "name": "A2",
            "ticks": 30234,
            "time": 148.20580825000002,
            "velocity": 0.6535433070866141
          },
          {
            "duration": 0.8823524999999961,
            "durationTicks": 180,
            "midi": 36,
            "name": "C2",
            "ticks": 30235,
            "time": 148.21071020833335,
            "velocity": 0.6535433070866141
          },
          {
            "duration": 0.08823524999999677,
            "durationTicks": 18,
            "midi": 49,
            "name": "C#3",
            "ticks": 30236,
            "time": 148.2156121666667,
            "velocity": 0.6535433070866141
          },
          {
            "duration": 0.11274504166667043,
            "durationTicks": 23,
            "midi": 46,
            "name": "A#2",
            "ticks": 30238,
            "time": 148.22541608333336,
            "velocity": 0.6535433070866141
          },
          {
            "duration": 0.11274504166667043,
            "durationTicks": 23,
            "midi": 34,
            "name": "A#1",
            "ticks": 30238,
            "time": 148.22541608333336,
            "velocity": 0.5590551181102362
          },
          {
            "duration": 0.06862741666668626,
            "durationTicks": 14,
            "midi": 44,
            "name": "G#2",
            "ticks": 30296,
            "time": 148.5097296666667,
            "velocity": 0.6535433070866141
          },
          {
            "duration": 0.0784313333333273,
            "durationTicks": 16,
            "midi": 44,
            "name": "G#2",
            "ticks": 30326,
            "time": 148.6567884166667,
            "velocity": 0.6535433070866141
          },
          {
            "duration": 0.05392154166668206,
            "durationTicks": 11,
            "midi": 61,
            "name": "C#4",
            "ticks": 30330,
            "time": 148.67639625,
            "velocity": 1
          },
          {
            "duration": 0.0637254583333231,
            "durationTicks": 13,
            "midi": 44,
            "name": "G#2",
            "ticks": 30356,
            "time": 148.80384716666669,
            "velocity": 0.6535433070866141
          },
          {
            "duration": 0.07352937500002099,
            "durationTicks": 15,
            "midi": 44,
            "name": "G#2",
            "ticks": 30416,
            "time": 149.09796466666668,
            "velocity": 0.6535433070866141
          },
          {
            "duration": 0.05392154166668206,
            "durationTicks": 11,
            "midi": 60,
            "name": "C4",
            "ticks": 30420,
            "time": 149.11757250000002,
            "velocity": 1
          },
          {
            "duration": 0.14705874999998514,
            "durationTicks": 30,
            "midi": 63,
            "name": "D#4",
            "ticks": 30450,
            "time": 149.26463125000004,
            "velocity": 0.7874015748031497
          },
          {
            "duration": 0.07352937499999257,
            "durationTicks": 15,
            "midi": 63,
            "name": "D#4",
            "ticks": 30465,
            "time": 149.33816062500003,
            "velocity": 0.7874015748031497
          },
          {
            "duration": 0.14705875000001356,
            "durationTicks": 30,
            "midi": 63,
            "name": "D#4",
            "ticks": 30480,
            "time": 149.41169000000002,
            "velocity": 0.7874015748031497
          },
          {
            "duration": 0.0637254583333231,
            "durationTicks": 13,
            "midi": 62,
            "name": "D4",
            "ticks": 30510,
            "time": 149.55874875000003,
            "velocity": 1
          },
          {
            "duration": 0.14705875000001356,
            "durationTicks": 30,
            "midi": 63,
            "name": "D#4",
            "ticks": 30540,
            "time": 149.70580750000002,
            "velocity": 0.7874015748031497
          },
          {
            "duration": 0.029411750000008396,
            "durationTicks": 6,
            "midi": 62,
            "name": "D4",
            "ticks": 30570,
            "time": 149.85286625000003,
            "velocity": 0.905511811023622
          },
          {
            "duration": 0.01960783333333893,
            "durationTicks": 4,
            "midi": 62,
            "name": "D4",
            "ticks": 30600,
            "time": 149.99992500000002,
            "velocity": 1
          },
          {
            "duration": 0.07352937500002099,
            "durationTicks": 15,
            "midi": 63,
            "name": "D#4",
            "ticks": 30615,
            "time": 150.073454375,
            "velocity": 0.7874015748031497
          },
          {
            "duration": 0.07352937499999257,
            "durationTicks": 15,
            "midi": 63,
            "name": "D#4",
            "ticks": 30630,
            "time": 150.14698375000003,
            "velocity": 0.7874015748031497
          },
          {
            "duration": 0.029411750000008396,
            "durationTicks": 6,
            "midi": 62,
            "name": "D4",
            "ticks": 30660,
            "time": 150.29404250000002,
            "velocity": 1
          },
          {
            "duration": 0.11274504166669885,
            "durationTicks": 23,
            "midi": 45,
            "name": "A2",
            "ticks": 30714,
            "time": 150.55874825,
            "velocity": 0.6535433070866141
          },
          {
            "duration": 0.09803916666669465,
            "durationTicks": 20,
            "midi": 35,
            "name": "B1",
            "ticks": 30714,
            "time": 150.55874825,
            "velocity": 0.6535433070866141
          },
          {
            "duration": 0.2941174999999987,
            "durationTicks": 60,
            "midi": 36,
            "name": "C2",
            "ticks": 30715,
            "time": 150.56365020833337,
            "velocity": 0.6535433070866141
          },
          {
            "duration": 0.08823525000002519,
            "durationTicks": 18,
            "midi": 49,
            "name": "C#3",
            "ticks": 30716,
            "time": 150.56855216666668,
            "velocity": 0.6535433070866141
          },
          {
            "duration": 0.05392154166668206,
            "durationTicks": 11,
            "midi": 46,
            "name": "A#2",
            "ticks": 30718,
            "time": 150.57835608333335,
            "velocity": 0.6535433070866141
          },
          {
            "duration": 0.05392154166668206,
            "durationTicks": 11,
            "midi": 34,
            "name": "A#1",
            "ticks": 30718,
            "time": 150.57835608333335,
            "velocity": 0.5590551181102362
          },
          {
            "duration": 0.029411750000008396,
            "durationTicks": 6,
            "midi": 62,
            "name": "D4",
            "ticks": 30780,
            "time": 150.88227750000001,
            "velocity": 0.905511811023622
          },
          {
            "duration": 0.06862741666665784,
            "durationTicks": 14,
            "midi": 46,
            "name": "A#2",
            "ticks": 30808,
            "time": 151.01953233333336,
            "velocity": 0.6535433070866141
          },
          {
            "duration": 0.06862741666665784,
            "durationTicks": 14,
            "midi": 34,
            "name": "A#1",
            "ticks": 30808,
            "time": 151.01953233333336,
            "velocity": 0.5590551181102362
          },
          {
            "duration": 0.0637254583333231,
            "durationTicks": 13,
            "midi": 60,
            "name": "C4",
            "ticks": 30810,
            "time": 151.02933625000003,
            "velocity": 0.937007874015748
          },
          {
            "duration": 0.07352937499999257,
            "durationTicks": 15,
            "midi": 46,
            "name": "A#2",
            "ticks": 30898,
            "time": 151.46070858333334,
            "velocity": 0.6535433070866141
          },
          {
            "duration": 0.07352937499999257,
            "durationTicks": 15,
            "midi": 34,
            "name": "A#1",
            "ticks": 30898,
            "time": 151.46070858333334,
            "velocity": 0.5590551181102362
          },
          {
            "duration": 0.044117625000012595,
            "durationTicks": 9,
            "midi": 63,
            "name": "D#4",
            "ticks": 30900,
            "time": 151.4705125,
            "velocity": 1
          },
          {
            "duration": 0.0784313333333273,
            "durationTicks": 16,
            "midi": 44,
            "name": "G#2",
            "ticks": 30956,
            "time": 151.7450221666667,
            "velocity": 0.6535433070866141
          },
          {
            "duration": 0.06862741666665784,
            "durationTicks": 14,
            "midi": 46,
            "name": "A#2",
            "ticks": 30988,
            "time": 151.90188483333336,
            "velocity": 0.6535433070866141
          },
          {
            "duration": 0.06862741666665784,
            "durationTicks": 14,
            "midi": 34,
            "name": "A#1",
            "ticks": 30988,
            "time": 151.90188483333336,
            "velocity": 0.5590551181102362
          },
          {
            "duration": 0.05392154166665364,
            "durationTicks": 11,
            "midi": 60,
            "name": "C4",
            "ticks": 30990,
            "time": 151.91168875000002,
            "velocity": 0.905511811023622
          },
          {
            "duration": 0.07352937499999257,
            "durationTicks": 15,
            "midi": 61,
            "name": "C#4",
            "ticks": 31005,
            "time": 151.98521812500002,
            "velocity": 0.7874015748031497
          },
          {
            "duration": 0.0784313333333273,
            "durationTicks": 16,
            "midi": 44,
            "name": "G#2",
            "ticks": 31016,
            "time": 152.0391396666667,
            "velocity": 0.6535433070866141
          },
          {
            "duration": 0.07352937500002099,
            "durationTicks": 15,
            "midi": 61,
            "name": "C#4",
            "ticks": 31020,
            "time": 152.0587475,
            "velocity": 0.7874015748031497
          },
          {
            "duration": 0.05392154166665364,
            "durationTicks": 11,
            "midi": 46,
            "name": "A#2",
            "ticks": 31048,
            "time": 152.19600233333335,
            "velocity": 0.6535433070866141
          },
          {
            "duration": 0.05392154166665364,
            "durationTicks": 11,
            "midi": 34,
            "name": "A#1",
            "ticks": 31048,
            "time": 152.19600233333335,
            "velocity": 0.5590551181102362
          },
          {
            "duration": 0.05392154166668206,
            "durationTicks": 11,
            "midi": 60,
            "name": "C4",
            "ticks": 31050,
            "time": 152.20580625000002,
            "velocity": 0.8818897637795275
          },
          {
            "duration": 0.0784313333333273,
            "durationTicks": 16,
            "midi": 44,
            "name": "G#2",
            "ticks": 31076,
            "time": 152.3332571666667,
            "velocity": 0.6535433070866141
          },
          {
            "duration": 0.03921566666664944,
            "durationTicks": 8,
            "midi": 62,
            "name": "D4",
            "ticks": 31080,
            "time": 152.35286500000004,
            "velocity": 0.9763779527559056
          },
          {
            "duration": 0.07352937499999257,
            "durationTicks": 15,
            "midi": 46,
            "name": "A#2",
            "ticks": 31108,
            "time": 152.49011983333335,
            "velocity": 0.6535433070866141
          },
          {
            "duration": 0.07352937499999257,
            "durationTicks": 15,
            "midi": 34,
            "name": "A#1",
            "ticks": 31108,
            "time": 152.49011983333335,
            "velocity": 0.5590551181102362
          },
          {
            "duration": 0.0784313333333273,
            "durationTicks": 16,
            "midi": 44,
            "name": "G#2",
            "ticks": 31136,
            "time": 152.6273746666667,
            "velocity": 0.6535433070866141
          },
          {
            "duration": 0.24019595833337348,
            "durationTicks": 49,
            "midi": 46,
            "name": "A#2",
            "ticks": 31138,
            "time": 152.63717858333334,
            "velocity": 0.6535433070866141
          },
          {
            "duration": 0.24019595833337348,
            "durationTicks": 49,
            "midi": 34,
            "name": "A#1",
            "ticks": 31138,
            "time": 152.63717858333334,
            "velocity": 0.5590551181102362
          },
          {
            "duration": 0.049019583333318906,
            "durationTicks": 10,
            "midi": 62,
            "name": "D4",
            "ticks": 31140,
            "time": 152.64698250000004,
            "velocity": 0.9763779527559056
          },
          {
            "duration": 0.05392154166668206,
            "durationTicks": 11,
            "midi": 44,
            "name": "G#2",
            "ticks": 31166,
            "time": 152.77443341666668,
            "velocity": 0.6535433070866141
          },
          {
            "duration": 0.1225489583333399,
            "durationTicks": 25,
            "midi": 45,
            "name": "A2",
            "ticks": 31194,
            "time": 152.91168825000003,
            "velocity": 0.6535433070866141
          },
          {
            "duration": 0.06862741666665784,
            "durationTicks": 14,
            "midi": 35,
            "name": "B1",
            "ticks": 31194,
            "time": 152.91168825000003,
            "velocity": 0.6535433070866141
          },
          {
            "duration": 0.2941174999999987,
            "durationTicks": 60,
            "midi": 36,
            "name": "C2",
            "ticks": 31195,
            "time": 152.91659020833336,
            "velocity": 0.6535433070866141
          },
          {
            "duration": 0.08333329166666203,
            "durationTicks": 17,
            "midi": 49,
            "name": "C#3",
            "ticks": 31196,
            "time": 152.9214921666667,
            "velocity": 0.6535433070866141
          },
          {
            "duration": 0.06372545833335153,
            "durationTicks": 13,
            "midi": 46,
            "name": "A#2",
            "ticks": 31198,
            "time": 152.93129608333334,
            "velocity": 0.6535433070866141
          },
          {
            "duration": 0.06372545833335153,
            "durationTicks": 13,
            "midi": 34,
            "name": "A#1",
            "ticks": 31198,
            "time": 152.93129608333334,
            "velocity": 0.5590551181102362
          },
          {
            "duration": 0.09803916666663781,
            "durationTicks": 20,
            "midi": 60,
            "name": "C4",
            "ticks": 31200,
            "time": 152.94110000000003,
            "velocity": 0.905511811023622
          },
          {
            "duration": 0.0637254583333231,
            "durationTicks": 13,
            "midi": 44,
            "name": "G#2",
            "ticks": 31226,
            "time": 153.06855091666668,
            "velocity": 0.6535433070866141
          },
          {
            "duration": 0.07843133333335572,
            "durationTicks": 16,
            "midi": 46,
            "name": "A#2",
            "ticks": 31228,
            "time": 153.07835483333335,
            "velocity": 0.6535433070866141
          },
          {
            "duration": 0.07843133333335572,
            "durationTicks": 16,
            "midi": 34,
            "name": "A#1",
            "ticks": 31228,
            "time": 153.07835483333335,
            "velocity": 0.5590551181102362
          },
          {
            "duration": 0.07352937499999257,
            "durationTicks": 15,
            "midi": 44,
            "name": "G#2",
            "ticks": 31256,
            "time": 153.2156096666667,
            "velocity": 0.6535433070866141
          },
          {
            "duration": 0.04901958333334733,
            "durationTicks": 10,
            "midi": 39,
            "name": "D#2",
            "ticks": 31256,
            "time": 153.2156096666667,
            "velocity": 1
          },
          {
            "duration": 0.03431370833331471,
            "durationTicks": 7,
            "midi": 62,
            "name": "D4",
            "ticks": 31260,
            "time": 153.23521750000003,
            "velocity": 0.9763779527559056
          },
          {
            "duration": 0.11764700000000516,
            "durationTicks": 24,
            "midi": 40,
            "name": "E2",
            "ticks": 31286,
            "time": 153.36266841666668,
            "velocity": 0.6535433070866141
          },
          {
            "duration": 0.06372545833335153,
            "durationTicks": 13,
            "midi": 44,
            "name": "G#2",
            "ticks": 31286,
            "time": 153.36266841666668,
            "velocity": 0.6535433070866141
          },
          {
            "duration": 0.0784313333333273,
            "durationTicks": 16,
            "midi": 39,
            "name": "D#2",
            "ticks": 31286,
            "time": 153.36266841666668,
            "velocity": 0.5748031496062992
          },
          {
            "duration": 0.06862741666665784,
            "durationTicks": 14,
            "midi": 46,
            "name": "A#2",
            "ticks": 31288,
            "time": 153.37247233333335,
            "velocity": 0.6535433070866141
          },
          {
            "duration": 0.06862741666665784,
            "durationTicks": 14,
            "midi": 34,
            "name": "A#1",
            "ticks": 31288,
            "time": 153.37247233333335,
            "velocity": 0.5590551181102362
          },
          {
            "duration": 0.03921566666667786,
            "durationTicks": 8,
            "midi": 61,
            "name": "C#4",
            "ticks": 31290,
            "time": 153.38227625000002,
            "velocity": 0.9763779527559056
          },
          {
            "duration": 0.2941174999999987,
            "durationTicks": 60,
            "midi": 36,
            "name": "C2",
            "ticks": 31315,
            "time": 153.50482520833336,
            "velocity": 0.6535433070866141
          },
          {
            "duration": 0.06862741666665784,
            "durationTicks": 14,
            "midi": 44,
            "name": "G#2",
            "ticks": 31316,
            "time": 153.5097271666667,
            "velocity": 0.6535433070866141
          },
          {
            "duration": 0.03431370833331471,
            "durationTicks": 7,
            "midi": 46,
            "name": "A#2",
            "ticks": 31318,
            "time": 153.51953108333336,
            "velocity": 0.6535433070866141
          },
          {
            "duration": 0.029411749999979975,
            "durationTicks": 6,
            "midi": 34,
            "name": "A#1",
            "ticks": 31318,
            "time": 153.51953108333336,
            "velocity": 0.5590551181102362
          },
          {
            "duration": 0.05392154166668206,
            "durationTicks": 11,
            "midi": 44,
            "name": "G#2",
            "ticks": 31346,
            "time": 153.65678591666668,
            "velocity": 0.6535433070866141
          },
          {
            "duration": 0.06372545833335153,
            "durationTicks": 13,
            "midi": 39,
            "name": "D#2",
            "ticks": 31346,
            "time": 153.65678591666668,
            "velocity": 0.5275590551181102
          },
          {
            "duration": 0.05392154166668206,
            "durationTicks": 11,
            "midi": 62,
            "name": "D4",
            "ticks": 31350,
            "time": 153.67639375000002,
            "velocity": 1
          },
          {
            "duration": 0.12745091666667463,
            "durationTicks": 26,
            "midi": 40,
            "name": "E2",
            "ticks": 31376,
            "time": 153.8038446666667,
            "velocity": 0.6535433070866141
          },
          {
            "duration": 0.0784313333333273,
            "durationTicks": 16,
            "midi": 44,
            "name": "G#2",
            "ticks": 31376,
            "time": 153.8038446666667,
            "velocity": 0.6535433070866141
          },
          {
            "duration": 0.0637254583333231,
            "durationTicks": 13,
            "midi": 39,
            "name": "D#2",
            "ticks": 31376,
            "time": 153.8038446666667,
            "velocity": 0.937007874015748
          },
          {
            "duration": 0.0637254583333231,
            "durationTicks": 13,
            "midi": 46,
            "name": "A#2",
            "ticks": 31378,
            "time": 153.81364858333336,
            "velocity": 0.6535433070866141
          },
          {
            "duration": 0.0637254583333231,
            "durationTicks": 13,
            "midi": 34,
            "name": "A#1",
            "ticks": 31378,
            "time": 153.81364858333336,
            "velocity": 0.5590551181102362
          },
          {
            "duration": 0.049019583333318906,
            "durationTicks": 10,
            "midi": 64,
            "name": "E4",
            "ticks": 31380,
            "time": 153.82345250000003,
            "velocity": 1
          },
          {
            "duration": 0.0637254583333231,
            "durationTicks": 13,
            "midi": 44,
            "name": "G#2",
            "ticks": 31406,
            "time": 153.9509034166667,
            "velocity": 0.6535433070866141
          },
          {
            "duration": 0.09803916666666623,
            "durationTicks": 20,
            "midi": 35,
            "name": "B1",
            "ticks": 31434,
            "time": 154.08815825000002,
            "velocity": 0.6535433070866141
          },
          {
            "duration": 0.11764700000000516,
            "durationTicks": 24,
            "midi": 45,
            "name": "A2",
            "ticks": 31434,
            "time": 154.08815825000002,
            "velocity": 0.6535433070866141
          },
          {
            "duration": 0.2941174999999987,
            "durationTicks": 60,
            "midi": 36,
            "name": "C2",
            "ticks": 31435,
            "time": 154.09306020833336,
            "velocity": 0.6535433070866141
          },
          {
            "duration": 0.0637254583333231,
            "durationTicks": 13,
            "midi": 44,
            "name": "G#2",
            "ticks": 31436,
            "time": 154.0979621666667,
            "velocity": 0.6535433070866141
          },
          {
            "duration": 0.029411750000008396,
            "durationTicks": 6,
            "midi": 46,
            "name": "A#2",
            "ticks": 31438,
            "time": 154.10776608333336,
            "velocity": 0.6535433070866141
          },
          {
            "duration": 0.029411750000008396,
            "durationTicks": 6,
            "midi": 34,
            "name": "A#1",
            "ticks": 31438,
            "time": 154.10776608333336,
            "velocity": 0.5590551181102362
          },
          {
            "duration": 0.0637254583333231,
            "durationTicks": 13,
            "midi": 44,
            "name": "G#2",
            "ticks": 31466,
            "time": 154.2450209166667,
            "velocity": 0.6535433070866141
          },
          {
            "duration": 0.06862741666668626,
            "durationTicks": 14,
            "midi": 46,
            "name": "A#2",
            "ticks": 31468,
            "time": 154.25482483333334,
            "velocity": 0.6535433070866141
          },
          {
            "duration": 0.06862741666668626,
            "durationTicks": 14,
            "midi": 34,
            "name": "A#1",
            "ticks": 31468,
            "time": 154.25482483333334,
            "velocity": 0.5590551181102362
          },
          {
            "duration": 0.03921566666667786,
            "durationTicks": 8,
            "midi": 60,
            "name": "C4",
            "ticks": 31470,
            "time": 154.26462875,
            "velocity": 0.7637795275590551
          },
          {
            "duration": 0.0637254583333231,
            "durationTicks": 13,
            "midi": 44,
            "name": "G#2",
            "ticks": 31496,
            "time": 154.3920796666667,
            "velocity": 0.6535433070866141
          },
          {
            "duration": 0.0637254583333231,
            "durationTicks": 13,
            "midi": 39,
            "name": "D#2",
            "ticks": 31496,
            "time": 154.3920796666667,
            "velocity": 0.9763779527559056
          },
          {
            "duration": 0.1225489583333399,
            "durationTicks": 25,
            "midi": 40,
            "name": "E2",
            "ticks": 31526,
            "time": 154.5391384166667,
            "velocity": 0.6535433070866141
          },
          {
            "duration": 0.0637254583333231,
            "durationTicks": 13,
            "midi": 44,
            "name": "G#2",
            "ticks": 31526,
            "time": 154.5391384166667,
            "velocity": 0.6535433070866141
          },
          {
            "duration": 0.09803916666663781,
            "durationTicks": 20,
            "midi": 39,
            "name": "D#2",
            "ticks": 31526,
            "time": 154.5391384166667,
            "velocity": 0.48031496062992124
          },
          {
            "duration": 0.06372545833335153,
            "durationTicks": 13,
            "midi": 46,
            "name": "A#2",
            "ticks": 31528,
            "time": 154.54894233333334,
            "velocity": 0.6535433070866141
          },
          {
            "duration": 0.06372545833335153,
            "durationTicks": 13,
            "midi": 34,
            "name": "A#1",
            "ticks": 31528,
            "time": 154.54894233333334,
            "velocity": 0.5590551181102362
          },
          {
            "duration": 0.05392154166668206,
            "durationTicks": 11,
            "midi": 61,
            "name": "C#4",
            "ticks": 31530,
            "time": 154.55874625,
            "velocity": 1
          },
          {
            "duration": 0.2941174999999987,
            "durationTicks": 60,
            "midi": 36,
            "name": "C2",
            "ticks": 31555,
            "time": 154.68129520833335,
            "velocity": 0.6535433070866141
          },
          {
            "duration": 0.0637254583333231,
            "durationTicks": 13,
            "midi": 44,
            "name": "G#2",
            "ticks": 31556,
            "time": 154.6861971666667,
            "velocity": 0.6535433070866141
          },
          {
            "duration": 0.049019583333318906,
            "durationTicks": 10,
            "midi": 46,
            "name": "A#2",
            "ticks": 31558,
            "time": 154.69600108333336,
            "velocity": 0.6535433070866141
          },
          {
            "duration": 0.049019583333318906,
            "durationTicks": 10,
            "midi": 34,
            "name": "A#1",
            "ticks": 31558,
            "time": 154.69600108333336,
            "velocity": 0.5590551181102362
          },
          {
            "duration": 0.04411762499998417,
            "durationTicks": 9,
            "midi": 62,
            "name": "D4",
            "ticks": 31560,
            "time": 154.70580500000003,
            "velocity": 1
          },
          {
            "duration": 0.0637254583333231,
            "durationTicks": 13,
            "midi": 44,
            "name": "G#2",
            "ticks": 31586,
            "time": 154.8332559166667,
            "velocity": 0.6535433070866141
          },
          {
            "duration": 0.044117625000012595,
            "durationTicks": 9,
            "midi": 46,
            "name": "A#2",
            "ticks": 31588,
            "time": 154.84305983333334,
            "velocity": 0.6535433070866141
          },
          {
            "duration": 0.04901958333334733,
            "durationTicks": 10,
            "midi": 34,
            "name": "A#1",
            "ticks": 31588,
            "time": 154.84305983333334,
            "velocity": 0.5590551181102362
          },
          {
            "duration": 0.05392154166668206,
            "durationTicks": 11,
            "midi": 60,
            "name": "C4",
            "ticks": 31590,
            "time": 154.85286375,
            "velocity": 1
          },
          {
            "duration": 0.1372548333333441,
            "durationTicks": 28,
            "midi": 40,
            "name": "E2",
            "ticks": 31616,
            "time": 154.9803146666667,
            "velocity": 0.6535433070866141
          },
          {
            "duration": 0.07352937499999257,
            "durationTicks": 15,
            "midi": 44,
            "name": "G#2",
            "ticks": 31616,
            "time": 154.9803146666667,
            "velocity": 0.6535433070866141
          },
          {
            "duration": 0.0637254583333231,
            "durationTicks": 13,
            "midi": 39,
            "name": "D#2",
            "ticks": 31616,
            "time": 154.9803146666667,
            "velocity": 0.937007874015748
          },
          {
            "duration": 0.03431370833334313,
            "durationTicks": 7,
            "midi": 46,
            "name": "A#2",
            "ticks": 31618,
            "time": 154.99011858333336,
            "velocity": 0.6535433070866141
          },
          {
            "duration": 0.03921566666667786,
            "durationTicks": 8,
            "midi": 34,
            "name": "A#1",
            "ticks": 31618,
            "time": 154.99011858333336,
            "velocity": 0.5590551181102362
          },
          {
            "duration": 0.024509791666673664,
            "durationTicks": 5,
            "midi": 63,
            "name": "D#4",
            "ticks": 31620,
            "time": 154.99992250000003,
            "velocity": 1
          },
          {
            "duration": 0.06862741666665784,
            "durationTicks": 14,
            "midi": 44,
            "name": "G#2",
            "ticks": 31646,
            "time": 155.1273734166667,
            "velocity": 0.6535433070866141
          },
          {
            "duration": 0.12745091666667463,
            "durationTicks": 26,
            "midi": 45,
            "name": "A2",
            "ticks": 31674,
            "time": 155.26462825000002,
            "velocity": 0.6535433070866141
          },
          {
            "duration": 0.09803916666666623,
            "durationTicks": 20,
            "midi": 35,
            "name": "B1",
            "ticks": 31674,
            "time": 155.26462825000002,
            "velocity": 0.6535433070866141
          },
          {
            "duration": 0.2941174999999987,
            "durationTicks": 60,
            "midi": 36,
            "name": "C2",
            "ticks": 31675,
            "time": 155.26953020833335,
            "velocity": 0.6535433070866141
          },
          {
            "duration": 0.06862741666665784,
            "durationTicks": 14,
            "midi": 44,
            "name": "G#2",
            "ticks": 31676,
            "time": 155.27443216666668,
            "velocity": 0.6535433070866141
          },
          {
            "duration": 0.06862741666668626,
            "durationTicks": 14,
            "midi": 44,
            "name": "G#2",
            "ticks": 31706,
            "time": 155.42149091666667,
            "velocity": 0.6535433070866141
          },
          {
            "duration": 0.07352937499999257,
            "durationTicks": 15,
            "midi": 46,
            "name": "A#2",
            "ticks": 31708,
            "time": 155.43129483333337,
            "velocity": 0.6535433070866141
          },
          {
            "duration": 0.07352937499999257,
            "durationTicks": 15,
            "midi": 34,
            "name": "A#1",
            "ticks": 31708,
            "time": 155.43129483333337,
            "velocity": 0.5590551181102362
          },
          {
            "duration": 0.05882349999998837,
            "durationTicks": 12,
            "midi": 60,
            "name": "C4",
            "ticks": 31710,
            "time": 155.44109875000004,
            "velocity": 1
          },
          {
            "duration": 0.0637254583333231,
            "durationTicks": 13,
            "midi": 44,
            "name": "G#2",
            "ticks": 31736,
            "time": 155.56854966666668,
            "velocity": 0.6535433070866141
          },
          {
            "duration": 0.03921566666667786,
            "durationTicks": 8,
            "midi": 39,
            "name": "D#2",
            "ticks": 31736,
            "time": 155.56854966666668,
            "velocity": 0.7795275590551181
          },
          {
            "duration": 0.12254895833336832,
            "durationTicks": 25,
            "midi": 40,
            "name": "E2",
            "ticks": 31766,
            "time": 155.71560841666667,
            "velocity": 0.6535433070866141
          },
          {
            "duration": 0.06862741666668626,
            "durationTicks": 14,
            "midi": 44,
            "name": "G#2",
            "ticks": 31766,
            "time": 155.71560841666667,
            "velocity": 0.6535433070866141
          },
          {
            "duration": 0.07843133333335572,
            "durationTicks": 16,
            "midi": 39,
            "name": "D#2",
            "ticks": 31766,
            "time": 155.71560841666667,
            "velocity": 0.5275590551181102
          },
          {
            "duration": 0.06862741666665784,
            "durationTicks": 14,
            "midi": 46,
            "name": "A#2",
            "ticks": 31768,
            "time": 155.72541233333337,
            "velocity": 0.6535433070866141
          },
          {
            "duration": 0.06862741666665784,
            "durationTicks": 14,
            "midi": 34,
            "name": "A#1",
            "ticks": 31768,
            "time": 155.72541233333337,
            "velocity": 0.5590551181102362
          },
          {
            "duration": 0.06862741666665784,
            "durationTicks": 14,
            "midi": 60,
            "name": "C4",
            "ticks": 31770,
            "time": 155.73521625000004,
            "velocity": 1
          },
          {
            "duration": 0.2941174999999987,
            "durationTicks": 60,
            "midi": 36,
            "name": "C2",
            "ticks": 31795,
            "time": 155.85776520833335,
            "velocity": 0.6535433070866141
          },
          {
            "duration": 0.07352937499999257,
            "durationTicks": 15,
            "midi": 44,
            "name": "G#2",
            "ticks": 31796,
            "time": 155.86266716666668,
            "velocity": 0.6535433070866141
          },
          {
            "duration": 0.02450979166661682,
            "durationTicks": 5,
            "midi": 46,
            "name": "A#2",
            "ticks": 31798,
            "time": 155.87247108333338,
            "velocity": 0.6535433070866141
          },
          {
            "duration": 0.02450979166661682,
            "durationTicks": 5,
            "midi": 34,
            "name": "A#1",
            "ticks": 31798,
            "time": 155.87247108333338,
            "velocity": 0.5590551181102362
          },
          {
            "duration": 0.01960783333333893,
            "durationTicks": 4,
            "midi": 62,
            "name": "D4",
            "ticks": 31800,
            "time": 155.88227500000002,
            "velocity": 0.5196850393700787
          },
          {
            "duration": 0.07352937500002099,
            "durationTicks": 15,
            "midi": 44,
            "name": "G#2",
            "ticks": 31826,
            "time": 156.00972591666667,
            "velocity": 0.6535433070866141
          },
          {
            "duration": 0.05392154166668206,
            "durationTicks": 11,
            "midi": 39,
            "name": "D#2",
            "ticks": 31826,
            "time": 156.00972591666667,
            "velocity": 0.3937007874015748
          },
          {
            "duration": 0.0637254583333231,
            "durationTicks": 13,
            "midi": 46,
            "name": "A#2",
            "ticks": 31828,
            "time": 156.01952983333337,
            "velocity": 0.6535433070866141
          },
          {
            "duration": 0.0637254583333231,
            "durationTicks": 13,
            "midi": 34,
            "name": "A#1",
            "ticks": 31828,
            "time": 156.01952983333337,
            "velocity": 0.5590551181102362
          },
          {
            "duration": 0.11764700000003359,
            "durationTicks": 24,
            "midi": 40,
            "name": "E2",
            "ticks": 31856,
            "time": 156.15678466666668,
            "velocity": 0.6535433070866141
          },
          {
            "duration": 0.07352937499999257,
            "durationTicks": 15,
            "midi": 44,
            "name": "G#2",
            "ticks": 31856,
            "time": 156.15678466666668,
            "velocity": 0.6535433070866141
          },
          {
            "duration": 0.04901958333334733,
            "durationTicks": 10,
            "midi": 39,
            "name": "D#2",
            "ticks": 31856,
            "time": 156.15678466666668,
            "velocity": 0.905511811023622
          },
          {
            "duration": 0.186274416666663,
            "durationTicks": 38,
            "midi": 46,
            "name": "A#2",
            "ticks": 31858,
            "time": 156.16658858333338,
            "velocity": 0.6535433070866141
          },
          {
            "duration": 0.186274416666663,
            "durationTicks": 38,
            "midi": 34,
            "name": "A#1",
            "ticks": 31858,
            "time": 156.16658858333338,
            "velocity": 0.5590551181102362
          },
          {
            "duration": 0.01960783333333893,
            "durationTicks": 4,
            "midi": 63,
            "name": "D#4",
            "ticks": 31860,
            "time": 156.17639250000002,
            "velocity": 1
          },
          {
            "duration": 0.06862741666668626,
            "durationTicks": 14,
            "midi": 44,
            "name": "G#2",
            "ticks": 31886,
            "time": 156.30384341666667,
            "velocity": 0.6535433070866141
          },
          {
            "duration": 0.05392154166665364,
            "durationTicks": 11,
            "midi": 61,
            "name": "C#4",
            "ticks": 31890,
            "time": 156.32345125000003,
            "velocity": 1
          },
          {
            "duration": 0.09803916666669465,
            "durationTicks": 20,
            "midi": 35,
            "name": "B1",
            "ticks": 31914,
            "time": 156.44109825,
            "velocity": 0.6535433070866141
          },
          {
            "duration": 0.1078430833333357,
            "durationTicks": 22,
            "midi": 45,
            "name": "A2",
            "ticks": 31914,
            "time": 156.44109825,
            "velocity": 0.6535433070866141
          },
          {
            "duration": 0.2941174999999987,
            "durationTicks": 60,
            "midi": 36,
            "name": "C2",
            "ticks": 31915,
            "time": 156.44600020833334,
            "velocity": 0.6535433070866141
          },
          {
            "duration": 0.08333329166669046,
            "durationTicks": 17,
            "midi": 44,
            "name": "G#2",
            "ticks": 31916,
            "time": 156.45090216666668,
            "velocity": 0.6535433070866141
          },
          {
            "duration": 0.049019583333318906,
            "durationTicks": 10,
            "midi": 46,
            "name": "A#2",
            "ticks": 31918,
            "time": 156.46070608333338,
            "velocity": 0.6535433070866141
          },
          {
            "duration": 0.049019583333318906,
            "durationTicks": 10,
            "midi": 34,
            "name": "A#1",
            "ticks": 31918,
            "time": 156.46070608333338,
            "velocity": 0.5590551181102362
          },
          {
            "duration": 0.06372545833335153,
            "durationTicks": 13,
            "midi": 44,
            "name": "G#2",
            "ticks": 31946,
            "time": 156.59796091666666,
            "velocity": 0.6535433070866141
          },
          {
            "duration": 0.0784313333333273,
            "durationTicks": 16,
            "midi": 46,
            "name": "A#2",
            "ticks": 31948,
            "time": 156.60776483333336,
            "velocity": 0.6535433070866141
          },
          {
            "duration": 0.0784313333333273,
            "durationTicks": 16,
            "midi": 34,
            "name": "A#1",
            "ticks": 31948,
            "time": 156.60776483333336,
            "velocity": 0.5590551181102362
          },
          {
            "duration": 0.029411750000008396,
            "durationTicks": 6,
            "midi": 62,
            "name": "D4",
            "ticks": 31950,
            "time": 156.61756875000003,
            "velocity": 0.8031496062992126
          },
          {
            "duration": 0.07352937499999257,
            "durationTicks": 15,
            "midi": 44,
            "name": "G#2",
            "ticks": 31976,
            "time": 156.74501966666668,
            "velocity": 0.6535433070866141
          },
          {
            "duration": 0.044117625000012595,
            "durationTicks": 9,
            "midi": 39,
            "name": "D#2",
            "ticks": 31976,
            "time": 156.74501966666668,
            "velocity": 0.7795275590551181
          },
          {
            "duration": 0.03921566666664944,
            "durationTicks": 8,
            "midi": 46,
            "name": "A#2",
            "ticks": 31978,
            "time": 156.75482358333338,
            "velocity": 0.6535433070866141
          },
          {
            "duration": 0.03921566666664944,
            "durationTicks": 8,
            "midi": 34,
            "name": "A#1",
            "ticks": 31978,
            "time": 156.75482358333338,
            "velocity": 0.5590551181102362
          },
          {
            "duration": 0.12254895833336832,
            "durationTicks": 25,
            "midi": 40,
            "name": "E2",
            "ticks": 32006,
            "time": 156.89207841666666,
            "velocity": 0.6535433070866141
          },
          {
            "duration": 0.06372545833335153,
            "durationTicks": 13,
            "midi": 44,
            "name": "G#2",
            "ticks": 32006,
            "time": 156.89207841666666,
            "velocity": 0.6535433070866141
          },
          {
            "duration": 0.08823525000002519,
            "durationTicks": 18,
            "midi": 39,
            "name": "D#2",
            "ticks": 32006,
            "time": 156.89207841666666,
            "velocity": 0.6929133858267716
          },
          {
            "duration": 0.0637254583333231,
            "durationTicks": 13,
            "midi": 46,
            "name": "A#2",
            "ticks": 32008,
            "time": 156.90188233333336,
            "velocity": 0.6535433070866141
          },
          {
            "duration": 0.0637254583333231,
            "durationTicks": 13,
            "midi": 34,
            "name": "A#1",
            "ticks": 32008,
            "time": 156.90188233333336,
            "velocity": 0.5590551181102362
          },
          {
            "duration": 0.024509791666673664,
            "durationTicks": 5,
            "midi": 60,
            "name": "C4",
            "ticks": 32010,
            "time": 156.91168625000003,
            "velocity": 0.8818897637795275
          },
          {
            "duration": 0.2941174999999987,
            "durationTicks": 60,
            "midi": 36,
            "name": "C2",
            "ticks": 32035,
            "time": 157.03423520833334,
            "velocity": 0.6535433070866141
          },
          {
            "duration": 0.08823525000002519,
            "durationTicks": 18,
            "midi": 49,
            "name": "C#3",
            "ticks": 32036,
            "time": 157.03913716666668,
            "velocity": 0.6535433070866141
          },
          {
            "duration": 0.049019583333318906,
            "durationTicks": 10,
            "midi": 46,
            "name": "A#2",
            "ticks": 32038,
            "time": 157.04894108333337,
            "velocity": 0.6535433070866141
          },
          {
            "duration": 0.049019583333318906,
            "durationTicks": 10,
            "midi": 34,
            "name": "A#1",
            "ticks": 32038,
            "time": 157.04894108333337,
            "velocity": 0.5590551181102362
          },
          {
            "duration": 0.03431370833334313,
            "durationTicks": 7,
            "midi": 62,
            "name": "D4",
            "ticks": 32040,
            "time": 157.05874500000002,
            "velocity": 1
          },
          {
            "duration": 0.06862741666668626,
            "durationTicks": 14,
            "midi": 44,
            "name": "G#2",
            "ticks": 32066,
            "time": 157.18619591666666,
            "velocity": 0.6535433070866141
          },
          {
            "duration": 0.07843133333338415,
            "durationTicks": 16,
            "midi": 39,
            "name": "D#2",
            "ticks": 32066,
            "time": 157.18619591666666,
            "velocity": 0.4645669291338583
          },
          {
            "duration": 0.03921566666667786,
            "durationTicks": 8,
            "midi": 46,
            "name": "A#2",
            "ticks": 32068,
            "time": 157.19599983333336,
            "velocity": 0.6535433070866141
          },
          {
            "duration": 0.03921566666667786,
            "durationTicks": 8,
            "midi": 34,
            "name": "A#1",
            "ticks": 32068,
            "time": 157.19599983333336,
            "velocity": 0.5590551181102362
          },
          {
            "duration": 0.029411750000008396,
            "durationTicks": 6,
            "midi": 61,
            "name": "C#4",
            "ticks": 32070,
            "time": 157.20580375000003,
            "velocity": 0.937007874015748
          },
          {
            "duration": 0.1372548333333441,
            "durationTicks": 28,
            "midi": 40,
            "name": "E2",
            "ticks": 32096,
            "time": 157.33325466666668,
            "velocity": 0.6535433070866141
          },
          {
            "duration": 0.08823525000002519,
            "durationTicks": 18,
            "midi": 44,
            "name": "G#2",
            "ticks": 32096,
            "time": 157.33325466666668,
            "velocity": 0.6535433070866141
          },
          {
            "duration": 0.044117625000012595,
            "durationTicks": 9,
            "midi": 39,
            "name": "D#2",
            "ticks": 32096,
            "time": 157.33325466666668,
            "velocity": 0.8503937007874016
          },
          {
            "duration": 0.11274504166667043,
            "durationTicks": 23,
            "midi": 46,
            "name": "A#2",
            "ticks": 32098,
            "time": 157.34305858333337,
            "velocity": 0.6535433070866141
          },
          {
            "duration": 0.11274504166667043,
            "durationTicks": 23,
            "midi": 34,
            "name": "A#1",
            "ticks": 32098,
            "time": 157.34305858333337,
            "velocity": 0.5590551181102362
          },
          {
            "duration": 0.029411750000008396,
            "durationTicks": 6,
            "midi": 63,
            "name": "D#4",
            "ticks": 32100,
            "time": 157.35286250000001,
            "velocity": 1
          },
          {
            "duration": 0.07843133333338415,
            "durationTicks": 16,
            "midi": 44,
            "name": "G#2",
            "ticks": 32126,
            "time": 157.48031341666666,
            "velocity": 0.6535433070866141
          },
          {
            "duration": 0.08823525000002519,
            "durationTicks": 18,
            "midi": 39,
            "name": "D#2",
            "ticks": 32126,
            "time": 157.48031341666666,
            "velocity": 0.5826771653543307
          },
          {
            "duration": 0.09803916666663781,
            "durationTicks": 20,
            "midi": 46,
            "name": "A#2",
            "ticks": 32128,
            "time": 157.49011733333336,
            "velocity": 0.6535433070866141
          },
          {
            "duration": 0.09803916666663781,
            "durationTicks": 20,
            "midi": 34,
            "name": "A#1",
            "ticks": 32128,
            "time": 157.49011733333336,
            "velocity": 0.5590551181102362
          },
          {
            "duration": 0.11764700000000516,
            "durationTicks": 24,
            "midi": 35,
            "name": "B1",
            "ticks": 32154,
            "time": 157.61756825,
            "velocity": 0.6535433070866141
          },
          {
            "duration": 0.11274504166667043,
            "durationTicks": 23,
            "midi": 45,
            "name": "A2",
            "ticks": 32154,
            "time": 157.61756825,
            "velocity": 0.6535433070866141
          },
          {
            "duration": 0.2941174999999987,
            "durationTicks": 60,
            "midi": 36,
            "name": "C2",
            "ticks": 32155,
            "time": 157.62247020833334,
            "velocity": 0.6535433070866141
          },
          {
            "duration": 0.08823525000002519,
            "durationTicks": 18,
            "midi": 49,
            "name": "C#3",
            "ticks": 32156,
            "time": 157.62737216666667,
            "velocity": 0.6535433070866141
          },
          {
            "duration": 0.0637254583333231,
            "durationTicks": 13,
            "midi": 44,
            "name": "G#2",
            "ticks": 32186,
            "time": 157.7744309166667,
            "velocity": 0.6535433070866141
          },
          {
            "duration": 0.06862741666668626,
            "durationTicks": 14,
            "midi": 46,
            "name": "A#2",
            "ticks": 32188,
            "time": 157.78423483333336,
            "velocity": 0.6535433070866141
          },
          {
            "duration": 0.06862741666668626,
            "durationTicks": 14,
            "midi": 34,
            "name": "A#1",
            "ticks": 32188,
            "time": 157.78423483333336,
            "velocity": 0.5590551181102362
          },
          {
            "duration": 0.06372545833335153,
            "durationTicks": 13,
            "midi": 60,
            "name": "C4",
            "ticks": 32190,
            "time": 157.79403875000003,
            "velocity": 1
          },
          {
            "duration": 0.07352937499999257,
            "durationTicks": 15,
            "midi": 44,
            "name": "G#2",
            "ticks": 32216,
            "time": 157.92148966666667,
            "velocity": 0.6535433070866141
          },
          {
            "duration": 0.05392154166668206,
            "durationTicks": 11,
            "midi": 39,
            "name": "D#2",
            "ticks": 32216,
            "time": 157.92148966666667,
            "velocity": 0.937007874015748
          },
          {
            "duration": 0.05392154166665364,
            "durationTicks": 11,
            "midi": 46,
            "name": "A#2",
            "ticks": 32218,
            "time": 157.93129358333337,
            "velocity": 0.6535433070866141
          },
          {
            "duration": 0.05392154166665364,
            "durationTicks": 11,
            "midi": 34,
            "name": "A#1",
            "ticks": 32218,
            "time": 157.93129358333337,
            "velocity": 0.5590551181102362
          },
          {
            "duration": 0.11274504166669885,
            "durationTicks": 23,
            "midi": 40,
            "name": "E2",
            "ticks": 32246,
            "time": 158.0685484166667,
            "velocity": 0.6535433070866141
          },
          {
            "duration": 0.0931372083333315,
            "durationTicks": 19,
            "midi": 44,
            "name": "G#2",
            "ticks": 32246,
            "time": 158.0685484166667,
            "velocity": 0.6535433070866141
          },
          {
            "duration": 0.0637254583333231,
            "durationTicks": 13,
            "midi": 39,
            "name": "D#2",
            "ticks": 32246,
            "time": 158.0685484166667,
            "velocity": 0.5354330708661418
          },
          {
            "duration": 0.0637254583333231,
            "durationTicks": 13,
            "midi": 46,
            "name": "A#2",
            "ticks": 32248,
            "time": 158.07835233333336,
            "velocity": 0.6535433070866141
          },
          {
            "duration": 0.0637254583333231,
            "durationTicks": 13,
            "midi": 34,
            "name": "A#1",
            "ticks": 32248,
            "time": 158.07835233333336,
            "velocity": 0.5590551181102362
          },
          {
            "duration": 0.03921566666664944,
            "durationTicks": 8,
            "midi": 62,
            "name": "D4",
            "ticks": 32250,
            "time": 158.08815625000003,
            "velocity": 0.6614173228346457
          },
          {
            "duration": 0.2941174999999987,
            "durationTicks": 60,
            "midi": 36,
            "name": "C2",
            "ticks": 32275,
            "time": 158.21070520833334,
            "velocity": 0.6535433070866141
          },
          {
            "duration": 0.06862741666668626,
            "durationTicks": 14,
            "midi": 44,
            "name": "G#2",
            "ticks": 32276,
            "time": 158.21560716666667,
            "velocity": 0.6535433070866141
          },
          {
            "duration": 0.05392154166665364,
            "durationTicks": 11,
            "midi": 46,
            "name": "A#2",
            "ticks": 32278,
            "time": 158.22541108333337,
            "velocity": 0.6535433070866141
          },
          {
            "duration": 0.05392154166665364,
            "durationTicks": 11,
            "midi": 34,
            "name": "A#1",
            "ticks": 32278,
            "time": 158.22541108333337,
            "velocity": 0.5590551181102362
          },
          {
            "duration": 0.019607833333367353,
            "durationTicks": 4,
            "midi": 63,
            "name": "D#4",
            "ticks": 32280,
            "time": 158.235215,
            "velocity": 1
          },
          {
            "duration": 0.05392154166668206,
            "durationTicks": 11,
            "midi": 44,
            "name": "G#2",
            "ticks": 32306,
            "time": 158.36266591666669,
            "velocity": 0.6535433070866141
          },
          {
            "duration": 0.07352937499999257,
            "durationTicks": 15,
            "midi": 39,
            "name": "D#2",
            "ticks": 32306,
            "time": 158.36266591666669,
            "velocity": 0.6535433070866141
          },
          {
            "duration": 0.029411750000008396,
            "durationTicks": 6,
            "midi": 62,
            "name": "D4",
            "ticks": 32310,
            "time": 158.38227375000002,
            "velocity": 1
          },
          {
            "duration": 0.14705875000001356,
            "durationTicks": 30,
            "midi": 40,
            "name": "E2",
            "ticks": 32336,
            "time": 158.50972466666667,
            "velocity": 0.6535433070866141
          },
          {
            "duration": 0.06372545833335153,
            "durationTicks": 13,
            "midi": 44,
            "name": "G#2",
            "ticks": 32336,
            "time": 158.50972466666667,
            "velocity": 0.6535433070866141
          },
          {
            "duration": 0.06372545833335153,
            "durationTicks": 13,
            "midi": 39,
            "name": "D#2",
            "ticks": 32336,
            "time": 158.50972466666667,
            "velocity": 0.8503937007874016
          },
          {
            "duration": 0.12254895833331148,
            "durationTicks": 25,
            "midi": 46,
            "name": "A#2",
            "ticks": 32338,
            "time": 158.51952858333337,
            "velocity": 0.6535433070866141
          },
          {
            "duration": 0.12254895833331148,
            "durationTicks": 25,
            "midi": 34,
            "name": "A#1",
            "ticks": 32338,
            "time": 158.51952858333337,
            "velocity": 0.5590551181102362
          },
          {
            "duration": 0.049019583333318906,
            "durationTicks": 10,
            "midi": 64,
            "name": "E4",
            "ticks": 32340,
            "time": 158.52933250000004,
            "velocity": 1
          },
          {
            "duration": 0.05882350000001679,
            "durationTicks": 12,
            "midi": 44,
            "name": "G#2",
            "ticks": 32366,
            "time": 158.65678341666668,
            "velocity": 0.6535433070866141
          },
          {
            "duration": 0.14705874999998514,
            "durationTicks": 30,
            "midi": 45,
            "name": "A2",
            "ticks": 32394,
            "time": 158.79403825000003,
            "velocity": 0.6535433070866141
          },
          {
            "duration": 0.11274504166664201,
            "durationTicks": 23,
            "midi": 35,
            "name": "B1",
            "ticks": 32394,
            "time": 158.79403825000003,
            "velocity": 0.6535433070866141
          },
          {
            "duration": 0.2941174999999987,
            "durationTicks": 60,
            "midi": 36,
            "name": "C2",
            "ticks": 32395,
            "time": 158.79894020833333,
            "velocity": 0.6535433070866141
          },
          {
            "duration": 0.07352937499999257,
            "durationTicks": 15,
            "midi": 44,
            "name": "G#2",
            "ticks": 32396,
            "time": 158.80384216666667,
            "velocity": 0.6535433070866141
          },
          {
            "duration": 0.04411762499998417,
            "durationTicks": 9,
            "midi": 46,
            "name": "A#2",
            "ticks": 32398,
            "time": 158.81364608333337,
            "velocity": 0.6535433070866141
          },
          {
            "duration": 0.04411762499998417,
            "durationTicks": 9,
            "midi": 34,
            "name": "A#1",
            "ticks": 32398,
            "time": 158.81364608333337,
            "velocity": 0.5590551181102362
          },
          {
            "duration": 0.0637254583333231,
            "durationTicks": 13,
            "midi": 44,
            "name": "G#2",
            "ticks": 32426,
            "time": 158.95090091666668,
            "velocity": 0.6535433070866141
          },
          {
            "duration": 0.0931372083333315,
            "durationTicks": 19,
            "midi": 46,
            "name": "A#2",
            "ticks": 32428,
            "time": 158.96070483333335,
            "velocity": 0.6535433070866141
          },
          {
            "duration": 0.09803916666666623,
            "durationTicks": 20,
            "midi": 34,
            "name": "A#1",
            "ticks": 32428,
            "time": 158.96070483333335,
            "velocity": 0.5590551181102362
          },
          {
            "duration": 0.05392154166665364,
            "durationTicks": 11,
            "midi": 60,
            "name": "C4",
            "ticks": 32430,
            "time": 158.97050875000002,
            "velocity": 1
          },
          {
            "duration": 0.06862741666668626,
            "durationTicks": 14,
            "midi": 44,
            "name": "G#2",
            "ticks": 32456,
            "time": 159.09795966666667,
            "velocity": 0.6535433070866141
          },
          {
            "duration": 0.04901958333337575,
            "durationTicks": 10,
            "midi": 39,
            "name": "D#2",
            "ticks": 32456,
            "time": 159.09795966666667,
            "velocity": 0.8267716535433071
          },
          {
            "duration": 0.024509791666645242,
            "durationTicks": 5,
            "midi": 46,
            "name": "A#2",
            "ticks": 32458,
            "time": 159.10776358333337,
            "velocity": 0.6535433070866141
          },
          {
            "duration": 0.024509791666645242,
            "durationTicks": 5,
            "midi": 34,
            "name": "A#1",
            "ticks": 32458,
            "time": 159.10776358333337,
            "velocity": 0.5590551181102362
          },
          {
            "duration": 0.1225489583333399,
            "durationTicks": 25,
            "midi": 40,
            "name": "E2",
            "ticks": 32486,
            "time": 159.24501841666668,
            "velocity": 0.6535433070866141
          },
          {
            "duration": 0.07352937499999257,
            "durationTicks": 15,
            "midi": 44,
            "name": "G#2",
            "ticks": 32486,
            "time": 159.24501841666668,
            "velocity": 0.6535433070866141
          },
          {
            "duration": 0.07352937499999257,
            "durationTicks": 15,
            "midi": 39,
            "name": "D#2",
            "ticks": 32486,
            "time": 159.24501841666668,
            "velocity": 0.5196850393700787
          },
          {
            "duration": 0.06372545833329468,
            "durationTicks": 13,
            "midi": 46,
            "name": "A#2",
            "ticks": 32488,
            "time": 159.25482233333338,
            "velocity": 0.6535433070866141
          },
          {
            "duration": 0.06372545833329468,
            "durationTicks": 13,
            "midi": 34,
            "name": "A#1",
            "ticks": 32488,
            "time": 159.25482233333338,
            "velocity": 0.5590551181102362
          },
          {
            "duration": 0.01960783333333893,
            "durationTicks": 4,
            "midi": 61,
            "name": "C#4",
            "ticks": 32490,
            "time": 159.26462625000002,
            "velocity": 0.937007874015748
          },
          {
            "duration": 0.2941174999999987,
            "durationTicks": 60,
            "midi": 36,
            "name": "C2",
            "ticks": 32515,
            "time": 159.38717520833336,
            "velocity": 0.6535433070866141
          },
          {
            "duration": 0.07843133333338415,
            "durationTicks": 16,
            "midi": 44,
            "name": "G#2",
            "ticks": 32516,
            "time": 159.39207716666667,
            "velocity": 0.6535433070866141
          },
          {
            "duration": 0.0784313333333273,
            "durationTicks": 16,
            "midi": 46,
            "name": "A#2",
            "ticks": 32518,
            "time": 159.40188108333336,
            "velocity": 0.6535433070866141
          },
          {
            "duration": 0.0784313333333273,
            "durationTicks": 16,
            "midi": 34,
            "name": "A#1",
            "ticks": 32518,
            "time": 159.40188108333336,
            "velocity": 0.5590551181102362
          },
          {
            "duration": 0.07352937499999257,
            "durationTicks": 15,
            "midi": 44,
            "name": "G#2",
            "ticks": 32546,
            "time": 159.53913591666668,
            "velocity": 0.6535433070866141
          },
          {
            "duration": 0.0784313333333273,
            "durationTicks": 16,
            "midi": 46,
            "name": "A#2",
            "ticks": 32548,
            "time": 159.54893983333338,
            "velocity": 0.6535433070866141
          },
          {
            "duration": 0.0784313333333273,
            "durationTicks": 16,
            "midi": 34,
            "name": "A#1",
            "ticks": 32548,
            "time": 159.54893983333338,
            "velocity": 0.5590551181102362
          },
          {
            "duration": 0.044117625000012595,
            "durationTicks": 9,
            "midi": 62,
            "name": "D4",
            "ticks": 32550,
            "time": 159.55874375000002,
            "velocity": 1
          },
          {
            "duration": 0.12745091666670305,
            "durationTicks": 26,
            "midi": 40,
            "name": "E2",
            "ticks": 32576,
            "time": 159.68619466666667,
            "velocity": 0.6535433070866141
          },
          {
            "duration": 0.06862741666668626,
            "durationTicks": 14,
            "midi": 44,
            "name": "G#2",
            "ticks": 32576,
            "time": 159.68619466666667,
            "velocity": 0.6535433070866141
          },
          {
            "duration": 0.05882350000001679,
            "durationTicks": 12,
            "midi": 39,
            "name": "D#2",
            "ticks": 32576,
            "time": 159.68619466666667,
            "velocity": 0.8267716535433071
          },
          {
            "duration": 0.06862741666668626,
            "durationTicks": 14,
            "midi": 46,
            "name": "A#2",
            "ticks": 32578,
            "time": 159.69599858333336,
            "velocity": 0.6535433070866141
          },
          {
            "duration": 0.06862741666668626,
            "durationTicks": 14,
            "midi": 34,
            "name": "A#1",
            "ticks": 32578,
            "time": 159.69599858333336,
            "velocity": 0.5590551181102362
          },
          {
            "duration": 0.05392154166665364,
            "durationTicks": 11,
            "midi": 63,
            "name": "D#4",
            "ticks": 32580,
            "time": 159.70580250000003,
            "velocity": 1
          },
          {
            "duration": 0.05882350000001679,
            "durationTicks": 12,
            "midi": 44,
            "name": "G#2",
            "ticks": 32606,
            "time": 159.83325341666668,
            "velocity": 0.6535433070866141
          },
          {
            "duration": 0.1225489583333399,
            "durationTicks": 25,
            "midi": 35,
            "name": "B1",
            "ticks": 32634,
            "time": 159.97050825000002,
            "velocity": 0.6535433070866141
          },
          {
            "duration": 0.1225489583333399,
            "durationTicks": 25,
            "midi": 45,
            "name": "A2",
            "ticks": 32634,
            "time": 159.97050825000002,
            "velocity": 0.6535433070866141
          },
          {
            "duration": 0.2941174999999987,
            "durationTicks": 60,
            "midi": 36,
            "name": "C2",
            "ticks": 32635,
            "time": 159.97541020833336,
            "velocity": 0.6535433070866141
          },
          {
            "duration": 0.08333329166669046,
            "durationTicks": 17,
            "midi": 44,
            "name": "G#2",
            "ticks": 32636,
            "time": 159.98031216666666,
            "velocity": 0.6535433070866141
          },
          {
            "duration": 0.04411762499998417,
            "durationTicks": 9,
            "midi": 46,
            "name": "A#2",
            "ticks": 32638,
            "time": 159.99011608333336,
            "velocity": 0.6535433070866141
          },
          {
            "duration": 0.04411762499998417,
            "durationTicks": 9,
            "midi": 34,
            "name": "A#1",
            "ticks": 32638,
            "time": 159.99011608333336,
            "velocity": 0.5590551181102362
          },
          {
            "duration": 0.04411762499998417,
            "durationTicks": 9,
            "midi": 62,
            "name": "D4",
            "ticks": 32640,
            "time": 159.99992000000003,
            "velocity": 0.937007874015748
          },
          {
            "duration": 0.06862741666665784,
            "durationTicks": 14,
            "midi": 44,
            "name": "G#2",
            "ticks": 32666,
            "time": 160.12737091666668,
            "velocity": 0.6535433070866141
          },
          {
            "duration": 0.08823524999996835,
            "durationTicks": 18,
            "midi": 46,
            "name": "A#2",
            "ticks": 32668,
            "time": 160.13717483333338,
            "velocity": 0.6535433070866141
          },
          {
            "duration": 0.08823524999996835,
            "durationTicks": 18,
            "midi": 34,
            "name": "A#1",
            "ticks": 32668,
            "time": 160.13717483333338,
            "velocity": 0.5590551181102362
          },
          {
            "duration": 0.029411750000008396,
            "durationTicks": 6,
            "midi": 60,
            "name": "C4",
            "ticks": 32670,
            "time": 160.14697875000002,
            "velocity": 0.8031496062992126
          },
          {
            "duration": 0.07352937500002099,
            "durationTicks": 15,
            "midi": 44,
            "name": "G#2",
            "ticks": 32696,
            "time": 160.27442966666666,
            "velocity": 0.6535433070866141
          },
          {
            "duration": 0.05392154166671048,
            "durationTicks": 11,
            "midi": 39,
            "name": "D#2",
            "ticks": 32696,
            "time": 160.27442966666666,
            "velocity": 1
          },
          {
            "duration": 0.014705874999975777,
            "durationTicks": 3,
            "midi": 63,
            "name": "D#4",
            "ticks": 32700,
            "time": 160.29403750000003,
            "velocity": 0.8031496062992126
          },
          {
            "duration": 0.12745091666667463,
            "durationTicks": 26,
            "midi": 40,
            "name": "E2",
            "ticks": 32726,
            "time": 160.42148841666668,
            "velocity": 0.6535433070866141
          },
          {
            "duration": 0.06372545833335153,
            "durationTicks": 13,
            "midi": 44,
            "name": "G#2",
            "ticks": 32726,
            "time": 160.42148841666668,
            "velocity": 0.6535433070866141
          },
          {
            "duration": 0.06862741666665784,
            "durationTicks": 14,
            "midi": 39,
            "name": "D#2",
            "ticks": 32726,
            "time": 160.42148841666668,
            "velocity": 0.5354330708661418
          },
          {
            "duration": 0.0784313333333273,
            "durationTicks": 16,
            "midi": 46,
            "name": "A#2",
            "ticks": 32728,
            "time": 160.43129233333337,
            "velocity": 0.6535433070866141
          },
          {
            "duration": 0.0784313333333273,
            "durationTicks": 16,
            "midi": 34,
            "name": "A#1",
            "ticks": 32728,
            "time": 160.43129233333337,
            "velocity": 0.5590551181102362
          },
          {
            "duration": 0.06862741666668626,
            "durationTicks": 14,
            "midi": 61,
            "name": "C#4",
            "ticks": 32730,
            "time": 160.44109625000002,
            "velocity": 1
          },
          {
            "duration": 0.2941174999999987,
            "durationTicks": 60,
            "midi": 36,
            "name": "C2",
            "ticks": 32755,
            "time": 160.56364520833336,
            "velocity": 0.6535433070866141
          },
          {
            "duration": 0.07352937500002099,
            "durationTicks": 15,
            "midi": 44,
            "name": "G#2",
            "ticks": 32756,
            "time": 160.56854716666666,
            "velocity": 0.6535433070866141
          },
          {
            "duration": 0.05392154166665364,
            "durationTicks": 11,
            "midi": 46,
            "name": "A#2",
            "ticks": 32758,
            "time": 160.57835108333336,
            "velocity": 0.6535433070866141
          },
          {
            "duration": 0.05392154166665364,
            "durationTicks": 11,
            "midi": 34,
            "name": "A#1",
            "ticks": 32758,
            "time": 160.57835108333336,
            "velocity": 0.5590551181102362
          },
          {
            "duration": 0.06372545833335153,
            "durationTicks": 13,
            "midi": 44,
            "name": "G#2",
            "ticks": 32786,
            "time": 160.71560591666668,
            "velocity": 0.6535433070866141
          },
          {
            "duration": 0.07352937499999257,
            "durationTicks": 15,
            "midi": 39,
            "name": "D#2",
            "ticks": 32786,
            "time": 160.71560591666668,
            "velocity": 0.5826771653543307
          },
          {
            "duration": 0.0784313333333273,
            "durationTicks": 16,
            "midi": 46,
            "name": "A#2",
            "ticks": 32788,
            "time": 160.72540983333337,
            "velocity": 0.6535433070866141
          },
          {
            "duration": 0.0784313333333273,
            "durationTicks": 16,
            "midi": 34,
            "name": "A#1",
            "ticks": 32788,
            "time": 160.72540983333337,
            "velocity": 0.5590551181102362
          },
          {
            "duration": 0.029411750000008396,
            "durationTicks": 6,
            "midi": 62,
            "name": "D4",
            "ticks": 32790,
            "time": 160.73521375,
            "velocity": 1
          },
          {
            "duration": 0.12745091666667463,
            "durationTicks": 26,
            "midi": 40,
            "name": "E2",
            "ticks": 32816,
            "time": 160.8626646666667,
            "velocity": 0.6535433070866141
          },
          {
            "duration": 0.07352937499999257,
            "durationTicks": 15,
            "midi": 44,
            "name": "G#2",
            "ticks": 32816,
            "time": 160.8626646666667,
            "velocity": 0.6535433070866141
          },
          {
            "duration": 0.0637254583333231,
            "durationTicks": 13,
            "midi": 39,
            "name": "D#2",
            "ticks": 32816,
            "time": 160.8626646666667,
            "velocity": 0.8818897637795275
          },
          {
            "duration": 0.049019583333318906,
            "durationTicks": 10,
            "midi": 62,
            "name": "D4",
            "ticks": 32820,
            "time": 160.88227250000003,
            "velocity": 1
          },
          {
            "duration": 0.06862741666668626,
            "durationTicks": 14,
            "midi": 44,
            "name": "G#2",
            "ticks": 32846,
            "time": 161.00972341666667,
            "velocity": 0.6535433070866141
          },
          {
            "duration": 0.049019583333318906,
            "durationTicks": 10,
            "midi": 46,
            "name": "A#2",
            "ticks": 32848,
            "time": 161.01952733333337,
            "velocity": 0.6535433070866141
          },
          {
            "duration": 0.049019583333318906,
            "durationTicks": 10,
            "midi": 34,
            "name": "A#1",
            "ticks": 32848,
            "time": 161.01952733333337,
            "velocity": 0.5590551181102362
          },
          {
            "duration": 0.1666665833333525,
            "durationTicks": 34,
            "midi": 45,
            "name": "A2",
            "ticks": 32874,
            "time": 161.14697825000002,
            "velocity": 0.6535433070866141
          },
          {
            "duration": 0.13235287500000936,
            "durationTicks": 27,
            "midi": 35,
            "name": "B1",
            "ticks": 32874,
            "time": 161.14697825000002,
            "velocity": 0.6535433070866141
          },
          {
            "duration": 0.2941174999999987,
            "durationTicks": 60,
            "midi": 36,
            "name": "C2",
            "ticks": 32875,
            "time": 161.15188020833335,
            "velocity": 0.6535433070866141
          },
          {
            "duration": 0.06862741666665784,
            "durationTicks": 14,
            "midi": 44,
            "name": "G#2",
            "ticks": 32876,
            "time": 161.1567821666667,
            "velocity": 0.6535433070866141
          },
          {
            "duration": 0.03921566666667786,
            "durationTicks": 8,
            "midi": 46,
            "name": "A#2",
            "ticks": 32878,
            "time": 161.16658608333336,
            "velocity": 0.6535433070866141
          },
          {
            "duration": 0.03921566666667786,
            "durationTicks": 8,
            "midi": 34,
            "name": "A#1",
            "ticks": 32878,
            "time": 161.16658608333336,
            "velocity": 0.5590551181102362
          },
          {
            "duration": 0.04411762499998417,
            "durationTicks": 9,
            "midi": 62,
            "name": "D4",
            "ticks": 32880,
            "time": 161.17639000000003,
            "velocity": 0.9763779527559056
          },
          {
            "duration": 0.07352937499999257,
            "durationTicks": 15,
            "midi": 44,
            "name": "G#2",
            "ticks": 32906,
            "time": 161.30384091666667,
            "velocity": 0.6535433070866141
          },
          {
            "duration": 0.06862741666668626,
            "durationTicks": 14,
            "midi": 39,
            "name": "D#2",
            "ticks": 32906,
            "time": 161.30384091666667,
            "velocity": 0.33070866141732286
          },
          {
            "duration": 0.06372545833335153,
            "durationTicks": 13,
            "midi": 60,
            "name": "C4",
            "ticks": 32910,
            "time": 161.32344875,
            "velocity": 1
          },
          {
            "duration": 0.07843133333335572,
            "durationTicks": 16,
            "midi": 44,
            "name": "G#2",
            "ticks": 32936,
            "time": 161.4508996666667,
            "velocity": 0.6535433070866141
          },
          {
            "duration": 0.04901958333334733,
            "durationTicks": 10,
            "midi": 39,
            "name": "D#2",
            "ticks": 32936,
            "time": 161.4508996666667,
            "velocity": 0.937007874015748
          },
          {
            "duration": 0.04901958333334733,
            "durationTicks": 10,
            "midi": 46,
            "name": "A#2",
            "ticks": 32938,
            "time": 161.46070358333336,
            "velocity": 0.6535433070866141
          },
          {
            "duration": 0.04901958333334733,
            "durationTicks": 10,
            "midi": 34,
            "name": "A#1",
            "ticks": 32938,
            "time": 161.46070358333336,
            "velocity": 0.5590551181102362
          },
          {
            "duration": 0.029411750000008396,
            "durationTicks": 6,
            "midi": 62,
            "name": "D4",
            "ticks": 32940,
            "time": 161.47050750000002,
            "velocity": 0.8267716535433071
          },
          {
            "duration": 0.12254895833336832,
            "durationTicks": 25,
            "midi": 40,
            "name": "E2",
            "ticks": 32966,
            "time": 161.59795841666667,
            "velocity": 0.6535433070866141
          },
          {
            "duration": 0.06862741666668626,
            "durationTicks": 14,
            "midi": 44,
            "name": "G#2",
            "ticks": 32966,
            "time": 161.59795841666667,
            "velocity": 0.6535433070866141
          },
          {
            "duration": 0.07352937499999257,
            "durationTicks": 15,
            "midi": 39,
            "name": "D#2",
            "ticks": 32966,
            "time": 161.59795841666667,
            "velocity": 0.5196850393700787
          },
          {
            "duration": 0.08823524999999677,
            "durationTicks": 18,
            "midi": 46,
            "name": "A#2",
            "ticks": 32968,
            "time": 161.60776233333337,
            "velocity": 0.6535433070866141
          },
          {
            "duration": 0.08823524999999677,
            "durationTicks": 18,
            "midi": 34,
            "name": "A#1",
            "ticks": 32968,
            "time": 161.60776233333337,
            "velocity": 0.5590551181102362
          },
          {
            "duration": 0.2941174999999987,
            "durationTicks": 60,
            "midi": 36,
            "name": "C2",
            "ticks": 32995,
            "time": 161.74011520833335,
            "velocity": 0.6535433070866141
          },
          {
            "duration": 0.07843133333335572,
            "durationTicks": 16,
            "midi": 49,
            "name": "C#3",
            "ticks": 32996,
            "time": 161.74501716666668,
            "velocity": 0.6535433070866141
          },
          {
            "duration": 0.029411750000008396,
            "durationTicks": 6,
            "midi": 60,
            "name": "C4",
            "ticks": 33000,
            "time": 161.76462500000002,
            "velocity": 0.937007874015748
          },
          {
            "duration": 0.06862741666668626,
            "durationTicks": 14,
            "midi": 44,
            "name": "G#2",
            "ticks": 33026,
            "time": 161.89207591666667,
            "velocity": 0.6535433070866141
          },
          {
            "duration": 0.06862741666668626,
            "durationTicks": 14,
            "midi": 39,
            "name": "D#2",
            "ticks": 33026,
            "time": 161.89207591666667,
            "velocity": 0.48031496062992124
          },
          {
            "duration": 0.049019583333318906,
            "durationTicks": 10,
            "midi": 46,
            "name": "A#2",
            "ticks": 33028,
            "time": 161.90187983333337,
            "velocity": 0.6535433070866141
          },
          {
            "duration": 0.049019583333318906,
            "durationTicks": 10,
            "midi": 34,
            "name": "A#1",
            "ticks": 33028,
            "time": 161.90187983333337,
            "velocity": 0.5590551181102362
          },
          {
            "duration": 0.1421567916666504,
            "durationTicks": 29,
            "midi": 40,
            "name": "E2",
            "ticks": 33056,
            "time": 162.03913466666668,
            "velocity": 0.6535433070866141
          },
          {
            "duration": 0.07843133333335572,
            "durationTicks": 16,
            "midi": 44,
            "name": "G#2",
            "ticks": 33056,
            "time": 162.03913466666668,
            "velocity": 0.6535433070866141
          },
          {
            "duration": 0.044117625000012595,
            "durationTicks": 9,
            "midi": 39,
            "name": "D#2",
            "ticks": 33056,
            "time": 162.03913466666668,
            "velocity": 0.905511811023622
          },
          {
            "duration": 0.0637254583333231,
            "durationTicks": 13,
            "midi": 46,
            "name": "A#2",
            "ticks": 33058,
            "time": 162.04893858333335,
            "velocity": 0.6535433070866141
          },
          {
            "duration": 0.0637254583333231,
            "durationTicks": 13,
            "midi": 34,
            "name": "A#1",
            "ticks": 33058,
            "time": 162.04893858333335,
            "velocity": 0.5590551181102362
          },
          {
            "duration": 0.0784313333333273,
            "durationTicks": 16,
            "midi": 58,
            "name": "A#3",
            "ticks": 33060,
            "time": 162.05874250000002,
            "velocity": 1
          },
          {
            "duration": 0.06372545833335153,
            "durationTicks": 13,
            "midi": 44,
            "name": "G#2",
            "ticks": 33086,
            "time": 162.18619341666667,
            "velocity": 0.6535433070866141
          },
          {
            "duration": 0.044117625000041016,
            "durationTicks": 9,
            "midi": 39,
            "name": "D#2",
            "ticks": 33086,
            "time": 162.18619341666667,
            "velocity": 0.4330708661417323
          },
          {
            "duration": 0.12745091666670305,
            "durationTicks": 26,
            "midi": 45,
            "name": "A2",
            "ticks": 33114,
            "time": 162.32344825,
            "velocity": 0.6535433070866141
          },
          {
            "duration": 0.11274504166667043,
            "durationTicks": 23,
            "midi": 35,
            "name": "B1",
            "ticks": 33114,
            "time": 162.32344825,
            "velocity": 0.6535433070866141
          },
          {
            "duration": 0.2941174999999987,
            "durationTicks": 60,
            "midi": 36,
            "name": "C2",
            "ticks": 33115,
            "time": 162.32835020833335,
            "velocity": 0.6535433070866141
          },
          {
            "duration": 0.07843133333335572,
            "durationTicks": 16,
            "midi": 49,
            "name": "C#3",
            "ticks": 33116,
            "time": 162.33325216666668,
            "velocity": 0.6535433070866141
          },
          {
            "duration": 0.049019583333318906,
            "durationTicks": 10,
            "midi": 46,
            "name": "A#2",
            "ticks": 33118,
            "time": 162.34305608333338,
            "velocity": 0.6535433070866141
          },
          {
            "duration": 0.049019583333318906,
            "durationTicks": 10,
            "midi": 34,
            "name": "A#1",
            "ticks": 33118,
            "time": 162.34305608333338,
            "velocity": 0.5590551181102362
          },
          {
            "duration": 0.06862741666668626,
            "durationTicks": 14,
            "midi": 44,
            "name": "G#2",
            "ticks": 33146,
            "time": 162.48031091666667,
            "velocity": 0.6535433070866141
          },
          {
            "duration": 0.07352937499999257,
            "durationTicks": 15,
            "midi": 44,
            "name": "G#2",
            "ticks": 33176,
            "time": 162.62736966666668,
            "velocity": 0.6535433070866141
          },
          {
            "duration": 0.06862741666665784,
            "durationTicks": 14,
            "midi": 39,
            "name": "D#2",
            "ticks": 33176,
            "time": 162.62736966666668,
            "velocity": 0.937007874015748
          },
          {
            "duration": 0.03921566666664944,
            "durationTicks": 8,
            "midi": 46,
            "name": "A#2",
            "ticks": 33178,
            "time": 162.63717358333338,
            "velocity": 0.6535433070866141
          },
          {
            "duration": 0.03921566666664944,
            "durationTicks": 8,
            "midi": 34,
            "name": "A#1",
            "ticks": 33178,
            "time": 162.63717358333338,
            "velocity": 0.5590551181102362
          },
          {
            "duration": 0.11764700000003359,
            "durationTicks": 24,
            "midi": 40,
            "name": "E2",
            "ticks": 33206,
            "time": 162.77442841666667,
            "velocity": 0.6535433070866141
          },
          {
            "duration": 0.07352937500002099,
            "durationTicks": 15,
            "midi": 44,
            "name": "G#2",
            "ticks": 33206,
            "time": 162.77442841666667,
            "velocity": 0.6535433070866141
          },
          {
            "duration": 0.05392154166668206,
            "durationTicks": 11,
            "midi": 39,
            "name": "D#2",
            "ticks": 33206,
            "time": 162.77442841666667,
            "velocity": 0.44881889763779526
          },
          {
            "duration": 0.0784313333333273,
            "durationTicks": 16,
            "midi": 46,
            "name": "A#2",
            "ticks": 33208,
            "time": 162.78423233333336,
            "velocity": 0.6535433070866141
          },
          {
            "duration": 0.0784313333333273,
            "durationTicks": 16,
            "midi": 34,
            "name": "A#1",
            "ticks": 33208,
            "time": 162.78423233333336,
            "velocity": 0.5590551181102362
          },
          {
            "duration": 0.08333329166666203,
            "durationTicks": 17,
            "midi": 61,
            "name": "C#4",
            "ticks": 33210,
            "time": 162.79403625000003,
            "velocity": 1
          },
          {
            "duration": 0.2941174999999987,
            "durationTicks": 60,
            "midi": 36,
            "name": "C2",
            "ticks": 33235,
            "time": 162.91658520833334,
            "velocity": 0.6535433070866141
          },
          {
            "duration": 0.07843133333335572,
            "durationTicks": 16,
            "midi": 44,
            "name": "G#2",
            "ticks": 33236,
            "time": 162.92148716666668,
            "velocity": 0.6535433070866141
          },
          {
            "duration": 0.04411762499998417,
            "durationTicks": 9,
            "midi": 46,
            "name": "A#2",
            "ticks": 33238,
            "time": 162.93129108333338,
            "velocity": 0.6535433070866141
          },
          {
            "duration": 0.04411762499998417,
            "durationTicks": 9,
            "midi": 34,
            "name": "A#1",
            "ticks": 33238,
            "time": 162.93129108333338,
            "velocity": 0.5590551181102362
          },
          {
            "duration": 0.05392154166668206,
            "durationTicks": 11,
            "midi": 44,
            "name": "G#2",
            "ticks": 33266,
            "time": 163.06854591666666,
            "velocity": 0.6535433070866141
          },
          {
            "duration": 0.05392154166668206,
            "durationTicks": 11,
            "midi": 39,
            "name": "D#2",
            "ticks": 33266,
            "time": 163.06854591666666,
            "velocity": 0.4881889763779528
          },
          {
            "duration": 0.0637254583333231,
            "durationTicks": 13,
            "midi": 46,
            "name": "A#2",
            "ticks": 33268,
            "time": 163.07834983333336,
            "velocity": 0.6535433070866141
          },
          {
            "duration": 0.0637254583333231,
            "durationTicks": 13,
            "midi": 34,
            "name": "A#1",
            "ticks": 33268,
            "time": 163.07834983333336,
            "velocity": 0.5590551181102362
          },
          {
            "duration": 0.03431370833331471,
            "durationTicks": 7,
            "midi": 61,
            "name": "C#4",
            "ticks": 33270,
            "time": 163.08815375000003,
            "velocity": 0.6771653543307087
          },
          {
            "duration": 0.13235287500000936,
            "durationTicks": 27,
            "midi": 40,
            "name": "E2",
            "ticks": 33296,
            "time": 163.21560466666668,
            "velocity": 0.6535433070866141
          },
          {
            "duration": 0.08823525000002519,
            "durationTicks": 18,
            "midi": 44,
            "name": "G#2",
            "ticks": 33296,
            "time": 163.21560466666668,
            "velocity": 0.6535433070866141
          },
          {
            "duration": 0.06862741666665784,
            "durationTicks": 14,
            "midi": 39,
            "name": "D#2",
            "ticks": 33296,
            "time": 163.21560466666668,
            "velocity": 0.9763779527559056
          },
          {
            "duration": 0.05392154166665364,
            "durationTicks": 11,
            "midi": 46,
            "name": "A#2",
            "ticks": 33298,
            "time": 163.22540858333338,
            "velocity": 0.6535433070866141
          },
          {
            "duration": 0.05392154166665364,
            "durationTicks": 11,
            "midi": 34,
            "name": "A#1",
            "ticks": 33298,
            "time": 163.22540858333338,
            "velocity": 0.5590551181102362
          },
          {
            "duration": 0.014705875000004198,
            "durationTicks": 3,
            "midi": 63,
            "name": "D#4",
            "ticks": 33300,
            "time": 163.23521250000002,
            "velocity": 1
          },
          {
            "duration": 0.06372545833335153,
            "durationTicks": 13,
            "midi": 44,
            "name": "G#2",
            "ticks": 33326,
            "time": 163.36266341666666,
            "velocity": 0.6535433070866141
          },
          {
            "duration": 0.0931372083333315,
            "durationTicks": 19,
            "midi": 46,
            "name": "A#2",
            "ticks": 33328,
            "time": 163.37246733333336,
            "velocity": 0.6535433070866141
          },
          {
            "duration": 0.08823524999999677,
            "durationTicks": 18,
            "midi": 34,
            "name": "A#1",
            "ticks": 33328,
            "time": 163.37246733333336,
            "velocity": 0.5590551181102362
          },
          {
            "duration": 0.09803916666669465,
            "durationTicks": 20,
            "midi": 35,
            "name": "B1",
            "ticks": 33354,
            "time": 163.49991825,
            "velocity": 0.6535433070866141
          },
          {
            "duration": 0.11764700000000516,
            "durationTicks": 24,
            "midi": 45,
            "name": "A2",
            "ticks": 33354,
            "time": 163.49991825,
            "velocity": 0.6535433070866141
          },
          {
            "duration": 0.2941174999999987,
            "durationTicks": 60,
            "midi": 36,
            "name": "C2",
            "ticks": 33355,
            "time": 163.50482020833334,
            "velocity": 0.6535433070866141
          },
          {
            "duration": 0.06372545833335153,
            "durationTicks": 13,
            "midi": 49,
            "name": "C#3",
            "ticks": 33356,
            "time": 163.50972216666668,
            "velocity": 0.6535433070866141
          },
          {
            "duration": 0.06862741666665784,
            "durationTicks": 14,
            "midi": 46,
            "name": "A#2",
            "ticks": 33358,
            "time": 163.51952608333337,
            "velocity": 0.6535433070866141
          },
          {
            "duration": 0.06862741666665784,
            "durationTicks": 14,
            "midi": 34,
            "name": "A#1",
            "ticks": 33358,
            "time": 163.51952608333337,
            "velocity": 0.5590551181102362
          },
          {
            "duration": 0.03431370833334313,
            "durationTicks": 7,
            "midi": 62,
            "name": "D4",
            "ticks": 33360,
            "time": 163.52933000000002,
            "velocity": 0.905511811023622
          },
          {
            "duration": 0.07352937500002099,
            "durationTicks": 15,
            "midi": 49,
            "name": "C#3",
            "ticks": 33360,
            "time": 163.52933000000002,
            "velocity": 0.11811023622047244
          },
          {
            "duration": 0.07352937499999257,
            "durationTicks": 15,
            "midi": 49,
            "name": "C#3",
            "ticks": 33375,
            "time": 163.60285937500004,
            "velocity": 0.15748031496062992
          },
          {
            "duration": 0.08823524999999677,
            "durationTicks": 18,
            "midi": 46,
            "name": "A#2",
            "ticks": 33388,
            "time": 163.66658483333336,
            "velocity": 0.6535433070866141
          },
          {
            "duration": 0.08823524999999677,
            "durationTicks": 18,
            "midi": 34,
            "name": "A#1",
            "ticks": 33388,
            "time": 163.66658483333336,
            "velocity": 0.5590551181102362
          },
          {
            "duration": 0.049019583333318906,
            "durationTicks": 10,
            "midi": 60,
            "name": "C4",
            "ticks": 33390,
            "time": 163.67638875000003,
            "velocity": 0.8818897637795275
          },
          {
            "duration": 0.07352937499999257,
            "durationTicks": 15,
            "midi": 49,
            "name": "C#3",
            "ticks": 33390,
            "time": 163.67638875000003,
            "velocity": 0.2125984251968504
          },
          {
            "duration": 0.07352937499999257,
            "durationTicks": 15,
            "midi": 63,
            "name": "D#4",
            "ticks": 33405,
            "time": 163.74991812500002,
            "velocity": 0.7874015748031497
          },
          {
            "duration": 0.07352937499999257,
            "durationTicks": 15,
            "midi": 49,
            "name": "C#3",
            "ticks": 33405,
            "time": 163.74991812500002,
            "velocity": 0.25984251968503935
          },
          {
            "duration": 0.06862741666665784,
            "durationTicks": 14,
            "midi": 55,
            "name": "G3",
            "ticks": 33416,
            "time": 163.80383966666668,
            "velocity": 0.6535433070866141
          },
          {
            "duration": 0.05392154166668206,
            "durationTicks": 11,
            "midi": 39,
            "name": "D#2",
            "ticks": 33416,
            "time": 163.80383966666668,
            "velocity": 0.905511811023622
          },
          {
            "duration": 0.06862741666665784,
            "durationTicks": 14,
            "midi": 46,
            "name": "A#2",
            "ticks": 33418,
            "time": 163.81364358333337,
            "velocity": 0.6535433070866141
          },
          {
            "duration": 0.06862741666665784,
            "durationTicks": 14,
            "midi": 34,
            "name": "A#1",
            "ticks": 33418,
            "time": 163.81364358333337,
            "velocity": 0.5590551181102362
          },
          {
            "duration": 0.07352937500002099,
            "durationTicks": 15,
            "midi": 63,
            "name": "D#4",
            "ticks": 33420,
            "time": 163.82344750000001,
            "velocity": 0.7874015748031497
          },
          {
            "duration": 0.07352937500002099,
            "durationTicks": 15,
            "midi": 49,
            "name": "C#3",
            "ticks": 33420,
            "time": 163.82344750000001,
            "velocity": 0.2992125984251969
          },
          {
            "duration": 0.07352937499999257,
            "durationTicks": 15,
            "midi": 61,
            "name": "C#4",
            "ticks": 33435,
            "time": 163.89697687500004,
            "velocity": 0.7874015748031497
          },
          {
            "duration": 0.07352937499999257,
            "durationTicks": 15,
            "midi": 49,
            "name": "C#3",
            "ticks": 33435,
            "time": 163.89697687500004,
            "velocity": 0.33070866141732286
          },
          {
            "duration": 0.07352937499999257,
            "durationTicks": 15,
            "midi": 39,
            "name": "D#2",
            "ticks": 33446,
            "time": 163.9508984166667,
            "velocity": 0.6141732283464567
          },
          {
            "duration": 0.0784313333333273,
            "durationTicks": 16,
            "midi": 46,
            "name": "A#2",
            "ticks": 33448,
            "time": 163.96070233333336,
            "velocity": 0.6535433070866141
          },
          {
            "duration": 0.0784313333333273,
            "durationTicks": 16,
            "midi": 34,
            "name": "A#1",
            "ticks": 33448,
            "time": 163.96070233333336,
            "velocity": 0.5590551181102362
          },
          {
            "duration": 0.029411750000008396,
            "durationTicks": 6,
            "midi": 61,
            "name": "C#4",
            "ticks": 33450,
            "time": 163.97050625000003,
            "velocity": 0.7244094488188977
          },
          {
            "duration": 0.07352937499999257,
            "durationTicks": 15,
            "midi": 49,
            "name": "C#3",
            "ticks": 33450,
            "time": 163.97050625000003,
            "velocity": 0.3700787401574803
          },
          {
            "duration": 0.07352937499999257,
            "durationTicks": 15,
            "midi": 63,
            "name": "D#4",
            "ticks": 33465,
            "time": 164.04403562500002,
            "velocity": 0.7874015748031497
          },
          {
            "duration": 0.07352937499999257,
            "durationTicks": 15,
            "midi": 49,
            "name": "C#3",
            "ticks": 33465,
            "time": 164.04403562500002,
            "velocity": 0.4251968503937008
          },
          {
            "duration": 0.2941174999999987,
            "durationTicks": 60,
            "midi": 36,
            "name": "C2",
            "ticks": 33475,
            "time": 164.09305520833334,
            "velocity": 0.6535433070866141
          },
          {
            "duration": 0.07352937499999257,
            "durationTicks": 15,
            "midi": 57,
            "name": "A3",
            "ticks": 33476,
            "time": 164.09795716666667,
            "velocity": 0.6535433070866141
          },
          {
            "duration": 0.06372545833329468,
            "durationTicks": 13,
            "midi": 46,
            "name": "A#2",
            "ticks": 33478,
            "time": 164.10776108333337,
            "velocity": 0.6535433070866141
          },
          {
            "duration": 0.06372545833329468,
            "durationTicks": 13,
            "midi": 34,
            "name": "A#1",
            "ticks": 33478,
            "time": 164.10776108333337,
            "velocity": 0.5590551181102362
          },
          {
            "duration": 0.019607833333367353,
            "durationTicks": 4,
            "midi": 63,
            "name": "D#4",
            "ticks": 33480,
            "time": 164.117565,
            "velocity": 1
          },
          {
            "duration": 0.07352937500002099,
            "durationTicks": 15,
            "midi": 49,
            "name": "C#3",
            "ticks": 33480,
            "time": 164.117565,
            "velocity": 0.4645669291338583
          },
          {
            "duration": 0.07352937499999257,
            "durationTicks": 15,
            "midi": 61,
            "name": "C#4",
            "ticks": 33495,
            "time": 164.19109437500003,
            "velocity": 0.7874015748031497
          },
          {
            "duration": 0.07352937499999257,
            "durationTicks": 15,
            "midi": 49,
            "name": "C#3",
            "ticks": 33495,
            "time": 164.19109437500003,
            "velocity": 0.49606299212598426
          },
          {
            "duration": 0.0637254583333231,
            "durationTicks": 13,
            "midi": 39,
            "name": "D#2",
            "ticks": 33506,
            "time": 164.2450159166667,
            "velocity": 0.5354330708661418
          },
          {
            "duration": 0.08823524999999677,
            "durationTicks": 18,
            "midi": 46,
            "name": "A#2",
            "ticks": 33508,
            "time": 164.25481983333336,
            "velocity": 0.6535433070866141
          },
          {
            "duration": 0.08823524999999677,
            "durationTicks": 18,
            "midi": 34,
            "name": "A#1",
            "ticks": 33508,
            "time": 164.25481983333336,
            "velocity": 0.5590551181102362
          },
          {
            "duration": 0.07352937499999257,
            "durationTicks": 15,
            "midi": 63,
            "name": "D#4",
            "ticks": 33510,
            "time": 164.26462375000003,
            "velocity": 0.7874015748031497
          },
          {
            "duration": 0.07352937499999257,
            "durationTicks": 15,
            "midi": 49,
            "name": "C#3",
            "ticks": 33510,
            "time": 164.26462375000003,
            "velocity": 0.5354330708661418
          },
          {
            "duration": 0.07352937499999257,
            "durationTicks": 15,
            "midi": 63,
            "name": "D#4",
            "ticks": 33525,
            "time": 164.33815312500002,
            "velocity": 0.7874015748031497
          },
          {
            "duration": 0.07352937499999257,
            "durationTicks": 15,
            "midi": 49,
            "name": "C#3",
            "ticks": 33525,
            "time": 164.33815312500002,
            "velocity": 0.5826771653543307
          },
          {
            "duration": 0.07352937499999257,
            "durationTicks": 15,
            "midi": 57,
            "name": "A3",
            "ticks": 33536,
            "time": 164.39207466666667,
            "velocity": 0.6535433070866141
          },
          {
            "duration": 0.06372545833335153,
            "durationTicks": 13,
            "midi": 39,
            "name": "D#2",
            "ticks": 33536,
            "time": 164.39207466666667,
            "velocity": 1
          },
          {
            "duration": 0.03921566666667786,
            "durationTicks": 8,
            "midi": 64,
            "name": "E4",
            "ticks": 33540,
            "time": 164.4116825,
            "velocity": 0.9763779527559056
          },
          {
            "duration": 0.07352937500002099,
            "durationTicks": 15,
            "midi": 49,
            "name": "C#3",
            "ticks": 33540,
            "time": 164.4116825,
            "velocity": 0.6141732283464567
          },
          {
            "duration": 0.07352937499999257,
            "durationTicks": 15,
            "midi": 63,
            "name": "D#4",
            "ticks": 33555,
            "time": 164.48521187500003,
            "velocity": 0.7874015748031497
          },
          {
            "duration": 0.07352937499999257,
            "durationTicks": 15,
            "midi": 49,
            "name": "C#3",
            "ticks": 33555,
            "time": 164.48521187500003,
            "velocity": 0.6535433070866141
          },
          {
            "duration": 0.0931372083333315,
            "durationTicks": 19,
            "midi": 39,
            "name": "D#2",
            "ticks": 33566,
            "time": 164.5391334166667,
            "velocity": 0.7637795275590551
          },
          {
            "duration": 0.03431370833334313,
            "durationTicks": 7,
            "midi": 46,
            "name": "A#2",
            "ticks": 33568,
            "time": 164.54893733333336,
            "velocity": 0.6535433070866141
          },
          {
            "duration": 0.03921566666667786,
            "durationTicks": 8,
            "midi": 34,
            "name": "A#1",
            "ticks": 33568,
            "time": 164.54893733333336,
            "velocity": 0.5590551181102362
          },
          {
            "duration": 0.11274504166667043,
            "durationTicks": 23,
            "midi": 46,
            "name": "A#2",
            "ticks": 33568,
            "time": 164.54893733333336,
            "velocity": 0.6535433070866141
          },
          {
            "duration": 0.11274504166667043,
            "durationTicks": 23,
            "midi": 34,
            "name": "A#1",
            "ticks": 33568,
            "time": 164.54893733333336,
            "velocity": 0.5590551181102362
          },
          {
            "duration": 0.07352937499999257,
            "durationTicks": 15,
            "midi": 61,
            "name": "C#4",
            "ticks": 33570,
            "time": 164.55874125000003,
            "velocity": 0.7874015748031497
          },
          {
            "duration": 0.07352937499999257,
            "durationTicks": 15,
            "midi": 49,
            "name": "C#3",
            "ticks": 33570,
            "time": 164.55874125000003,
            "velocity": 0.6850393700787402
          },
          {
            "duration": 0.07352937500002099,
            "durationTicks": 15,
            "midi": 63,
            "name": "D#4",
            "ticks": 33585,
            "time": 164.63227062500002,
            "velocity": 0.7874015748031497
          },
          {
            "duration": 0.07352937500002099,
            "durationTicks": 15,
            "midi": 49,
            "name": "C#3",
            "ticks": 33585,
            "time": 164.63227062500002,
            "velocity": 0.7322834645669292
          },
          {
            "duration": 0.12745091666667463,
            "durationTicks": 26,
            "midi": 45,
            "name": "A2",
            "ticks": 33594,
            "time": 164.67638825000003,
            "velocity": 0.6535433070866141
          },
          {
            "duration": 0.0931372083333315,
            "durationTicks": 19,
            "midi": 35,
            "name": "B1",
            "ticks": 33594,
            "time": 164.67638825000003,
            "velocity": 0.6535433070866141
          },
          {
            "duration": 0.2941174999999987,
            "durationTicks": 60,
            "midi": 36,
            "name": "C2",
            "ticks": 33595,
            "time": 164.68129020833334,
            "velocity": 0.6535433070866141
          },
          {
            "duration": 0.06862741666668626,
            "durationTicks": 14,
            "midi": 49,
            "name": "C#3",
            "ticks": 33596,
            "time": 164.68619216666667,
            "velocity": 0.6535433070866141
          },
          {
            "duration": 0.07352937499999257,
            "durationTicks": 15,
            "midi": 39,
            "name": "D#2",
            "ticks": 33596,
            "time": 164.68619216666667,
            "velocity": 1
          },
          {
            "duration": 0.0637254583333231,
            "durationTicks": 13,
            "midi": 78,
            "name": "F#5",
            "ticks": 33600,
            "time": 164.70580000000004,
            "velocity": 1
          },
          {
            "duration": 0.07352937499999257,
            "durationTicks": 15,
            "midi": 49,
            "name": "C#3",
            "ticks": 33600,
            "time": 164.70580000000004,
            "velocity": 0.7874015748031497
          },
          {
            "duration": 0.06372545833335153,
            "durationTicks": 13,
            "midi": 44,
            "name": "G#2",
            "ticks": 33656,
            "time": 164.98030966666667,
            "velocity": 0.6535433070866141
          },
          {
            "duration": 0.044117625000041016,
            "durationTicks": 9,
            "midi": 39,
            "name": "D#2",
            "ticks": 33656,
            "time": 164.98030966666667,
            "velocity": 0.8267716535433071
          },
          {
            "duration": 0.11764700000000516,
            "durationTicks": 24,
            "midi": 40,
            "name": "E2",
            "ticks": 33686,
            "time": 165.12736841666668,
            "velocity": 0.6535433070866141
          },
          {
            "duration": 0.05392154166668206,
            "durationTicks": 11,
            "midi": 44,
            "name": "G#2",
            "ticks": 33686,
            "time": 165.12736841666668,
            "velocity": 0.6535433070866141
          },
          {
            "duration": 0.0637254583333231,
            "durationTicks": 13,
            "midi": 39,
            "name": "D#2",
            "ticks": 33686,
            "time": 165.12736841666668,
            "velocity": 0.6377952755905512
          },
          {
            "duration": 0.2941174999999987,
            "durationTicks": 60,
            "midi": 36,
            "name": "C2",
            "ticks": 33715,
            "time": 165.26952520833333,
            "velocity": 0.6535433070866141
          },
          {
            "duration": 0.04901958333337575,
            "durationTicks": 10,
            "midi": 44,
            "name": "G#2",
            "ticks": 33716,
            "time": 165.27442716666667,
            "velocity": 0.6535433070866141
          },
          {
            "duration": 0.05392154166668206,
            "durationTicks": 11,
            "midi": 44,
            "name": "G#2",
            "ticks": 33746,
            "time": 165.42148591666668,
            "velocity": 0.6535433070866141
          },
          {
            "duration": 0.05392154166668206,
            "durationTicks": 11,
            "midi": 39,
            "name": "D#2",
            "ticks": 33746,
            "time": 165.42148591666668,
            "velocity": 0.4566929133858268
          },
          {
            "duration": 0.05392154166662522,
            "durationTicks": 11,
            "midi": 46,
            "name": "A#2",
            "ticks": 33748,
            "time": 165.43128983333338,
            "velocity": 0.6535433070866141
          },
          {
            "duration": 0.05392154166662522,
            "durationTicks": 11,
            "midi": 34,
            "name": "A#1",
            "ticks": 33748,
            "time": 165.43128983333338,
            "velocity": 0.5590551181102362
          },
          {
            "duration": 0.03921566666667786,
            "durationTicks": 8,
            "midi": 60,
            "name": "C4",
            "ticks": 33750,
            "time": 165.44109375000002,
            "velocity": 0.5196850393700787
          },
          {
            "duration": 0.1372548333333441,
            "durationTicks": 28,
            "midi": 40,
            "name": "E2",
            "ticks": 33776,
            "time": 165.56854466666667,
            "velocity": 0.6535433070866141
          },
          {
            "duration": 0.07352937500002099,
            "durationTicks": 15,
            "midi": 44,
            "name": "G#2",
            "ticks": 33776,
            "time": 165.56854466666667,
            "velocity": 0.6535433070866141
          },
          {
            "duration": 0.05392154166668206,
            "durationTicks": 11,
            "midi": 39,
            "name": "D#2",
            "ticks": 33776,
            "time": 165.56854466666667,
            "velocity": 1
          },
          {
            "duration": 0.04411762499998417,
            "durationTicks": 9,
            "midi": 46,
            "name": "A#2",
            "ticks": 33778,
            "time": 165.57834858333337,
            "velocity": 0.6535433070866141
          },
          {
            "duration": 0.049019583333318906,
            "durationTicks": 10,
            "midi": 34,
            "name": "A#1",
            "ticks": 33778,
            "time": 165.57834858333337,
            "velocity": 0.5590551181102362
          },
          {
            "duration": 0.01960783333333893,
            "durationTicks": 4,
            "midi": 63,
            "name": "D#4",
            "ticks": 33780,
            "time": 165.58815250000004,
            "velocity": 1
          },
          {
            "duration": 0.06862741666665784,
            "durationTicks": 14,
            "midi": 44,
            "name": "G#2",
            "ticks": 33806,
            "time": 165.71560341666668,
            "velocity": 0.6535433070866141
          },
          {
            "duration": 0.12745091666667463,
            "durationTicks": 26,
            "midi": 35,
            "name": "B1",
            "ticks": 33834,
            "time": 165.85285825000003,
            "velocity": 0.6535433070866141
          },
          {
            "duration": 0.1421567916666504,
            "durationTicks": 29,
            "midi": 45,
            "name": "A2",
            "ticks": 33834,
            "time": 165.85285825000003,
            "velocity": 0.6535433070866141
          },
          {
            "duration": 0.2941174999999987,
            "durationTicks": 60,
            "midi": 36,
            "name": "C2",
            "ticks": 33835,
            "time": 165.85776020833336,
            "velocity": 0.6535433070866141
          },
          {
            "duration": 0.08823525000002519,
            "durationTicks": 18,
            "midi": 44,
            "name": "G#2",
            "ticks": 33836,
            "time": 165.86266216666667,
            "velocity": 0.6535433070866141
          },
          {
            "duration": 0.06372545833335153,
            "durationTicks": 13,
            "midi": 39,
            "name": "D#2",
            "ticks": 33836,
            "time": 165.86266216666667,
            "velocity": 0.8031496062992126
          },
          {
            "duration": 0.024509791666673664,
            "durationTicks": 5,
            "midi": 60,
            "name": "C4",
            "ticks": 33840,
            "time": 165.88227000000003,
            "velocity": 0.8818897637795275
          },
          {
            "duration": 0.024509791666673664,
            "durationTicks": 5,
            "midi": 62,
            "name": "D4",
            "ticks": 33840,
            "time": 165.88227000000003,
            "velocity": 0.8267716535433071
          },
          {
            "duration": 0.06862741666665784,
            "durationTicks": 14,
            "midi": 44,
            "name": "G#2",
            "ticks": 33866,
            "time": 166.00972091666668,
            "velocity": 0.6535433070866141
          },
          {
            "duration": 0.06372545833335153,
            "durationTicks": 13,
            "midi": 44,
            "name": "G#2",
            "ticks": 33896,
            "time": 166.15677966666667,
            "velocity": 0.6535433070866141
          },
          {
            "duration": 0.1225489583333399,
            "durationTicks": 25,
            "midi": 40,
            "name": "E2",
            "ticks": 33926,
            "time": 166.30383841666668,
            "velocity": 0.6535433070866141
          },
          {
            "duration": 0.08823525000002519,
            "durationTicks": 18,
            "midi": 44,
            "name": "G#2",
            "ticks": 33926,
            "time": 166.30383841666668,
            "velocity": 0.6535433070866141
          },
          {
            "duration": 0.07843133333335572,
            "durationTicks": 16,
            "midi": 39,
            "name": "D#2",
            "ticks": 33926,
            "time": 166.30383841666668,
            "velocity": 0.7401574803149606
          },
          {
            "duration": 0.06862741666665784,
            "durationTicks": 14,
            "midi": 42,
            "name": "F#2",
            "ticks": 33928,
            "time": 166.31364233333338,
            "velocity": 0.6535433070866141
          },
          {
            "duration": 0.06862741666665784,
            "durationTicks": 14,
            "midi": 30,
            "name": "F#1",
            "ticks": 33928,
            "time": 166.31364233333338,
            "velocity": 0.5590551181102362
          },
          {
            "duration": 0.07352937500002099,
            "durationTicks": 15,
            "midi": 61,
            "name": "C#4",
            "ticks": 33930,
            "time": 166.32344625000002,
            "velocity": 1
          },
          {
            "duration": 0.2941174999999987,
            "durationTicks": 60,
            "midi": 36,
            "name": "C2",
            "ticks": 33955,
            "time": 166.44599520833336,
            "velocity": 0.6535433070866141
          },
          {
            "duration": 0.04901958333337575,
            "durationTicks": 10,
            "midi": 44,
            "name": "G#2",
            "ticks": 33956,
            "time": 166.45089716666666,
            "velocity": 0.6535433070866141
          },
          {
            "duration": 0.06862741666665784,
            "durationTicks": 14,
            "midi": 44,
            "name": "G#2",
            "ticks": 33986,
            "time": 166.59795591666668,
            "velocity": 0.6535433070866141
          },
          {
            "duration": 0.044117625000012595,
            "durationTicks": 9,
            "midi": 39,
            "name": "D#2",
            "ticks": 33986,
            "time": 166.59795591666668,
            "velocity": 0.4015748031496063
          },
          {
            "duration": 0.06862741666665784,
            "durationTicks": 14,
            "midi": 42,
            "name": "F#2",
            "ticks": 33988,
            "time": 166.60775983333338,
            "velocity": 0.6535433070866141
          },
          {
            "duration": 0.06862741666665784,
            "durationTicks": 14,
            "midi": 30,
            "name": "F#1",
            "ticks": 33988,
            "time": 166.60775983333338,
            "velocity": 0.5590551181102362
          },
          {
            "duration": 0.049019583333318906,
            "durationTicks": 10,
            "midi": 60,
            "name": "C4",
            "ticks": 33990,
            "time": 166.61756375000002,
            "velocity": 0.7086614173228346
          },
          {
            "duration": 0.1372548333333441,
            "durationTicks": 28,
            "midi": 40,
            "name": "E2",
            "ticks": 34016,
            "time": 166.74501466666666,
            "velocity": 0.6535433070866141
          },
          {
            "duration": 0.07352937500002099,
            "durationTicks": 15,
            "midi": 44,
            "name": "G#2",
            "ticks": 34016,
            "time": 166.74501466666666,
            "velocity": 0.6535433070866141
          },
          {
            "duration": 0.06862741666668626,
            "durationTicks": 14,
            "midi": 39,
            "name": "D#2",
            "ticks": 34016,
            "time": 166.74501466666666,
            "velocity": 0.9763779527559056
          },
          {
            "duration": 0.0637254583333231,
            "durationTicks": 13,
            "midi": 42,
            "name": "F#2",
            "ticks": 34018,
            "time": 166.75481858333336,
            "velocity": 0.6535433070866141
          },
          {
            "duration": 0.0637254583333231,
            "durationTicks": 13,
            "midi": 30,
            "name": "F#1",
            "ticks": 34018,
            "time": 166.75481858333336,
            "velocity": 0.5590551181102362
          },
          {
            "duration": 0.03921566666664944,
            "durationTicks": 8,
            "midi": 64,
            "name": "E4",
            "ticks": 34020,
            "time": 166.76462250000003,
            "velocity": 0.937007874015748
          },
          {
            "duration": 0.06862741666665784,
            "durationTicks": 14,
            "midi": 44,
            "name": "G#2",
            "ticks": 34046,
            "time": 166.89207341666668,
            "velocity": 0.6535433070866141
          },
          {
            "duration": 0.12745091666667463,
            "durationTicks": 26,
            "midi": 45,
            "name": "A2",
            "ticks": 34074,
            "time": 167.02932825000002,
            "velocity": 0.6535433070866141
          },
          {
            "duration": 0.11764700000000516,
            "durationTicks": 24,
            "midi": 35,
            "name": "B1",
            "ticks": 34074,
            "time": 167.02932825000002,
            "velocity": 0.6535433070866141
          },
          {
            "duration": 0.2941174999999987,
            "durationTicks": 60,
            "midi": 36,
            "name": "C2",
            "ticks": 34075,
            "time": 167.03423020833335,
            "velocity": 0.6535433070866141
          },
          {
            "duration": 0.0931372083333315,
            "durationTicks": 19,
            "midi": 44,
            "name": "G#2",
            "ticks": 34076,
            "time": 167.0391321666667,
            "velocity": 0.6535433070866141
          },
          {
            "duration": 0.04901958333334733,
            "durationTicks": 10,
            "midi": 39,
            "name": "D#2",
            "ticks": 34076,
            "time": 167.0391321666667,
            "velocity": 0.7401574803149606
          },
          {
            "duration": 0.05392154166668206,
            "durationTicks": 11,
            "midi": 44,
            "name": "G#2",
            "ticks": 34106,
            "time": 167.18619091666667,
            "velocity": 0.6535433070866141
          },
          {
            "duration": 0.03431370833331471,
            "durationTicks": 7,
            "midi": 44,
            "name": "G#2",
            "ticks": 34136,
            "time": 167.3332496666667,
            "velocity": 0.6535433070866141
          },
          {
            "duration": 0.044117625000012595,
            "durationTicks": 9,
            "midi": 39,
            "name": "D#2",
            "ticks": 34136,
            "time": 167.3332496666667,
            "velocity": 0.7244094488188977
          },
          {
            "duration": 0.06862741666668626,
            "durationTicks": 14,
            "midi": 44,
            "name": "G#2",
            "ticks": 34138,
            "time": 167.34305358333336,
            "velocity": 0.6535433070866141
          },
          {
            "duration": 0.024509791666645242,
            "durationTicks": 5,
            "midi": 32,
            "name": "G#1",
            "ticks": 34138,
            "time": 167.34305358333336,
            "velocity": 0.5590551181102362
          },
          {
            "duration": 0.03921566666664944,
            "durationTicks": 8,
            "midi": 60,
            "name": "C4",
            "ticks": 34140,
            "time": 167.35285750000003,
            "velocity": 1
          },
          {
            "duration": 0.11764700000003359,
            "durationTicks": 24,
            "midi": 40,
            "name": "E2",
            "ticks": 34166,
            "time": 167.48030841666667,
            "velocity": 0.6535433070866141
          },
          {
            "duration": 0.05392154166668206,
            "durationTicks": 11,
            "midi": 44,
            "name": "G#2",
            "ticks": 34166,
            "time": 167.48030841666667,
            "velocity": 0.6535433070866141
          },
          {
            "duration": 0.06372545833335153,
            "durationTicks": 13,
            "midi": 39,
            "name": "D#2",
            "ticks": 34166,
            "time": 167.48030841666667,
            "velocity": 0.6220472440944882
          },
          {
            "duration": 0.07352937499999257,
            "durationTicks": 15,
            "midi": 44,
            "name": "G#2",
            "ticks": 34168,
            "time": 167.49011233333337,
            "velocity": 0.6535433070866141
          },
          {
            "duration": 0.06862741666665784,
            "durationTicks": 14,
            "midi": 32,
            "name": "G#1",
            "ticks": 34168,
            "time": 167.49011233333337,
            "velocity": 0.5590551181102362
          },
          {
            "duration": 0.06372545833335153,
            "durationTicks": 13,
            "midi": 61,
            "name": "C#4",
            "ticks": 34170,
            "time": 167.49991625,
            "velocity": 1
          },
          {
            "duration": 0.2941174999999987,
            "durationTicks": 60,
            "midi": 36,
            "name": "C2",
            "ticks": 34195,
            "time": 167.62246520833335,
            "velocity": 0.6535433070866141
          },
          {
            "duration": 0.0637254583333231,
            "durationTicks": 13,
            "midi": 44,
            "name": "G#2",
            "ticks": 34196,
            "time": 167.6273671666667,
            "velocity": 0.6535433070866141
          },
          {
            "duration": 0.05392154166668206,
            "durationTicks": 11,
            "midi": 44,
            "name": "G#2",
            "ticks": 34226,
            "time": 167.77442591666667,
            "velocity": 0.6535433070866141
          },
          {
            "duration": 0.06372545833335153,
            "durationTicks": 13,
            "midi": 39,
            "name": "D#2",
            "ticks": 34226,
            "time": 167.77442591666667,
            "velocity": 0.5196850393700787
          },
          {
            "duration": 0.04901958333334733,
            "durationTicks": 10,
            "midi": 61,
            "name": "C#4",
            "ticks": 34230,
            "time": 167.79403375,
            "velocity": 0.7795275590551181
          },
          {
            "duration": 0.12745091666667463,
            "durationTicks": 26,
            "midi": 40,
            "name": "E2",
            "ticks": 34256,
            "time": 167.9214846666667,
            "velocity": 0.6535433070866141
          },
          {
            "duration": 0.07843133333335572,
            "durationTicks": 16,
            "midi": 44,
            "name": "G#2",
            "ticks": 34256,
            "time": 167.9214846666667,
            "velocity": 0.6535433070866141
          },
          {
            "duration": 0.06862741666665784,
            "durationTicks": 14,
            "midi": 39,
            "name": "D#2",
            "ticks": 34256,
            "time": 167.9214846666667,
            "velocity": 0.8031496062992126
          },
          {
            "duration": 0.07352937500002099,
            "durationTicks": 15,
            "midi": 44,
            "name": "G#2",
            "ticks": 34258,
            "time": 167.93128858333336,
            "velocity": 0.6535433070866141
          },
          {
            "duration": 0.06862741666668626,
            "durationTicks": 14,
            "midi": 32,
            "name": "G#1",
            "ticks": 34258,
            "time": 167.93128858333336,
            "velocity": 0.5590551181102362
          },
          {
            "duration": 0.03921566666667786,
            "durationTicks": 8,
            "midi": 62,
            "name": "D4",
            "ticks": 34260,
            "time": 167.94109250000002,
            "velocity": 1
          },
          {
            "duration": 0.06862741666668626,
            "durationTicks": 14,
            "midi": 44,
            "name": "G#2",
            "ticks": 34286,
            "time": 168.06854341666667,
            "velocity": 0.6535433070866141
          },
          {
            "duration": 0.12254895833336832,
            "durationTicks": 25,
            "midi": 35,
            "name": "B1",
            "ticks": 34314,
            "time": 168.20579825000002,
            "velocity": 0.6535433070866141
          },
          {
            "duration": 0.1372548333333441,
            "durationTicks": 28,
            "midi": 45,
            "name": "A2",
            "ticks": 34314,
            "time": 168.20579825000002,
            "velocity": 0.6535433070866141
          },
          {
            "duration": 0.2941174999999987,
            "durationTicks": 60,
            "midi": 36,
            "name": "C2",
            "ticks": 34315,
            "time": 168.21070020833335,
            "velocity": 0.6535433070866141
          },
          {
            "duration": 0.08823525000002519,
            "durationTicks": 18,
            "midi": 44,
            "name": "G#2",
            "ticks": 34316,
            "time": 168.21560216666668,
            "velocity": 0.6535433070866141
          },
          {
            "duration": 0.05392154166668206,
            "durationTicks": 11,
            "midi": 39,
            "name": "D#2",
            "ticks": 34316,
            "time": 168.21560216666668,
            "velocity": 0.8031496062992126
          },
          {
            "duration": 0.07352937499999257,
            "durationTicks": 15,
            "midi": 44,
            "name": "G#2",
            "ticks": 34346,
            "time": 168.36266091666667,
            "velocity": 0.6535433070866141
          },
          {
            "duration": 0.07352937499999257,
            "durationTicks": 15,
            "midi": 44,
            "name": "G#2",
            "ticks": 34376,
            "time": 168.50971966666668,
            "velocity": 0.6535433070866141
          },
          {
            "duration": 0.03921566666667786,
            "durationTicks": 8,
            "midi": 39,
            "name": "D#2",
            "ticks": 34376,
            "time": 168.50971966666668,
            "velocity": 0.6614173228346457
          },
          {
            "duration": 0.05882349999995995,
            "durationTicks": 12,
            "midi": 41,
            "name": "F2",
            "ticks": 34378,
            "time": 168.51952358333338,
            "velocity": 0.6535433070866141
          },
          {
            "duration": 0.05392154166662522,
            "durationTicks": 11,
            "midi": 29,
            "name": "F1",
            "ticks": 34378,
            "time": 168.51952358333338,
            "velocity": 0.5590551181102362
          },
          {
            "duration": 0.01960783333333893,
            "durationTicks": 4,
            "midi": 62,
            "name": "D4",
            "ticks": 34380,
            "time": 168.52932750000002,
            "velocity": 1
          },
          {
            "duration": 0.10294112500000097,
            "durationTicks": 21,
            "midi": 40,
            "name": "E2",
            "ticks": 34406,
            "time": 168.65677841666667,
            "velocity": 0.6535433070866141
          },
          {
            "duration": 0.06862741666668626,
            "durationTicks": 14,
            "midi": 44,
            "name": "G#2",
            "ticks": 34406,
            "time": 168.65677841666667,
            "velocity": 0.6535433070866141
          },
          {
            "duration": 0.07352937500002099,
            "durationTicks": 15,
            "midi": 39,
            "name": "D#2",
            "ticks": 34406,
            "time": 168.65677841666667,
            "velocity": 0.8503937007874016
          },
          {
            "duration": 0.08823524999999677,
            "durationTicks": 18,
            "midi": 41,
            "name": "F2",
            "ticks": 34408,
            "time": 168.66658233333337,
            "velocity": 0.6535433070866141
          },
          {
            "duration": 0.09313720833330308,
            "durationTicks": 19,
            "midi": 29,
            "name": "F1",
            "ticks": 34408,
            "time": 168.66658233333337,
            "velocity": 0.5590551181102362
          },
          {
            "duration": 0.0637254583333231,
            "durationTicks": 13,
            "midi": 63,
            "name": "D#4",
            "ticks": 34410,
            "time": 168.67638625000004,
            "velocity": 1
          },
          {
            "duration": 0.2941174999999987,
            "durationTicks": 60,
            "midi": 36,
            "name": "C2",
            "ticks": 34435,
            "time": 168.79893520833335,
            "velocity": 0.6535433070866141
          },
          {
            "duration": 0.07352937499999257,
            "durationTicks": 15,
            "midi": 44,
            "name": "G#2",
            "ticks": 34436,
            "time": 168.80383716666668,
            "velocity": 0.6535433070866141
          },
          {
            "duration": 0.06862741666668626,
            "durationTicks": 14,
            "midi": 44,
            "name": "G#2",
            "ticks": 34466,
            "time": 168.95089591666667,
            "velocity": 0.6535433070866141
          },
          {
            "duration": 0.049019583333318906,
            "durationTicks": 10,
            "midi": 41,
            "name": "F2",
            "ticks": 34468,
            "time": 168.96069983333336,
            "velocity": 0.6535433070866141
          },
          {
            "duration": 0.049019583333318906,
            "durationTicks": 10,
            "midi": 29,
            "name": "F1",
            "ticks": 34468,
            "time": 168.96069983333336,
            "velocity": 0.5590551181102362
          },
          {
            "duration": 0.014705874999975777,
            "durationTicks": 3,
            "midi": 62,
            "name": "D4",
            "ticks": 34470,
            "time": 168.97050375000003,
            "velocity": 0.5748031496062992
          },
          {
            "duration": 0.11764700000003359,
            "durationTicks": 24,
            "midi": 40,
            "name": "E2",
            "ticks": 34496,
            "time": 169.09795466666668,
            "velocity": 0.6535433070866141
          },
          {
            "duration": 0.06862741666665784,
            "durationTicks": 14,
            "midi": 44,
            "name": "G#2",
            "ticks": 34496,
            "time": 169.09795466666668,
            "velocity": 0.6535433070866141
          },
          {
            "duration": 0.04901958333334733,
            "durationTicks": 10,
            "midi": 39,
            "name": "D#2",
            "ticks": 34496,
            "time": 169.09795466666668,
            "velocity": 0.8267716535433071
          },
          {
            "duration": 0.11274504166664201,
            "durationTicks": 23,
            "midi": 41,
            "name": "F2",
            "ticks": 34498,
            "time": 169.10775858333338,
            "velocity": 0.6535433070866141
          },
          {
            "duration": 0.11274504166664201,
            "durationTicks": 23,
            "midi": 29,
            "name": "F1",
            "ticks": 34498,
            "time": 169.10775858333338,
            "velocity": 0.5590551181102362
          },
          {
            "duration": 0.03921566666667786,
            "durationTicks": 8,
            "midi": 64,
            "name": "E4",
            "ticks": 34500,
            "time": 169.11756250000002,
            "velocity": 1
          },
          {
            "duration": 0.06372545833335153,
            "durationTicks": 13,
            "midi": 44,
            "name": "G#2",
            "ticks": 34526,
            "time": 169.24501341666667,
            "velocity": 0.6535433070866141
          },
          {
            "duration": 0.029411750000008396,
            "durationTicks": 6,
            "midi": 60,
            "name": "C4",
            "ticks": 34530,
            "time": 169.26462125000003,
            "velocity": 0.8267716535433071
          },
          {
            "duration": 0.024509791666673664,
            "durationTicks": 5,
            "midi": 61,
            "name": "C#4",
            "ticks": 34530,
            "time": 169.26462125000003,
            "velocity": 0.5748031496062992
          },
          {
            "duration": 0.11764700000000516,
            "durationTicks": 24,
            "midi": 35,
            "name": "B1",
            "ticks": 34554,
            "time": 169.38226825,
            "velocity": 0.6535433070866141
          },
          {
            "duration": 0.12254895833336832,
            "durationTicks": 25,
            "midi": 45,
            "name": "A2",
            "ticks": 34554,
            "time": 169.38226825,
            "velocity": 0.6535433070866141
          },
          {
            "duration": 0.2941174999999987,
            "durationTicks": 60,
            "midi": 36,
            "name": "C2",
            "ticks": 34555,
            "time": 169.38717020833334,
            "velocity": 0.6535433070866141
          },
          {
            "duration": 0.07352937499999257,
            "durationTicks": 15,
            "midi": 44,
            "name": "G#2",
            "ticks": 34556,
            "time": 169.39207216666668,
            "velocity": 0.6535433070866141
          },
          {
            "duration": 0.04901958333334733,
            "durationTicks": 10,
            "midi": 39,
            "name": "D#2",
            "ticks": 34556,
            "time": 169.39207216666668,
            "velocity": 0.8818897637795275
          },
          {
            "duration": 0.024509791666673664,
            "durationTicks": 5,
            "midi": 60,
            "name": "C4",
            "ticks": 34560,
            "time": 169.41168000000002,
            "velocity": 0.8818897637795275
          },
          {
            "duration": 0.06372545833335153,
            "durationTicks": 13,
            "midi": 44,
            "name": "G#2",
            "ticks": 34586,
            "time": 169.53913091666666,
            "velocity": 0.6535433070866141
          },
          {
            "duration": 0.08823525000002519,
            "durationTicks": 18,
            "midi": 44,
            "name": "G#2",
            "ticks": 34616,
            "time": 169.68618966666668,
            "velocity": 0.6535433070866141
          },
          {
            "duration": 0.024509791666673664,
            "durationTicks": 5,
            "midi": 39,
            "name": "D#2",
            "ticks": 34616,
            "time": 169.68618966666668,
            "velocity": 0.6141732283464567
          },
          {
            "duration": 0.06862741666665784,
            "durationTicks": 14,
            "midi": 42,
            "name": "F#2",
            "ticks": 34618,
            "time": 169.69599358333338,
            "velocity": 0.6535433070866141
          },
          {
            "duration": 0.06862741666665784,
            "durationTicks": 14,
            "midi": 30,
            "name": "F#1",
            "ticks": 34618,
            "time": 169.69599358333338,
            "velocity": 0.5590551181102362
          },
          {
            "duration": 0.024509791666673664,
            "durationTicks": 5,
            "midi": 62,
            "name": "D4",
            "ticks": 34620,
            "time": 169.70579750000002,
            "velocity": 1
          },
          {
            "duration": 0.08823525000002519,
            "durationTicks": 18,
            "midi": 40,
            "name": "E2",
            "ticks": 34646,
            "time": 169.83324841666666,
            "velocity": 0.6535433070866141
          },
          {
            "duration": 0.04901958333337575,
            "durationTicks": 10,
            "midi": 44,
            "name": "G#2",
            "ticks": 34646,
            "time": 169.83324841666666,
            "velocity": 0.6535433070866141
          },
          {
            "duration": 0.07352937500002099,
            "durationTicks": 15,
            "midi": 39,
            "name": "D#2",
            "ticks": 34646,
            "time": 169.83324841666666,
            "velocity": 0.6929133858267716
          },
          {
            "duration": 0.08823524999999677,
            "durationTicks": 18,
            "midi": 42,
            "name": "F#2",
            "ticks": 34648,
            "time": 169.84305233333336,
            "velocity": 0.6535433070866141
          },
          {
            "duration": 0.08823524999999677,
            "durationTicks": 18,
            "midi": 30,
            "name": "F#1",
            "ticks": 34648,
            "time": 169.84305233333336,
            "velocity": 0.5590551181102362
          },
          {
            "duration": 0.04411762499998417,
            "durationTicks": 9,
            "midi": 61,
            "name": "C#4",
            "ticks": 34650,
            "time": 169.85285625000003,
            "velocity": 1
          },
          {
            "duration": 0.2941174999999987,
            "durationTicks": 60,
            "midi": 36,
            "name": "C2",
            "ticks": 34675,
            "time": 169.97540520833334,
            "velocity": 0.6535433070866141
          },
          {
            "duration": 0.07843133333335572,
            "durationTicks": 16,
            "midi": 44,
            "name": "G#2",
            "ticks": 34676,
            "time": 169.98030716666668,
            "velocity": 0.6535433070866141
          },
          {
            "duration": 0.06862741666665784,
            "durationTicks": 14,
            "midi": 44,
            "name": "G#2",
            "ticks": 34706,
            "time": 170.1273659166667,
            "velocity": 0.6535433070866141
          },
          {
            "duration": 0.04411762499998417,
            "durationTicks": 9,
            "midi": 63,
            "name": "D#4",
            "ticks": 34710,
            "time": 170.14697375000003,
            "velocity": 0.9763779527559056
          },
          {
            "duration": 0.1078430833333357,
            "durationTicks": 22,
            "midi": 40,
            "name": "E2",
            "ticks": 34736,
            "time": 170.27442466666668,
            "velocity": 0.6535433070866141
          },
          {
            "duration": 0.07843133333335572,
            "durationTicks": 16,
            "midi": 44,
            "name": "G#2",
            "ticks": 34736,
            "time": 170.27442466666668,
            "velocity": 0.6535433070866141
          },
          {
            "duration": 0.06862741666668626,
            "durationTicks": 14,
            "midi": 39,
            "name": "D#2",
            "ticks": 34736,
            "time": 170.27442466666668,
            "velocity": 0.905511811023622
          },
          {
            "duration": 0.06372545833329468,
            "durationTicks": 13,
            "midi": 42,
            "name": "F#2",
            "ticks": 34738,
            "time": 170.28422858333337,
            "velocity": 0.6535433070866141
          },
          {
            "duration": 0.06372545833329468,
            "durationTicks": 13,
            "midi": 30,
            "name": "F#1",
            "ticks": 34738,
            "time": 170.28422858333337,
            "velocity": 0.5590551181102362
          },
          {
            "duration": 0.029411750000008396,
            "durationTicks": 6,
            "midi": 64,
            "name": "E4",
            "ticks": 34740,
            "time": 170.29403250000001,
            "velocity": 0.7795275590551181
          },
          {
            "duration": 0.0637254583333231,
            "durationTicks": 13,
            "midi": 44,
            "name": "G#2",
            "ticks": 34766,
            "time": 170.4214834166667,
            "velocity": 0.6535433070866141
          },
          {
            "duration": 0.05392154166665364,
            "durationTicks": 11,
            "midi": 60,
            "name": "C4",
            "ticks": 34770,
            "time": 170.44109125000003,
            "velocity": 0.8818897637795275
          },
          {
            "duration": 0.1372548333333441,
            "durationTicks": 28,
            "midi": 45,
            "name": "A2",
            "ticks": 34794,
            "time": 170.55873825,
            "velocity": 0.6535433070866141
          },
          {
            "duration": 0.11764700000000516,
            "durationTicks": 24,
            "midi": 35,
            "name": "B1",
            "ticks": 34794,
            "time": 170.55873825,
            "velocity": 0.6535433070866141
          },
          {
            "duration": 0.2941174999999987,
            "durationTicks": 60,
            "midi": 36,
            "name": "C2",
            "ticks": 34795,
            "time": 170.56364020833334,
            "velocity": 0.6535433070866141
          },
          {
            "duration": 0.07843133333335572,
            "durationTicks": 16,
            "midi": 44,
            "name": "G#2",
            "ticks": 34796,
            "time": 170.56854216666667,
            "velocity": 0.6535433070866141
          },
          {
            "duration": 0.06372545833335153,
            "durationTicks": 13,
            "midi": 39,
            "name": "D#2",
            "ticks": 34796,
            "time": 170.56854216666667,
            "velocity": 0.8267716535433071
          },
          {
            "duration": 0.044117625000012595,
            "durationTicks": 9,
            "midi": 63,
            "name": "D#4",
            "ticks": 34800,
            "time": 170.58815,
            "velocity": 1
          },
          {
            "duration": 0.06862741666665784,
            "durationTicks": 14,
            "midi": 44,
            "name": "G#2",
            "ticks": 34826,
            "time": 170.7156009166667,
            "velocity": 0.6535433070866141
          },
          {
            "duration": 0.029411750000008396,
            "durationTicks": 6,
            "midi": 62,
            "name": "D4",
            "ticks": 34830,
            "time": 170.73520875000003,
            "velocity": 0.9763779527559056
          },
          {
            "duration": 0.06862741666668626,
            "durationTicks": 14,
            "midi": 44,
            "name": "G#2",
            "ticks": 34856,
            "time": 170.86265966666667,
            "velocity": 0.6535433070866141
          },
          {
            "duration": 0.029411750000008396,
            "durationTicks": 6,
            "midi": 39,
            "name": "D#2",
            "ticks": 34856,
            "time": 170.86265966666667,
            "velocity": 0.5669291338582677
          },
          {
            "duration": 0.06372545833329468,
            "durationTicks": 13,
            "midi": 44,
            "name": "G#2",
            "ticks": 34858,
            "time": 170.87246358333337,
            "velocity": 0.6535433070866141
          },
          {
            "duration": 0.06862741666665784,
            "durationTicks": 14,
            "midi": 32,
            "name": "G#1",
            "ticks": 34858,
            "time": 170.87246358333337,
            "velocity": 0.5590551181102362
          },
          {
            "duration": 0.07352937499999257,
            "durationTicks": 15,
            "midi": 40,
            "name": "E2",
            "ticks": 34886,
            "time": 171.0097184166667,
            "velocity": 0.6535433070866141
          },
          {
            "duration": 0.07352937499999257,
            "durationTicks": 15,
            "midi": 44,
            "name": "G#2",
            "ticks": 34886,
            "time": 171.0097184166667,
            "velocity": 0.6535433070866141
          },
          {
            "duration": 0.07352937499999257,
            "durationTicks": 15,
            "midi": 39,
            "name": "D#2",
            "ticks": 34886,
            "time": 171.0097184166667,
            "velocity": 0.7244094488188977
          },
          {
            "duration": 0.0931372083333315,
            "durationTicks": 19,
            "midi": 44,
            "name": "G#2",
            "ticks": 34888,
            "time": 171.01952233333336,
            "velocity": 0.6535433070866141
          },
          {
            "duration": 0.0931372083333315,
            "durationTicks": 19,
            "midi": 32,
            "name": "G#1",
            "ticks": 34888,
            "time": 171.01952233333336,
            "velocity": 0.5590551181102362
          },
          {
            "duration": 0.03431370833334313,
            "durationTicks": 7,
            "midi": 61,
            "name": "C#4",
            "ticks": 34890,
            "time": 171.02932625000003,
            "velocity": 1
          },
          {
            "duration": 0.2941174999999987,
            "durationTicks": 60,
            "midi": 36,
            "name": "C2",
            "ticks": 34915,
            "time": 171.15187520833334,
            "velocity": 0.6535433070866141
          },
          {
            "duration": 0.07843133333335572,
            "durationTicks": 16,
            "midi": 44,
            "name": "G#2",
            "ticks": 34916,
            "time": 171.15677716666667,
            "velocity": 0.6535433070866141
          },
          {
            "duration": 0.04901958333334733,
            "durationTicks": 10,
            "midi": 44,
            "name": "G#2",
            "ticks": 34946,
            "time": 171.30383591666669,
            "velocity": 0.6535433070866141
          },
          {
            "duration": 0.0637254583333231,
            "durationTicks": 13,
            "midi": 44,
            "name": "G#2",
            "ticks": 34948,
            "time": 171.31363983333335,
            "velocity": 0.6535433070866141
          },
          {
            "duration": 0.03921566666667786,
            "durationTicks": 8,
            "midi": 32,
            "name": "G#1",
            "ticks": 34948,
            "time": 171.31363983333335,
            "velocity": 0.5590551181102362
          },
          {
            "duration": 0.07352937499999257,
            "durationTicks": 15,
            "midi": 60,
            "name": "C4",
            "ticks": 34950,
            "time": 171.32344375000002,
            "velocity": 1
          },
          {
            "duration": 0.11764700000003359,
            "durationTicks": 24,
            "midi": 40,
            "name": "E2",
            "ticks": 34976,
            "time": 171.45089466666667,
            "velocity": 0.6535433070866141
          },
          {
            "duration": 0.07843133333335572,
            "durationTicks": 16,
            "midi": 44,
            "name": "G#2",
            "ticks": 34976,
            "time": 171.45089466666667,
            "velocity": 0.6535433070866141
          },
          {
            "duration": 0.029411750000008396,
            "durationTicks": 6,
            "midi": 39,
            "name": "D#2",
            "ticks": 34976,
            "time": 171.45089466666667,
            "velocity": 0.7244094488188977
          },
          {
            "duration": 0.06862741666665784,
            "durationTicks": 14,
            "midi": 44,
            "name": "G#2",
            "ticks": 34978,
            "time": 171.46069858333337,
            "velocity": 0.6535433070866141
          },
          {
            "duration": 0.06862741666665784,
            "durationTicks": 14,
            "midi": 32,
            "name": "G#1",
            "ticks": 34978,
            "time": 171.46069858333337,
            "velocity": 0.5590551181102362
          },
          {
            "duration": 0.049019583333318906,
            "durationTicks": 10,
            "midi": 64,
            "name": "E4",
            "ticks": 34980,
            "time": 171.47050250000004,
            "velocity": 1
          },
          {
            "duration": 0.06862741666665784,
            "durationTicks": 14,
            "midi": 44,
            "name": "G#2",
            "ticks": 35006,
            "time": 171.59795341666668,
            "velocity": 0.6535433070866141
          },
          {
            "duration": 0.11764699999997674,
            "durationTicks": 24,
            "midi": 35,
            "name": "B1",
            "ticks": 35034,
            "time": 171.73520825000003,
            "velocity": 0.6535433070866141
          },
          {
            "duration": 0.1421567916666504,
            "durationTicks": 29,
            "midi": 45,
            "name": "A2",
            "ticks": 35034,
            "time": 171.73520825000003,
            "velocity": 0.6535433070866141
          },
          {
            "duration": 0.2941175000000271,
            "durationTicks": 60,
            "midi": 36,
            "name": "C2",
            "ticks": 35035,
            "time": 171.74011020833333,
            "velocity": 0.6535433070866141
          },
          {
            "duration": 0.08823525000002519,
            "durationTicks": 18,
            "midi": 44,
            "name": "G#2",
            "ticks": 35036,
            "time": 171.74501216666667,
            "velocity": 0.6535433070866141
          },
          {
            "duration": 0.06372545833335153,
            "durationTicks": 13,
            "midi": 39,
            "name": "D#2",
            "ticks": 35036,
            "time": 171.74501216666667,
            "velocity": 0.905511811023622
          },
          {
            "duration": 0.05882350000001679,
            "durationTicks": 12,
            "midi": 62,
            "name": "D4",
            "ticks": 35040,
            "time": 171.76462000000004,
            "velocity": 0.937007874015748
          },
          {
            "duration": 0.0637254583333231,
            "durationTicks": 13,
            "midi": 44,
            "name": "G#2",
            "ticks": 35066,
            "time": 171.89207091666668,
            "velocity": 0.6535433070866141
          },
          {
            "duration": 0.07352937500002099,
            "durationTicks": 15,
            "midi": 44,
            "name": "G#2",
            "ticks": 35096,
            "time": 172.03912966666667,
            "velocity": 0.6535433070866141
          },
          {
            "duration": 0.049019583333318906,
            "durationTicks": 10,
            "midi": 46,
            "name": "A#2",
            "ticks": 35098,
            "time": 172.04893358333337,
            "velocity": 0.6535433070866141
          },
          {
            "duration": 0.049019583333318906,
            "durationTicks": 10,
            "midi": 34,
            "name": "A#1",
            "ticks": 35098,
            "time": 172.04893358333337,
            "velocity": 0.5590551181102362
          },
          {
            "duration": 0.03921566666664944,
            "durationTicks": 8,
            "midi": 63,
            "name": "D#4",
            "ticks": 35100,
            "time": 172.05873750000003,
            "velocity": 1
          },
          {
            "duration": 0.0931372083333315,
            "durationTicks": 19,
            "midi": 40,
            "name": "E2",
            "ticks": 35126,
            "time": 172.18618841666668,
            "velocity": 0.6535433070866141
          },
          {
            "duration": 0.07352937499999257,
            "durationTicks": 15,
            "midi": 44,
            "name": "G#2",
            "ticks": 35126,
            "time": 172.18618841666668,
            "velocity": 0.6535433070866141
          },
          {
            "duration": 0.07352937499999257,
            "durationTicks": 15,
            "midi": 39,
            "name": "D#2",
            "ticks": 35126,
            "time": 172.18618841666668,
            "velocity": 0.7086614173228346
          },
          {
            "duration": 0.07352937499999257,
            "durationTicks": 15,
            "midi": 46,
            "name": "A#2",
            "ticks": 35128,
            "time": 172.19599233333338,
            "velocity": 0.6535433070866141
          },
          {
            "duration": 0.07352937499999257,
            "durationTicks": 15,
            "midi": 34,
            "name": "A#1",
            "ticks": 35128,
            "time": 172.19599233333338,
            "velocity": 0.5590551181102362
          },
          {
            "duration": 0.03431370833334313,
            "durationTicks": 7,
            "midi": 62,
            "name": "D4",
            "ticks": 35130,
            "time": 172.20579625000002,
            "velocity": 0.937007874015748
          },
          {
            "duration": 0.2941174999999987,
            "durationTicks": 60,
            "midi": 36,
            "name": "C2",
            "ticks": 35155,
            "time": 172.32834520833336,
            "velocity": 0.6535433070866141
          },
          {
            "duration": 0.07352937500002099,
            "durationTicks": 15,
            "midi": 44,
            "name": "G#2",
            "ticks": 35156,
            "time": 172.33324716666667,
            "velocity": 0.6535433070866141
          },
          {
            "duration": 0.014705875000004198,
            "durationTicks": 3,
            "midi": 46,
            "name": "A#2",
            "ticks": 35158,
            "time": 172.34305108333336,
            "velocity": 0.6535433070866141
          },
          {
            "duration": 0.014705875000004198,
            "durationTicks": 3,
            "midi": 34,
            "name": "A#1",
            "ticks": 35158,
            "time": 172.34305108333336,
            "velocity": 0.5590551181102362
          },
          {
            "duration": 0.06862741666665784,
            "durationTicks": 14,
            "midi": 44,
            "name": "G#2",
            "ticks": 35186,
            "time": 172.48030591666668,
            "velocity": 0.6535433070866141
          },
          {
            "duration": 0.05392154166665364,
            "durationTicks": 11,
            "midi": 46,
            "name": "A#2",
            "ticks": 35188,
            "time": 172.49010983333338,
            "velocity": 0.6535433070866141
          },
          {
            "duration": 0.05392154166665364,
            "durationTicks": 11,
            "midi": 34,
            "name": "A#1",
            "ticks": 35188,
            "time": 172.49010983333338,
            "velocity": 0.5590551181102362
          },
          {
            "duration": 0.03431370833334313,
            "durationTicks": 7,
            "midi": 61,
            "name": "C#4",
            "ticks": 35190,
            "time": 172.49991375000002,
            "velocity": 0.9763779527559056
          },
          {
            "duration": 0.11274504166669885,
            "durationTicks": 23,
            "midi": 40,
            "name": "E2",
            "ticks": 35216,
            "time": 172.62736466666667,
            "velocity": 0.6535433070866141
          },
          {
            "duration": 0.08823525000002519,
            "durationTicks": 18,
            "midi": 44,
            "name": "G#2",
            "ticks": 35216,
            "time": 172.62736466666667,
            "velocity": 0.6535433070866141
          },
          {
            "duration": 0.04901958333337575,
            "durationTicks": 10,
            "midi": 39,
            "name": "D#2",
            "ticks": 35216,
            "time": 172.62736466666667,
            "velocity": 0.937007874015748
          },
          {
            "duration": 0.0637254583333231,
            "durationTicks": 13,
            "midi": 46,
            "name": "A#2",
            "ticks": 35218,
            "time": 172.63716858333336,
            "velocity": 0.6535433070866141
          },
          {
            "duration": 0.06862741666668626,
            "durationTicks": 14,
            "midi": 34,
            "name": "A#1",
            "ticks": 35218,
            "time": 172.63716858333336,
            "velocity": 0.5590551181102362
          },
          {
            "duration": 0.04411762499998417,
            "durationTicks": 9,
            "midi": 64,
            "name": "E4",
            "ticks": 35220,
            "time": 172.64697250000003,
            "velocity": 0.937007874015748
          },
          {
            "duration": 0.06372545833335153,
            "durationTicks": 13,
            "midi": 44,
            "name": "G#2",
            "ticks": 35246,
            "time": 172.77442341666668,
            "velocity": 0.6535433070866141
          },
          {
            "duration": 0.11274504166667043,
            "durationTicks": 23,
            "midi": 45,
            "name": "A2",
            "ticks": 35274,
            "time": 172.91167825000002,
            "velocity": 0.6535433070866141
          },
          {
            "duration": 0.11274504166667043,
            "durationTicks": 23,
            "midi": 35,
            "name": "B1",
            "ticks": 35274,
            "time": 172.91167825000002,
            "velocity": 0.6535433070866141
          },
          {
            "duration": 0.2941174999999987,
            "durationTicks": 60,
            "midi": 36,
            "name": "C2",
            "ticks": 35275,
            "time": 172.91658020833336,
            "velocity": 0.6535433070866141
          },
          {
            "duration": 0.07843133333338415,
            "durationTicks": 16,
            "midi": 49,
            "name": "C#3",
            "ticks": 35276,
            "time": 172.92148216666666,
            "velocity": 0.6535433070866141
          },
          {
            "duration": 0.03431370833334313,
            "durationTicks": 7,
            "midi": 39,
            "name": "D#2",
            "ticks": 35276,
            "time": 172.92148216666666,
            "velocity": 0.7086614173228346
          },
          {
            "duration": 0.06862741666665784,
            "durationTicks": 14,
            "midi": 44,
            "name": "G#2",
            "ticks": 35306,
            "time": 173.06854091666668,
            "velocity": 0.6535433070866141
          },
          {
            "duration": 0.05392154166665364,
            "durationTicks": 11,
            "midi": 63,
            "name": "D#4",
            "ticks": 35310,
            "time": 173.08814875000002,
            "velocity": 1
          },
          {
            "duration": 0.07843133333335572,
            "durationTicks": 16,
            "midi": 44,
            "name": "G#2",
            "ticks": 35336,
            "time": 173.2155996666667,
            "velocity": 0.6535433070866141
          },
          {
            "duration": 0.05392154166668206,
            "durationTicks": 11,
            "midi": 39,
            "name": "D#2",
            "ticks": 35336,
            "time": 173.2155996666667,
            "velocity": 0.8503937007874016
          },
          {
            "duration": 0.05392154166665364,
            "durationTicks": 11,
            "midi": 46,
            "name": "A#2",
            "ticks": 35338,
            "time": 173.22540358333336,
            "velocity": 0.6535433070866141
          },
          {
            "duration": 0.05392154166665364,
            "durationTicks": 11,
            "midi": 34,
            "name": "A#1",
            "ticks": 35338,
            "time": 173.22540358333336,
            "velocity": 0.5590551181102362
          },
          {
            "duration": 0.11274504166669885,
            "durationTicks": 23,
            "midi": 40,
            "name": "E2",
            "ticks": 35366,
            "time": 173.36265841666668,
            "velocity": 0.6535433070866141
          },
          {
            "duration": 0.07352937499999257,
            "durationTicks": 15,
            "midi": 44,
            "name": "G#2",
            "ticks": 35366,
            "time": 173.36265841666668,
            "velocity": 0.6535433070866141
          },
          {
            "duration": 0.08823525000002519,
            "durationTicks": 18,
            "midi": 39,
            "name": "D#2",
            "ticks": 35366,
            "time": 173.36265841666668,
            "velocity": 0.6614173228346457
          },
          {
            "duration": 0.09313720833330308,
            "durationTicks": 19,
            "midi": 46,
            "name": "A#2",
            "ticks": 35368,
            "time": 173.37246233333337,
            "velocity": 0.6535433070866141
          },
          {
            "duration": 0.09313720833330308,
            "durationTicks": 19,
            "midi": 34,
            "name": "A#1",
            "ticks": 35368,
            "time": 173.37246233333337,
            "velocity": 0.5590551181102362
          },
          {
            "duration": 0.03921566666667786,
            "durationTicks": 8,
            "midi": 62,
            "name": "D4",
            "ticks": 35370,
            "time": 173.38226625000001,
            "velocity": 1
          },
          {
            "duration": 0.2941174999999987,
            "durationTicks": 60,
            "midi": 36,
            "name": "C2",
            "ticks": 35395,
            "time": 173.50481520833335,
            "velocity": 0.6535433070866141
          },
          {
            "duration": 0.0637254583333231,
            "durationTicks": 13,
            "midi": 49,
            "name": "C#3",
            "ticks": 35396,
            "time": 173.5097171666667,
            "velocity": 0.6535433070866141
          },
          {
            "duration": 0.024509791666673664,
            "durationTicks": 5,
            "midi": 39,
            "name": "D#2",
            "ticks": 35396,
            "time": 173.5097171666667,
            "velocity": 0.5905511811023622
          },
          {
            "duration": 0.05392154166668206,
            "durationTicks": 11,
            "midi": 44,
            "name": "G#2",
            "ticks": 35426,
            "time": 173.65677591666667,
            "velocity": 0.6535433070866141
          },
          {
            "duration": 0.0784313333333273,
            "durationTicks": 16,
            "midi": 46,
            "name": "A#2",
            "ticks": 35428,
            "time": 173.66657983333337,
            "velocity": 0.6535433070866141
          },
          {
            "duration": 0.0784313333333273,
            "durationTicks": 16,
            "midi": 34,
            "name": "A#1",
            "ticks": 35428,
            "time": 173.66657983333337,
            "velocity": 0.5590551181102362
          },
          {
            "duration": 0.019607833333367353,
            "durationTicks": 4,
            "midi": 61,
            "name": "C#4",
            "ticks": 35430,
            "time": 173.67638375,
            "velocity": 0.9763779527559056
          },
          {
            "duration": 0.10294112500000097,
            "durationTicks": 21,
            "midi": 40,
            "name": "E2",
            "ticks": 35456,
            "time": 173.8038346666667,
            "velocity": 0.6535433070866141
          },
          {
            "duration": 0.07843133333335572,
            "durationTicks": 16,
            "midi": 44,
            "name": "G#2",
            "ticks": 35456,
            "time": 173.8038346666667,
            "velocity": 0.6535433070866141
          },
          {
            "duration": 0.0637254583333231,
            "durationTicks": 13,
            "midi": 46,
            "name": "A#2",
            "ticks": 35458,
            "time": 173.81363858333336,
            "velocity": 0.6535433070866141
          },
          {
            "duration": 0.05392154166665364,
            "durationTicks": 11,
            "midi": 34,
            "name": "A#1",
            "ticks": 35458,
            "time": 173.81363858333336,
            "velocity": 0.5590551181102362
          },
          {
            "duration": 0.014705874999975777,
            "durationTicks": 3,
            "midi": 66,
            "name": "F#4",
            "ticks": 35460,
            "time": 173.82344250000003,
            "velocity": 0.9763779527559056
          },
          {
            "duration": 0.07843133333335572,
            "durationTicks": 16,
            "midi": 44,
            "name": "G#2",
            "ticks": 35486,
            "time": 173.95089341666667,
            "velocity": 0.6535433070866141
          },
          {
            "duration": 0.1568626666666546,
            "durationTicks": 32,
            "midi": 45,
            "name": "A2",
            "ticks": 35514,
            "time": 174.08814825000002,
            "velocity": 0.6535433070866141
          },
          {
            "duration": 0.11274504166667043,
            "durationTicks": 23,
            "midi": 35,
            "name": "B1",
            "ticks": 35514,
            "time": 174.08814825000002,
            "velocity": 0.6535433070866141
          },
          {
            "duration": 0.2941174999999987,
            "durationTicks": 60,
            "midi": 36,
            "name": "C2",
            "ticks": 35515,
            "time": 174.09305020833335,
            "velocity": 0.6535433070866141
          },
          {
            "duration": 0.11764700000000516,
            "durationTicks": 24,
            "midi": 57,
            "name": "A3",
            "ticks": 35516,
            "time": 174.0979521666667,
            "velocity": 0.6535433070866141
          },
          {
            "duration": 0.05882350000001679,
            "durationTicks": 12,
            "midi": 39,
            "name": "D#2",
            "ticks": 35516,
            "time": 174.0979521666667,
            "velocity": 0.8818897637795275
          },
          {
            "duration": 0.06862741666668626,
            "durationTicks": 14,
            "midi": 44,
            "name": "G#2",
            "ticks": 35546,
            "time": 174.24501091666667,
            "velocity": 0.6535433070866141
          },
          {
            "duration": 0.044117625000012595,
            "durationTicks": 9,
            "midi": 39,
            "name": "D#2",
            "ticks": 35576,
            "time": 174.39206966666669,
            "velocity": 0.7244094488188977
          },
          {
            "duration": 0.07352937500002099,
            "durationTicks": 15,
            "midi": 46,
            "name": "A#2",
            "ticks": 35578,
            "time": 174.40187358333336,
            "velocity": 0.6535433070866141
          },
          {
            "duration": 0.07352937500002099,
            "durationTicks": 15,
            "midi": 34,
            "name": "A#1",
            "ticks": 35578,
            "time": 174.40187358333336,
            "velocity": 0.5590551181102362
          },
          {
            "duration": 0.024509791666673664,
            "durationTicks": 5,
            "midi": 60,
            "name": "C4",
            "ticks": 35580,
            "time": 174.41167750000002,
            "velocity": 0.6535433070866141
          },
          {
            "duration": 0.09313720833335992,
            "durationTicks": 19,
            "midi": 40,
            "name": "E2",
            "ticks": 35606,
            "time": 174.53912841666667,
            "velocity": 0.6535433070866141
          },
          {
            "duration": 0.05392154166668206,
            "durationTicks": 11,
            "midi": 44,
            "name": "G#2",
            "ticks": 35606,
            "time": 174.53912841666667,
            "velocity": 0.6535433070866141
          },
          {
            "duration": 0.08823525000002519,
            "durationTicks": 18,
            "midi": 39,
            "name": "D#2",
            "ticks": 35606,
            "time": 174.53912841666667,
            "velocity": 0.6929133858267716
          },
          {
            "duration": 0.09803916666663781,
            "durationTicks": 20,
            "midi": 46,
            "name": "A#2",
            "ticks": 35608,
            "time": 174.54893233333337,
            "velocity": 0.6535433070866141
          },
          {
            "duration": 0.09803916666663781,
            "durationTicks": 20,
            "midi": 34,
            "name": "A#1",
            "ticks": 35608,
            "time": 174.54893233333337,
            "velocity": 0.5590551181102362
          },
          {
            "duration": 0.04411762499998417,
            "durationTicks": 9,
            "midi": 61,
            "name": "C#4",
            "ticks": 35610,
            "time": 174.55873625000004,
            "velocity": 1
          },
          {
            "duration": 0.2941174999999987,
            "durationTicks": 60,
            "midi": 36,
            "name": "C2",
            "ticks": 35635,
            "time": 174.68128520833335,
            "velocity": 0.6535433070866141
          },
          {
            "duration": 0.07843133333335572,
            "durationTicks": 16,
            "midi": 44,
            "name": "G#2",
            "ticks": 35636,
            "time": 174.68618716666668,
            "velocity": 0.6535433070866141
          },
          {
            "duration": 0.06372545833335153,
            "durationTicks": 13,
            "midi": 44,
            "name": "G#2",
            "ticks": 35666,
            "time": 174.83324591666667,
            "velocity": 0.6535433070866141
          },
          {
            "duration": 0.0784313333333273,
            "durationTicks": 16,
            "midi": 46,
            "name": "A#2",
            "ticks": 35668,
            "time": 174.84304983333337,
            "velocity": 0.6535433070866141
          },
          {
            "duration": 0.08823524999999677,
            "durationTicks": 18,
            "midi": 34,
            "name": "A#1",
            "ticks": 35668,
            "time": 174.84304983333337,
            "velocity": 0.5590551181102362
          },
          {
            "duration": 0.03431370833331471,
            "durationTicks": 7,
            "midi": 62,
            "name": "D4",
            "ticks": 35670,
            "time": 174.85285375000004,
            "velocity": 0.6062992125984252
          },
          {
            "duration": 0.10294112500000097,
            "durationTicks": 21,
            "midi": 40,
            "name": "E2",
            "ticks": 35696,
            "time": 174.98030466666668,
            "velocity": 0.6535433070866141
          },
          {
            "duration": 0.08823525000002519,
            "durationTicks": 18,
            "midi": 44,
            "name": "G#2",
            "ticks": 35696,
            "time": 174.98030466666668,
            "velocity": 0.6535433070866141
          },
          {
            "duration": 0.06862741666665784,
            "durationTicks": 14,
            "midi": 39,
            "name": "D#2",
            "ticks": 35696,
            "time": 174.98030466666668,
            "velocity": 0.905511811023622
          },
          {
            "duration": 0.12254895833331148,
            "durationTicks": 25,
            "midi": 46,
            "name": "A#2",
            "ticks": 35698,
            "time": 174.99010858333338,
            "velocity": 0.6535433070866141
          },
          {
            "duration": 0.12254895833331148,
            "durationTicks": 25,
            "midi": 34,
            "name": "A#1",
            "ticks": 35698,
            "time": 174.99010858333338,
            "velocity": 0.5590551181102362
          },
          {
            "duration": 0.049019583333318906,
            "durationTicks": 10,
            "midi": 62,
            "name": "D4",
            "ticks": 35700,
            "time": 174.99991250000002,
            "velocity": 1
          },
          {
            "duration": 0.06862741666668626,
            "durationTicks": 14,
            "midi": 44,
            "name": "G#2",
            "ticks": 35726,
            "time": 175.12736341666667,
            "velocity": 0.6535433070866141
          },
          {
            "duration": 0.12254895833336832,
            "durationTicks": 25,
            "midi": 45,
            "name": "A2",
            "ticks": 35754,
            "time": 175.26461825,
            "velocity": 0.6535433070866141
          },
          {
            "duration": 0.11764700000000516,
            "durationTicks": 24,
            "midi": 35,
            "name": "B1",
            "ticks": 35754,
            "time": 175.26461825,
            "velocity": 0.6535433070866141
          },
          {
            "duration": 0.2941174999999987,
            "durationTicks": 60,
            "midi": 36,
            "name": "C2",
            "ticks": 35755,
            "time": 175.26952020833335,
            "velocity": 0.6535433070866141
          },
          {
            "duration": 0.08823525000002519,
            "durationTicks": 18,
            "midi": 44,
            "name": "G#2",
            "ticks": 35756,
            "time": 175.27442216666668,
            "velocity": 0.6535433070866141
          },
          {
            "duration": 0.024509791666673664,
            "durationTicks": 5,
            "midi": 64,
            "name": "E4",
            "ticks": 35760,
            "time": 175.29403000000002,
            "velocity": 0.7637795275590551
          },
          {
            "duration": 0.05392154166668206,
            "durationTicks": 11,
            "midi": 44,
            "name": "G#2",
            "ticks": 35786,
            "time": 175.42148091666667,
            "velocity": 0.6535433070866141
          },
          {
            "duration": 0.07352937499999257,
            "durationTicks": 15,
            "midi": 44,
            "name": "G#2",
            "ticks": 35816,
            "time": 175.56853966666668,
            "velocity": 0.6535433070866141
          },
          {
            "duration": 0.04901958333334733,
            "durationTicks": 10,
            "midi": 39,
            "name": "D#2",
            "ticks": 35816,
            "time": 175.56853966666668,
            "velocity": 1
          },
          {
            "duration": 0.06862741666665784,
            "durationTicks": 14,
            "midi": 42,
            "name": "F#2",
            "ticks": 35818,
            "time": 175.57834358333338,
            "velocity": 0.6535433070866141
          },
          {
            "duration": 0.06862741666665784,
            "durationTicks": 14,
            "midi": 30,
            "name": "F#1",
            "ticks": 35818,
            "time": 175.57834358333338,
            "velocity": 0.5590551181102362
          },
          {
            "duration": 0.10294112500002939,
            "durationTicks": 21,
            "midi": 40,
            "name": "E2",
            "ticks": 35846,
            "time": 175.71559841666667,
            "velocity": 0.6535433070866141
          },
          {
            "duration": 0.06862741666668626,
            "durationTicks": 14,
            "midi": 44,
            "name": "G#2",
            "ticks": 35846,
            "time": 175.71559841666667,
            "velocity": 0.6535433070866141
          },
          {
            "duration": 0.08823525000002519,
            "durationTicks": 18,
            "midi": 39,
            "name": "D#2",
            "ticks": 35846,
            "time": 175.71559841666667,
            "velocity": 0.7086614173228346
          },
          {
            "duration": 0.0784313333333273,
            "durationTicks": 16,
            "midi": 42,
            "name": "F#2",
            "ticks": 35848,
            "time": 175.72540233333336,
            "velocity": 0.6535433070866141
          },
          {
            "duration": 0.0784313333333273,
            "durationTicks": 16,
            "midi": 30,
            "name": "F#1",
            "ticks": 35848,
            "time": 175.72540233333336,
            "velocity": 0.5590551181102362
          },
          {
            "duration": 0.04411762499998417,
            "durationTicks": 9,
            "midi": 63,
            "name": "D#4",
            "ticks": 35850,
            "time": 175.73520625000003,
            "velocity": 1
          },
          {
            "duration": 0.2941174999999987,
            "durationTicks": 60,
            "midi": 36,
            "name": "C2",
            "ticks": 35875,
            "time": 175.85775520833334,
            "velocity": 0.6535433070866141
          },
          {
            "duration": 0.06862741666665784,
            "durationTicks": 14,
            "midi": 44,
            "name": "G#2",
            "ticks": 35876,
            "time": 175.86265716666668,
            "velocity": 0.6535433070866141
          },
          {
            "duration": 0.06372545833335153,
            "durationTicks": 13,
            "midi": 44,
            "name": "G#2",
            "ticks": 35906,
            "time": 176.00971591666666,
            "velocity": 0.6535433070866141
          },
          {
            "duration": 0.06862741666668626,
            "durationTicks": 14,
            "midi": 39,
            "name": "D#2",
            "ticks": 35906,
            "time": 176.00971591666666,
            "velocity": 0.5039370078740157
          },
          {
            "duration": 0.0637254583333231,
            "durationTicks": 13,
            "midi": 42,
            "name": "F#2",
            "ticks": 35908,
            "time": 176.01951983333336,
            "velocity": 0.6535433070866141
          },
          {
            "duration": 0.0637254583333231,
            "durationTicks": 13,
            "midi": 30,
            "name": "F#1",
            "ticks": 35908,
            "time": 176.01951983333336,
            "velocity": 0.5590551181102362
          },
          {
            "duration": 0.049019583333318906,
            "durationTicks": 10,
            "midi": 61,
            "name": "C#4",
            "ticks": 35910,
            "time": 176.02932375000003,
            "velocity": 1
          },
          {
            "duration": 0.11274504166669885,
            "durationTicks": 23,
            "midi": 40,
            "name": "E2",
            "ticks": 35936,
            "time": 176.15677466666668,
            "velocity": 0.6535433070866141
          },
          {
            "duration": 0.07352937499999257,
            "durationTicks": 15,
            "midi": 44,
            "name": "G#2",
            "ticks": 35936,
            "time": 176.15677466666668,
            "velocity": 0.6535433070866141
          },
          {
            "duration": 0.06372545833335153,
            "durationTicks": 13,
            "midi": 39,
            "name": "D#2",
            "ticks": 35936,
            "time": 176.15677466666668,
            "velocity": 0.9763779527559056
          },
          {
            "duration": 0.1078430833333357,
            "durationTicks": 22,
            "midi": 42,
            "name": "F#2",
            "ticks": 35938,
            "time": 176.16657858333338,
            "velocity": 0.6535433070866141
          },
          {
            "duration": 0.11274504166667043,
            "durationTicks": 23,
            "midi": 30,
            "name": "F#1",
            "ticks": 35938,
            "time": 176.16657858333338,
            "velocity": 0.5590551181102362
          },
          {
            "duration": 0.044117625000012595,
            "durationTicks": 9,
            "midi": 62,
            "name": "D4",
            "ticks": 35940,
            "time": 176.17638250000002,
            "velocity": 1
          },
          {
            "duration": 0.06862741666668626,
            "durationTicks": 14,
            "midi": 44,
            "name": "G#2",
            "ticks": 35966,
            "time": 176.30383341666666,
            "velocity": 0.6535433070866141
          },
          {
            "duration": 0.11274504166667043,
            "durationTicks": 23,
            "midi": 35,
            "name": "B1",
            "ticks": 35994,
            "time": 176.44108825,
            "velocity": 0.6535433070866141
          },
          {
            "duration": 0.12745091666670305,
            "durationTicks": 26,
            "midi": 45,
            "name": "A2",
            "ticks": 35994,
            "time": 176.44108825,
            "velocity": 0.6535433070866141
          },
          {
            "duration": 0.2941174999999987,
            "durationTicks": 60,
            "midi": 36,
            "name": "C2",
            "ticks": 35995,
            "time": 176.44599020833334,
            "velocity": 0.6535433070866141
          },
          {
            "duration": 0.07843133333335572,
            "durationTicks": 16,
            "midi": 44,
            "name": "G#2",
            "ticks": 35996,
            "time": 176.45089216666668,
            "velocity": 0.6535433070866141
          },
          {
            "duration": 0.029411750000008396,
            "durationTicks": 6,
            "midi": 60,
            "name": "C4",
            "ticks": 36000,
            "time": 176.47050000000002,
            "velocity": 0.905511811023622
          },
          {
            "duration": 0.07352937499999257,
            "durationTicks": 15,
            "midi": 44,
            "name": "G#2",
            "ticks": 36026,
            "time": 176.5979509166667,
            "velocity": 0.6535433070866141
          },
          {
            "duration": 0.07352937499999257,
            "durationTicks": 15,
            "midi": 44,
            "name": "G#2",
            "ticks": 36056,
            "time": 176.74500966666668,
            "velocity": 0.6535433070866141
          },
          {
            "duration": 0.04901958333334733,
            "durationTicks": 10,
            "midi": 39,
            "name": "D#2",
            "ticks": 36056,
            "time": 176.74500966666668,
            "velocity": 0.8818897637795275
          },
          {
            "duration": 0.06862741666665784,
            "durationTicks": 14,
            "midi": 44,
            "name": "G#2",
            "ticks": 36058,
            "time": 176.75481358333337,
            "velocity": 0.6535433070866141
          },
          {
            "duration": 0.06862741666665784,
            "durationTicks": 14,
            "midi": 32,
            "name": "G#1",
            "ticks": 36058,
            "time": 176.75481358333337,
            "velocity": 0.5590551181102362
          },
          {
            "duration": 0.09803916666666623,
            "durationTicks": 20,
            "midi": 40,
            "name": "E2",
            "ticks": 36086,
            "time": 176.8920684166667,
            "velocity": 0.6535433070866141
          },
          {
            "duration": 0.07352937499999257,
            "durationTicks": 15,
            "midi": 44,
            "name": "G#2",
            "ticks": 36086,
            "time": 176.8920684166667,
            "velocity": 0.6535433070866141
          },
          {
            "duration": 0.07352937499999257,
            "durationTicks": 15,
            "midi": 39,
            "name": "D#2",
            "ticks": 36086,
            "time": 176.8920684166667,
            "velocity": 0.33070866141732286
          },
          {
            "duration": 0.07352937500002099,
            "durationTicks": 15,
            "midi": 44,
            "name": "G#2",
            "ticks": 36088,
            "time": 176.90187233333336,
            "velocity": 0.6535433070866141
          },
          {
            "duration": 0.07352937500002099,
            "durationTicks": 15,
            "midi": 32,
            "name": "G#1",
            "ticks": 36088,
            "time": 176.90187233333336,
            "velocity": 0.5590551181102362
          },
          {
            "duration": 0.05392154166665364,
            "durationTicks": 11,
            "midi": 63,
            "name": "D#4",
            "ticks": 36090,
            "time": 176.91167625000003,
            "velocity": 0.9763779527559056
          },
          {
            "duration": 0.2941174999999987,
            "durationTicks": 60,
            "midi": 36,
            "name": "C2",
            "ticks": 36115,
            "time": 177.03422520833334,
            "velocity": 0.6535433070866141
          },
          {
            "duration": 0.06862741666668626,
            "durationTicks": 14,
            "midi": 44,
            "name": "G#2",
            "ticks": 36116,
            "time": 177.03912716666667,
            "velocity": 0.6535433070866141
          },
          {
            "duration": 0.0637254583333231,
            "durationTicks": 13,
            "midi": 44,
            "name": "G#2",
            "ticks": 36146,
            "time": 177.1861859166667,
            "velocity": 0.6535433070866141
          },
          {
            "duration": 0.0637254583333231,
            "durationTicks": 13,
            "midi": 39,
            "name": "D#2",
            "ticks": 36146,
            "time": 177.1861859166667,
            "velocity": 0.5039370078740157
          },
          {
            "duration": 0.0637254583333231,
            "durationTicks": 13,
            "midi": 44,
            "name": "G#2",
            "ticks": 36148,
            "time": 177.19598983333336,
            "velocity": 0.6535433070866141
          },
          {
            "duration": 0.0637254583333231,
            "durationTicks": 13,
            "midi": 32,
            "name": "G#1",
            "ticks": 36148,
            "time": 177.19598983333336,
            "velocity": 0.5590551181102362
          },
          {
            "duration": 0.03431370833334313,
            "durationTicks": 7,
            "midi": 62,
            "name": "D4",
            "ticks": 36150,
            "time": 177.20579375000003,
            "velocity": 0.6929133858267716
          },
          {
            "duration": 0.11274504166669885,
            "durationTicks": 23,
            "midi": 40,
            "name": "E2",
            "ticks": 36176,
            "time": 177.33324466666667,
            "velocity": 0.6535433070866141
          },
          {
            "duration": 0.07843133333335572,
            "durationTicks": 16,
            "midi": 44,
            "name": "G#2",
            "ticks": 36176,
            "time": 177.33324466666667,
            "velocity": 0.6535433070866141
          },
          {
            "duration": 0.06862741666668626,
            "durationTicks": 14,
            "midi": 39,
            "name": "D#2",
            "ticks": 36176,
            "time": 177.33324466666667,
            "velocity": 1
          },
          {
            "duration": 0.11274504166667043,
            "durationTicks": 23,
            "midi": 44,
            "name": "G#2",
            "ticks": 36178,
            "time": 177.34304858333337,
            "velocity": 0.6535433070866141
          },
          {
            "duration": 0.11274504166667043,
            "durationTicks": 23,
            "midi": 32,
            "name": "G#1",
            "ticks": 36178,
            "time": 177.34304858333337,
            "velocity": 0.5590551181102362
          },
          {
            "duration": 0.03921566666664944,
            "durationTicks": 8,
            "midi": 62,
            "name": "D4",
            "ticks": 36180,
            "time": 177.35285250000004,
            "velocity": 1
          },
          {
            "duration": 0.06862741666665784,
            "durationTicks": 14,
            "midi": 44,
            "name": "G#2",
            "ticks": 36206,
            "time": 177.4803034166667,
            "velocity": 0.6535433070866141
          },
          {
            "duration": 0.1568626666666546,
            "durationTicks": 32,
            "midi": 45,
            "name": "A2",
            "ticks": 36234,
            "time": 177.61755825000003,
            "velocity": 0.6535433070866141
          },
          {
            "duration": 0.11274504166664201,
            "durationTicks": 23,
            "midi": 35,
            "name": "B1",
            "ticks": 36234,
            "time": 177.61755825000003,
            "velocity": 0.6535433070866141
          },
          {
            "duration": 0.2941174999999987,
            "durationTicks": 60,
            "midi": 36,
            "name": "C2",
            "ticks": 36235,
            "time": 177.62246020833334,
            "velocity": 0.6535433070866141
          },
          {
            "duration": 0.08823525000002519,
            "durationTicks": 18,
            "midi": 44,
            "name": "G#2",
            "ticks": 36236,
            "time": 177.62736216666667,
            "velocity": 0.6535433070866141
          },
          {
            "duration": 0.05392154166668206,
            "durationTicks": 11,
            "midi": 39,
            "name": "D#2",
            "ticks": 36236,
            "time": 177.62736216666667,
            "velocity": 0.8031496062992126
          },
          {
            "duration": 0.05392154166662522,
            "durationTicks": 11,
            "midi": 64,
            "name": "E4",
            "ticks": 36240,
            "time": 177.64697000000004,
            "velocity": 1
          },
          {
            "duration": 0.06862741666665784,
            "durationTicks": 14,
            "midi": 44,
            "name": "G#2",
            "ticks": 36266,
            "time": 177.77442091666668,
            "velocity": 0.6535433070866141
          },
          {
            "duration": 0.0637254583333231,
            "durationTicks": 13,
            "midi": 39,
            "name": "D#2",
            "ticks": 36266,
            "time": 177.77442091666668,
            "velocity": 0.6535433070866141
          },
          {
            "duration": 0.07352937500002099,
            "durationTicks": 15,
            "midi": 44,
            "name": "G#2",
            "ticks": 36296,
            "time": 177.92147966666667,
            "velocity": 0.6535433070866141
          },
          {
            "duration": 0.044117625000041016,
            "durationTicks": 9,
            "midi": 39,
            "name": "D#2",
            "ticks": 36296,
            "time": 177.92147966666667,
            "velocity": 0.7795275590551181
          },
          {
            "duration": 0.06862741666665784,
            "durationTicks": 14,
            "midi": 41,
            "name": "F2",
            "ticks": 36298,
            "time": 177.93128358333337,
            "velocity": 0.6535433070866141
          },
          {
            "duration": 0.06862741666665784,
            "durationTicks": 14,
            "midi": 29,
            "name": "F1",
            "ticks": 36298,
            "time": 177.93128358333337,
            "velocity": 0.5590551181102362
          },
          {
            "duration": 0.03431370833331471,
            "durationTicks": 7,
            "midi": 62,
            "name": "D4",
            "ticks": 36300,
            "time": 177.94108750000004,
            "velocity": 0.8267716535433071
          },
          {
            "duration": 0.0931372083333315,
            "durationTicks": 19,
            "midi": 40,
            "name": "E2",
            "ticks": 36326,
            "time": 178.06853841666668,
            "velocity": 0.6535433070866141
          },
          {
            "duration": 0.05392154166668206,
            "durationTicks": 11,
            "midi": 44,
            "name": "G#2",
            "ticks": 36326,
            "time": 178.06853841666668,
            "velocity": 0.6535433070866141
          },
          {
            "duration": 0.07843133333335572,
            "durationTicks": 16,
            "midi": 39,
            "name": "D#2",
            "ticks": 36326,
            "time": 178.06853841666668,
            "velocity": 0.6377952755905512
          },
          {
            "duration": 0.08823524999996835,
            "durationTicks": 18,
            "midi": 41,
            "name": "F2",
            "ticks": 36328,
            "time": 178.07834233333338,
            "velocity": 0.6535433070866141
          },
          {
            "duration": 0.08823524999996835,
            "durationTicks": 18,
            "midi": 29,
            "name": "F1",
            "ticks": 36328,
            "time": 178.07834233333338,
            "velocity": 0.5590551181102362
          },
          {
            "duration": 0.03431370833334313,
            "durationTicks": 7,
            "midi": 61,
            "name": "C#4",
            "ticks": 36330,
            "time": 178.08814625000002,
            "velocity": 0.937007874015748
          },
          {
            "duration": 0.2941174999999987,
            "durationTicks": 60,
            "midi": 36,
            "name": "C2",
            "ticks": 36355,
            "time": 178.21069520833336,
            "velocity": 0.6535433070866141
          },
          {
            "duration": 0.07843133333338415,
            "durationTicks": 16,
            "midi": 44,
            "name": "G#2",
            "ticks": 36356,
            "time": 178.21559716666667,
            "velocity": 0.6535433070866141
          },
          {
            "duration": 0.06862741666665784,
            "durationTicks": 14,
            "midi": 44,
            "name": "G#2",
            "ticks": 36386,
            "time": 178.36265591666668,
            "velocity": 0.6535433070866141
          },
          {
            "duration": 0.049019583333318906,
            "durationTicks": 10,
            "midi": 41,
            "name": "F2",
            "ticks": 36388,
            "time": 178.37245983333338,
            "velocity": 0.6535433070866141
          },
          {
            "duration": 0.049019583333318906,
            "durationTicks": 10,
            "midi": 29,
            "name": "F1",
            "ticks": 36388,
            "time": 178.37245983333338,
            "velocity": 0.5590551181102362
          },
          {
            "duration": 0.03921566666667786,
            "durationTicks": 8,
            "midi": 60,
            "name": "C4",
            "ticks": 36390,
            "time": 178.38226375000002,
            "velocity": 0.8267716535433071
          },
          {
            "duration": 0.10294112500002939,
            "durationTicks": 21,
            "midi": 40,
            "name": "E2",
            "ticks": 36416,
            "time": 178.50971466666667,
            "velocity": 0.6535433070866141
          },
          {
            "duration": 0.06862741666668626,
            "durationTicks": 14,
            "midi": 44,
            "name": "G#2",
            "ticks": 36416,
            "time": 178.50971466666667,
            "velocity": 0.6535433070866141
          },
          {
            "duration": 0.06862741666668626,
            "durationTicks": 14,
            "midi": 39,
            "name": "D#2",
            "ticks": 36416,
            "time": 178.50971466666667,
            "velocity": 0.8267716535433071
          },
          {
            "duration": 0.08333329166666203,
            "durationTicks": 17,
            "midi": 41,
            "name": "F2",
            "ticks": 36418,
            "time": 178.51951858333337,
            "velocity": 0.6535433070866141
          },
          {
            "duration": 0.08823524999999677,
            "durationTicks": 18,
            "midi": 29,
            "name": "F1",
            "ticks": 36418,
            "time": 178.51951858333337,
            "velocity": 0.5590551181102362
          },
          {
            "duration": 0.03431370833331471,
            "durationTicks": 7,
            "midi": 62,
            "name": "D4",
            "ticks": 36420,
            "time": 178.52932250000003,
            "velocity": 0.905511811023622
          },
          {
            "duration": 0.07352937499999257,
            "durationTicks": 15,
            "midi": 44,
            "name": "G#2",
            "ticks": 36446,
            "time": 178.65677341666668,
            "velocity": 0.6535433070866141
          },
          {
            "duration": 0.11274504166667043,
            "durationTicks": 23,
            "midi": 35,
            "name": "B1",
            "ticks": 36474,
            "time": 178.79402825000003,
            "velocity": 0.6535433070866141
          },
          {
            "duration": 0.15196070833331987,
            "durationTicks": 31,
            "midi": 45,
            "name": "A2",
            "ticks": 36474,
            "time": 178.79402825000003,
            "velocity": 0.6535433070866141
          },
          {
            "duration": 0.2941174999999987,
            "durationTicks": 60,
            "midi": 36,
            "name": "C2",
            "ticks": 36475,
            "time": 178.79893020833336,
            "velocity": 0.6535433070866141
          },
          {
            "duration": 0.07843133333338415,
            "durationTicks": 16,
            "midi": 44,
            "name": "G#2",
            "ticks": 36476,
            "time": 178.80383216666667,
            "velocity": 0.6535433070866141
          },
          {
            "duration": 0.03431370833334313,
            "durationTicks": 7,
            "midi": 39,
            "name": "D#2",
            "ticks": 36476,
            "time": 178.80383216666667,
            "velocity": 0.6062992125984252
          },
          {
            "duration": 0.05392154166665364,
            "durationTicks": 11,
            "midi": 62,
            "name": "D4",
            "ticks": 36480,
            "time": 178.82344000000003,
            "velocity": 1
          },
          {
            "duration": 0.08823525000002519,
            "durationTicks": 18,
            "midi": 44,
            "name": "G#2",
            "ticks": 36506,
            "time": 178.95089091666668,
            "velocity": 0.6535433070866141
          },
          {
            "duration": 0.07352937500002099,
            "durationTicks": 15,
            "midi": 44,
            "name": "G#2",
            "ticks": 36536,
            "time": 179.09794966666666,
            "velocity": 0.6535433070866141
          },
          {
            "duration": 0.05392154166671048,
            "durationTicks": 11,
            "midi": 39,
            "name": "D#2",
            "ticks": 36536,
            "time": 179.09794966666666,
            "velocity": 0.905511811023622
          },
          {
            "duration": 0.05882349999998837,
            "durationTicks": 12,
            "midi": 42,
            "name": "F#2",
            "ticks": 36538,
            "time": 179.10775358333336,
            "velocity": 0.6535433070866141
          },
          {
            "duration": 0.05392154166665364,
            "durationTicks": 11,
            "midi": 30,
            "name": "F#1",
            "ticks": 36538,
            "time": 179.10775358333336,
            "velocity": 0.5590551181102362
          },
          {
            "duration": 0.03921566666664944,
            "durationTicks": 8,
            "midi": 62,
            "name": "D4",
            "ticks": 36540,
            "time": 179.11755750000003,
            "velocity": 1
          },
          {
            "duration": 0.09803916666666623,
            "durationTicks": 20,
            "midi": 40,
            "name": "E2",
            "ticks": 36566,
            "time": 179.24500841666668,
            "velocity": 0.6535433070866141
          },
          {
            "duration": 0.06862741666665784,
            "durationTicks": 14,
            "midi": 44,
            "name": "G#2",
            "ticks": 36566,
            "time": 179.24500841666668,
            "velocity": 0.6535433070866141
          },
          {
            "duration": 0.07843133333335572,
            "durationTicks": 16,
            "midi": 39,
            "name": "D#2",
            "ticks": 36566,
            "time": 179.24500841666668,
            "velocity": 0.6220472440944882
          },
          {
            "duration": 0.06862741666665784,
            "durationTicks": 14,
            "midi": 42,
            "name": "F#2",
            "ticks": 36568,
            "time": 179.25481233333338,
            "velocity": 0.6535433070866141
          },
          {
            "duration": 0.06862741666665784,
            "durationTicks": 14,
            "midi": 30,
            "name": "F#1",
            "ticks": 36568,
            "time": 179.25481233333338,
            "velocity": 0.5590551181102362
          },
          {
            "duration": 0.024509791666673664,
            "durationTicks": 5,
            "midi": 63,
            "name": "D#4",
            "ticks": 36570,
            "time": 179.26461625000002,
            "velocity": 1
          },
          {
            "duration": 0.2941174999999987,
            "durationTicks": 60,
            "midi": 36,
            "name": "C2",
            "ticks": 36595,
            "time": 179.38716520833336,
            "velocity": 0.6535433070866141
          },
          {
            "duration": 0.07843133333338415,
            "durationTicks": 16,
            "midi": 44,
            "name": "G#2",
            "ticks": 36596,
            "time": 179.39206716666666,
            "velocity": 0.6535433070866141
          },
          {
            "duration": 0.07352937499999257,
            "durationTicks": 15,
            "midi": 44,
            "name": "G#2",
            "ticks": 36626,
            "time": 179.53912591666668,
            "velocity": 0.6535433070866141
          },
          {
            "duration": 0.06862741666665784,
            "durationTicks": 14,
            "midi": 42,
            "name": "F#2",
            "ticks": 36628,
            "time": 179.54892983333337,
            "velocity": 0.6535433070866141
          },
          {
            "duration": 0.06862741666665784,
            "durationTicks": 14,
            "midi": 30,
            "name": "F#1",
            "ticks": 36628,
            "time": 179.54892983333337,
            "velocity": 0.5590551181102362
          },
          {
            "duration": 0.1078430833333357,
            "durationTicks": 22,
            "midi": 40,
            "name": "E2",
            "ticks": 36656,
            "time": 179.6861846666667,
            "velocity": 0.6535433070866141
          },
          {
            "duration": 0.07352937499999257,
            "durationTicks": 15,
            "midi": 44,
            "name": "G#2",
            "ticks": 36656,
            "time": 179.6861846666667,
            "velocity": 0.6535433070866141
          },
          {
            "duration": 0.05392154166668206,
            "durationTicks": 11,
            "midi": 39,
            "name": "D#2",
            "ticks": 36656,
            "time": 179.6861846666667,
            "velocity": 0.905511811023622
          },
          {
            "duration": 0.08823524999999677,
            "durationTicks": 18,
            "midi": 42,
            "name": "F#2",
            "ticks": 36658,
            "time": 179.69598858333336,
            "velocity": 0.6535433070866141
          },
          {
            "duration": 0.08823524999999677,
            "durationTicks": 18,
            "midi": 30,
            "name": "F#1",
            "ticks": 36658,
            "time": 179.69598858333336,
            "velocity": 0.5590551181102362
          },
          {
            "duration": 0.03431370833334313,
            "durationTicks": 7,
            "midi": 64,
            "name": "E4",
            "ticks": 36660,
            "time": 179.70579250000003,
            "velocity": 0.8503937007874016
          },
          {
            "duration": 0.06862741666668626,
            "durationTicks": 14,
            "midi": 44,
            "name": "G#2",
            "ticks": 36686,
            "time": 179.83324341666668,
            "velocity": 0.6535433070866141
          },
          {
            "duration": 0.12745091666667463,
            "durationTicks": 26,
            "midi": 45,
            "name": "A2",
            "ticks": 36714,
            "time": 179.97049825000002,
            "velocity": 0.6535433070866141
          },
          {
            "duration": 0.1078430833333357,
            "durationTicks": 22,
            "midi": 35,
            "name": "B1",
            "ticks": 36714,
            "time": 179.97049825000002,
            "velocity": 0.6535433070866141
          },
          {
            "duration": 0.2941174999999987,
            "durationTicks": 60,
            "midi": 36,
            "name": "C2",
            "ticks": 36715,
            "time": 179.97540020833335,
            "velocity": 0.6535433070866141
          },
          {
            "duration": 0.07843133333335572,
            "durationTicks": 16,
            "midi": 44,
            "name": "G#2",
            "ticks": 36716,
            "time": 179.9803021666667,
            "velocity": 0.6535433070866141
          },
          {
            "duration": 0.03921566666667786,
            "durationTicks": 8,
            "midi": 39,
            "name": "D#2",
            "ticks": 36716,
            "time": 179.9803021666667,
            "velocity": 0.6141732283464567
          },
          {
            "duration": 0.03921566666664944,
            "durationTicks": 8,
            "midi": 62,
            "name": "D4",
            "ticks": 36720,
            "time": 179.99991000000003,
            "velocity": 0.8818897637795275
          },
          {
            "duration": 0.06862741666668626,
            "durationTicks": 14,
            "midi": 44,
            "name": "G#2",
            "ticks": 36746,
            "time": 180.12736091666667,
            "velocity": 0.6535433070866141
          },
          {
            "duration": 0.07352937499999257,
            "durationTicks": 15,
            "midi": 44,
            "name": "G#2",
            "ticks": 36776,
            "time": 180.2744196666667,
            "velocity": 0.6535433070866141
          },
          {
            "duration": 0.044117625000012595,
            "durationTicks": 9,
            "midi": 39,
            "name": "D#2",
            "ticks": 36776,
            "time": 180.2744196666667,
            "velocity": 0.8031496062992126
          },
          {
            "duration": 0.06862741666668626,
            "durationTicks": 14,
            "midi": 44,
            "name": "G#2",
            "ticks": 36778,
            "time": 180.28422358333336,
            "velocity": 0.6535433070866141
          },
          {
            "duration": 0.07352937500002099,
            "durationTicks": 15,
            "midi": 32,
            "name": "G#1",
            "ticks": 36778,
            "time": 180.28422358333336,
            "velocity": 0.5590551181102362
          },
          {
            "duration": 0.09803916666669465,
            "durationTicks": 20,
            "midi": 40,
            "name": "E2",
            "ticks": 36806,
            "time": 180.42147841666667,
            "velocity": 0.6535433070866141
          },
          {
            "duration": 0.06862741666668626,
            "durationTicks": 14,
            "midi": 44,
            "name": "G#2",
            "ticks": 36806,
            "time": 180.42147841666667,
            "velocity": 0.6535433070866141
          },
          {
            "duration": 0.08823525000002519,
            "durationTicks": 18,
            "midi": 39,
            "name": "D#2",
            "ticks": 36806,
            "time": 180.42147841666667,
            "velocity": 0.5196850393700787
          },
          {
            "duration": 0.06372545833329468,
            "durationTicks": 13,
            "midi": 44,
            "name": "G#2",
            "ticks": 36808,
            "time": 180.43128233333337,
            "velocity": 0.6535433070866141
          },
          {
            "duration": 0.06862741666665784,
            "durationTicks": 14,
            "midi": 32,
            "name": "G#1",
            "ticks": 36808,
            "time": 180.43128233333337,
            "velocity": 0.5590551181102362
          },
          {
            "duration": 0.05392154166662522,
            "durationTicks": 11,
            "midi": 60,
            "name": "C4",
            "ticks": 36810,
            "time": 180.44108625000004,
            "velocity": 0.937007874015748
          },
          {
            "duration": 0.2941174999999987,
            "durationTicks": 60,
            "midi": 36,
            "name": "C2",
            "ticks": 36835,
            "time": 180.56363520833335,
            "velocity": 0.6535433070866141
          },
          {
            "duration": 0.07843133333335572,
            "durationTicks": 16,
            "midi": 44,
            "name": "G#2",
            "ticks": 36836,
            "time": 180.5685371666667,
            "velocity": 0.6535433070866141
          },
          {
            "duration": 0.06372545833335153,
            "durationTicks": 13,
            "midi": 44,
            "name": "G#2",
            "ticks": 36866,
            "time": 180.71559591666667,
            "velocity": 0.6535433070866141
          },
          {
            "duration": 0.06862741666665784,
            "durationTicks": 14,
            "midi": 44,
            "name": "G#2",
            "ticks": 36868,
            "time": 180.72539983333337,
            "velocity": 0.6535433070866141
          },
          {
            "duration": 0.06862741666665784,
            "durationTicks": 14,
            "midi": 32,
            "name": "G#1",
            "ticks": 36868,
            "time": 180.72539983333337,
            "velocity": 0.5590551181102362
          },
          {
            "duration": 0.03431370833331471,
            "durationTicks": 7,
            "midi": 61,
            "name": "C#4",
            "ticks": 36870,
            "time": 180.73520375000004,
            "velocity": 0.8267716535433071
          },
          {
            "duration": 0.11274504166669885,
            "durationTicks": 23,
            "midi": 40,
            "name": "E2",
            "ticks": 36896,
            "time": 180.86265466666669,
            "velocity": 0.6535433070866141
          },
          {
            "duration": 0.07352937499999257,
            "durationTicks": 15,
            "midi": 44,
            "name": "G#2",
            "ticks": 36896,
            "time": 180.86265466666669,
            "velocity": 0.6535433070866141
          },
          {
            "duration": 0.05392154166668206,
            "durationTicks": 11,
            "midi": 39,
            "name": "D#2",
            "ticks": 36896,
            "time": 180.86265466666669,
            "velocity": 0.905511811023622
          },
          {
            "duration": 0.0637254583333231,
            "durationTicks": 13,
            "midi": 44,
            "name": "G#2",
            "ticks": 36898,
            "time": 180.87245858333335,
            "velocity": 0.6535433070866141
          },
          {
            "duration": 0.0637254583333231,
            "durationTicks": 13,
            "midi": 32,
            "name": "G#1",
            "ticks": 36898,
            "time": 180.87245858333335,
            "velocity": 0.5590551181102362
          },
          {
            "duration": 0.05882350000001679,
            "durationTicks": 12,
            "midi": 62,
            "name": "D4",
            "ticks": 36900,
            "time": 180.88226250000002,
            "velocity": 0.905511811023622
          },
          {
            "duration": 0.06372545833335153,
            "durationTicks": 13,
            "midi": 44,
            "name": "G#2",
            "ticks": 36926,
            "time": 181.00971341666667,
            "velocity": 0.6535433070866141
          },
          {
            "duration": 0.1372548333333441,
            "durationTicks": 28,
            "midi": 45,
            "name": "A2",
            "ticks": 36954,
            "time": 181.14696825000001,
            "velocity": 0.6535433070866141
          },
          {
            "duration": 0.1078430833333357,
            "durationTicks": 22,
            "midi": 35,
            "name": "B1",
            "ticks": 36954,
            "time": 181.14696825000001,
            "velocity": 0.6535433070866141
          },
          {
            "duration": 0.2941174999999987,
            "durationTicks": 60,
            "midi": 36,
            "name": "C2",
            "ticks": 36955,
            "time": 181.15187020833335,
            "velocity": 0.6535433070866141
          },
          {
            "duration": 0.08823525000002519,
            "durationTicks": 18,
            "midi": 44,
            "name": "G#2",
            "ticks": 36956,
            "time": 181.15677216666668,
            "velocity": 0.6535433070866141
          },
          {
            "duration": 0.03921566666667786,
            "durationTicks": 8,
            "midi": 64,
            "name": "E4",
            "ticks": 36960,
            "time": 181.17638000000002,
            "velocity": 0.7795275590551181
          },
          {
            "duration": 0.03921566666667786,
            "durationTicks": 8,
            "midi": 65,
            "name": "F4",
            "ticks": 36960,
            "time": 181.17638000000002,
            "velocity": 0.7795275590551181
          },
          {
            "duration": 0.06372545833335153,
            "durationTicks": 13,
            "midi": 44,
            "name": "G#2",
            "ticks": 36986,
            "time": 181.30383091666667,
            "velocity": 0.6535433070866141
          },
          {
            "duration": 0.06862741666665784,
            "durationTicks": 14,
            "midi": 44,
            "name": "G#2",
            "ticks": 37016,
            "time": 181.45088966666668,
            "velocity": 0.6535433070866141
          },
          {
            "duration": 0.044117625000012595,
            "durationTicks": 9,
            "midi": 39,
            "name": "D#2",
            "ticks": 37016,
            "time": 181.45088966666668,
            "velocity": 0.7086614173228346
          },
          {
            "duration": 0.06862741666665784,
            "durationTicks": 14,
            "midi": 46,
            "name": "A#2",
            "ticks": 37018,
            "time": 181.46069358333338,
            "velocity": 0.6535433070866141
          },
          {
            "duration": 0.06372545833329468,
            "durationTicks": 13,
            "midi": 34,
            "name": "A#1",
            "ticks": 37018,
            "time": 181.46069358333338,
            "velocity": 0.5590551181102362
          },
          {
            "duration": 0.029411750000008396,
            "durationTicks": 6,
            "midi": 62,
            "name": "D4",
            "ticks": 37020,
            "time": 181.47049750000002,
            "velocity": 0.7637795275590551
          },
          {
            "duration": 0.08823525000002519,
            "durationTicks": 18,
            "midi": 40,
            "name": "E2",
            "ticks": 37046,
            "time": 181.59794841666667,
            "velocity": 0.6535433070866141
          },
          {
            "duration": 0.07352937500002099,
            "durationTicks": 15,
            "midi": 44,
            "name": "G#2",
            "ticks": 37046,
            "time": 181.59794841666667,
            "velocity": 0.6535433070866141
          },
          {
            "duration": 0.06862741666668626,
            "durationTicks": 14,
            "midi": 39,
            "name": "D#2",
            "ticks": 37046,
            "time": 181.59794841666667,
            "velocity": 0.3937007874015748
          },
          {
            "duration": 0.07352937499999257,
            "durationTicks": 15,
            "midi": 46,
            "name": "A#2",
            "ticks": 37048,
            "time": 181.60775233333337,
            "velocity": 0.6535433070866141
          },
          {
            "duration": 0.07352937499999257,
            "durationTicks": 15,
            "midi": 34,
            "name": "A#1",
            "ticks": 37048,
            "time": 181.60775233333337,
            "velocity": 0.5590551181102362
          },
          {
            "duration": 0.03921566666664944,
            "durationTicks": 8,
            "midi": 62,
            "name": "D4",
            "ticks": 37050,
            "time": 181.61755625000004,
            "velocity": 0.8503937007874016
          },
          {
            "duration": 0.2941174999999987,
            "durationTicks": 60,
            "midi": 36,
            "name": "C2",
            "ticks": 37075,
            "time": 181.74010520833335,
            "velocity": 0.6535433070866141
          },
          {
            "duration": 0.06862741666665784,
            "durationTicks": 14,
            "midi": 44,
            "name": "G#2",
            "ticks": 37076,
            "time": 181.74500716666668,
            "velocity": 0.6535433070866141
          },
          {
            "duration": 0.024509791666673664,
            "durationTicks": 5,
            "midi": 39,
            "name": "D#2",
            "ticks": 37076,
            "time": 181.74500716666668,
            "velocity": 0.6220472440944882
          },
          {
            "duration": 0.06862741666668626,
            "durationTicks": 14,
            "midi": 44,
            "name": "G#2",
            "ticks": 37106,
            "time": 181.89206591666667,
            "velocity": 0.6535433070866141
          },
          {
            "duration": 0.03431370833331471,
            "durationTicks": 7,
            "midi": 62,
            "name": "D4",
            "ticks": 37110,
            "time": 181.91167375000003,
            "velocity": 0.7795275590551181
          },
          {
            "duration": 0.10294112500000097,
            "durationTicks": 21,
            "midi": 40,
            "name": "E2",
            "ticks": 37136,
            "time": 182.03912466666668,
            "velocity": 0.6535433070866141
          },
          {
            "duration": 0.07843133333335572,
            "durationTicks": 16,
            "midi": 44,
            "name": "G#2",
            "ticks": 37136,
            "time": 182.03912466666668,
            "velocity": 0.6535433070866141
          },
          {
            "duration": 0.04901958333334733,
            "durationTicks": 10,
            "midi": 39,
            "name": "D#2",
            "ticks": 37136,
            "time": 182.03912466666668,
            "velocity": 1
          },
          {
            "duration": 0.06372545833329468,
            "durationTicks": 13,
            "midi": 46,
            "name": "A#2",
            "ticks": 37138,
            "time": 182.04892858333338,
            "velocity": 0.6535433070866141
          },
          {
            "duration": 0.06862741666665784,
            "durationTicks": 14,
            "midi": 34,
            "name": "A#1",
            "ticks": 37138,
            "time": 182.04892858333338,
            "velocity": 0.5590551181102362
          },
          {
            "duration": 0.03431370833334313,
            "durationTicks": 7,
            "midi": 62,
            "name": "D4",
            "ticks": 37140,
            "time": 182.05873250000002,
            "velocity": 0.5669291338582677
          },
          {
            "duration": 0.06862741666668626,
            "durationTicks": 14,
            "midi": 44,
            "name": "G#2",
            "ticks": 37166,
            "time": 182.18618341666667,
            "velocity": 0.6535433070866141
          },
          {
            "duration": 0.05392154166665364,
            "durationTicks": 11,
            "midi": 46,
            "name": "A#2",
            "ticks": 37168,
            "time": 182.19598733333336,
            "velocity": 0.6535433070866141
          },
          {
            "duration": 0.05392154166665364,
            "durationTicks": 11,
            "midi": 34,
            "name": "A#1",
            "ticks": 37168,
            "time": 182.19598733333336,
            "velocity": 0.5590551181102362
          },
          {
            "duration": 0.09803916666669465,
            "durationTicks": 20,
            "midi": 35,
            "name": "B1",
            "ticks": 37194,
            "time": 182.32343825,
            "velocity": 0.6535433070866141
          },
          {
            "duration": 0.14215679166667883,
            "durationTicks": 29,
            "midi": 45,
            "name": "A2",
            "ticks": 37194,
            "time": 182.32343825,
            "velocity": 0.6535433070866141
          },
          {
            "duration": 0.2941174999999987,
            "durationTicks": 60,
            "midi": 36,
            "name": "C2",
            "ticks": 37195,
            "time": 182.32834020833334,
            "velocity": 0.6535433070866141
          },
          {
            "duration": 0.07352937499999257,
            "durationTicks": 15,
            "midi": 49,
            "name": "C#3",
            "ticks": 37196,
            "time": 182.33324216666668,
            "velocity": 0.6535433070866141
          },
          {
            "duration": 0.044117625000012595,
            "durationTicks": 9,
            "midi": 39,
            "name": "D#2",
            "ticks": 37196,
            "time": 182.33324216666668,
            "velocity": 0.6929133858267716
          },
          {
            "duration": 0.044117625000012595,
            "durationTicks": 9,
            "midi": 62,
            "name": "D4",
            "ticks": 37200,
            "time": 182.35285000000002,
            "velocity": 0.937007874015748
          },
          {
            "duration": 0.06862741666668626,
            "durationTicks": 14,
            "midi": 44,
            "name": "G#2",
            "ticks": 37226,
            "time": 182.48030091666666,
            "velocity": 0.6535433070866141
          },
          {
            "duration": 0.044117625000012595,
            "durationTicks": 9,
            "midi": 46,
            "name": "A#2",
            "ticks": 37228,
            "time": 182.49010483333336,
            "velocity": 0.6535433070866141
          },
          {
            "duration": 0.044117625000012595,
            "durationTicks": 9,
            "midi": 34,
            "name": "A#1",
            "ticks": 37228,
            "time": 182.49010483333336,
            "velocity": 0.5590551181102362
          },
          {
            "duration": 0.07843133333335572,
            "durationTicks": 16,
            "midi": 44,
            "name": "G#2",
            "ticks": 37256,
            "time": 182.62735966666668,
            "velocity": 0.6535433070866141
          },
          {
            "duration": 0.039215666666706284,
            "durationTicks": 8,
            "midi": 39,
            "name": "D#2",
            "ticks": 37256,
            "time": 182.62735966666668,
            "velocity": 0.7637795275590551
          },
          {
            "duration": 0.06372545833329468,
            "durationTicks": 13,
            "midi": 46,
            "name": "A#2",
            "ticks": 37258,
            "time": 182.63716358333338,
            "velocity": 0.6535433070866141
          },
          {
            "duration": 0.06372545833329468,
            "durationTicks": 13,
            "midi": 34,
            "name": "A#1",
            "ticks": 37258,
            "time": 182.63716358333338,
            "velocity": 0.5590551181102362
          },
          {
            "duration": 0.0784313333333273,
            "durationTicks": 16,
            "midi": 58,
            "name": "A#3",
            "ticks": 37260,
            "time": 182.64696750000002,
            "velocity": 1
          },
          {
            "duration": 0.11274504166667043,
            "durationTicks": 23,
            "midi": 40,
            "name": "E2",
            "ticks": 37286,
            "time": 182.7744184166667,
            "velocity": 0.6535433070866141
          },
          {
            "duration": 0.0637254583333231,
            "durationTicks": 13,
            "midi": 44,
            "name": "G#2",
            "ticks": 37286,
            "time": 182.7744184166667,
            "velocity": 0.6535433070866141
          },
          {
            "duration": 0.05392154166668206,
            "durationTicks": 11,
            "midi": 39,
            "name": "D#2",
            "ticks": 37286,
            "time": 182.7744184166667,
            "velocity": 0.6062992125984252
          },
          {
            "duration": 0.2941174999999987,
            "durationTicks": 60,
            "midi": 36,
            "name": "C2",
            "ticks": 37315,
            "time": 182.91657520833334,
            "velocity": 0.6535433070866141
          },
          {
            "duration": 0.07352937499999257,
            "durationTicks": 15,
            "midi": 49,
            "name": "C#3",
            "ticks": 37316,
            "time": 182.92147716666668,
            "velocity": 0.6535433070866141
          },
          {
            "duration": 0.039215666666706284,
            "durationTicks": 8,
            "midi": 39,
            "name": "D#2",
            "ticks": 37316,
            "time": 182.92147716666668,
            "velocity": 0.6614173228346457
          },
          {
            "duration": 0.029411750000008396,
            "durationTicks": 6,
            "midi": 62,
            "name": "D4",
            "ticks": 37320,
            "time": 182.94108500000002,
            "velocity": 0.7086614173228346
          },
          {
            "duration": 0.06862741666665784,
            "durationTicks": 14,
            "midi": 44,
            "name": "G#2",
            "ticks": 37346,
            "time": 183.0685359166667,
            "velocity": 0.6535433070866141
          },
          {
            "duration": 0.05392154166665364,
            "durationTicks": 11,
            "midi": 46,
            "name": "A#2",
            "ticks": 37348,
            "time": 183.07833983333336,
            "velocity": 0.6535433070866141
          },
          {
            "duration": 0.05392154166665364,
            "durationTicks": 11,
            "midi": 34,
            "name": "A#1",
            "ticks": 37348,
            "time": 183.07833983333336,
            "velocity": 0.5590551181102362
          },
          {
            "duration": 0.12254895833336832,
            "durationTicks": 25,
            "midi": 40,
            "name": "E2",
            "ticks": 37376,
            "time": 183.21559466666668,
            "velocity": 0.6535433070866141
          },
          {
            "duration": 0.06862741666668626,
            "durationTicks": 14,
            "midi": 55,
            "name": "G3",
            "ticks": 37376,
            "time": 183.21559466666668,
            "velocity": 0.6535433070866141
          },
          {
            "duration": 0.06372545833335153,
            "durationTicks": 13,
            "midi": 39,
            "name": "D#2",
            "ticks": 37376,
            "time": 183.21559466666668,
            "velocity": 1
          },
          {
            "duration": 0.06862741666665784,
            "durationTicks": 14,
            "midi": 46,
            "name": "A#2",
            "ticks": 37378,
            "time": 183.22539858333337,
            "velocity": 0.6535433070866141
          },
          {
            "duration": 0.06862741666665784,
            "durationTicks": 14,
            "midi": 34,
            "name": "A#1",
            "ticks": 37378,
            "time": 183.22539858333337,
            "velocity": 0.5590551181102362
          },
          {
            "duration": 0.07843133333335572,
            "durationTicks": 16,
            "midi": 57,
            "name": "A3",
            "ticks": 37436,
            "time": 183.50971216666667,
            "velocity": 0.6535433070866141
          },
          {
            "duration": 0.01960783333331051,
            "durationTicks": 4,
            "midi": 46,
            "name": "A#2",
            "ticks": 37498,
            "time": 183.81363358333337,
            "velocity": 0.6535433070866141
          },
          {
            "duration": 0.01960783333331051,
            "durationTicks": 4,
            "midi": 34,
            "name": "A#1",
            "ticks": 37498,
            "time": 183.81363358333337,
            "velocity": 0.5590551181102362
          }
        ]
      },
      {
        "channel": 0,
        "controlChanges": {},
        "pitchBends": [],
        "instrument": {
          "family": "synth lead",
          "number": 81,
          "name": "lead 2 (sawtooth)"
        },
        "name": "",
        "notes": []
      }
    ]
  }